<svg width="1087" height="418" viewBox="0 0 1087 418" fill="none" xmlns="http://www.w3.org/2000/svg">
<g filter="url(#filter0_d_2055_339)">
<path d="M16 13H985C1029.18 13 1065 48.8172 1065 93V313C1065 357.183 1029.18 393 985 393H96C51.8172 393 16 357.183 16 313V13Z" fill="white" fill-opacity="0.05" shape-rendering="crispEdges"/>
</g>
<path d="M265.016 145.904L268.04 158.864L275.264 145.52L278.264 158.864L285.368 145.904H287.816L277.328 164.72L274.328 151.448L267.104 164.72L262.568 145.904H265.016ZM295.419 158.744H286.851C286.563 160.664 287.571 162.464 289.635 162.464C291.291 162.464 292.323 161.624 293.355 160.28L295.011 161.312C293.643 163.256 291.483 164.384 289.299 164.384C285.867 164.384 284.211 161.792 284.715 158.48C285.267 155.024 287.523 152.432 291.147 152.432C294.723 152.432 295.995 155.072 295.467 158.408L295.419 158.744ZM287.211 157.112H293.499C293.523 155.432 292.587 154.304 290.859 154.304C289.179 154.304 287.739 155.504 287.211 157.112ZM308.459 162.464C310.811 162.464 312.395 160.592 312.755 158.384C313.091 156.2 312.083 154.352 309.755 154.352C307.523 154.352 305.891 156.296 305.555 158.384C305.219 160.496 306.179 162.464 308.459 162.464ZM315.683 152.768L313.907 164H311.747L312.035 162.248H311.987C310.907 163.52 309.419 164.384 307.811 164.384C304.379 164.384 302.891 161.528 303.419 158.312C303.899 155.24 306.371 152.432 309.635 152.432C311.291 152.432 312.515 153.296 313.187 154.64H313.235L313.523 152.768H315.683ZM320.787 152.768L320.499 154.592H320.571C321.315 153.272 322.539 152.432 323.979 152.432C324.603 152.432 325.203 152.648 325.683 152.984L324.387 154.952C324.051 154.616 323.643 154.496 323.139 154.496C320.811 154.496 320.163 156.656 319.875 158.48L319.011 164H316.851L318.627 152.768H320.787ZM335.403 158.744H326.835C326.547 160.664 327.555 162.464 329.619 162.464C331.275 162.464 332.307 161.624 333.339 160.28L334.995 161.312C333.627 163.256 331.467 164.384 329.283 164.384C325.851 164.384 324.195 161.792 324.699 158.48C325.251 155.024 327.507 152.432 331.131 152.432C334.707 152.432 335.979 155.072 335.451 158.408L335.403 158.744ZM327.195 157.112H333.483C333.507 155.432 332.571 154.304 330.843 154.304C329.163 154.304 327.723 155.504 327.195 157.112ZM353.315 153.176L352.883 155.96C352.187 154.976 351.203 154.448 349.907 154.448C347.795 154.448 345.875 156.32 345.539 158.384C345.179 160.688 346.523 162.368 348.803 162.368C350.051 162.368 351.155 161.792 352.115 160.88L351.659 163.64C350.603 164.168 349.571 164.384 348.443 164.384C345.131 164.384 342.827 161.84 343.355 158.48C343.907 155 347.003 152.432 350.459 152.432C351.467 152.432 352.547 152.672 353.315 153.176ZM360.484 152.432C363.844 152.432 366.076 155.024 365.548 158.408C365.02 161.792 361.948 164.384 358.588 164.384C355.228 164.384 353.02 161.792 353.548 158.408C354.076 155.024 357.124 152.432 360.484 152.432ZM360.172 154.496C358.036 154.496 356.044 156.272 355.708 158.408C355.372 160.52 356.788 162.32 358.924 162.32C361.06 162.32 363.052 160.52 363.388 158.408C363.724 156.272 362.308 154.496 360.172 154.496ZM370.493 152.768L370.277 154.184H370.325C371.093 153.2 372.341 152.432 373.565 152.432C375.029 152.432 375.965 153.176 376.493 154.424C377.381 153.224 378.845 152.432 380.261 152.432C383.213 152.432 383.621 154.736 383.213 157.28L382.157 164H379.997L381.005 157.64C381.221 156.2 381.341 154.352 379.445 154.352C377.141 154.352 376.589 156.752 376.301 158.48L375.437 164H373.277L374.213 158.048C374.453 156.584 374.741 154.352 372.749 154.352C370.445 154.352 369.869 156.728 369.581 158.48L368.717 164H366.557L368.333 152.768H370.493ZM388.891 152.768L388.675 154.184H388.723C389.491 153.2 390.739 152.432 391.963 152.432C393.427 152.432 394.363 153.176 394.891 154.424C395.779 153.224 397.243 152.432 398.659 152.432C401.611 152.432 402.019 154.736 401.611 157.28L400.555 164H398.395L399.403 157.64C399.619 156.2 399.739 154.352 397.843 154.352C395.539 154.352 394.987 156.752 394.699 158.48L393.835 164H391.675L392.611 158.048C392.851 156.584 393.139 154.352 391.147 154.352C388.843 154.352 388.267 156.728 387.979 158.48L387.115 164H384.955L386.731 152.768H388.891ZM407.842 152.768L406.066 164H403.906L405.682 152.768H407.842ZM407.818 146.12C408.634 146.12 409.21 146.792 409.066 147.632C408.946 148.448 408.154 149.096 407.338 149.096C406.522 149.096 405.97 148.448 406.09 147.632C406.234 146.792 407.002 146.12 407.818 146.12ZM413.455 154.784L411.991 164H409.831L411.295 154.784H410.119L410.431 152.768H411.607L412.279 148.472H414.439L413.767 152.768H415.879L415.567 154.784H413.455ZM419.244 154.784L417.78 164H415.62L417.084 154.784H415.908L416.22 152.768H417.396L418.068 148.472H420.228L419.556 152.768H421.668L421.356 154.784H419.244ZM431.778 158.744H423.21C422.922 160.664 423.93 162.464 425.994 162.464C427.65 162.464 428.682 161.624 429.714 160.28L431.37 161.312C430.002 163.256 427.842 164.384 425.658 164.384C422.226 164.384 420.57 161.792 421.074 158.48C421.626 155.024 423.882 152.432 427.506 152.432C431.082 152.432 432.354 155.072 431.826 158.408L431.778 158.744ZM423.57 157.112H429.858C429.882 155.432 428.946 154.304 427.218 154.304C425.538 154.304 424.098 155.504 423.57 157.112ZM437.881 162.464C440.233 162.464 441.817 160.592 442.177 158.384C442.513 156.2 441.505 154.352 439.177 154.352C436.945 154.352 435.313 156.296 434.977 158.384C434.641 160.496 435.601 162.464 437.881 162.464ZM441.169 164L441.457 162.248H441.409C440.329 163.52 438.817 164.384 437.233 164.384C433.777 164.384 432.313 161.528 432.841 158.312C433.321 155.24 435.793 152.432 439.033 152.432C440.713 152.432 441.937 153.296 442.609 154.64H442.657L444.457 143.168H446.617L443.329 164H441.169ZM457.002 154.784L455.538 164H453.378L454.842 154.784H453.666L453.978 152.768H455.154L455.826 148.472H457.986L457.314 152.768H459.426L459.114 154.784H457.002ZM465.648 152.432C469.008 152.432 471.24 155.024 470.712 158.408C470.184 161.792 467.112 164.384 463.752 164.384C460.392 164.384 458.184 161.792 458.712 158.408C459.24 155.024 462.288 152.432 465.648 152.432ZM465.336 154.496C463.2 154.496 461.208 156.272 460.872 158.408C460.536 160.52 461.952 162.32 464.088 162.32C466.224 162.32 468.216 160.52 468.552 158.408C468.888 156.272 467.472 154.496 465.336 154.496ZM484.394 162.464C486.746 162.464 488.33 160.592 488.69 158.384C489.026 156.2 488.018 154.352 485.69 154.352C483.458 154.352 481.826 156.296 481.49 158.384C481.154 160.496 482.114 162.464 484.394 162.464ZM482.498 152.768L482.21 154.64H482.258C483.362 153.296 484.826 152.432 486.506 152.432C489.746 152.432 491.354 155.24 490.874 158.312C490.346 161.528 487.97 164.384 484.514 164.384C482.93 164.384 481.706 163.52 481.058 162.248H481.01L479.714 170.432H477.554L480.338 152.768H482.498ZM496.146 152.768L495.858 154.592H495.93C496.674 153.272 497.898 152.432 499.338 152.432C499.962 152.432 500.562 152.648 501.042 152.984L499.746 154.952C499.41 154.616 499.002 154.496 498.498 154.496C496.17 154.496 495.522 156.656 495.234 158.48L494.37 164H492.21L493.986 152.768H496.146ZM506.874 152.432C510.234 152.432 512.466 155.024 511.938 158.408C511.41 161.792 508.338 164.384 504.978 164.384C501.618 164.384 499.41 161.792 499.938 158.408C500.466 155.024 503.514 152.432 506.874 152.432ZM506.562 154.496C504.426 154.496 502.434 156.272 502.098 158.408C501.762 160.52 503.178 162.32 505.314 162.32C507.45 162.32 509.442 160.52 509.778 158.408C510.114 156.272 508.698 154.496 506.562 154.496ZM515.419 152.768L517.531 159.776L521.875 152.768H524.299L516.787 164.384L512.995 152.768H515.419ZM528.123 152.768L526.347 164H524.187L525.963 152.768H528.123ZM528.099 146.12C528.915 146.12 529.491 146.792 529.347 147.632C529.227 148.448 528.435 149.096 527.619 149.096C526.803 149.096 526.251 148.448 526.371 147.632C526.515 146.792 527.283 146.12 528.099 146.12ZM534.889 162.464C537.241 162.464 538.825 160.592 539.185 158.384C539.521 156.2 538.513 154.352 536.185 154.352C533.953 154.352 532.321 156.296 531.985 158.384C531.649 160.496 532.609 162.464 534.889 162.464ZM538.177 164L538.465 162.248H538.417C537.337 163.52 535.825 164.384 534.241 164.384C530.785 164.384 529.321 161.528 529.849 158.312C530.329 155.24 532.801 152.432 536.041 152.432C537.721 152.432 538.945 153.296 539.617 154.64H539.665L541.465 143.168H543.625L540.337 164H538.177ZM547.576 152.768L545.8 164H543.64L545.416 152.768H547.576ZM547.552 146.12C548.368 146.12 548.944 146.792 548.8 147.632C548.68 148.448 547.888 149.096 547.072 149.096C546.256 149.096 545.704 148.448 545.824 147.632C545.968 146.792 546.736 146.12 547.552 146.12ZM553.19 152.768L552.95 154.28H552.998C553.862 153.08 555.302 152.432 556.67 152.432C559.838 152.432 560.318 154.568 559.886 157.304L558.83 164H556.67L557.678 157.568C557.99 155.648 557.942 154.352 555.734 154.352C552.95 154.352 552.566 156.8 552.23 158.84L551.414 164H549.254L551.03 152.768H553.19ZM566.88 162.464C569.232 162.464 570.816 160.592 571.176 158.384C571.512 156.2 570.504 154.352 568.176 154.352C565.944 154.352 564.312 156.296 563.976 158.384C563.64 160.496 564.6 162.464 566.88 162.464ZM574.104 152.768L572.352 163.784C571.752 167.648 570.216 170.432 565.848 170.432C562.728 170.432 560.76 168.512 561.216 165.344H563.376C563.064 167.36 564.264 168.512 566.232 168.512C568.896 168.512 569.736 166.688 570.096 164.384L570.456 162.248H570.408C569.328 163.52 567.816 164.384 566.232 164.384C562.776 164.384 561.312 161.528 561.84 158.312C562.32 155.24 564.792 152.432 568.032 152.432C569.712 152.432 570.936 153.296 571.584 154.688H571.632L571.944 152.768H574.104ZM592.63 158.744H584.062C583.774 160.664 584.782 162.464 586.846 162.464C588.502 162.464 589.534 161.624 590.566 160.28L592.222 161.312C590.854 163.256 588.694 164.384 586.51 164.384C583.078 164.384 581.422 161.792 581.926 158.48C582.478 155.024 584.734 152.432 588.358 152.432C591.934 152.432 593.206 155.072 592.678 158.408L592.63 158.744ZM584.422 157.112H590.71C590.734 155.432 589.798 154.304 588.07 154.304C586.39 154.304 584.95 155.504 584.422 157.112ZM597.656 157.904L594.44 152.768H596.984L599.072 156.392L602.552 152.768H605.168L600.224 157.904L604.088 164H601.568L598.592 159.44L594.296 164H591.68L597.656 157.904ZM615.065 153.176L614.633 155.96C613.937 154.976 612.953 154.448 611.657 154.448C609.545 154.448 607.625 156.32 607.289 158.384C606.929 160.688 608.273 162.368 610.553 162.368C611.801 162.368 612.905 161.792 613.865 160.88L613.409 163.64C612.353 164.168 611.321 164.384 610.193 164.384C606.881 164.384 604.577 161.84 605.105 158.48C605.657 155 608.753 152.432 612.209 152.432C613.217 152.432 614.297 152.672 615.065 153.176ZM626.122 158.744H617.554C617.266 160.664 618.274 162.464 620.338 162.464C621.994 162.464 623.026 161.624 624.058 160.28L625.714 161.312C624.346 163.256 622.186 164.384 620.002 164.384C616.57 164.384 614.914 161.792 615.418 158.48C615.97 155.024 618.226 152.432 621.85 152.432C625.426 152.432 626.698 155.072 626.17 158.408L626.122 158.744ZM617.914 157.112H624.202C624.226 155.432 623.29 154.304 621.562 154.304C619.882 154.304 618.442 155.504 617.914 157.112ZM632.8 162.464C635.152 162.464 636.736 160.592 637.096 158.384C637.432 156.2 636.424 154.352 634.096 154.352C631.864 154.352 630.232 156.296 629.896 158.384C629.56 160.496 630.52 162.464 632.8 162.464ZM630.904 152.768L630.616 154.64H630.664C631.768 153.296 633.232 152.432 634.912 152.432C638.152 152.432 639.76 155.24 639.28 158.312C638.752 161.528 636.376 164.384 632.92 164.384C631.336 164.384 630.112 163.52 629.464 162.248H629.416L628.12 170.432H625.96L628.744 152.768H630.904ZM644.408 154.784L642.944 164H640.784L642.248 154.784H641.072L641.384 152.768H642.56L643.232 148.472H645.392L644.72 152.768H646.832L646.52 154.784H644.408ZM650.677 152.768L648.901 164H646.741L648.517 152.768H650.677ZM650.653 146.12C651.469 146.12 652.045 146.792 651.901 147.632C651.781 148.448 650.989 149.096 650.173 149.096C649.357 149.096 648.805 148.448 648.925 147.632C649.069 146.792 649.837 146.12 650.653 146.12ZM659.171 152.432C662.531 152.432 664.763 155.024 664.235 158.408C663.707 161.792 660.635 164.384 657.275 164.384C653.915 164.384 651.707 161.792 652.235 158.408C652.763 155.024 655.811 152.432 659.171 152.432ZM658.859 154.496C656.723 154.496 654.731 156.272 654.395 158.408C654.059 160.52 655.475 162.32 657.611 162.32C659.747 162.32 661.739 160.52 662.075 158.408C662.411 156.272 660.995 154.496 658.859 154.496ZM669.252 152.768L669.012 154.28H669.06C669.924 153.08 671.364 152.432 672.732 152.432C675.9 152.432 676.38 154.568 675.948 157.304L674.892 164H672.732L673.74 157.568C674.052 155.648 674.004 154.352 671.796 154.352C669.012 154.352 668.628 156.8 668.292 158.84L667.476 164H665.316L667.092 152.768H669.252ZM682.967 162.464C685.319 162.464 686.903 160.592 687.263 158.384C687.599 156.2 686.591 154.352 684.263 154.352C682.031 154.352 680.399 156.296 680.063 158.384C679.727 160.496 680.687 162.464 682.967 162.464ZM690.191 152.768L688.415 164H686.255L686.543 162.248H686.495C685.415 163.52 683.927 164.384 682.319 164.384C678.887 164.384 677.399 161.528 677.927 158.312C678.407 155.24 680.879 152.432 684.143 152.432C685.799 152.432 687.023 153.296 687.695 154.64H687.743L688.031 152.768H690.191ZM696.759 143.168L693.471 164H691.311L694.599 143.168H696.759ZM709.136 162.464C711.488 162.464 713.072 160.592 713.432 158.384C713.768 156.2 712.76 154.352 710.432 154.352C708.2 154.352 706.568 156.296 706.232 158.384C705.896 160.496 706.856 162.464 709.136 162.464ZM703.304 164L706.592 143.168H708.752L706.952 154.64H707C708.104 153.296 709.568 152.432 711.248 152.432C714.488 152.432 716.096 155.24 715.616 158.312C715.088 161.528 712.712 164.384 709.256 164.384C707.672 164.384 706.448 163.52 705.8 162.248H705.752L705.464 164H703.304ZM727.512 158.744H718.944C718.656 160.664 719.664 162.464 721.728 162.464C723.384 162.464 724.416 161.624 725.448 160.28L727.104 161.312C725.736 163.256 723.576 164.384 721.392 164.384C717.96 164.384 716.304 161.792 716.808 158.48C717.36 155.024 719.616 152.432 723.24 152.432C726.816 152.432 728.088 155.072 727.56 158.408L727.512 158.744ZM719.304 157.112H725.592C725.616 155.432 724.68 154.304 722.952 154.304C721.272 154.304 719.832 155.504 719.304 157.112ZM732.463 152.768L732.223 154.28H732.271C733.135 153.08 734.575 152.432 735.943 152.432C739.111 152.432 739.591 154.568 739.159 157.304L738.103 164H735.943L736.951 157.568C737.263 155.648 737.215 154.352 735.007 154.352C732.223 154.352 731.839 156.8 731.503 158.84L730.687 164H728.527L730.303 152.768H732.463ZM751.794 158.744H743.226C742.938 160.664 743.946 162.464 746.01 162.464C747.666 162.464 748.698 161.624 749.73 160.28L751.386 161.312C750.018 163.256 747.858 164.384 745.674 164.384C742.242 164.384 740.586 161.792 741.09 158.48C741.642 155.024 743.898 152.432 747.522 152.432C751.098 152.432 752.37 155.072 751.842 158.408L751.794 158.744ZM743.586 157.112H749.874C749.898 155.432 748.962 154.304 747.234 154.304C745.554 154.304 744.114 155.504 743.586 157.112ZM763.416 152.768L761.64 164H759.48L761.256 152.768H763.416ZM763.392 146.12C764.208 146.12 764.784 146.792 764.64 147.632C764.52 148.448 763.728 149.096 762.912 149.096C762.096 149.096 761.544 148.448 761.664 147.632C761.808 146.792 762.576 146.12 763.392 146.12ZM761.664 143.168L761.328 145.352C760.92 145.16 760.416 144.896 759.96 144.896C758.424 144.896 758.112 146.84 757.944 147.944L757.176 152.768H760.152L759.84 154.784H756.864L755.4 164H753.24L754.704 154.784H753.72L754.032 152.768H755.016L755.88 147.296C756.264 144.848 757.416 142.88 760.2 142.88C760.728 142.88 761.232 142.976 761.664 143.168ZM769.026 154.784L767.562 164H765.402L766.866 154.784H765.69L766.002 152.768H767.178L767.85 148.472H770.01L769.338 152.768H771.45L771.138 154.784H769.026ZM778.631 154.4L776.735 155.336C776.567 154.784 776.087 154.352 775.463 154.352C774.863 154.352 774.215 154.832 774.095 155.456C773.951 156.44 775.175 156.872 776.399 157.472C777.623 158.072 778.775 158.888 778.487 160.664C778.151 162.8 776.111 164.384 774.023 164.384C772.391 164.384 770.903 163.448 770.543 161.864L772.535 161.024C772.847 161.864 773.303 162.464 774.335 162.464C775.247 162.464 776.135 161.84 776.303 160.88C776.399 160.28 776.135 159.992 775.703 159.656L773.759 158.528C772.631 157.856 771.815 157.232 772.055 155.696C772.343 153.872 774.047 152.432 775.871 152.432C777.239 152.432 778.223 153.176 778.631 154.4ZM790.94 154.784L789.476 164H787.316L788.78 154.784H787.604L787.916 152.768H789.092L789.764 148.472H791.924L791.252 152.768H793.364L793.052 154.784H790.94ZM796.081 143.168H798.241L796.489 154.28H796.537C797.401 153.08 798.841 152.432 800.209 152.432C803.377 152.432 803.857 154.568 803.425 157.304L802.369 164H800.209L801.217 157.568C801.529 155.648 801.481 154.352 799.273 154.352C796.489 154.352 796.105 156.8 795.769 158.84L794.953 164H792.793L796.081 143.168ZM810.443 162.464C812.795 162.464 814.379 160.592 814.739 158.384C815.075 156.2 814.067 154.352 811.739 154.352C809.507 154.352 807.875 156.296 807.539 158.384C807.203 160.496 808.163 162.464 810.443 162.464ZM817.667 152.768L815.891 164H813.731L814.019 162.248H813.971C812.891 163.52 811.403 164.384 809.795 164.384C806.363 164.384 804.875 161.528 805.403 158.312C805.883 155.24 808.355 152.432 811.619 152.432C813.275 152.432 814.499 153.296 815.171 154.64H815.219L815.507 152.768H817.667ZM822.627 154.784L821.163 164H819.003L820.467 154.784H819.291L819.603 152.768H820.779L821.451 148.472H823.611L822.939 152.768H825.051L824.739 154.784H822.627ZM839.17 154.4L837.274 155.336C837.106 154.784 836.626 154.352 836.002 154.352C835.402 154.352 834.754 154.832 834.634 155.456C834.49 156.44 835.714 156.872 836.938 157.472C838.162 158.072 839.314 158.888 839.026 160.664C838.69 162.8 836.65 164.384 834.562 164.384C832.93 164.384 831.442 163.448 831.082 161.864L833.074 161.024C833.386 161.864 833.842 162.464 834.874 162.464C835.786 162.464 836.674 161.84 836.842 160.88C836.938 160.28 836.674 159.992 836.242 159.656L834.298 158.528C833.17 157.856 832.354 157.232 832.594 155.696C832.882 153.872 834.586 152.432 836.41 152.432C837.778 152.432 838.762 153.176 839.17 154.4ZM842.285 152.768H844.445L843.461 158.984C843.173 160.784 843.389 162.368 845.525 162.368C847.661 162.368 848.357 160.784 848.645 158.984L849.629 152.768H851.789L850.781 159.224C850.277 162.296 848.501 164.384 845.189 164.384C841.877 164.384 840.773 162.296 841.277 159.224L842.285 152.768ZM858.55 162.464C860.902 162.464 862.486 160.592 862.846 158.384C863.182 156.2 862.174 154.352 859.846 154.352C857.614 154.352 855.982 156.296 855.646 158.384C855.31 160.496 856.27 162.464 858.55 162.464ZM856.654 152.768L856.366 154.64H856.414C857.518 153.296 858.982 152.432 860.662 152.432C863.902 152.432 865.51 155.24 865.03 158.312C864.502 161.528 862.126 164.384 858.67 164.384C857.086 164.384 855.862 163.52 855.214 162.248H855.166L853.87 170.432H851.71L854.494 152.768H856.654ZM871.886 162.464C874.238 162.464 875.822 160.592 876.182 158.384C876.518 156.2 875.51 154.352 873.182 154.352C870.95 154.352 869.318 156.296 868.982 158.384C868.646 160.496 869.606 162.464 871.886 162.464ZM869.99 152.768L869.702 154.64H869.75C870.854 153.296 872.318 152.432 873.998 152.432C877.238 152.432 878.846 155.24 878.366 158.312C877.838 161.528 875.462 164.384 872.006 164.384C870.422 164.384 869.198 163.52 868.55 162.248H868.502L867.206 170.432H865.046L867.83 152.768H869.99ZM886.374 152.432C889.734 152.432 891.966 155.024 891.438 158.408C890.91 161.792 887.838 164.384 884.478 164.384C881.118 164.384 878.91 161.792 879.438 158.408C879.966 155.024 883.014 152.432 886.374 152.432ZM886.062 154.496C883.926 154.496 881.934 156.272 881.598 158.408C881.262 160.52 882.678 162.32 884.814 162.32C886.95 162.32 888.942 160.52 889.278 158.408C889.614 156.272 888.198 154.496 886.062 154.496ZM896.599 152.768L896.311 154.592H896.383C897.127 153.272 898.351 152.432 899.791 152.432C900.415 152.432 901.015 152.648 901.495 152.984L900.199 154.952C899.863 154.616 899.455 154.496 898.951 154.496C896.623 154.496 895.975 156.656 895.687 158.48L894.823 164H892.663L894.439 152.768H896.599ZM905.338 154.784L903.874 164H901.714L903.178 154.784H902.002L902.314 152.768H903.49L904.162 148.472H906.322L905.65 152.768H907.762L907.45 154.784H905.338ZM917.284 162.08L913.612 152.768H916.132L918.796 159.896L923.452 152.768H925.876L913.996 170.432H911.548L917.284 162.08ZM932.077 152.432C935.437 152.432 937.669 155.024 937.141 158.408C936.613 161.792 933.541 164.384 930.181 164.384C926.821 164.384 924.613 161.792 925.141 158.408C925.669 155.024 928.717 152.432 932.077 152.432ZM931.765 154.496C929.629 154.496 927.637 156.272 927.301 158.408C926.965 160.52 928.381 162.32 930.517 162.32C932.653 162.32 934.645 160.52 934.981 158.408C935.317 156.272 933.901 154.496 931.765 154.496ZM939.902 152.768H942.062L941.078 158.984C940.79 160.784 941.006 162.368 943.142 162.368C945.278 162.368 945.974 160.784 946.262 158.984L947.246 152.768H949.406L948.398 159.224C947.894 162.296 946.118 164.384 942.806 164.384C939.494 164.384 938.39 162.296 938.894 159.224L939.902 152.768ZM954.584 152.768L954.296 154.592H954.368C955.112 153.272 956.336 152.432 957.776 152.432C958.4 152.432 959 152.648 959.48 152.984L958.184 154.952C957.848 154.616 957.44 154.496 956.936 154.496C954.608 154.496 953.96 156.656 953.672 158.48L952.808 164H950.648L952.424 152.768H954.584ZM267.152 191.464C269.504 191.464 271.088 189.592 271.448 187.384C271.784 185.2 270.776 183.352 268.448 183.352C266.216 183.352 264.584 185.296 264.248 187.384C263.912 189.496 264.872 191.464 267.152 191.464ZM265.256 181.768L264.968 183.64H265.016C266.12 182.296 267.584 181.432 269.264 181.432C272.504 181.432 274.112 184.24 273.632 187.312C273.104 190.528 270.728 193.384 267.272 193.384C265.688 193.384 264.464 192.52 263.816 191.248H263.768L262.472 199.432H260.312L263.096 181.768H265.256ZM278.904 181.768L278.616 183.592H278.688C279.432 182.272 280.656 181.432 282.096 181.432C282.72 181.432 283.32 181.648 283.8 181.984L282.504 183.952C282.168 183.616 281.76 183.496 281.256 183.496C278.928 183.496 278.28 185.656 277.992 187.48L277.128 193H274.968L276.744 181.768H278.904ZM289.632 181.432C292.992 181.432 295.224 184.024 294.696 187.408C294.168 190.792 291.096 193.384 287.736 193.384C284.376 193.384 282.168 190.792 282.696 187.408C283.224 184.024 286.272 181.432 289.632 181.432ZM289.32 183.496C287.184 183.496 285.192 185.272 284.856 187.408C284.52 189.52 285.936 191.32 288.072 191.32C290.208 191.32 292.2 189.52 292.536 187.408C292.872 185.272 291.456 183.496 289.32 183.496ZM304.633 172.168L304.297 174.352C303.889 174.16 303.385 173.896 302.929 173.896C301.393 173.896 301.081 175.84 300.913 176.944L300.145 181.768H303.121L302.809 183.784H299.833L298.369 193H296.209L297.673 183.784H296.689L297.001 181.768H297.985L298.849 176.296C299.233 173.848 300.385 171.88 303.169 171.88C303.697 171.88 304.201 171.976 304.633 172.168ZM313.09 187.744H304.522C304.234 189.664 305.242 191.464 307.306 191.464C308.962 191.464 309.994 190.624 311.026 189.28L312.682 190.312C311.314 192.256 309.154 193.384 306.97 193.384C303.538 193.384 301.882 190.792 302.386 187.48C302.938 184.024 305.194 181.432 308.818 181.432C312.394 181.432 313.666 184.072 313.138 187.408L313.09 187.744ZM304.882 186.112H311.17C311.194 184.432 310.258 183.304 308.53 183.304C306.85 183.304 305.41 184.504 304.882 186.112ZM321.881 183.4L319.985 184.336C319.817 183.784 319.337 183.352 318.713 183.352C318.113 183.352 317.465 183.832 317.345 184.456C317.201 185.44 318.425 185.872 319.649 186.472C320.873 187.072 322.025 187.888 321.737 189.664C321.401 191.8 319.361 193.384 317.273 193.384C315.641 193.384 314.153 192.448 313.793 190.864L315.785 190.024C316.097 190.864 316.553 191.464 317.585 191.464C318.497 191.464 319.385 190.84 319.553 189.88C319.649 189.28 319.385 188.992 318.953 188.656L317.009 187.528C315.881 186.856 315.065 186.232 315.305 184.696C315.593 182.872 317.297 181.432 319.121 181.432C320.489 181.432 321.473 182.176 321.881 183.4ZM331.092 183.4L329.196 184.336C329.028 183.784 328.548 183.352 327.924 183.352C327.324 183.352 326.676 183.832 326.556 184.456C326.412 185.44 327.636 185.872 328.86 186.472C330.084 187.072 331.236 187.888 330.948 189.664C330.612 191.8 328.572 193.384 326.484 193.384C324.852 193.384 323.364 192.448 323.004 190.864L324.996 190.024C325.308 190.864 325.764 191.464 326.796 191.464C327.708 191.464 328.596 190.84 328.764 189.88C328.86 189.28 328.596 188.992 328.164 188.656L326.22 187.528C325.092 186.856 324.276 186.232 324.516 184.696C324.804 182.872 326.508 181.432 328.332 181.432C329.7 181.432 330.684 182.176 331.092 183.4ZM336.943 181.768L335.167 193H333.007L334.783 181.768H336.943ZM336.919 175.12C337.735 175.12 338.311 175.792 338.167 176.632C338.047 177.448 337.255 178.096 336.439 178.096C335.623 178.096 335.071 177.448 335.191 176.632C335.335 175.792 336.103 175.12 336.919 175.12ZM345.437 181.432C348.797 181.432 351.029 184.024 350.501 187.408C349.973 190.792 346.901 193.384 343.541 193.384C340.181 193.384 337.973 190.792 338.501 187.408C339.029 184.024 342.077 181.432 345.437 181.432ZM345.125 183.496C342.989 183.496 340.997 185.272 340.661 187.408C340.325 189.52 341.741 191.32 343.877 191.32C346.013 191.32 348.005 189.52 348.341 187.408C348.677 185.272 347.261 183.496 345.125 183.496ZM355.518 181.768L355.278 183.28H355.326C356.19 182.08 357.63 181.432 358.998 181.432C362.166 181.432 362.646 183.568 362.214 186.304L361.158 193H358.998L360.006 186.568C360.318 184.648 360.27 183.352 358.062 183.352C355.278 183.352 354.894 185.8 354.558 187.84L353.742 193H351.582L353.358 181.768H355.518ZM369.232 191.464C371.584 191.464 373.168 189.592 373.528 187.384C373.864 185.2 372.856 183.352 370.528 183.352C368.296 183.352 366.664 185.296 366.328 187.384C365.992 189.496 366.952 191.464 369.232 191.464ZM376.456 181.768L374.68 193H372.52L372.808 191.248H372.76C371.68 192.52 370.192 193.384 368.584 193.384C365.152 193.384 363.664 190.528 364.192 187.312C364.672 184.24 367.144 181.432 370.408 181.432C372.064 181.432 373.288 182.296 373.96 183.64H374.008L374.296 181.768H376.456ZM383.024 172.168L379.736 193H377.576L380.864 172.168H383.024ZM394.826 191.464C397.178 191.464 398.762 189.592 399.122 187.384C399.458 185.2 398.45 183.352 396.122 183.352C393.89 183.352 392.258 185.296 391.922 187.384C391.586 189.496 392.546 191.464 394.826 191.464ZM402.05 181.768L400.274 193H398.114L398.402 191.248H398.354C397.274 192.52 395.786 193.384 394.178 193.384C390.746 193.384 389.258 190.528 389.786 187.312C390.266 184.24 392.738 181.432 396.002 181.432C397.658 181.432 398.882 182.296 399.554 183.64H399.602L399.89 181.768H402.05ZM407.01 181.768L406.77 183.28H406.818C407.682 182.08 409.122 181.432 410.49 181.432C413.658 181.432 414.138 183.568 413.706 186.304L412.65 193H410.49L411.498 186.568C411.81 184.648 411.762 183.352 409.554 183.352C406.77 183.352 406.386 185.8 406.05 187.84L405.234 193H403.074L404.85 181.768H407.01ZM420.724 191.464C423.076 191.464 424.66 189.592 425.02 187.384C425.356 185.2 424.348 183.352 422.02 183.352C419.788 183.352 418.156 185.296 417.82 187.384C417.484 189.496 418.444 191.464 420.724 191.464ZM424.012 193L424.3 191.248H424.252C423.172 192.52 421.66 193.384 420.076 193.384C416.62 193.384 415.156 190.528 415.684 187.312C416.164 184.24 418.636 181.432 421.876 181.432C423.556 181.432 424.78 182.296 425.452 183.64H425.5L427.3 172.168H429.46L426.172 193H424.012ZM441.574 191.464C443.926 191.464 445.51 189.592 445.87 187.384C446.206 185.2 445.198 183.352 442.87 183.352C440.638 183.352 439.006 185.296 438.67 187.384C438.334 189.496 439.294 191.464 441.574 191.464ZM439.678 181.768L439.39 183.64H439.438C440.542 182.296 442.006 181.432 443.686 181.432C446.926 181.432 448.534 184.24 448.054 187.312C447.526 190.528 445.15 193.384 441.694 193.384C440.11 193.384 438.886 192.52 438.238 191.248H438.19L436.894 199.432H434.734L437.518 181.768H439.678ZM459.95 187.744H451.382C451.094 189.664 452.102 191.464 454.166 191.464C455.822 191.464 456.854 190.624 457.886 189.28L459.542 190.312C458.174 192.256 456.014 193.384 453.83 193.384C450.398 193.384 448.742 190.792 449.246 187.48C449.798 184.024 452.054 181.432 455.678 181.432C459.254 181.432 460.526 184.072 459.998 187.408L459.95 187.744ZM451.742 186.112H458.03C458.054 184.432 457.118 183.304 455.39 183.304C453.71 183.304 452.27 184.504 451.742 186.112ZM465.045 181.768L464.757 183.592H464.829C465.573 182.272 466.797 181.432 468.237 181.432C468.861 181.432 469.461 181.648 469.941 181.984L468.645 183.952C468.309 183.616 467.901 183.496 467.397 183.496C465.069 183.496 464.421 185.656 464.133 187.48L463.269 193H461.109L462.885 181.768H465.045ZM477.155 183.4L475.259 184.336C475.091 183.784 474.611 183.352 473.987 183.352C473.387 183.352 472.739 183.832 472.619 184.456C472.475 185.44 473.699 185.872 474.923 186.472C476.147 187.072 477.299 187.888 477.011 189.664C476.675 191.8 474.635 193.384 472.547 193.384C470.915 193.384 469.427 192.448 469.067 190.864L471.059 190.024C471.371 190.864 471.827 191.464 472.859 191.464C473.771 191.464 474.659 190.84 474.827 189.88C474.923 189.28 474.659 188.992 474.227 188.656L472.283 187.528C471.155 186.856 470.339 186.232 470.579 184.696C470.867 182.872 472.571 181.432 474.395 181.432C475.763 181.432 476.747 182.176 477.155 183.4ZM485.406 181.432C488.766 181.432 490.998 184.024 490.47 187.408C489.942 190.792 486.87 193.384 483.51 193.384C480.15 193.384 477.942 190.792 478.47 187.408C478.998 184.024 482.046 181.432 485.406 181.432ZM485.094 183.496C482.958 183.496 480.966 185.272 480.63 187.408C480.294 189.52 481.71 191.32 483.846 191.32C485.982 191.32 487.974 189.52 488.31 187.408C488.646 185.272 487.23 183.496 485.094 183.496ZM495.487 181.768L495.247 183.28H495.295C496.159 182.08 497.599 181.432 498.967 181.432C502.135 181.432 502.615 183.568 502.182 186.304L501.127 193H498.967L499.975 186.568C500.287 184.648 500.239 183.352 498.031 183.352C495.247 183.352 494.863 185.8 494.527 187.84L493.711 193H491.551L493.327 181.768H495.487ZM509.201 191.464C511.553 191.464 513.137 189.592 513.497 187.384C513.833 185.2 512.825 183.352 510.497 183.352C508.265 183.352 506.633 185.296 506.297 187.384C505.961 189.496 506.921 191.464 509.201 191.464ZM516.425 181.768L514.649 193H512.489L512.777 191.248H512.729C511.649 192.52 510.161 193.384 508.553 193.384C505.121 193.384 503.633 190.528 504.161 187.312C504.641 184.24 507.113 181.432 510.377 181.432C512.033 181.432 513.257 182.296 513.929 183.64H513.977L514.265 181.768H516.425ZM522.993 172.168L519.705 193H517.545L520.833 172.168H522.993ZM532.059 181.768L534.195 188.92L538.731 181.144L540.795 188.92L545.187 181.768H547.635L540.075 193.384L537.987 185.872L533.475 193.384L529.611 181.768H532.059ZM557.637 187.744H549.069C548.781 189.664 549.789 191.464 551.853 191.464C553.509 191.464 554.541 190.624 555.573 189.28L557.229 190.312C555.861 192.256 553.701 193.384 551.517 193.384C548.085 193.384 546.429 190.792 546.933 187.48C547.485 184.024 549.741 181.432 553.365 181.432C556.941 181.432 558.213 184.072 557.685 187.408L557.637 187.744ZM549.429 186.112H555.717C555.741 184.432 554.805 183.304 553.077 183.304C551.397 183.304 549.957 184.504 549.429 186.112ZM564.196 172.168L560.908 193H558.748L562.036 172.168H564.196ZM569.54 172.168L566.252 193H564.092L567.38 172.168H569.54ZM570.564 184.408H575.82L575.532 186.208H570.276L570.564 184.408ZM582.949 191.464C585.301 191.464 586.885 189.592 587.245 187.384C587.581 185.2 586.573 183.352 584.245 183.352C582.013 183.352 580.381 185.296 580.045 187.384C579.709 189.496 580.669 191.464 582.949 191.464ZM577.117 193L580.405 172.168H582.565L580.765 183.64H580.813C581.917 182.296 583.381 181.432 585.061 181.432C588.301 181.432 589.909 184.24 589.429 187.312C588.901 190.528 586.525 193.384 583.069 193.384C581.485 193.384 580.261 192.52 579.613 191.248H579.565L579.277 193H577.117ZM601.325 187.744H592.757C592.469 189.664 593.477 191.464 595.541 191.464C597.197 191.464 598.229 190.624 599.261 189.28L600.917 190.312C599.549 192.256 597.389 193.384 595.205 193.384C591.773 193.384 590.117 190.792 590.621 187.48C591.173 184.024 593.429 181.432 597.053 181.432C600.629 181.432 601.901 184.072 601.373 187.408L601.325 187.744ZM593.117 186.112H599.405C599.429 184.432 598.493 183.304 596.765 183.304C595.085 183.304 593.645 184.504 593.117 186.112ZM606.756 181.768L604.98 193H602.82L604.596 181.768H606.756ZM606.732 175.12C607.548 175.12 608.124 175.792 607.98 176.632C607.86 177.448 607.068 178.096 606.252 178.096C605.436 178.096 604.884 177.448 605.004 176.632C605.148 175.792 605.916 175.12 606.732 175.12ZM612.369 181.768L612.129 183.28H612.177C613.041 182.08 614.481 181.432 615.849 181.432C619.017 181.432 619.497 183.568 619.065 186.304L618.009 193H615.849L616.857 186.568C617.169 184.648 617.121 183.352 614.913 183.352C612.129 183.352 611.745 185.8 611.409 187.84L610.593 193H608.433L610.209 181.768H612.369ZM626.06 191.464C628.412 191.464 629.996 189.592 630.356 187.384C630.692 185.2 629.684 183.352 627.356 183.352C625.124 183.352 623.492 185.296 623.156 187.384C622.82 189.496 623.78 191.464 626.06 191.464ZM633.284 181.768L631.532 192.784C630.932 196.648 629.396 199.432 625.028 199.432C621.908 199.432 619.94 197.512 620.396 194.344H622.556C622.244 196.36 623.444 197.512 625.412 197.512C628.076 197.512 628.916 195.688 629.276 193.384L629.636 191.248H629.588C628.508 192.52 626.996 193.384 625.412 193.384C621.956 193.384 620.492 190.528 621.02 187.312C621.5 184.24 623.972 181.432 627.212 181.432C628.892 181.432 630.116 182.296 630.764 183.688H630.812L631.124 181.768H633.284ZM636.684 190.6C637.452 190.6 637.98 191.248 637.86 191.992C637.74 192.76 636.996 193.384 636.228 193.384C635.46 193.384 634.956 192.76 635.076 191.992C635.196 191.248 635.916 190.6 636.684 190.6ZM265.016 232.904L268.04 245.864L275.264 232.52L278.264 245.864L285.368 232.904H287.816L277.328 251.72L274.328 238.448L267.104 251.72L262.568 232.904H265.016ZM295.419 245.744H286.851C286.563 247.664 287.571 249.464 289.635 249.464C291.291 249.464 292.323 248.624 293.355 247.28L295.011 248.312C293.643 250.256 291.483 251.384 289.299 251.384C285.867 251.384 284.211 248.792 284.715 245.48C285.267 242.024 287.523 239.432 291.147 239.432C294.723 239.432 295.995 242.072 295.467 245.408L295.419 245.744ZM287.211 244.112H293.499C293.523 242.432 292.587 241.304 290.859 241.304C289.179 241.304 287.739 242.504 287.211 244.112ZM311.147 241.4L309.251 242.336C309.083 241.784 308.603 241.352 307.979 241.352C307.379 241.352 306.731 241.832 306.611 242.456C306.467 243.44 307.691 243.872 308.915 244.472C310.139 245.072 311.291 245.888 311.003 247.664C310.667 249.8 308.627 251.384 306.539 251.384C304.907 251.384 303.419 250.448 303.059 248.864L305.051 248.024C305.363 248.864 305.819 249.464 306.851 249.464C307.763 249.464 308.651 248.84 308.819 247.88C308.915 247.28 308.651 246.992 308.219 246.656L306.275 245.528C305.147 244.856 304.331 244.232 304.571 242.696C304.859 240.872 306.563 239.432 308.387 239.432C309.755 239.432 310.739 240.176 311.147 241.4ZM316.518 241.784L315.054 251H312.894L314.358 241.784H313.182L313.494 239.768H314.67L315.342 235.472H317.502L316.83 239.768H318.942L318.63 241.784H316.518ZM322.787 239.768L321.011 251H318.851L320.627 239.768H322.787ZM322.763 233.12C323.579 233.12 324.155 233.792 324.011 234.632C323.891 235.448 323.099 236.096 322.283 236.096C321.467 236.096 320.915 235.448 321.035 234.632C321.179 233.792 321.947 233.12 322.763 233.12ZM330.009 230.168L326.721 251H324.561L327.849 230.168H330.009ZM335.352 230.168L332.064 251H329.904L333.192 230.168H335.352ZM345.354 230.168H347.514L345.762 241.28H345.81C346.674 240.08 348.114 239.432 349.482 239.432C352.65 239.432 353.13 241.568 352.698 244.304L351.642 251H349.482L350.49 244.568C350.802 242.648 350.754 241.352 348.546 241.352C345.762 241.352 345.378 243.8 345.042 245.84L344.226 251H342.066L345.354 230.168ZM359.717 249.464C362.069 249.464 363.653 247.592 364.013 245.384C364.349 243.2 363.341 241.352 361.013 241.352C358.781 241.352 357.149 243.296 356.813 245.384C356.477 247.496 357.437 249.464 359.717 249.464ZM366.941 239.768L365.165 251H363.005L363.293 249.248H363.245C362.165 250.52 360.677 251.384 359.069 251.384C355.637 251.384 354.149 248.528 354.677 245.312C355.157 242.24 357.629 239.432 360.893 239.432C362.549 239.432 363.773 240.296 364.445 241.64H364.493L364.781 239.768H366.941ZM370.365 239.768L372.477 246.776L376.821 239.768H379.245L371.733 251.384L367.941 239.768H370.365ZM389.356 245.744H380.788C380.5 247.664 381.508 249.464 383.572 249.464C385.228 249.464 386.26 248.624 387.292 247.28L388.948 248.312C387.58 250.256 385.42 251.384 383.236 251.384C379.804 251.384 378.148 248.792 378.652 245.48C379.204 242.024 381.46 239.432 385.084 239.432C388.66 239.432 389.932 242.072 389.404 245.408L389.356 245.744ZM381.148 244.112H387.436C387.46 242.432 386.524 241.304 384.796 241.304C383.116 241.304 381.676 242.504 381.148 244.112ZM401.172 239.768L400.956 241.184H401.004C401.772 240.2 403.02 239.432 404.244 239.432C405.708 239.432 406.644 240.176 407.172 241.424C408.06 240.224 409.524 239.432 410.94 239.432C413.892 239.432 414.3 241.736 413.892 244.28L412.836 251H410.676L411.684 244.64C411.9 243.2 412.02 241.352 410.124 241.352C407.82 241.352 407.268 243.752 406.98 245.48L406.116 251H403.956L404.892 245.048C405.132 243.584 405.42 241.352 403.428 241.352C401.124 241.352 400.548 243.728 400.26 245.48L399.396 251H397.236L399.012 239.768H401.172ZM422.523 239.432C425.883 239.432 428.115 242.024 427.587 245.408C427.059 248.792 423.987 251.384 420.627 251.384C417.267 251.384 415.059 248.792 415.587 245.408C416.115 242.024 419.163 239.432 422.523 239.432ZM422.211 241.496C420.075 241.496 418.083 243.272 417.747 245.408C417.411 247.52 418.827 249.32 420.963 249.32C423.099 249.32 425.091 247.52 425.427 245.408C425.763 243.272 424.347 241.496 422.211 241.496ZM432.748 239.768L432.46 241.592H432.532C433.276 240.272 434.5 239.432 435.94 239.432C436.564 239.432 437.164 239.648 437.644 239.984L436.348 241.952C436.012 241.616 435.604 241.496 435.1 241.496C432.772 241.496 432.124 243.656 431.836 245.48L430.972 251H428.812L430.588 239.768H432.748ZM447.364 245.744H438.796C438.508 247.664 439.516 249.464 441.58 249.464C443.236 249.464 444.268 248.624 445.3 247.28L446.956 248.312C445.588 250.256 443.428 251.384 441.244 251.384C437.812 251.384 436.156 248.792 436.66 245.48C437.212 242.024 439.468 239.432 443.092 239.432C446.668 239.432 447.94 242.072 447.412 245.408L447.364 245.744ZM439.156 244.112H445.444C445.468 242.432 444.532 241.304 442.804 241.304C441.124 241.304 439.684 242.504 439.156 244.112ZM459.252 241.784L457.788 251H455.628L457.092 241.784H455.916L456.228 239.768H457.404L458.076 235.472H460.236L459.564 239.768H461.676L461.364 241.784H459.252ZM467.898 239.432C471.258 239.432 473.49 242.024 472.962 245.408C472.434 248.792 469.362 251.384 466.002 251.384C462.642 251.384 460.434 248.792 460.962 245.408C461.49 242.024 464.538 239.432 467.898 239.432ZM467.586 241.496C465.45 241.496 463.458 243.272 463.122 245.408C462.786 247.52 464.202 249.32 466.338 249.32C468.474 249.32 470.466 247.52 470.802 245.408C471.138 243.272 469.722 241.496 467.586 241.496ZM490.94 240.176L490.508 242.96C489.812 241.976 488.828 241.448 487.532 241.448C485.42 241.448 483.5 243.32 483.164 245.384C482.804 247.688 484.148 249.368 486.428 249.368C487.676 249.368 488.78 248.792 489.74 247.88L489.284 250.64C488.228 251.168 487.196 251.384 486.068 251.384C482.756 251.384 480.452 248.84 480.98 245.48C481.532 242 484.628 239.432 488.084 239.432C489.092 239.432 490.172 239.672 490.94 240.176ZM498.109 239.432C501.469 239.432 503.701 242.024 503.173 245.408C502.645 248.792 499.573 251.384 496.213 251.384C492.853 251.384 490.645 248.792 491.173 245.408C491.701 242.024 494.749 239.432 498.109 239.432ZM497.797 241.496C495.661 241.496 493.669 243.272 493.333 245.408C492.997 247.52 494.413 249.32 496.549 249.32C498.685 249.32 500.677 247.52 501.013 245.408C501.349 243.272 499.933 241.496 497.797 241.496ZM508.118 239.768L507.902 241.184H507.95C508.718 240.2 509.966 239.432 511.19 239.432C512.654 239.432 513.59 240.176 514.118 241.424C515.006 240.224 516.47 239.432 517.886 239.432C520.838 239.432 521.246 241.736 520.838 244.28L519.782 251H517.622L518.63 244.64C518.846 243.2 518.966 241.352 517.07 241.352C514.766 241.352 514.214 243.752 513.926 245.48L513.062 251H510.902L511.838 245.048C512.078 243.584 512.366 241.352 510.374 241.352C508.07 241.352 507.494 243.728 507.206 245.48L506.342 251H504.182L505.958 239.768H508.118ZM533.356 245.744H524.788C524.5 247.664 525.508 249.464 527.572 249.464C529.228 249.464 530.26 248.624 531.292 247.28L532.948 248.312C531.58 250.256 529.42 251.384 527.236 251.384C523.804 251.384 522.148 248.792 522.652 245.48C523.204 242.024 525.46 239.432 529.084 239.432C532.66 239.432 533.932 242.072 533.404 245.408L533.356 245.744ZM525.148 244.112H531.436C531.46 242.432 530.524 241.304 528.796 241.304C527.116 241.304 525.676 242.504 525.148 244.112ZM537.275 248.144L539.027 248.888L534.827 255.296L533.579 254.744L537.275 248.144ZM556.022 241.4L554.126 242.336C553.958 241.784 553.478 241.352 552.854 241.352C552.254 241.352 551.606 241.832 551.486 242.456C551.342 243.44 552.566 243.872 553.79 244.472C555.014 245.072 556.166 245.888 555.878 247.664C555.542 249.8 553.502 251.384 551.414 251.384C549.782 251.384 548.294 250.448 547.934 248.864L549.926 248.024C550.238 248.864 550.694 249.464 551.726 249.464C552.638 249.464 553.526 248.84 553.694 247.88C553.79 247.28 553.526 246.992 553.094 246.656L551.15 245.528C550.022 244.856 549.206 244.232 549.446 242.696C549.734 240.872 551.438 239.432 553.262 239.432C554.63 239.432 555.614 240.176 556.022 241.4ZM561.393 241.784L559.929 251H557.769L559.233 241.784H558.057L558.369 239.768H559.545L560.217 235.472H562.377L561.705 239.768H563.817L563.505 241.784H561.393ZM568.31 249.464C570.662 249.464 572.246 247.592 572.606 245.384C572.942 243.2 571.934 241.352 569.606 241.352C567.374 241.352 565.742 243.296 565.406 245.384C565.07 247.496 566.03 249.464 568.31 249.464ZM575.534 239.768L573.758 251H571.598L571.886 249.248H571.838C570.758 250.52 569.27 251.384 567.662 251.384C564.23 251.384 562.742 248.528 563.27 245.312C563.75 242.24 566.222 239.432 569.486 239.432C571.142 239.432 572.366 240.296 573.038 241.64H573.086L573.374 239.768H575.534ZM580.206 249.08L576.534 239.768H579.054L581.718 246.896L586.374 239.768H588.798L576.918 257.432H574.47L580.206 249.08ZM599.057 241.784L597.593 251H595.433L596.897 241.784H595.721L596.033 239.768H597.209L597.881 235.472H600.041L599.369 239.768H601.481L601.169 241.784H599.057ZM602.566 239.768H604.726L603.742 245.984C603.454 247.784 603.67 249.368 605.806 249.368C607.942 249.368 608.638 247.784 608.926 245.984L609.91 239.768H612.07L611.062 246.224C610.558 249.296 608.782 251.384 605.47 251.384C602.158 251.384 601.054 249.296 601.558 246.224L602.566 239.768ZM617.104 239.768L616.864 241.28H616.912C617.776 240.08 619.216 239.432 620.584 239.432C623.752 239.432 624.232 241.568 623.8 244.304L622.744 251H620.584L621.592 244.568C621.904 242.648 621.856 241.352 619.648 241.352C616.864 241.352 616.48 243.8 616.144 245.84L615.328 251H613.168L614.944 239.768H617.104ZM636.434 245.744H627.866C627.578 247.664 628.586 249.464 630.65 249.464C632.306 249.464 633.338 248.624 634.37 247.28L636.026 248.312C634.658 250.256 632.498 251.384 630.314 251.384C626.882 251.384 625.226 248.792 625.73 245.48C626.282 242.024 628.538 239.432 632.162 239.432C635.738 239.432 637.01 242.072 636.482 245.408L636.434 245.744ZM628.226 244.112H634.514C634.538 242.432 633.602 241.304 631.874 241.304C630.194 241.304 628.754 242.504 628.226 244.112ZM642.537 249.464C644.889 249.464 646.473 247.592 646.833 245.384C647.169 243.2 646.161 241.352 643.833 241.352C641.601 241.352 639.969 243.296 639.633 245.384C639.297 247.496 640.257 249.464 642.537 249.464ZM645.825 251L646.113 249.248H646.065C644.985 250.52 643.473 251.384 641.889 251.384C638.433 251.384 636.969 248.528 637.497 245.312C637.977 242.24 640.449 239.432 643.689 239.432C645.369 239.432 646.593 240.296 647.265 241.64H647.313L649.113 230.168H651.273L647.985 251H645.825ZM666.578 230.168L666.242 232.352C665.834 232.16 665.33 231.896 664.874 231.896C663.338 231.896 663.026 233.84 662.858 234.944L662.09 239.768H665.066L664.754 241.784H661.778L660.314 251H658.154L659.618 241.784H658.634L658.946 239.768H659.93L660.794 234.296C661.178 231.848 662.33 229.88 665.114 229.88C665.642 229.88 666.146 229.976 666.578 230.168ZM671.148 239.432C674.508 239.432 676.74 242.024 676.212 245.408C675.684 248.792 672.612 251.384 669.252 251.384C665.892 251.384 663.684 248.792 664.212 245.408C664.74 242.024 667.788 239.432 671.148 239.432ZM670.836 241.496C668.7 241.496 666.708 243.272 666.372 245.408C666.036 247.52 667.452 249.32 669.588 249.32C671.724 249.32 673.716 247.52 674.052 245.408C674.388 243.272 672.972 241.496 670.836 241.496ZM681.373 239.768L681.085 241.592H681.157C681.901 240.272 683.125 239.432 684.565 239.432C685.189 239.432 685.789 239.648 686.269 239.984L684.973 241.952C684.637 241.616 684.229 241.496 683.725 241.496C681.397 241.496 680.749 243.656 680.461 245.48L679.597 251H677.437L679.213 239.768H681.373ZM694.184 239.768H696.344L695.36 245.984C695.072 247.784 695.288 249.368 697.424 249.368C699.56 249.368 700.256 247.784 700.544 245.984L701.528 239.768H703.688L702.68 246.224C702.176 249.296 700.4 251.384 697.088 251.384C693.776 251.384 692.672 249.296 693.176 246.224L694.184 239.768ZM710.449 249.464C712.801 249.464 714.385 247.592 714.745 245.384C715.081 243.2 714.073 241.352 711.745 241.352C709.513 241.352 707.881 243.296 707.545 245.384C707.209 247.496 708.169 249.464 710.449 249.464ZM708.553 239.768L708.265 241.64H708.313C709.417 240.296 710.881 239.432 712.561 239.432C715.801 239.432 717.409 242.24 716.929 245.312C716.401 248.528 714.025 251.384 710.569 251.384C708.985 251.384 707.761 250.52 707.113 249.248H707.065L705.769 257.432H703.609L706.393 239.768H708.553ZM723.209 249.464C725.561 249.464 727.145 247.592 727.505 245.384C727.841 243.2 726.833 241.352 724.505 241.352C722.273 241.352 720.641 243.296 720.305 245.384C719.969 247.496 720.929 249.464 723.209 249.464ZM726.497 251L726.785 249.248H726.737C725.657 250.52 724.145 251.384 722.561 251.384C719.105 251.384 717.641 248.528 718.169 245.312C718.649 242.24 721.121 239.432 724.361 239.432C726.041 239.432 727.265 240.296 727.937 241.64H727.985L729.785 230.168H731.945L728.657 251H726.497ZM736.545 249.464C738.897 249.464 740.481 247.592 740.841 245.384C741.177 243.2 740.169 241.352 737.841 241.352C735.609 241.352 733.977 243.296 733.641 245.384C733.305 247.496 734.265 249.464 736.545 249.464ZM743.769 239.768L741.993 251H739.833L740.121 249.248H740.073C738.993 250.52 737.505 251.384 735.897 251.384C732.465 251.384 730.977 248.528 731.505 245.312C731.985 242.24 734.457 239.432 737.721 239.432C739.377 239.432 740.601 240.296 741.273 241.64H741.321L741.609 239.768H743.769ZM748.729 241.784L747.265 251H745.105L746.569 241.784H745.393L745.705 239.768H746.881L747.553 235.472H749.713L749.041 239.768H751.153L750.841 241.784H748.729ZM761.262 245.744H752.694C752.406 247.664 753.414 249.464 755.478 249.464C757.134 249.464 758.166 248.624 759.198 247.28L760.854 248.312C759.486 250.256 757.326 251.384 755.142 251.384C751.71 251.384 750.054 248.792 750.558 245.48C751.11 242.024 753.366 239.432 756.99 239.432C760.566 239.432 761.838 242.072 761.31 245.408L761.262 245.744ZM753.054 244.112H759.342C759.366 242.432 758.43 241.304 756.702 241.304C755.022 241.304 753.582 242.504 753.054 244.112ZM770.053 241.4L768.157 242.336C767.989 241.784 767.509 241.352 766.885 241.352C766.285 241.352 765.637 241.832 765.517 242.456C765.373 243.44 766.597 243.872 767.821 244.472C769.045 245.072 770.197 245.888 769.909 247.664C769.573 249.8 767.533 251.384 765.445 251.384C763.813 251.384 762.325 250.448 761.965 248.864L763.957 248.024C764.269 248.864 764.725 249.464 765.757 249.464C766.669 249.464 767.557 248.84 767.725 247.88C767.821 247.28 767.557 246.992 767.125 246.656L765.181 245.528C764.053 244.856 763.237 244.232 763.477 242.696C763.765 240.872 765.469 239.432 767.293 239.432C768.661 239.432 769.645 240.176 770.053 241.4ZM773.864 248.6C774.632 248.6 775.16 249.248 775.04 249.992C774.92 250.76 774.176 251.384 773.408 251.384C772.64 251.384 772.136 250.76 772.256 249.992C772.376 249.248 773.096 248.6 773.864 248.6Z" fill="#0E3D68"/>
<defs>
<filter id="filter0_d_2055_339" x="0.200001" y="0.200001" width="1086.6" height="417.6" filterUnits="userSpaceOnUse" color-interpolation-filters="sRGB">
<feFlood flood-opacity="0" result="BackgroundImageFix"/>
<feColorMatrix in="SourceAlpha" type="matrix" values="0 0 0 0 0 0 0 0 0 0 0 0 0 0 0 0 0 0 127 0" result="hardAlpha"/>
<feOffset dx="3" dy="6"/>
<feGaussianBlur stdDeviation="9.4"/>
<feComposite in2="hardAlpha" operator="out"/>
<feColorMatrix type="matrix" values="0 0 0 0 0 0 0 0 0 0 0 0 0 0 0 0 0 0 0.2 0"/>
<feBlend mode="normal" in2="BackgroundImageFix" result="effect1_dropShadow_2055_339"/>
<feBlend mode="normal" in="SourceGraphic" in2="effect1_dropShadow_2055_339" result="shape"/>
</filter>
</defs>
</svg>
