<svg width="382" height="302" viewBox="0 0 382 302" fill="none" xmlns="http://www.w3.org/2000/svg">
<path d="M310.672 0H71.328C35.5245 0 6.5 24.3478 6.5 54.3823V214.618C6.5 244.652 35.5245 269 71.328 269H310.672C346.476 269 375.5 244.652 375.5 214.618V54.3823C375.5 24.3478 346.476 0 310.672 0Z" fill="#0E3D68"/>
<path d="M90.5103 173L93.3663 154.904H99.1263C102.006 154.904 105.174 156.152 104.55 160.064C104.238 162.104 102.654 163.688 100.59 163.688V163.736C102.966 163.928 103.998 165.416 103.614 167.84C103.254 170.072 101.454 173 97.0863 173H90.5103ZM96.0303 169.088H96.4383C97.5183 169.088 98.5503 168.56 98.7423 167.336C98.9343 166.112 98.0943 165.608 96.9663 165.608H96.5823L96.0303 169.088ZM97.1583 161.936H97.4463C98.4543 161.936 99.4623 161.528 99.6303 160.352C99.8223 159.272 99.1503 158.816 98.1423 158.816H97.6623L97.1583 161.936ZM105.159 173L108.015 154.904H117.111L116.439 159.176H112.239L111.855 161.696H115.623L114.927 165.968H111.159L110.727 168.728H114.927L114.255 173H105.159ZM116.751 172.568L117.639 166.904C118.167 167.912 119.175 168.92 120.423 168.92C121.095 168.92 121.935 168.512 122.055 167.72C122.127 167.288 122.031 166.976 121.815 166.712C121.647 166.448 121.407 166.232 121.119 166.016C120.279 165.272 119.559 164.576 119.055 163.712C118.599 162.872 118.359 161.864 118.575 160.544C118.911 158.432 120.855 154.592 125.031 154.592C126.207 154.592 127.431 154.952 128.367 155.504L127.503 161C127.071 160.088 126.063 159.056 124.935 159.056C124.359 159.056 123.591 159.464 123.495 160.16C123.423 160.544 123.591 160.88 123.807 161.168C124.023 161.456 124.359 161.696 124.575 161.912C125.487 162.632 126.207 163.304 126.639 164.12C127.071 164.936 127.239 165.896 127.023 167.264C126.495 170.624 123.711 173.312 120.303 173.312C119.055 173.312 117.831 173.048 116.751 172.568ZM135.011 173H130.115L132.275 159.32H129.587L130.283 154.904H140.675L139.979 159.32H137.171L135.011 173ZM146.432 173L149.288 154.904H155.048C157.928 154.904 161.096 156.152 160.472 160.064C160.16 162.104 158.576 163.688 156.512 163.688V163.736C158.888 163.928 159.92 165.416 159.536 167.84C159.176 170.072 157.376 173 153.008 173H146.432ZM151.952 169.088H152.36C153.44 169.088 154.472 168.56 154.664 167.336C154.856 166.112 154.016 165.608 152.888 165.608H152.504L151.952 169.088ZM153.08 161.936H153.368C154.376 161.936 155.384 161.528 155.552 160.352C155.744 159.272 155.072 158.816 154.064 158.816H153.584L153.08 161.936ZM161.081 173L163.937 154.904H173.033L172.361 159.176H168.161L167.777 161.696H171.545L170.849 165.968H167.081L166.649 168.728H170.849L170.177 173H161.081ZM173.057 173L175.913 154.904H180.569L182.777 165.8L182.825 165.752C182.969 163.664 182.921 161.6 183.257 159.512L183.977 154.904H188.681L185.825 173H181.121L179.129 162.56L179.081 162.608C178.913 164.312 178.865 165.992 178.601 167.696L177.761 173H173.057ZM188.713 173L191.569 154.904H200.665L199.993 159.176H195.793L195.409 161.696H199.177L198.481 165.968H194.713L194.281 168.728H198.481L197.809 173H188.713ZM205.586 173H200.69L203.546 154.904H212.186L211.514 159.176H207.77L207.362 161.792H210.866L210.194 166.064H206.69L205.586 173ZM217.141 173H212.245L215.101 154.904H219.997L217.141 173ZM226.722 173H221.826L223.986 159.32H221.298L221.994 154.904H232.386L231.69 159.32H228.882L226.722 173ZM231.103 172.568L231.991 166.904C232.519 167.912 233.527 168.92 234.775 168.92C235.447 168.92 236.287 168.512 236.407 167.72C236.479 167.288 236.383 166.976 236.167 166.712C235.999 166.448 235.759 166.232 235.471 166.016C234.631 165.272 233.911 164.576 233.407 163.712C232.951 162.872 232.711 161.864 232.927 160.544C233.263 158.432 235.207 154.592 239.383 154.592C240.559 154.592 241.783 154.952 242.719 155.504L241.855 161C241.423 160.088 240.415 159.056 239.287 159.056C238.711 159.056 237.943 159.464 237.847 160.16C237.775 160.544 237.943 160.88 238.159 161.168C238.375 161.456 238.711 161.696 238.927 161.912C239.839 162.632 240.559 163.304 240.991 164.12C241.423 164.936 241.591 165.896 241.375 167.264C240.847 170.624 238.063 173.312 234.655 173.312C233.407 173.312 232.183 173.048 231.103 172.568ZM250.211 163.952C250.907 159.536 253.619 154.592 258.587 154.592C263.555 154.592 264.731 159.536 264.035 163.952C263.339 168.368 260.603 173.312 255.635 173.312C250.667 173.312 249.515 168.368 250.211 163.952ZM255.203 163.952C255.011 165.08 254.507 168.752 256.355 168.752C258.203 168.752 258.851 165.08 259.043 163.952C259.211 162.824 259.715 159.152 257.867 159.152C256.019 159.152 255.371 162.824 255.203 163.952ZM275.084 154.904H279.98L278.108 166.736C277.772 168.92 276.596 173.312 270.932 173.312C265.268 173.312 265.484 168.92 265.82 166.736L267.692 154.904H272.588L270.788 166.28C270.716 166.76 270.596 167.384 270.668 167.864C270.74 168.368 270.98 168.752 271.652 168.752C272.348 168.752 272.732 168.368 272.924 167.888C273.14 167.384 273.212 166.76 273.284 166.304L275.084 154.904ZM292.773 173H287.469L285.957 165.464L285.885 165.512C285.789 166.4 285.693 167.288 285.549 168.176L284.781 173H279.885L282.741 154.904H287.469C291.717 154.904 294.597 156.152 293.853 160.928C293.541 162.92 292.389 164.696 290.325 165.464L292.773 173ZM286.317 163.256L286.629 163.28C287.925 163.28 288.813 162.152 288.981 160.976C289.245 159.392 288.381 158.72 287.037 158.792L286.317 163.256ZM76.583 185.024L75.743 190.208C75.167 189.536 74.639 189.152 73.631 189.152C71.087 189.152 70.031 191.96 69.719 193.952C69.383 196.064 69.575 198.752 72.023 198.752C73.127 198.752 73.895 198.32 74.807 197.6L73.703 202.664C72.647 203.096 71.735 203.312 70.655 203.312C66.647 203.312 63.719 200.264 64.703 194.072C65.975 185.96 71.759 184.592 74.135 184.592C74.999 184.592 75.839 184.712 76.583 185.024ZM76.6561 193.952C77.3521 189.536 80.0641 184.592 85.0321 184.592C90.0001 184.592 91.1761 189.536 90.4801 193.952C89.7841 198.368 87.0481 203.312 82.0801 203.312C77.1121 203.312 75.9601 198.368 76.6561 193.952ZM81.6481 193.952C81.4561 195.08 80.9521 198.752 82.8001 198.752C84.6481 198.752 85.2961 195.08 85.4881 193.952C85.6561 192.824 86.1601 189.152 84.3121 189.152C82.4641 189.152 81.8161 192.824 81.6481 193.952ZM109.401 203H104.313L105.657 191.624H105.609C105.177 192.944 104.817 194.264 104.361 195.584L101.793 203H97.8089L97.9049 191.624H97.8569C97.6169 192.968 97.4249 194.288 97.1609 195.632L95.5769 203H90.3209L95.2889 184.904H101.385L101.265 194.528H101.313C101.625 193.4 101.937 192.296 102.321 191.168L104.481 184.904H110.505L109.401 203ZM116.102 203H111.206L114.062 184.904H118.526C122.798 184.904 125.87 186.296 125.126 191.048C124.382 195.752 121.262 197.192 117.038 197.072L116.102 203ZM120.182 190.976C120.374 189.824 119.918 188.792 118.718 188.792L118.358 188.816L117.686 192.992C119.03 193.064 119.966 192.32 120.182 190.976ZM137.125 203H132.061V200.672H128.773L128.005 203H122.965L130.165 184.904H136.141L137.125 203ZM130.045 196.832H132.109L132.229 192.632C132.277 191.504 132.349 190.352 132.421 189.224H132.373C132.037 190.352 131.749 191.504 131.365 192.632L130.045 196.832ZM138.745 203L141.601 184.904H146.257L148.465 195.8L148.513 195.752C148.657 193.664 148.609 191.6 148.945 189.512L149.665 184.904H154.369L151.513 203H146.809L144.817 192.56L144.769 192.608C144.601 194.312 144.553 195.992 144.289 197.696L143.449 203H138.745ZM162.513 203H157.617L158.841 195.32L156.009 184.904H161.097L161.913 190.496H161.961L164.529 184.904H169.593L163.737 195.32L162.513 203ZM187.122 203H182.227L183.379 195.656H181.051L179.898 203H175.003L177.859 184.904H182.755L181.747 191.384H184.075L185.083 184.904H189.979L187.122 203ZM202.938 203H197.874V200.672H194.586L193.818 203H188.778L195.978 184.904H201.954L202.938 203ZM195.858 196.832H197.922L198.042 192.632C198.09 191.504 198.162 190.352 198.234 189.224H198.186C197.85 190.352 197.562 191.504 197.178 192.632L195.858 196.832ZM204.173 202.568L205.061 196.904C205.589 197.912 206.597 198.92 207.845 198.92C208.517 198.92 209.357 198.512 209.477 197.72C209.549 197.288 209.453 196.976 209.237 196.712C209.069 196.448 208.829 196.232 208.541 196.016C207.701 195.272 206.981 194.576 206.477 193.712C206.021 192.872 205.781 191.864 205.997 190.544C206.333 188.432 208.277 184.592 212.453 184.592C213.629 184.592 214.853 184.952 215.789 185.504L214.925 191C214.493 190.088 213.485 189.056 212.357 189.056C211.781 189.056 211.013 189.464 210.917 190.16C210.845 190.544 211.013 190.88 211.229 191.168C211.445 191.456 211.781 191.696 211.997 191.912C212.909 192.632 213.629 193.304 214.061 194.12C214.493 194.936 214.661 195.896 214.445 197.264C213.917 200.624 211.133 203.312 207.725 203.312C206.477 203.312 205.253 203.048 204.173 202.568ZM229.23 203H224.334L226.494 189.32H223.806L224.502 184.904H234.894L234.198 189.32H231.39L229.23 203ZM234.601 193.952C235.297 189.536 238.009 184.592 242.977 184.592C247.945 184.592 249.121 189.536 248.425 193.952C247.729 198.368 244.993 203.312 240.025 203.312C235.057 203.312 233.905 198.368 234.601 193.952ZM239.593 193.952C239.401 195.08 238.897 198.752 240.745 198.752C242.593 198.752 243.241 195.08 243.433 193.952C243.601 192.824 244.105 189.152 242.257 189.152C240.409 189.152 239.761 192.824 239.593 193.952ZM256.75 193.952C257.446 189.536 260.158 184.592 265.126 184.592C270.094 184.592 271.27 189.536 270.574 193.952C269.878 198.368 267.142 203.312 262.174 203.312C257.206 203.312 256.054 198.368 256.75 193.952ZM261.742 193.952C261.55 195.08 261.046 198.752 262.894 198.752C264.742 198.752 265.39 195.08 265.582 193.952C265.75 192.824 266.254 189.152 264.406 189.152C262.558 189.152 261.91 192.824 261.742 193.952ZM276.391 203H271.495L274.351 184.904H282.991L282.319 189.176H278.575L278.167 191.792H281.671L280.999 196.064H277.495L276.391 203ZM287.945 203H283.049L285.905 184.904H294.545L293.873 189.176H290.129L289.721 191.792H293.225L292.553 196.064H289.049L287.945 203ZM294.604 203L297.46 184.904H306.556L305.884 189.176H301.684L301.3 191.696H305.068L304.372 195.968H300.604L300.172 198.728H304.372L303.7 203H294.604ZM319.469 203H314.165L312.653 195.464L312.581 195.512C312.485 196.4 312.389 197.288 312.245 198.176L311.477 203H306.581L309.437 184.904H314.165C318.413 184.904 321.293 186.152 320.549 190.928C320.237 192.92 319.085 194.696 317.021 195.464L319.469 203ZM313.013 193.256L313.325 193.28C314.621 193.28 315.509 192.152 315.677 190.976C315.941 189.392 315.077 188.72 313.733 188.792L313.013 193.256Z" fill="#78C440"/>
<path d="M92.8181 123V82.284H105.778C112.258 82.284 119.818 85.092 119.818 93.894C119.818 98.484 116.848 102.048 112.204 102.048V102.156C117.604 102.588 120.466 105.936 120.466 111.39C120.466 116.412 117.442 123 107.614 123H92.8181ZM103.834 114.198H104.752C107.182 114.198 109.342 113.01 109.342 110.256C109.342 107.502 107.236 106.368 104.698 106.368H103.834V114.198ZM103.834 98.106H104.482C106.75 98.106 108.856 97.188 108.856 94.542C108.856 92.112 107.182 91.086 104.914 91.086H103.834V98.106ZM125.777 123V82.284H146.243V91.896H136.793V97.566H145.271V107.178H136.793V113.388H146.243V123H125.777ZM152.724 123V82.284H163.2L172.002 106.8L172.11 106.692C171.678 101.994 170.868 97.35 170.868 92.652V82.284H181.452V123H170.868L162.66 99.51L162.552 99.618C162.822 103.452 163.308 107.232 163.308 111.066V123H152.724ZM187.951 123V82.284H208.417V91.896H198.967V97.566H207.445V107.178H198.967V113.388H208.417V123H187.951ZM225.914 123H214.898V82.284H234.338V91.896H225.914V97.782H233.798V107.394H225.914V123ZM251.912 123H240.896V82.284H251.912V123ZM273.47 123H262.454V92.22H256.406V82.284H279.788V92.22H273.47V123ZM283.165 122.028V109.284C284.677 111.552 287.323 113.82 290.131 113.82C291.643 113.82 293.371 112.902 293.371 111.12C293.371 110.148 293.047 109.446 292.507 108.852C292.021 108.258 291.373 107.772 290.671 107.286C288.511 105.612 286.621 104.046 285.217 102.102C283.867 100.212 283.003 97.944 283.003 94.974C283.003 90.222 286.027 81.582 295.423 81.582C298.069 81.582 300.931 82.392 303.253 83.634V96C301.957 93.948 299.311 91.626 296.773 91.626C295.477 91.626 293.911 92.544 293.911 94.11C293.911 94.974 294.397 95.73 294.991 96.378C295.585 97.026 296.395 97.566 296.989 98.052C299.311 99.672 301.147 101.184 302.389 103.02C303.685 104.856 304.387 107.016 304.387 110.094C304.387 117.654 299.095 123.702 291.427 123.702C288.619 123.702 285.757 123.108 283.165 122.028Z" fill="white"/>
</svg>
