<svg width="546" height="327" viewBox="0 0 546 327" fill="none" xmlns="http://www.w3.org/2000/svg">
<rect width="546" height="327" rx="50" fill="#0E3D68"/>
<path d="M225.25 127H215.05V89.3H224.35C233.25 89.3 240.1 92.2 240.1 102.1C240.1 111.9 234.1 114.9 225.25 114.65V127ZM229.8 101.95C229.8 99.55 228.5 97.4 226 97.4L225.25 97.45V106.15C228.05 106.3 229.8 104.75 229.8 101.95ZM243.099 108.15C243.099 98.95 247.149 88.65 257.499 88.65C267.849 88.65 271.899 98.95 271.899 108.15C271.899 117.35 267.849 127.65 257.499 127.65C247.149 127.65 243.099 117.35 243.099 108.15ZM253.499 108.15C253.499 110.5 253.649 118.15 257.499 118.15C261.349 118.15 261.499 110.5 261.499 108.15C261.499 105.8 261.349 98.15 257.499 98.15C253.649 98.15 253.499 105.8 253.499 108.15ZM275.867 126.1V114.3C277.267 116.4 279.717 118.5 282.317 118.5C283.717 118.5 285.317 117.65 285.317 116C285.317 115.1 285.017 114.45 284.517 113.9C284.067 113.35 283.467 112.9 282.817 112.45C280.817 110.9 279.067 109.45 277.767 107.65C276.517 105.9 275.717 103.8 275.717 101.05C275.717 96.65 278.517 88.65 287.217 88.65C289.667 88.65 292.317 89.4 294.467 90.55V102C293.267 100.1 290.817 97.95 288.467 97.95C287.267 97.95 285.817 98.8 285.817 100.25C285.817 101.05 286.267 101.75 286.817 102.35C287.367 102.95 288.117 103.45 288.667 103.9C290.817 105.4 292.517 106.8 293.667 108.5C294.867 110.2 295.517 112.2 295.517 115.05C295.517 122.05 290.617 127.65 283.517 127.65C280.917 127.65 278.267 127.1 275.867 126.1ZM314.058 127H303.858V98.5H298.258V89.3H319.908V98.5H314.058V127ZM333.036 115.05H320.786V106.95H333.036V115.05ZM159.527 187H149.327V149.3H158.627C167.527 149.3 174.377 152.2 174.377 162.1C174.377 171.9 168.377 174.9 159.527 174.65V187ZM164.077 161.95C164.077 159.55 162.777 157.4 160.277 157.4L159.527 157.45V166.15C162.327 166.3 164.077 164.75 164.077 161.95ZM196.376 187H178.526V149.3H188.726V178.1H196.376V187ZM227.448 187H216.898L216.148 182.15H209.298L208.448 187H197.948L206.998 149.3H219.448L227.448 187ZM210.648 174.15H214.948L213.848 165.4C213.548 163.05 213.348 160.65 213.098 158.3H212.998C212.698 160.65 212.448 163.05 212.048 165.4L210.648 174.15ZM251.178 149.55V160.35C249.728 158.95 248.528 158.15 246.428 158.15C241.128 158.15 239.828 164 239.828 168.15C239.828 172.55 241.128 178.15 246.228 178.15C248.528 178.15 249.978 177.25 251.628 175.75L251.028 186.3C248.978 187.2 247.128 187.65 244.878 187.65C236.528 187.65 229.428 181.3 229.428 168.4C229.428 151.5 241.028 148.65 245.978 148.65C247.778 148.65 249.528 148.9 251.178 149.55ZM257.237 187V149.3H276.187V158.2H267.437V163.45H275.287V172.35H267.437V178.1H276.187V187H257.237ZM319.688 187H309.088L308.138 163.3H308.038C307.588 166.05 307.238 168.8 306.738 171.55L303.838 187H295.538L291.988 163.3H291.888C291.838 166.1 291.888 168.85 291.738 171.65L290.888 187H279.938L284.338 149.3H297.038L299.938 169.35H300.038C300.338 167 300.588 164.7 301.038 162.35L303.488 149.3H316.038L319.688 187ZM323.448 187V149.3H342.398V158.2H333.648V163.45H341.498V172.35H333.648V178.1H342.398V187H323.448ZM348.399 187V149.3H358.099L366.249 172L366.349 171.9C365.949 167.55 365.199 163.25 365.199 158.9V149.3H374.999V187H365.199L357.599 165.25L357.499 165.35C357.749 168.9 358.199 172.4 358.199 175.95V187H348.399ZM394.967 187H384.767V158.5H379.167V149.3H400.817V158.5H394.967V187ZM175.843 246.1V234.3C177.243 236.4 179.693 238.5 182.293 238.5C183.693 238.5 185.293 237.65 185.293 236C185.293 235.1 184.993 234.45 184.493 233.9C184.043 233.35 183.443 232.9 182.793 232.45C180.793 230.9 179.043 229.45 177.743 227.65C176.493 225.9 175.693 223.8 175.693 221.05C175.693 216.65 178.493 208.65 187.193 208.65C189.643 208.65 192.293 209.4 194.443 210.55V222C193.243 220.1 190.793 217.95 188.443 217.95C187.243 217.95 185.793 218.8 185.793 220.25C185.793 221.05 186.243 221.75 186.793 222.35C187.343 222.95 188.093 223.45 188.643 223.9C190.793 225.4 192.493 226.8 193.643 228.5C194.843 230.2 195.493 232.2 195.493 235.05C195.493 242.05 190.593 247.65 183.493 247.65C180.893 247.65 178.243 247.1 175.843 246.1ZM215.527 209.3H225.727V233.95C225.727 238.5 224.727 247.65 212.927 247.65C201.127 247.65 200.127 238.5 200.127 233.95V209.3H210.327V233C210.327 234 210.277 235.3 210.577 236.3C210.877 237.35 211.527 238.15 212.927 238.15C214.377 238.15 215.027 237.35 215.277 236.35C215.577 235.3 215.527 234 215.527 233.05V209.3ZM241.68 247H231.48V209.3H240.78C249.68 209.3 256.53 212.2 256.53 222.1C256.53 231.9 250.53 234.9 241.68 234.65V247ZM246.23 221.95C246.23 219.55 244.93 217.4 242.43 217.4L241.68 217.45V226.15C244.48 226.3 246.23 224.75 246.23 221.95ZM270.88 247H260.68V209.3H269.98C278.88 209.3 285.73 212.2 285.73 222.1C285.73 231.9 279.73 234.9 270.88 234.65V247ZM275.43 221.95C275.43 219.55 274.13 217.4 271.63 217.4L270.88 217.45V226.15C273.68 226.3 275.43 224.75 275.43 221.95ZM288.729 228.15C288.729 218.95 292.779 208.65 303.129 208.65C313.479 208.65 317.529 218.95 317.529 228.15C317.529 237.35 313.479 247.65 303.129 247.65C292.779 247.65 288.729 237.35 288.729 228.15ZM299.129 228.15C299.129 230.5 299.279 238.15 303.129 238.15C306.979 238.15 307.129 230.5 307.129 228.15C307.129 225.8 306.979 218.15 303.129 218.15C299.279 218.15 299.129 225.8 299.129 228.15ZM349.297 247H338.247L332.597 231.3L332.497 231.4C332.547 233.25 332.647 235.1 332.647 236.95V247H322.447V209.3H332.297C341.147 209.3 347.547 211.9 347.547 221.85C347.547 226 345.747 229.7 341.697 231.3L349.297 247ZM332.647 226.7L333.297 226.75C335.997 226.75 337.447 224.4 337.447 221.95C337.447 218.65 335.447 217.25 332.647 217.4V226.7ZM366.28 247H356.08V218.5H350.48V209.3H372.13V218.5H366.28V247Z" fill="#CBE1F0"/>
</svg>
