<svg width="26" height="26" viewBox="0 0 26 26" fill="none" xmlns="http://www.w3.org/2000/svg">
<g clip-path="url(#clip0_468_1033)">
<path d="M26 13.0434C25.9938 20.2036 20.1657 26.0014 12.9751 25.9983C5.7456 25.9952 -0.00622324 20.16 5.05337e-06 12.8364C0.00623334 5.7759 5.89508 -0.00948557 13.0654 -0.00170114C20.217 0.00608329 26.0062 5.84441 26 13.0434ZM12.9704 18.5206C15.3294 18.5206 17.6899 18.5035 20.0489 18.5299C20.7869 18.5377 21.061 18.2575 21.0547 17.5211C21.0314 14.4882 21.0329 11.4554 21.0532 8.42261C21.0579 7.71267 20.7651 7.46668 20.0738 7.46824C15.3559 7.48381 10.6364 7.48381 5.91844 7.46824C5.21776 7.46668 4.95305 7.73447 4.95772 8.43662C4.97952 11.4694 4.98264 14.5023 4.95772 17.5351C4.9515 18.2855 5.24578 18.5377 5.97294 18.5284C8.30543 18.5019 10.6395 18.519 12.9735 18.519L12.9704 18.5206Z" fill="#C6E8FF"/>
<path d="M19.4696 17.5475H6.54126C8.08276 15.8956 9.53084 14.3449 11.0038 12.7678C11.5037 13.1415 11.991 13.4809 12.4504 13.8545C12.8381 14.169 13.1837 14.1535 13.5637 13.8514C14.0277 13.4824 14.5104 13.1368 15.0008 12.7678C16.4692 14.3372 17.911 15.8816 19.4696 17.5475Z" fill="#C6E8FF"/>
<path d="M19.0835 8.49109C16.9721 10.0807 15.0102 11.5566 13.0063 13.0637C11.0226 11.5737 9.04352 10.0869 6.91968 8.49109H19.0835Z" fill="#C6E8FF"/>
<path d="M10.2455 12.1855C8.80828 13.7144 7.43649 15.1748 5.95728 16.7488V8.97681C7.41314 10.0666 8.78803 11.0942 10.2455 12.1855Z" fill="#C6E8FF"/>
<path d="M15.7732 12.1872C17.2088 11.1067 18.5822 10.0745 20.0442 8.97375V16.7488C18.5666 15.1702 17.1979 13.7082 15.7732 12.1872Z" fill="#C6E8FF"/>
</g>
<defs>
<clipPath id="clip0_468_1033">
<rect width="26" height="26" fill="white" transform="translate(0 -0.00170898)"/>
</clipPath>
</defs>
</svg>
