<svg width="546" height="327" viewBox="0 0 546 327" fill="none" xmlns="http://www.w3.org/2000/svg">
<rect width="546" height="327" rx="50" fill="#6CBF2A"/>
<path d="M100.042 197.5L67.2719 185L65.9998 186.183L71.3748 197.5L65.9998 208.817L67.2719 210L100.042 197.5Z" fill="#0E3D68"/>
<path d="M100.042 98.5L67.2719 86L65.9998 87.1833L71.3748 98.5L65.9998 109.817L67.2719 111L100.042 98.5Z" fill="#0E3D68"/>
<path d="M128.752 191.048L127.652 198H125.584L128.202 181.412H130.578C135.682 181.412 137.002 183.172 136.518 186.208C135.968 189.706 133.086 191.048 129.94 191.048H128.752ZM129.984 183.26L129.038 189.2H129.698C131.81 189.2 134.164 188.804 134.582 186.164C135 183.568 132.58 183.26 130.534 183.26H129.984ZM139.459 187.704L139.195 189.376H139.261C139.943 188.166 141.065 187.396 142.385 187.396C142.957 187.396 143.507 187.594 143.947 187.902L142.759 189.706C142.451 189.398 142.077 189.288 141.615 189.288C139.481 189.288 138.887 191.268 138.623 192.94L137.831 198H135.851L137.479 187.704H139.459ZM149.294 187.396C152.374 187.396 154.42 189.772 153.936 192.874C153.452 195.976 150.636 198.352 147.556 198.352C144.476 198.352 142.452 195.976 142.936 192.874C143.42 189.772 146.214 187.396 149.294 187.396ZM149.008 189.288C147.05 189.288 145.224 190.916 144.916 192.874C144.608 194.81 145.906 196.46 147.864 196.46C149.822 196.46 151.648 194.81 151.956 192.874C152.264 190.916 150.966 189.288 149.008 189.288ZM157.127 187.704L159.062 194.128L163.045 187.704H165.267L158.381 198.352L154.905 187.704H157.127ZM168.771 187.704L167.143 198H165.163L166.791 187.704H168.771ZM168.749 181.61C169.497 181.61 170.025 182.226 169.893 182.996C169.783 183.744 169.057 184.338 168.309 184.338C167.561 184.338 167.055 183.744 167.165 182.996C167.297 182.226 168.001 181.61 168.749 181.61ZM174.973 196.592C177.129 196.592 178.581 194.876 178.911 192.852C179.219 190.85 178.295 189.156 176.161 189.156C174.115 189.156 172.619 190.938 172.311 192.852C172.003 194.788 172.883 196.592 174.973 196.592ZM177.987 198L178.251 196.394H178.207C177.217 197.56 175.831 198.352 174.379 198.352C171.211 198.352 169.869 195.734 170.353 192.786C170.793 189.97 173.059 187.396 176.029 187.396C177.569 187.396 178.691 188.188 179.307 189.42H179.351L181.001 178.904H182.981L179.967 198H177.987ZM192.346 193.182H184.492C184.228 194.942 185.152 196.592 187.044 196.592C188.562 196.592 189.508 195.822 190.454 194.59L191.972 195.536C190.718 197.318 188.738 198.352 186.736 198.352C183.59 198.352 182.072 195.976 182.534 192.94C183.04 189.772 185.108 187.396 188.43 187.396C191.708 187.396 192.874 189.816 192.39 192.874L192.346 193.182ZM184.822 191.686H190.586C190.608 190.146 189.75 189.112 188.166 189.112C186.626 189.112 185.306 190.212 184.822 191.686ZM207.753 178.904L207.445 180.906C207.071 180.73 206.609 180.488 206.191 180.488C204.783 180.488 204.497 182.27 204.343 183.282L203.639 187.704H206.367L206.081 189.552H203.353L202.011 198H200.031L201.373 189.552H200.471L200.757 187.704H201.659L202.451 182.688C202.803 180.444 203.859 178.64 206.411 178.64C206.895 178.64 207.357 178.728 207.753 178.904ZM215.506 193.182H207.652C207.388 194.942 208.312 196.592 210.204 196.592C211.722 196.592 212.668 195.822 213.614 194.59L215.132 195.536C213.878 197.318 211.898 198.352 209.896 198.352C206.75 198.352 205.232 195.976 205.694 192.94C206.2 189.772 208.268 187.396 211.59 187.396C214.868 187.396 216.034 189.816 215.55 192.874L215.506 193.182ZM207.982 191.686H213.746C213.768 190.146 212.91 189.112 211.326 189.112C209.786 189.112 208.466 190.212 207.982 191.686ZM226.248 193.182H218.394C218.13 194.942 219.054 196.592 220.946 196.592C222.464 196.592 223.41 195.822 224.356 194.59L225.874 195.536C224.62 197.318 222.64 198.352 220.638 198.352C217.492 198.352 215.974 195.976 216.436 192.94C216.942 189.772 219.01 187.396 222.332 187.396C225.61 187.396 226.776 189.816 226.292 192.874L226.248 193.182ZM218.724 191.686H224.488C224.51 190.146 223.652 189.112 222.068 189.112C220.528 189.112 219.208 190.212 218.724 191.686ZM231.842 196.592C233.998 196.592 235.45 194.876 235.78 192.852C236.088 190.85 235.164 189.156 233.03 189.156C230.984 189.156 229.488 190.938 229.18 192.852C228.872 194.788 229.752 196.592 231.842 196.592ZM234.856 198L235.12 196.394H235.076C234.086 197.56 232.7 198.352 231.248 198.352C228.08 198.352 226.738 195.734 227.222 192.786C227.662 189.97 229.928 187.396 232.898 187.396C234.438 187.396 235.56 188.188 236.176 189.42H236.22L237.87 178.904H239.85L236.836 198H234.856ZM244.617 196.592C246.773 196.592 248.225 194.876 248.555 192.852C248.863 190.85 247.939 189.156 245.805 189.156C243.759 189.156 242.263 190.938 241.955 192.852C241.647 194.788 242.527 196.592 244.617 196.592ZM239.271 198L242.285 178.904H244.265L242.615 189.42H242.659C243.671 188.188 245.013 187.396 246.553 187.396C249.523 187.396 250.997 189.97 250.557 192.786C250.073 195.734 247.895 198.352 244.727 198.352C243.275 198.352 242.153 197.56 241.559 196.394H241.515L241.251 198H239.271ZM256.313 196.592C258.469 196.592 259.921 194.876 260.251 192.852C260.559 190.85 259.635 189.156 257.501 189.156C255.455 189.156 253.959 190.938 253.651 192.852C253.343 194.788 254.223 196.592 256.313 196.592ZM262.935 187.704L261.307 198H259.327L259.591 196.394H259.547C258.557 197.56 257.193 198.352 255.719 198.352C252.573 198.352 251.209 195.734 251.693 192.786C252.133 189.97 254.399 187.396 257.391 187.396C258.909 187.396 260.031 188.188 260.647 189.42H260.691L260.955 187.704H262.935ZM273.004 188.078L272.608 190.63C271.97 189.728 271.068 189.244 269.88 189.244C267.944 189.244 266.184 190.96 265.876 192.852C265.546 194.964 266.778 196.504 268.868 196.504C270.012 196.504 271.024 195.976 271.904 195.14L271.486 197.67C270.518 198.154 269.572 198.352 268.538 198.352C265.502 198.352 263.39 196.02 263.874 192.94C264.38 189.75 267.218 187.396 270.386 187.396C271.31 187.396 272.3 187.616 273.004 188.078ZM278.711 178.904L276.709 191.576L281.197 187.704H283.815L278.733 191.972L282.627 198H280.053L277.127 193.314L276.335 193.996L275.697 198H273.717L276.731 178.904H278.711ZM296.225 187.396C299.305 187.396 301.351 189.772 300.867 192.874C300.383 195.976 297.567 198.352 294.487 198.352C291.407 198.352 289.383 195.976 289.867 192.874C290.351 189.772 293.145 187.396 296.225 187.396ZM295.939 189.288C293.981 189.288 292.155 190.916 291.847 192.874C291.539 194.81 292.837 196.46 294.795 196.46C296.753 196.46 298.579 194.81 298.887 192.874C299.195 190.916 297.897 189.288 295.939 189.288ZM305.466 187.704L305.246 189.09H305.29C306.082 187.99 307.402 187.396 308.656 187.396C311.56 187.396 312 189.354 311.604 191.862L310.636 198H308.656L309.58 192.104C309.866 190.344 309.822 189.156 307.798 189.156C305.246 189.156 304.894 191.4 304.586 193.27L303.838 198H301.858L303.486 187.704H305.466ZM322.647 196.24L319.281 187.704H321.591L324.033 194.238L328.301 187.704H330.523L319.633 203.896H317.389L322.647 196.24ZM336.208 187.396C339.288 187.396 341.334 189.772 340.85 192.874C340.366 195.976 337.55 198.352 334.47 198.352C331.39 198.352 329.366 195.976 329.85 192.874C330.334 189.772 333.128 187.396 336.208 187.396ZM335.922 189.288C333.964 189.288 332.138 190.916 331.83 192.874C331.522 194.81 332.82 196.46 334.778 196.46C336.736 196.46 338.562 194.81 338.87 192.874C339.178 190.916 337.88 189.288 335.922 189.288ZM343.381 187.704H345.361L344.459 193.402C344.195 195.052 344.393 196.504 346.351 196.504C348.309 196.504 348.947 195.052 349.211 193.402L350.113 187.704H352.093L351.169 193.622C350.707 196.438 349.079 198.352 346.043 198.352C343.007 198.352 341.995 196.438 342.457 193.622L343.381 187.704ZM356.838 187.704L356.574 189.376H356.64C357.322 188.166 358.444 187.396 359.764 187.396C360.336 187.396 360.886 187.594 361.326 187.902L360.138 189.706C359.83 189.398 359.456 189.288 358.994 189.288C356.86 189.288 356.266 191.268 356.002 192.94L355.21 198H353.23L354.858 187.704H356.838ZM372.363 196.592C374.519 196.592 375.971 194.876 376.301 192.852C376.609 190.85 375.685 189.156 373.551 189.156C371.505 189.156 370.009 190.938 369.701 192.852C369.393 194.788 370.273 196.592 372.363 196.592ZM370.625 187.704L370.361 189.42H370.405C371.417 188.188 372.759 187.396 374.299 187.396C377.269 187.396 378.743 189.97 378.303 192.786C377.819 195.734 375.641 198.352 372.473 198.352C371.021 198.352 369.899 197.56 369.305 196.394H369.261L368.073 203.896H366.093L368.645 187.704H370.625ZM384.477 178.904L381.463 198H379.483L382.497 178.904H384.477ZM388.936 196.592C391.092 196.592 392.544 194.876 392.874 192.852C393.182 190.85 392.258 189.156 390.124 189.156C388.078 189.156 386.582 190.938 386.274 192.852C385.966 194.788 386.846 196.592 388.936 196.592ZM395.558 187.704L393.93 198H391.95L392.214 196.394H392.17C391.18 197.56 389.816 198.352 388.342 198.352C385.196 198.352 383.832 195.734 384.316 192.786C384.756 189.97 387.022 187.396 390.014 187.396C391.532 187.396 392.654 188.188 393.27 189.42H393.314L393.578 187.704H395.558ZM405.627 188.078L405.231 190.63C404.593 189.728 403.691 189.244 402.503 189.244C400.567 189.244 398.807 190.96 398.499 192.852C398.169 194.964 399.401 196.504 401.491 196.504C402.635 196.504 403.647 195.976 404.527 195.14L404.109 197.67C403.141 198.154 402.195 198.352 401.161 198.352C398.125 198.352 396.013 196.02 396.497 192.94C397.003 189.75 399.841 187.396 403.009 187.396C403.933 187.396 404.923 187.616 405.627 188.078ZM415.762 193.182H407.908C407.644 194.942 408.568 196.592 410.46 196.592C411.978 196.592 412.924 195.822 413.87 194.59L415.388 195.536C414.134 197.318 412.154 198.352 410.152 198.352C407.006 198.352 405.488 195.976 405.95 192.94C406.456 189.772 408.524 187.396 411.846 187.396C415.124 187.396 416.29 189.816 415.806 192.874L415.762 193.182ZM408.238 191.686H414.002C414.024 190.146 413.166 189.112 411.582 189.112C410.042 189.112 408.722 190.212 408.238 191.686ZM420.234 187.704L420.036 189.002H420.08C420.784 188.1 421.928 187.396 423.05 187.396C424.392 187.396 425.25 188.078 425.734 189.222C426.548 188.122 427.89 187.396 429.188 187.396C431.894 187.396 432.268 189.508 431.894 191.84L430.926 198H428.946L429.87 192.17C430.068 190.85 430.178 189.156 428.44 189.156C426.328 189.156 425.822 191.356 425.558 192.94L424.766 198H422.786L423.644 192.544C423.864 191.202 424.128 189.156 422.302 189.156C420.19 189.156 419.662 191.334 419.398 192.94L418.606 198H416.626L418.254 187.704H420.234ZM443.369 193.182H435.515C435.251 194.942 436.175 196.592 438.067 196.592C439.585 196.592 440.531 195.822 441.477 194.59L442.995 195.536C441.741 197.318 439.761 198.352 437.759 198.352C434.613 198.352 433.095 195.976 433.557 192.94C434.063 189.772 436.131 187.396 439.453 187.396C442.731 187.396 443.897 189.816 443.413 192.874L443.369 193.182ZM435.845 191.686H441.609C441.631 190.146 440.773 189.112 439.189 189.112C437.649 189.112 436.329 190.212 435.845 191.686ZM447.908 187.704L447.688 189.09H447.732C448.524 187.99 449.844 187.396 451.098 187.396C454.002 187.396 454.442 189.354 454.046 191.862L453.078 198H451.098L452.022 192.104C452.308 190.344 452.264 189.156 450.24 189.156C447.688 189.156 447.336 191.4 447.028 193.27L446.28 198H444.3L445.928 187.704H447.908ZM459.423 189.552L458.081 198H456.101L457.443 189.552H456.365L456.651 187.704H457.729L458.345 183.766H460.325L459.709 187.704H461.645L461.359 189.552H459.423ZM135.176 219.182H127.322C127.058 220.942 127.982 222.592 129.874 222.592C131.392 222.592 132.338 221.822 133.284 220.59L134.802 221.536C133.548 223.318 131.568 224.352 129.566 224.352C126.42 224.352 124.902 221.976 125.364 218.94C125.87 215.772 127.938 213.396 131.26 213.396C134.538 213.396 135.704 215.816 135.22 218.874L135.176 219.182ZM127.652 217.686H133.416C133.438 216.146 132.58 215.112 130.996 215.112C129.456 215.112 128.136 216.212 127.652 217.686ZM139.783 218.412L136.835 213.704H139.167L141.081 217.026L144.271 213.704H146.669L142.137 218.412L145.679 224H143.369L140.641 219.82L136.703 224H134.305L139.783 218.412ZM151.933 222.592C154.089 222.592 155.541 220.876 155.871 218.852C156.179 216.85 155.255 215.156 153.121 215.156C151.075 215.156 149.579 216.938 149.271 218.852C148.963 220.788 149.843 222.592 151.933 222.592ZM150.195 213.704L149.931 215.42H149.975C150.987 214.188 152.329 213.396 153.869 213.396C156.839 213.396 158.313 215.97 157.873 218.786C157.389 221.734 155.211 224.352 152.043 224.352C150.591 224.352 149.469 223.56 148.875 222.394H148.831L147.643 229.896H145.663L148.215 213.704H150.195ZM168.778 219.182H160.924C160.66 220.942 161.584 222.592 163.476 222.592C164.994 222.592 165.94 221.822 166.886 220.59L168.404 221.536C167.15 223.318 165.17 224.352 163.168 224.352C160.022 224.352 158.504 221.976 158.966 218.94C159.472 215.772 161.54 213.396 164.862 213.396C168.14 213.396 169.306 215.816 168.822 218.874L168.778 219.182ZM161.254 217.686H167.018C167.04 216.146 166.182 215.112 164.598 215.112C163.058 215.112 161.738 216.212 161.254 217.686ZM173.448 213.704L173.184 215.376H173.25C173.932 214.166 175.054 213.396 176.374 213.396C176.946 213.396 177.496 213.594 177.936 213.902L176.748 215.706C176.44 215.398 176.066 215.288 175.604 215.288C173.47 215.288 172.876 217.268 172.612 218.94L171.82 224H169.84L171.468 213.704H173.448ZM181.469 213.704L179.841 224H177.861L179.489 213.704H181.469ZM181.447 207.61C182.195 207.61 182.723 208.226 182.591 208.996C182.481 209.744 181.755 210.338 181.007 210.338C180.259 210.338 179.753 209.744 179.863 208.996C179.995 208.226 180.699 207.61 181.447 207.61ZM192.819 219.182H184.965C184.701 220.942 185.625 222.592 187.517 222.592C189.035 222.592 189.981 221.822 190.927 220.59L192.445 221.536C191.191 223.318 189.211 224.352 187.209 224.352C184.063 224.352 182.545 221.976 183.007 218.94C183.513 215.772 185.581 213.396 188.903 213.396C192.181 213.396 193.347 215.816 192.863 218.874L192.819 219.182ZM185.295 217.686H191.059C191.081 216.146 190.223 215.112 188.639 215.112C187.099 215.112 185.779 216.212 185.295 217.686ZM197.357 213.704L197.137 215.09H197.181C197.973 213.99 199.293 213.396 200.547 213.396C203.451 213.396 203.891 215.354 203.495 217.862L202.527 224H200.547L201.471 218.104C201.757 216.344 201.713 215.156 199.689 215.156C197.137 215.156 196.785 217.4 196.477 219.27L195.729 224H193.749L195.377 213.704H197.357ZM214.394 214.078L213.998 216.63C213.36 215.728 212.458 215.244 211.27 215.244C209.334 215.244 207.574 216.96 207.266 218.852C206.936 220.964 208.168 222.504 210.258 222.504C211.402 222.504 212.414 221.976 213.294 221.14L212.876 223.67C211.908 224.154 210.962 224.352 209.928 224.352C206.892 224.352 204.78 222.02 205.264 218.94C205.77 215.75 208.608 213.396 211.776 213.396C212.7 213.396 213.69 213.616 214.394 214.078ZM224.53 219.182H216.676C216.412 220.942 217.336 222.592 219.228 222.592C220.746 222.592 221.692 221.822 222.638 220.59L224.156 221.536C222.902 223.318 220.922 224.352 218.92 224.352C215.774 224.352 214.256 221.976 214.718 218.94C215.224 215.772 217.292 213.396 220.614 213.396C223.892 213.396 225.058 215.816 224.574 218.874L224.53 219.182ZM217.006 217.686H222.77C222.792 216.146 221.934 215.112 220.35 215.112C218.81 215.112 217.49 216.212 217.006 217.686ZM235.427 215.552L234.085 224H232.105L233.447 215.552H232.369L232.655 213.704H233.733L234.349 209.766H236.329L235.713 213.704H237.649L237.363 215.552H235.427ZM243.352 213.396C246.432 213.396 248.478 215.772 247.994 218.874C247.51 221.976 244.694 224.352 241.614 224.352C238.534 224.352 236.51 221.976 236.994 218.874C237.478 215.772 240.272 213.396 243.352 213.396ZM243.066 215.288C241.108 215.288 239.282 216.916 238.974 218.874C238.666 220.81 239.964 222.46 241.922 222.46C243.88 222.46 245.706 220.81 246.014 218.874C246.322 216.916 245.024 215.288 243.066 215.288ZM258.358 204.904H260.338L258.732 215.09H258.776C259.568 213.99 260.888 213.396 262.142 213.396C265.046 213.396 265.486 215.354 265.09 217.862L264.122 224H262.142L263.066 218.104C263.352 216.344 263.308 215.156 261.284 215.156C258.732 215.156 258.38 217.4 258.072 219.27L257.324 224H255.344L258.358 204.904ZM276.672 219.182H268.818C268.554 220.942 269.478 222.592 271.37 222.592C272.888 222.592 273.834 221.822 274.78 220.59L276.298 221.536C275.044 223.318 273.064 224.352 271.062 224.352C267.916 224.352 266.398 221.976 266.86 218.94C267.366 215.772 269.434 213.396 272.756 213.396C276.034 213.396 277.2 215.816 276.716 218.874L276.672 219.182ZM269.148 217.686H274.912C274.934 216.146 274.076 215.112 272.492 215.112C270.952 215.112 269.632 216.212 269.148 217.686ZM282.684 204.904L279.67 224H277.69L280.704 204.904H282.684ZM287.671 222.592C289.827 222.592 291.279 220.876 291.609 218.852C291.917 216.85 290.993 215.156 288.859 215.156C286.813 215.156 285.317 216.938 285.009 218.852C284.701 220.788 285.581 222.592 287.671 222.592ZM285.933 213.704L285.669 215.42H285.713C286.725 214.188 288.067 213.396 289.607 213.396C292.577 213.396 294.051 215.97 293.611 218.786C293.127 221.734 290.949 224.352 287.781 224.352C286.329 224.352 285.207 223.56 284.613 222.394H284.569L283.381 229.896H281.401L283.953 213.704H285.933ZM302.474 213.704H304.454L303.552 219.402C303.288 221.052 303.486 222.504 305.444 222.504C307.402 222.504 308.04 221.052 308.304 219.402L309.206 213.704H311.186L310.262 219.622C309.8 222.438 308.172 224.352 305.136 224.352C302.1 224.352 301.088 222.438 301.55 219.622L302.474 213.704ZM319.32 215.2L317.582 216.058C317.428 215.552 316.988 215.156 316.416 215.156C315.866 215.156 315.272 215.596 315.162 216.168C315.03 217.07 316.152 217.466 317.274 218.016C318.396 218.566 319.452 219.314 319.188 220.942C318.88 222.9 317.01 224.352 315.096 224.352C313.6 224.352 312.236 223.494 311.906 222.042L313.732 221.272C314.018 222.042 314.436 222.592 315.382 222.592C316.218 222.592 317.032 222.02 317.186 221.14C317.274 220.59 317.032 220.326 316.636 220.018L314.854 218.984C313.82 218.368 313.072 217.796 313.292 216.388C313.556 214.716 315.118 213.396 316.79 213.396C318.044 213.396 318.946 214.078 319.32 215.2ZM336.125 214.078L335.729 216.63C335.091 215.728 334.189 215.244 333.001 215.244C331.065 215.244 329.305 216.96 328.997 218.852C328.667 220.964 329.899 222.504 331.989 222.504C333.133 222.504 334.145 221.976 335.025 221.14L334.607 223.67C333.639 224.154 332.693 224.352 331.659 224.352C328.623 224.352 326.511 222.02 326.995 218.94C327.501 215.75 330.339 213.396 333.507 213.396C334.431 213.396 335.421 213.616 336.125 214.078ZM342.696 213.396C345.776 213.396 347.822 215.772 347.338 218.874C346.854 221.976 344.038 224.352 340.958 224.352C337.878 224.352 335.854 221.976 336.338 218.874C336.822 215.772 339.616 213.396 342.696 213.396ZM342.41 215.288C340.452 215.288 338.626 216.916 338.318 218.874C338.01 220.81 339.308 222.46 341.266 222.46C343.224 222.46 345.05 220.81 345.358 218.874C345.666 216.916 344.368 215.288 342.41 215.288ZM351.937 213.704L351.717 215.09H351.761C352.553 213.99 353.873 213.396 355.127 213.396C358.031 213.396 358.471 215.354 358.075 217.862L357.107 224H355.127L356.051 218.104C356.337 216.344 356.293 215.156 354.269 215.156C351.717 215.156 351.365 217.4 351.057 219.27L350.309 224H348.329L349.957 213.704H351.937ZM363.452 215.552L362.11 224H360.13L361.472 215.552H360.394L360.68 213.704H361.758L362.374 209.766H364.354L363.738 213.704H365.674L365.388 215.552H363.452ZM369.199 213.704L367.571 224H365.591L367.219 213.704H369.199ZM369.177 207.61C369.925 207.61 370.453 208.226 370.321 208.996C370.211 209.744 369.485 210.338 368.737 210.338C367.989 210.338 367.483 209.744 367.593 208.996C367.725 208.226 368.429 207.61 369.177 207.61ZM374.345 213.704L374.125 215.09H374.169C374.961 213.99 376.281 213.396 377.535 213.396C380.439 213.396 380.879 215.354 380.483 217.862L379.515 224H377.535L378.459 218.104C378.745 216.344 378.701 215.156 376.677 215.156C374.125 215.156 373.773 217.4 373.465 219.27L372.717 224H370.737L372.365 213.704H374.345ZM383.793 213.704H385.773L384.871 219.402C384.607 221.052 384.805 222.504 386.763 222.504C388.721 222.504 389.359 221.052 389.623 219.402L390.525 213.704H392.505L391.581 219.622C391.119 222.438 389.491 224.352 386.455 224.352C383.419 224.352 382.407 222.438 382.869 219.622L383.793 213.704ZM398.174 222.592C400.33 222.592 401.782 220.876 402.112 218.852C402.42 216.85 401.496 215.156 399.362 215.156C397.316 215.156 395.82 216.938 395.512 218.852C395.204 220.788 396.084 222.592 398.174 222.592ZM404.796 213.704L403.168 224H401.188L401.452 222.394H401.408C400.418 223.56 399.054 224.352 397.58 224.352C394.434 224.352 393.07 221.734 393.554 218.786C393.994 215.97 396.26 213.396 399.252 213.396C400.77 213.396 401.892 214.188 402.508 215.42H402.552L402.816 213.704H404.796ZM410.817 204.904L407.803 224H405.823L408.837 204.904H410.817ZM415.716 204.904L412.702 224H410.722L413.736 204.904H415.716ZM418.854 222.24L415.488 213.704H417.798L420.24 220.238L424.508 213.704H426.73L415.84 229.896H413.596L418.854 222.24ZM129.412 239.704L127.784 250H125.804L127.432 239.704H129.412ZM129.39 233.61C130.138 233.61 130.666 234.226 130.534 234.996C130.424 235.744 129.698 236.338 128.95 236.338C128.202 236.338 127.696 235.744 127.806 234.996C127.938 234.226 128.642 233.61 129.39 233.61ZM134.492 239.704L134.294 241.002H134.338C135.042 240.1 136.186 239.396 137.308 239.396C138.65 239.396 139.508 240.078 139.992 241.222C140.806 240.122 142.148 239.396 143.446 239.396C146.152 239.396 146.526 241.508 146.152 243.84L145.184 250H143.204L144.128 244.17C144.326 242.85 144.436 241.156 142.698 241.156C140.586 241.156 140.08 243.356 139.816 244.94L139.024 250H137.044L137.902 244.544C138.122 243.202 138.386 241.156 136.56 241.156C134.448 241.156 133.92 243.334 133.656 244.94L132.864 250H130.884L132.512 239.704H134.492ZM153.007 248.592C155.163 248.592 156.615 246.876 156.945 244.852C157.253 242.85 156.329 241.156 154.195 241.156C152.149 241.156 150.653 242.938 150.345 244.852C150.037 246.788 150.917 248.592 153.007 248.592ZM151.269 239.704L151.005 241.42H151.049C152.061 240.188 153.403 239.396 154.943 239.396C157.913 239.396 159.387 241.97 158.947 244.786C158.463 247.734 156.285 250.352 153.117 250.352C151.665 250.352 150.543 249.56 149.949 248.394H149.905L148.717 255.896H146.737L149.289 239.704H151.269ZM163.78 239.704L163.516 241.376H163.582C164.264 240.166 165.386 239.396 166.706 239.396C167.278 239.396 167.828 239.594 168.268 239.902L167.08 241.706C166.772 241.398 166.398 241.288 165.936 241.288C163.802 241.288 163.208 243.268 162.944 244.94L162.152 250H160.172L161.8 239.704H163.78ZM173.614 239.396C176.694 239.396 178.74 241.772 178.256 244.874C177.772 247.976 174.956 250.352 171.876 250.352C168.796 250.352 166.772 247.976 167.256 244.874C167.74 241.772 170.534 239.396 173.614 239.396ZM173.328 241.288C171.37 241.288 169.544 242.916 169.236 244.874C168.928 246.81 170.226 248.46 172.184 248.46C174.142 248.46 175.968 246.81 176.276 244.874C176.584 242.916 175.286 241.288 173.328 241.288ZM181.447 239.704L183.383 246.128L187.365 239.704H189.587L182.701 250.352L179.225 239.704H181.447ZM198.856 245.182H191.002C190.738 246.942 191.662 248.592 193.554 248.592C195.072 248.592 196.018 247.822 196.964 246.59L198.482 247.536C197.228 249.318 195.248 250.352 193.246 250.352C190.1 250.352 188.582 247.976 189.044 244.94C189.55 241.772 191.618 239.396 194.94 239.396C198.218 239.396 199.384 241.816 198.9 244.874L198.856 245.182ZM191.332 243.686H197.096C197.118 242.146 196.26 241.112 194.676 241.112C193.136 241.112 191.816 242.212 191.332 243.686ZM212.264 239.396C215.344 239.396 217.39 241.772 216.906 244.874C216.422 247.976 213.606 250.352 210.526 250.352C207.446 250.352 205.422 247.976 205.906 244.874C206.39 241.772 209.184 239.396 212.264 239.396ZM211.978 241.288C210.02 241.288 208.194 242.916 207.886 244.874C207.578 246.81 208.876 248.46 210.834 248.46C212.792 248.46 214.618 246.81 214.926 244.874C215.234 242.916 213.936 241.288 211.978 241.288ZM219.437 239.704H221.417L220.515 245.402C220.251 247.052 220.449 248.504 222.407 248.504C224.365 248.504 225.003 247.052 225.267 245.402L226.169 239.704H228.149L227.225 245.622C226.763 248.438 225.135 250.352 222.099 250.352C219.063 250.352 218.051 248.438 218.513 245.622L219.437 239.704ZM232.895 239.704L232.631 241.376H232.697C233.379 240.166 234.501 239.396 235.821 239.396C236.393 239.396 236.943 239.594 237.383 239.902L236.195 241.706C235.887 241.398 235.513 241.288 235.051 241.288C232.917 241.288 232.323 243.268 232.059 244.94L231.267 250H229.287L230.915 239.704H232.895ZM250.355 241.2L248.617 242.058C248.463 241.552 248.023 241.156 247.451 241.156C246.901 241.156 246.307 241.596 246.197 242.168C246.065 243.07 247.187 243.466 248.309 244.016C249.431 244.566 250.487 245.314 250.223 246.942C249.915 248.9 248.045 250.352 246.131 250.352C244.635 250.352 243.271 249.494 242.941 248.042L244.767 247.272C245.053 248.042 245.471 248.592 246.417 248.592C247.253 248.592 248.067 248.02 248.221 247.14C248.309 246.59 248.067 246.326 247.671 246.018L245.889 244.984C244.855 244.368 244.107 243.796 244.327 242.388C244.591 240.716 246.153 239.396 247.825 239.396C249.079 239.396 249.981 240.078 250.355 241.2ZM261.483 245.182H253.629C253.365 246.942 254.289 248.592 256.181 248.592C257.699 248.592 258.645 247.822 259.591 246.59L261.109 247.536C259.855 249.318 257.875 250.352 255.873 250.352C252.727 250.352 251.209 247.976 251.671 244.94C252.177 241.772 254.245 239.396 257.567 239.396C260.845 239.396 262.011 241.816 261.527 244.874L261.483 245.182ZM253.959 243.686H259.723C259.745 242.146 258.887 241.112 257.303 241.112C255.763 241.112 254.443 242.212 253.959 243.686ZM266.153 239.704L265.889 241.376H265.955C266.637 240.166 267.759 239.396 269.079 239.396C269.651 239.396 270.201 239.594 270.641 239.902L269.453 241.706C269.145 241.398 268.771 241.288 268.309 241.288C266.175 241.288 265.581 243.268 265.317 244.94L264.525 250H262.545L264.173 239.704H266.153ZM273.207 239.704L275.143 246.128L279.125 239.704H281.347L274.461 250.352L270.985 239.704H273.207ZM284.851 239.704L283.223 250H281.243L282.871 239.704H284.851ZM284.829 233.61C285.577 233.61 286.105 234.226 285.973 234.996C285.863 235.744 285.137 236.338 284.389 236.338C283.641 236.338 283.135 235.744 283.245 234.996C283.377 234.226 284.081 233.61 284.829 233.61ZM295.519 240.078L295.123 242.63C294.485 241.728 293.583 241.244 292.395 241.244C290.459 241.244 288.699 242.96 288.391 244.852C288.061 246.964 289.293 248.504 291.383 248.504C292.527 248.504 293.539 247.976 294.419 247.14L294.001 249.67C293.033 250.154 292.087 250.352 291.053 250.352C288.017 250.352 285.905 248.02 286.389 244.94C286.895 241.75 289.733 239.396 292.901 239.396C293.825 239.396 294.815 239.616 295.519 240.078ZM305.655 245.182H297.801C297.537 246.942 298.461 248.592 300.353 248.592C301.871 248.592 302.817 247.822 303.763 246.59L305.281 247.536C304.027 249.318 302.047 250.352 300.045 250.352C296.899 250.352 295.381 247.976 295.843 244.94C296.349 241.772 298.417 239.396 301.739 239.396C305.017 239.396 306.183 241.816 305.699 244.874L305.655 245.182ZM298.131 243.686H303.895C303.917 242.146 303.059 241.112 301.475 241.112C299.935 241.112 298.615 242.212 298.131 243.686ZM313.713 241.2L311.975 242.058C311.821 241.552 311.381 241.156 310.809 241.156C310.259 241.156 309.665 241.596 309.555 242.168C309.423 243.07 310.545 243.466 311.667 244.016C312.789 244.566 313.845 245.314 313.581 246.942C313.273 248.9 311.403 250.352 309.489 250.352C307.993 250.352 306.629 249.494 306.299 248.042L308.125 247.272C308.411 248.042 308.829 248.592 309.775 248.592C310.611 248.592 311.425 248.02 311.579 247.14C311.667 246.59 311.425 246.326 311.029 246.018L309.247 244.984C308.213 244.368 307.465 243.796 307.685 242.388C307.949 240.716 309.511 239.396 311.183 239.396C312.437 239.396 313.339 240.078 313.713 241.2ZM317.206 247.8C317.91 247.8 318.394 248.394 318.284 249.076C318.174 249.78 317.492 250.352 316.788 250.352C316.084 250.352 315.622 249.78 315.732 249.076C315.842 248.394 316.502 247.8 317.206 247.8Z" fill="#093761"/>
<path d="M134.81 91.784L138.902 99H136.394L132.632 91.982H131.774L130.652 99H128.584L131.202 82.412H133.71C135.184 82.412 136.768 82.434 137.978 83.182C139.232 83.996 139.782 85.558 139.518 87.142C139.144 89.518 137.252 91.498 134.81 91.784ZM132.984 84.26L132.038 90.266H132.698C134.81 90.266 137.164 89.87 137.582 87.23C137.978 84.634 135.58 84.26 133.534 84.26H132.984ZM149.864 94.182H142.01C141.746 95.942 142.67 97.592 144.562 97.592C146.08 97.592 147.026 96.822 147.972 95.59L149.49 96.536C148.236 98.318 146.256 99.352 144.254 99.352C141.108 99.352 139.59 96.976 140.052 93.94C140.558 90.772 142.626 88.396 145.948 88.396C149.226 88.396 150.392 90.816 149.908 93.874L149.864 94.182ZM142.34 92.686H148.104C148.126 91.146 147.268 90.112 145.684 90.112C144.144 90.112 142.824 91.212 142.34 92.686ZM159.924 89.078L159.528 91.63C158.89 90.728 157.988 90.244 156.8 90.244C154.864 90.244 153.104 91.96 152.796 93.852C152.466 95.964 153.698 97.504 155.788 97.504C156.932 97.504 157.944 96.976 158.824 96.14L158.406 98.67C157.438 99.154 156.492 99.352 155.458 99.352C152.422 99.352 150.31 97.02 150.794 93.94C151.3 90.75 154.138 88.396 157.306 88.396C158.23 88.396 159.22 88.616 159.924 89.078ZM170.059 94.182H162.205C161.941 95.942 162.865 97.592 164.757 97.592C166.275 97.592 167.221 96.822 168.167 95.59L169.685 96.536C168.431 98.318 166.451 99.352 164.449 99.352C161.303 99.352 159.785 96.976 160.247 93.94C160.753 90.772 162.821 88.396 166.143 88.396C169.421 88.396 170.587 90.816 170.103 93.874L170.059 94.182ZM162.535 92.686H168.299C168.321 91.146 167.463 90.112 165.879 90.112C164.339 90.112 163.019 91.212 162.535 92.686ZM175.037 88.704L173.409 99H171.429L173.057 88.704H175.037ZM175.015 82.61C175.763 82.61 176.291 83.226 176.159 83.996C176.049 84.744 175.323 85.338 174.575 85.338C173.827 85.338 173.321 84.744 173.431 83.996C173.563 83.226 174.267 82.61 175.015 82.61ZM178.775 88.704L180.711 95.128L184.693 88.704H186.915L180.029 99.352L176.553 88.704H178.775ZM196.184 94.182H188.33C188.066 95.942 188.99 97.592 190.882 97.592C192.4 97.592 193.346 96.822 194.292 95.59L195.81 96.536C194.556 98.318 192.576 99.352 190.574 99.352C187.428 99.352 185.91 96.976 186.372 93.94C186.878 90.772 188.946 88.396 192.268 88.396C195.546 88.396 196.712 90.816 196.228 93.874L196.184 94.182ZM188.66 92.686H194.424C194.446 91.146 193.588 90.112 192.004 90.112C190.464 90.112 189.144 91.212 188.66 92.686ZM210.601 90.2L208.863 91.058C208.709 90.552 208.269 90.156 207.697 90.156C207.147 90.156 206.553 90.596 206.443 91.168C206.311 92.07 207.433 92.466 208.555 93.016C209.677 93.566 210.733 94.314 210.469 95.942C210.161 97.9 208.291 99.352 206.377 99.352C204.881 99.352 203.517 98.494 203.187 97.042L205.013 96.272C205.299 97.042 205.717 97.592 206.663 97.592C207.499 97.592 208.313 97.02 208.467 96.14C208.555 95.59 208.313 95.326 207.917 95.018L206.135 93.984C205.101 93.368 204.353 92.796 204.573 91.388C204.837 89.716 206.399 88.396 208.071 88.396C209.325 88.396 210.227 89.078 210.601 90.2ZM213.457 88.704H215.437L214.535 94.402C214.271 96.052 214.469 97.504 216.427 97.504C218.385 97.504 219.023 96.052 219.287 94.402L220.189 88.704H222.169L221.245 94.622C220.783 97.438 219.155 99.352 216.119 99.352C213.083 99.352 212.071 97.438 212.533 94.622L213.457 88.704ZM228.367 97.592C230.523 97.592 231.975 95.876 232.305 93.852C232.613 91.85 231.689 90.156 229.555 90.156C227.509 90.156 226.013 91.938 225.705 93.852C225.397 95.788 226.277 97.592 228.367 97.592ZM226.629 88.704L226.365 90.42H226.409C227.421 89.188 228.763 88.396 230.303 88.396C233.273 88.396 234.747 90.97 234.307 93.786C233.823 96.734 231.645 99.352 228.477 99.352C227.025 99.352 225.903 98.56 225.309 97.394H225.265L224.077 104.896H222.097L224.649 88.704H226.629ZM240.591 97.592C242.747 97.592 244.199 95.876 244.529 93.852C244.837 91.85 243.913 90.156 241.779 90.156C239.733 90.156 238.237 91.938 237.929 93.852C237.621 95.788 238.501 97.592 240.591 97.592ZM238.853 88.704L238.589 90.42H238.633C239.645 89.188 240.987 88.396 242.527 88.396C245.497 88.396 246.971 90.97 246.531 93.786C246.047 96.734 243.869 99.352 240.701 99.352C239.249 99.352 238.127 98.56 237.533 97.394H237.489L236.301 104.896H234.321L236.873 88.704H238.853ZM253.872 88.396C256.952 88.396 258.998 90.772 258.514 93.874C258.03 96.976 255.214 99.352 252.134 99.352C249.054 99.352 247.03 96.976 247.514 93.874C247.998 90.772 250.792 88.396 253.872 88.396ZM253.586 90.288C251.628 90.288 249.802 91.916 249.494 93.874C249.186 95.81 250.484 97.46 252.442 97.46C254.4 97.46 256.226 95.81 256.534 93.874C256.842 91.916 255.544 90.288 253.586 90.288ZM263.245 88.704L262.981 90.376H263.047C263.729 89.166 264.851 88.396 266.171 88.396C266.743 88.396 267.293 88.594 267.733 88.902L266.545 90.706C266.237 90.398 265.863 90.288 265.401 90.288C263.267 90.288 262.673 92.268 262.409 93.94L261.617 99H259.637L261.265 88.704H263.245ZM271.255 90.552L269.913 99H267.933L269.275 90.552H268.197L268.483 88.704H269.561L270.177 84.766H272.157L271.541 88.704H273.477L273.191 90.552H271.255ZM283.34 88.704L281.712 99H279.732L281.36 88.704H283.34ZM283.318 82.61C284.066 82.61 284.594 83.226 284.462 83.996C284.352 84.744 283.626 85.338 282.878 85.338C282.13 85.338 281.624 84.744 281.734 83.996C281.866 83.226 282.57 82.61 283.318 82.61ZM288.486 88.704L288.266 90.09H288.31C289.102 88.99 290.422 88.396 291.676 88.396C294.58 88.396 295.02 90.354 294.624 92.862L293.656 99H291.676L292.6 93.104C292.886 91.344 292.842 90.156 290.818 90.156C288.266 90.156 287.914 92.4 287.606 94.27L286.858 99H284.878L286.506 88.704H288.486ZM306.361 90.552L305.019 99H303.039L304.381 90.552H303.303L303.589 88.704H304.667L305.283 84.766H307.263L306.647 88.704H308.583L308.297 90.552H306.361ZM311.778 88.704L311.514 90.376H311.58C312.262 89.166 313.384 88.396 314.704 88.396C315.276 88.396 315.826 88.594 316.266 88.902L315.078 90.706C314.77 90.398 314.396 90.288 313.934 90.288C311.8 90.288 311.206 92.268 310.942 93.94L310.15 99H308.17L309.798 88.704H311.778ZM320.157 97.592C322.313 97.592 323.765 95.876 324.095 93.852C324.403 91.85 323.479 90.156 321.345 90.156C319.299 90.156 317.803 91.938 317.495 93.852C317.187 95.788 318.067 97.592 320.157 97.592ZM326.779 88.704L325.151 99H323.171L323.435 97.394H323.391C322.401 98.56 321.037 99.352 319.563 99.352C316.417 99.352 315.053 96.734 315.537 93.786C315.977 90.97 318.243 88.396 321.235 88.396C322.753 88.396 323.875 89.188 324.491 90.42H324.535L324.799 88.704H326.779ZM336.848 89.078L336.452 91.63C335.814 90.728 334.912 90.244 333.724 90.244C331.788 90.244 330.028 91.96 329.72 93.852C329.39 95.964 330.622 97.504 332.712 97.504C333.856 97.504 334.868 96.976 335.748 96.14L335.33 98.67C334.362 99.154 333.416 99.352 332.382 99.352C329.346 99.352 327.234 97.02 327.718 93.94C328.224 90.75 331.062 88.396 334.23 88.396C335.154 88.396 336.144 88.616 336.848 89.078ZM342.554 79.904L340.552 92.576L345.04 88.704H347.658L342.576 92.972L346.47 99H343.896L340.97 94.314L340.178 94.996L339.54 99H337.56L340.574 79.904H342.554ZM351.639 88.704L350.011 99H348.031L349.659 88.704H351.639ZM351.617 82.61C352.365 82.61 352.893 83.226 352.761 83.996C352.651 84.744 351.925 85.338 351.177 85.338C350.429 85.338 349.923 84.744 350.033 83.996C350.165 83.226 350.869 82.61 351.617 82.61ZM356.785 88.704L356.565 90.09H356.609C357.401 88.99 358.721 88.396 359.975 88.396C362.879 88.396 363.319 90.354 362.922 92.862L361.955 99H359.975L360.899 93.104C361.185 91.344 361.141 90.156 359.117 90.156C356.565 90.156 356.213 92.4 355.905 94.27L355.157 99H353.177L354.805 88.704H356.785ZM369.334 97.592C371.49 97.592 372.942 95.876 373.272 93.852C373.58 91.85 372.656 90.156 370.522 90.156C368.476 90.156 366.98 91.938 366.672 93.852C366.364 95.788 367.244 97.592 369.334 97.592ZM375.956 88.704L374.35 98.802C373.8 102.344 372.392 104.896 368.388 104.896C365.528 104.896 363.724 103.136 364.142 100.232H366.122C365.836 102.08 366.936 103.136 368.74 103.136C371.182 103.136 371.952 101.464 372.282 99.352L372.612 97.394H372.568C371.578 98.56 370.192 99.352 368.74 99.352C365.572 99.352 364.23 96.734 364.714 93.786C365.154 90.97 367.42 88.396 370.39 88.396C371.93 88.396 373.052 89.188 373.646 90.464H373.69L373.976 88.704H375.956ZM386.169 97.24L382.803 88.704H385.113L387.555 95.238L391.823 88.704H394.045L383.155 104.896H380.911L386.169 97.24ZM399.729 88.396C402.809 88.396 404.855 90.772 404.371 93.874C403.887 96.976 401.071 99.352 397.991 99.352C394.911 99.352 392.887 96.976 393.371 93.874C393.855 90.772 396.649 88.396 399.729 88.396ZM399.443 90.288C397.485 90.288 395.659 91.916 395.351 93.874C395.043 95.81 396.341 97.46 398.299 97.46C400.257 97.46 402.083 95.81 402.391 93.874C402.699 91.916 401.401 90.288 399.443 90.288ZM406.902 88.704H408.882L407.98 94.402C407.716 96.052 407.914 97.504 409.872 97.504C411.83 97.504 412.468 96.052 412.732 94.402L413.634 88.704H415.614L414.69 94.622C414.228 97.438 412.6 99.352 409.564 99.352C406.528 99.352 405.516 97.438 405.978 94.622L406.902 88.704ZM420.36 88.704L420.096 90.376H420.162C420.844 89.166 421.966 88.396 423.286 88.396C423.858 88.396 424.408 88.594 424.848 88.902L423.66 90.706C423.352 90.398 422.978 90.288 422.516 90.288C420.382 90.288 419.788 92.268 419.524 93.94L418.732 99H416.752L418.38 88.704H420.36ZM434.74 88.704L432.188 104.896H430.208L432.76 88.704H434.74ZM434.718 82.61C435.466 82.61 435.994 83.226 435.862 83.996C435.752 84.744 435.026 85.338 434.278 85.338C433.53 85.338 433.024 84.744 433.134 83.996C433.266 83.226 433.97 82.61 434.718 82.61ZM442.526 88.396C445.606 88.396 447.652 90.772 447.168 93.874C446.684 96.976 443.868 99.352 440.788 99.352C437.708 99.352 435.684 96.976 436.168 93.874C436.652 90.772 439.446 88.396 442.526 88.396ZM442.24 90.288C440.282 90.288 438.456 91.916 438.148 93.874C437.84 95.81 439.138 97.46 441.096 97.46C443.054 97.46 444.88 95.81 445.188 93.874C445.496 91.916 444.198 90.288 442.24 90.288ZM453.351 97.592C455.507 97.592 456.959 95.876 457.289 93.852C457.597 91.85 456.673 90.156 454.539 90.156C452.493 90.156 450.997 91.938 450.689 93.852C450.381 95.788 451.261 97.592 453.351 97.592ZM448.005 99L451.019 79.904H452.999L451.349 90.42H451.393C452.405 89.188 453.747 88.396 455.287 88.396C458.257 88.396 459.731 90.97 459.291 93.786C458.807 96.734 456.629 99.352 453.461 99.352C452.009 99.352 450.887 98.56 450.293 97.394H450.249L449.985 99H448.005ZM133.028 123.592C135.184 123.592 136.636 121.876 136.966 119.852C137.274 117.85 136.35 116.156 134.216 116.156C132.17 116.156 130.674 117.938 130.366 119.852C130.058 121.788 130.938 123.592 133.028 123.592ZM139.65 114.704L138.022 125H136.042L136.306 123.394H136.262C135.272 124.56 133.908 125.352 132.434 125.352C129.288 125.352 127.924 122.734 128.408 119.786C128.848 116.97 131.114 114.396 134.106 114.396C135.624 114.396 136.746 115.188 137.362 116.42H137.406L137.67 114.704H139.65ZM145.781 123.592C147.937 123.592 149.389 121.876 149.719 119.852C150.027 117.85 149.103 116.156 146.969 116.156C144.923 116.156 143.427 117.938 143.119 119.852C142.811 121.788 143.691 123.592 145.781 123.592ZM144.043 114.704L143.779 116.42H143.823C144.835 115.188 146.177 114.396 147.717 114.396C150.687 114.396 152.161 116.97 151.721 119.786C151.237 122.734 149.059 125.352 145.891 125.352C144.439 125.352 143.317 124.56 142.723 123.394H142.679L141.491 130.896H139.511L142.063 114.704H144.043ZM158.005 123.592C160.161 123.592 161.613 121.876 161.943 119.852C162.251 117.85 161.327 116.156 159.193 116.156C157.147 116.156 155.651 117.938 155.343 119.852C155.035 121.788 155.915 123.592 158.005 123.592ZM156.267 114.704L156.003 116.42H156.047C157.059 115.188 158.401 114.396 159.941 114.396C162.911 114.396 164.385 116.97 163.945 119.786C163.461 122.734 161.283 125.352 158.115 125.352C156.663 125.352 155.541 124.56 154.947 123.394H154.903L153.715 130.896H151.735L154.287 114.704H156.267ZM170.12 105.904L167.106 125H165.126L168.14 105.904H170.12ZM173.984 114.704L172.356 125H170.376L172.004 114.704H173.984ZM173.962 108.61C174.71 108.61 175.238 109.226 175.106 109.996C174.996 110.744 174.27 111.338 173.522 111.338C172.774 111.338 172.268 110.744 172.378 109.996C172.51 109.226 173.214 108.61 173.962 108.61ZM184.652 115.078L184.256 117.63C183.618 116.728 182.716 116.244 181.528 116.244C179.592 116.244 177.832 117.96 177.524 119.852C177.194 121.964 178.426 123.504 180.516 123.504C181.66 123.504 182.672 122.976 183.552 122.14L183.134 124.67C182.166 125.154 181.22 125.352 180.186 125.352C177.15 125.352 175.038 123.02 175.522 119.94C176.028 116.75 178.866 114.396 182.034 114.396C182.958 114.396 183.948 114.616 184.652 115.078ZM189.897 123.592C192.053 123.592 193.505 121.876 193.835 119.852C194.143 117.85 193.219 116.156 191.085 116.156C189.039 116.156 187.543 117.938 187.235 119.852C186.927 121.788 187.807 123.592 189.897 123.592ZM196.519 114.704L194.891 125H192.911L193.175 123.394H193.131C192.141 124.56 190.777 125.352 189.303 125.352C186.157 125.352 184.793 122.734 185.277 119.786C185.717 116.97 187.983 114.396 190.975 114.396C192.493 114.396 193.615 115.188 194.231 116.42H194.275L194.539 114.704H196.519ZM201.066 116.552L199.724 125H197.744L199.086 116.552H198.008L198.294 114.704H199.372L199.988 110.766H201.968L201.352 114.704H203.288L203.002 116.552H201.066ZM206.812 114.704L205.184 125H203.204L204.832 114.704H206.812ZM206.79 108.61C207.538 108.61 208.066 109.226 207.934 109.996C207.824 110.744 207.098 111.338 206.35 111.338C205.602 111.338 205.096 110.744 205.206 109.996C205.338 109.226 206.042 108.61 206.79 108.61ZM214.598 114.396C217.678 114.396 219.724 116.772 219.24 119.874C218.756 122.976 215.94 125.352 212.86 125.352C209.78 125.352 207.756 122.976 208.24 119.874C208.724 116.772 211.518 114.396 214.598 114.396ZM214.312 116.288C212.354 116.288 210.528 117.916 210.22 119.874C209.912 121.81 211.21 123.46 213.168 123.46C215.126 123.46 216.952 121.81 217.26 119.874C217.568 117.916 216.27 116.288 214.312 116.288ZM223.839 114.704L223.619 116.09H223.663C224.455 114.99 225.775 114.396 227.029 114.396C229.933 114.396 230.373 116.354 229.977 118.862L229.009 125H227.029L227.953 119.104C228.239 117.344 228.195 116.156 226.171 116.156C223.619 116.156 223.267 118.4 222.959 120.27L222.211 125H220.231L221.859 114.704H223.839ZM238.875 116.2L237.137 117.058C236.983 116.552 236.543 116.156 235.971 116.156C235.421 116.156 234.827 116.596 234.717 117.168C234.585 118.07 235.707 118.466 236.829 119.016C237.951 119.566 239.007 120.314 238.743 121.942C238.435 123.9 236.565 125.352 234.651 125.352C233.155 125.352 231.791 124.494 231.461 123.042L233.287 122.272C233.573 123.042 233.991 123.592 234.937 123.592C235.773 123.592 236.587 123.02 236.741 122.14C236.829 121.59 236.587 121.326 236.191 121.018L234.409 119.984C233.375 119.368 232.627 118.796 232.847 117.388C233.111 115.716 234.673 114.396 236.345 114.396C237.599 114.396 238.501 115.078 238.875 116.2ZM251.214 123.592C253.37 123.592 254.822 121.876 255.152 119.852C255.46 117.85 254.536 116.156 252.402 116.156C250.356 116.156 248.86 117.938 248.552 119.852C248.244 121.788 249.124 123.592 251.214 123.592ZM257.836 114.704L256.208 125H254.228L254.492 123.394H254.448C253.458 124.56 252.094 125.352 250.62 125.352C247.474 125.352 246.11 122.734 246.594 119.786C247.034 116.97 249.3 114.396 252.292 114.396C253.81 114.396 254.932 115.188 255.548 116.42H255.592L255.856 114.704H257.836ZM262.382 114.704L262.162 116.09H262.206C262.998 114.99 264.318 114.396 265.572 114.396C268.476 114.396 268.916 116.354 268.52 118.862L267.552 125H265.572L266.496 119.104C266.782 117.344 266.738 116.156 264.714 116.156C262.162 116.156 261.81 118.4 261.502 120.27L260.754 125H258.774L260.402 114.704H262.382ZM274.954 123.592C277.11 123.592 278.562 121.876 278.892 119.852C279.2 117.85 278.276 116.156 276.142 116.156C274.096 116.156 272.6 117.938 272.292 119.852C271.984 121.788 272.864 123.592 274.954 123.592ZM277.968 125L278.232 123.394H278.188C277.198 124.56 275.812 125.352 274.36 125.352C271.192 125.352 269.85 122.734 270.334 119.786C270.774 116.97 273.04 114.396 276.01 114.396C277.55 114.396 278.672 115.188 279.288 116.42H279.332L280.982 105.904H282.962L279.948 125H277.968ZM296.992 105.904L296.684 107.906C296.31 107.73 295.848 107.488 295.43 107.488C294.022 107.488 293.736 109.27 293.582 110.282L292.878 114.704H295.606L295.32 116.552H292.592L291.25 125H289.27L290.612 116.552H289.71L289.996 114.704H290.898L291.69 109.688C292.042 107.444 293.098 105.64 295.65 105.64C296.134 105.64 296.596 105.728 296.992 105.904ZM301.18 114.396C304.26 114.396 306.306 116.772 305.822 119.874C305.338 122.976 302.522 125.352 299.442 125.352C296.362 125.352 294.338 122.976 294.822 119.874C295.306 116.772 298.1 114.396 301.18 114.396ZM300.894 116.288C298.936 116.288 297.11 117.916 296.802 119.874C296.494 121.81 297.792 123.46 299.75 123.46C301.708 123.46 303.534 121.81 303.842 119.874C304.15 117.916 302.852 116.288 300.894 116.288ZM311.895 105.904L308.881 125H306.901L309.915 105.904H311.895ZM316.794 105.904L313.78 125H311.8L314.814 105.904H316.794ZM322.837 114.396C325.917 114.396 327.963 116.772 327.479 119.874C326.995 122.976 324.179 125.352 321.099 125.352C318.019 125.352 315.995 122.976 316.479 119.874C316.963 116.772 319.757 114.396 322.837 114.396ZM322.551 116.288C320.593 116.288 318.767 117.916 318.459 119.874C318.151 121.81 319.449 123.46 321.407 123.46C323.365 123.46 325.191 121.81 325.499 119.874C325.807 117.916 324.509 116.288 322.551 116.288ZM330.625 114.704L332.583 121.26L336.741 114.132L338.633 121.26L342.659 114.704H344.903L337.973 125.352L336.059 118.466L331.923 125.352L328.381 114.704H330.625ZM348.308 114.704L346.68 125H344.7L346.328 114.704H348.308ZM348.286 108.61C349.034 108.61 349.562 109.226 349.43 109.996C349.32 110.744 348.594 111.338 347.846 111.338C347.098 111.338 346.592 110.744 346.702 109.996C346.834 109.226 347.538 108.61 348.286 108.61ZM353.454 114.704L353.234 116.09H353.278C354.07 114.99 355.39 114.396 356.644 114.396C359.548 114.396 359.988 116.354 359.592 118.862L358.624 125H356.644L357.568 119.104C357.854 117.344 357.81 116.156 355.786 116.156C353.234 116.156 352.882 118.4 352.574 120.27L351.826 125H349.846L351.474 114.704H353.454ZM366.004 123.592C368.16 123.592 369.612 121.876 369.942 119.852C370.25 117.85 369.326 116.156 367.192 116.156C365.146 116.156 363.65 117.938 363.342 119.852C363.034 121.788 363.914 123.592 366.004 123.592ZM372.626 114.704L371.02 124.802C370.47 128.344 369.062 130.896 365.058 130.896C362.198 130.896 360.394 129.136 360.812 126.232H362.792C362.506 128.08 363.606 129.136 365.41 129.136C367.852 129.136 368.622 127.464 368.952 125.352L369.282 123.394H369.238C368.248 124.56 366.862 125.352 365.41 125.352C362.242 125.352 360.9 122.734 361.384 119.786C361.824 116.97 364.09 114.396 367.06 114.396C368.6 114.396 369.722 115.188 370.316 116.464H370.36L370.646 114.704H372.626ZM381.336 114.704H383.316L382.414 120.402C382.15 122.052 382.348 123.504 384.306 123.504C386.264 123.504 386.902 122.052 387.166 120.402L388.068 114.704H390.048L389.124 120.622C388.662 123.438 387.034 125.352 383.998 125.352C380.962 125.352 379.95 123.438 380.412 120.622L381.336 114.704ZM396.245 123.592C398.401 123.592 399.853 121.876 400.183 119.852C400.491 117.85 399.567 116.156 397.433 116.156C395.387 116.156 393.891 117.938 393.583 119.852C393.275 121.788 394.155 123.592 396.245 123.592ZM394.507 114.704L394.243 116.42H394.287C395.299 115.188 396.641 114.396 398.181 114.396C401.151 114.396 402.625 116.97 402.185 119.786C401.701 122.734 399.523 125.352 396.355 125.352C394.903 125.352 393.781 124.56 393.187 123.394H393.143L391.955 130.896H389.975L392.527 114.704H394.507ZM411.793 114.704L413.751 121.26L417.909 114.132L419.801 121.26L423.827 114.704H426.071L419.141 125.352L417.227 118.466L413.091 125.352L409.549 114.704H411.793ZM429.476 114.704L427.848 125H425.868L427.496 114.704H429.476ZM429.454 108.61C430.202 108.61 430.73 109.226 430.598 109.996C430.488 110.744 429.762 111.338 429.014 111.338C428.266 111.338 427.76 110.744 427.87 109.996C428.002 109.226 428.706 108.61 429.454 108.61ZM434.622 116.552L433.28 125H431.3L432.642 116.552H431.564L431.85 114.704H432.928L433.544 110.766H435.524L434.908 114.704H436.844L436.558 116.552H434.622ZM439.335 105.904H441.315L439.709 116.09H439.753C440.545 114.99 441.865 114.396 443.119 114.396C446.023 114.396 446.463 116.354 446.067 118.862L445.099 125H443.119L444.043 119.104C444.329 117.344 444.285 116.156 442.261 116.156C439.709 116.156 439.357 118.4 439.049 120.27L438.301 125H436.321L439.335 105.904ZM138.176 146.182H130.322C130.058 147.942 130.982 149.592 132.874 149.592C134.392 149.592 135.338 148.822 136.284 147.59L137.802 148.536C136.548 150.318 134.568 151.352 132.566 151.352C129.42 151.352 127.902 148.976 128.364 145.94C128.87 142.772 130.938 140.396 134.26 140.396C137.538 140.396 138.704 142.816 138.22 145.874L138.176 146.182ZM130.652 144.686H136.416C136.438 143.146 135.58 142.112 133.996 142.112C132.456 142.112 131.136 143.212 130.652 144.686ZM142.648 140.704L142.45 142.002H142.494C143.198 141.1 144.342 140.396 145.464 140.396C146.806 140.396 147.664 141.078 148.148 142.222C148.962 141.122 150.304 140.396 151.602 140.396C154.308 140.396 154.682 142.508 154.308 144.84L153.34 151H151.36L152.284 145.17C152.482 143.85 152.592 142.156 150.854 142.156C148.742 142.156 148.236 144.356 147.972 145.94L147.18 151H145.2L146.058 145.544C146.278 144.202 146.542 142.156 144.716 142.156C142.604 142.156 142.076 144.334 141.812 145.94L141.02 151H139.04L140.668 140.704H142.648ZM161.163 149.592C163.319 149.592 164.771 147.876 165.101 145.852C165.409 143.85 164.485 142.156 162.351 142.156C160.305 142.156 158.809 143.938 158.501 145.852C158.193 147.788 159.073 149.592 161.163 149.592ZM159.425 140.704L159.161 142.42H159.205C160.217 141.188 161.559 140.396 163.099 140.396C166.069 140.396 167.543 142.97 167.103 145.786C166.619 148.734 164.441 151.352 161.273 151.352C159.821 151.352 158.699 150.56 158.105 149.394H158.061L156.873 156.896H154.893L157.445 140.704H159.425ZM173.278 131.904L170.264 151H168.284L171.298 131.904H173.278ZM179.321 140.396C182.401 140.396 184.447 142.772 183.963 145.874C183.479 148.976 180.663 151.352 177.583 151.352C174.503 151.352 172.479 148.976 172.963 145.874C173.447 142.772 176.241 140.396 179.321 140.396ZM179.035 142.288C177.077 142.288 175.251 143.916 174.943 145.874C174.635 147.81 175.933 149.46 177.891 149.46C179.849 149.46 181.675 147.81 181.983 145.874C182.291 143.916 180.993 142.288 179.035 142.288ZM188.298 149.24L184.932 140.704H187.242L189.684 147.238L193.952 140.704H196.174L185.284 156.896H183.04L188.298 149.24ZM205.422 146.182H197.568C197.304 147.942 198.228 149.592 200.12 149.592C201.638 149.592 202.584 148.822 203.53 147.59L205.048 148.536C203.794 150.318 201.814 151.352 199.812 151.352C196.666 151.352 195.148 148.976 195.61 145.94C196.116 142.772 198.184 140.396 201.506 140.396C204.784 140.396 205.95 142.816 205.466 145.874L205.422 146.182ZM197.898 144.686H203.662C203.684 143.146 202.826 142.112 201.242 142.112C199.702 142.112 198.382 143.212 197.898 144.686ZM210.092 140.704L209.828 142.376H209.894C210.576 141.166 211.698 140.396 213.018 140.396C213.59 140.396 214.14 140.594 214.58 140.902L213.392 142.706C213.084 142.398 212.71 142.288 212.248 142.288C210.114 142.288 209.52 144.268 209.256 145.94L208.464 151H206.484L208.112 140.704H210.092ZM221.193 142.2L219.455 143.058C219.301 142.552 218.861 142.156 218.289 142.156C217.739 142.156 217.145 142.596 217.035 143.168C216.903 144.07 218.025 144.466 219.147 145.016C220.269 145.566 221.325 146.314 221.061 147.942C220.753 149.9 218.883 151.352 216.969 151.352C215.473 151.352 214.109 150.494 213.779 149.042L215.605 148.272C215.891 149.042 216.309 149.592 217.255 149.592C218.091 149.592 218.905 149.02 219.059 148.14C219.147 147.59 218.905 147.326 218.509 147.018L216.727 145.984C215.693 145.368 214.945 144.796 215.165 143.388C215.429 141.716 216.991 140.396 218.663 140.396C219.917 140.396 220.819 141.078 221.193 142.2ZM224.687 148.8C225.391 148.8 225.875 149.394 225.765 150.076C225.655 150.78 224.973 151.352 224.269 151.352C223.565 151.352 223.103 150.78 223.213 150.076C223.323 149.394 223.983 148.8 224.687 148.8Z" fill="#093761"/>
</svg>
