<svg width="361" height="317" viewBox="0 0 361 317" fill="none" xmlns="http://www.w3.org/2000/svg">
<rect width="361" height="313" rx="50" fill="#0E3D68"/>
<path d="M114.97 156V118.3H124.67L132.82 141L132.92 140.9C132.52 136.55 131.77 132.25 131.77 127.9V118.3H141.57V156H131.77L124.17 134.25L124.07 134.35C124.32 137.9 124.77 141.4 124.77 144.95V156H114.97ZM168.237 118.55V129.35C166.787 127.95 165.587 127.15 163.487 127.15C158.187 127.15 156.887 133 156.887 137.15C156.887 141.55 158.187 147.15 163.287 147.15C165.587 147.15 167.037 146.25 168.687 144.75L168.087 155.3C166.037 156.2 164.187 156.65 161.937 156.65C153.587 156.65 146.487 150.3 146.487 137.4C146.487 120.5 158.087 117.65 163.037 117.65C164.837 117.65 166.587 117.9 168.237 118.55ZM192.146 156H174.296V118.3H184.496V147.1H192.146V156ZM196.317 156V118.3H215.267V127.2H206.517V132.45H214.367V141.35H206.517V147.1H215.267V156H196.317ZM248.269 156H236.969L234.869 150.15C234.469 148.75 234.069 147.3 233.669 145.9H233.569C233.169 147.3 232.769 148.75 232.369 150.15L230.119 156H219.019L228.169 136.45L219.519 118.3H230.869L232.519 122.85C233.019 124.25 233.269 125.75 233.669 127.2H233.769C234.119 125.75 234.369 124.3 234.819 122.85L236.169 118.3H247.619L239.019 136.45L248.269 156Z" fill="white"/>
<path d="M113.405 176.904H116.837L121.301 187.824L121.349 187.776C121.133 186.912 121.061 185.976 121.061 185.04V176.904H124.637V195H121.253L116.837 184.08L116.789 184.128L116.957 185.952L116.981 186.696V195H113.405V176.904ZM131.147 192.144C132.227 192.144 132.323 189.528 132.323 188.88C132.323 188.208 132.251 185.64 131.099 185.64C129.971 185.64 129.899 188.184 129.899 188.88C129.899 189.648 129.947 192.144 131.147 192.144ZM132.083 195V193.632H132.035C131.579 194.544 130.883 195.24 129.803 195.24C127.067 195.24 126.515 190.872 126.515 188.928C126.515 186.84 126.923 182.64 129.755 182.64C130.883 182.64 131.651 183.384 132.035 184.368H132.083V182.88H135.467V195H132.083ZM138.169 179.52H141.553V182.88H142.945V185.664H141.553V195H138.169V185.664H136.993V182.88H138.169V179.52ZM144.496 182.88H147.88V195H144.496V182.88ZM146.176 181.44C145 181.44 144.04 180.456 144.04 179.256C144.04 178.032 145.024 177.12 146.248 177.12C147.424 177.12 148.336 178.152 148.336 179.304C148.336 180.456 147.352 181.44 146.176 181.44ZM153.927 182.64C157.551 182.64 158.535 185.856 158.535 188.952C158.535 192.048 157.551 195.24 153.927 195.24C150.303 195.24 149.319 192.048 149.319 188.952C149.319 185.856 150.303 182.64 153.927 182.64ZM153.927 185.688C152.751 185.688 152.703 188.256 152.703 188.952C152.703 189.648 152.751 192.216 153.927 192.216C155.103 192.216 155.151 189.648 155.151 188.952C155.151 188.256 155.103 185.688 153.927 185.688ZM163.372 182.88V184.752H163.42C163.876 183.6 164.908 182.64 166.228 182.64C168.724 182.64 168.508 185.424 168.508 187.176V195H165.124V188.352C165.124 187.728 165.364 186.048 164.284 186.048C163.516 186.048 163.372 186.84 163.372 187.44V195H159.988V182.88H163.372ZM174.576 192.144C175.656 192.144 175.752 189.528 175.752 188.88C175.752 188.208 175.68 185.64 174.528 185.64C173.4 185.64 173.328 188.184 173.328 188.88C173.328 189.648 173.376 192.144 174.576 192.144ZM175.512 195V193.632H175.464C175.008 194.544 174.312 195.24 173.232 195.24C170.496 195.24 169.944 190.872 169.944 188.928C169.944 186.84 170.352 182.64 173.184 182.64C174.312 182.64 175.08 183.384 175.464 184.368H175.512V182.88H178.896V195H175.512ZM180.543 175.632H183.927V195H180.543V175.632ZM200.194 177.024V180.312C199.738 180.192 199.306 180.12 198.85 180.12C195.706 180.12 194.338 182.976 194.338 185.76C194.338 188.448 195.706 191.76 198.826 191.76C199.282 191.76 199.738 191.64 200.194 191.496V194.88C199.666 195.096 199.114 195.192 198.538 195.192C193.378 195.192 190.522 190.536 190.522 185.784C190.522 181.296 193.498 176.688 198.37 176.688C198.994 176.688 199.594 176.808 200.194 177.024ZM205.701 182.64C209.325 182.64 210.309 185.856 210.309 188.952C210.309 192.048 209.325 195.24 205.701 195.24C202.077 195.24 201.093 192.048 201.093 188.952C201.093 185.856 202.077 182.64 205.701 182.64ZM205.701 185.688C204.525 185.688 204.477 188.256 204.477 188.952C204.477 189.648 204.525 192.216 205.701 192.216C206.877 192.216 206.925 189.648 206.925 188.952C206.925 188.256 206.877 185.688 205.701 185.688ZM211.762 182.88H215.146V189.528C215.146 190.2 214.882 192.072 216.01 192.072C216.922 192.072 216.85 190.872 216.85 190.272L216.874 182.88H220.234V190.608C220.234 193.416 218.914 195.24 215.914 195.24C212.074 195.24 211.762 192.36 211.762 190.152V182.88ZM225.294 182.88V184.752H225.342C225.798 183.6 226.83 182.64 228.15 182.64C230.646 182.64 230.43 185.424 230.43 187.176V195H227.046V188.352C227.046 187.728 227.286 186.048 226.206 186.048C225.438 186.048 225.294 186.84 225.294 187.44V195H221.91V182.88H225.294ZM238.25 191.712V194.808C237.626 195.096 237.002 195.24 236.306 195.24C233.018 195.24 231.866 191.784 231.866 189.024C231.866 185.976 233.066 182.64 236.57 182.64C237.17 182.64 237.698 182.76 238.25 183V185.976C237.938 185.688 237.674 185.592 237.266 185.592C235.61 185.592 235.25 187.584 235.25 188.832C235.25 190.128 235.514 192.072 237.218 192.072C237.602 192.072 237.938 191.928 238.25 191.712ZM239.629 182.88H243.013V195H239.629V182.88ZM241.309 181.44C240.133 181.44 239.173 180.456 239.173 179.256C239.173 178.032 240.157 177.12 241.381 177.12C242.557 177.12 243.469 178.152 243.469 179.304C243.469 180.456 242.485 181.44 241.309 181.44ZM244.668 175.632H248.052V195H244.668V175.632ZM87.2251 205.904H90.8011V220.64H94.5451V224H87.2251V205.904ZM95.7223 211.88H99.1063V224H95.7223V211.88ZM97.4023 210.44C96.2263 210.44 95.2663 209.456 95.2663 208.256C95.2663 207.032 96.2503 206.12 97.4743 206.12C98.6503 206.12 99.5623 207.152 99.5623 208.304C99.5623 209.456 98.5783 210.44 97.4023 210.44ZM106.93 220.712V223.808C106.306 224.096 105.682 224.24 104.986 224.24C101.698 224.24 100.546 220.784 100.546 218.024C100.546 214.976 101.746 211.64 105.25 211.64C105.85 211.64 106.378 211.76 106.93 212V214.976C106.618 214.688 106.354 214.592 105.946 214.592C104.29 214.592 103.93 216.584 103.93 217.832C103.93 219.128 104.194 221.072 105.898 221.072C106.282 221.072 106.618 220.928 106.93 220.712ZM113.876 216.752V216.464C113.876 215.672 113.708 214.232 112.652 214.232C111.62 214.232 111.404 215.624 111.404 216.392V216.752H113.876ZM116.804 217.448L116.732 218.84H111.38C111.404 219.728 111.356 221.648 112.652 221.648C113.516 221.648 113.732 220.976 113.732 220.256H116.612C116.468 221.36 116.132 222.368 115.508 223.088C114.908 223.808 114.02 224.24 112.772 224.24C109.34 224.24 108.116 221.192 108.116 218.192C108.116 215.288 109.172 211.64 112.7 211.64C114.932 211.64 116.996 213.632 116.804 217.448ZM121.654 211.88V213.752H121.702C122.158 212.6 123.19 211.64 124.51 211.64C127.006 211.64 126.79 214.424 126.79 216.176V224H123.406V217.352C123.406 216.728 123.646 215.048 122.566 215.048C121.798 215.048 121.654 215.84 121.654 216.44V224H118.27V211.88H121.654ZM135.906 212.672L134.538 215.144C134.058 214.712 133.602 214.352 132.906 214.352C132.306 214.352 131.994 214.712 131.994 215.24C132.042 216.656 135.858 216.368 135.858 219.992C135.858 222.392 134.466 224.24 131.97 224.24C130.674 224.24 129.33 223.688 128.322 222.848L129.81 220.448C130.314 220.88 130.818 221.24 131.49 221.24C132.018 221.24 132.474 220.856 132.474 220.232C132.522 218.624 128.61 219.032 128.61 215.192C128.61 212.888 130.53 211.64 132.666 211.64C133.89 211.64 134.922 211.952 135.906 212.672ZM137.465 211.88H140.849V218.528C140.849 219.2 140.585 221.072 141.713 221.072C142.625 221.072 142.553 219.872 142.553 219.272L142.577 211.88H145.937V219.608C145.937 222.416 144.617 224.24 141.617 224.24C137.777 224.24 137.465 221.36 137.465 219.152V211.88ZM147.613 211.88H150.997V213.344H151.045C151.669 212.288 152.485 211.544 153.805 211.424V214.712C153.637 214.688 153.469 214.664 153.277 214.664C151.021 214.664 150.997 216.152 150.997 217.952V224H147.613V211.88ZM160.142 216.752V216.464C160.142 215.672 159.974 214.232 158.918 214.232C157.886 214.232 157.67 215.624 157.67 216.392V216.752H160.142ZM163.07 217.448L162.998 218.84H157.646C157.67 219.728 157.622 221.648 158.918 221.648C159.782 221.648 159.998 220.976 159.998 220.256H162.878C162.734 221.36 162.398 222.368 161.774 223.088C161.174 223.808 160.286 224.24 159.038 224.24C155.606 224.24 154.382 221.192 154.382 218.192C154.382 215.288 155.438 211.64 158.966 211.64C161.198 211.64 163.262 213.632 163.07 217.448ZM170.85 205.904H178.05V209.264H174.426V213.2H177.618V216.56H174.426V220.64H178.098V224H170.85V205.904ZM179.985 211.88H183.489L184.449 213.728L184.809 214.472L186.177 211.88H189.681L186.585 217.472L190.161 224H186.585L184.809 220.664L183.009 224H179.529L183.009 217.472L179.985 211.88ZM195.975 221.144C197.055 221.144 197.151 218.528 197.151 217.88C197.151 217.208 197.079 214.64 195.927 214.64C194.799 214.64 194.727 217.184 194.727 217.88C194.727 218.648 194.775 221.144 195.975 221.144ZM196.911 224V222.632H196.863C196.407 223.544 195.711 224.24 194.631 224.24C191.895 224.24 191.343 219.872 191.343 217.928C191.343 215.84 191.751 211.64 194.583 211.64C195.711 211.64 196.479 212.384 196.863 213.368H196.911V211.88H200.295V224H196.911ZM205.326 211.88L205.35 213.824H205.398C205.974 212.648 206.934 211.64 208.374 211.64C209.622 211.64 210.294 212.6 210.462 213.704H210.51C211.062 212.624 212.118 211.64 213.414 211.64C215.598 211.64 215.598 214.064 215.598 215.624V224H212.214V217.424C212.214 216.8 212.382 215.024 211.374 215.024C210.582 215.024 210.462 215.84 210.462 216.392V224H207.078V217.208C207.078 216.608 207.246 215.072 206.286 215.072C205.446 215.072 205.326 215.84 205.326 216.464V224H201.942V211.88H205.326ZM217.246 211.88H220.63V224H217.246V211.88ZM218.926 210.44C217.75 210.44 216.79 209.456 216.79 208.256C216.79 207.032 217.774 206.12 218.998 206.12C220.174 206.12 221.086 207.152 221.086 208.304C221.086 209.456 220.102 210.44 218.926 210.44ZM225.669 211.88V213.752H225.717C226.173 212.6 227.205 211.64 228.525 211.64C231.021 211.64 230.805 214.424 230.805 216.176V224H227.421V217.352C227.421 216.728 227.661 215.048 226.581 215.048C225.813 215.048 225.669 215.84 225.669 216.44V224H222.285V211.88H225.669ZM236.873 221.144C237.953 221.144 238.049 218.528 238.049 217.88C238.049 217.208 237.977 214.64 236.825 214.64C235.697 214.64 235.625 217.184 235.625 217.88C235.625 218.648 235.673 221.144 236.873 221.144ZM237.809 224V222.632H237.761C237.305 223.544 236.609 224.24 235.529 224.24C232.793 224.24 232.241 219.872 232.241 217.928C232.241 215.84 232.649 211.64 235.481 211.64C236.609 211.64 237.377 212.384 237.761 213.368H237.809V211.88H241.193V224H237.809ZM243.896 208.52H247.28V211.88H248.672V214.664H247.28V224H243.896V214.664H242.72V211.88H243.896V208.52ZM250.222 211.88H253.606V224H250.222V211.88ZM251.902 210.44C250.726 210.44 249.766 209.456 249.766 208.256C249.766 207.032 250.75 206.12 251.974 206.12C253.15 206.12 254.062 207.152 254.062 208.304C254.062 209.456 253.078 210.44 251.902 210.44ZM259.654 211.64C263.278 211.64 264.262 214.856 264.262 217.952C264.262 221.048 263.278 224.24 259.654 224.24C256.03 224.24 255.046 221.048 255.046 217.952C255.046 214.856 256.03 211.64 259.654 211.64ZM259.654 214.688C258.478 214.688 258.43 217.256 258.43 217.952C258.43 218.648 258.478 221.216 259.654 221.216C260.83 221.216 260.878 218.648 260.878 217.952C260.878 217.256 260.83 214.688 259.654 214.688ZM269.099 211.88V213.752H269.147C269.603 212.6 270.635 211.64 271.955 211.64C274.451 211.64 274.235 214.424 274.235 216.176V224H270.851V217.352C270.851 216.728 271.091 215.048 270.011 215.048C269.243 215.048 269.099 215.84 269.099 216.44V224H265.715V211.88H269.099Z" fill="#6CBF2A"/>
</svg>
