<svg width="361" height="317" viewBox="0 0 361 317" fill="none" xmlns="http://www.w3.org/2000/svg">
<rect width="361" height="317" rx="50" fill="#0E3D68"/>
<path d="M65.9168 159H55.7168V121.3H65.0168C73.9168 121.3 80.7668 124.2 80.7668 134.1C80.7668 143.9 74.7668 146.9 65.9168 146.65V159ZM70.4668 133.95C70.4668 131.55 69.1668 129.4 66.6668 129.4L65.9168 129.45V138.15C68.7168 138.3 70.4668 136.75 70.4668 133.95ZM102.766 159H84.916V121.3H95.116V150.1H102.766V159ZM133.838 159H123.288L122.538 154.15H115.688L114.838 159H104.338L113.388 121.3H125.838L133.838 159ZM117.038 146.15H121.338L120.238 137.4C119.938 135.05 119.738 132.65 119.488 130.3H119.388C119.088 132.65 118.838 135.05 118.438 137.4L117.038 146.15ZM157.568 121.55V132.35C156.118 130.95 154.918 130.15 152.818 130.15C147.518 130.15 146.218 136 146.218 140.15C146.218 144.55 147.518 150.15 152.618 150.15C154.918 150.15 156.368 149.25 158.018 147.75L157.418 158.3C155.368 159.2 153.518 159.65 151.268 159.65C142.918 159.65 135.818 153.3 135.818 140.4C135.818 123.5 147.418 120.65 152.368 120.65C154.168 120.65 155.918 120.9 157.568 121.55ZM163.627 159V121.3H182.577V130.2H173.827V135.45H181.677V144.35H173.827V150.1H182.577V159H163.627ZM226.078 159H215.478L214.528 135.3H214.428C213.978 138.05 213.628 140.8 213.128 143.55L210.228 159H201.928L198.378 135.3H198.278C198.228 138.1 198.278 140.85 198.128 143.65L197.278 159H186.328L190.728 121.3H203.428L206.328 141.35H206.428C206.728 139 206.978 136.7 207.428 134.35L209.878 121.3H222.428L226.078 159ZM229.838 159V121.3H248.788V130.2H240.038V135.45H247.888V144.35H240.038V150.1H248.788V159H229.838ZM254.789 159V121.3H264.489L272.639 144L272.739 143.9C272.339 139.55 271.589 135.25 271.589 130.9V121.3H281.389V159H271.589L263.989 137.25L263.889 137.35C264.139 140.9 264.589 144.4 264.589 147.95V159H254.789ZM301.356 159H291.156V130.5H285.556V121.3H307.206V130.5H301.356V159Z" fill="white"/>
<path d="M112.348 182.904H115.996L117.532 191.544C117.748 192.816 117.796 194.112 117.916 195.384H117.964C118.132 194.112 118.228 192.816 118.492 191.544L120.292 182.904H123.124L125.428 195.384H125.476C125.596 194.112 125.62 192.864 125.836 191.592L127.252 182.904H130.996L127.252 201H124.156L122.308 191.448C122.188 190.344 121.972 189.24 121.804 188.136H121.756C121.564 189.24 121.444 190.344 121.18 191.448L119.116 201H115.996L112.348 182.904ZM135.412 188.64C139.036 188.64 140.02 191.856 140.02 194.952C140.02 198.048 139.036 201.24 135.412 201.24C131.788 201.24 130.804 198.048 130.804 194.952C130.804 191.856 131.788 188.64 135.412 188.64ZM135.412 191.688C134.236 191.688 134.188 194.256 134.188 194.952C134.188 195.648 134.236 198.216 135.412 198.216C136.588 198.216 136.636 195.648 136.636 194.952C136.636 194.256 136.588 191.688 135.412 191.688ZM141.473 188.88H144.857V190.344H144.905C145.529 189.288 146.345 188.544 147.665 188.424V191.712C147.497 191.688 147.329 191.664 147.137 191.664C144.881 191.664 144.857 193.152 144.857 194.952V201H141.473V188.88ZM149.043 181.632H152.427V193.128H152.475L154.323 188.88H157.995L155.259 193.824L158.595 201H154.875L152.475 195.384H152.427V201H149.043V181.632ZM165.472 188.88H168.856V201H165.472V188.88ZM167.152 187.44C165.976 187.44 165.016 186.456 165.016 185.256C165.016 184.032 166 183.12 167.224 183.12C168.4 183.12 169.312 184.152 169.312 185.304C169.312 186.456 168.328 187.44 167.152 187.44ZM173.896 188.88V190.752H173.944C174.4 189.6 175.432 188.64 176.752 188.64C179.248 188.64 179.032 191.424 179.032 193.176V201H175.648V194.352C175.648 193.728 175.888 192.048 174.808 192.048C174.04 192.048 173.896 192.84 173.896 193.44V201H170.512V188.88H173.896ZM185.501 182.904H194.717V186.264H191.885V201H188.309V186.264H185.501V182.904ZM198.435 188.64C202.059 188.64 203.043 191.856 203.043 194.952C203.043 198.048 202.059 201.24 198.435 201.24C194.811 201.24 193.827 198.048 193.827 194.952C193.827 191.856 194.811 188.64 198.435 188.64ZM198.435 191.688C197.259 191.688 197.211 194.256 197.211 194.952C197.211 195.648 197.259 198.216 198.435 198.216C199.611 198.216 199.659 195.648 199.659 194.952C199.659 194.256 199.611 191.688 198.435 191.688ZM208.816 198.144C210.016 198.144 210.04 195.648 210.04 194.88C210.04 194.184 209.944 191.64 208.84 191.64C207.688 191.64 207.64 194.208 207.64 194.88C207.64 195.528 207.712 198.144 208.816 198.144ZM207.88 188.88V190.368H207.928C208.312 189.384 209.08 188.64 210.184 188.64C213.04 188.64 213.424 192.84 213.424 194.928C213.424 196.872 212.92 201.24 210.16 201.24C209.056 201.24 208.36 200.544 207.928 199.632H207.88V206.976H204.496V188.88H207.88ZM220.512 182.904H224.088V194.616C224.088 195.984 223.92 198.048 225.864 198.048C227.616 198.048 227.616 196.728 227.64 195.384V182.904H231.216V196.104C231.216 198.024 231 201.288 225.84 201.288C222.504 201.288 220.512 199.728 220.512 196.344V182.904ZM241.103 183.504V186.984C240.383 186.36 239.495 185.832 238.511 185.832C237.407 185.832 236.711 186.504 236.711 187.608C236.711 190.584 242.159 190.752 242.159 195.648C242.159 198.864 240.311 201.288 236.951 201.288C235.943 201.288 234.695 200.976 233.879 200.376V196.968C234.719 197.544 235.535 197.928 236.591 197.928C237.743 197.928 238.655 197.16 238.655 195.96C238.655 194.568 237.551 194.04 236.543 193.32C234.479 191.928 233.207 190.584 233.207 187.944C233.207 185.088 234.863 182.616 237.935 182.616C239.087 182.616 240.119 182.928 241.103 183.504ZM96.4595 211.904H100.036V218.984H103.66V211.904H107.236V230H103.66V222.344H100.036V230H96.4595V211.904ZM114.884 222.752V222.464C114.884 221.672 114.716 220.232 113.66 220.232C112.628 220.232 112.412 221.624 112.412 222.392V222.752H114.884ZM117.812 223.448L117.74 224.84H112.388C112.412 225.728 112.364 227.648 113.66 227.648C114.524 227.648 114.74 226.976 114.74 226.256H117.62C117.476 227.36 117.14 228.368 116.516 229.088C115.916 229.808 115.028 230.24 113.78 230.24C110.348 230.24 109.124 227.192 109.124 224.192C109.124 221.288 110.18 217.64 113.708 217.64C115.94 217.64 118.004 219.632 117.812 223.448ZM123.694 227.144C124.773 227.144 124.87 224.528 124.87 223.88C124.87 223.208 124.798 220.64 123.646 220.64C122.518 220.64 122.446 223.184 122.446 223.88C122.446 224.648 122.494 227.144 123.694 227.144ZM124.63 230V228.632H124.582C124.126 229.544 123.43 230.24 122.35 230.24C119.614 230.24 119.062 225.872 119.062 223.928C119.062 221.84 119.47 217.64 122.302 217.64C123.43 217.64 124.198 218.384 124.582 219.368H124.63V217.88H128.014V230H124.63ZM129.66 210.632H133.044V230H129.66V210.632ZM135.779 214.52H139.163V217.88H140.555V220.664H139.163V230H135.779V220.664H134.603V217.88H135.779V214.52ZM142.129 210.632H145.513V219.752H145.561C146.017 218.6 147.049 217.64 148.369 217.64C150.865 217.64 150.649 220.424 150.649 222.176V230H147.265V223.352C147.265 222.728 147.505 221.048 146.425 221.048C145.657 221.048 145.513 221.84 145.513 222.44V230H142.129V210.632ZM158.469 226.712V229.808C157.845 230.096 157.221 230.24 156.525 230.24C153.237 230.24 152.085 226.784 152.085 224.024C152.085 220.976 153.285 217.64 156.789 217.64C157.389 217.64 157.917 217.76 158.469 218V220.976C158.157 220.688 157.893 220.592 157.485 220.592C155.829 220.592 155.469 222.584 155.469 223.832C155.469 225.128 155.733 227.072 157.437 227.072C157.821 227.072 158.157 226.928 158.469 226.712ZM164.287 227.144C165.367 227.144 165.463 224.528 165.463 223.88C165.463 223.208 165.391 220.64 164.239 220.64C163.111 220.64 163.039 223.184 163.039 223.88C163.039 224.648 163.087 227.144 164.287 227.144ZM165.223 230V228.632H165.175C164.719 229.544 164.023 230.24 162.943 230.24C160.207 230.24 159.655 225.872 159.655 223.928C159.655 221.84 160.063 217.64 162.895 217.64C164.023 217.64 164.791 218.384 165.175 219.368H165.223V217.88H168.607V230H165.223ZM170.254 217.88H173.638V219.344H173.686C174.31 218.288 175.126 217.544 176.446 217.424V220.712C176.278 220.688 176.11 220.664 175.918 220.664C173.662 220.664 173.638 222.152 173.638 223.952V230H170.254V217.88ZM182.782 222.752V222.464C182.782 221.672 182.614 220.232 181.558 220.232C180.526 220.232 180.31 221.624 180.31 222.392V222.752H182.782ZM185.71 223.448L185.638 224.84H180.286C180.31 225.728 180.262 227.648 181.558 227.648C182.422 227.648 182.638 226.976 182.638 226.256H185.518C185.374 227.36 185.038 228.368 184.414 229.088C183.814 229.808 182.926 230.24 181.678 230.24C178.246 230.24 177.022 227.192 177.022 224.192C177.022 221.288 178.078 217.64 181.606 217.64C183.838 217.64 185.902 219.632 185.71 223.448ZM193.491 211.904H200.715V215.264H197.067V219.128H200.355V222.488H197.067V230H193.491V211.904ZM206.639 227.144C207.719 227.144 207.815 224.528 207.815 223.88C207.815 223.208 207.743 220.64 206.591 220.64C205.463 220.64 205.391 223.184 205.391 223.88C205.391 224.648 205.439 227.144 206.639 227.144ZM207.575 230V228.632H207.527C207.071 229.544 206.375 230.24 205.295 230.24C202.559 230.24 202.007 225.872 202.007 223.928C202.007 221.84 202.415 217.64 205.247 217.64C206.375 217.64 207.143 218.384 207.527 219.368H207.575V217.88H210.959V230H207.575ZM218.774 226.712V229.808C218.15 230.096 217.526 230.24 216.83 230.24C213.542 230.24 212.39 226.784 212.39 224.024C212.39 220.976 213.59 217.64 217.094 217.64C217.694 217.64 218.222 217.76 218.774 218V220.976C218.462 220.688 218.198 220.592 217.79 220.592C216.134 220.592 215.774 222.584 215.774 223.832C215.774 225.128 216.038 227.072 217.742 227.072C218.126 227.072 218.462 226.928 218.774 226.712ZM220.152 217.88H223.536V230H220.152V217.88ZM221.832 216.44C220.656 216.44 219.696 215.456 219.696 214.256C219.696 213.032 220.68 212.12 221.904 212.12C223.08 212.12 223.992 213.152 223.992 214.304C223.992 215.456 223.008 216.44 221.832 216.44ZM225.192 210.632H228.576V230H225.192V210.632ZM230.23 217.88H233.614V230H230.23V217.88ZM231.91 216.44C230.734 216.44 229.774 215.456 229.774 214.256C229.774 213.032 230.758 212.12 231.982 212.12C233.158 212.12 234.07 213.152 234.07 214.304C234.07 215.456 233.086 216.44 231.91 216.44ZM236.326 214.52H239.71V217.88H241.102V220.664H239.71V230H236.326V220.664H235.15V217.88H236.326V214.52ZM242.652 217.88H246.036V230H242.652V217.88ZM244.332 216.44C243.156 216.44 242.196 215.456 242.196 214.256C242.196 213.032 243.18 212.12 244.404 212.12C245.58 212.12 246.492 213.152 246.492 214.304C246.492 215.456 245.508 216.44 244.332 216.44ZM253.236 222.752V222.464C253.236 221.672 253.068 220.232 252.012 220.232C250.98 220.232 250.764 221.624 250.764 222.392V222.752H253.236ZM256.164 223.448L256.092 224.84H250.74C250.764 225.728 250.716 227.648 252.012 227.648C252.876 227.648 253.092 226.976 253.092 226.256H255.972C255.828 227.36 255.492 228.368 254.868 229.088C254.268 229.808 253.38 230.24 252.132 230.24C248.7 230.24 247.476 227.192 247.476 224.192C247.476 221.288 248.532 217.64 252.06 217.64C254.292 217.64 256.356 219.632 256.164 223.448ZM265.093 218.672L263.725 221.144C263.245 220.712 262.789 220.352 262.093 220.352C261.493 220.352 261.181 220.712 261.181 221.24C261.229 222.656 265.045 222.368 265.045 225.992C265.045 228.392 263.653 230.24 261.157 230.24C259.861 230.24 258.517 229.688 257.509 228.848L258.997 226.448C259.501 226.88 260.005 227.24 260.677 227.24C261.205 227.24 261.661 226.856 261.661 226.232C261.709 224.624 257.797 225.032 257.797 221.192C257.797 218.888 259.717 217.64 261.853 217.64C263.077 217.64 264.109 217.952 265.093 218.672Z" fill="#6CBF2A"/>
</svg>
