<svg width="361" height="316" viewBox="0 0 361 316" fill="none" xmlns="http://www.w3.org/2000/svg">
<rect width="361" height="316" rx="50" fill="#0E3D68"/>
<path d="M38.2 154H28V116.3H38.2V154ZM81.7109 154H71.1109L70.1609 130.3H70.0609C69.6109 133.05 69.2609 135.8 68.7609 138.55L65.8609 154H57.5609L54.0109 130.3H53.9109C53.8609 133.1 53.9109 135.85 53.7609 138.65L52.9109 154H41.9609L46.3609 116.3H59.0609L61.9609 136.35H62.0609C62.3609 134 62.6109 131.7 63.0609 129.35L65.5109 116.3H78.0609L81.7109 154ZM122.971 154H112.371L111.421 130.3H111.321C110.871 133.05 110.521 135.8 110.021 138.55L107.121 154H98.8207L95.2707 130.3H95.1707C95.1207 133.1 95.1707 135.85 95.0207 138.65L94.1707 154H83.2207L87.6207 116.3H100.321L103.221 136.35H103.321C103.621 134 103.871 131.7 104.321 129.35L106.771 116.3H119.321L122.971 154ZM136.93 154H126.73V116.3H136.93V154ZM155.891 132.2H170.091L170.141 133.8C170.141 143.1 168.341 154.65 156.541 154.65C145.441 154.65 141.841 144.9 141.841 135.35C141.841 126 145.391 115.65 156.441 115.65C162.541 115.65 167.091 119.5 169.291 124.95L159.441 128.6C159.341 127.1 158.341 124.75 156.541 124.75C151.841 124.75 152.241 133.4 152.241 136.25C152.391 138.95 152.191 145.55 156.141 145.55C158.841 145.55 159.691 142.35 159.641 140.15H155.891V132.2ZM201.481 154H190.431L184.781 138.3L184.681 138.4C184.731 140.25 184.831 142.1 184.831 143.95V154H174.631V116.3H184.481C193.331 116.3 199.731 118.9 199.731 128.85C199.731 133 197.931 136.7 193.881 138.3L201.481 154ZM184.831 133.7L185.481 133.75C188.181 133.75 189.631 131.4 189.631 128.95C189.631 125.65 187.631 124.25 184.831 124.4V133.7ZM231.707 154H221.157L220.407 149.15H213.557L212.707 154H202.207L211.257 116.3H223.707L231.707 154ZM214.907 141.15H219.207L218.107 132.4C217.807 130.05 217.607 127.65 217.357 125.3H217.257C216.957 127.65 216.707 130.05 216.307 132.4L214.907 141.15ZM247.223 154H237.023V125.5H231.423V116.3H253.073V125.5H247.223V154ZM267.35 154H257.15V116.3H267.35V154ZM272.211 135.15C272.211 125.95 276.261 115.65 286.611 115.65C296.961 115.65 301.011 125.95 301.011 135.15C301.011 144.35 296.961 154.65 286.611 154.65C276.261 154.65 272.211 144.35 272.211 135.15ZM282.611 135.15C282.611 137.5 282.761 145.15 286.611 145.15C290.461 145.15 290.611 137.5 290.611 135.15C290.611 132.8 290.461 125.15 286.611 125.15C282.761 125.15 282.611 132.8 282.611 135.15ZM305.93 154V116.3H315.63L323.78 139L323.88 138.9C323.48 134.55 322.73 130.25 322.73 125.9V116.3H332.53V154H322.73L315.13 132.25L315.03 132.35C315.28 135.9 315.73 139.4 315.73 142.95V154H305.93Z" fill="white"/>
<path d="M79.5354 174.904H83.1114V186.616C83.1114 187.984 82.9434 190.048 84.8874 190.048C86.6394 190.048 86.6394 188.728 86.6634 187.384V174.904H90.2394V188.104C90.2394 190.024 90.0234 193.288 84.8634 193.288C81.5274 193.288 79.5354 191.728 79.5354 188.344V174.904ZM100.126 175.504V178.984C99.4061 178.36 98.5181 177.832 97.5341 177.832C96.4301 177.832 95.7341 178.504 95.7341 179.608C95.7341 182.584 101.182 182.752 101.182 187.648C101.182 190.864 99.3341 193.288 95.9741 193.288C94.9661 193.288 93.7181 192.976 92.9021 192.376V188.968C93.7421 189.544 94.5581 189.928 95.6141 189.928C96.7661 189.928 97.6781 189.16 97.6781 187.96C97.6781 186.568 96.5741 186.04 95.5661 185.32C93.5021 183.928 92.2301 182.584 92.2301 179.944C92.2301 177.088 93.8861 174.616 96.9581 174.616C98.1101 174.616 99.1421 174.928 100.126 175.504ZM107.637 174.904H111.477L113.637 183.592C113.949 184.624 114.069 185.656 114.285 186.688H114.333C114.525 185.632 114.597 184.6 114.885 183.544L117.069 174.904H120.813L115.797 193H112.869L107.637 174.904ZM121.832 180.88H125.216V193H121.832V180.88ZM123.512 179.44C122.336 179.44 121.376 178.456 121.376 177.256C121.376 176.032 122.36 175.12 123.584 175.12C124.76 175.12 125.672 176.152 125.672 177.304C125.672 178.456 124.688 179.44 123.512 179.44ZM134.335 181.672L132.967 184.144C132.487 183.712 132.031 183.352 131.335 183.352C130.735 183.352 130.423 183.712 130.423 184.24C130.471 185.656 134.287 185.368 134.287 188.992C134.287 191.392 132.895 193.24 130.399 193.24C129.103 193.24 127.759 192.688 126.751 191.848L128.239 189.448C128.743 189.88 129.247 190.24 129.919 190.24C130.447 190.24 130.903 189.856 130.903 189.232C130.951 187.624 127.039 188.032 127.039 184.192C127.039 181.888 128.959 180.64 131.095 180.64C132.319 180.64 133.351 180.952 134.335 181.672ZM140.311 190.144C141.391 190.144 141.487 187.528 141.487 186.88C141.487 186.208 141.415 183.64 140.263 183.64C139.135 183.64 139.063 186.184 139.063 186.88C139.063 187.648 139.111 190.144 140.311 190.144ZM141.247 193V191.632H141.199C140.743 192.544 140.047 193.24 138.967 193.24C136.231 193.24 135.679 188.872 135.679 186.928C135.679 184.84 136.087 180.64 138.919 180.64C140.047 180.64 140.815 181.384 141.199 182.368H141.247V180.88H144.631V193H141.247ZM156.576 190.144C157.656 190.144 157.752 187.528 157.752 186.88C157.752 186.208 157.68 183.64 156.528 183.64C155.4 183.64 155.328 186.184 155.328 186.88C155.328 187.648 155.376 190.144 156.576 190.144ZM157.512 193V191.632H157.464C157.008 192.544 156.312 193.24 155.232 193.24C152.496 193.24 151.944 188.872 151.944 186.928C151.944 184.84 152.352 180.64 155.184 180.64C156.312 180.64 157.08 181.384 157.464 182.368H157.512V180.88H160.896V193H157.512ZM165.927 180.88V182.752H165.975C166.431 181.6 167.463 180.64 168.783 180.64C171.279 180.64 171.063 183.424 171.063 185.176V193H167.679V186.352C167.679 185.728 167.919 184.048 166.839 184.048C166.071 184.048 165.927 184.84 165.927 185.44V193H162.543V180.88H165.927ZM178.067 193V191.632H178.019C177.563 192.544 176.867 193.24 175.787 193.24C173.051 193.24 172.499 188.872 172.499 186.928C172.499 184.84 172.907 180.64 175.739 180.64C176.867 180.64 177.635 181.384 178.019 182.368H178.067V173.632H181.451V193H178.067ZM177.131 190.144C178.211 190.144 178.307 187.528 178.307 186.88C178.307 186.208 178.235 183.64 177.083 183.64C175.955 183.64 175.883 186.184 175.883 186.88C175.883 187.648 175.931 190.144 177.131 190.144ZM189.413 174.904H192.989V193H189.413V174.904ZM198.482 180.88V182.752H198.53C198.986 181.6 200.018 180.64 201.338 180.64C203.834 180.64 203.618 183.424 203.618 185.176V193H200.234V186.352C200.234 185.728 200.474 184.048 199.394 184.048C198.626 184.048 198.482 184.84 198.482 185.44V193H195.098V180.88H198.482ZM206.326 177.52H209.71V180.88H211.102V183.664H209.71V193H206.326V183.664H205.15V180.88H206.326V177.52ZM218.197 185.752V185.464C218.197 184.672 218.029 183.232 216.973 183.232C215.941 183.232 215.725 184.624 215.725 185.392V185.752H218.197ZM221.125 186.448L221.053 187.84H215.701C215.725 188.728 215.677 190.648 216.973 190.648C217.837 190.648 218.053 189.976 218.053 189.256H220.933C220.789 190.36 220.453 191.368 219.829 192.088C219.229 192.808 218.341 193.24 217.093 193.24C213.661 193.24 212.437 190.192 212.437 187.192C212.437 184.288 213.493 180.64 217.021 180.64C219.253 180.64 221.317 182.632 221.125 186.448ZM227.03 190.144C228.11 190.144 228.182 187.528 228.182 186.88C228.182 186.208 228.134 183.64 226.982 183.64C225.83 183.64 225.758 186.184 225.758 186.88C225.758 187.648 225.806 190.144 227.03 190.144ZM222.494 194.608H225.494C225.542 195.376 225.758 196.336 226.718 196.336C228.23 196.336 228.014 194.056 228.014 193.024V191.488H227.966C227.75 191.92 227.486 192.376 227.15 192.688C226.814 193.024 226.382 193.24 225.782 193.24C224.534 193.24 223.694 192.256 223.166 191.224C222.566 190.024 222.374 188.464 222.374 187.12C222.374 185.008 222.758 180.64 225.638 180.64C226.766 180.64 227.582 181.384 227.966 182.344H228.014V180.88H231.398V194.056C231.398 197.608 229.814 199.024 226.862 199.024C223.982 199.024 222.662 197.368 222.494 194.608ZM233.067 180.88H236.451V182.344H236.499C237.123 181.288 237.939 180.544 239.259 180.424V183.712C239.091 183.688 238.923 183.664 238.731 183.664C236.475 183.664 236.451 185.152 236.451 186.952V193H233.067V180.88ZM244.467 190.144C245.547 190.144 245.643 187.528 245.643 186.88C245.643 186.208 245.571 183.64 244.419 183.64C243.291 183.64 243.219 186.184 243.219 186.88C243.219 187.648 243.267 190.144 244.467 190.144ZM245.403 193V191.632H245.355C244.899 192.544 244.203 193.24 243.123 193.24C240.387 193.24 239.835 188.872 239.835 186.928C239.835 184.84 240.243 180.64 243.075 180.64C244.203 180.64 244.971 181.384 245.355 182.368H245.403V180.88H248.787V193H245.403ZM251.49 177.52H254.874V180.88H256.266V183.664H254.874V193H251.49V183.664H250.314V180.88H251.49V177.52ZM257.816 180.88H261.2V193H257.816V180.88ZM259.496 179.44C258.32 179.44 257.36 178.456 257.36 177.256C257.36 176.032 258.344 175.12 259.568 175.12C260.744 175.12 261.656 176.152 261.656 177.304C261.656 178.456 260.672 179.44 259.496 179.44ZM267.248 180.64C270.872 180.64 271.856 183.856 271.856 186.952C271.856 190.048 270.872 193.24 267.248 193.24C263.624 193.24 262.64 190.048 262.64 186.952C262.64 183.856 263.624 180.64 267.248 180.64ZM267.248 183.688C266.072 183.688 266.024 186.256 266.024 186.952C266.024 187.648 266.072 190.216 267.248 190.216C268.424 190.216 268.472 187.648 268.472 186.952C268.472 186.256 268.424 183.688 267.248 183.688ZM276.693 180.88V182.752H276.741C277.197 181.6 278.229 180.64 279.549 180.64C282.045 180.64 281.829 183.424 281.829 185.176V193H278.445V186.352C278.445 185.728 278.685 184.048 277.605 184.048C276.837 184.048 276.693 184.84 276.693 185.44V193H273.309V180.88H276.693ZM110.125 222H106.549V203.904H110.269C111.037 203.904 116.413 203.424 116.413 209.256C116.413 212.64 114.229 214.584 110.917 214.584L110.125 214.536V222ZM110.125 206.856V211.632C111.853 211.704 112.837 211.056 112.837 209.208C112.837 207.912 112.333 206.856 110.797 206.856H110.125ZM117.531 209.88H120.915V211.344H120.963C121.587 210.288 122.403 209.544 123.723 209.424V212.712C123.555 212.688 123.387 212.664 123.195 212.664C120.939 212.664 120.915 214.152 120.915 215.952V222H117.531V209.88ZM128.908 209.64C132.532 209.64 133.516 212.856 133.516 215.952C133.516 219.048 132.532 222.24 128.908 222.24C125.284 222.24 124.3 219.048 124.3 215.952C124.3 212.856 125.284 209.64 128.908 209.64ZM128.908 212.688C127.732 212.688 127.684 215.256 127.684 215.952C127.684 216.648 127.732 219.216 128.908 219.216C130.084 219.216 130.132 216.648 130.132 215.952C130.132 215.256 130.084 212.688 128.908 212.688ZM141.137 218.712V221.808C140.513 222.096 139.889 222.24 139.193 222.24C135.905 222.24 134.753 218.784 134.753 216.024C134.753 212.976 135.953 209.64 139.457 209.64C140.057 209.64 140.585 209.76 141.137 210V212.976C140.825 212.688 140.561 212.592 140.153 212.592C138.497 212.592 138.137 214.584 138.137 215.832C138.137 217.128 138.401 219.072 140.105 219.072C140.489 219.072 140.825 218.928 141.137 218.712ZM148.083 214.752V214.464C148.083 213.672 147.915 212.232 146.859 212.232C145.827 212.232 145.611 213.624 145.611 214.392V214.752H148.083ZM151.011 215.448L150.939 216.84H145.587C145.611 217.728 145.563 219.648 146.859 219.648C147.723 219.648 147.939 218.976 147.939 218.256H150.819C150.675 219.36 150.339 220.368 149.715 221.088C149.115 221.808 148.227 222.24 146.979 222.24C143.547 222.24 142.323 219.192 142.323 216.192C142.323 213.288 143.379 209.64 146.907 209.64C149.139 209.64 151.203 211.632 151.011 215.448ZM159.941 210.672L158.573 213.144C158.093 212.712 157.637 212.352 156.941 212.352C156.341 212.352 156.029 212.712 156.029 213.24C156.077 214.656 159.893 214.368 159.893 217.992C159.893 220.392 158.501 222.24 156.005 222.24C154.709 222.24 153.365 221.688 152.357 220.848L153.845 218.448C154.349 218.88 154.853 219.24 155.525 219.24C156.053 219.24 156.509 218.856 156.509 218.232C156.557 216.624 152.645 217.032 152.645 213.192C152.645 210.888 154.565 209.64 156.701 209.64C157.925 209.64 158.957 209.952 159.941 210.672ZM168.964 210.672L167.596 213.144C167.116 212.712 166.66 212.352 165.964 212.352C165.364 212.352 165.052 212.712 165.052 213.24C165.1 214.656 168.916 214.368 168.916 217.992C168.916 220.392 167.524 222.24 165.028 222.24C163.732 222.24 162.388 221.688 161.38 220.848L162.868 218.448C163.372 218.88 163.876 219.24 164.548 219.24C165.076 219.24 165.532 218.856 165.532 218.232C165.58 216.624 161.668 217.032 161.668 213.192C161.668 210.888 163.588 209.64 165.724 209.64C166.948 209.64 167.98 209.952 168.964 210.672ZM177.462 206.52H180.846V209.88H182.238V212.664H180.846V222H177.462V212.664H176.286V209.88H177.462V206.52ZM188.181 209.64C191.805 209.64 192.789 212.856 192.789 215.952C192.789 219.048 191.805 222.24 188.181 222.24C184.557 222.24 183.573 219.048 183.573 215.952C183.573 212.856 184.557 209.64 188.181 209.64ZM188.181 212.688C187.005 212.688 186.957 215.256 186.957 215.952C186.957 216.648 187.005 219.216 188.181 219.216C189.357 219.216 189.405 216.648 189.405 215.952C189.405 215.256 189.357 212.688 188.181 212.688ZM201.181 206.52H204.565V209.88H205.957V212.664H204.565V222H201.181V212.664H200.005V209.88H201.181V206.52ZM207.531 202.632H210.915V211.752H210.963C211.419 210.6 212.451 209.64 213.771 209.64C216.267 209.64 216.051 212.424 216.051 214.176V222H212.667V215.352C212.667 214.728 212.907 213.048 211.827 213.048C211.059 213.048 210.915 213.84 210.915 214.44V222H207.531V202.632ZM223.247 214.752V214.464C223.247 213.672 223.079 212.232 222.023 212.232C220.991 212.232 220.775 213.624 220.775 214.392V214.752H223.247ZM226.175 215.448L226.103 216.84H220.751C220.775 217.728 220.727 219.648 222.023 219.648C222.887 219.648 223.103 218.976 223.103 218.256H225.983C225.839 219.36 225.503 220.368 224.879 221.088C224.279 221.808 223.391 222.24 222.143 222.24C218.711 222.24 217.487 219.192 217.487 216.192C217.487 213.288 218.543 209.64 222.071 209.64C224.303 209.64 226.367 211.632 226.175 215.448ZM233.274 203.904H236.85V215.616C236.85 216.984 236.682 219.048 238.626 219.048C240.378 219.048 240.378 217.728 240.402 216.384V203.904H243.978V217.104C243.978 219.024 243.762 222.288 238.602 222.288C235.266 222.288 233.274 220.728 233.274 217.344V203.904ZM253.864 204.504V207.984C253.144 207.36 252.256 206.832 251.272 206.832C250.168 206.832 249.472 207.504 249.472 208.608C249.472 211.584 254.92 211.752 254.92 216.648C254.92 219.864 253.072 222.288 249.712 222.288C248.704 222.288 247.456 221.976 246.64 221.376V217.968C247.48 218.544 248.296 218.928 249.352 218.928C250.504 218.928 251.416 218.16 251.416 216.96C251.416 215.568 250.312 215.04 249.304 214.32C247.24 212.928 245.968 211.584 245.968 208.944C245.968 206.088 247.624 203.616 250.696 203.616C251.848 203.616 252.88 203.928 253.864 204.504Z" fill="#6CBF2A"/>
</svg>
