<svg width="365" height="316" viewBox="0 0 365 316" fill="none" xmlns="http://www.w3.org/2000/svg">
<rect width="365" height="316" rx="50" fill="#0E3D68"/>
<path d="M141.488 153H131.288V115.3H141.488V153ZM147.499 153V115.3H166.449V124.2H157.699V129.45H165.549V138.35H157.699V144.1H166.449V153H147.499ZM190.3 153H172.45V115.3H182.65V144.1H190.3V153ZM207.201 153H197.001V124.5H191.401V115.3H213.051V124.5H207.201V153ZM216.178 152.1V140.3C217.578 142.4 220.028 144.5 222.628 144.5C224.028 144.5 225.628 143.65 225.628 142C225.628 141.1 225.328 140.45 224.828 139.9C224.378 139.35 223.778 138.9 223.128 138.45C221.128 136.9 219.378 135.45 218.078 133.65C216.828 131.9 216.028 129.8 216.028 127.05C216.028 122.65 218.828 114.65 227.528 114.65C229.978 114.65 232.628 115.4 234.778 116.55V128C233.578 126.1 231.128 123.95 228.778 123.95C227.578 123.95 226.128 124.8 226.128 126.25C226.128 127.05 226.578 127.75 227.128 128.35C227.678 128.95 228.428 129.45 228.978 129.9C231.128 131.4 232.828 132.8 233.978 134.5C235.178 136.2 235.828 138.2 235.828 141.05C235.828 148.05 230.928 153.65 223.828 153.65C221.228 153.65 218.578 153.1 216.178 152.1Z" fill="white"/>
<path d="M96.0689 173.904H99.6449V192H96.0689V173.904ZM105.138 179.88V181.752H105.186C105.642 180.6 106.674 179.64 107.994 179.64C110.49 179.64 110.274 182.424 110.274 184.176V192H106.89V185.352C106.89 184.728 107.13 183.048 106.05 183.048C105.282 183.048 105.138 183.84 105.138 184.44V192H101.754V179.88H105.138ZM112.982 176.52H116.366V179.88H117.758V182.664H116.366V192H112.982V182.664H111.806V179.88H112.982V176.52ZM124.853 184.752V184.464C124.853 183.672 124.685 182.232 123.629 182.232C122.597 182.232 122.381 183.624 122.381 184.392V184.752H124.853ZM127.781 185.448L127.709 186.84H122.357C122.381 187.728 122.333 189.648 123.629 189.648C124.493 189.648 124.709 188.976 124.709 188.256H127.589C127.445 189.36 127.109 190.368 126.485 191.088C125.885 191.808 124.997 192.24 123.749 192.24C120.317 192.24 119.093 189.192 119.093 186.192C119.093 183.288 120.149 179.64 123.677 179.64C125.909 179.64 127.973 181.632 127.781 185.448ZM129.246 179.88H132.63V181.344H132.678C133.302 180.288 134.118 179.544 135.438 179.424V182.712C135.27 182.688 135.102 182.664 134.91 182.664C132.654 182.664 132.63 184.152 132.63 185.952V192H129.246V179.88ZM140.201 179.88V181.752H140.249C140.705 180.6 141.737 179.64 143.057 179.64C145.553 179.64 145.337 182.424 145.337 184.176V192H141.953V185.352C141.953 184.728 142.193 183.048 141.113 183.048C140.345 183.048 140.201 183.84 140.201 184.44V192H136.817V179.88H140.201ZM151.404 189.144C152.484 189.144 152.58 186.528 152.58 185.88C152.58 185.208 152.508 182.64 151.356 182.64C150.228 182.64 150.156 185.184 150.156 185.88C150.156 186.648 150.204 189.144 151.404 189.144ZM152.34 192V190.632H152.292C151.836 191.544 151.14 192.24 150.06 192.24C147.324 192.24 146.772 187.872 146.772 185.928C146.772 183.84 147.18 179.64 150.012 179.64C151.14 179.64 151.908 180.384 152.292 181.368H152.34V179.88H155.724V192H152.34ZM158.427 176.52H161.811V179.88H163.203V182.664H161.811V192H158.427V182.664H157.251V179.88H158.427V176.52ZM164.754 179.88H168.138V192H164.754V179.88ZM166.434 178.44C165.258 178.44 164.298 177.456 164.298 176.256C164.298 175.032 165.282 174.12 166.506 174.12C167.682 174.12 168.594 175.152 168.594 176.304C168.594 177.456 167.61 178.44 166.434 178.44ZM174.185 179.64C177.809 179.64 178.793 182.856 178.793 185.952C178.793 189.048 177.809 192.24 174.185 192.24C170.561 192.24 169.577 189.048 169.577 185.952C169.577 182.856 170.561 179.64 174.185 179.64ZM174.185 182.688C173.009 182.688 172.961 185.256 172.961 185.952C172.961 186.648 173.009 189.216 174.185 189.216C175.361 189.216 175.409 186.648 175.409 185.952C175.409 185.256 175.361 182.688 174.185 182.688ZM183.63 179.88V181.752H183.678C184.134 180.6 185.166 179.64 186.486 179.64C188.982 179.64 188.766 182.424 188.766 184.176V192H185.382V185.352C185.382 184.728 185.622 183.048 184.542 183.048C183.774 183.048 183.63 183.84 183.63 184.44V192H180.246V179.88H183.63ZM194.834 189.144C195.914 189.144 196.01 186.528 196.01 185.88C196.01 185.208 195.938 182.64 194.786 182.64C193.658 182.64 193.586 185.184 193.586 185.88C193.586 186.648 193.634 189.144 194.834 189.144ZM195.77 192V190.632H195.722C195.266 191.544 194.57 192.24 193.49 192.24C190.754 192.24 190.202 187.872 190.202 185.928C190.202 183.84 190.61 179.64 193.442 179.64C194.57 179.64 195.338 180.384 195.722 181.368H195.77V179.88H199.154V192H195.77ZM200.801 172.632H204.185V192H200.801V172.632ZM212.155 173.904H219.355V177.264H215.731V181.2H218.923V184.56H215.731V188.64H219.403V192H212.155V173.904ZM224.505 179.88V181.752H224.553C225.009 180.6 226.041 179.64 227.361 179.64C229.857 179.64 229.641 182.424 229.641 184.176V192H226.257V185.352C226.257 184.728 226.497 183.048 225.417 183.048C224.649 183.048 224.505 183.84 224.505 184.44V192H221.121V179.88H224.505ZM235.733 189.144C236.813 189.144 236.885 186.528 236.885 185.88C236.885 185.208 236.837 182.64 235.685 182.64C234.533 182.64 234.461 185.184 234.461 185.88C234.461 186.648 234.509 189.144 235.733 189.144ZM231.197 193.608H234.197C234.245 194.376 234.461 195.336 235.421 195.336C236.933 195.336 236.717 193.056 236.717 192.024V190.488H236.669C236.453 190.92 236.189 191.376 235.853 191.688C235.517 192.024 235.085 192.24 234.485 192.24C233.237 192.24 232.397 191.256 231.869 190.224C231.269 189.024 231.077 187.464 231.077 186.12C231.077 184.008 231.461 179.64 234.341 179.64C235.469 179.64 236.285 180.384 236.669 181.344H236.717V179.88H240.101V193.056C240.101 196.608 238.517 198.024 235.565 198.024C232.685 198.024 231.365 196.368 231.197 193.608ZM241.77 172.632H245.154V192H241.77V172.632ZM246.808 179.88H250.192V192H246.808V179.88ZM248.488 178.44C247.312 178.44 246.352 177.456 246.352 176.256C246.352 175.032 247.336 174.12 248.56 174.12C249.736 174.12 250.648 175.152 250.648 176.304C250.648 177.456 249.664 178.44 248.488 178.44ZM259.312 180.672L257.944 183.144C257.464 182.712 257.008 182.352 256.312 182.352C255.712 182.352 255.4 182.712 255.4 183.24C255.448 184.656 259.264 184.368 259.264 187.992C259.264 190.392 257.872 192.24 255.376 192.24C254.08 192.24 252.736 191.688 251.728 190.848L253.216 188.448C253.72 188.88 254.224 189.24 254.896 189.24C255.424 189.24 255.88 188.856 255.88 188.232C255.928 186.624 252.016 187.032 252.016 183.192C252.016 180.888 253.936 179.64 256.072 179.64C257.296 179.64 258.328 179.952 259.312 180.672ZM260.871 172.632H264.255V181.752H264.303C264.759 180.6 265.791 179.64 267.111 179.64C269.607 179.64 269.391 182.424 269.391 184.176V192H266.007V185.352C266.007 184.728 266.247 183.048 265.167 183.048C264.399 183.048 264.255 183.84 264.255 184.44V192H260.871V172.632ZM89.2251 202.904H92.8011V217.64H96.5451V221H89.2251V202.904ZM97.7223 208.88H101.106V221H97.7223V208.88ZM99.4023 207.44C98.2263 207.44 97.2663 206.456 97.2663 205.256C97.2663 204.032 98.2503 203.12 99.4743 203.12C100.65 203.12 101.562 204.152 101.562 205.304C101.562 206.456 100.578 207.44 99.4023 207.44ZM108.93 217.712V220.808C108.306 221.096 107.682 221.24 106.986 221.24C103.698 221.24 102.546 217.784 102.546 215.024C102.546 211.976 103.746 208.64 107.25 208.64C107.85 208.64 108.378 208.76 108.93 209V211.976C108.618 211.688 108.354 211.592 107.946 211.592C106.29 211.592 105.93 213.584 105.93 214.832C105.93 216.128 106.194 218.072 107.898 218.072C108.282 218.072 108.618 217.928 108.93 217.712ZM115.876 213.752V213.464C115.876 212.672 115.708 211.232 114.652 211.232C113.62 211.232 113.404 212.624 113.404 213.392V213.752H115.876ZM118.804 214.448L118.732 215.84H113.38C113.404 216.728 113.356 218.648 114.652 218.648C115.516 218.648 115.732 217.976 115.732 217.256H118.612C118.468 218.36 118.132 219.368 117.508 220.088C116.908 220.808 116.02 221.24 114.772 221.24C111.34 221.24 110.116 218.192 110.116 215.192C110.116 212.288 111.172 208.64 114.7 208.64C116.932 208.64 118.996 210.632 118.804 214.448ZM123.654 208.88V210.752H123.702C124.158 209.6 125.19 208.64 126.51 208.64C129.006 208.64 128.79 211.424 128.79 213.176V221H125.406V214.352C125.406 213.728 125.646 212.048 124.566 212.048C123.798 212.048 123.654 212.84 123.654 213.44V221H120.27V208.88H123.654ZM137.906 209.672L136.538 212.144C136.058 211.712 135.602 211.352 134.906 211.352C134.306 211.352 133.994 211.712 133.994 212.24C134.042 213.656 137.858 213.368 137.858 216.992C137.858 219.392 136.466 221.24 133.97 221.24C132.674 221.24 131.33 220.688 130.322 219.848L131.81 217.448C132.314 217.88 132.818 218.24 133.49 218.24C134.018 218.24 134.474 217.856 134.474 217.232C134.522 215.624 130.61 216.032 130.61 212.192C130.61 209.888 132.53 208.64 134.666 208.64C135.89 208.64 136.922 208.952 137.906 209.672ZM139.465 208.88H142.849V215.528C142.849 216.2 142.585 218.072 143.713 218.072C144.625 218.072 144.553 216.872 144.553 216.272L144.577 208.88H147.937V216.608C147.937 219.416 146.617 221.24 143.617 221.24C139.777 221.24 139.465 218.36 139.465 216.152V208.88ZM149.613 208.88H152.997V210.344H153.045C153.669 209.288 154.485 208.544 155.805 208.424V211.712C155.637 211.688 155.469 211.664 155.277 211.664C153.021 211.664 152.997 213.152 152.997 214.952V221H149.613V208.88ZM162.142 213.752V213.464C162.142 212.672 161.974 211.232 160.918 211.232C159.886 211.232 159.67 212.624 159.67 213.392V213.752H162.142ZM165.07 214.448L164.998 215.84H159.646C159.67 216.728 159.622 218.648 160.918 218.648C161.782 218.648 161.998 217.976 161.998 217.256H164.878C164.734 218.36 164.398 219.368 163.774 220.088C163.174 220.808 162.286 221.24 161.038 221.24C157.606 221.24 156.382 218.192 156.382 215.192C156.382 212.288 157.438 208.64 160.966 208.64C163.198 208.64 165.262 210.632 165.07 214.448ZM172.85 202.904H180.05V206.264H176.426V210.2H179.618V213.56H176.426V217.64H180.098V221H172.85V202.904ZM181.985 208.88H185.489L186.449 210.728L186.809 211.472L188.177 208.88H191.681L188.585 214.472L192.161 221H188.585L186.809 217.664L185.009 221H181.529L185.009 214.472L181.985 208.88ZM197.975 218.144C199.055 218.144 199.151 215.528 199.151 214.88C199.151 214.208 199.079 211.64 197.927 211.64C196.799 211.64 196.727 214.184 196.727 214.88C196.727 215.648 196.775 218.144 197.975 218.144ZM198.911 221V219.632H198.863C198.407 220.544 197.711 221.24 196.631 221.24C193.895 221.24 193.343 216.872 193.343 214.928C193.343 212.84 193.751 208.64 196.583 208.64C197.711 208.64 198.479 209.384 198.863 210.368H198.911V208.88H202.295V221H198.911ZM207.326 208.88L207.35 210.824H207.398C207.974 209.648 208.934 208.64 210.374 208.64C211.622 208.64 212.294 209.6 212.462 210.704H212.51C213.062 209.624 214.118 208.64 215.414 208.64C217.598 208.64 217.598 211.064 217.598 212.624V221H214.214V214.424C214.214 213.8 214.382 212.024 213.374 212.024C212.582 212.024 212.462 212.84 212.462 213.392V221H209.078V214.208C209.078 213.608 209.246 212.072 208.286 212.072C207.446 212.072 207.326 212.84 207.326 213.464V221H203.942V208.88H207.326ZM219.246 208.88H222.63V221H219.246V208.88ZM220.926 207.44C219.75 207.44 218.79 206.456 218.79 205.256C218.79 204.032 219.774 203.12 220.998 203.12C222.174 203.12 223.086 204.152 223.086 205.304C223.086 206.456 222.102 207.44 220.926 207.44ZM227.669 208.88V210.752H227.717C228.173 209.6 229.205 208.64 230.525 208.64C233.021 208.64 232.805 211.424 232.805 213.176V221H229.421V214.352C229.421 213.728 229.661 212.048 228.581 212.048C227.813 212.048 227.669 212.84 227.669 213.44V221H224.285V208.88H227.669ZM238.873 218.144C239.953 218.144 240.049 215.528 240.049 214.88C240.049 214.208 239.977 211.64 238.825 211.64C237.697 211.64 237.625 214.184 237.625 214.88C237.625 215.648 237.673 218.144 238.873 218.144ZM239.809 221V219.632H239.761C239.305 220.544 238.609 221.24 237.529 221.24C234.793 221.24 234.241 216.872 234.241 214.928C234.241 212.84 234.649 208.64 237.481 208.64C238.609 208.64 239.377 209.384 239.761 210.368H239.809V208.88H243.193V221H239.809ZM245.896 205.52H249.28V208.88H250.672V211.664H249.28V221H245.896V211.664H244.72V208.88H245.896V205.52ZM252.222 208.88H255.606V221H252.222V208.88ZM253.902 207.44C252.726 207.44 251.766 206.456 251.766 205.256C251.766 204.032 252.75 203.12 253.974 203.12C255.15 203.12 256.062 204.152 256.062 205.304C256.062 206.456 255.078 207.44 253.902 207.44ZM261.654 208.64C265.278 208.64 266.262 211.856 266.262 214.952C266.262 218.048 265.278 221.24 261.654 221.24C258.03 221.24 257.046 218.048 257.046 214.952C257.046 211.856 258.03 208.64 261.654 208.64ZM261.654 211.688C260.478 211.688 260.43 214.256 260.43 214.952C260.43 215.648 260.478 218.216 261.654 218.216C262.83 218.216 262.878 215.648 262.878 214.952C262.878 214.256 262.83 211.688 261.654 211.688ZM271.099 208.88V210.752H271.147C271.603 209.6 272.635 208.64 273.955 208.64C276.451 208.64 276.235 211.424 276.235 213.176V221H272.851V214.352C272.851 213.728 273.091 212.048 272.011 212.048C271.243 212.048 271.099 212.84 271.099 213.44V221H267.715V208.88H271.099Z" fill="#6CBF2A"/>
</svg>
