<svg width="362" height="317" viewBox="0 0 362 317" fill="none" xmlns="http://www.w3.org/2000/svg">
<rect width="362" height="317" rx="50" fill="#44739E"/>
<path d="M65.902 53.904L65.662 55.44H62.95L60.334 72H58.654L61.27 55.44H58.558L58.798 53.904H65.902ZM68.7505 52.8L67.5025 60.672C68.2465 59.952 69.1585 59.496 70.1185 59.496C72.3745 59.496 72.1825 61.464 71.8945 63.192L70.5025 72H68.9425L70.2865 63.456C70.5985 61.536 70.5025 60.768 69.3265 60.768C67.5505 60.768 67.1665 62.712 66.9745 64.008L65.7025 72H64.1425L67.1905 52.8H68.7505ZM75.0738 64.848H78.6497L78.6738 64.632C78.7938 63.456 79.1538 60.96 77.5218 60.96C76.0338 60.96 75.2418 63.744 75.0738 64.848ZM80.0178 66.168H74.8338L74.7858 66.528C74.5938 67.752 74.3298 70.728 76.0338 70.728C77.4018 70.728 77.9058 68.808 78.0738 67.824H79.6818C79.3458 69.696 78.2418 72.192 75.9618 72.192C72.7218 72.192 72.8898 68.352 73.2738 65.88C73.6338 63.672 74.7858 59.496 77.7617 59.496C80.6418 59.496 80.4978 63.264 80.1378 65.424L80.0178 66.168ZM90.7885 53.904L87.9325 72H86.2525L89.1085 53.904H90.7885ZM99.3668 53.904L99.1268 55.44H95.1188L94.1108 61.824H97.9988L97.7588 63.36H93.8708L92.7428 70.464H96.7508L96.5108 72H90.8228L93.6788 53.904H99.3668ZM103.468 53.904L100.852 70.464H104.788L104.548 72H98.9322L101.788 53.904H103.468ZM114.113 53.904L113.873 55.44H111.161L108.545 72H106.865L109.481 55.44H106.769L107.009 53.904H114.113ZM121.902 54.624L121.566 56.76C120.966 55.944 120.27 55.296 119.118 55.296C117.438 55.296 116.286 56.688 116.046 58.224C115.71 60.336 117.078 61.32 118.494 62.376C119.838 63.456 121.206 64.608 120.798 67.104C120.39 69.744 118.278 72.24 115.446 72.24C114.438 72.24 113.454 71.952 112.734 71.328L113.094 69.144C113.718 69.96 114.63 70.608 115.782 70.608C117.558 70.608 118.782 69.048 119.022 67.416C119.382 65.304 117.966 64.368 116.598 63.288C115.23 62.232 113.862 61.056 114.27 58.464C114.654 56.04 116.526 53.664 119.19 53.664C120.27 53.664 121.134 54.024 121.902 54.624ZM130.318 59.688L128.374 72H126.814L128.758 59.688H130.318ZM131.278 56.04C131.182 56.688 130.582 57.216 129.958 57.216C129.31 57.216 128.854 56.688 128.95 56.04C129.046 55.416 129.67 54.888 130.318 54.888C130.942 54.888 131.374 55.416 131.278 56.04ZM137.093 60.288L136.805 62.208H136.757C136.397 61.56 135.773 60.96 134.909 60.96C133.973 60.96 133.253 61.68 133.109 62.592C132.917 63.768 133.829 64.488 134.669 65.304C135.557 66.144 136.397 67.056 136.133 68.664C135.821 70.632 134.261 72.192 132.221 72.192C131.453 72.192 130.637 71.832 130.109 71.352L130.397 69.528C130.901 70.152 131.453 70.728 132.389 70.728C133.469 70.728 134.333 69.888 134.501 68.856C134.693 67.632 133.829 66.816 132.965 65.928C132.125 65.064 131.261 64.104 131.501 62.64C131.789 60.792 133.229 59.496 135.077 59.496C135.869 59.496 136.541 59.808 137.093 60.288ZM148.021 65.64C148.453 62.976 148.597 60.768 147.061 60.768C145.333 60.768 144.805 63.504 144.469 65.592C143.677 70.68 144.469 70.92 145.381 70.92C146.893 70.92 147.397 69.504 148.021 65.64ZM150.373 59.688L148.429 72H146.869L147.013 71.04H146.965C146.413 71.736 145.645 72.192 144.757 72.192C142.789 72.192 141.997 71.088 142.837 65.712C143.293 62.952 143.941 59.496 146.917 59.496C147.781 59.496 148.261 59.856 148.645 60.528H148.693L148.813 59.688H150.373ZM162.124 60.288L161.836 62.208H161.788C161.428 61.56 160.804 60.96 159.94 60.96C159.004 60.96 158.284 61.68 158.14 62.592C157.948 63.768 158.86 64.488 159.7 65.304C160.588 66.144 161.428 67.056 161.164 68.664C160.852 70.632 159.292 72.192 157.252 72.192C156.484 72.192 155.668 71.832 155.14 71.352L155.428 69.528C155.932 70.152 156.484 70.728 157.42 70.728C158.5 70.728 159.364 69.888 159.532 68.856C159.724 67.632 158.86 66.816 157.996 65.928C157.156 65.064 156.292 64.104 156.532 62.64C156.82 60.792 158.26 59.496 160.108 59.496C160.9 59.496 161.572 59.808 162.124 60.288ZM168.444 59.688L168.228 61.128H166.188L164.46 72H162.9L164.628 61.128H163.308L163.524 59.688H164.844L165.372 56.328H166.932L166.404 59.688H168.444ZM173.099 65.64C173.531 62.976 173.675 60.768 172.139 60.768C170.411 60.768 169.883 63.504 169.547 65.592C168.755 70.68 169.547 70.92 170.459 70.92C171.971 70.92 172.475 69.504 173.099 65.64ZM175.451 59.688L173.507 72H171.947L172.091 71.04H172.043C171.491 71.736 170.723 72.192 169.835 72.192C167.867 72.192 167.075 71.088 167.915 65.712C168.371 62.952 169.019 59.496 171.995 59.496C172.859 59.496 173.339 59.856 173.723 60.528H173.771L173.891 59.688H175.451ZM179.162 59.688L179.018 60.672C179.762 59.952 180.674 59.496 181.634 59.496C183.818 59.496 183.674 61.512 183.41 63.192L182.018 72H180.458L181.826 63.36C182.066 61.896 182.138 60.768 180.842 60.768C179.066 60.768 178.682 62.712 178.49 64.008L177.218 72H175.658L177.602 59.688H179.162ZM189.997 65.64C190.453 62.832 190.477 60.768 189.037 60.768C187.285 60.768 186.733 63.84 186.445 65.592C186.277 66.744 185.365 70.92 187.357 70.92C189.013 70.92 189.493 68.88 189.997 65.64ZM188.845 72L188.989 71.04H188.941C188.389 71.736 187.621 72.192 186.733 72.192C184.165 72.192 184.285 69.072 184.813 65.712C185.365 62.352 186.157 59.496 188.893 59.496C189.757 59.496 190.237 59.856 190.621 60.528H190.669L191.893 52.8H193.453L190.405 72H188.845ZM198.365 65.64C198.797 62.976 198.941 60.768 197.405 60.768C195.677 60.768 195.149 63.504 194.813 65.592C194.021 70.68 194.813 70.92 195.725 70.92C197.237 70.92 197.741 69.504 198.365 65.64ZM200.717 59.688L198.773 72H197.213L197.357 71.04H197.309C196.757 71.736 195.989 72.192 195.101 72.192C193.133 72.192 192.341 71.088 193.181 65.712C193.637 62.952 194.285 59.496 197.261 59.496C198.125 59.496 198.605 59.856 198.989 60.528H199.037L199.157 59.688H200.717ZM204.428 59.688L204.164 61.32H204.212C204.692 60.456 205.532 59.472 206.564 59.496L206.252 61.32L205.964 61.296C204.356 61.296 203.924 62.856 203.612 64.824L202.484 72H200.924L202.868 59.688H204.428ZM211.513 65.64C211.969 62.832 211.993 60.768 210.553 60.768C208.801 60.768 208.249 63.84 207.961 65.592C207.793 66.744 206.881 70.92 208.873 70.92C210.529 70.92 211.009 68.88 211.513 65.64ZM210.361 72L210.505 71.04H210.457C209.905 71.736 209.137 72.192 208.249 72.192C205.681 72.192 205.801 69.072 206.329 65.712C206.881 62.352 207.673 59.496 210.409 59.496C211.273 59.496 211.753 59.856 212.137 60.528H212.185L213.409 52.8H214.969L211.921 72H210.361ZM217.6 59.688L215.656 72H214.096L216.04 59.688H217.6ZM218.56 56.04C218.464 56.688 217.864 57.216 217.24 57.216C216.592 57.216 216.136 56.688 216.232 56.04C216.328 55.416 216.952 54.888 217.6 54.888C218.224 54.888 218.656 55.416 218.56 56.04ZM223.75 70.56L223.51 72H217.102L223.702 61.128H219.502L219.718 59.688H226.27L219.574 70.56H223.75ZM228.168 64.848H231.743L231.768 64.632C231.888 63.456 232.248 60.96 230.616 60.96C229.128 60.96 228.336 63.744 228.168 64.848ZM233.112 66.168H227.928L227.88 66.528C227.688 67.752 227.424 70.728 229.128 70.728C230.496 70.728 231 68.808 231.168 67.824H232.776C232.44 69.696 231.336 72.192 229.056 72.192C225.816 72.192 225.984 68.352 226.368 65.88C226.728 63.672 227.88 59.496 230.855 59.496C233.736 59.496 233.592 63.264 233.232 65.424L233.112 66.168ZM239.802 65.64C240.258 62.832 240.282 60.768 238.842 60.768C237.09 60.768 236.538 63.84 236.25 65.592C236.082 66.744 235.17 70.92 237.162 70.92C238.818 70.92 239.298 68.88 239.802 65.64ZM238.65 72L238.794 71.04H238.746C238.194 71.736 237.426 72.192 236.538 72.192C233.97 72.192 234.09 69.072 234.618 65.712C235.17 62.352 235.962 59.496 238.698 59.496C239.562 59.496 240.042 59.856 240.426 60.528H240.474L241.698 52.8H243.258L240.21 72H238.65ZM253.545 59.688L253.329 61.128H251.289L249.561 72H248.001L249.729 61.128H248.409L248.625 59.688H249.945L250.473 56.328H252.033L251.505 59.688H253.545ZM254.793 64.848H258.368L258.393 64.632C258.513 63.456 258.873 60.96 257.241 60.96C255.753 60.96 254.961 63.744 254.793 64.848ZM259.737 66.168H254.553L254.505 66.528C254.312 67.752 254.049 70.728 255.753 70.728C257.121 70.728 257.625 68.808 257.793 67.824H259.401C259.065 69.696 257.961 72.192 255.681 72.192C252.441 72.192 252.609 68.352 252.993 65.88C253.353 63.672 254.505 59.496 257.48 59.496C260.361 59.496 260.217 63.264 259.857 65.424L259.737 66.168ZM267.171 60.288L266.883 62.208H266.835C266.475 61.56 265.851 60.96 264.987 60.96C264.051 60.96 263.331 61.68 263.187 62.592C262.995 63.768 263.907 64.488 264.747 65.304C265.635 66.144 266.475 67.056 266.211 68.664C265.899 70.632 264.339 72.192 262.299 72.192C261.531 72.192 260.715 71.832 260.187 71.352L260.475 69.528C260.979 70.152 261.531 70.728 262.467 70.728C263.547 70.728 264.411 69.888 264.579 68.856C264.771 67.632 263.907 66.816 263.043 65.928C262.203 65.064 261.339 64.104 261.579 62.64C261.867 60.792 263.307 59.496 265.155 59.496C265.947 59.496 266.619 59.808 267.171 60.288ZM273.491 59.688L273.275 61.128H271.235L269.507 72H267.947L269.675 61.128H268.355L268.571 59.688H269.891L270.419 56.328H271.979L271.451 59.688H273.491ZM283.522 59.688L283.306 61.128H281.266L279.538 72H277.978L279.706 61.128H278.386L278.602 59.688H279.922L280.45 56.328H282.01L281.482 59.688H283.522ZM287.001 52.8L285.753 60.672C286.497 59.952 287.409 59.496 288.368 59.496C290.625 59.496 290.433 61.464 290.145 63.192L288.753 72H287.193L288.537 63.456C288.849 61.536 288.753 60.768 287.577 60.768C285.801 60.768 285.417 62.712 285.225 64.008L283.953 72H282.393L285.441 52.8H287.001ZM296.732 65.64C297.164 62.976 297.308 60.768 295.772 60.768C294.044 60.768 293.516 63.504 293.18 65.592C292.388 70.68 293.18 70.92 294.092 70.92C295.604 70.92 296.108 69.504 296.732 65.64ZM299.084 59.688L297.14 72H295.58L295.724 71.04H295.676C295.124 71.736 294.356 72.192 293.468 72.192C291.5 72.192 290.708 71.088 291.548 65.712C292.004 62.952 292.652 59.496 295.628 59.496C296.492 59.496 296.972 59.856 297.356 60.528H297.404L297.524 59.688H299.084ZM305.483 59.688L305.267 61.128H303.227L301.499 72H299.939L301.667 61.128H300.347L300.563 59.688H301.883L302.411 56.328H303.971L303.443 59.688H305.483ZM46.7708 94.64C47.2028 91.976 47.3468 89.768 45.8108 89.768C44.0828 89.768 43.5548 92.504 43.2188 94.592C42.4268 99.68 43.2188 99.92 44.1308 99.92C45.6428 99.92 46.1468 98.504 46.7708 94.64ZM49.1228 88.688L47.1788 101H45.6188L45.7628 100.04H45.7148C45.1628 100.736 44.3948 101.192 43.5068 101.192C41.5388 101.192 40.7468 100.088 41.5868 94.712C42.0428 91.952 42.6908 88.496 45.6668 88.496C46.5308 88.496 47.0108 88.856 47.3948 89.528H47.4428L47.5628 88.688H49.1228ZM55.882 89.288L55.594 91.208H55.546C55.186 90.56 54.562 89.96 53.698 89.96C52.762 89.96 52.042 90.68 51.898 91.592C51.706 92.768 52.618 93.488 53.458 94.304C54.346 95.144 55.186 96.056 54.922 97.664C54.61 99.632 53.05 101.192 51.01 101.192C50.242 101.192 49.426 100.832 48.898 100.352L49.186 98.528C49.69 99.152 50.242 99.728 51.178 99.728C52.258 99.728 53.122 98.888 53.29 97.856C53.482 96.632 52.618 95.816 51.754 94.928C50.914 94.064 50.05 93.104 50.29 91.64C50.578 89.792 52.018 88.496 53.866 88.496C54.658 88.496 55.33 88.808 55.882 89.288ZM62.5617 89.288L62.2737 91.208H62.2257C61.8657 90.56 61.2417 89.96 60.3777 89.96C59.4417 89.96 58.7217 90.68 58.5777 91.592C58.3857 92.768 59.2977 93.488 60.1377 94.304C61.0257 95.144 61.8657 96.056 61.6017 97.664C61.2897 99.632 59.7297 101.192 57.6897 101.192C56.9217 101.192 56.1057 100.832 55.5777 100.352L55.8657 98.528C56.3697 99.152 56.9217 99.728 57.8577 99.728C58.9377 99.728 59.8017 98.888 59.9697 97.856C60.1617 96.632 59.2977 95.816 58.4337 94.928C57.5937 94.064 56.7297 93.104 56.9697 91.64C57.2577 89.792 58.6977 88.496 60.5457 88.496C61.3377 88.496 62.0097 88.808 62.5617 89.288ZM65.0894 93.848H68.6654L68.6894 93.632C68.8094 92.456 69.1694 89.96 67.5374 89.96C66.0494 89.96 65.2574 92.744 65.0894 93.848ZM70.0334 95.168H64.8494L64.8014 95.528C64.6094 96.752 64.3454 99.728 66.0494 99.728C67.4174 99.728 67.9214 97.808 68.0894 96.824H69.6974C69.3614 98.696 68.2574 101.192 65.9774 101.192C62.7374 101.192 62.9054 97.352 63.2894 94.88C63.6494 92.672 64.8014 88.496 67.7774 88.496C70.6574 88.496 70.5134 92.264 70.1534 94.424L70.0334 95.168ZM77.4679 89.288L77.1799 91.208H77.1319C76.7719 90.56 76.1479 89.96 75.2839 89.96C74.3479 89.96 73.6279 90.68 73.4839 91.592C73.2919 92.768 74.2039 93.488 75.0439 94.304C75.9319 95.144 76.7719 96.056 76.5079 97.664C76.1959 99.632 74.6359 101.192 72.5959 101.192C71.8279 101.192 71.0119 100.832 70.4839 100.352L70.7719 98.528C71.2759 99.152 71.8279 99.728 72.7639 99.728C73.8439 99.728 74.7079 98.888 74.8759 97.856C75.0679 96.632 74.2039 95.816 73.3399 94.928C72.4999 94.064 71.6359 93.104 71.8759 91.64C72.1639 89.792 73.6039 88.496 75.4519 88.496C76.2439 88.496 76.9159 88.808 77.4679 89.288ZM84.1476 89.288L83.8596 91.208H83.8116C83.4516 90.56 82.8276 89.96 81.9636 89.96C81.0276 89.96 80.3076 90.68 80.1636 91.592C79.9716 92.768 80.8836 93.488 81.7236 94.304C82.6116 95.144 83.4516 96.056 83.1876 97.664C82.8756 99.632 81.3156 101.192 79.2756 101.192C78.5076 101.192 77.6916 100.832 77.1636 100.352L77.4516 98.528C77.9556 99.152 78.5076 99.728 79.4436 99.728C80.5236 99.728 81.3876 98.888 81.5556 97.856C81.7476 96.632 80.8836 95.816 80.0196 94.928C79.1796 94.064 78.3156 93.104 78.5556 91.64C78.8436 89.792 80.2836 88.496 82.1316 88.496C82.9236 88.496 83.5956 88.808 84.1476 89.288ZM86.6753 93.848H90.2513L90.2753 93.632C90.3953 92.456 90.7553 89.96 89.1233 89.96C87.6353 89.96 86.8433 92.744 86.6753 93.848ZM91.6193 95.168H86.4353L86.3873 95.528C86.1953 96.752 85.9313 99.728 87.6353 99.728C89.0033 99.728 89.5073 97.808 89.6753 96.824H91.2833C90.9473 98.696 89.8433 101.192 87.5633 101.192C84.3233 101.192 84.4913 97.352 84.8753 94.88C85.2353 92.672 86.3873 88.496 89.3633 88.496C92.2433 88.496 92.0993 92.264 91.7393 94.424L91.6193 95.168ZM99.0539 89.288L98.7659 91.208H98.7179C98.3579 90.56 97.7339 89.96 96.8699 89.96C95.9339 89.96 95.2139 90.68 95.0699 91.592C94.8779 92.768 95.7899 93.488 96.6299 94.304C97.5179 95.144 98.3579 96.056 98.0939 97.664C97.7819 99.632 96.2219 101.192 94.1819 101.192C93.4139 101.192 92.5979 100.832 92.0699 100.352L92.3579 98.528C92.8619 99.152 93.4139 99.728 94.3499 99.728C95.4299 99.728 96.2939 98.888 96.4619 97.856C96.6539 96.632 95.7899 95.816 94.9259 94.928C94.0859 94.064 93.2219 93.104 93.4619 91.64C93.7499 89.792 95.1899 88.496 97.0379 88.496C97.8299 88.496 98.5019 88.808 99.0539 89.288ZM113.078 82.904L112.838 84.44H108.83L107.822 90.824H111.71L111.47 92.36H107.582L106.454 99.464H110.462L110.222 101H104.534L107.39 82.904H113.078ZM115.787 88.688L115.643 89.672C116.387 88.952 117.299 88.496 118.259 88.496C120.443 88.496 120.299 90.512 120.035 92.192L118.643 101H117.083L118.451 92.36C118.691 90.896 118.763 89.768 117.467 89.768C115.691 89.768 115.307 91.712 115.115 93.008L113.843 101H112.283L114.227 88.688H115.787ZM122.998 95.048C122.782 96.392 122.23 99.728 124.198 99.728C125.854 99.728 126.31 97.304 126.742 94.616C127.102 92.36 127.366 89.768 125.662 89.768C124.534 89.768 123.718 90.536 122.998 95.048ZM129.094 88.688L127.078 101.456C126.718 103.76 126.286 105.896 123.166 105.896C121.006 105.896 120.19 104.6 120.526 102.488L120.598 102.032H122.134L122.11 102.248C121.918 103.4 122.062 104.432 123.406 104.432C125.158 104.432 125.254 102.896 125.47 101.576L125.71 100.136C125.086 100.736 124.39 101 123.574 101C120.502 101 121.126 96.752 121.462 94.568C121.798 92.504 122.686 88.496 125.542 88.496C126.382 88.496 127.006 88.88 127.366 89.528H127.414L127.534 88.688H129.094ZM133.907 81.8L130.859 101H129.299L132.347 81.8H133.907ZM136.553 88.688L134.609 101H133.049L134.993 88.688H136.553ZM137.513 85.04C137.417 85.688 136.817 86.216 136.193 86.216C135.545 86.216 135.089 85.688 135.185 85.04C135.281 84.416 135.905 83.888 136.553 83.888C137.177 83.888 137.609 84.416 137.513 85.04ZM143.327 89.288L143.039 91.208H142.991C142.631 90.56 142.007 89.96 141.143 89.96C140.207 89.96 139.487 90.68 139.343 91.592C139.151 92.768 140.063 93.488 140.903 94.304C141.791 95.144 142.631 96.056 142.367 97.664C142.055 99.632 140.495 101.192 138.455 101.192C137.687 101.192 136.871 100.832 136.343 100.352L136.631 98.528C137.135 99.152 137.687 99.728 138.623 99.728C139.703 99.728 140.567 98.888 140.735 97.856C140.927 96.632 140.063 95.816 139.199 94.928C138.359 94.064 137.495 93.104 137.735 91.64C138.023 89.792 139.463 88.496 141.311 88.496C142.103 88.496 142.775 88.808 143.327 89.288ZM148.063 81.8L146.815 89.672C147.559 88.952 148.471 88.496 149.431 88.496C151.687 88.496 151.495 90.464 151.207 92.192L149.815 101H148.255L149.599 92.456C149.911 90.536 149.815 89.768 148.639 89.768C146.863 89.768 146.479 91.712 146.287 93.008L145.015 101H143.455L146.503 81.8H148.063ZM161.586 81.8L158.538 101H156.978L160.026 81.8H161.586ZM166.513 94.64C166.945 91.976 167.089 89.768 165.553 89.768C163.825 89.768 163.297 92.504 162.961 94.592C162.169 99.68 162.961 99.92 163.873 99.92C165.385 99.92 165.889 98.504 166.513 94.64ZM168.865 88.688L166.921 101H165.361L165.505 100.04H165.457C164.905 100.736 164.137 101.192 163.249 101.192C161.281 101.192 160.489 100.088 161.329 94.712C161.785 91.952 162.433 88.496 165.409 88.496C166.273 88.496 166.753 88.856 167.137 89.528H167.185L167.305 88.688H168.865ZM172.576 88.688L172.432 89.672C173.176 88.952 174.088 88.496 175.048 88.496C177.232 88.496 177.088 90.512 176.824 92.192L175.432 101H173.872L175.24 92.36C175.48 90.896 175.552 89.768 174.256 89.768C172.48 89.768 172.096 91.712 171.904 93.008L170.632 101H169.072L171.016 88.688H172.576ZM179.787 95.048C179.571 96.392 179.019 99.728 180.987 99.728C182.643 99.728 183.099 97.304 183.531 94.616C183.891 92.36 184.155 89.768 182.451 89.768C181.323 89.768 180.507 90.536 179.787 95.048ZM185.883 88.688L183.867 101.456C183.507 103.76 183.075 105.896 179.955 105.896C177.795 105.896 176.979 104.6 177.315 102.488L177.387 102.032H178.923L178.899 102.248C178.707 103.4 178.851 104.432 180.195 104.432C181.947 104.432 182.043 102.896 182.259 101.576L182.499 100.136C181.875 100.736 181.179 101 180.363 101C177.291 101 177.915 96.752 178.251 94.568C178.587 92.504 179.475 88.496 182.331 88.496C183.171 88.496 183.795 88.88 184.155 89.528H184.203L184.323 88.688H185.883ZM187.936 88.688H189.496L188.272 96.416C188.008 98.096 187.84 99.728 189.376 99.728C190.96 99.728 191.296 98.096 191.584 96.416L192.808 88.688H194.368L192.952 97.736C192.616 99.8 191.392 101.192 189.184 101.192C187 101.192 186.184 99.824 186.52 97.736L187.936 88.688ZM200.286 94.64C200.718 91.976 200.862 89.768 199.326 89.768C197.598 89.768 197.07 92.504 196.734 94.592C195.942 99.68 196.734 99.92 197.646 99.92C199.158 99.92 199.662 98.504 200.286 94.64ZM202.638 88.688L200.694 101H199.134L199.278 100.04H199.23C198.678 100.736 197.91 101.192 197.022 101.192C195.054 101.192 194.262 100.088 195.102 94.712C195.558 91.952 196.206 88.496 199.182 88.496C200.046 88.496 200.526 88.856 200.91 89.528H200.958L201.078 88.688H202.638ZM205.03 95.048C204.814 96.392 204.262 99.728 206.23 99.728C207.886 99.728 208.342 97.304 208.774 94.616C209.134 92.36 209.398 89.768 207.694 89.768C206.566 89.768 205.75 90.536 205.03 95.048ZM211.126 88.688L209.11 101.456C208.75 103.76 208.318 105.896 205.198 105.896C203.038 105.896 202.222 104.6 202.558 102.488L202.63 102.032H204.166L204.142 102.248C203.95 103.4 204.094 104.432 205.438 104.432C207.19 104.432 207.286 102.896 207.502 101.576L207.742 100.136C207.118 100.736 206.422 101 205.606 101C202.534 101 203.158 96.752 203.494 94.568C203.83 92.504 204.718 88.496 207.574 88.496C208.414 88.496 209.038 88.88 209.398 89.528H209.446L209.566 88.688H211.126ZM213.73 93.848H217.306L217.33 93.632C217.45 92.456 217.81 89.96 216.178 89.96C214.69 89.96 213.898 92.744 213.73 93.848ZM218.674 95.168H213.49L213.442 95.528C213.25 96.752 212.986 99.728 214.69 99.728C216.058 99.728 216.562 97.808 216.73 96.824H218.338C218.002 98.696 216.898 101.192 214.618 101.192C211.378 101.192 211.546 97.352 211.93 94.88C212.29 92.672 213.442 88.496 216.418 88.496C219.298 88.496 219.154 92.264 218.794 94.424L218.674 95.168ZM227.933 99.92C229.373 99.92 229.901 98.504 230.501 94.712C230.813 92.816 231.269 89.768 229.469 89.768C227.813 89.768 227.333 92.312 226.997 94.496C226.613 96.872 226.229 99.92 227.933 99.92ZM228.053 88.688L227.933 89.528H227.981C228.557 88.856 229.181 88.496 230.069 88.496C232.925 88.496 232.517 92.216 232.109 94.712C231.677 97.496 231.029 101.192 228.173 101.192C227.285 101.192 226.661 100.736 226.301 100.04H226.253L225.365 105.704H223.805L226.493 88.688H228.053ZM236.42 88.688L236.156 90.32H236.204C236.684 89.456 237.524 88.472 238.556 88.496L238.244 90.32L237.956 90.296C236.348 90.296 235.916 91.856 235.604 93.824L234.476 101H232.916L234.86 88.688H236.42ZM242.857 88.496C246.097 88.496 245.737 92.528 245.377 94.832C244.993 97.16 244.081 101.192 240.841 101.192C237.601 101.192 237.937 97.16 238.321 94.832C238.681 92.528 239.617 88.496 242.857 88.496ZM242.617 89.96C240.745 89.96 240.097 93.656 239.929 94.832C239.737 96.032 239.185 99.728 241.057 99.728C242.929 99.728 243.577 96.032 243.769 94.832C243.937 93.656 244.489 89.96 242.617 89.96ZM252.012 88.688L251.796 90.128H249.756L248.028 101H246.468L248.196 90.128H246.876L247.092 88.688H248.412L248.988 85.04C249.348 82.88 250.092 81.608 251.844 81.608C252.3 81.608 252.78 81.68 253.164 81.872L252.9 83.576C252.612 83.312 252.3 83.048 251.844 83.048C250.98 83.048 250.74 83.84 250.548 85.016L249.972 88.688H252.012ZM254.724 88.688L252.78 101H251.22L253.164 88.688H254.724ZM255.684 85.04C255.588 85.688 254.988 86.216 254.364 86.216C253.716 86.216 253.26 85.688 253.356 85.04C253.452 84.416 254.076 83.888 254.724 83.888C255.348 83.888 255.78 84.416 255.684 85.04ZM261.787 88.976L261.499 90.776C261.187 90.368 260.755 89.96 260.155 89.96C258.139 89.96 257.395 93.464 257.155 94.88C256.963 96.104 256.651 99.728 258.499 99.728C259.219 99.728 259.771 99.176 260.227 98.624H260.275L259.963 100.568C259.435 100.952 258.691 101.192 258.091 101.192C255.259 101.192 255.187 97.208 255.523 95.096C255.883 92.768 257.059 88.496 260.179 88.496C260.755 88.496 261.331 88.664 261.787 88.976ZM265.131 88.688L263.187 101H261.627L263.571 88.688H265.131ZM266.091 85.04C265.995 85.688 265.395 86.216 264.771 86.216C264.123 86.216 263.667 85.688 263.763 85.04C263.859 84.416 264.483 83.888 265.131 83.888C265.755 83.888 266.187 84.416 266.091 85.04ZM267.753 93.848H271.329L271.353 93.632C271.473 92.456 271.833 89.96 270.201 89.96C268.713 89.96 267.921 92.744 267.753 93.848ZM272.697 95.168H267.513L267.465 95.528C267.273 96.752 267.009 99.728 268.713 99.728C270.081 99.728 270.585 97.808 270.753 96.824H272.361C272.025 98.696 270.921 101.192 268.641 101.192C265.401 101.192 265.569 97.352 265.953 94.88C266.313 92.672 267.465 88.496 270.441 88.496C273.321 88.496 273.177 92.264 272.817 94.424L272.697 95.168ZM277.084 88.688L276.94 89.672C277.684 88.952 278.596 88.496 279.556 88.496C281.74 88.496 281.596 90.512 281.332 92.192L279.94 101H278.38L279.748 92.36C279.988 90.896 280.06 89.768 278.764 89.768C276.988 89.768 276.604 91.712 276.412 93.008L275.14 101H273.58L275.524 88.688H277.084ZM288.951 88.976L288.663 90.776C288.351 90.368 287.919 89.96 287.319 89.96C285.303 89.96 284.559 93.464 284.319 94.88C284.127 96.104 283.815 99.728 285.663 99.728C286.383 99.728 286.935 99.176 287.391 98.624H287.439L287.127 100.568C286.599 100.952 285.855 101.192 285.255 101.192C282.423 101.192 282.351 97.208 282.687 95.096C283.047 92.768 284.223 88.496 287.343 88.496C287.919 88.496 288.495 88.664 288.951 88.976ZM297.431 88.688L290.495 105.704H288.863L290.879 100.664L289.847 88.688H291.431L291.935 98.624H292.007C292.391 97.568 292.751 96.512 293.159 95.456L295.799 88.688H297.431ZM307.536 88.688L307.32 90.128H305.28L303.552 101H301.992L303.72 90.128H302.4L302.616 88.688H303.936L304.512 85.064C304.848 82.976 305.616 81.608 307.368 81.608C307.824 81.608 308.304 81.68 308.688 81.872L308.424 83.576C308.136 83.312 307.824 83.048 307.368 83.048C306.504 83.048 306.288 83.792 306.072 85.016L305.496 88.688H307.536ZM311.904 88.496C315.144 88.496 314.784 92.528 314.424 94.832C314.04 97.16 313.128 101.192 309.888 101.192C306.648 101.192 306.984 97.16 307.368 94.832C307.728 92.528 308.664 88.496 311.904 88.496ZM311.664 89.96C309.792 89.96 309.144 93.656 308.976 94.832C308.784 96.032 308.232 99.728 310.104 99.728C311.976 99.728 312.624 96.032 312.816 94.832C312.984 93.656 313.536 89.96 311.664 89.96ZM318.779 88.688L318.515 90.32H318.563C319.043 89.456 319.883 88.472 320.915 88.496L320.603 90.32L320.315 90.296C318.707 90.296 318.275 91.856 317.963 93.824L316.835 101H315.275L317.219 88.688H318.779ZM66.1934 117.688L66.0494 118.672C66.7934 117.952 67.7054 117.496 68.6654 117.496C70.8494 117.496 70.7054 119.512 70.4414 121.192L69.0494 130H67.4894L68.8574 121.36C69.0974 119.896 69.1694 118.768 67.8734 118.768C66.0974 118.768 65.7134 120.712 65.5214 122.008L64.2494 130H62.6894L64.6334 117.688H66.1934ZM76.3806 117.496C79.6206 117.496 79.2606 121.528 78.9006 123.832C78.5166 126.16 77.6046 130.192 74.3646 130.192C71.1246 130.192 71.4606 126.16 71.8446 123.832C72.2046 121.528 73.1406 117.496 76.3806 117.496ZM76.1406 118.96C74.2686 118.96 73.6206 122.656 73.4526 123.832C73.2606 125.032 72.7086 128.728 74.5806 128.728C76.4526 128.728 77.1006 125.032 77.2926 123.832C77.4606 122.656 78.0126 118.96 76.1406 118.96ZM83.2559 117.688L83.1119 118.672C83.8559 117.952 84.7679 117.496 85.7279 117.496C87.9119 117.496 87.7679 119.512 87.5039 121.192L86.1119 130H84.5519L85.9199 121.36C86.1599 119.896 86.2319 118.768 84.9359 118.768C83.1599 118.768 82.7759 120.712 82.5839 122.008L81.3119 130H79.7519L81.6959 117.688H83.2559ZM88.2591 123.28L88.5711 121.384H92.3151L92.0031 123.28H88.2591ZM95.5371 117.688L95.3931 118.672C96.1371 117.952 97.0491 117.496 98.0091 117.496C100.193 117.496 100.049 119.512 99.7851 121.192L98.3931 130H96.8331L98.2011 121.36C98.4411 119.896 98.5131 118.768 97.2171 118.768C95.4411 118.768 95.0571 120.712 94.8651 122.008L93.5931 130H92.0331L93.9771 117.688H95.5371ZM106.372 123.64C106.804 120.976 106.948 118.768 105.412 118.768C103.684 118.768 103.156 121.504 102.82 123.592C102.028 128.68 102.82 128.92 103.732 128.92C105.244 128.92 105.748 127.504 106.372 123.64ZM108.724 117.688L106.78 130H105.22L105.364 129.04H105.316C104.764 129.736 103.996 130.192 103.108 130.192C101.14 130.192 100.348 129.088 101.188 123.712C101.644 120.952 102.292 117.496 105.268 117.496C106.132 117.496 106.612 117.856 106.996 118.528H107.044L107.164 117.688H108.724ZM115.124 117.688L114.908 119.128H112.868L111.14 130H109.58L111.308 119.128H109.988L110.204 117.688H111.524L112.052 114.328H113.612L113.084 117.688H115.124ZM117.498 117.688L115.554 130H113.994L115.938 117.688H117.498ZM118.458 114.04C118.362 114.688 117.762 115.216 117.138 115.216C116.49 115.216 116.034 114.688 116.13 114.04C116.226 113.416 116.85 112.888 117.498 112.888C118.122 112.888 118.554 113.416 118.458 114.04ZM126.001 117.688L121.321 130H119.641L118.777 117.688H120.361L120.721 125.392C120.769 126.16 120.769 126.928 120.817 127.696H120.913C121.129 126.928 121.369 126.136 121.609 125.392L124.393 117.688H126.001ZM127.714 122.848H131.29L131.314 122.632C131.434 121.456 131.794 118.96 130.162 118.96C128.674 118.96 127.882 121.744 127.714 122.848ZM132.658 124.168H127.474L127.426 124.528C127.234 125.752 126.97 128.728 128.674 128.728C130.042 128.728 130.546 126.808 130.714 125.824H132.322C131.986 127.696 130.882 130.192 128.602 130.192C125.362 130.192 125.53 126.352 125.914 123.88C126.274 121.672 127.426 117.496 130.402 117.496C133.282 117.496 133.138 121.264 132.778 123.424L132.658 124.168ZM145.085 118.288L144.797 120.208H144.749C144.389 119.56 143.765 118.96 142.901 118.96C141.965 118.96 141.245 119.68 141.101 120.592C140.909 121.768 141.821 122.488 142.661 123.304C143.549 124.144 144.389 125.056 144.125 126.664C143.813 128.632 142.253 130.192 140.213 130.192C139.445 130.192 138.629 129.832 138.101 129.352L138.389 127.528C138.893 128.152 139.445 128.728 140.381 128.728C141.461 128.728 142.325 127.888 142.493 126.856C142.685 125.632 141.821 124.816 140.957 123.928C140.117 123.064 139.253 122.104 139.493 120.64C139.781 118.792 141.221 117.496 143.069 117.496C143.861 117.496 144.533 117.808 145.085 118.288ZM148.597 128.92C150.037 128.92 150.565 127.504 151.165 123.712C151.477 121.816 151.933 118.768 150.133 118.768C148.477 118.768 147.997 121.312 147.661 123.496C147.277 125.872 146.893 128.92 148.597 128.92ZM148.717 117.688L148.597 118.528H148.645C149.221 117.856 149.845 117.496 150.733 117.496C153.589 117.496 153.181 121.216 152.773 123.712C152.341 126.496 151.693 130.192 148.837 130.192C147.949 130.192 147.325 129.736 146.965 129.04H146.917L146.029 134.704H144.469L147.157 117.688H148.717ZM155.98 122.848H159.556L159.58 122.632C159.7 121.456 160.06 118.96 158.428 118.96C156.94 118.96 156.148 121.744 155.98 122.848ZM160.924 124.168H155.74L155.692 124.528C155.5 125.752 155.236 128.728 156.94 128.728C158.308 128.728 158.812 126.808 158.98 125.824H160.588C160.252 127.696 159.148 130.192 156.868 130.192C153.628 130.192 153.796 126.352 154.18 123.88C154.54 121.672 155.692 117.496 158.668 117.496C161.548 117.496 161.404 121.264 161.044 123.424L160.924 124.168ZM167.615 123.64C168.047 120.976 168.191 118.768 166.655 118.768C164.927 118.768 164.399 121.504 164.063 123.592C163.271 128.68 164.063 128.92 164.975 128.92C166.487 128.92 166.991 127.504 167.615 123.64ZM169.967 117.688L168.023 130H166.463L166.607 129.04H166.559C166.007 129.736 165.239 130.192 164.351 130.192C162.383 130.192 161.591 129.088 162.431 123.712C162.887 120.952 163.535 117.496 166.511 117.496C167.375 117.496 167.855 117.856 168.239 118.528H168.287L168.407 117.688H169.967ZM174.782 110.8L172.886 122.68H172.934L176.726 117.688H178.502L173.966 123.208L177.518 130H175.574L172.718 124.096H172.67L171.734 130H170.174L173.222 110.8H174.782ZM180.707 122.848H184.283L184.307 122.632C184.427 121.456 184.787 118.96 183.155 118.96C181.667 118.96 180.875 121.744 180.707 122.848ZM185.651 124.168H180.467L180.419 124.528C180.227 125.752 179.963 128.728 181.667 128.728C183.035 128.728 183.539 126.808 183.707 125.824H185.315C184.979 127.696 183.875 130.192 181.595 130.192C178.355 130.192 178.523 126.352 178.907 123.88C179.267 121.672 180.419 117.496 183.395 117.496C186.275 117.496 186.131 121.264 185.771 123.424L185.651 124.168ZM190.037 117.688L189.773 119.32H189.821C190.301 118.456 191.141 117.472 192.173 117.496L191.861 119.32L191.573 119.296C189.965 119.296 189.533 120.856 189.221 122.824L188.093 130H186.533L188.477 117.688H190.037ZM198.007 118.288L197.719 120.208H197.671C197.311 119.56 196.687 118.96 195.823 118.96C194.887 118.96 194.167 119.68 194.023 120.592C193.831 121.768 194.743 122.488 195.583 123.304C196.471 124.144 197.311 125.056 197.047 126.664C196.735 128.632 195.175 130.192 193.135 130.192C192.367 130.192 191.551 129.832 191.023 129.352L191.311 127.528C191.815 128.152 192.367 128.728 193.303 128.728C194.383 128.728 195.247 127.888 195.415 126.856C195.607 125.632 194.743 124.816 193.879 123.928C193.039 123.064 192.175 122.104 192.415 120.64C192.703 118.792 194.143 117.496 195.991 117.496C196.783 117.496 197.455 117.808 198.007 118.288ZM199.911 127.744C200.583 127.744 201.039 128.296 200.943 128.968C200.823 129.64 200.199 130.192 199.527 130.192C198.855 130.192 198.375 129.64 198.495 128.968C198.591 128.296 199.239 127.744 199.911 127.744ZM222.975 111.904L216.927 130H215.391L215.487 117.808C215.511 117.184 215.655 115.84 215.751 114.856H215.655C215.391 115.84 215.103 117.208 214.911 117.808L210.879 130H209.343L209.319 111.904H211.047L210.759 124C210.735 124.888 210.663 125.8 210.615 126.688H210.711C210.975 125.8 211.191 124.888 211.479 124L215.463 111.904H216.903L216.735 124C216.711 124.888 216.687 125.8 216.663 126.688H216.759C216.999 125.8 217.215 124.888 217.503 124L221.271 111.904H222.975ZM223.761 122.848H227.337L227.361 122.632C227.481 121.456 227.841 118.96 226.209 118.96C224.721 118.96 223.929 121.744 223.761 122.848ZM228.705 124.168H223.521L223.473 124.528C223.281 125.752 223.017 128.728 224.721 128.728C226.089 128.728 226.593 126.808 226.761 125.824H228.369C228.033 127.696 226.929 130.192 224.649 130.192C221.409 130.192 221.577 126.352 221.961 123.88C222.321 121.672 223.473 117.496 226.449 117.496C229.329 117.496 229.185 121.264 228.825 123.424L228.705 124.168ZM236.764 124.048C236.548 125.392 235.996 128.728 237.964 128.728C239.62 128.728 240.076 126.304 240.508 123.616C240.868 121.36 241.132 118.768 239.428 118.768C238.3 118.768 237.484 119.536 236.764 124.048ZM242.86 117.688L240.844 130.456C240.484 132.76 240.052 134.896 236.932 134.896C234.772 134.896 233.956 133.6 234.292 131.488L234.364 131.032H235.9L235.876 131.248C235.684 132.4 235.828 133.432 237.172 133.432C238.924 133.432 239.02 131.896 239.236 130.576L239.476 129.136C238.852 129.736 238.156 130 237.34 130C234.268 130 234.892 125.752 235.228 123.568C235.564 121.504 236.452 117.496 239.308 117.496C240.148 117.496 240.772 117.88 241.132 118.528H241.18L241.3 117.688H242.86ZM244.912 117.688H246.472L245.248 125.416C244.984 127.096 244.816 128.728 246.352 128.728C247.936 128.728 248.272 127.096 248.56 125.416L249.784 117.688H251.344L249.928 126.736C249.592 128.8 248.368 130.192 246.16 130.192C243.976 130.192 243.16 128.824 243.496 126.736L244.912 117.688ZM254.959 117.688L253.015 130H251.455L253.399 117.688H254.959ZM255.919 114.04C255.823 114.688 255.223 115.216 254.599 115.216C253.951 115.216 253.495 114.688 253.591 114.04C253.687 113.416 254.311 112.888 254.959 112.888C255.583 112.888 256.015 113.416 255.919 114.04ZM260.99 123.64C261.446 120.832 261.47 118.768 260.03 118.768C258.278 118.768 257.726 121.84 257.438 123.592C257.27 124.744 256.358 128.92 258.35 128.92C260.006 128.92 260.486 126.88 260.99 123.64ZM259.838 130L259.982 129.04H259.934C259.382 129.736 258.614 130.192 257.726 130.192C255.158 130.192 255.278 127.072 255.806 123.712C256.358 120.352 257.15 117.496 259.886 117.496C260.75 117.496 261.23 117.856 261.614 118.528H261.662L262.886 110.8H264.446L261.398 130H259.838ZM265.949 122.848H269.525L269.549 122.632C269.669 121.456 270.029 118.96 268.397 118.96C266.909 118.96 266.117 121.744 265.949 122.848ZM270.893 124.168H265.709L265.661 124.528C265.469 125.752 265.205 128.728 266.909 128.728C268.277 128.728 268.781 126.808 268.949 125.824H270.557C270.221 127.696 269.117 130.192 266.837 130.192C263.597 130.192 263.765 126.352 264.149 123.88C264.509 121.672 265.661 117.496 268.637 117.496C271.517 117.496 271.373 121.264 271.013 123.424L270.893 124.168ZM281.787 117.496C285.027 117.496 284.667 121.528 284.307 123.832C283.923 126.16 283.011 130.192 279.771 130.192C276.531 130.192 276.867 126.16 277.251 123.832C277.611 121.528 278.547 117.496 281.787 117.496ZM281.547 118.96C279.675 118.96 279.027 122.656 278.859 123.832C278.667 125.032 278.115 128.728 279.987 128.728C281.859 128.728 282.507 125.032 282.699 123.832C282.867 122.656 283.419 118.96 281.547 118.96ZM287.006 117.688H288.566L287.342 125.416C287.078 127.096 286.91 128.728 288.446 128.728C290.03 128.728 290.366 127.096 290.654 125.416L291.878 117.688H293.438L292.022 126.736C291.686 128.8 290.462 130.192 288.254 130.192C286.07 130.192 285.254 128.824 285.59 126.736L287.006 117.688ZM297.053 117.688L296.789 119.32H296.837C297.317 118.456 298.157 117.472 299.189 117.496L298.877 119.32L298.589 119.296C296.981 119.296 296.549 120.856 296.237 122.824L295.109 130H293.549L295.493 117.688H297.053ZM68.2982 152.64C68.7302 149.976 68.8742 147.768 67.3382 147.768C65.6102 147.768 65.0822 150.504 64.7462 152.592C63.9542 157.68 64.7462 157.92 65.6582 157.92C67.1702 157.92 67.6742 156.504 68.2982 152.64ZM70.6502 146.688L68.7062 159H67.1462L67.2902 158.04H67.2422C66.6902 158.736 65.9222 159.192 65.0342 159.192C63.0662 159.192 62.2742 158.088 63.1142 152.712C63.5702 149.952 64.2182 146.496 67.1942 146.496C68.0582 146.496 68.5382 146.856 68.9222 147.528H68.9702L69.0902 146.688H70.6502ZM74.2413 157.92C75.6813 157.92 76.2093 156.504 76.8093 152.712C77.1213 150.816 77.5773 147.768 75.7773 147.768C74.1213 147.768 73.6413 150.312 73.3053 152.496C72.9213 154.872 72.5373 157.92 74.2413 157.92ZM74.3613 146.688L74.2413 147.528H74.2893C74.8653 146.856 75.4893 146.496 76.3773 146.496C79.2333 146.496 78.8253 150.216 78.4173 152.712C77.9853 155.496 77.3373 159.192 74.4813 159.192C73.5933 159.192 72.9693 158.736 72.6093 158.04H72.5613L71.6733 163.704H70.1133L72.8013 146.688H74.3613ZM82.6085 157.92C84.0485 157.92 84.5765 156.504 85.1765 152.712C85.4885 150.816 85.9445 147.768 84.1445 147.768C82.4885 147.768 82.0085 150.312 81.6725 152.496C81.2885 154.872 80.9045 157.92 82.6085 157.92ZM82.7285 146.688L82.6085 147.528H82.6565C83.2325 146.856 83.8565 146.496 84.7445 146.496C87.6005 146.496 87.1925 150.216 86.7845 152.712C86.3525 155.496 85.7045 159.192 82.8485 159.192C81.9605 159.192 81.3365 158.736 80.9765 158.04H80.9285L80.0405 163.704H78.4805L81.1685 146.688H82.7285ZM92.1997 139.8L89.1517 159H87.5917L90.6397 139.8H92.1997ZM94.8457 146.688L92.9017 159H91.3417L93.2857 146.688H94.8457ZM95.8057 143.04C95.7097 143.688 95.1097 144.216 94.4857 144.216C93.8377 144.216 93.3817 143.688 93.4777 143.04C93.5737 142.416 94.1977 141.888 94.8457 141.888C95.4697 141.888 95.9017 142.416 95.8057 143.04ZM101.908 146.976L101.62 148.776C101.308 148.368 100.876 147.96 100.276 147.96C98.2603 147.96 97.5163 151.464 97.2763 152.88C97.0843 154.104 96.7723 157.728 98.6203 157.728C99.3403 157.728 99.8923 157.176 100.348 156.624H100.396L100.084 158.568C99.5563 158.952 98.8123 159.192 98.2123 159.192C95.3803 159.192 95.3083 155.208 95.6443 153.096C96.0043 150.768 97.1803 146.496 100.3 146.496C100.876 146.496 101.452 146.664 101.908 146.976ZM107.556 152.64C107.988 149.976 108.132 147.768 106.596 147.768C104.868 147.768 104.34 150.504 104.004 152.592C103.212 157.68 104.004 157.92 104.916 157.92C106.428 157.92 106.932 156.504 107.556 152.64ZM109.908 146.688L107.964 159H106.404L106.548 158.04H106.5C105.948 158.736 105.18 159.192 104.292 159.192C102.324 159.192 101.532 158.088 102.372 152.712C102.828 149.952 103.476 146.496 106.452 146.496C107.316 146.496 107.796 146.856 108.18 147.528H108.228L108.348 146.688H109.908ZM113.619 146.688L113.475 147.672C114.219 146.952 115.131 146.496 116.091 146.496C118.275 146.496 118.131 148.512 117.867 150.192L116.475 159H114.915L116.283 150.36C116.523 148.896 116.595 147.768 115.299 147.768C113.523 147.768 113.139 149.712 112.947 151.008L111.675 159H110.115L112.059 146.688H113.619ZM124.838 146.688L124.622 148.128H122.582L120.854 159H119.294L121.022 148.128H119.702L119.918 146.688H121.238L121.766 143.328H123.326L122.798 146.688H124.838ZM130.237 147.288L129.949 149.208H129.901C129.541 148.56 128.917 147.96 128.053 147.96C127.117 147.96 126.397 148.68 126.253 149.592C126.061 150.768 126.973 151.488 127.813 152.304C128.701 153.144 129.541 154.056 129.277 155.664C128.965 157.632 127.405 159.192 125.365 159.192C124.597 159.192 123.781 158.832 123.253 158.352L123.541 156.528C124.045 157.152 124.597 157.728 125.533 157.728C126.613 157.728 127.477 156.888 127.645 155.856C127.837 154.632 126.973 153.816 126.109 152.928C125.269 152.064 124.405 151.104 124.645 149.64C124.933 147.792 126.373 146.496 128.221 146.496C129.013 146.496 129.685 146.808 130.237 147.288ZM141.549 146.688L141.333 148.128H139.293L137.565 159H136.005L137.733 148.128H136.413L136.629 146.688H137.949L138.477 143.328H140.037L139.509 146.688H141.549ZM145.028 139.8L143.78 147.672C144.524 146.952 145.436 146.496 146.396 146.496C148.652 146.496 148.46 148.464 148.172 150.192L146.78 159H145.22L146.564 150.456C146.876 148.536 146.78 147.768 145.604 147.768C143.828 147.768 143.444 149.712 143.252 151.008L141.98 159H140.42L143.468 139.8H145.028ZM152.455 146.688L152.191 148.32H152.239C152.719 147.456 153.559 146.472 154.591 146.496L154.279 148.32L153.991 148.296C152.383 148.296 151.951 149.856 151.639 151.824L150.511 159H148.951L150.895 146.688H152.455ZM158.892 146.496C162.132 146.496 161.772 150.528 161.412 152.832C161.028 155.16 160.116 159.192 156.876 159.192C153.636 159.192 153.972 155.16 154.356 152.832C154.716 150.528 155.652 146.496 158.892 146.496ZM158.652 147.96C156.78 147.96 156.132 151.656 155.964 152.832C155.772 154.032 155.22 157.728 157.092 157.728C158.964 157.728 159.612 154.032 159.804 152.832C159.972 151.656 160.524 147.96 158.652 147.96ZM164.112 146.688H165.672L164.448 154.416C164.184 156.096 164.016 157.728 165.552 157.728C167.136 157.728 167.472 156.096 167.76 154.416L168.984 146.688H170.544L169.128 155.736C168.792 157.8 167.568 159.192 165.36 159.192C163.176 159.192 162.36 157.824 162.696 155.736L164.112 146.688ZM172.838 153.048C172.622 154.392 172.07 157.728 174.038 157.728C175.694 157.728 176.15 155.304 176.582 152.616C176.942 150.36 177.206 147.768 175.502 147.768C174.374 147.768 173.558 148.536 172.838 153.048ZM178.934 146.688L176.918 159.456C176.558 161.76 176.126 163.896 173.006 163.896C170.846 163.896 170.03 162.6 170.366 160.488L170.438 160.032H171.974L171.95 160.248C171.758 161.4 171.902 162.432 173.246 162.432C174.998 162.432 175.094 160.896 175.31 159.576L175.55 158.136C174.926 158.736 174.23 159 173.414 159C170.342 159 170.966 154.752 171.302 152.568C171.638 150.504 172.526 146.496 175.382 146.496C176.222 146.496 176.846 146.88 177.206 147.528H177.254L177.374 146.688H178.934ZM183.747 139.8L182.499 147.672C183.243 146.952 184.155 146.496 185.115 146.496C187.371 146.496 187.179 148.464 186.891 150.192L185.499 159H183.939L185.283 150.456C185.595 148.536 185.499 147.768 184.323 147.768C182.547 147.768 182.163 149.712 181.971 151.008L180.699 159H179.139L182.187 139.8H183.747ZM198.854 146.688L198.638 148.128H196.598L194.87 159H193.31L195.038 148.128H193.718L193.934 146.688H195.254L195.782 143.328H197.342L196.814 146.688H198.854ZM202.333 139.8L201.085 147.672C201.829 146.952 202.741 146.496 203.701 146.496C205.957 146.496 205.765 148.464 205.477 150.192L204.085 159H202.525L203.869 150.456C204.181 148.536 204.085 147.768 202.909 147.768C201.133 147.768 200.749 149.712 200.557 151.008L199.285 159H197.725L200.773 139.8H202.333ZM208.656 151.848H212.232L212.256 151.632C212.376 150.456 212.736 147.96 211.104 147.96C209.616 147.96 208.824 150.744 208.656 151.848ZM213.6 153.168H208.416L208.368 153.528C208.176 154.752 207.912 157.728 209.616 157.728C210.984 157.728 211.488 155.808 211.656 154.824H213.264C212.928 156.696 211.824 159.192 209.544 159.192C206.304 159.192 206.472 155.352 206.856 152.88C207.216 150.672 208.368 146.496 211.344 146.496C214.224 146.496 214.08 150.264 213.72 152.424L213.6 153.168ZM221.593 151.848H225.169L225.193 151.632C225.313 150.456 225.673 147.96 224.041 147.96C222.553 147.96 221.761 150.744 221.593 151.848ZM226.537 153.168H221.353L221.305 153.528C221.113 154.752 220.849 157.728 222.553 157.728C223.921 157.728 224.425 155.808 224.593 154.824H226.201C225.865 156.696 224.761 159.192 222.481 159.192C219.241 159.192 219.409 155.352 219.793 152.88C220.153 150.672 221.305 146.496 224.281 146.496C227.161 146.496 227.017 150.264 226.657 152.424L226.537 153.168ZM230.924 146.688L230.78 147.672C231.524 146.952 232.436 146.496 233.396 146.496C235.58 146.496 235.436 148.512 235.172 150.192L233.78 159H232.22L233.588 150.36C233.828 148.896 233.9 147.768 232.604 147.768C230.828 147.768 230.444 149.712 230.252 151.008L228.98 159H227.42L229.364 146.688H230.924ZM242.143 146.688L241.927 148.128H239.887L238.159 159H236.599L238.327 148.128H237.007L237.223 146.688H238.543L239.071 143.328H240.631L240.103 146.688H242.143ZM244.518 146.688L242.574 159H241.014L242.958 146.688H244.518ZM245.478 143.04C245.382 143.688 244.782 144.216 244.158 144.216C243.51 144.216 243.054 143.688 243.15 143.04C243.246 142.416 243.87 141.888 244.518 141.888C245.142 141.888 245.574 142.416 245.478 143.04ZM248.244 146.688L247.98 148.32H248.028C248.508 147.456 249.348 146.472 250.38 146.496L250.068 148.32L249.78 148.296C248.172 148.296 247.74 149.856 247.428 151.824L246.3 159H244.74L246.684 146.688H248.244ZM251.921 151.848H255.497L255.521 151.632C255.641 150.456 256.001 147.96 254.369 147.96C252.881 147.96 252.089 150.744 251.921 151.848ZM256.865 153.168H251.681L251.633 153.528C251.441 154.752 251.177 157.728 252.881 157.728C254.249 157.728 254.753 155.808 254.921 154.824H256.529C256.193 156.696 255.089 159.192 252.809 159.192C249.569 159.192 249.737 155.352 250.121 152.88C250.481 150.672 251.633 146.496 254.609 146.496C257.489 146.496 257.345 150.264 256.985 152.424L256.865 153.168ZM267.636 140.904L264.78 159H263.1L265.956 140.904H267.636ZM276.214 140.904L275.974 142.44H271.966L270.958 148.824H274.846L274.606 150.36H270.718L269.59 157.464H273.598L273.358 159H267.67L270.526 140.904H276.214ZM280.316 140.904L277.7 157.464H281.636L281.396 159H275.78L278.636 140.904H280.316ZM290.961 140.904L290.721 142.44H288.009L285.393 159H283.713L286.329 142.44H283.617L283.857 140.904H290.961ZM298.75 141.624L298.414 143.76C297.814 142.944 297.118 142.296 295.966 142.296C294.286 142.296 293.134 143.688 292.894 145.224C292.558 147.336 293.926 148.32 295.342 149.376C296.686 150.456 298.054 151.608 297.646 154.104C297.238 156.744 295.126 159.24 292.294 159.24C291.286 159.24 290.302 158.952 289.582 158.328L289.942 156.144C290.566 156.96 291.478 157.608 292.63 157.608C294.406 157.608 295.63 156.048 295.87 154.416C296.23 152.304 294.814 151.368 293.446 150.288C292.078 149.232 290.71 148.056 291.118 145.464C291.502 143.04 293.374 140.664 296.038 140.664C297.118 140.664 297.982 141.024 298.75 141.624ZM38.8273 186.92C40.2673 186.92 40.7953 185.504 41.3953 181.712C41.7073 179.816 42.1633 176.768 40.3633 176.768C38.7073 176.768 38.2273 179.312 37.8913 181.496C37.5073 183.872 37.1233 186.92 38.8273 186.92ZM38.9473 175.688L38.8273 176.528H38.8753C39.4513 175.856 40.0753 175.496 40.9633 175.496C43.8193 175.496 43.4113 179.216 43.0033 181.712C42.5713 184.496 41.9233 188.192 39.0673 188.192C38.1793 188.192 37.5553 187.736 37.1953 187.04H37.1473L36.2593 192.704H34.6993L37.3873 175.688H38.9473ZM47.3145 175.688L47.0505 177.32H47.0985C47.5785 176.456 48.4185 175.472 49.4505 175.496L49.1385 177.32L48.8505 177.296C47.2425 177.296 46.8105 178.856 46.4985 180.824L45.3705 188H43.8105L45.7545 175.688H47.3145ZM50.9917 180.848H54.5677L54.5917 180.632C54.7117 179.456 55.0717 176.96 53.4397 176.96C51.9517 176.96 51.1597 179.744 50.9917 180.848ZM55.9357 182.168H50.7517L50.7037 182.528C50.5117 183.752 50.2477 186.728 51.9517 186.728C53.3197 186.728 53.8237 184.808 53.9917 183.824H55.5997C55.2637 185.696 54.1597 188.192 51.8797 188.192C48.6397 188.192 48.8077 184.352 49.1917 181.88C49.5517 179.672 50.7037 175.496 53.6797 175.496C56.5597 175.496 56.4157 179.264 56.0557 181.424L55.9357 182.168ZM60.2023 186.92C61.6423 186.92 62.1703 185.504 62.7703 181.712C63.0823 179.816 63.5383 176.768 61.7383 176.768C60.0823 176.768 59.6023 179.312 59.2663 181.496C58.8823 183.872 58.4983 186.92 60.2023 186.92ZM60.3223 175.688L60.2023 176.528H60.2503C60.8263 175.856 61.4503 175.496 62.3383 175.496C65.1943 175.496 64.7863 179.216 64.3783 181.712C63.9463 184.496 63.2983 188.192 60.4423 188.192C59.5543 188.192 58.9303 187.736 58.5703 187.04H58.5223L57.6343 192.704H56.0743L58.7623 175.688H60.3223ZM70.9935 181.64C71.4255 178.976 71.5695 176.768 70.0335 176.768C68.3055 176.768 67.7775 179.504 67.4415 181.592C66.6495 186.68 67.4415 186.92 68.3535 186.92C69.8655 186.92 70.3695 185.504 70.9935 181.64ZM73.3455 175.688L71.4015 188H69.8415L69.9855 187.04H69.9375C69.3855 187.736 68.6175 188.192 67.7295 188.192C65.7615 188.192 64.9695 187.088 65.8095 181.712C66.2655 178.952 66.9135 175.496 69.8895 175.496C70.7535 175.496 71.2335 175.856 71.6175 176.528H71.6655L71.7855 175.688H73.3455ZM77.0567 175.688L76.7927 177.32H76.8407C77.3207 176.456 78.1607 175.472 79.1927 175.496L78.8807 177.32L78.5927 177.296C76.9847 177.296 76.5527 178.856 76.2407 180.824L75.1127 188H73.5527L75.4967 175.688H77.0567ZM84.1419 181.64C84.5739 178.976 84.7179 176.768 83.1819 176.768C81.4539 176.768 80.9259 179.504 80.5899 181.592C79.7979 186.68 80.5899 186.92 81.5019 186.92C83.0139 186.92 83.5179 185.504 84.1419 181.64ZM86.4939 175.688L84.5499 188H82.9899L83.1339 187.04H83.0859C82.5339 187.736 81.7659 188.192 80.8779 188.192C78.9099 188.192 78.1179 187.088 78.9579 181.712C79.4139 178.952 80.0619 175.496 83.0379 175.496C83.9019 175.496 84.3819 175.856 84.7659 176.528H84.8139L84.9339 175.688H86.4939ZM92.8931 175.688L92.6771 177.128H90.6371L88.9091 188H87.3491L89.0771 177.128H87.7571L87.9731 175.688H89.2931L89.8211 172.328H91.3811L90.8531 175.688H92.8931ZM95.2676 175.688L93.3236 188H91.7636L93.7076 175.688H95.2676ZM96.2276 172.04C96.1316 172.688 95.5316 173.216 94.9076 173.216C94.2596 173.216 93.8036 172.688 93.8996 172.04C93.9956 171.416 94.6196 170.888 95.2676 170.888C95.8916 170.888 96.3236 171.416 96.2276 172.04ZM100.65 175.496C103.89 175.496 103.53 179.528 103.17 181.832C102.786 184.16 101.874 188.192 98.6342 188.192C95.3942 188.192 95.7302 184.16 96.1142 181.832C96.4742 179.528 97.4102 175.496 100.65 175.496ZM100.41 176.96C98.5382 176.96 97.8902 180.656 97.7222 181.832C97.5302 183.032 96.9782 186.728 98.8502 186.728C100.722 186.728 101.37 183.032 101.562 181.832C101.73 180.656 102.282 176.96 100.41 176.96ZM107.525 175.688L107.381 176.672C108.125 175.952 109.037 175.496 109.997 175.496C112.181 175.496 112.037 177.512 111.773 179.192L110.381 188H108.821L110.189 179.36C110.429 177.896 110.501 176.768 109.205 176.768C107.429 176.768 107.045 178.712 106.853 180.008L105.581 188H104.021L105.965 175.688H107.525ZM120.929 186.92C122.369 186.92 122.897 185.504 123.497 181.712C123.809 179.816 124.265 176.768 122.465 176.768C120.809 176.768 120.329 179.312 119.993 181.496C119.609 183.872 119.225 186.92 120.929 186.92ZM121.049 175.688L120.929 176.528H120.977C121.553 175.856 122.177 175.496 123.065 175.496C125.921 175.496 125.513 179.216 125.105 181.712C124.673 184.496 124.025 188.192 121.169 188.192C120.281 188.192 119.657 187.736 119.297 187.04H119.249L118.361 192.704H116.801L119.489 175.688H121.049ZM129.416 175.688L129.152 177.32H129.2C129.68 176.456 130.52 175.472 131.552 175.496L131.24 177.32L130.952 177.296C129.344 177.296 128.912 178.856 128.6 180.824L127.472 188H125.912L127.856 175.688H129.416ZM135.853 175.496C139.093 175.496 138.733 179.528 138.373 181.832C137.989 184.16 137.077 188.192 133.837 188.192C130.597 188.192 130.933 184.16 131.317 181.832C131.677 179.528 132.613 175.496 135.853 175.496ZM135.613 176.96C133.741 176.96 133.093 180.656 132.925 181.832C132.733 183.032 132.181 186.728 134.053 186.728C135.925 186.728 136.573 183.032 136.765 181.832C136.933 180.656 137.485 176.96 135.613 176.96ZM146.065 175.976L145.777 177.776C145.465 177.368 145.033 176.96 144.433 176.96C142.417 176.96 141.673 180.464 141.433 181.88C141.241 183.104 140.929 186.728 142.777 186.728C143.497 186.728 144.049 186.176 144.505 185.624H144.553L144.241 187.568C143.713 187.952 142.969 188.192 142.369 188.192C139.537 188.192 139.465 184.208 139.801 182.096C140.161 179.768 141.337 175.496 144.457 175.496C145.033 175.496 145.609 175.664 146.065 175.976ZM148.304 180.848H151.88L151.904 180.632C152.024 179.456 152.384 176.96 150.752 176.96C149.264 176.96 148.472 179.744 148.304 180.848ZM153.248 182.168H148.064L148.016 182.528C147.824 183.752 147.56 186.728 149.264 186.728C150.632 186.728 151.136 184.808 151.304 183.824H152.912C152.576 185.696 151.472 188.192 149.192 188.192C145.952 188.192 146.12 184.352 146.504 181.88C146.864 179.672 148.016 175.496 150.992 175.496C153.872 175.496 153.728 179.264 153.368 181.424L153.248 182.168ZM160.683 176.288L160.395 178.208H160.347C159.987 177.56 159.363 176.96 158.499 176.96C157.563 176.96 156.843 177.68 156.699 178.592C156.507 179.768 157.419 180.488 158.259 181.304C159.147 182.144 159.987 183.056 159.723 184.664C159.411 186.632 157.851 188.192 155.811 188.192C155.043 188.192 154.227 187.832 153.699 187.352L153.987 185.528C154.491 186.152 155.043 186.728 155.979 186.728C157.059 186.728 157.923 185.888 158.091 184.856C158.283 183.632 157.419 182.816 156.555 181.928C155.715 181.064 154.851 180.104 155.091 178.64C155.379 176.792 156.819 175.496 158.667 175.496C159.459 175.496 160.131 175.808 160.683 176.288ZM167.362 176.288L167.074 178.208H167.026C166.666 177.56 166.042 176.96 165.178 176.96C164.242 176.96 163.522 177.68 163.378 178.592C163.186 179.768 164.098 180.488 164.938 181.304C165.826 182.144 166.666 183.056 166.402 184.664C166.09 186.632 164.53 188.192 162.49 188.192C161.722 188.192 160.906 187.832 160.378 187.352L160.666 185.528C161.17 186.152 161.722 186.728 162.658 186.728C163.738 186.728 164.602 185.888 164.77 184.856C164.962 183.632 164.098 182.816 163.234 181.928C162.394 181.064 161.53 180.104 161.77 178.64C162.058 176.792 163.498 175.496 165.346 175.496C166.138 175.496 166.81 175.808 167.362 176.288ZM170.682 186.512L167.418 191.864L166.362 191.312L169.098 185.744L170.682 186.512ZM183.3 176.288L183.012 178.208H182.964C182.604 177.56 181.98 176.96 181.116 176.96C180.18 176.96 179.46 177.68 179.316 178.592C179.124 179.768 180.036 180.488 180.876 181.304C181.764 182.144 182.604 183.056 182.34 184.664C182.028 186.632 180.468 188.192 178.428 188.192C177.66 188.192 176.844 187.832 176.316 187.352L176.604 185.528C177.108 186.152 177.66 186.728 178.596 186.728C179.676 186.728 180.54 185.888 180.708 184.856C180.9 183.632 180.036 182.816 179.172 181.928C178.332 181.064 177.468 180.104 177.708 178.64C177.996 176.792 179.436 175.496 181.284 175.496C182.076 175.496 182.748 175.808 183.3 176.288ZM189.62 175.688L189.404 177.128H187.364L185.636 188H184.076L185.804 177.128H184.484L184.7 175.688H186.02L186.548 172.328H188.108L187.58 175.688H189.62ZM194.275 181.64C194.707 178.976 194.851 176.768 193.315 176.768C191.587 176.768 191.059 179.504 190.723 181.592C189.931 186.68 190.723 186.92 191.635 186.92C193.147 186.92 193.651 185.504 194.275 181.64ZM196.627 175.688L194.683 188H193.123L193.267 187.04H193.219C192.667 187.736 191.899 188.192 191.011 188.192C189.043 188.192 188.251 187.088 189.091 181.712C189.547 178.952 190.195 175.496 193.171 175.496C194.035 175.496 194.515 175.856 194.899 176.528H194.947L195.067 175.688H196.627ZM200.338 175.688L200.074 177.32H200.122C200.602 176.456 201.442 175.472 202.474 175.496L202.162 177.32L201.874 177.296C200.266 177.296 199.834 178.856 199.522 180.824L198.394 188H196.834L198.778 175.688H200.338ZM207.948 175.688L207.732 177.128H205.692L203.964 188H202.404L204.132 177.128H202.812L203.028 175.688H204.348L204.876 172.328H206.436L205.908 175.688H207.948ZM210.322 175.688L208.378 188H206.818L208.762 175.688H210.322ZM211.282 172.04C211.186 172.688 210.586 173.216 209.962 173.216C209.314 173.216 208.858 172.688 208.954 172.04C209.05 171.416 209.674 170.888 210.322 170.888C210.946 170.888 211.378 171.416 211.282 172.04ZM214.049 175.688L213.905 176.672C214.649 175.952 215.561 175.496 216.521 175.496C218.705 175.496 218.561 177.512 218.297 179.192L216.905 188H215.345L216.713 179.36C216.953 177.896 217.025 176.768 215.729 176.768C213.953 176.768 213.569 178.712 213.377 180.008L212.105 188H210.545L212.489 175.688H214.049ZM221.26 182.048C221.044 183.392 220.492 186.728 222.46 186.728C224.116 186.728 224.572 184.304 225.004 181.616C225.364 179.36 225.628 176.768 223.924 176.768C222.796 176.768 221.98 177.536 221.26 182.048ZM227.356 175.688L225.34 188.456C224.98 190.76 224.548 192.896 221.428 192.896C219.268 192.896 218.452 191.6 218.788 189.488L218.86 189.032H220.396L220.372 189.248C220.18 190.4 220.324 191.432 221.668 191.432C223.42 191.432 223.516 189.896 223.732 188.576L223.972 187.136C223.348 187.736 222.652 188 221.836 188C218.764 188 219.388 183.752 219.724 181.568C220.06 179.504 220.948 175.496 223.804 175.496C224.644 175.496 225.268 175.88 225.628 176.528H225.676L225.796 175.688H227.356ZM245.249 175.688L240.593 188H238.985V179.072C238.985 178.64 239.057 178.184 239.081 177.752H239.009C238.817 178.496 238.649 179.24 238.409 179.984L235.817 188H234.233L233.681 175.688H235.265L235.289 182.96C235.289 183.896 235.337 184.808 235.361 185.744H235.457C235.721 184.808 235.961 183.896 236.249 182.96L238.601 175.688H240.185L240.137 184.208C240.137 184.712 240.113 185.24 240.113 185.744H240.185C240.425 184.952 240.641 184.136 240.929 183.344L243.665 175.688H245.249ZM248.15 175.688L246.206 188H244.646L246.59 175.688H248.15ZM249.11 172.04C249.014 172.688 248.414 173.216 247.79 173.216C247.142 173.216 246.686 172.688 246.782 172.04C246.878 171.416 247.502 170.888 248.15 170.888C248.774 170.888 249.206 171.416 249.11 172.04ZM254.565 175.688L254.349 177.128H252.309L250.581 188H249.021L250.749 177.128H249.429L249.645 175.688H250.965L251.493 172.328H253.053L252.525 175.688H254.565ZM258.043 168.8L256.795 176.672C257.539 175.952 258.451 175.496 259.411 175.496C261.667 175.496 261.475 177.464 261.187 179.192L259.795 188H258.235L259.579 179.456C259.891 177.536 259.795 176.768 258.619 176.768C256.843 176.768 256.459 178.712 256.267 180.008L254.995 188H253.435L256.483 168.8H258.043ZM272.767 181.64C273.199 178.976 273.343 176.768 271.807 176.768C270.079 176.768 269.551 179.504 269.215 181.592C268.423 186.68 269.215 186.92 270.127 186.92C271.639 186.92 272.143 185.504 272.767 181.64ZM275.119 175.688L273.175 188H271.615L271.759 187.04H271.711C271.159 187.736 270.391 188.192 269.503 188.192C267.535 188.192 266.743 187.088 267.583 181.712C268.039 178.952 268.687 175.496 271.663 175.496C272.527 175.496 273.007 175.856 273.391 176.528H273.439L273.559 175.688H275.119ZM278.83 175.688L278.686 176.672C279.43 175.952 280.342 175.496 281.302 175.496C283.486 175.496 283.342 177.512 283.078 179.192L281.686 188H280.126L281.494 179.36C281.734 177.896 281.806 176.768 280.51 176.768C278.734 176.768 278.35 178.712 278.158 180.008L276.886 188H275.326L277.27 175.688H278.83ZM292.354 175.688L290.41 188H288.85L290.794 175.688H292.354ZM293.314 172.04C293.218 172.688 292.618 173.216 291.994 173.216C291.346 173.216 290.89 172.688 290.986 172.04C291.082 171.416 291.706 170.888 292.354 170.888C292.978 170.888 293.41 171.416 293.314 172.04ZM296.08 175.688L295.936 176.672C296.68 175.952 297.592 175.496 298.552 175.496C300.736 175.496 300.592 177.512 300.328 179.192L298.936 188H297.376L298.744 179.36C298.984 177.896 299.056 176.768 297.76 176.768C295.984 176.768 295.6 178.712 295.408 180.008L294.136 188H292.576L294.52 175.688H296.08ZM304.611 175.688L302.667 188H301.107L303.051 175.688H304.611ZM305.571 172.04C305.475 172.688 304.875 173.216 304.251 173.216C303.603 173.216 303.147 172.688 303.243 172.04C303.339 171.416 303.963 170.888 304.611 170.888C305.235 170.888 305.667 171.416 305.571 172.04ZM311.026 175.688L310.81 177.128H308.77L307.042 188H305.482L307.21 177.128H305.89L306.106 175.688H307.426L307.954 172.328H309.514L308.986 175.688H311.026ZM313.4 175.688L311.456 188H309.896L311.84 175.688H313.4ZM314.36 172.04C314.264 172.688 313.664 173.216 313.04 173.216C312.392 173.216 311.936 172.688 312.032 172.04C312.128 171.416 312.752 170.888 313.4 170.888C314.024 170.888 314.456 171.416 314.36 172.04ZM319.431 181.64C319.863 178.976 320.007 176.768 318.471 176.768C316.743 176.768 316.215 179.504 315.879 181.592C315.087 186.68 315.879 186.92 316.791 186.92C318.303 186.92 318.807 185.504 319.431 181.64ZM321.783 175.688L319.839 188H318.279L318.423 187.04H318.375C317.823 187.736 317.055 188.192 316.167 188.192C314.199 188.192 313.407 187.088 314.247 181.712C314.703 178.952 315.351 175.496 318.327 175.496C319.191 175.496 319.671 175.856 320.055 176.528H320.103L320.223 175.688H321.783ZM326.598 168.8L323.55 188H321.99L325.038 168.8H326.598ZM53.1224 210.64C53.5544 207.976 53.6984 205.768 52.1624 205.768C50.4344 205.768 49.9064 208.504 49.5704 210.592C48.7784 215.68 49.5704 215.92 50.4824 215.92C51.9944 215.92 52.4984 214.504 53.1224 210.64ZM55.4744 204.688L53.5304 217H51.9704L52.1144 216.04H52.0664C51.5144 216.736 50.7464 217.192 49.8584 217.192C47.8904 217.192 47.0984 216.088 47.9384 210.712C48.3944 207.952 49.0424 204.496 52.0184 204.496C52.8824 204.496 53.3624 204.856 53.7464 205.528H53.7944L53.9144 204.688H55.4744ZM62.2336 205.288L61.9456 207.208H61.8976C61.5376 206.56 60.9136 205.96 60.0496 205.96C59.1136 205.96 58.3936 206.68 58.2496 207.592C58.0576 208.768 58.9696 209.488 59.8096 210.304C60.6976 211.144 61.5376 212.056 61.2736 213.664C60.9616 215.632 59.4016 217.192 57.3616 217.192C56.5936 217.192 55.7776 216.832 55.2496 216.352L55.5376 214.528C56.0416 215.152 56.5936 215.728 57.5296 215.728C58.6096 215.728 59.4736 214.888 59.6416 213.856C59.8336 212.632 58.9696 211.816 58.1056 210.928C57.2656 210.064 56.4016 209.104 56.6416 207.64C56.9296 205.792 58.3696 204.496 60.2176 204.496C61.0096 204.496 61.6816 204.808 62.2336 205.288ZM68.9133 205.288L68.6253 207.208H68.5773C68.2173 206.56 67.5933 205.96 66.7293 205.96C65.7933 205.96 65.0733 206.68 64.9293 207.592C64.7373 208.768 65.6493 209.488 66.4893 210.304C67.3773 211.144 68.2173 212.056 67.9533 213.664C67.6413 215.632 66.0813 217.192 64.0413 217.192C63.2733 217.192 62.4573 216.832 61.9293 216.352L62.2173 214.528C62.7213 215.152 63.2733 215.728 64.2093 215.728C65.2893 215.728 66.1533 214.888 66.3213 213.856C66.5133 212.632 65.6493 211.816 64.7853 210.928C63.9453 210.064 63.0813 209.104 63.3213 207.64C63.6093 205.792 65.0493 204.496 66.8973 204.496C67.6893 204.496 68.3613 204.808 68.9133 205.288ZM71.4409 209.848H75.0169L75.0409 209.632C75.1609 208.456 75.5209 205.96 73.8889 205.96C72.4009 205.96 71.6089 208.744 71.4409 209.848ZM76.3849 211.168H71.2009L71.1529 211.528C70.9609 212.752 70.6969 215.728 72.4009 215.728C73.7689 215.728 74.2729 213.808 74.4409 212.824H76.0489C75.7129 214.696 74.6089 217.192 72.3289 217.192C69.0889 217.192 69.2569 213.352 69.6409 210.88C70.0009 208.672 71.1529 204.496 74.1289 204.496C77.0089 204.496 76.8649 208.264 76.5049 210.424L76.3849 211.168ZM83.8195 205.288L83.5315 207.208H83.4835C83.1235 206.56 82.4995 205.96 81.6355 205.96C80.6995 205.96 79.9795 206.68 79.8355 207.592C79.6435 208.768 80.5555 209.488 81.3955 210.304C82.2835 211.144 83.1235 212.056 82.8595 213.664C82.5475 215.632 80.9875 217.192 78.9475 217.192C78.1795 217.192 77.3635 216.832 76.8355 216.352L77.1235 214.528C77.6275 215.152 78.1795 215.728 79.1155 215.728C80.1955 215.728 81.0595 214.888 81.2275 213.856C81.4195 212.632 80.5555 211.816 79.6915 210.928C78.8515 210.064 77.9875 209.104 78.2275 207.64C78.5155 205.792 79.9555 204.496 81.8035 204.496C82.5955 204.496 83.2675 204.808 83.8195 205.288ZM90.4992 205.288L90.2112 207.208H90.1632C89.8032 206.56 89.1792 205.96 88.3152 205.96C87.3792 205.96 86.6592 206.68 86.5152 207.592C86.3232 208.768 87.2352 209.488 88.0752 210.304C88.9632 211.144 89.8032 212.056 89.5392 213.664C89.2272 215.632 87.6672 217.192 85.6272 217.192C84.8592 217.192 84.0432 216.832 83.5152 216.352L83.8032 214.528C84.3072 215.152 84.8592 215.728 85.7952 215.728C86.8752 215.728 87.7392 214.888 87.9072 213.856C88.0992 212.632 87.2352 211.816 86.3712 210.928C85.5312 210.064 84.6672 209.104 84.9072 207.64C85.1952 205.792 86.6352 204.496 88.4832 204.496C89.2752 204.496 89.9472 204.808 90.4992 205.288ZM94.1309 204.688L93.9629 205.72H94.0109C94.6829 205 95.6189 204.496 96.5549 204.496C97.5629 204.496 98.3309 205.024 98.5949 205.96C99.3869 205.048 100.251 204.496 101.379 204.496C103.683 204.496 103.563 206.32 103.275 208.144L101.883 217H100.323L101.715 208.192C101.907 207.016 101.979 205.768 100.707 205.768C98.8589 205.768 98.4749 207.856 98.2349 209.416L97.0349 217H95.4749L96.8669 208.216C97.0589 207.064 97.1789 205.768 95.9069 205.768C94.0109 205.768 93.6029 208.12 93.3389 209.68L92.1869 217H90.6269L92.5709 204.688H94.1309ZM106.433 209.848H110.009L110.033 209.632C110.153 208.456 110.513 205.96 108.881 205.96C107.393 205.96 106.601 208.744 106.433 209.848ZM111.377 211.168H106.193L106.145 211.528C105.953 212.752 105.689 215.728 107.393 215.728C108.761 215.728 109.265 213.808 109.433 212.824H111.041C110.705 214.696 109.601 217.192 107.321 217.192C104.081 217.192 104.249 213.352 104.633 210.88C104.993 208.672 106.145 204.496 109.121 204.496C112.001 204.496 111.857 208.264 111.497 210.424L111.377 211.168ZM115.764 204.688L115.62 205.672C116.364 204.952 117.276 204.496 118.236 204.496C120.42 204.496 120.276 206.512 120.012 208.192L118.62 217H117.06L118.428 208.36C118.668 206.896 118.74 205.768 117.444 205.768C115.668 205.768 115.284 207.712 115.092 209.008L113.82 217H112.26L114.204 204.688H115.764ZM126.983 204.688L126.767 206.128H124.727L122.999 217H121.439L123.167 206.128H121.847L122.063 204.688H123.383L123.911 201.328H125.471L124.943 204.688H126.983ZM136.63 210.64C137.062 207.976 137.206 205.768 135.67 205.768C133.942 205.768 133.414 208.504 133.078 210.592C132.286 215.68 133.078 215.92 133.99 215.92C135.502 215.92 136.006 214.504 136.63 210.64ZM138.982 204.688L137.038 217H135.478L135.622 216.04H135.574C135.022 216.736 134.254 217.192 133.366 217.192C131.398 217.192 130.606 216.088 131.446 210.712C131.902 207.952 132.55 204.496 135.526 204.496C136.39 204.496 136.87 204.856 137.254 205.528H137.302L137.422 204.688H138.982ZM142.693 204.688L142.549 205.672C143.293 204.952 144.205 204.496 145.165 204.496C147.349 204.496 147.205 206.512 146.941 208.192L145.549 217H143.989L145.357 208.36C145.597 206.896 145.669 205.768 144.373 205.768C142.597 205.768 142.213 207.712 142.021 209.008L140.749 217H139.189L141.133 204.688H142.693ZM153.529 210.64C153.985 207.832 154.009 205.768 152.569 205.768C150.817 205.768 150.265 208.84 149.977 210.592C149.809 211.744 148.897 215.92 150.889 215.92C152.545 215.92 153.025 213.88 153.529 210.64ZM152.377 217L152.521 216.04H152.473C151.921 216.736 151.153 217.192 150.265 217.192C147.697 217.192 147.817 214.072 148.345 210.712C148.897 207.352 149.689 204.496 152.425 204.496C153.289 204.496 153.769 204.856 154.153 205.528H154.201L155.425 197.8H156.985L153.937 217H152.377ZM164.464 215.92C165.904 215.92 166.432 214.504 167.032 210.712C167.344 208.816 167.8 205.768 166 205.768C164.344 205.768 163.864 208.312 163.528 210.496C163.144 212.872 162.76 215.92 164.464 215.92ZM164.584 204.688L164.464 205.528H164.512C165.088 204.856 165.712 204.496 166.6 204.496C169.456 204.496 169.048 208.216 168.64 210.712C168.208 213.496 167.56 217.192 164.704 217.192C163.816 217.192 163.192 216.736 162.832 216.04H162.784L161.896 221.704H160.336L163.024 204.688H164.584ZM172.951 204.688L172.687 206.32H172.735C173.215 205.456 174.055 204.472 175.087 204.496L174.775 206.32L174.487 206.296C172.879 206.296 172.447 207.856 172.135 209.824L171.007 217H169.447L171.391 204.688H172.951ZM179.388 204.496C182.628 204.496 182.268 208.528 181.908 210.832C181.524 213.16 180.612 217.192 177.372 217.192C174.132 217.192 174.468 213.16 174.852 210.832C175.212 208.528 176.148 204.496 179.388 204.496ZM179.148 205.96C177.276 205.96 176.628 209.656 176.46 210.832C176.268 212.032 175.716 215.728 177.588 215.728C179.46 215.728 180.108 212.032 180.3 210.832C180.468 209.656 181.02 205.96 179.148 205.96ZM191.04 204.688L186.36 217H184.68L183.816 204.688H185.4L185.76 212.392C185.808 213.16 185.808 213.928 185.856 214.696H185.952C186.168 213.928 186.408 213.136 186.648 212.392L189.432 204.688H191.04ZM193.857 204.688L191.913 217H190.353L192.297 204.688H193.857ZM194.817 201.04C194.721 201.688 194.121 202.216 193.497 202.216C192.849 202.216 192.393 201.688 192.489 201.04C192.585 200.416 193.209 199.888 193.857 199.888C194.481 199.888 194.913 200.416 194.817 201.04ZM199.888 210.64C200.344 207.832 200.368 205.768 198.928 205.768C197.176 205.768 196.624 208.84 196.336 210.592C196.168 211.744 195.256 215.92 197.248 215.92C198.904 215.92 199.384 213.88 199.888 210.64ZM198.736 217L198.88 216.04H198.832C198.28 216.736 197.512 217.192 196.624 217.192C194.056 217.192 194.176 214.072 194.704 210.712C195.256 207.352 196.048 204.496 198.784 204.496C199.648 204.496 200.128 204.856 200.512 205.528H200.56L201.784 197.8H203.344L200.296 217H198.736ZM205.975 204.688L204.031 217H202.471L204.415 204.688H205.975ZM206.935 201.04C206.839 201.688 206.239 202.216 205.615 202.216C204.967 202.216 204.511 201.688 204.607 201.04C204.703 200.416 205.327 199.888 205.975 199.888C206.599 199.888 207.031 200.416 206.935 201.04ZM209.701 204.688L209.557 205.672C210.301 204.952 211.213 204.496 212.173 204.496C214.357 204.496 214.213 206.512 213.949 208.192L212.557 217H210.997L212.365 208.36C212.605 206.896 212.677 205.768 211.381 205.768C209.605 205.768 209.221 207.712 209.029 209.008L207.757 217H206.197L208.141 204.688H209.701ZM216.912 211.048C216.696 212.392 216.144 215.728 218.112 215.728C219.768 215.728 220.224 213.304 220.656 210.616C221.016 208.36 221.28 205.768 219.576 205.768C218.448 205.768 217.632 206.536 216.912 211.048ZM223.008 204.688L220.992 217.456C220.632 219.76 220.2 221.896 217.08 221.896C214.92 221.896 214.104 220.6 214.44 218.488L214.512 218.032H216.048L216.024 218.248C215.832 219.4 215.976 220.432 217.32 220.432C219.072 220.432 219.168 218.896 219.384 217.576L219.624 216.136C219 216.736 218.304 217 217.488 217C214.416 217 215.04 212.752 215.376 210.568C215.712 208.504 216.6 204.496 219.456 204.496C220.296 204.496 220.92 204.88 221.28 205.528H221.328L221.448 204.688H223.008ZM231.589 215.92C233.029 215.92 233.557 214.504 234.157 210.712C234.469 208.816 234.925 205.768 233.125 205.768C231.469 205.768 230.989 208.312 230.653 210.496C230.269 212.872 229.885 215.92 231.589 215.92ZM231.709 204.688L231.589 205.528H231.637C232.213 204.856 232.837 204.496 233.725 204.496C236.581 204.496 236.173 208.216 235.765 210.712C235.333 213.496 234.685 217.192 231.829 217.192C230.941 217.192 230.317 216.736 229.957 216.04H229.909L229.021 221.704H227.461L230.149 204.688H231.709ZM238.972 209.848H242.548L242.572 209.632C242.692 208.456 243.052 205.96 241.42 205.96C239.932 205.96 239.14 208.744 238.972 209.848ZM243.916 211.168H238.732L238.684 211.528C238.492 212.752 238.228 215.728 239.932 215.728C241.3 215.728 241.804 213.808 241.972 212.824H243.58C243.244 214.696 242.14 217.192 239.86 217.192C236.62 217.192 236.788 213.352 237.172 210.88C237.532 208.672 238.684 204.496 241.66 204.496C244.54 204.496 244.396 208.264 244.036 210.424L243.916 211.168ZM248.303 204.688L248.039 206.32H248.087C248.567 205.456 249.407 204.472 250.439 204.496L250.127 206.32L249.839 206.296C248.231 206.296 247.799 207.856 247.487 209.824L246.359 217H244.799L246.743 204.688H248.303ZM256.273 205.288L255.985 207.208H255.937C255.577 206.56 254.953 205.96 254.089 205.96C253.153 205.96 252.433 206.68 252.289 207.592C252.097 208.768 253.009 209.488 253.849 210.304C254.737 211.144 255.577 212.056 255.313 213.664C255.001 215.632 253.441 217.192 251.401 217.192C250.633 217.192 249.817 216.832 249.289 216.352L249.577 214.528C250.081 215.152 250.633 215.728 251.569 215.728C252.649 215.728 253.513 214.888 253.681 213.856C253.873 212.632 253.009 211.816 252.145 210.928C251.305 210.064 250.441 209.104 250.681 207.64C250.969 205.792 252.409 204.496 254.257 204.496C255.049 204.496 255.721 204.808 256.273 205.288ZM261.56 204.496C264.8 204.496 264.44 208.528 264.08 210.832C263.696 213.16 262.784 217.192 259.544 217.192C256.304 217.192 256.64 213.16 257.024 210.832C257.384 208.528 258.32 204.496 261.56 204.496ZM261.32 205.96C259.448 205.96 258.8 209.656 258.632 210.832C258.44 212.032 257.888 215.728 259.76 215.728C261.632 215.728 262.28 212.032 262.472 210.832C262.64 209.656 263.192 205.96 261.32 205.96ZM268.436 204.688L268.292 205.672C269.036 204.952 269.948 204.496 270.908 204.496C273.092 204.496 272.948 206.512 272.684 208.192L271.292 217H269.732L271.1 208.36C271.34 206.896 271.412 205.768 270.116 205.768C268.34 205.768 267.956 207.712 267.764 209.008L266.492 217H264.932L266.876 204.688H268.436ZM279.271 210.64C279.703 207.976 279.847 205.768 278.311 205.768C276.583 205.768 276.055 208.504 275.719 210.592C274.927 215.68 275.719 215.92 276.631 215.92C278.143 215.92 278.647 214.504 279.271 210.64ZM281.623 204.688L279.679 217H278.119L278.263 216.04H278.215C277.663 216.736 276.895 217.192 276.007 217.192C274.039 217.192 273.247 216.088 274.087 210.712C274.543 207.952 275.191 204.496 278.167 204.496C279.031 204.496 279.511 204.856 279.895 205.528H279.943L280.063 204.688H281.623ZM286.438 197.8L283.39 217H281.83L284.878 197.8H286.438ZM289.084 204.688L287.14 217H285.58L287.524 204.688H289.084ZM290.044 201.04C289.948 201.688 289.348 202.216 288.724 202.216C288.076 202.216 287.62 201.688 287.716 201.04C287.812 200.416 288.436 199.888 289.084 199.888C289.708 199.888 290.14 200.416 290.044 201.04ZM295.235 215.56L294.995 217H288.587L295.187 206.128H290.987L291.203 204.688H297.755L291.059 215.56H295.235ZM299.652 209.848H303.228L303.252 209.632C303.372 208.456 303.732 205.96 302.1 205.96C300.612 205.96 299.82 208.744 299.652 209.848ZM304.596 211.168H299.412L299.364 211.528C299.172 212.752 298.908 215.728 300.612 215.728C301.98 215.728 302.484 213.808 302.652 212.824H304.26C303.924 214.696 302.82 217.192 300.54 217.192C297.3 217.192 297.468 213.352 297.852 210.88C298.212 208.672 299.364 204.496 302.34 204.496C305.22 204.496 305.076 208.264 304.716 210.424L304.596 211.168ZM311.286 210.64C311.742 207.832 311.766 205.768 310.326 205.768C308.574 205.768 308.022 208.84 307.734 210.592C307.566 211.744 306.654 215.92 308.646 215.92C310.302 215.92 310.782 213.88 311.286 210.64ZM310.134 217L310.278 216.04H310.23C309.678 216.736 308.91 217.192 308.022 217.192C305.454 217.192 305.574 214.072 306.102 210.712C306.654 207.352 307.446 204.496 310.182 204.496C311.046 204.496 311.526 204.856 311.91 205.528H311.958L313.182 197.8H314.742L311.694 217H310.134ZM72.4758 234.288L72.1878 236.208H72.1398C71.7798 235.56 71.1558 234.96 70.2918 234.96C69.3558 234.96 68.6358 235.68 68.4918 236.592C68.2998 237.768 69.2118 238.488 70.0518 239.304C70.9398 240.144 71.7798 241.056 71.5158 242.664C71.2038 244.632 69.6438 246.192 67.6038 246.192C66.8358 246.192 66.0198 245.832 65.4918 245.352L65.7798 243.528C66.2838 244.152 66.8358 244.728 67.7718 244.728C68.8518 244.728 69.7158 243.888 69.8838 242.856C70.0758 241.632 69.2118 240.816 68.3478 239.928C67.5078 239.064 66.6438 238.104 66.8838 236.64C67.1718 234.792 68.6118 233.496 70.4598 233.496C71.2518 233.496 71.9238 233.808 72.4758 234.288ZM78.7954 233.688L78.5794 235.128H76.5394L74.8114 246H73.2514L74.9794 235.128H73.6594L73.8754 233.688H75.1954L75.7234 230.328H77.2834L76.7554 233.688H78.7954ZM79.4905 233.688H81.0505L79.8265 241.416C79.5625 243.096 79.3945 244.728 80.9305 244.728C82.5145 244.728 82.8505 243.096 83.1385 241.416L84.3625 233.688H85.9225L84.5065 242.736C84.1705 244.8 82.9465 246.192 80.7385 246.192C78.5545 246.192 77.7385 244.824 78.0745 242.736L79.4905 233.688ZM91.8411 239.64C92.2971 236.832 92.3211 234.768 90.8811 234.768C89.1291 234.768 88.5771 237.84 88.2891 239.592C88.1211 240.744 87.2091 244.92 89.2011 244.92C90.8571 244.92 91.3371 242.88 91.8411 239.64ZM90.6891 246L90.8331 245.04H90.7851C90.2331 245.736 89.4651 246.192 88.5771 246.192C86.0091 246.192 86.1291 243.072 86.6571 239.712C87.2091 236.352 88.0011 233.496 90.7371 233.496C91.6011 233.496 92.0811 233.856 92.4651 234.528H92.5131L93.7371 226.8H95.2971L92.2491 246H90.6891ZM103.04 233.688L96.1043 250.704H94.4723L96.4883 245.664L95.4563 233.688H97.0403L97.5443 243.624H97.6163C98.0003 242.568 98.3603 241.512 98.7683 240.456L101.408 233.688H103.04ZM110.745 244.92C112.185 244.92 112.713 243.504 113.313 239.712C113.625 237.816 114.081 234.768 112.281 234.768C110.625 234.768 110.145 237.312 109.809 239.496C109.425 241.872 109.041 244.92 110.745 244.92ZM110.865 233.688L110.745 234.528H110.793C111.369 233.856 111.993 233.496 112.881 233.496C115.737 233.496 115.329 237.216 114.921 239.712C114.489 242.496 113.841 246.192 110.985 246.192C110.097 246.192 109.473 245.736 109.113 245.04H109.065L108.177 250.704H106.617L109.305 233.688H110.865ZM120.336 226.8L117.288 246H115.728L118.776 226.8H120.336ZM125.263 239.64C125.695 236.976 125.839 234.768 124.303 234.768C122.575 234.768 122.047 237.504 121.711 239.592C120.919 244.68 121.711 244.92 122.623 244.92C124.135 244.92 124.639 243.504 125.263 239.64ZM127.615 233.688L125.671 246H124.111L124.255 245.04H124.207C123.655 245.736 122.887 246.192 121.999 246.192C120.031 246.192 119.239 245.088 120.079 239.712C120.535 236.952 121.183 233.496 124.159 233.496C125.023 233.496 125.503 233.856 125.887 234.528H125.935L126.055 233.688H127.615ZM131.326 233.688L131.182 234.672C131.926 233.952 132.838 233.496 133.798 233.496C135.982 233.496 135.838 235.512 135.574 237.192L134.182 246H132.622L133.99 237.36C134.23 235.896 134.302 234.768 133.006 234.768C131.23 234.768 130.846 236.712 130.654 238.008L129.382 246H127.822L129.766 233.688H131.326ZM142.905 234.288L142.617 236.208H142.569C142.209 235.56 141.585 234.96 140.721 234.96C139.785 234.96 139.065 235.68 138.921 236.592C138.729 237.768 139.641 238.488 140.481 239.304C141.369 240.144 142.209 241.056 141.945 242.664C141.633 244.632 140.073 246.192 138.033 246.192C137.265 246.192 136.449 245.832 135.921 245.352L136.209 243.528C136.713 244.152 137.265 244.728 138.201 244.728C139.281 244.728 140.145 243.888 140.313 242.856C140.505 241.632 139.641 240.816 138.777 239.928C137.937 239.064 137.073 238.104 137.313 236.64C137.601 234.792 139.041 233.496 140.889 233.496C141.681 233.496 142.353 233.808 142.905 234.288ZM146.225 244.512L142.961 249.864L141.905 249.312L144.641 243.744L146.225 244.512ZM159.131 233.976L158.843 235.776C158.531 235.368 158.099 234.96 157.499 234.96C155.483 234.96 154.739 238.464 154.499 239.88C154.307 241.104 153.995 244.728 155.843 244.728C156.563 244.728 157.115 244.176 157.571 243.624H157.619L157.307 245.568C156.779 245.952 156.035 246.192 155.435 246.192C152.603 246.192 152.531 242.208 152.867 240.096C153.227 237.768 154.403 233.496 157.523 233.496C158.099 233.496 158.675 233.664 159.131 233.976ZM164.131 233.496C167.371 233.496 167.011 237.528 166.651 239.832C166.267 242.16 165.355 246.192 162.115 246.192C158.875 246.192 159.211 242.16 159.595 239.832C159.955 237.528 160.891 233.496 164.131 233.496ZM163.891 234.96C162.019 234.96 161.371 238.656 161.203 239.832C161.011 241.032 160.459 244.728 162.331 244.728C164.203 244.728 164.851 241.032 165.043 239.832C165.211 238.656 165.763 234.96 163.891 234.96ZM171.006 233.688L170.838 234.72H170.886C171.558 234 172.494 233.496 173.43 233.496C174.438 233.496 175.206 234.024 175.47 234.96C176.262 234.048 177.126 233.496 178.254 233.496C180.558 233.496 180.438 235.32 180.15 237.144L178.758 246H177.198L178.59 237.192C178.782 236.016 178.854 234.768 177.582 234.768C175.734 234.768 175.35 236.856 175.11 238.416L173.91 246H172.35L173.742 237.216C173.934 236.064 174.054 234.768 172.782 234.768C170.886 234.768 170.478 237.12 170.214 238.68L169.062 246H167.502L169.446 233.688H171.006ZM184.292 244.92C185.732 244.92 186.26 243.504 186.86 239.712C187.172 237.816 187.628 234.768 185.828 234.768C184.172 234.768 183.692 237.312 183.356 239.496C182.972 241.872 182.588 244.92 184.292 244.92ZM184.412 233.688L184.292 234.528H184.34C184.916 233.856 185.54 233.496 186.428 233.496C189.284 233.496 188.876 237.216 188.468 239.712C188.036 242.496 187.388 246.192 184.532 246.192C183.644 246.192 183.02 245.736 182.66 245.04H182.612L181.724 250.704H180.164L182.852 233.688H184.412ZM192.779 233.688L192.515 235.32H192.563C193.043 234.456 193.883 233.472 194.915 233.496L194.603 235.32L194.315 235.296C192.707 235.296 192.275 236.856 191.963 238.824L190.835 246H189.275L191.219 233.688H192.779ZM196.457 238.848H200.033L200.057 238.632C200.177 237.456 200.537 234.96 198.905 234.96C197.417 234.96 196.625 237.744 196.457 238.848ZM201.401 240.168H196.217L196.169 240.528C195.977 241.752 195.713 244.728 197.417 244.728C198.785 244.728 199.289 242.808 199.457 241.824H201.065C200.729 243.696 199.625 246.192 197.345 246.192C194.105 246.192 194.273 242.352 194.657 239.88C195.017 237.672 196.169 233.496 199.145 233.496C202.025 233.496 201.881 237.264 201.521 239.424L201.401 240.168ZM206.891 226.8L205.643 234.672C206.387 233.952 207.299 233.496 208.259 233.496C210.515 233.496 210.323 235.464 210.035 237.192L208.643 246H207.083L208.427 237.456C208.739 235.536 208.643 234.768 207.467 234.768C205.691 234.768 205.307 236.712 205.115 238.008L203.843 246H202.283L205.331 226.8H206.891ZM213.214 238.848H216.79L216.814 238.632C216.934 237.456 217.294 234.96 215.662 234.96C214.174 234.96 213.382 237.744 213.214 238.848ZM218.158 240.168H212.974L212.926 240.528C212.734 241.752 212.47 244.728 214.174 244.728C215.542 244.728 216.046 242.808 216.214 241.824H217.822C217.486 243.696 216.382 246.192 214.102 246.192C210.862 246.192 211.03 242.352 211.414 239.88C211.774 237.672 212.926 233.496 215.902 233.496C218.782 233.496 218.638 237.264 218.278 239.424L218.158 240.168ZM222.545 233.688L222.401 234.672C223.145 233.952 224.057 233.496 225.017 233.496C227.201 233.496 227.057 235.512 226.793 237.192L225.401 246H223.841L225.209 237.36C225.449 235.896 225.521 234.768 224.225 234.768C222.449 234.768 222.065 236.712 221.873 238.008L220.601 246H219.041L220.985 233.688H222.545ZM234.124 234.288L233.836 236.208H233.788C233.428 235.56 232.804 234.96 231.94 234.96C231.004 234.96 230.284 235.68 230.14 236.592C229.948 237.768 230.86 238.488 231.7 239.304C232.588 240.144 233.428 241.056 233.164 242.664C232.852 244.632 231.292 246.192 229.252 246.192C228.484 246.192 227.668 245.832 227.14 245.352L227.428 243.528C227.932 244.152 228.484 244.728 229.42 244.728C230.5 244.728 231.364 243.888 231.532 242.856C231.724 241.632 230.86 240.816 229.996 239.928C229.156 239.064 228.292 238.104 228.532 236.64C228.82 234.792 230.26 233.496 232.108 233.496C232.9 233.496 233.572 233.808 234.124 234.288ZM237.756 233.688L235.812 246H234.252L236.196 233.688H237.756ZM238.716 230.04C238.62 230.688 238.02 231.216 237.396 231.216C236.748 231.216 236.292 230.688 236.388 230.04C236.484 229.416 237.108 228.888 237.756 228.888C238.38 228.888 238.812 229.416 238.716 230.04ZM246.258 233.688L241.578 246H239.898L239.034 233.688H240.618L240.978 241.392C241.026 242.16 241.026 242.928 241.074 243.696H241.17C241.386 242.928 241.626 242.136 241.866 241.392L244.65 233.688H246.258ZM247.972 238.848H251.548L251.572 238.632C251.692 237.456 252.052 234.96 250.42 234.96C248.932 234.96 248.14 237.744 247.972 238.848ZM252.916 240.168H247.732L247.684 240.528C247.492 241.752 247.228 244.728 248.932 244.728C250.3 244.728 250.804 242.808 250.972 241.824H252.58C252.244 243.696 251.14 246.192 248.86 246.192C245.62 246.192 245.788 242.352 246.172 239.88C246.532 237.672 247.684 233.496 250.66 233.496C253.54 233.496 253.396 237.264 253.036 239.424L252.916 240.168ZM265.343 234.288L265.055 236.208H265.007C264.647 235.56 264.023 234.96 263.159 234.96C262.223 234.96 261.503 235.68 261.359 236.592C261.167 237.768 262.079 238.488 262.919 239.304C263.807 240.144 264.647 241.056 264.383 242.664C264.071 244.632 262.511 246.192 260.471 246.192C259.703 246.192 258.887 245.832 258.359 245.352L258.647 243.528C259.151 244.152 259.703 244.728 260.639 244.728C261.719 244.728 262.583 243.888 262.751 242.856C262.943 241.632 262.079 240.816 261.215 239.928C260.375 239.064 259.511 238.104 259.751 236.64C260.039 234.792 261.479 233.496 263.327 233.496C264.119 233.496 264.791 233.808 265.343 234.288ZM271.663 233.688L271.447 235.128H269.407L267.679 246H266.119L267.847 235.128H266.527L266.743 233.688H268.063L268.591 230.328H270.151L269.623 233.688H271.663ZM272.358 233.688H273.918L272.694 241.416C272.43 243.096 272.262 244.728 273.798 244.728C275.382 244.728 275.718 243.096 276.006 241.416L277.23 233.688H278.79L277.374 242.736C277.038 244.8 275.814 246.192 273.606 246.192C271.422 246.192 270.606 244.824 270.942 242.736L272.358 233.688ZM284.708 239.64C285.164 236.832 285.188 234.768 283.748 234.768C281.996 234.768 281.444 237.84 281.156 239.592C280.988 240.744 280.076 244.92 282.068 244.92C283.724 244.92 284.204 242.88 284.708 239.64ZM283.556 246L283.7 245.04H283.652C283.1 245.736 282.332 246.192 281.444 246.192C278.876 246.192 278.996 243.072 279.524 239.712C280.076 236.352 280.868 233.496 283.604 233.496C284.468 233.496 284.948 233.856 285.332 234.528H285.38L286.604 226.8H288.164L285.116 246H283.556ZM295.908 233.688L288.972 250.704H287.34L289.355 245.664L288.324 233.688H289.908L290.412 243.624H290.484C290.868 242.568 291.228 241.512 291.636 240.456L294.276 233.688H295.908ZM86.3262 262.688L86.1582 263.72H86.2062C86.8782 263 87.8142 262.496 88.7502 262.496C89.7582 262.496 90.5262 263.024 90.7902 263.96C91.5822 263.048 92.4462 262.496 93.5742 262.496C95.8782 262.496 95.7582 264.32 95.4702 266.144L94.0782 275H92.5182L93.9102 266.192C94.1022 265.016 94.1742 263.768 92.9022 263.768C91.0542 263.768 90.6702 265.856 90.4302 267.416L89.2302 275H87.6702L89.0622 266.216C89.2542 265.064 89.3742 263.768 88.1022 263.768C86.2062 263.768 85.7982 266.12 85.5342 267.68L84.3822 275H82.8222L84.7662 262.688H86.3262ZM102.036 268.64C102.468 265.976 102.612 263.768 101.076 263.768C99.3484 263.768 98.8204 266.504 98.4844 268.592C97.6924 273.68 98.4844 273.92 99.3964 273.92C100.908 273.92 101.412 272.504 102.036 268.64ZM104.388 262.688L102.444 275H100.884L101.028 274.04H100.98C100.428 274.736 99.6604 275.192 98.7724 275.192C96.8044 275.192 96.0124 274.088 96.8524 268.712C97.3084 265.952 97.9564 262.496 100.932 262.496C101.796 262.496 102.276 262.856 102.66 263.528H102.708L102.828 262.688H104.388ZM110.788 262.688L110.572 264.128H108.532L106.804 275H105.244L106.972 264.128H105.652L105.868 262.688H107.188L107.716 259.328H109.276L108.748 262.688H110.788ZM112.035 267.848H115.611L115.635 267.632C115.755 266.456 116.115 263.96 114.483 263.96C112.995 263.96 112.203 266.744 112.035 267.848ZM116.979 269.168H111.795L111.747 269.528C111.555 270.752 111.291 273.728 112.995 273.728C114.363 273.728 114.867 271.808 115.035 270.824H116.643C116.307 272.696 115.203 275.192 112.923 275.192C109.683 275.192 109.851 271.352 110.235 268.88C110.595 266.672 111.747 262.496 114.723 262.496C117.603 262.496 117.459 266.264 117.099 268.424L116.979 269.168ZM121.365 262.688L121.101 264.32H121.149C121.629 263.456 122.469 262.472 123.501 262.496L123.189 264.32L122.901 264.296C121.293 264.296 120.861 265.856 120.549 267.824L119.421 275H117.861L119.805 262.688H121.365ZM126.287 262.688L124.343 275H122.783L124.727 262.688H126.287ZM127.247 259.04C127.151 259.688 126.551 260.216 125.927 260.216C125.279 260.216 124.823 259.688 124.919 259.04C125.015 258.416 125.639 257.888 126.287 257.888C126.911 257.888 127.343 258.416 127.247 259.04ZM132.318 268.64C132.75 265.976 132.894 263.768 131.358 263.768C129.63 263.768 129.102 266.504 128.766 268.592C127.974 273.68 128.766 273.92 129.678 273.92C131.19 273.92 131.694 272.504 132.318 268.64ZM134.67 262.688L132.726 275H131.166L131.31 274.04H131.262C130.71 274.736 129.942 275.192 129.054 275.192C127.086 275.192 126.294 274.088 127.134 268.712C127.59 265.952 128.238 262.496 131.214 262.496C132.078 262.496 132.558 262.856 132.942 263.528H132.99L133.11 262.688H134.67ZM139.485 255.8L136.437 275H134.877L137.925 255.8H139.485ZM145.155 263.288L144.867 265.208H144.819C144.459 264.56 143.835 263.96 142.971 263.96C142.035 263.96 141.315 264.68 141.171 265.592C140.979 266.768 141.891 267.488 142.731 268.304C143.619 269.144 144.459 270.056 144.195 271.664C143.883 273.632 142.323 275.192 140.283 275.192C139.515 275.192 138.699 274.832 138.171 274.352L138.459 272.528C138.963 273.152 139.515 273.728 140.451 273.728C141.531 273.728 142.395 272.888 142.563 271.856C142.755 270.632 141.891 269.816 141.027 268.928C140.187 268.064 139.323 267.104 139.563 265.64C139.851 263.792 141.291 262.496 143.139 262.496C143.931 262.496 144.603 262.808 145.155 263.288ZM148.475 273.512L145.211 278.864L144.155 278.312L146.891 272.744L148.475 273.512ZM160.349 268.64C160.781 265.976 160.925 263.768 159.389 263.768C157.661 263.768 157.133 266.504 156.797 268.592C156.005 273.68 156.797 273.92 157.709 273.92C159.221 273.92 159.725 272.504 160.349 268.64ZM162.701 262.688L160.757 275H159.197L159.341 274.04H159.293C158.741 274.736 157.973 275.192 157.085 275.192C155.117 275.192 154.325 274.088 155.165 268.712C155.621 265.952 156.269 262.496 159.245 262.496C160.109 262.496 160.589 262.856 160.973 263.528H161.021L161.141 262.688H162.701ZM166.412 262.688L166.268 263.672C167.012 262.952 167.924 262.496 168.884 262.496C171.068 262.496 170.924 264.512 170.66 266.192L169.268 275H167.708L169.076 266.36C169.316 264.896 169.388 263.768 168.092 263.768C166.316 263.768 165.932 265.712 165.74 267.008L164.468 275H162.908L164.852 262.688H166.412ZM177.247 268.64C177.703 265.832 177.727 263.768 176.287 263.768C174.535 263.768 173.983 266.84 173.695 268.592C173.527 269.744 172.615 273.92 174.607 273.92C176.263 273.92 176.743 271.88 177.247 268.64ZM176.095 275L176.239 274.04H176.191C175.639 274.736 174.871 275.192 173.983 275.192C171.415 275.192 171.535 272.072 172.063 268.712C172.615 265.352 173.407 262.496 176.143 262.496C177.007 262.496 177.487 262.856 177.871 263.528H177.919L179.143 255.8H180.703L177.655 275H176.095ZM188.183 273.92C189.623 273.92 190.151 272.504 190.751 268.712C191.063 266.816 191.519 263.768 189.719 263.768C188.063 263.768 187.583 266.312 187.247 268.496C186.863 270.872 186.479 273.92 188.183 273.92ZM188.303 262.688L188.183 263.528H188.231C188.807 262.856 189.431 262.496 190.319 262.496C193.175 262.496 192.767 266.216 192.359 268.712C191.927 271.496 191.279 275.192 188.423 275.192C187.535 275.192 186.911 274.736 186.551 274.04H186.503L185.615 279.704H184.055L186.743 262.688H188.303ZM196.67 262.688L196.406 264.32H196.454C196.934 263.456 197.774 262.472 198.806 262.496L198.494 264.32L198.206 264.296C196.598 264.296 196.166 265.856 195.854 267.824L194.726 275H193.166L195.11 262.688H196.67ZM203.755 268.64C204.187 265.976 204.331 263.768 202.795 263.768C201.067 263.768 200.539 266.504 200.203 268.592C199.411 273.68 200.203 273.92 201.115 273.92C202.627 273.92 203.131 272.504 203.755 268.64ZM206.107 262.688L204.163 275H202.603L202.747 274.04H202.699C202.147 274.736 201.379 275.192 200.491 275.192C198.523 275.192 197.731 274.088 198.571 268.712C199.027 265.952 199.675 262.496 202.651 262.496C203.515 262.496 203.995 262.856 204.379 263.528H204.427L204.547 262.688H206.107ZM213.154 262.976L212.866 264.776C212.554 264.368 212.122 263.96 211.522 263.96C209.506 263.96 208.762 267.464 208.522 268.88C208.33 270.104 208.018 273.728 209.866 273.728C210.586 273.728 211.138 273.176 211.594 272.624H211.642L211.33 274.568C210.802 274.952 210.058 275.192 209.458 275.192C206.626 275.192 206.554 271.208 206.89 269.096C207.25 266.768 208.426 262.496 211.546 262.496C212.122 262.496 212.698 262.664 213.154 262.976ZM219.186 262.688L218.97 264.128H216.93L215.202 275H213.642L215.37 264.128H214.05L214.266 262.688H215.586L216.114 259.328H217.674L217.146 262.688H219.186ZM221.561 262.688L219.617 275H218.057L220.001 262.688H221.561ZM222.521 259.04C222.425 259.688 221.825 260.216 221.201 260.216C220.553 260.216 220.097 259.688 220.193 259.04C220.289 258.416 220.913 257.888 221.561 257.888C222.185 257.888 222.617 258.416 222.521 259.04ZM228.623 262.976L228.335 264.776C228.023 264.368 227.591 263.96 226.991 263.96C224.975 263.96 224.231 267.464 223.991 268.88C223.799 270.104 223.487 273.728 225.335 273.728C226.055 273.728 226.607 273.176 227.063 272.624H227.111L226.799 274.568C226.271 274.952 225.527 275.192 224.927 275.192C222.095 275.192 222.023 271.208 222.359 269.096C222.719 266.768 223.895 262.496 227.015 262.496C227.591 262.496 228.167 262.664 228.623 262.976ZM230.863 267.848H234.439L234.463 267.632C234.583 266.456 234.943 263.96 233.311 263.96C231.823 263.96 231.031 266.744 230.863 267.848ZM235.807 269.168H230.623L230.575 269.528C230.383 270.752 230.119 273.728 231.823 273.728C233.191 273.728 233.695 271.808 233.863 270.824H235.471C235.135 272.696 234.031 275.192 231.751 275.192C228.511 275.192 228.679 271.352 229.063 268.88C229.423 266.672 230.575 262.496 233.551 262.496C236.431 262.496 236.287 266.264 235.927 268.424L235.807 269.168ZM247.874 262.688L247.658 264.128H245.618L243.89 275H242.33L244.058 264.128H242.738L242.954 262.688H244.274L244.802 259.328H246.362L245.834 262.688H247.874ZM249.121 267.848H252.697L252.721 267.632C252.841 266.456 253.201 263.96 251.569 263.96C250.081 263.96 249.289 266.744 249.121 267.848ZM254.065 269.168H248.881L248.833 269.528C248.641 270.752 248.377 273.728 250.081 273.728C251.449 273.728 251.953 271.808 252.121 270.824H253.729C253.393 272.696 252.289 275.192 250.009 275.192C246.769 275.192 246.937 271.352 247.321 268.88C247.681 266.672 248.833 262.496 251.809 262.496C254.689 262.496 254.545 266.264 254.185 268.424L254.065 269.168ZM261.499 263.288L261.211 265.208H261.163C260.803 264.56 260.179 263.96 259.315 263.96C258.379 263.96 257.659 264.68 257.515 265.592C257.323 266.768 258.235 267.488 259.075 268.304C259.963 269.144 260.803 270.056 260.539 271.664C260.227 273.632 258.667 275.192 256.627 275.192C255.859 275.192 255.043 274.832 254.515 274.352L254.803 272.528C255.307 273.152 255.859 273.728 256.795 273.728C257.875 273.728 258.739 272.888 258.907 271.856C259.099 270.632 258.235 269.816 257.371 268.928C256.531 268.064 255.667 267.104 255.907 265.64C256.195 263.792 257.635 262.496 259.483 262.496C260.275 262.496 260.947 262.808 261.499 263.288ZM267.819 262.688L267.603 264.128H265.563L263.835 275H262.275L264.003 264.128H262.683L262.899 262.688H264.219L264.747 259.328H266.307L265.779 262.688H267.819ZM273.218 263.288L272.93 265.208H272.882C272.522 264.56 271.898 263.96 271.034 263.96C270.098 263.96 269.378 264.68 269.234 265.592C269.042 266.768 269.954 267.488 270.794 268.304C271.682 269.144 272.522 270.056 272.258 271.664C271.946 273.632 270.386 275.192 268.346 275.192C267.578 275.192 266.762 274.832 266.234 274.352L266.522 272.528C267.026 273.152 267.578 273.728 268.514 273.728C269.594 273.728 270.458 272.888 270.626 271.856C270.818 270.632 269.954 269.816 269.09 268.928C268.25 268.064 267.386 267.104 267.626 265.64C267.914 263.792 269.354 262.496 271.202 262.496C271.994 262.496 272.666 262.808 273.218 263.288ZM275.122 272.744C275.794 272.744 276.25 273.296 276.154 273.968C276.034 274.64 275.41 275.192 274.738 275.192C274.066 275.192 273.586 274.64 273.706 273.968C273.802 273.296 274.45 272.744 275.122 272.744Z" fill="white"/>
</svg>
