<svg width="382" height="302" viewBox="0 0 382 302" fill="none" xmlns="http://www.w3.org/2000/svg">
<path d="M310.672 0H71.328C35.5245 0 6.5 24.3478 6.5 54.3823V214.618C6.5 244.652 35.5245 269 71.328 269H310.672C346.476 269 375.5 244.652 375.5 214.618V54.3823C375.5 24.3478 346.476 0 310.672 0Z" fill="#0E3D68"/>
<path d="M67.0821 173H62.1861L65.0421 154.904H69.9381L67.0821 173ZM69.9673 173L72.8233 154.904H77.4793L79.6873 165.8L79.7353 165.752C79.8793 163.664 79.8313 161.6 80.1673 159.512L80.8873 154.904H85.5913L82.7353 173H78.0313L76.0393 162.56L75.9913 162.608C75.8233 164.312 75.7753 165.992 75.5113 167.696L74.6713 173H69.9673ZM92.3196 173H87.4236L89.5836 159.32H86.8956L87.5916 154.904H97.9836L97.2876 159.32H94.4796L92.3196 173ZM97.0845 173L99.9405 154.904H109.037L108.365 159.176H104.165L103.781 161.696H107.549L106.853 165.968H103.085L102.653 168.728H106.853L106.181 173H97.0845ZM121.949 173H116.645L115.133 165.464L115.061 165.512C114.965 166.4 114.869 167.288 114.725 168.176L113.957 173H109.061L111.917 154.904H116.645C120.893 154.904 123.773 156.152 123.029 160.928C122.717 162.92 121.565 164.696 119.501 165.464L121.949 173ZM115.493 163.256L115.805 163.28C117.101 163.28 117.989 162.152 118.157 160.976C118.421 159.392 117.557 158.72 116.213 158.792L115.493 163.256ZM123.545 173L126.401 154.904H131.057L133.265 165.8L133.313 165.752C133.457 163.664 133.409 161.6 133.745 159.512L134.465 154.904H139.169L136.313 173H131.609L129.617 162.56L129.569 162.608C129.401 164.312 129.353 165.992 129.089 167.696L128.249 173H123.545ZM152.114 173H147.05V170.672H143.762L142.994 173H137.954L145.154 154.904H151.13L152.114 173ZM145.034 166.832H147.098L147.218 162.632C147.266 161.504 147.338 160.352 147.41 159.224H147.362C147.026 160.352 146.738 161.504 146.354 162.632L145.034 166.832ZM159.562 173H154.666L156.826 159.32H154.138L154.834 154.904H165.226L164.53 159.32H161.722L159.562 173ZM169.223 173H164.327L167.183 154.904H172.079L169.223 173ZM172.996 163.952C173.692 159.536 176.404 154.592 181.372 154.592C186.34 154.592 187.516 159.536 186.82 163.952C186.124 168.368 183.388 173.312 178.42 173.312C173.452 173.312 172.3 168.368 172.996 163.952ZM177.988 163.952C177.796 165.08 177.292 168.752 179.14 168.752C180.988 168.752 181.636 165.08 181.828 163.952C181.996 162.824 182.5 159.152 180.652 159.152C178.804 159.152 178.156 162.824 177.988 163.952ZM187.741 173L190.597 154.904H195.253L197.461 165.8L197.509 165.752C197.653 163.664 197.605 161.6 197.941 159.512L198.661 154.904H203.365L200.509 173H195.805L193.813 162.56L193.765 162.608C193.597 164.312 193.549 165.992 193.285 167.696L192.445 173H187.741ZM216.309 173H211.245V170.672H207.957L207.189 173H202.149L209.349 154.904H215.325L216.309 173ZM209.229 166.832H211.293L211.413 162.632C211.461 161.504 211.533 160.352 211.605 159.224H211.557C211.221 160.352 210.933 161.504 210.549 162.632L209.229 166.832ZM226.496 173H217.928L220.784 154.904H225.68L223.496 168.728H227.168L226.496 173ZM235.155 173L238.011 154.904H247.107L246.435 159.176H242.235L241.851 161.696H245.619L244.923 165.968H241.155L240.723 168.728H244.923L244.251 173H235.155ZM247.131 173L249.987 154.904H254.643L256.851 165.8L256.899 165.752C257.043 163.664 256.995 161.6 257.331 159.512L258.051 154.904H262.755L259.899 173H255.195L253.203 162.56L253.155 162.608C252.987 164.312 252.939 165.992 252.675 167.696L251.835 173H247.131ZM270.66 162.536H277.476L277.38 163.304C276.684 167.768 274.932 173.312 269.268 173.312C263.94 173.312 262.956 168.632 263.676 164.048C264.396 159.56 266.868 154.592 272.172 154.592C275.1 154.592 276.996 156.44 277.644 159.056L272.628 160.808C272.7 160.088 272.412 158.96 271.548 158.96C269.292 158.96 268.812 163.112 268.596 164.48C268.476 165.776 267.876 168.944 269.772 168.944C271.068 168.944 271.716 167.408 271.86 166.352H270.06L270.66 162.536ZM286.567 173H277.999L280.855 154.904H285.751L283.567 168.728H287.239L286.567 173ZM293.465 173H288.569L291.425 154.904H296.321L293.465 173ZM295.966 172.568L296.854 166.904C297.382 167.912 298.39 168.92 299.638 168.92C300.31 168.92 301.15 168.512 301.27 167.72C301.342 167.288 301.246 166.976 301.03 166.712C300.862 166.448 300.622 166.232 300.334 166.016C299.494 165.272 298.774 164.576 298.27 163.712C297.814 162.872 297.574 161.864 297.79 160.544C298.126 158.432 300.07 154.592 304.246 154.592C305.422 154.592 306.646 154.952 307.582 155.504L306.718 161C306.286 160.088 305.278 159.056 304.15 159.056C303.574 159.056 302.806 159.464 302.71 160.16C302.638 160.544 302.806 160.88 303.022 161.168C303.238 161.456 303.574 161.696 303.79 161.912C304.702 162.632 305.422 163.304 305.854 164.12C306.286 164.936 306.454 165.896 306.238 167.264C305.71 170.624 302.926 173.312 299.518 173.312C298.27 173.312 297.046 173.048 295.966 172.568ZM319.79 173H314.894L316.046 165.656H313.718L312.566 173H307.67L310.526 154.904H315.422L314.414 161.384H316.742L317.75 154.904H322.646L319.79 173ZM55.8947 203H47.3267L50.1827 184.904H55.0787L52.8947 198.728H56.5667L55.8947 203ZM70.809 203H65.745V200.672H62.457L61.689 203H56.649L63.849 184.904H69.825L70.809 203ZM63.729 196.832H65.793L65.913 192.632C65.961 191.504 66.033 190.352 66.105 189.224H66.057C65.721 190.352 65.433 191.504 65.049 192.632L63.729 196.832ZM72.4283 203L75.2843 184.904H79.9403L82.1483 195.8L82.1963 195.752C82.3403 193.664 82.2923 191.6 82.6283 189.512L83.3483 184.904H88.0523L85.1963 203H80.4923L78.5003 192.56L78.4523 192.608C78.2843 194.312 78.2363 195.992 77.9723 197.696L77.1323 203H72.4283ZM95.9565 192.536H102.773L102.677 193.304C101.981 197.768 100.229 203.312 94.5645 203.312C89.2365 203.312 88.2525 198.632 88.9725 194.048C89.6925 189.56 92.1645 184.592 97.4685 184.592C100.397 184.592 102.293 186.44 102.941 189.056L97.9245 190.808C97.9965 190.088 97.7085 188.96 96.8445 188.96C94.5885 188.96 94.1085 193.112 93.8925 194.48C93.7725 195.776 93.1725 198.944 95.0685 198.944C96.3645 198.944 97.0125 197.408 97.1565 196.352H95.3565L95.9565 192.536ZM113.423 184.904H118.319L116.447 196.736C116.111 198.92 114.935 203.312 109.271 203.312C103.607 203.312 103.823 198.92 104.159 196.736L106.031 184.904H110.927L109.127 196.28C109.055 196.76 108.935 197.384 109.007 197.864C109.079 198.368 109.319 198.752 109.991 198.752C110.687 198.752 111.071 198.368 111.263 197.888C111.479 197.384 111.551 196.76 111.623 196.304L113.423 184.904ZM130.856 203H125.792V200.672H122.504L121.736 203H116.696L123.896 184.904H129.872L130.856 203ZM123.776 196.832H125.84L125.96 192.632C126.008 191.504 126.08 190.352 126.152 189.224H126.104C125.768 190.352 125.48 191.504 125.096 192.632L123.776 196.832ZM140.207 192.536H147.023L146.927 193.304C146.231 197.768 144.479 203.312 138.815 203.312C133.487 203.312 132.503 198.632 133.223 194.048C133.943 189.56 136.415 184.592 141.719 184.592C144.647 184.592 146.543 186.44 147.191 189.056L142.175 190.808C142.247 190.088 141.959 188.96 141.095 188.96C138.839 188.96 138.359 193.112 138.143 194.48C138.023 195.776 137.423 198.944 139.319 198.944C140.615 198.944 141.263 197.408 141.407 196.352H139.607L140.207 192.536ZM147.545 203L150.401 184.904H159.497L158.825 189.176H154.625L154.241 191.696H158.009L157.313 195.968H153.545L153.113 198.728H157.313L156.641 203H147.545ZM172.874 203H167.978L170.138 189.32H167.45L168.146 184.904H178.538L177.842 189.32H175.034L172.874 203ZM177.639 203L180.495 184.904H189.591L188.919 189.176H184.719L184.335 191.696H188.103L187.407 195.968H183.639L183.207 198.728H187.407L186.735 203H177.639ZM189.232 202.568L190.12 196.904C190.648 197.912 191.656 198.92 192.904 198.92C193.576 198.92 194.416 198.512 194.536 197.72C194.608 197.288 194.512 196.976 194.296 196.712C194.128 196.448 193.888 196.232 193.6 196.016C192.76 195.272 192.04 194.576 191.536 193.712C191.08 192.872 190.84 191.864 191.056 190.544C191.392 188.432 193.336 184.592 197.512 184.592C198.688 184.592 199.912 184.952 200.848 185.504L199.984 191C199.552 190.088 198.544 189.056 197.416 189.056C196.84 189.056 196.072 189.464 195.976 190.16C195.904 190.544 196.072 190.88 196.288 191.168C196.504 191.456 196.84 191.696 197.056 191.912C197.968 192.632 198.688 193.304 199.12 194.12C199.552 194.936 199.72 195.896 199.504 197.264C198.976 200.624 196.192 203.312 192.784 203.312C191.536 203.312 190.312 203.048 189.232 202.568ZM207.491 203H202.595L204.755 189.32H202.067L202.763 184.904H213.155L212.459 189.32H209.651L207.491 203ZM217.152 203H212.256L215.112 184.904H220.008L217.152 203ZM220.038 203L222.894 184.904H227.55L229.758 195.8L229.806 195.752C229.95 193.664 229.902 191.6 230.238 189.512L230.958 184.904H235.662L232.806 203H228.102L226.11 192.56L226.062 192.608C225.894 194.312 225.846 195.992 225.582 197.696L224.742 203H220.038ZM243.566 192.536H250.382L250.286 193.304C249.59 197.768 247.838 203.312 242.174 203.312C236.846 203.312 235.862 198.632 236.582 194.048C237.302 189.56 239.774 184.592 245.078 184.592C248.006 184.592 249.902 186.44 250.55 189.056L245.534 190.808C245.606 190.088 245.318 188.96 244.454 188.96C242.198 188.96 241.718 193.112 241.502 194.48C241.382 195.776 240.782 198.944 242.678 198.944C243.974 198.944 244.622 197.408 244.766 196.352H242.966L243.566 192.536ZM257.763 202.568L258.651 196.904C259.179 197.912 260.187 198.92 261.435 198.92C262.107 198.92 262.947 198.512 263.067 197.72C263.139 197.288 263.043 196.976 262.827 196.712C262.659 196.448 262.419 196.232 262.131 196.016C261.291 195.272 260.571 194.576 260.067 193.712C259.611 192.872 259.371 191.864 259.587 190.544C259.923 188.432 261.867 184.592 266.043 184.592C267.219 184.592 268.443 184.952 269.379 185.504L268.515 191C268.083 190.088 267.075 189.056 265.947 189.056C265.371 189.056 264.603 189.464 264.507 190.16C264.435 190.544 264.603 190.88 264.819 191.168C265.035 191.456 265.371 191.696 265.587 191.912C266.499 192.632 267.219 193.304 267.651 194.12C268.083 194.936 268.251 195.896 268.035 197.264C267.507 200.624 264.723 203.312 261.315 203.312C260.067 203.312 258.843 203.048 257.763 202.568ZM277.298 203H272.402L273.626 195.32L270.794 184.904H275.882L276.698 190.496H276.746L279.314 184.904H284.378L278.522 195.32L277.298 203ZM282.747 202.568L283.635 196.904C284.163 197.912 285.171 198.92 286.419 198.92C287.091 198.92 287.931 198.512 288.051 197.72C288.123 197.288 288.027 196.976 287.811 196.712C287.643 196.448 287.403 196.232 287.115 196.016C286.275 195.272 285.555 194.576 285.051 193.712C284.595 192.872 284.355 191.864 284.571 190.544C284.907 188.432 286.851 184.592 291.027 184.592C292.203 184.592 293.427 184.952 294.363 185.504L293.499 191C293.067 190.088 292.059 189.056 290.931 189.056C290.355 189.056 289.587 189.464 289.491 190.16C289.419 190.544 289.587 190.88 289.803 191.168C290.019 191.456 290.355 191.696 290.571 191.912C291.483 192.632 292.203 193.304 292.635 194.12C293.067 194.936 293.235 195.896 293.019 197.264C292.491 200.624 289.707 203.312 286.299 203.312C285.051 203.312 283.827 203.048 282.747 202.568ZM301.007 203H296.111L298.271 189.32H295.583L296.279 184.904H306.671L305.975 189.32H303.167L301.007 203ZM305.772 203L308.628 184.904H317.724L317.052 189.176H312.852L312.468 191.696H316.236L315.54 195.968H311.772L311.34 198.728H315.54L314.868 203H305.772ZM335.749 203H330.661L332.005 191.624H331.957C331.525 192.944 331.165 194.264 330.709 195.584L328.141 203H324.157L324.253 191.624H324.205C323.965 192.968 323.773 194.288 323.509 195.632L321.925 203H316.669L321.637 184.904H327.733L327.613 194.528H327.661C327.973 193.4 328.285 192.296 328.669 191.168L330.829 184.904H336.853L335.749 203Z" fill="#78C440"/>
<path d="M146.433 120H135.417V79.2841H146.433V120ZM152.925 120V79.2841H173.391V88.8961H163.941V94.5661H172.419V104.178H163.941V110.388H173.391V120H152.925ZM199.15 120H179.872V79.2841H190.888V110.388H199.15V120ZM217.403 120H206.387V89.2201H200.339V79.2841H223.721V89.2201H217.403V120ZM227.098 119.028V106.284C228.61 108.552 231.256 110.82 234.064 110.82C235.576 110.82 237.304 109.902 237.304 108.12C237.304 107.148 236.98 106.446 236.44 105.852C235.954 105.258 235.306 104.772 234.604 104.286C232.444 102.612 230.554 101.046 229.15 99.1021C227.8 97.2121 226.936 94.9441 226.936 91.9741C226.936 87.2221 229.96 78.5821 239.356 78.5821C242.002 78.5821 244.864 79.3921 247.186 80.6341V93.0001C245.89 90.9481 243.244 88.6261 240.706 88.6261C239.41 88.6261 237.844 89.5441 237.844 91.1101C237.844 91.9741 238.33 92.7301 238.924 93.3781C239.518 94.0261 240.328 94.5661 240.922 95.0521C243.244 96.6721 245.08 98.1841 246.322 100.02C247.618 101.856 248.32 104.016 248.32 107.094C248.32 114.654 243.028 120.702 235.36 120.702C232.552 120.702 229.69 120.108 227.098 119.028Z" fill="white"/>
</svg>
