<svg width="22" height="23" viewBox="0 0 22 23" fill="none" xmlns="http://www.w3.org/2000/svg">
<path d="M11 2.0709C13.9391 2.0709 14.2871 2.08437 15.443 2.13828C16.5172 2.1877 17.0973 2.37637 17.484 2.53359C17.9953 2.74023 18.3648 2.9918 18.7473 3.3916C19.134 3.7959 19.3703 4.17773 19.568 4.7123C19.7184 5.1166 19.8988 5.72754 19.9461 6.84609C19.9977 8.05898 20.0105 8.42285 20.0105 11.491C20.0105 14.5637 19.9977 14.9275 19.9461 16.1359C19.8988 17.259 19.7184 17.8654 19.568 18.2697C19.3703 18.8043 19.1297 19.1906 18.7473 19.5904C18.3605 19.9947 17.9953 20.2418 17.484 20.4484C17.0973 20.6057 16.5129 20.7943 15.443 20.8438C14.2828 20.8977 13.9348 20.9111 11 20.9111C8.06094 20.9111 7.71289 20.8977 6.55703 20.8438C5.48281 20.7943 4.90273 20.6057 4.51602 20.4484C4.00469 20.2418 3.63516 19.9902 3.25273 19.5904C2.86602 19.1861 2.62969 18.8043 2.43203 18.2697C2.28164 17.8654 2.10117 17.2545 2.05391 16.1359C2.00234 14.923 1.98945 14.5592 1.98945 11.491C1.98945 8.41836 2.00234 8.05449 2.05391 6.84609C2.10117 5.72305 2.28164 5.1166 2.43203 4.7123C2.62969 4.17773 2.87031 3.79141 3.25273 3.3916C3.63945 2.9873 4.00469 2.74023 4.51602 2.53359C4.90273 2.37637 5.48711 2.1877 6.55703 2.13828C7.71289 2.08437 8.06094 2.0709 11 2.0709ZM11 0C8.01367 0 7.63984 0.0134766 6.4668 0.0673828C5.29805 0.121289 4.49453 0.318945 3.79844 0.601953C3.07227 0.898437 2.45781 1.28926 1.84766 1.93164C1.2332 2.56953 0.859375 3.21191 0.575781 3.9666C0.305078 4.69883 0.116016 5.53437 0.0644531 6.75625C0.0128906 7.98711 0 8.37793 0 11.5C0 14.6221 0.0128906 15.0129 0.0644531 16.2393C0.116016 17.4611 0.305078 18.3012 0.575781 19.0289C0.859375 19.7881 1.2332 20.4305 1.84766 21.0684C2.45781 21.7062 3.07227 22.1016 3.79414 22.3936C4.49453 22.6766 5.29375 22.8742 6.4625 22.9281C7.63555 22.982 8.00937 22.9955 10.9957 22.9955C13.982 22.9955 14.3559 22.982 15.5289 22.9281C16.6977 22.8742 17.5012 22.6766 18.1973 22.3936C18.9191 22.1016 19.5336 21.7062 20.1437 21.0684C20.7539 20.4305 21.132 19.7881 21.4113 19.0334C21.682 18.3012 21.8711 17.4656 21.9227 16.2437C21.9742 15.0174 21.9871 14.6266 21.9871 11.5045C21.9871 8.38242 21.9742 7.9916 21.9227 6.76523C21.8711 5.54336 21.682 4.70332 21.4113 3.97559C21.1406 3.21191 20.7668 2.56953 20.1523 1.93164C19.5422 1.29375 18.9277 0.898438 18.2059 0.606445C17.5055 0.323437 16.7062 0.125781 15.5375 0.071875C14.3602 0.0134766 13.9863 0 11 0Z" fill="#C6E8FF"/>
<path d="M11 5.59277C7.88047 5.59277 5.34961 8.23867 5.34961 11.5C5.34961 14.7613 7.88047 17.4072 11 17.4072C14.1195 17.4072 16.6504 14.7613 16.6504 11.5C16.6504 8.23867 14.1195 5.59277 11 5.59277ZM11 15.3318C8.97617 15.3318 7.33477 13.6158 7.33477 11.5C7.33477 9.38418 8.97617 7.66816 11 7.66816C13.0238 7.66816 14.6652 9.38418 14.6652 11.5C14.6652 13.6158 13.0238 15.3318 11 15.3318Z" fill="#C6E8FF"/>
<path d="M18.193 5.35908C18.193 6.12276 17.6 6.73819 16.8738 6.73819C16.1434 6.73819 15.5547 6.11826 15.5547 5.35908C15.5547 4.59541 16.1477 3.97998 16.8738 3.97998C17.6 3.97998 18.193 4.5999 18.193 5.35908Z" fill="#C6E8FF"/>
</svg>
