<svg width="362" height="317" viewBox="0 0 362 317" fill="none" xmlns="http://www.w3.org/2000/svg">
<rect width="362" height="317" rx="50" fill="#44739E"/>
<path d="M67.8084 53.904L68.5764 72H66.7764L66.7044 68.28H62.8644L61.6164 72H59.8164L66.2244 53.904H67.8084ZM63.3684 66.816H66.6564L66.5604 59.88C66.5364 58.656 66.6324 57.408 66.6804 56.184H66.5844C66.2244 57.408 65.9124 58.656 65.5284 59.88L63.3684 66.816ZM75.854 59.688L75.638 61.128H73.598L71.87 72H70.31L72.038 61.128H70.718L70.934 59.688H72.254L72.782 56.328H74.342L73.814 59.688H75.854ZM81.7333 72H80.0533L82.9093 53.904H84.7813C87.3733 53.904 89.6533 54.144 88.9333 58.608C88.3813 62.112 86.9653 63.336 83.5333 63.336H83.1013L81.7333 72ZM84.3493 55.44L83.3413 61.8H83.9893C86.3413 61.8 86.7733 60.936 87.2053 58.608C87.6133 56.112 87.0373 55.44 84.6853 55.44H84.3493ZM93.2357 65.64C93.6677 62.976 93.8117 60.768 92.2757 60.768C90.5477 60.768 90.0197 63.504 89.6837 65.592C88.8917 70.68 89.6837 70.92 90.5957 70.92C92.1077 70.92 92.6117 69.504 93.2357 65.64ZM95.5877 59.688L93.6437 72H92.0837L92.2277 71.04H92.1797C91.6277 71.736 90.8597 72.192 89.9717 72.192C88.0037 72.192 87.2117 71.088 88.0517 65.712C88.5077 62.952 89.1557 59.496 92.1317 59.496C92.9957 59.496 93.4757 59.856 93.8597 60.528H93.9077L94.0277 59.688H95.5877ZM102.635 59.976L102.347 61.776C102.035 61.368 101.603 60.96 101.003 60.96C98.9868 60.96 98.2428 64.464 98.0028 65.88C97.8108 67.104 97.4988 70.728 99.3468 70.728C100.067 70.728 100.619 70.176 101.075 69.624H101.123L100.811 71.568C100.283 71.952 99.5388 72.192 98.9388 72.192C96.1068 72.192 96.0348 68.208 96.3708 66.096C96.7308 63.768 97.9068 59.496 101.027 59.496C101.603 59.496 102.179 59.664 102.635 59.976ZM105.979 59.688L104.035 72H102.475L104.419 59.688H105.979ZM106.939 56.04C106.843 56.688 106.243 57.216 105.619 57.216C104.971 57.216 104.515 56.688 104.611 56.04C104.707 55.416 105.331 54.888 105.979 54.888C106.603 54.888 107.035 55.416 106.939 56.04ZM111.985 59.688L111.769 61.128H109.729L108.001 72H106.441L108.169 61.128H106.849L107.065 59.688H108.385L108.961 56.04C109.321 53.88 110.065 52.608 111.817 52.608C112.273 52.608 112.753 52.68 113.137 52.872L112.873 54.576C112.585 54.312 112.273 54.048 111.817 54.048C110.953 54.048 110.713 54.84 110.521 56.016L109.945 59.688H111.985ZM114.697 59.688L112.753 72H111.193L113.137 59.688H114.697ZM115.657 56.04C115.561 56.688 114.961 57.216 114.337 57.216C113.689 57.216 113.233 56.688 113.329 56.04C113.425 55.416 114.049 54.888 114.697 54.888C115.321 54.888 115.753 55.416 115.657 56.04ZM121.76 59.976L121.472 61.776C121.16 61.368 120.728 60.96 120.128 60.96C118.112 60.96 117.368 64.464 117.128 65.88C116.936 67.104 116.624 70.728 118.472 70.728C119.192 70.728 119.744 70.176 120.2 69.624H120.248L119.936 71.568C119.408 71.952 118.664 72.192 118.064 72.192C115.232 72.192 115.16 68.208 115.496 66.096C115.856 63.768 117.032 59.496 120.152 59.496C120.728 59.496 121.304 59.664 121.76 59.976ZM137.344 53.904L134.488 72H133.024L130.864 59.832C130.72 59.088 130.72 58.272 130.624 57.504H130.528C130.408 58.68 130.336 59.832 130.168 61.008L128.416 72H126.952L129.808 53.904H131.272L133.432 66.48C133.552 67.104 133.624 67.728 133.696 68.352H133.768C133.84 67.56 133.864 66.744 133.984 65.952L135.88 53.904H137.344ZM138.869 59.688H140.429L139.205 67.416C138.941 69.096 138.773 70.728 140.309 70.728C141.893 70.728 142.229 69.096 142.517 67.416L143.741 59.688H145.301L143.885 68.736C143.549 70.8 142.325 72.192 140.117 72.192C137.933 72.192 137.117 70.824 137.453 68.736L138.869 59.688ZM148.916 59.688L148.652 61.32H148.7C149.18 60.456 150.02 59.472 151.052 59.496L150.74 61.32L150.452 61.296C148.844 61.296 148.412 62.856 148.1 64.824L146.972 72H145.412L147.356 59.688H148.916ZM156.886 60.288L156.598 62.208H156.55C156.19 61.56 155.566 60.96 154.702 60.96C153.766 60.96 153.046 61.68 152.902 62.592C152.71 63.768 153.622 64.488 154.462 65.304C155.35 66.144 156.19 67.056 155.926 68.664C155.614 70.632 154.054 72.192 152.014 72.192C151.246 72.192 150.43 71.832 149.902 71.352L150.19 69.528C150.694 70.152 151.246 70.728 152.182 70.728C153.262 70.728 154.126 69.888 154.294 68.856C154.486 67.632 153.622 66.816 152.758 65.928C151.918 65.064 151.054 64.104 151.294 62.64C151.582 60.792 153.022 59.496 154.87 59.496C155.662 59.496 156.334 59.808 156.886 60.288ZM160.518 59.688L158.574 72H157.014L158.958 59.688H160.518ZM161.478 56.04C161.382 56.688 160.782 57.216 160.158 57.216C159.51 57.216 159.054 56.688 159.15 56.04C159.246 55.416 159.87 54.888 160.518 54.888C161.142 54.888 161.574 55.416 161.478 56.04ZM164.244 59.688L164.1 60.672C164.844 59.952 165.756 59.496 166.716 59.496C168.9 59.496 168.756 61.512 168.492 63.192L167.1 72H165.54L166.908 63.36C167.148 61.896 167.22 60.768 165.924 60.768C164.148 60.768 163.764 62.712 163.572 64.008L162.3 72H160.74L162.684 59.688H164.244ZM171.455 66.048C171.239 67.392 170.687 70.728 172.655 70.728C174.311 70.728 174.767 68.304 175.199 65.616C175.559 63.36 175.823 60.768 174.119 60.768C172.991 60.768 172.175 61.536 171.455 66.048ZM177.551 59.688L175.535 72.456C175.175 74.76 174.743 76.896 171.623 76.896C169.463 76.896 168.647 75.6 168.983 73.488L169.055 73.032H170.591L170.567 73.248C170.375 74.4 170.519 75.432 171.863 75.432C173.615 75.432 173.711 73.896 173.927 72.576L174.167 71.136C173.543 71.736 172.847 72 172.031 72C168.959 72 169.583 67.752 169.919 65.568C170.255 63.504 171.143 59.496 173.999 59.496C174.839 59.496 175.463 59.88 175.823 60.528H175.871L175.991 59.688H177.551ZM180.948 70.512L177.684 75.864L176.628 75.312L179.364 69.744L180.948 70.512ZM199.71 59.688L195.054 72H193.446V63.072C193.446 62.64 193.518 62.184 193.542 61.752H193.47C193.278 62.496 193.11 63.24 192.87 63.984L190.278 72H188.694L188.142 59.688H189.726L189.75 66.96C189.75 67.896 189.798 68.808 189.822 69.744H189.918C190.182 68.808 190.422 67.896 190.71 66.96L193.062 59.688H194.646L194.598 68.208C194.598 68.712 194.574 69.24 194.574 69.744H194.646C194.886 68.952 195.102 68.136 195.39 67.344L198.126 59.688H199.71ZM201.507 64.848H205.083L205.107 64.632C205.227 63.456 205.587 60.96 203.955 60.96C202.467 60.96 201.675 63.744 201.507 64.848ZM206.451 66.168H201.267L201.219 66.528C201.027 67.752 200.763 70.728 202.467 70.728C203.835 70.728 204.339 68.808 204.507 67.824H206.115C205.779 69.696 204.675 72.192 202.395 72.192C199.155 72.192 199.323 68.352 199.707 65.88C200.067 63.672 201.219 59.496 204.195 59.496C207.075 59.496 206.931 63.264 206.571 65.424L206.451 66.168ZM218.878 60.288L218.59 62.208H218.542C218.182 61.56 217.558 60.96 216.694 60.96C215.758 60.96 215.038 61.68 214.894 62.592C214.702 63.768 215.614 64.488 216.454 65.304C217.342 66.144 218.182 67.056 217.918 68.664C217.606 70.632 216.046 72.192 214.006 72.192C213.238 72.192 212.422 71.832 211.894 71.352L212.182 69.528C212.686 70.152 213.238 70.728 214.174 70.728C215.254 70.728 216.118 69.888 216.286 68.856C216.478 67.632 215.614 66.816 214.75 65.928C213.91 65.064 213.046 64.104 213.286 62.64C213.574 60.792 215.014 59.496 216.862 59.496C217.654 59.496 218.326 59.808 218.878 60.288ZM222.39 70.92C223.83 70.92 224.358 69.504 224.958 65.712C225.27 63.816 225.726 60.768 223.926 60.768C222.27 60.768 221.79 63.312 221.454 65.496C221.07 67.872 220.686 70.92 222.39 70.92ZM222.51 59.688L222.39 60.528H222.438C223.014 59.856 223.638 59.496 224.526 59.496C227.382 59.496 226.974 63.216 226.566 65.712C226.134 68.496 225.486 72.192 222.63 72.192C221.742 72.192 221.118 71.736 220.758 71.04H220.71L219.822 76.704H218.262L220.95 59.688H222.51ZM229.773 64.848H233.349L233.373 64.632C233.493 63.456 233.853 60.96 232.221 60.96C230.733 60.96 229.941 63.744 229.773 64.848ZM234.717 66.168H229.533L229.485 66.528C229.293 67.752 229.029 70.728 230.733 70.728C232.101 70.728 232.605 68.808 232.773 67.824H234.381C234.045 69.696 232.941 72.192 230.661 72.192C227.421 72.192 227.589 68.352 227.973 65.88C228.333 63.672 229.485 59.496 232.461 59.496C235.341 59.496 235.197 63.264 234.837 65.424L234.717 66.168ZM242.44 59.976L242.152 61.776C241.84 61.368 241.408 60.96 240.808 60.96C238.792 60.96 238.048 64.464 237.808 65.88C237.616 67.104 237.304 70.728 239.152 70.728C239.872 70.728 240.424 70.176 240.88 69.624H240.928L240.616 71.568C240.088 71.952 239.344 72.192 238.744 72.192C235.912 72.192 235.84 68.208 236.176 66.096C236.536 63.768 237.712 59.496 240.832 59.496C241.408 59.496 241.984 59.664 242.44 59.976ZM245.783 59.688L243.839 72H242.279L244.223 59.688H245.783ZM246.743 56.04C246.647 56.688 246.047 57.216 245.423 57.216C244.775 57.216 244.319 56.688 244.415 56.04C244.511 55.416 245.135 54.888 245.783 54.888C246.407 54.888 246.839 55.416 246.743 56.04ZM251.814 65.64C252.246 62.976 252.39 60.768 250.854 60.768C249.126 60.768 248.598 63.504 248.262 65.592C247.47 70.68 248.262 70.92 249.174 70.92C250.686 70.92 251.19 69.504 251.814 65.64ZM254.166 59.688L252.222 72H250.662L250.806 71.04H250.758C250.206 71.736 249.438 72.192 248.55 72.192C246.582 72.192 245.79 71.088 246.63 65.712C247.086 62.952 247.734 59.496 250.71 59.496C251.574 59.496 252.054 59.856 252.438 60.528H252.486L252.606 59.688H254.166ZM258.981 52.8L255.933 72H254.373L257.421 52.8H258.981ZM261.627 59.688L259.683 72H258.123L260.067 59.688H261.627ZM262.587 56.04C262.491 56.688 261.891 57.216 261.267 57.216C260.619 57.216 260.163 56.688 260.259 56.04C260.355 55.416 260.979 54.888 261.627 54.888C262.251 54.888 262.683 55.416 262.587 56.04ZM267.778 70.56L267.538 72H261.13L267.73 61.128H263.53L263.746 59.688H270.298L263.602 70.56H267.778ZM272.195 64.848H275.771L275.795 64.632C275.915 63.456 276.275 60.96 274.643 60.96C273.155 60.96 272.363 63.744 272.195 64.848ZM277.139 66.168H271.955L271.907 66.528C271.715 67.752 271.451 70.728 273.155 70.728C274.523 70.728 275.027 68.808 275.195 67.824H276.803C276.467 69.696 275.363 72.192 273.083 72.192C269.843 72.192 270.011 68.352 270.395 65.88C270.755 63.672 271.907 59.496 274.883 59.496C277.763 59.496 277.619 63.264 277.259 65.424L277.139 66.168ZM286.518 59.688L284.574 72H283.014L284.958 59.688H286.518ZM287.478 56.04C287.382 56.688 286.782 57.216 286.158 57.216C285.51 57.216 285.054 56.688 285.15 56.04C285.246 55.416 285.87 54.888 286.518 54.888C287.142 54.888 287.574 55.416 287.478 56.04ZM290.244 59.688L290.1 60.672C290.844 59.952 291.756 59.496 292.716 59.496C294.9 59.496 294.756 61.512 294.492 63.192L293.1 72H291.54L292.908 63.36C293.148 61.896 293.22 60.768 291.924 60.768C290.148 60.768 289.764 62.712 289.572 64.008L288.3 72H286.74L288.684 59.688H290.244ZM67.264 95.048C67.048 96.392 66.496 99.728 68.464 99.728C70.12 99.728 70.576 97.304 71.008 94.616C71.368 92.36 71.632 89.768 69.928 89.768C68.8 89.768 67.984 90.536 67.264 95.048ZM73.36 88.688L71.344 101.456C70.984 103.76 70.552 105.896 67.432 105.896C65.272 105.896 64.456 104.6 64.792 102.488L64.864 102.032H66.4L66.376 102.248C66.184 103.4 66.328 104.432 67.672 104.432C69.424 104.432 69.52 102.896 69.736 101.576L69.976 100.136C69.352 100.736 68.656 101 67.84 101C64.768 101 65.392 96.752 65.728 94.568C66.064 92.504 66.952 88.496 69.808 88.496C70.648 88.496 71.272 88.88 71.632 89.528H71.68L71.8 88.688H73.36ZM75.4124 88.688H76.9724L75.7484 96.416C75.4844 98.096 75.3164 99.728 76.8524 99.728C78.4364 99.728 78.7724 98.096 79.0604 96.416L80.2844 88.688H81.8444L80.4284 97.736C80.0924 99.8 78.8684 101.192 76.6604 101.192C74.4764 101.192 73.6604 99.824 73.9964 97.736L75.4124 88.688ZM85.459 88.688L83.515 101H81.955L83.899 88.688H85.459ZM86.419 85.04C86.323 85.688 85.723 86.216 85.099 86.216C84.451 86.216 83.995 85.688 84.091 85.04C84.187 84.416 84.811 83.888 85.459 83.888C86.083 83.888 86.515 84.416 86.419 85.04ZM91.4896 94.64C91.9456 91.832 91.9696 89.768 90.5296 89.768C88.7776 89.768 88.2256 92.84 87.9376 94.592C87.7696 95.744 86.8576 99.92 88.8496 99.92C90.5056 99.92 90.9856 97.88 91.4896 94.64ZM90.3376 101L90.4816 100.04H90.4336C89.8816 100.736 89.1136 101.192 88.2256 101.192C85.6576 101.192 85.7776 98.072 86.3056 94.712C86.8576 91.352 87.6496 88.496 90.3856 88.496C91.2496 88.496 91.7296 88.856 92.1136 89.528H92.1616L93.3856 81.8H94.9456L91.8976 101H90.3376ZM97.5762 88.688L95.6322 101H94.0722L96.0162 88.688H97.5762ZM98.5362 85.04C98.4402 85.688 97.8402 86.216 97.2162 86.216C96.5682 86.216 96.1122 85.688 96.2082 85.04C96.3042 84.416 96.9282 83.888 97.5762 83.888C98.2002 83.888 98.6322 84.416 98.5362 85.04ZM101.303 88.688L101.159 89.672C101.903 88.952 102.815 88.496 103.775 88.496C105.959 88.496 105.815 90.512 105.551 92.192L104.159 101H102.599L103.967 92.36C104.207 90.896 104.279 89.768 102.983 89.768C101.207 89.768 100.823 91.712 100.631 93.008L99.3588 101H97.7988L99.7428 88.688H101.303ZM108.514 95.048C108.298 96.392 107.746 99.728 109.714 99.728C111.37 99.728 111.826 97.304 112.258 94.616C112.618 92.36 112.882 89.768 111.178 89.768C110.05 89.768 109.234 90.536 108.514 95.048ZM114.61 88.688L112.594 101.456C112.234 103.76 111.802 105.896 108.682 105.896C106.522 105.896 105.706 104.6 106.042 102.488L106.114 102.032H107.65L107.626 102.248C107.434 103.4 107.578 104.432 108.922 104.432C110.674 104.432 110.77 102.896 110.986 101.576L111.226 100.136C110.602 100.736 109.906 101 109.09 101C106.018 101 106.642 96.752 106.978 94.568C107.314 92.504 108.202 88.496 111.058 88.496C111.898 88.496 112.522 88.88 112.882 89.528H112.93L113.05 88.688H114.61ZM121.847 101H120.167L123.023 82.904H124.895C127.487 82.904 129.767 83.144 129.047 87.608C128.495 91.112 127.079 92.336 123.647 92.336H123.215L121.847 101ZM124.463 84.44L123.455 90.8H124.103C126.455 90.8 126.887 89.936 127.319 87.608C127.727 85.112 127.151 84.44 124.799 84.44H124.463ZM133.016 81.8L131.768 89.672C132.512 88.952 133.424 88.496 134.384 88.496C136.64 88.496 136.448 90.464 136.16 92.192L134.768 101H133.208L134.552 92.456C134.864 90.536 134.768 89.768 133.592 89.768C131.816 89.768 131.432 91.712 131.24 93.008L129.968 101H128.408L131.456 81.8H133.016ZM140.443 88.688L138.499 101H136.939L138.883 88.688H140.443ZM141.403 85.04C141.307 85.688 140.707 86.216 140.083 86.216C139.435 86.216 138.979 85.688 139.075 85.04C139.171 84.416 139.795 83.888 140.443 83.888C141.067 83.888 141.499 84.416 141.403 85.04ZM145.274 81.8L142.226 101H140.666L143.714 81.8H145.274ZM147.92 88.688L145.976 101H144.416L146.36 88.688H147.92ZM148.88 85.04C148.784 85.688 148.184 86.216 147.56 86.216C146.912 86.216 146.456 85.688 146.552 85.04C146.648 84.416 147.272 83.888 147.92 83.888C148.544 83.888 148.976 84.416 148.88 85.04ZM151.527 99.92C152.967 99.92 153.495 98.504 154.095 94.712C154.407 92.816 154.863 89.768 153.062 89.768C151.407 89.768 150.927 92.312 150.59 94.496C150.207 96.872 149.823 99.92 151.527 99.92ZM151.647 88.688L151.527 89.528H151.575C152.151 88.856 152.775 88.496 153.663 88.496C156.519 88.496 156.111 92.216 155.703 94.712C155.271 97.496 154.623 101.192 151.767 101.192C150.879 101.192 150.255 100.736 149.895 100.04H149.847L148.959 105.704H147.399L150.087 88.688H151.647ZM159.894 99.92C161.334 99.92 161.862 98.504 162.462 94.712C162.774 92.816 163.23 89.768 161.43 89.768C159.774 89.768 159.294 92.312 158.958 94.496C158.574 96.872 158.19 99.92 159.894 99.92ZM160.014 88.688L159.894 89.528H159.942C160.518 88.856 161.142 88.496 162.03 88.496C164.886 88.496 164.478 92.216 164.07 94.712C163.638 97.496 162.99 101.192 160.134 101.192C159.246 101.192 158.622 100.736 158.262 100.04H158.214L157.326 105.704H155.766L158.454 88.688H160.014ZM168.381 88.688L166.437 101H164.877L166.821 88.688H168.381ZM169.341 85.04C169.245 85.688 168.645 86.216 168.021 86.216C167.373 86.216 166.917 85.688 167.013 85.04C167.109 84.416 167.733 83.888 168.381 83.888C169.005 83.888 169.437 84.416 169.341 85.04ZM172.107 88.688L171.963 89.672C172.707 88.952 173.619 88.496 174.579 88.496C176.763 88.496 176.619 90.512 176.355 92.192L174.963 101H173.403L174.771 92.36C175.011 90.896 175.083 89.768 173.787 89.768C172.011 89.768 171.627 91.712 171.435 93.008L170.163 101H168.603L170.547 88.688H172.107ZM179.535 93.848H183.111L183.135 93.632C183.255 92.456 183.615 89.96 181.983 89.96C180.495 89.96 179.703 92.744 179.535 93.848ZM184.479 95.168H179.295L179.247 95.528C179.055 96.752 178.791 99.728 180.495 99.728C181.863 99.728 182.367 97.808 182.535 96.824H184.143C183.807 98.696 182.703 101.192 180.423 101.192C177.183 101.192 177.351 97.352 177.735 94.88C178.095 92.672 179.247 88.496 182.223 88.496C185.103 88.496 184.959 92.264 184.599 94.424L184.479 95.168ZM193.857 88.688L193.713 89.672C194.457 88.952 195.369 88.496 196.329 88.496C198.513 88.496 198.369 90.512 198.105 92.192L196.713 101H195.153L196.521 92.36C196.761 90.896 196.833 89.768 195.537 89.768C193.761 89.768 193.377 91.712 193.185 93.008L191.913 101H190.353L192.297 88.688H193.857ZM200.733 88.688H202.293L201.069 96.416C200.805 98.096 200.637 99.728 202.173 99.728C203.757 99.728 204.093 98.096 204.381 96.416L205.605 88.688H207.165L205.749 97.736C205.413 99.8 204.189 101.192 201.981 101.192C199.797 101.192 198.981 99.824 199.317 97.736L200.733 88.688ZM210.779 88.688L210.515 90.32H210.563C211.043 89.456 211.883 88.472 212.915 88.496L212.603 90.32L212.315 90.296C210.707 90.296 210.275 91.856 209.963 93.824L208.835 101H207.275L209.219 88.688H210.779ZM218.749 89.288L218.461 91.208H218.413C218.053 90.56 217.429 89.96 216.565 89.96C215.629 89.96 214.909 90.68 214.765 91.592C214.573 92.768 215.485 93.488 216.325 94.304C217.213 95.144 218.053 96.056 217.789 97.664C217.477 99.632 215.917 101.192 213.877 101.192C213.109 101.192 212.293 100.832 211.765 100.352L212.053 98.528C212.557 99.152 213.109 99.728 214.045 99.728C215.125 99.728 215.989 98.888 216.157 97.856C216.349 96.632 215.485 95.816 214.621 94.928C213.781 94.064 212.917 93.104 213.157 91.64C213.445 89.792 214.885 88.496 216.733 88.496C217.525 88.496 218.197 88.808 218.749 89.288ZM221.277 93.848H224.853L224.877 93.632C224.997 92.456 225.357 89.96 223.725 89.96C222.237 89.96 221.445 92.744 221.277 93.848ZM226.221 95.168H221.037L220.989 95.528C220.797 96.752 220.533 99.728 222.237 99.728C223.605 99.728 224.109 97.808 224.277 96.824H225.885C225.549 98.696 224.445 101.192 222.165 101.192C218.925 101.192 219.093 97.352 219.477 94.88C219.837 92.672 220.989 88.496 223.965 88.496C226.845 88.496 226.701 92.264 226.341 94.424L226.221 95.168ZM233.655 89.288L233.367 91.208H233.319C232.959 90.56 232.335 89.96 231.471 89.96C230.535 89.96 229.815 90.68 229.671 91.592C229.479 92.768 230.391 93.488 231.231 94.304C232.119 95.144 232.959 96.056 232.695 97.664C232.383 99.632 230.823 101.192 228.783 101.192C228.015 101.192 227.199 100.832 226.671 100.352L226.959 98.528C227.463 99.152 228.015 99.728 228.951 99.728C230.031 99.728 230.895 98.888 231.063 97.856C231.255 96.632 230.391 95.816 229.527 94.928C228.687 94.064 227.823 93.104 228.063 91.64C228.351 89.792 229.791 88.496 231.639 88.496C232.431 88.496 233.103 88.808 233.655 89.288ZM244.967 88.688L244.751 90.128H242.711L240.983 101H239.423L241.151 90.128H239.831L240.047 88.688H241.367L241.895 85.328H243.455L242.927 88.688H244.967ZM248.446 81.8L247.198 89.672C247.942 88.952 248.854 88.496 249.814 88.496C252.07 88.496 251.878 90.464 251.59 92.192L250.198 101H248.638L249.982 92.456C250.294 90.536 250.198 89.768 249.022 89.768C247.246 89.768 246.862 91.712 246.67 93.008L245.398 101H243.838L246.886 81.8H248.446ZM255.873 88.688L255.609 90.32H255.657C256.137 89.456 256.977 88.472 258.009 88.496L257.697 90.32L257.409 90.296C255.801 90.296 255.369 91.856 255.057 93.824L253.929 101H252.369L254.313 88.688H255.873ZM262.31 88.496C265.55 88.496 265.19 92.528 264.83 94.832C264.446 97.16 263.534 101.192 260.294 101.192C257.054 101.192 257.39 97.16 257.774 94.832C258.134 92.528 259.07 88.496 262.31 88.496ZM262.07 89.96C260.198 89.96 259.55 93.656 259.382 94.832C259.19 96.032 258.638 99.728 260.51 99.728C262.382 99.728 263.03 96.032 263.222 94.832C263.39 93.656 263.942 89.96 262.07 89.96ZM267.53 88.688H269.09L267.866 96.416C267.602 98.096 267.434 99.728 268.97 99.728C270.554 99.728 270.89 98.096 271.178 96.416L272.402 88.688H273.962L272.546 97.736C272.21 99.8 270.986 101.192 268.778 101.192C266.594 101.192 265.778 99.824 266.114 97.736L267.53 88.688ZM276.256 95.048C276.04 96.392 275.488 99.728 277.456 99.728C279.112 99.728 279.568 97.304 280 94.616C280.36 92.36 280.624 89.768 278.92 89.768C277.792 89.768 276.976 90.536 276.256 95.048ZM282.352 88.688L280.336 101.456C279.976 103.76 279.544 105.896 276.424 105.896C274.264 105.896 273.448 104.6 273.784 102.488L273.856 102.032H275.392L275.368 102.248C275.176 103.4 275.32 104.432 276.664 104.432C278.416 104.432 278.512 102.896 278.728 101.576L278.968 100.136C278.344 100.736 277.648 101 276.832 101C273.76 101 274.384 96.752 274.72 94.568C275.056 92.504 275.944 88.496 278.8 88.496C279.64 88.496 280.264 88.88 280.624 89.528H280.672L280.792 88.688H282.352ZM287.165 81.8L285.917 89.672C286.661 88.952 287.573 88.496 288.533 88.496C290.789 88.496 290.597 90.464 290.309 92.192L288.917 101H287.357L288.701 92.456C289.013 90.536 288.917 89.768 287.741 89.768C285.965 89.768 285.581 91.712 285.389 93.008L284.117 101H282.557L285.605 81.8H287.165ZM73.7681 117.688L73.5521 119.128H71.5121L69.7841 130H68.2241L69.9521 119.128H68.6321L68.8481 117.688H70.1681L70.6961 114.328H72.2561L71.7281 117.688H73.7681ZM77.2466 110.8L75.9986 118.672C76.7426 117.952 77.6546 117.496 78.6146 117.496C80.8706 117.496 80.6786 119.464 80.3906 121.192L78.9986 130H77.4386L78.7826 121.456C79.0946 119.536 78.9986 118.768 77.8226 118.768C76.0466 118.768 75.6626 120.712 75.4706 122.008L74.1986 130H72.6386L75.6866 110.8H77.2466ZM83.5698 122.848H87.1458L87.1698 122.632C87.2898 121.456 87.6498 118.96 86.0178 118.96C84.5298 118.96 83.7378 121.744 83.5698 122.848ZM88.5138 124.168H83.3298L83.2818 124.528C83.0898 125.752 82.8258 128.728 84.5298 128.728C85.8978 128.728 86.4018 126.808 86.5698 125.824H88.1778C87.8418 127.696 86.7378 130.192 84.4578 130.192C81.2178 130.192 81.3858 126.352 81.7698 123.88C82.1298 121.672 83.2818 117.496 86.2578 117.496C89.1378 117.496 88.9938 121.264 88.6338 123.424L88.5138 124.168ZM97.8926 117.688L95.9486 130H94.3886L96.3326 117.688H97.8926ZM98.8526 114.04C98.7566 114.688 98.1566 115.216 97.5326 115.216C96.8846 115.216 96.4286 114.688 96.5246 114.04C96.6206 113.416 97.2446 112.888 97.8926 112.888C98.5166 112.888 98.9486 113.416 98.8526 114.04ZM101.619 117.688L101.451 118.72H101.499C102.171 118 103.107 117.496 104.043 117.496C105.051 117.496 105.819 118.024 106.083 118.96C106.875 118.048 107.739 117.496 108.867 117.496C111.171 117.496 111.051 119.32 110.763 121.144L109.371 130H107.811L109.203 121.192C109.395 120.016 109.467 118.768 108.195 118.768C106.347 118.768 105.963 120.856 105.723 122.416L104.523 130H102.963L104.355 121.216C104.547 120.064 104.667 118.768 103.395 118.768C101.499 118.768 101.091 121.12 100.827 122.68L99.6752 130H98.1152L100.059 117.688H101.619ZM115.025 117.688L114.857 118.72H114.905C115.577 118 116.513 117.496 117.449 117.496C118.457 117.496 119.225 118.024 119.489 118.96C120.281 118.048 121.145 117.496 122.273 117.496C124.577 117.496 124.457 119.32 124.169 121.144L122.777 130H121.217L122.609 121.192C122.801 120.016 122.873 118.768 121.601 118.768C119.753 118.768 119.369 120.856 119.129 122.416L117.929 130H116.369L117.761 121.216C117.953 120.064 118.073 118.768 116.801 118.768C114.905 118.768 114.497 121.12 114.233 122.68L113.081 130H111.521L113.465 117.688H115.025ZM128.432 117.688L126.488 130H124.928L126.872 117.688H128.432ZM129.392 114.04C129.296 114.688 128.696 115.216 128.072 115.216C127.424 115.216 126.968 114.688 127.064 114.04C127.16 113.416 127.784 112.888 128.432 112.888C129.056 112.888 129.488 113.416 129.392 114.04ZM130.838 124.048C130.622 125.392 130.07 128.728 132.038 128.728C133.694 128.728 134.15 126.304 134.582 123.616C134.942 121.36 135.206 118.768 133.502 118.768C132.374 118.768 131.558 119.536 130.838 124.048ZM136.934 117.688L134.918 130.456C134.558 132.76 134.126 134.896 131.006 134.896C128.846 134.896 128.03 133.6 128.366 131.488L128.438 131.032H129.974L129.95 131.248C129.758 132.4 129.902 133.432 131.246 133.432C132.998 133.432 133.094 131.896 133.31 130.576L133.55 129.136C132.926 129.736 132.23 130 131.414 130C128.342 130 128.966 125.752 129.302 123.568C129.638 121.504 130.526 117.496 133.382 117.496C134.222 117.496 134.846 117.88 135.206 118.528H135.254L135.374 117.688H136.934ZM140.643 117.688L140.379 119.32H140.427C140.907 118.456 141.747 117.472 142.779 117.496L142.467 119.32L142.179 119.296C140.571 119.296 140.139 120.856 139.827 122.824L138.699 130H137.139L139.083 117.688H140.643ZM147.728 123.64C148.16 120.976 148.304 118.768 146.768 118.768C145.04 118.768 144.512 121.504 144.176 123.592C143.384 128.68 144.176 128.92 145.088 128.92C146.6 128.92 147.104 127.504 147.728 123.64ZM150.08 117.688L148.136 130H146.576L146.72 129.04H146.672C146.12 129.736 145.352 130.192 144.464 130.192C142.496 130.192 141.704 129.088 142.544 123.712C143 120.952 143.648 117.496 146.624 117.496C147.488 117.496 147.968 117.856 148.352 118.528H148.4L148.52 117.688H150.08ZM156.479 117.688L156.263 119.128H154.223L152.495 130H150.935L152.663 119.128H151.343L151.559 117.688H152.879L153.407 114.328H154.967L154.439 117.688H156.479ZM158.854 117.688L156.91 130H155.35L157.294 117.688H158.854ZM159.814 114.04C159.718 114.688 159.118 115.216 158.494 115.216C157.846 115.216 157.39 114.688 157.486 114.04C157.582 113.416 158.206 112.888 158.854 112.888C159.478 112.888 159.91 113.416 159.814 114.04ZM164.236 117.496C167.476 117.496 167.116 121.528 166.756 123.832C166.372 126.16 165.46 130.192 162.22 130.192C158.98 130.192 159.316 126.16 159.7 123.832C160.06 121.528 160.996 117.496 164.236 117.496ZM163.996 118.96C162.124 118.96 161.476 122.656 161.308 123.832C161.116 125.032 160.564 128.728 162.436 128.728C164.308 128.728 164.956 125.032 165.148 123.832C165.316 122.656 165.868 118.96 163.996 118.96ZM171.111 117.688L170.967 118.672C171.711 117.952 172.623 117.496 173.583 117.496C175.767 117.496 175.623 119.512 175.359 121.192L173.967 130H172.407L173.775 121.36C174.015 119.896 174.087 118.768 172.791 118.768C171.015 118.768 170.631 120.712 170.439 122.008L169.167 130H167.607L169.551 117.688H171.111ZM184.515 128.92C185.955 128.92 186.483 127.504 187.083 123.712C187.395 121.816 187.851 118.768 186.051 118.768C184.395 118.768 183.915 121.312 183.579 123.496C183.195 125.872 182.811 128.92 184.515 128.92ZM184.635 117.688L184.515 118.528H184.563C185.139 117.856 185.763 117.496 186.651 117.496C189.507 117.496 189.099 121.216 188.691 123.712C188.259 126.496 187.611 130.192 184.755 130.192C183.867 130.192 183.243 129.736 182.883 129.04H182.835L181.947 134.704H180.387L183.075 117.688H184.635ZM193.002 117.688L192.738 119.32H192.786C193.266 118.456 194.106 117.472 195.138 117.496L194.826 119.32L194.538 119.296C192.93 119.296 192.498 120.856 192.186 122.824L191.058 130H189.498L191.442 117.688H193.002ZM199.439 117.496C202.679 117.496 202.319 121.528 201.959 123.832C201.575 126.16 200.663 130.192 197.423 130.192C194.183 130.192 194.519 126.16 194.903 123.832C195.263 121.528 196.199 117.496 199.439 117.496ZM199.199 118.96C197.327 118.96 196.679 122.656 196.511 123.832C196.319 125.032 195.767 128.728 197.639 128.728C199.511 128.728 200.159 125.032 200.351 123.832C200.519 122.656 201.071 118.96 199.199 118.96ZM209.65 117.976L209.362 119.776C209.05 119.368 208.618 118.96 208.018 118.96C206.002 118.96 205.258 122.464 205.018 123.88C204.826 125.104 204.514 128.728 206.362 128.728C207.082 128.728 207.634 128.176 208.09 127.624H208.138L207.826 129.568C207.298 129.952 206.554 130.192 205.954 130.192C203.122 130.192 203.05 126.208 203.386 124.096C203.746 121.768 204.922 117.496 208.042 117.496C208.618 117.496 209.194 117.664 209.65 117.976ZM211.89 122.848H215.466L215.49 122.632C215.61 121.456 215.97 118.96 214.338 118.96C212.85 118.96 212.058 121.744 211.89 122.848ZM216.834 124.168H211.65L211.602 124.528C211.41 125.752 211.146 128.728 212.85 128.728C214.218 128.728 214.722 126.808 214.89 125.824H216.498C216.162 127.696 215.058 130.192 212.778 130.192C209.538 130.192 209.706 126.352 210.09 123.88C210.45 121.672 211.602 117.496 214.578 117.496C217.458 117.496 217.314 121.264 216.954 123.424L216.834 124.168ZM224.269 118.288L223.981 120.208H223.933C223.573 119.56 222.949 118.96 222.085 118.96C221.149 118.96 220.429 119.68 220.285 120.592C220.093 121.768 221.005 122.488 221.845 123.304C222.733 124.144 223.573 125.056 223.309 126.664C222.997 128.632 221.437 130.192 219.397 130.192C218.629 130.192 217.813 129.832 217.285 129.352L217.573 127.528C218.077 128.152 218.629 128.728 219.565 128.728C220.645 128.728 221.509 127.888 221.677 126.856C221.869 125.632 221.005 124.816 220.141 123.928C219.301 123.064 218.437 122.104 218.677 120.64C218.965 118.792 220.405 117.496 222.253 117.496C223.045 117.496 223.717 117.808 224.269 118.288ZM230.948 118.288L230.66 120.208H230.612C230.252 119.56 229.628 118.96 228.764 118.96C227.828 118.96 227.108 119.68 226.964 120.592C226.772 121.768 227.684 122.488 228.524 123.304C229.412 124.144 230.252 125.056 229.988 126.664C229.676 128.632 228.116 130.192 226.076 130.192C225.308 130.192 224.492 129.832 223.964 129.352L224.252 127.528C224.756 128.152 225.308 128.728 226.244 128.728C227.324 128.728 228.188 127.888 228.356 126.856C228.548 125.632 227.684 124.816 226.82 123.928C225.98 123.064 225.116 122.104 225.356 120.64C225.644 118.792 227.084 117.496 228.932 117.496C229.724 117.496 230.396 117.808 230.948 118.288ZM242.26 117.688L242.044 119.128H240.004L238.276 130H236.716L238.444 119.128H237.124L237.34 117.688H238.66L239.188 114.328H240.748L240.22 117.688H242.26ZM246.267 117.496C249.507 117.496 249.147 121.528 248.787 123.832C248.403 126.16 247.491 130.192 244.251 130.192C241.011 130.192 241.347 126.16 241.731 123.832C242.091 121.528 243.027 117.496 246.267 117.496ZM246.027 118.96C244.155 118.96 243.507 122.656 243.339 123.832C243.147 125.032 242.595 128.728 244.467 128.728C246.339 128.728 246.987 125.032 247.179 123.832C247.347 122.656 247.899 118.96 246.027 118.96ZM267.327 117.688L262.671 130H261.063V121.072C261.063 120.64 261.135 120.184 261.159 119.752H261.087C260.895 120.496 260.727 121.24 260.487 121.984L257.895 130H256.311L255.759 117.688H257.343L257.367 124.96C257.367 125.896 257.415 126.808 257.439 127.744H257.535C257.799 126.808 258.039 125.896 258.327 124.96L260.679 117.688H262.263L262.215 126.208C262.215 126.712 262.191 127.24 262.191 127.744H262.263C262.503 126.952 262.719 126.136 263.007 125.344L265.743 117.688H267.327ZM271.885 117.496C275.125 117.496 274.765 121.528 274.405 123.832C274.021 126.16 273.109 130.192 269.869 130.192C266.629 130.192 266.965 126.16 267.349 123.832C267.709 121.528 268.645 117.496 271.885 117.496ZM271.645 118.96C269.773 118.96 269.125 122.656 268.957 123.832C268.765 125.032 268.213 128.728 270.085 128.728C271.957 128.728 272.605 125.032 272.797 123.832C272.965 122.656 273.517 118.96 271.645 118.96ZM278.76 117.688L278.496 119.32H278.544C279.024 118.456 279.864 117.472 280.896 117.496L280.584 119.32L280.296 119.296C278.688 119.296 278.256 120.856 277.944 122.824L276.816 130H275.256L277.2 117.688H278.76ZM284.786 110.8L282.89 122.68H282.938L286.73 117.688H288.506L283.97 123.208L287.522 130H285.578L282.722 124.096H282.674L281.738 130H280.178L283.226 110.8H284.786ZM77.1035 146.688L75.1595 159H73.5995L75.5435 146.688H77.1035ZM78.0635 143.04C77.9675 143.688 77.3675 144.216 76.7435 144.216C76.0955 144.216 75.6395 143.688 75.7355 143.04C75.8315 142.416 76.4555 141.888 77.1035 141.888C77.7275 141.888 78.1595 142.416 78.0635 143.04ZM80.8301 146.688L80.6861 147.672C81.4301 146.952 82.3421 146.496 83.3021 146.496C85.4861 146.496 85.3421 148.512 85.0781 150.192L83.6861 159H82.1261L83.4941 150.36C83.7341 148.896 83.8061 147.768 82.5101 147.768C80.7341 147.768 80.3501 149.712 80.1581 151.008L78.8861 159H77.3261L79.2701 146.688H80.8301ZM97.0415 146.688L96.8255 148.128H94.7855L93.0575 159H91.4975L93.2255 148.128H91.9055L92.1215 146.688H93.4415L93.9695 143.328H95.5295L95.0015 146.688H97.0415ZM100.52 139.8L99.272 147.672C100.016 146.952 100.928 146.496 101.888 146.496C104.144 146.496 103.952 148.464 103.664 150.192L102.272 159H100.712L102.056 150.456C102.368 148.536 102.272 147.768 101.096 147.768C99.32 147.768 98.936 149.712 98.744 151.008L97.472 159H95.912L98.96 139.8H100.52ZM106.843 151.848H110.419L110.443 151.632C110.563 150.456 110.923 147.96 109.291 147.96C107.803 147.96 107.011 150.744 106.843 151.848ZM111.787 153.168H106.603L106.555 153.528C106.363 154.752 106.099 157.728 107.803 157.728C109.171 157.728 109.675 155.808 109.843 154.824H111.451C111.115 156.696 110.011 159.192 107.731 159.192C104.491 159.192 104.659 155.352 105.043 152.88C105.403 150.672 106.555 146.496 109.531 146.496C112.411 146.496 112.267 150.264 111.907 152.424L111.787 153.168ZM127.804 140.904L125.86 153.264C125.332 156.6 124.636 159.24 121.108 159.24C117.484 159.24 117.748 156.504 118.276 153.264L120.22 140.904H121.9L119.956 153.168C119.5 156.168 119.428 157.608 121.372 157.608C123.292 157.608 123.724 156.168 124.18 153.168L126.124 140.904H127.804ZM130.893 146.688L130.749 147.672C131.493 146.952 132.405 146.496 133.365 146.496C135.549 146.496 135.405 148.512 135.141 150.192L133.749 159H132.189L133.557 150.36C133.797 148.896 133.869 147.768 132.573 147.768C130.797 147.768 130.413 149.712 130.221 151.008L128.949 159H127.389L129.333 146.688H130.893ZM139.424 146.688L137.48 159H135.92L137.864 146.688H139.424ZM140.384 143.04C140.288 143.688 139.688 144.216 139.064 144.216C138.416 144.216 137.96 143.688 138.056 143.04C138.152 142.416 138.776 141.888 139.424 141.888C140.048 141.888 140.48 142.416 140.384 143.04ZM145.838 146.688L145.622 148.128H143.582L141.854 159H140.294L142.022 148.128H140.702L140.918 146.688H142.238L142.766 143.328H144.326L143.798 146.688H145.838ZM147.085 151.848H150.661L150.685 151.632C150.805 150.456 151.165 147.96 149.533 147.96C148.045 147.96 147.253 150.744 147.085 151.848ZM152.029 153.168H146.845L146.797 153.528C146.605 154.752 146.341 157.728 148.045 157.728C149.413 157.728 149.917 155.808 150.085 154.824H151.693C151.357 156.696 150.253 159.192 147.973 159.192C144.733 159.192 144.901 155.352 145.285 152.88C145.645 150.672 146.797 146.496 149.773 146.496C152.653 146.496 152.509 150.264 152.149 152.424L152.029 153.168ZM158.72 152.64C159.176 149.832 159.2 147.768 157.76 147.768C156.008 147.768 155.456 150.84 155.168 152.592C155 153.744 154.088 157.92 156.08 157.92C157.736 157.92 158.216 155.88 158.72 152.64ZM157.568 159L157.712 158.04H157.664C157.112 158.736 156.344 159.192 155.456 159.192C152.888 159.192 153.008 156.072 153.536 152.712C154.088 149.352 154.88 146.496 157.616 146.496C158.48 146.496 158.96 146.856 159.344 147.528H159.392L160.616 139.8H162.176L159.128 159H157.568ZM175.679 141.624L175.343 143.76C174.743 142.944 174.047 142.296 172.895 142.296C171.215 142.296 170.063 143.688 169.823 145.224C169.487 147.336 170.855 148.32 172.271 149.376C173.615 150.456 174.983 151.608 174.575 154.104C174.167 156.744 172.055 159.24 169.223 159.24C168.215 159.24 167.231 158.952 166.511 158.328L166.871 156.144C167.495 156.96 168.407 157.608 169.559 157.608C171.335 157.608 172.559 156.048 172.799 154.416C173.159 152.304 171.743 151.368 170.375 150.288C169.007 149.232 167.639 148.056 168.047 145.464C168.431 143.04 170.303 140.664 172.967 140.664C174.047 140.664 174.911 141.024 175.679 141.624ZM181.792 146.688L181.576 148.128H179.536L177.808 159H176.248L177.976 148.128H176.656L176.872 146.688H178.192L178.72 143.328H180.28L179.752 146.688H181.792ZM186.447 152.64C186.879 149.976 187.023 147.768 185.487 147.768C183.759 147.768 183.231 150.504 182.895 152.592C182.103 157.68 182.895 157.92 183.807 157.92C185.319 157.92 185.823 156.504 186.447 152.64ZM188.799 146.688L186.855 159H185.295L185.439 158.04H185.391C184.839 158.736 184.071 159.192 183.183 159.192C181.215 159.192 180.423 158.088 181.263 152.712C181.719 149.952 182.367 146.496 185.343 146.496C186.207 146.496 186.687 146.856 187.071 147.528H187.119L187.239 146.688H188.799ZM195.198 146.688L194.982 148.128H192.942L191.214 159H189.654L191.382 148.128H190.062L190.278 146.688H191.598L192.126 143.328H193.686L193.158 146.688H195.198ZM196.445 151.848H200.021L200.045 151.632C200.165 150.456 200.525 147.96 198.893 147.96C197.405 147.96 196.613 150.744 196.445 151.848ZM201.389 153.168H196.205L196.157 153.528C195.965 154.752 195.701 157.728 197.405 157.728C198.773 157.728 199.277 155.808 199.445 154.824H201.053C200.717 156.696 199.613 159.192 197.333 159.192C194.093 159.192 194.261 155.352 194.645 152.88C195.005 150.672 196.157 146.496 199.133 146.496C202.013 146.496 201.869 150.264 201.509 152.424L201.389 153.168ZM208.823 147.288L208.535 149.208H208.487C208.127 148.56 207.503 147.96 206.639 147.96C205.703 147.96 204.983 148.68 204.839 149.592C204.647 150.768 205.559 151.488 206.399 152.304C207.287 153.144 208.127 154.056 207.863 155.664C207.551 157.632 205.991 159.192 203.951 159.192C203.183 159.192 202.367 158.832 201.839 158.352L202.127 156.528C202.631 157.152 203.183 157.728 204.119 157.728C205.199 157.728 206.063 156.888 206.231 155.856C206.423 154.632 205.559 153.816 204.695 152.928C203.855 152.064 202.991 151.104 203.231 149.64C203.519 147.792 204.959 146.496 206.807 146.496C207.599 146.496 208.271 146.808 208.823 147.288ZM210.727 156.744C211.399 156.744 211.855 157.296 211.759 157.968C211.639 158.64 211.015 159.192 210.343 159.192C209.671 159.192 209.191 158.64 209.311 157.968C209.407 157.296 210.055 156.744 210.727 156.744ZM233.792 140.904L227.744 159H226.208L226.304 146.808C226.328 146.184 226.472 144.84 226.568 143.856H226.472C226.208 144.84 225.92 146.208 225.728 146.808L221.696 159H220.16L220.136 140.904H221.864L221.576 153C221.552 153.888 221.48 154.8 221.432 155.688H221.528C221.792 154.8 222.008 153.888 222.296 153L226.28 140.904H227.72L227.552 153C227.528 153.888 227.504 154.8 227.48 155.688H227.576C227.816 154.8 228.032 153.888 228.32 153L232.088 140.904H233.792ZM234.578 151.848H238.154L238.178 151.632C238.298 150.456 238.658 147.96 237.026 147.96C235.538 147.96 234.746 150.744 234.578 151.848ZM239.522 153.168H234.338L234.29 153.528C234.098 154.752 233.834 157.728 235.538 157.728C236.906 157.728 237.41 155.808 237.578 154.824H239.186C238.85 156.696 237.746 159.192 235.466 159.192C232.226 159.192 232.394 155.352 232.778 152.88C233.138 150.672 234.29 146.496 237.266 146.496C240.146 146.496 240.002 150.264 239.642 152.424L239.522 153.168ZM251.204 152.64C251.636 149.976 251.78 147.768 250.244 147.768C248.516 147.768 247.988 150.504 247.652 152.592C246.86 157.68 247.652 157.92 248.564 157.92C250.076 157.92 250.58 156.504 251.204 152.64ZM253.556 146.688L251.612 159H250.052L250.196 158.04H250.148C249.596 158.736 248.828 159.192 247.94 159.192C245.972 159.192 245.18 158.088 246.02 152.712C246.476 149.952 247.124 146.496 250.1 146.496C250.964 146.496 251.444 146.856 251.828 147.528H251.876L251.996 146.688H253.556ZM260.316 147.288L260.028 149.208H259.98C259.62 148.56 258.996 147.96 258.132 147.96C257.196 147.96 256.476 148.68 256.332 149.592C256.14 150.768 257.052 151.488 257.892 152.304C258.78 153.144 259.62 154.056 259.356 155.664C259.044 157.632 257.484 159.192 255.444 159.192C254.676 159.192 253.86 158.832 253.332 158.352L253.62 156.528C254.124 157.152 254.676 157.728 255.612 157.728C256.692 157.728 257.556 156.888 257.724 155.856C257.916 154.632 257.052 153.816 256.188 152.928C255.348 152.064 254.484 151.104 254.724 149.64C255.012 147.792 256.452 146.496 258.3 146.496C259.092 146.496 259.764 146.808 260.316 147.288ZM266.995 147.288L266.707 149.208H266.659C266.299 148.56 265.675 147.96 264.811 147.96C263.875 147.96 263.155 148.68 263.011 149.592C262.819 150.768 263.731 151.488 264.571 152.304C265.459 153.144 266.299 154.056 266.035 155.664C265.723 157.632 264.163 159.192 262.123 159.192C261.355 159.192 260.539 158.832 260.011 158.352L260.299 156.528C260.803 157.152 261.355 157.728 262.291 157.728C263.371 157.728 264.235 156.888 264.403 155.856C264.595 154.632 263.731 153.816 262.867 152.928C262.027 152.064 261.163 151.104 261.403 149.64C261.691 147.792 263.131 146.496 264.979 146.496C265.771 146.496 266.443 146.808 266.995 147.288ZM270.627 146.688L268.683 159H267.123L269.067 146.688H270.627ZM271.587 143.04C271.491 143.688 270.891 144.216 270.267 144.216C269.619 144.216 269.163 143.688 269.259 143.04C269.355 142.416 269.979 141.888 270.627 141.888C271.251 141.888 271.683 142.416 271.587 143.04ZM277.402 147.288L277.114 149.208H277.066C276.706 148.56 276.082 147.96 275.218 147.96C274.282 147.96 273.562 148.68 273.418 149.592C273.226 150.768 274.138 151.488 274.978 152.304C275.866 153.144 276.706 154.056 276.442 155.664C276.13 157.632 274.57 159.192 272.53 159.192C271.762 159.192 270.946 158.832 270.418 158.352L270.706 156.528C271.21 157.152 271.762 157.728 272.698 157.728C273.778 157.728 274.642 156.888 274.81 155.856C275.002 154.632 274.138 153.816 273.274 152.928C272.434 152.064 271.57 151.104 271.81 149.64C272.098 147.792 273.538 146.496 275.386 146.496C276.178 146.496 276.85 146.808 277.402 147.288ZM283.721 146.688L283.505 148.128H281.465L279.737 159H278.177L279.905 148.128H278.585L278.801 146.688H280.121L280.649 143.328H282.209L281.681 146.688H283.721ZM76.4778 181.64C76.9098 178.976 77.0538 176.768 75.5178 176.768C73.7898 176.768 73.2618 179.504 72.9258 181.592C72.1338 186.68 72.9258 186.92 73.8378 186.92C75.3498 186.92 75.8538 185.504 76.4778 181.64ZM78.8298 175.688L76.8858 188H75.3258L75.4698 187.04H75.4218C74.8698 187.736 74.1018 188.192 73.2138 188.192C71.2458 188.192 70.4538 187.088 71.2938 181.712C71.7498 178.952 72.3978 175.496 75.3738 175.496C76.2378 175.496 76.7178 175.856 77.1018 176.528H77.1498L77.2698 175.688H78.8298ZM82.421 186.92C83.861 186.92 84.389 185.504 84.989 181.712C85.301 179.816 85.757 176.768 83.957 176.768C82.301 176.768 81.821 179.312 81.485 181.496C81.101 183.872 80.717 186.92 82.421 186.92ZM82.541 175.688L82.421 176.528H82.469C83.045 175.856 83.669 175.496 84.557 175.496C87.413 175.496 87.005 179.216 86.597 181.712C86.165 184.496 85.517 188.192 82.661 188.192C81.773 188.192 81.149 187.736 80.789 187.04H80.741L79.853 192.704H78.293L80.981 175.688H82.541ZM90.7882 186.92C92.2282 186.92 92.7562 185.504 93.3562 181.712C93.6682 179.816 94.1242 176.768 92.3242 176.768C90.6682 176.768 90.1882 179.312 89.8522 181.496C89.4682 183.872 89.0842 186.92 90.7882 186.92ZM90.9082 175.688L90.7882 176.528H90.8362C91.4122 175.856 92.0362 175.496 92.9242 175.496C95.7802 175.496 95.3722 179.216 94.9642 181.712C94.5322 184.496 93.8842 188.192 91.0282 188.192C90.1402 188.192 89.5162 187.736 89.1562 187.04H89.1082L88.2202 192.704H86.6602L89.3482 175.688H90.9082ZM100.379 168.8L97.3314 188H95.7714L98.8194 168.8H100.379ZM103.025 175.688L101.081 188H99.5214L101.465 175.688H103.025ZM103.985 172.04C103.889 172.688 103.289 173.216 102.665 173.216C102.017 173.216 101.561 172.688 101.657 172.04C101.753 171.416 102.377 170.888 103.025 170.888C103.649 170.888 104.081 171.416 103.985 172.04ZM110.088 175.976L109.8 177.776C109.488 177.368 109.056 176.96 108.456 176.96C106.44 176.96 105.696 180.464 105.456 181.88C105.264 183.104 104.952 186.728 106.8 186.728C107.52 186.728 108.072 186.176 108.528 185.624H108.576L108.264 187.568C107.736 187.952 106.992 188.192 106.392 188.192C103.56 188.192 103.488 184.208 103.824 182.096C104.184 179.768 105.36 175.496 108.48 175.496C109.056 175.496 109.632 175.664 110.088 175.976ZM115.736 181.64C116.168 178.976 116.312 176.768 114.776 176.768C113.048 176.768 112.52 179.504 112.184 181.592C111.392 186.68 112.184 186.92 113.096 186.92C114.608 186.92 115.112 185.504 115.736 181.64ZM118.088 175.688L116.144 188H114.584L114.728 187.04H114.68C114.128 187.736 113.36 188.192 112.472 188.192C110.504 188.192 109.712 187.088 110.552 181.712C111.008 178.952 111.656 175.496 114.632 175.496C115.496 175.496 115.976 175.856 116.36 176.528H116.408L116.528 175.688H118.088ZM121.799 175.688L121.655 176.672C122.399 175.952 123.311 175.496 124.271 175.496C126.455 175.496 126.311 177.512 126.047 179.192L124.655 188H123.095L124.463 179.36C124.703 177.896 124.775 176.768 123.479 176.768C121.703 176.768 121.319 178.712 121.127 180.008L119.855 188H118.295L120.239 175.688H121.799ZM133.018 175.688L132.802 177.128H130.762L129.034 188H127.474L129.202 177.128H127.882L128.098 175.688H129.418L129.946 172.328H131.506L130.978 175.688H133.018ZM138.417 176.288L138.129 178.208H138.081C137.721 177.56 137.097 176.96 136.233 176.96C135.297 176.96 134.577 177.68 134.433 178.592C134.241 179.768 135.153 180.488 135.993 181.304C136.881 182.144 137.721 183.056 137.457 184.664C137.145 186.632 135.585 188.192 133.545 188.192C132.777 188.192 131.961 187.832 131.433 187.352L131.721 185.528C132.225 186.152 132.777 186.728 133.713 186.728C134.793 186.728 135.657 185.888 135.825 184.856C136.017 183.632 135.153 182.816 134.289 181.928C133.449 181.064 132.585 180.104 132.825 178.64C133.113 176.792 134.553 175.496 136.401 175.496C137.193 175.496 137.865 175.808 138.417 176.288ZM156.233 175.688L151.577 188H149.969V179.072C149.969 178.64 150.041 178.184 150.065 177.752H149.993C149.801 178.496 149.633 179.24 149.393 179.984L146.801 188H145.217L144.665 175.688H146.249L146.273 182.96C146.273 183.896 146.321 184.808 146.345 185.744H146.441C146.705 184.808 146.945 183.896 147.233 182.96L149.585 175.688H151.169L151.121 184.208C151.121 184.712 151.097 185.24 151.097 185.744H151.169C151.409 184.952 151.625 184.136 151.913 183.344L154.649 175.688H156.233ZM159.135 175.688L157.191 188H155.631L157.575 175.688H159.135ZM160.095 172.04C159.999 172.688 159.399 173.216 158.775 173.216C158.127 173.216 157.671 172.688 157.767 172.04C157.863 171.416 158.487 170.888 159.135 170.888C159.759 170.888 160.191 171.416 160.095 172.04ZM165.549 175.688L165.333 177.128H163.293L161.565 188H160.005L161.733 177.128H160.413L160.629 175.688H161.949L162.477 172.328H164.037L163.509 175.688H165.549ZM169.028 168.8L167.78 176.672C168.524 175.952 169.436 175.496 170.396 175.496C172.652 175.496 172.46 177.464 172.172 179.192L170.78 188H169.22L170.564 179.456C170.876 177.536 170.78 176.768 169.604 176.768C167.828 176.768 167.444 178.712 167.252 180.008L165.98 188H164.42L167.468 168.8H169.028ZM181.447 175.688L179.503 188H177.943L179.887 175.688H181.447ZM182.407 172.04C182.311 172.688 181.711 173.216 181.087 173.216C180.439 173.216 179.983 172.688 180.079 172.04C180.175 171.416 180.799 170.888 181.447 170.888C182.071 170.888 182.503 171.416 182.407 172.04ZM185.174 175.688L185.03 176.672C185.774 175.952 186.686 175.496 187.646 175.496C189.83 175.496 189.686 177.512 189.422 179.192L188.03 188H186.47L187.838 179.36C188.078 177.896 188.15 176.768 186.854 176.768C185.078 176.768 184.694 178.712 184.502 180.008L183.23 188H181.67L183.614 175.688H185.174ZM193.705 175.688L191.761 188H190.201L192.145 175.688H193.705ZM194.665 172.04C194.569 172.688 193.969 173.216 193.345 173.216C192.697 173.216 192.241 172.688 192.337 172.04C192.433 171.416 193.057 170.888 193.705 170.888C194.329 170.888 194.761 171.416 194.665 172.04ZM200.12 175.688L199.904 177.128H197.864L196.136 188H194.576L196.304 177.128H194.984L195.2 175.688H196.52L197.048 172.328H198.608L198.08 175.688H200.12ZM202.494 175.688L200.55 188H198.99L200.934 175.688H202.494ZM203.454 172.04C203.358 172.688 202.758 173.216 202.134 173.216C201.486 173.216 201.03 172.688 201.126 172.04C201.222 171.416 201.846 170.888 202.494 170.888C203.118 170.888 203.55 171.416 203.454 172.04ZM208.525 181.64C208.957 178.976 209.101 176.768 207.565 176.768C205.837 176.768 205.309 179.504 204.973 181.592C204.181 186.68 204.973 186.92 205.885 186.92C207.397 186.92 207.901 185.504 208.525 181.64ZM210.877 175.688L208.933 188H207.373L207.517 187.04H207.469C206.917 187.736 206.149 188.192 205.261 188.192C203.293 188.192 202.501 187.088 203.341 181.712C203.797 178.952 204.445 175.496 207.421 175.496C208.285 175.496 208.765 175.856 209.149 176.528H209.197L209.317 175.688H210.877ZM215.692 168.8L212.644 188H211.084L214.132 168.8H215.692ZM226.643 175.976L226.355 177.776C226.043 177.368 225.611 176.96 225.011 176.96C222.995 176.96 222.251 180.464 222.011 181.88C221.819 183.104 221.507 186.728 223.355 186.728C224.075 186.728 224.627 186.176 225.083 185.624H225.131L224.819 187.568C224.291 187.952 223.547 188.192 222.947 188.192C220.115 188.192 220.043 184.208 220.379 182.096C220.739 179.768 221.915 175.496 225.035 175.496C225.611 175.496 226.187 175.664 226.643 175.976ZM229.986 175.688L229.722 177.32H229.77C230.25 176.456 231.09 175.472 232.122 175.496L231.81 177.32L231.522 177.296C229.914 177.296 229.482 178.856 229.17 180.824L228.042 188H226.482L228.426 175.688H229.986ZM233.664 180.848H237.24L237.264 180.632C237.384 179.456 237.744 176.96 236.112 176.96C234.624 176.96 233.832 179.744 233.664 180.848ZM238.608 182.168H233.424L233.376 182.528C233.184 183.752 232.92 186.728 234.624 186.728C235.992 186.728 236.496 184.808 236.664 183.824H238.272C237.936 185.696 236.832 188.192 234.552 188.192C231.312 188.192 231.48 184.352 231.864 181.88C232.224 179.672 233.376 175.496 236.352 175.496C239.232 175.496 239.088 179.264 238.728 181.424L238.608 182.168ZM245.298 181.64C245.754 178.832 245.778 176.768 244.338 176.768C242.586 176.768 242.034 179.84 241.746 181.592C241.578 182.744 240.666 186.92 242.658 186.92C244.314 186.92 244.794 184.88 245.298 181.64ZM244.146 188L244.29 187.04H244.242C243.69 187.736 242.922 188.192 242.034 188.192C239.466 188.192 239.586 185.072 240.114 181.712C240.666 178.352 241.458 175.496 244.194 175.496C245.058 175.496 245.538 175.856 245.922 176.528H245.97L247.194 168.8H248.754L245.706 188H244.146ZM250.257 180.848H253.833L253.857 180.632C253.977 179.456 254.337 176.96 252.705 176.96C251.217 176.96 250.425 179.744 250.257 180.848ZM255.201 182.168H250.017L249.969 182.528C249.777 183.752 249.513 186.728 251.217 186.728C252.585 186.728 253.089 184.808 253.257 183.824H254.865C254.529 185.696 253.425 188.192 251.145 188.192C247.905 188.192 248.073 184.352 248.457 181.88C248.817 179.672 249.969 175.496 252.945 175.496C255.825 175.496 255.681 179.264 255.321 181.424L255.201 182.168ZM259.588 175.688L259.444 176.672C260.188 175.952 261.1 175.496 262.06 175.496C264.244 175.496 264.1 177.512 263.836 179.192L262.444 188H260.884L262.252 179.36C262.492 177.896 262.564 176.768 261.268 176.768C259.492 176.768 259.108 178.712 258.916 180.008L257.644 188H256.084L258.028 175.688H259.588ZM270.807 175.688L270.591 177.128H268.551L266.823 188H265.263L266.991 177.128H265.671L265.887 175.688H267.207L267.735 172.328H269.295L268.767 175.688H270.807ZM273.182 175.688L271.238 188H269.678L271.622 175.688H273.182ZM274.142 172.04C274.046 172.688 273.446 173.216 272.822 173.216C272.174 173.216 271.718 172.688 271.814 172.04C271.91 171.416 272.534 170.888 273.182 170.888C273.806 170.888 274.238 171.416 274.142 172.04ZM279.212 181.64C279.644 178.976 279.788 176.768 278.252 176.768C276.524 176.768 275.996 179.504 275.66 181.592C274.868 186.68 275.66 186.92 276.572 186.92C278.084 186.92 278.588 185.504 279.212 181.64ZM281.564 175.688L279.62 188H278.06L278.204 187.04H278.156C277.604 187.736 276.836 188.192 275.948 188.192C273.98 188.192 273.188 187.088 274.028 181.712C274.484 178.952 275.132 175.496 278.108 175.496C278.972 175.496 279.452 175.856 279.836 176.528H279.884L280.004 175.688H281.564ZM286.379 168.8L283.331 188H281.771L284.819 168.8H286.379ZM64.0113 209.848H67.5872L67.6113 209.632C67.7313 208.456 68.0913 205.96 66.4593 205.96C64.9713 205.96 64.1793 208.744 64.0113 209.848ZM68.9553 211.168H63.7713L63.7233 211.528C63.5312 212.752 63.2673 215.728 64.9713 215.728C66.3393 215.728 66.8433 213.808 67.0113 212.824H68.6193C68.2833 214.696 67.1793 217.192 64.8993 217.192C61.6593 217.192 61.8273 213.352 62.2113 210.88C62.5713 208.672 63.7233 204.496 66.6992 204.496C69.5793 204.496 69.4353 208.264 69.0753 210.424L68.9553 211.168ZM78.1178 204.688L73.4378 217H71.7578L70.8938 204.688H72.4778L72.8378 212.392C72.8858 213.16 72.8858 213.928 72.9338 214.696H73.0298C73.2458 213.928 73.4858 213.136 73.7258 212.392L76.5098 204.688H78.1178ZM83.2396 210.64C83.6716 207.976 83.8156 205.768 82.2796 205.768C80.5516 205.768 80.0236 208.504 79.6876 210.592C78.8956 215.68 79.6876 215.92 80.5996 215.92C82.1116 215.92 82.6156 214.504 83.2396 210.64ZM85.5916 204.688L83.6476 217H82.0876L82.2316 216.04H82.1836C81.6316 216.736 80.8636 217.192 79.9756 217.192C78.0076 217.192 77.2156 216.088 78.0556 210.712C78.5116 207.952 79.1596 204.496 82.1356 204.496C82.9996 204.496 83.4796 204.856 83.8636 205.528H83.9116L84.0316 204.688H85.5916ZM90.4068 197.8L87.3588 217H85.7988L88.8468 197.8H90.4068ZM91.3733 204.688H92.9333L91.7093 212.416C91.4453 214.096 91.2773 215.728 92.8133 215.728C94.3973 215.728 94.7333 214.096 95.0213 212.416L96.2453 204.688H97.8053L96.3893 213.736C96.0533 215.8 94.8293 217.192 92.6213 217.192C90.4373 217.192 89.6213 215.824 89.9573 213.736L91.3733 204.688ZM103.724 210.64C104.156 207.976 104.3 205.768 102.764 205.768C101.036 205.768 100.508 208.504 100.172 210.592C99.3799 215.68 100.172 215.92 101.084 215.92C102.596 215.92 103.1 214.504 103.724 210.64ZM106.076 204.688L104.132 217H102.572L102.716 216.04H102.668C102.116 216.736 101.348 217.192 100.46 217.192C98.4919 217.192 97.6999 216.088 98.5399 210.712C98.9959 207.952 99.6439 204.496 102.62 204.496C103.484 204.496 103.964 204.856 104.348 205.528H104.396L104.516 204.688H106.076ZM112.475 204.688L112.259 206.128H110.219L108.491 217H106.931L108.659 206.128H107.339L107.555 204.688H108.875L109.403 201.328H110.963L110.435 204.688H112.475ZM114.85 204.688L112.906 217H111.346L113.29 204.688H114.85ZM115.81 201.04C115.714 201.688 115.114 202.216 114.49 202.216C113.842 202.216 113.386 201.688 113.482 201.04C113.578 200.416 114.202 199.888 114.85 199.888C115.474 199.888 115.906 200.416 115.81 201.04ZM120.232 204.496C123.472 204.496 123.112 208.528 122.752 210.832C122.368 213.16 121.456 217.192 118.216 217.192C114.976 217.192 115.312 213.16 115.696 210.832C116.056 208.528 116.992 204.496 120.232 204.496ZM119.992 205.96C118.12 205.96 117.472 209.656 117.304 210.832C117.112 212.032 116.56 215.728 118.432 215.728C120.304 215.728 120.952 212.032 121.144 210.832C121.312 209.656 121.864 205.96 119.992 205.96ZM127.107 204.688L126.963 205.672C127.707 204.952 128.619 204.496 129.579 204.496C131.763 204.496 131.619 206.512 131.355 208.192L129.963 217H128.403L129.771 208.36C130.011 206.896 130.083 205.768 128.787 205.768C127.011 205.768 126.627 207.712 126.435 209.008L125.163 217H123.603L125.547 204.688H127.107ZM135.327 215.512L132.063 220.864L131.007 220.312L133.743 214.744L135.327 215.512ZM152.145 198.904L149.289 217H147.825L145.665 204.832C145.521 204.088 145.521 203.272 145.425 202.504H145.329C145.209 203.68 145.137 204.832 144.969 206.008L143.217 217H141.753L144.609 198.904H146.073L148.233 211.48C148.353 212.104 148.425 212.728 148.497 213.352H148.569C148.641 212.56 148.665 211.744 148.785 210.952L150.681 198.904H152.145ZM159.19 214.792L158.902 216.496C158.206 216.928 157.27 217.24 156.478 217.24C152.23 217.24 152.494 211.696 152.974 208.6C153.454 205.672 154.654 198.664 159.598 198.664C160.27 198.664 161.158 198.832 161.638 199.24L161.35 201.088C160.75 200.632 160.198 200.296 159.358 200.296C156.43 200.296 155.35 204.544 154.822 207.904C154.486 210.016 153.598 215.608 156.814 215.608C157.63 215.608 158.47 215.248 159.19 214.792ZM165.531 198.904L162.915 215.464H166.851L166.611 217H160.995L163.851 198.904H165.531ZM176.593 198.904L176.353 200.44H172.345L171.337 206.824H175.225L174.985 208.36H171.097L169.969 215.464H173.977L173.737 217H168.049L170.905 198.904H176.593ZM186.695 198.904L181.919 207.808L183.839 217H182.039L180.815 209.296H180.719C180.407 210.28 179.903 211.24 179.447 212.2L177.071 217H175.271L180.167 207.808L178.127 198.904H179.927L181.151 206.56H181.247C181.631 205.408 182.159 204.28 182.711 203.2L184.895 198.904H186.695ZM184.845 210.28L185.157 208.384H188.901L188.589 210.28H184.845ZM190.659 217H188.979L191.835 198.904H193.635C196.155 198.904 198.555 199.096 197.859 203.512C197.499 205.816 196.635 208.072 193.707 208.168L196.323 217H194.547L192.099 208.144H192.051L190.659 217ZM193.275 200.44L192.267 206.776H192.867C195.219 206.776 195.747 205.96 196.131 203.584C196.563 200.728 195.747 200.44 193.611 200.44H193.275ZM208.512 198.904L205.656 217H204.192L202.032 204.832C201.888 204.088 201.888 203.272 201.792 202.504H201.696C201.576 203.68 201.504 204.832 201.336 206.008L199.584 217H198.12L200.976 198.904H202.44L204.6 211.48C204.72 212.104 204.792 212.728 204.864 213.352H204.936C205.008 212.56 205.032 211.744 205.152 210.952L207.048 198.904H208.512ZM216.566 215.92C218.006 215.92 218.534 214.504 219.134 210.712C219.446 208.816 219.902 205.768 218.102 205.768C216.446 205.768 215.966 208.312 215.63 210.496C215.246 212.872 214.862 215.92 216.566 215.92ZM216.686 204.688L216.566 205.528H216.614C217.19 204.856 217.814 204.496 218.702 204.496C221.558 204.496 221.15 208.216 220.742 210.712C220.31 213.496 219.662 217.192 216.806 217.192C215.918 217.192 215.294 216.736 214.934 216.04H214.886L213.998 221.704H212.438L215.126 204.688H216.686ZM225.053 204.688L224.789 206.32H224.837C225.317 205.456 226.157 204.472 227.189 204.496L226.877 206.32L226.589 206.296C224.981 206.296 224.549 207.856 224.237 209.824L223.109 217H221.549L223.493 204.688H225.053ZM228.73 209.848H232.306L232.33 209.632C232.45 208.456 232.81 205.96 231.178 205.96C229.69 205.96 228.898 208.744 228.73 209.848ZM233.674 211.168H228.49L228.442 211.528C228.25 212.752 227.986 215.728 229.69 215.728C231.058 215.728 231.562 213.808 231.73 212.824H233.338C233.002 214.696 231.898 217.192 229.618 217.192C226.378 217.192 226.546 213.352 226.93 210.88C227.29 208.672 228.442 204.496 231.418 204.496C234.298 204.496 234.154 208.264 233.794 210.424L233.674 211.168ZM237.941 215.92C239.381 215.92 239.909 214.504 240.509 210.712C240.821 208.816 241.277 205.768 239.477 205.768C237.821 205.768 237.341 208.312 237.005 210.496C236.621 212.872 236.237 215.92 237.941 215.92ZM238.061 204.688L237.941 205.528H237.989C238.565 204.856 239.189 204.496 240.077 204.496C242.933 204.496 242.525 208.216 242.117 210.712C241.685 213.496 241.037 217.192 238.181 217.192C237.293 217.192 236.669 216.736 236.309 216.04H236.261L235.373 221.704H233.813L236.501 204.688H238.061ZM248.732 210.64C249.164 207.976 249.308 205.768 247.772 205.768C246.044 205.768 245.516 208.504 245.18 210.592C244.388 215.68 245.18 215.92 246.092 215.92C247.604 215.92 248.108 214.504 248.732 210.64ZM251.084 204.688L249.14 217H247.58L247.724 216.04H247.676C247.124 216.736 246.356 217.192 245.468 217.192C243.5 217.192 242.708 216.088 243.548 210.712C244.004 207.952 244.652 204.496 247.628 204.496C248.492 204.496 248.972 204.856 249.356 205.528H249.404L249.524 204.688H251.084ZM254.795 204.688L254.531 206.32H254.579C255.059 205.456 255.899 204.472 256.931 204.496L256.619 206.32L256.331 206.296C254.723 206.296 254.291 207.856 253.979 209.824L252.851 217H251.291L253.235 204.688H254.795ZM261.88 210.64C262.312 207.976 262.456 205.768 260.92 205.768C259.192 205.768 258.664 208.504 258.328 210.592C257.536 215.68 258.328 215.92 259.24 215.92C260.752 215.92 261.256 214.504 261.88 210.64ZM264.232 204.688L262.288 217H260.728L260.872 216.04H260.824C260.272 216.736 259.504 217.192 258.616 217.192C256.648 217.192 255.856 216.088 256.696 210.712C257.152 207.952 257.8 204.496 260.776 204.496C261.64 204.496 262.12 204.856 262.504 205.528H262.552L262.672 204.688H264.232ZM270.631 204.688L270.415 206.128H268.375L266.647 217H265.087L266.815 206.128H265.495L265.711 204.688H267.031L267.559 201.328H269.119L268.591 204.688H270.631ZM273.006 204.688L271.062 217H269.502L271.446 204.688H273.006ZM273.966 201.04C273.87 201.688 273.27 202.216 272.646 202.216C271.998 202.216 271.542 201.688 271.638 201.04C271.734 200.416 272.358 199.888 273.006 199.888C273.63 199.888 274.062 200.416 273.966 201.04ZM278.388 204.496C281.628 204.496 281.268 208.528 280.908 210.832C280.524 213.16 279.612 217.192 276.372 217.192C273.132 217.192 273.468 213.16 273.852 210.832C274.212 208.528 275.148 204.496 278.388 204.496ZM278.148 205.96C276.276 205.96 275.628 209.656 275.46 210.832C275.268 212.032 274.716 215.728 276.588 215.728C278.46 215.728 279.108 212.032 279.3 210.832C279.468 209.656 280.02 205.96 278.148 205.96ZM285.264 204.688L285.12 205.672C285.864 204.952 286.776 204.496 287.736 204.496C289.92 204.496 289.776 206.512 289.512 208.192L288.12 217H286.56L287.928 208.36C288.168 206.896 288.24 205.768 286.944 205.768C285.168 205.768 284.784 207.712 284.592 209.008L283.32 217H281.76L283.704 204.688H285.264ZM293.483 215.512L290.219 220.864L289.163 220.312L291.899 214.744L293.483 215.512ZM59.0524 227.904L52.5484 246H51.0604L50.2684 227.904H51.9964L52.2844 241.08C52.3084 241.536 52.2364 242.712 52.1884 243.528H52.2844C52.5004 242.712 52.7884 241.512 52.9084 241.08L57.3484 227.904H59.0524ZM61.0606 233.688L59.1166 246H57.5566L59.5006 233.688H61.0606ZM62.0206 230.04C61.9246 230.688 61.3246 231.216 60.7006 231.216C60.0526 231.216 59.5966 230.688 59.6926 230.04C59.7886 229.416 60.4126 228.888 61.0606 228.888C61.6846 228.888 62.1166 229.416 62.0206 230.04ZM67.8351 234.288L67.5471 236.208H67.4991C67.1391 235.56 66.5151 234.96 65.6511 234.96C64.7151 234.96 63.9951 235.68 63.8511 236.592C63.6591 237.768 64.5711 238.488 65.4111 239.304C66.2991 240.144 67.1391 241.056 66.8751 242.664C66.5631 244.632 65.0031 246.192 62.9631 246.192C62.1951 246.192 61.3791 245.832 60.8511 245.352L61.1391 243.528C61.6431 244.152 62.1951 244.728 63.1311 244.728C64.2111 244.728 65.0751 243.888 65.2431 242.856C65.4351 241.632 64.5711 240.816 63.7071 239.928C62.8671 239.064 62.0031 238.104 62.2431 236.64C62.5311 234.792 63.9711 233.496 65.8191 233.496C66.6111 233.496 67.2831 233.808 67.8351 234.288ZM73.7708 239.64C74.2028 236.976 74.3468 234.768 72.8108 234.768C71.0828 234.768 70.5548 237.504 70.2188 239.592C69.4268 244.68 70.2188 244.92 71.1308 244.92C72.6428 244.92 73.1468 243.504 73.7708 239.64ZM76.1228 233.688L74.1788 246H72.6188L72.7628 245.04H72.7148C72.1628 245.736 71.3948 246.192 70.5068 246.192C68.5388 246.192 67.7468 245.088 68.5868 239.712C69.0428 236.952 69.6908 233.496 72.6668 233.496C73.5308 233.496 74.0108 233.856 74.3948 234.528H74.4428L74.5628 233.688H76.1228ZM85.738 228.624L85.402 230.76C84.802 229.944 84.106 229.296 82.954 229.296C81.274 229.296 80.122 230.688 79.882 232.224C79.546 234.336 80.914 235.32 82.33 236.376C83.674 237.456 85.042 238.608 84.634 241.104C84.226 243.744 82.114 246.24 79.282 246.24C78.274 246.24 77.29 245.952 76.57 245.328L76.93 243.144C77.554 243.96 78.466 244.608 79.618 244.608C81.394 244.608 82.618 243.048 82.858 241.416C83.218 239.304 81.802 238.368 80.434 237.288C79.066 236.232 77.698 235.056 78.106 232.464C78.49 230.04 80.362 227.664 83.026 227.664C84.106 227.664 84.97 228.024 85.738 228.624ZM92.4981 233.976L92.2101 235.776C91.8981 235.368 91.4661 234.96 90.8661 234.96C88.8501 234.96 88.1061 238.464 87.8661 239.88C87.6741 241.104 87.3621 244.728 89.2101 244.728C89.9301 244.728 90.4821 244.176 90.9381 243.624H90.9861L90.6741 245.568C90.1461 245.952 89.4021 246.192 88.8021 246.192C85.9701 246.192 85.8981 242.208 86.2341 240.096C86.5941 237.768 87.7701 233.496 90.8901 233.496C91.4661 233.496 92.0421 233.664 92.4981 233.976ZM95.8418 233.688L95.5778 235.32H95.6258C96.1058 234.456 96.9458 233.472 97.9778 233.496L97.6658 235.32L97.3778 235.296C95.7698 235.296 95.3378 236.856 95.0258 238.824L93.8978 246H92.3378L94.2818 233.688H95.8418ZM99.5191 238.848H103.095L103.119 238.632C103.239 237.456 103.599 234.96 101.967 234.96C100.479 234.96 99.6871 237.744 99.5191 238.848ZM104.463 240.168H99.2791L99.2311 240.528C99.0391 241.752 98.7751 244.728 100.479 244.728C101.847 244.728 102.351 242.808 102.519 241.824H104.127C103.791 243.696 102.687 246.192 100.407 246.192C97.1671 246.192 97.3351 242.352 97.7191 239.88C98.0791 237.672 99.2311 233.496 102.207 233.496C105.087 233.496 104.943 237.264 104.583 239.424L104.463 240.168ZM107.746 238.848H111.322L111.346 238.632C111.466 237.456 111.826 234.96 110.194 234.96C108.706 234.96 107.914 237.744 107.746 238.848ZM112.69 240.168H107.506L107.458 240.528C107.266 241.752 107.002 244.728 108.706 244.728C110.074 244.728 110.578 242.808 110.746 241.824H112.354C112.018 243.696 110.914 246.192 108.634 246.192C105.394 246.192 105.562 242.352 105.946 239.88C106.306 237.672 107.458 233.496 110.434 233.496C113.314 233.496 113.17 237.264 112.81 239.424L112.69 240.168ZM117.076 233.688L116.932 234.672C117.676 233.952 118.588 233.496 119.548 233.496C121.732 233.496 121.588 235.512 121.324 237.192L119.932 246H118.372L119.74 237.36C119.98 235.896 120.052 234.768 118.756 234.768C116.98 234.768 116.596 236.712 116.404 238.008L115.132 246H113.572L115.516 233.688H117.076ZM133.936 233.976L133.648 235.776C133.336 235.368 132.904 234.96 132.304 234.96C130.288 234.96 129.544 238.464 129.304 239.88C129.112 241.104 128.8 244.728 130.648 244.728C131.368 244.728 131.92 244.176 132.376 243.624H132.424L132.112 245.568C131.584 245.952 130.84 246.192 130.24 246.192C127.408 246.192 127.336 242.208 127.672 240.096C128.032 237.768 129.208 233.496 132.328 233.496C132.904 233.496 133.48 233.664 133.936 233.976ZM136.175 238.848H139.751L139.775 238.632C139.895 237.456 140.255 234.96 138.623 234.96C137.135 234.96 136.343 237.744 136.175 238.848ZM141.119 240.168H135.935L135.887 240.528C135.695 241.752 135.431 244.728 137.135 244.728C138.503 244.728 139.007 242.808 139.175 241.824H140.783C140.447 243.696 139.343 246.192 137.063 246.192C133.823 246.192 133.991 242.352 134.375 239.88C134.735 237.672 135.887 233.496 138.863 233.496C141.743 233.496 141.599 237.264 141.239 239.424L141.119 240.168ZM145.506 233.688L145.242 235.32H145.29C145.77 234.456 146.61 233.472 147.642 233.496L147.33 235.32L147.042 235.296C145.434 235.296 145.002 236.856 144.69 238.824L143.562 246H142.002L143.946 233.688H145.506ZM153.116 233.688L152.9 235.128H150.86L149.132 246H147.572L149.3 235.128H147.98L148.196 233.688H149.516L150.044 230.328H151.604L151.076 233.688H153.116ZM155.49 233.688L153.546 246H151.986L153.93 233.688H155.49ZM156.45 230.04C156.354 230.688 155.754 231.216 155.13 231.216C154.482 231.216 154.026 230.688 154.122 230.04C154.218 229.416 154.842 228.888 155.49 228.888C156.114 228.888 156.546 229.416 156.45 230.04ZM161.497 233.688L161.281 235.128H159.241L157.513 246H155.953L157.681 235.128H156.361L156.577 233.688H157.897L158.473 230.04C158.833 227.88 159.577 226.608 161.329 226.608C161.785 226.608 162.265 226.68 162.649 226.872L162.385 228.576C162.097 228.312 161.785 228.048 161.329 228.048C160.465 228.048 160.225 228.84 160.033 230.016L159.457 233.688H161.497ZM164.209 233.688L162.265 246H160.705L162.649 233.688H164.209ZM165.169 230.04C165.073 230.688 164.473 231.216 163.849 231.216C163.201 231.216 162.745 230.688 162.841 230.04C162.937 229.416 163.561 228.888 164.209 228.888C164.833 228.888 165.265 229.416 165.169 230.04ZM171.272 233.976L170.984 235.776C170.672 235.368 170.24 234.96 169.64 234.96C167.624 234.96 166.88 238.464 166.64 239.88C166.448 241.104 166.136 244.728 167.984 244.728C168.704 244.728 169.256 244.176 169.712 243.624H169.76L169.448 245.568C168.92 245.952 168.176 246.192 167.576 246.192C164.744 246.192 164.672 242.208 165.008 240.096C165.368 237.768 166.544 233.496 169.664 233.496C170.24 233.496 170.816 233.664 171.272 233.976ZM176.919 239.64C177.351 236.976 177.495 234.768 175.959 234.768C174.231 234.768 173.703 237.504 173.367 239.592C172.575 244.68 173.367 244.92 174.279 244.92C175.791 244.92 176.295 243.504 176.919 239.64ZM179.271 233.688L177.327 246H175.767L175.911 245.04H175.863C175.311 245.736 174.543 246.192 173.655 246.192C171.687 246.192 170.895 245.088 171.735 239.712C172.191 236.952 172.839 233.496 175.815 233.496C176.679 233.496 177.159 233.856 177.543 234.528H177.591L177.711 233.688H179.271ZM185.67 233.688L185.454 235.128H183.414L181.686 246H180.126L181.854 235.128H180.534L180.75 233.688H182.07L182.598 230.328H184.158L183.63 233.688H185.67ZM188.045 233.688L186.101 246H184.541L186.485 233.688H188.045ZM189.005 230.04C188.909 230.688 188.309 231.216 187.685 231.216C187.037 231.216 186.581 230.688 186.677 230.04C186.773 229.416 187.397 228.888 188.045 228.888C188.669 228.888 189.101 229.416 189.005 230.04ZM193.428 233.496C196.668 233.496 196.308 237.528 195.948 239.832C195.564 242.16 194.652 246.192 191.412 246.192C188.172 246.192 188.508 242.16 188.892 239.832C189.252 237.528 190.188 233.496 193.428 233.496ZM193.188 234.96C191.316 234.96 190.668 238.656 190.5 239.832C190.308 241.032 189.756 244.728 191.628 244.728C193.5 244.728 194.148 241.032 194.34 239.832C194.508 238.656 195.06 234.96 193.188 234.96ZM200.303 233.688L200.159 234.672C200.903 233.952 201.815 233.496 202.775 233.496C204.959 233.496 204.815 235.512 204.551 237.192L203.159 246H201.599L202.967 237.36C203.207 235.896 203.279 234.768 201.983 234.768C200.207 234.768 199.823 236.712 199.631 238.008L198.359 246H196.799L198.743 233.688H200.303ZM208.522 244.512L205.258 249.864L204.202 249.312L206.938 243.744L208.522 244.512ZM220.396 239.64C220.828 236.976 220.972 234.768 219.436 234.768C217.708 234.768 217.18 237.504 216.844 239.592C216.052 244.68 216.844 244.92 217.756 244.92C219.268 244.92 219.772 243.504 220.396 239.64ZM222.748 233.688L220.804 246H219.244L219.388 245.04H219.34C218.788 245.736 218.02 246.192 217.132 246.192C215.164 246.192 214.372 245.088 215.212 239.712C215.668 236.952 216.316 233.496 219.292 233.496C220.156 233.496 220.636 233.856 221.02 234.528H221.068L221.188 233.688H222.748ZM226.459 233.688L226.315 234.672C227.059 233.952 227.971 233.496 228.931 233.496C231.115 233.496 230.971 235.512 230.707 237.192L229.315 246H227.755L229.123 237.36C229.363 235.896 229.435 234.768 228.139 234.768C226.363 234.768 225.979 236.712 225.787 238.008L224.515 246H222.955L224.899 233.688H226.459ZM237.294 239.64C237.75 236.832 237.774 234.768 236.334 234.768C234.582 234.768 234.03 237.84 233.742 239.592C233.574 240.744 232.662 244.92 234.654 244.92C236.31 244.92 236.79 242.88 237.294 239.64ZM236.142 246L236.286 245.04H236.238C235.686 245.736 234.918 246.192 234.03 246.192C231.462 246.192 231.582 243.072 232.11 239.712C232.662 236.352 233.454 233.496 236.19 233.496C237.054 233.496 237.534 233.856 237.918 234.528H237.966L239.19 226.8H240.75L237.702 246H236.142ZM246.964 238.848H250.54L250.564 238.632C250.684 237.456 251.044 234.96 249.412 234.96C247.924 234.96 247.132 237.744 246.964 238.848ZM251.908 240.168H246.724L246.676 240.528C246.484 241.752 246.22 244.728 247.924 244.728C249.292 244.728 249.796 242.808 249.964 241.824H251.572C251.236 243.696 250.132 246.192 247.852 246.192C244.612 246.192 244.78 242.352 245.164 239.88C245.524 237.672 246.676 233.496 249.652 233.496C252.532 233.496 252.388 237.264 252.028 239.424L251.908 240.168ZM256.295 233.688L256.127 234.72H256.175C256.847 234 257.783 233.496 258.719 233.496C259.727 233.496 260.495 234.024 260.759 234.96C261.551 234.048 262.415 233.496 263.543 233.496C265.847 233.496 265.727 235.32 265.439 237.144L264.047 246H262.487L263.879 237.192C264.071 236.016 264.143 234.768 262.871 234.768C261.023 234.768 260.639 236.856 260.399 238.416L259.199 246H257.639L259.031 237.216C259.223 236.064 259.343 234.768 258.071 234.768C256.175 234.768 255.767 237.12 255.503 238.68L254.351 246H252.791L254.735 233.688H256.295ZM269.581 244.92C271.021 244.92 271.549 243.504 272.149 239.712C272.461 237.816 272.917 234.768 271.117 234.768C269.461 234.768 268.981 237.312 268.645 239.496C268.261 241.872 267.877 244.92 269.581 244.92ZM269.701 233.688L269.581 234.528H269.629C270.205 233.856 270.829 233.496 271.717 233.496C274.573 233.496 274.165 237.216 273.757 239.712C273.325 242.496 272.677 246.192 269.821 246.192C268.933 246.192 268.309 245.736 267.949 245.04H267.901L267.013 250.704H265.453L268.141 233.688H269.701ZM279.172 226.8L276.124 246H274.564L277.612 226.8H279.172ZM283.451 233.496C286.691 233.496 286.331 237.528 285.971 239.832C285.587 242.16 284.675 246.192 281.435 246.192C278.195 246.192 278.531 242.16 278.915 239.832C279.275 237.528 280.211 233.496 283.451 233.496ZM283.211 234.96C281.339 234.96 280.691 238.656 280.523 239.832C280.331 241.032 279.779 244.728 281.651 244.728C283.523 244.728 284.171 241.032 284.363 239.832C284.531 238.656 285.083 234.96 283.211 234.96ZM295.462 233.688L288.526 250.704H286.894L288.91 245.664L287.878 233.688H289.462L289.966 243.624H290.038C290.422 242.568 290.782 241.512 291.19 240.456L293.83 233.688H295.462ZM297.191 238.848H300.767L300.791 238.632C300.911 237.456 301.271 234.96 299.639 234.96C298.151 234.96 297.359 237.744 297.191 238.848ZM302.135 240.168H296.951L296.903 240.528C296.711 241.752 296.447 244.728 298.151 244.728C299.519 244.728 300.023 242.808 300.191 241.824H301.799C301.463 243.696 300.359 246.192 298.079 246.192C294.839 246.192 295.007 242.352 295.391 239.88C295.751 237.672 296.903 233.496 299.879 233.496C302.759 233.496 302.615 237.264 302.255 239.424L302.135 240.168ZM306.522 233.688L306.258 235.32H306.306C306.786 234.456 307.626 233.472 308.658 233.496L308.346 235.32L308.058 235.296C306.45 235.296 306.018 236.856 305.706 238.824L304.578 246H303.018L304.962 233.688H306.522ZM79.1437 263.288L78.8557 265.208H78.8077C78.4477 264.56 77.8237 263.96 76.9597 263.96C76.0237 263.96 75.3037 264.68 75.1597 265.592C74.9677 266.768 75.8797 267.488 76.7197 268.304C77.6077 269.144 78.4477 270.056 78.1837 271.664C77.8717 273.632 76.3117 275.192 74.2717 275.192C73.5037 275.192 72.6877 274.832 72.1597 274.352L72.4477 272.528C72.9517 273.152 73.5037 273.728 74.4397 273.728C75.5197 273.728 76.3837 272.888 76.5517 271.856C76.7437 270.632 75.8797 269.816 75.0157 268.928C74.1757 268.064 73.3117 267.104 73.5517 265.64C73.8397 263.792 75.2797 262.496 77.1277 262.496C77.9197 262.496 78.5917 262.808 79.1437 263.288ZM82.6554 273.92C84.0954 273.92 84.6234 272.504 85.2234 268.712C85.5354 266.816 85.9914 263.768 84.1914 263.768C82.5354 263.768 82.0554 266.312 81.7194 268.496C81.3354 270.872 80.9514 273.92 82.6554 273.92ZM82.7754 262.688L82.6554 263.528H82.7034C83.2794 262.856 83.9034 262.496 84.7914 262.496C87.6474 262.496 87.2394 266.216 86.8314 268.712C86.3994 271.496 85.7514 275.192 82.8954 275.192C82.0074 275.192 81.3834 274.736 81.0234 274.04H80.9754L80.0874 279.704H78.5274L81.2154 262.688H82.7754ZM92.7986 262.496C96.0386 262.496 95.6786 266.528 95.3186 268.832C94.9346 271.16 94.0226 275.192 90.7826 275.192C87.5426 275.192 87.8786 271.16 88.2626 268.832C88.6226 266.528 89.5586 262.496 92.7986 262.496ZM92.5586 263.96C90.6866 263.96 90.0386 267.656 89.8706 268.832C89.6786 270.032 89.1266 273.728 90.9986 273.728C92.8706 273.728 93.5186 270.032 93.7106 268.832C93.8786 267.656 94.4306 263.96 92.5586 263.96ZM99.6738 262.688L99.5298 263.672C100.274 262.952 101.186 262.496 102.146 262.496C104.33 262.496 104.186 264.512 103.922 266.192L102.53 275H100.97L102.338 266.36C102.578 264.896 102.65 263.768 101.354 263.768C99.5778 263.768 99.1938 265.712 99.0018 267.008L97.7298 275H96.1698L98.1138 262.688H99.6738ZM111.253 263.288L110.965 265.208H110.917C110.557 264.56 109.933 263.96 109.069 263.96C108.133 263.96 107.413 264.68 107.269 265.592C107.077 266.768 107.989 267.488 108.829 268.304C109.717 269.144 110.557 270.056 110.293 271.664C109.981 273.632 108.421 275.192 106.381 275.192C105.613 275.192 104.797 274.832 104.269 274.352L104.557 272.528C105.061 273.152 105.613 273.728 106.549 273.728C107.629 273.728 108.493 272.888 108.661 271.856C108.853 270.632 107.989 269.816 107.125 268.928C106.285 268.064 105.421 267.104 105.661 265.64C105.949 263.792 107.389 262.496 109.237 262.496C110.029 262.496 110.701 262.808 111.253 263.288ZM116.541 262.496C119.781 262.496 119.421 266.528 119.061 268.832C118.677 271.16 117.765 275.192 114.525 275.192C111.285 275.192 111.621 271.16 112.005 268.832C112.365 266.528 113.301 262.496 116.541 262.496ZM116.301 263.96C114.429 263.96 113.781 267.656 113.613 268.832C113.421 270.032 112.869 273.728 114.741 273.728C116.613 273.728 117.261 270.032 117.453 268.832C117.621 267.656 118.173 263.96 116.301 263.96ZM123.416 262.688L123.152 264.32H123.2C123.68 263.456 124.52 262.472 125.552 262.496L125.24 264.32L124.952 264.296C123.344 264.296 122.912 265.856 122.6 267.824L121.472 275H119.912L121.856 262.688H123.416ZM131.386 263.288L131.098 265.208H131.05C130.69 264.56 130.066 263.96 129.202 263.96C128.266 263.96 127.546 264.68 127.402 265.592C127.21 266.768 128.122 267.488 128.962 268.304C129.85 269.144 130.69 270.056 130.426 271.664C130.114 273.632 128.554 275.192 126.514 275.192C125.746 275.192 124.93 274.832 124.402 274.352L124.69 272.528C125.194 273.152 125.746 273.728 126.682 273.728C127.762 273.728 128.626 272.888 128.794 271.856C128.986 270.632 128.122 269.816 127.258 268.928C126.418 268.064 125.554 267.104 125.794 265.64C126.082 263.792 127.522 262.496 129.37 262.496C130.162 262.496 130.834 262.808 131.386 263.288ZM136.122 255.8L134.874 263.672C135.618 262.952 136.53 262.496 137.49 262.496C139.746 262.496 139.554 264.464 139.266 266.192L137.874 275H136.314L137.658 266.456C137.97 264.536 137.874 263.768 136.698 263.768C134.922 263.768 134.538 265.712 134.346 267.008L133.074 275H131.514L134.562 255.8H136.122ZM143.549 262.688L141.605 275H140.045L141.989 262.688H143.549ZM144.509 259.04C144.413 259.688 143.813 260.216 143.189 260.216C142.541 260.216 142.085 259.688 142.181 259.04C142.277 258.416 142.901 257.888 143.549 257.888C144.173 257.888 144.605 258.416 144.509 259.04ZM147.155 273.92C148.595 273.92 149.123 272.504 149.723 268.712C150.035 266.816 150.491 263.768 148.691 263.768C147.035 263.768 146.555 266.312 146.219 268.496C145.835 270.872 145.451 273.92 147.155 273.92ZM147.275 262.688L147.155 263.528H147.203C147.779 262.856 148.403 262.496 149.291 262.496C152.147 262.496 151.739 266.216 151.331 268.712C150.899 271.496 150.251 275.192 147.395 275.192C146.507 275.192 145.883 274.736 145.523 274.04H145.475L144.587 279.704H143.027L145.715 262.688H147.275ZM162.939 268.64C163.371 265.976 163.515 263.768 161.979 263.768C160.251 263.768 159.723 266.504 159.387 268.592C158.595 273.68 159.387 273.92 160.299 273.92C161.811 273.92 162.315 272.504 162.939 268.64ZM165.291 262.688L163.347 275H161.787L161.931 274.04H161.883C161.331 274.736 160.563 275.192 159.675 275.192C157.707 275.192 156.915 274.088 157.755 268.712C158.211 265.952 158.859 262.496 161.835 262.496C162.699 262.496 163.179 262.856 163.563 263.528H163.611L163.731 262.688H165.291ZM169.002 262.688L168.858 263.672C169.602 262.952 170.514 262.496 171.474 262.496C173.658 262.496 173.514 264.512 173.25 266.192L171.858 275H170.298L171.666 266.36C171.906 264.896 171.978 263.768 170.682 263.768C168.906 263.768 168.522 265.712 168.33 267.008L167.058 275H165.498L167.442 262.688H169.002ZM179.837 268.64C180.293 265.832 180.317 263.768 178.877 263.768C177.125 263.768 176.573 266.84 176.285 268.592C176.117 269.744 175.205 273.92 177.197 273.92C178.853 273.92 179.333 271.88 179.837 268.64ZM178.685 275L178.829 274.04H178.781C178.229 274.736 177.461 275.192 176.573 275.192C174.005 275.192 174.125 272.072 174.653 268.712C175.205 265.352 175.997 262.496 178.733 262.496C179.597 262.496 180.077 262.856 180.461 263.528H180.509L181.733 255.8H183.293L180.245 275H178.685ZM190.893 262.688L188.229 279.536H186.669L189.333 262.688H190.893ZM191.853 259.04C191.757 259.688 191.157 260.216 190.533 260.216C189.885 260.216 189.429 259.688 189.525 259.04C189.621 258.416 190.245 257.888 190.893 257.888C191.517 257.888 191.949 258.416 191.853 259.04ZM196.275 262.496C199.515 262.496 199.155 266.528 198.795 268.832C198.411 271.16 197.499 275.192 194.259 275.192C191.019 275.192 191.355 271.16 191.739 268.832C192.099 266.528 193.035 262.496 196.275 262.496ZM196.035 263.96C194.163 263.96 193.515 267.656 193.347 268.832C193.155 270.032 192.603 273.728 194.475 273.728C196.347 273.728 196.995 270.032 197.187 268.832C197.355 267.656 197.907 263.96 196.035 263.96ZM203.03 273.92C204.302 273.92 204.95 272.816 205.622 268.592C206.078 265.784 206.126 263.768 204.566 263.768C202.67 263.768 202.262 267.392 202.094 268.496C201.854 270.008 201.038 273.92 203.03 273.92ZM199.646 275L202.694 255.8H204.254L203.03 263.528H203.078C203.63 262.832 204.278 262.496 205.166 262.496C208.022 262.496 207.662 265.928 207.206 268.712C206.726 271.832 205.958 275.192 203.27 275.192C202.382 275.192 201.758 274.736 201.398 274.04H201.35L201.206 275H199.646ZM216.39 273.92C217.83 273.92 218.358 272.504 218.958 268.712C219.27 266.816 219.726 263.768 217.926 263.768C216.27 263.768 215.79 266.312 215.454 268.496C215.07 270.872 214.686 273.92 216.39 273.92ZM216.51 262.688L216.39 263.528H216.438C217.014 262.856 217.638 262.496 218.526 262.496C221.382 262.496 220.974 266.216 220.566 268.712C220.134 271.496 219.486 275.192 216.63 275.192C215.742 275.192 215.118 274.736 214.758 274.04H214.71L213.822 279.704H212.262L214.95 262.688H216.51ZM225.981 255.8L222.933 275H221.373L224.421 255.8H225.981ZM230.908 268.64C231.34 265.976 231.484 263.768 229.948 263.768C228.22 263.768 227.692 266.504 227.356 268.592C226.564 273.68 227.356 273.92 228.268 273.92C229.78 273.92 230.284 272.504 230.908 268.64ZM233.26 262.688L231.316 275H229.756L229.9 274.04H229.852C229.3 274.736 228.532 275.192 227.644 275.192C225.676 275.192 224.884 274.088 225.724 268.712C226.18 265.952 226.828 262.496 229.804 262.496C230.668 262.496 231.148 262.856 231.532 263.528H231.58L231.7 262.688H233.26ZM240.307 262.976L240.019 264.776C239.707 264.368 239.275 263.96 238.675 263.96C236.659 263.96 235.915 267.464 235.675 268.88C235.483 270.104 235.171 273.728 237.019 273.728C237.739 273.728 238.291 273.176 238.747 272.624H238.795L238.483 274.568C237.955 274.952 237.211 275.192 236.611 275.192C233.779 275.192 233.707 271.208 234.043 269.096C234.403 266.768 235.579 262.496 238.699 262.496C239.275 262.496 239.851 262.664 240.307 262.976ZM242.546 267.848H246.122L246.146 267.632C246.266 266.456 246.626 263.96 244.994 263.96C243.506 263.96 242.714 266.744 242.546 267.848ZM247.49 269.168H242.306L242.258 269.528C242.066 270.752 241.802 273.728 243.506 273.728C244.874 273.728 245.378 271.808 245.546 270.824H247.154C246.818 272.696 245.714 275.192 243.434 275.192C240.194 275.192 240.362 271.352 240.746 268.88C241.106 266.672 242.258 262.496 245.234 262.496C248.114 262.496 247.97 266.264 247.61 268.424L247.49 269.168ZM251.877 262.688L251.709 263.72H251.757C252.429 263 253.365 262.496 254.301 262.496C255.309 262.496 256.077 263.024 256.341 263.96C257.133 263.048 257.997 262.496 259.125 262.496C261.429 262.496 261.309 264.32 261.021 266.144L259.629 275H258.069L259.461 266.192C259.653 265.016 259.725 263.768 258.453 263.768C256.605 263.768 256.221 265.856 255.981 267.416L254.781 275H253.221L254.613 266.216C254.805 265.064 254.925 263.768 253.653 263.768C251.757 263.768 251.349 266.12 251.085 267.68L249.933 275H248.373L250.317 262.688H251.877ZM264.179 267.848H267.755L267.779 267.632C267.899 266.456 268.259 263.96 266.627 263.96C265.139 263.96 264.347 266.744 264.179 267.848ZM269.123 269.168H263.939L263.891 269.528C263.699 270.752 263.435 273.728 265.139 273.728C266.507 273.728 267.011 271.808 267.179 270.824H268.787C268.451 272.696 267.347 275.192 265.067 275.192C261.827 275.192 261.995 271.352 262.379 268.88C262.739 266.672 263.891 262.496 266.867 262.496C269.747 262.496 269.603 266.264 269.243 268.424L269.123 269.168ZM273.51 262.688L273.366 263.672C274.11 262.952 275.022 262.496 275.982 262.496C278.166 262.496 278.022 264.512 277.758 266.192L276.366 275H274.806L276.174 266.36C276.414 264.896 276.486 263.768 275.19 263.768C273.414 263.768 273.03 265.712 272.838 267.008L271.566 275H270.006L271.95 262.688H273.51ZM284.729 262.688L284.513 264.128H282.473L280.745 275H279.185L280.913 264.128H279.593L279.809 262.688H281.129L281.657 259.328H283.217L282.689 262.688H284.729ZM285.352 272.744C286.024 272.744 286.48 273.296 286.384 273.968C286.264 274.64 285.64 275.192 284.968 275.192C284.296 275.192 283.816 274.64 283.936 273.968C284.032 273.296 284.68 272.744 285.352 272.744Z" fill="white"/>
</svg>
