<svg width="382" height="300" viewBox="0 0 382 300" fill="none" xmlns="http://www.w3.org/2000/svg">
<path d="M310.672 0H71.328C35.5245 0 6.5 24.3478 6.5 54.3823V214.618C6.5 244.652 35.5245 269 71.328 269H310.672C346.475 269 375.5 244.652 375.5 214.618V54.3823C375.5 24.3478 346.475 0 310.672 0Z" fill="#0E3D68"/>
<path d="M62.6813 152.904H67.5773L65.7053 164.736C65.3693 166.92 64.1933 171.312 58.5293 171.312C52.8653 171.312 53.0813 166.92 53.4173 164.736L55.2893 152.904H60.1853L58.3853 164.28C58.3133 164.76 58.1933 165.384 58.2653 165.864C58.3373 166.368 58.5773 166.752 59.2493 166.752C59.9453 166.752 60.3293 166.368 60.5213 165.888C60.7373 165.384 60.8093 164.76 60.8813 164.304L62.6813 152.904ZM67.099 170.568L67.987 164.904C68.515 165.912 69.523 166.92 70.771 166.92C71.443 166.92 72.283 166.512 72.403 165.72C72.475 165.288 72.379 164.976 72.163 164.712C71.995 164.448 71.755 164.232 71.467 164.016C70.627 163.272 69.907 162.576 69.403 161.712C68.947 160.872 68.707 159.864 68.923 158.544C69.259 156.432 71.203 152.592 75.379 152.592C76.555 152.592 77.779 152.952 78.715 153.504L77.851 159C77.419 158.088 76.411 157.056 75.283 157.056C74.707 157.056 73.939 157.464 73.843 158.16C73.771 158.544 73.939 158.88 74.155 159.168C74.371 159.456 74.707 159.696 74.923 159.912C75.835 160.632 76.555 161.304 76.987 162.12C77.419 162.936 77.587 163.896 77.371 165.264C76.843 168.624 74.059 171.312 70.651 171.312C69.403 171.312 68.179 171.048 67.099 170.568ZM92.8823 171H87.8903L86.5943 152.904H91.7303L91.7063 160.344C91.7063 161.808 91.5863 163.248 91.5383 164.712H91.5863C92.0423 163.248 92.3543 161.808 92.8343 160.344L95.3543 152.904H100.658L92.8823 171ZM104.137 171H99.2408L102.097 152.904H106.993L104.137 171ZM106.638 170.568L107.526 164.904C108.054 165.912 109.062 166.92 110.31 166.92C110.982 166.92 111.822 166.512 111.942 165.72C112.014 165.288 111.918 164.976 111.702 164.712C111.534 164.448 111.294 164.232 111.006 164.016C110.166 163.272 109.446 162.576 108.942 161.712C108.486 160.872 108.246 159.864 108.462 158.544C108.798 156.432 110.742 152.592 114.918 152.592C116.094 152.592 117.318 152.952 118.254 153.504L117.39 159C116.958 158.088 115.95 157.056 114.822 157.056C114.246 157.056 113.478 157.464 113.382 158.16C113.31 158.544 113.478 158.88 113.694 159.168C113.91 159.456 114.246 159.696 114.462 159.912C115.374 160.632 116.094 161.304 116.526 162.12C116.958 162.936 117.126 163.896 116.91 165.264C116.382 168.624 113.598 171.312 110.19 171.312C108.942 171.312 107.718 171.048 106.638 170.568ZM131.254 171H126.19V168.672H122.902L122.134 171H117.094L124.294 152.904H130.27L131.254 171ZM124.174 164.832H126.238L126.358 160.632C126.406 159.504 126.478 158.352 126.55 157.224H126.502C126.166 158.352 125.878 159.504 125.494 160.632L124.174 164.832ZM152.184 171H147.12V168.672H143.832L143.064 171H138.024L145.224 152.904H151.2L152.184 171ZM145.104 164.832H147.168L147.288 160.632C147.336 159.504 147.408 158.352 147.48 157.224H147.432C147.096 158.352 146.808 159.504 146.424 160.632L145.104 164.832ZM153.803 171L156.659 152.904H161.315L163.523 163.8L163.571 163.752C163.715 161.664 163.667 159.6 164.003 157.512L164.723 152.904H169.427L166.571 171H161.867L159.875 160.56L159.827 160.608C159.659 162.312 159.611 163.992 159.347 165.696L158.507 171H153.803ZM169.46 171L172.316 152.904H176.252C181.82 152.904 184.268 156.408 183.404 161.88C182.084 170.232 176.708 171 173.732 171H169.46ZM176.516 157.416L175.052 166.632C177.284 166.608 178.1 163.824 178.388 162.12C178.7 160.152 178.748 157.416 176.516 157.416ZM196.457 171H191.561L194.417 152.904H199.313L196.457 171ZM199.342 171L202.198 152.904H206.854L209.062 163.8L209.11 163.752C209.254 161.664 209.206 159.6 209.542 157.512L210.262 152.904H214.966L212.11 171H207.406L205.414 160.56L205.366 160.608C205.198 162.312 205.15 163.992 204.886 165.696L204.046 171H199.342ZM221.695 171H216.799L218.959 157.32H216.271L216.967 152.904H227.359L226.663 157.32H223.855L221.695 171ZM226.46 171L229.316 152.904H238.412L237.74 157.176H233.54L233.156 159.696H236.924L236.228 163.968H232.46L232.028 166.728H236.228L235.556 171H226.46ZM246.308 160.536H253.124L253.028 161.304C252.332 165.768 250.58 171.312 244.916 171.312C239.588 171.312 238.604 166.632 239.324 162.048C240.044 157.56 242.516 152.592 247.82 152.592C250.748 152.592 252.644 154.44 253.292 157.056L248.276 158.808C248.348 158.088 248.06 156.96 247.196 156.96C244.94 156.96 244.46 161.112 244.244 162.48C244.124 163.776 243.524 166.944 245.42 166.944C246.716 166.944 247.364 165.408 247.508 164.352H245.708L246.308 160.536ZM266.535 171H261.231L259.719 163.464L259.647 163.512C259.551 164.4 259.455 165.288 259.311 166.176L258.543 171H253.647L256.503 152.904H261.231C265.479 152.904 268.359 154.152 267.615 158.928C267.303 160.92 266.151 162.696 264.087 163.464L266.535 171ZM260.079 161.256L260.391 161.28C261.687 161.28 262.575 160.152 262.743 158.976C263.007 157.392 262.143 156.72 260.799 156.792L260.079 161.256ZM281.043 171H275.979V168.672H272.691L271.923 171H266.883L274.083 152.904H280.059L281.043 171ZM273.963 164.832H276.027L276.147 160.632C276.195 159.504 276.267 158.352 276.339 157.224H276.291C275.955 158.352 275.667 159.504 275.283 160.632L273.963 164.832ZM288.491 171H283.595L285.755 157.32H283.067L283.763 152.904H294.155L293.459 157.32H290.651L288.491 171ZM298.152 171H293.256L296.112 152.904H301.008L298.152 171ZM301.926 161.952C302.622 157.536 305.334 152.592 310.302 152.592C315.27 152.592 316.446 157.536 315.75 161.952C315.054 166.368 312.318 171.312 307.35 171.312C302.382 171.312 301.23 166.368 301.926 161.952ZM306.918 161.952C306.726 163.08 306.222 166.752 308.07 166.752C309.918 166.752 310.566 163.08 310.758 161.952C310.926 160.824 311.43 157.152 309.582 157.152C307.734 157.152 307.086 160.824 306.918 161.952ZM316.67 171L319.526 152.904H324.182L326.39 163.8L326.438 163.752C326.582 161.664 326.534 159.6 326.87 157.512L327.59 152.904H332.294L329.438 171H324.734L322.742 160.56L322.694 160.608C322.526 162.312 322.478 163.992 322.214 165.696L321.374 171H316.67ZM97.1993 201H92.3033L95.1593 182.904H99.6233C103.895 182.904 106.967 184.296 106.223 189.048C105.479 193.752 102.359 195.192 98.1353 195.072L97.1993 201ZM101.279 188.976C101.471 187.824 101.015 186.792 99.8153 186.792L99.4553 186.816L98.7833 190.992C100.127 191.064 101.063 190.32 101.279 188.976ZM119.207 201H113.903L112.391 193.464L112.319 193.512C112.223 194.4 112.127 195.288 111.983 196.176L111.215 201H106.319L109.175 182.904H113.903C118.151 182.904 121.031 184.152 120.287 188.928C119.975 190.92 118.823 192.696 116.759 193.464L119.207 201ZM112.751 191.256L113.063 191.28C114.359 191.28 115.247 190.152 115.415 188.976C115.679 187.392 114.815 186.72 113.471 186.792L112.751 191.256ZM121.691 191.952C122.387 187.536 125.099 182.592 130.067 182.592C135.035 182.592 136.211 187.536 135.515 191.952C134.819 196.368 132.083 201.312 127.115 201.312C122.147 201.312 120.995 196.368 121.691 191.952ZM126.683 191.952C126.491 193.08 125.987 196.752 127.835 196.752C129.683 196.752 130.331 193.08 130.523 191.952C130.691 190.824 131.195 187.152 129.347 187.152C127.499 187.152 126.851 190.824 126.683 191.952ZM149.204 183.024L148.364 188.208C147.788 187.536 147.26 187.152 146.252 187.152C143.708 187.152 142.652 189.96 142.34 191.952C142.004 194.064 142.196 196.752 144.644 196.752C145.748 196.752 146.516 196.32 147.428 195.6L146.324 200.664C145.268 201.096 144.356 201.312 143.276 201.312C139.268 201.312 136.34 198.264 137.324 192.072C138.596 183.96 144.38 182.592 146.756 182.592C147.62 182.592 148.46 182.712 149.204 183.024ZM149.256 201L152.112 182.904H161.208L160.536 187.176H156.336L155.952 189.696H159.72L159.024 193.968H155.256L154.824 196.728H159.024L158.352 201H149.256ZM160.849 200.568L161.737 194.904C162.265 195.912 163.273 196.92 164.521 196.92C165.193 196.92 166.033 196.512 166.153 195.72C166.225 195.288 166.129 194.976 165.913 194.712C165.745 194.448 165.505 194.232 165.217 194.016C164.377 193.272 163.657 192.576 163.153 191.712C162.697 190.872 162.457 189.864 162.673 188.544C163.009 186.432 164.953 182.592 169.129 182.592C170.305 182.592 171.529 182.952 172.465 183.504L171.601 189C171.169 188.088 170.161 187.056 169.033 187.056C168.457 187.056 167.689 187.464 167.593 188.16C167.521 188.544 167.689 188.88 167.905 189.168C168.121 189.456 168.457 189.696 168.673 189.912C169.585 190.632 170.305 191.304 170.737 192.12C171.169 192.936 171.337 193.896 171.121 195.264C170.593 198.624 167.809 201.312 164.401 201.312C163.153 201.312 161.929 201.048 160.849 200.568ZM172.169 200.568L173.057 194.904C173.585 195.912 174.593 196.92 175.841 196.92C176.513 196.92 177.353 196.512 177.473 195.72C177.545 195.288 177.449 194.976 177.233 194.712C177.065 194.448 176.825 194.232 176.537 194.016C175.697 193.272 174.977 192.576 174.473 191.712C174.017 190.872 173.777 189.864 173.993 188.544C174.329 186.432 176.273 182.592 180.449 182.592C181.625 182.592 182.849 182.952 183.785 183.504L182.921 189C182.489 188.088 181.481 187.056 180.353 187.056C179.777 187.056 179.009 187.464 178.913 188.16C178.841 188.544 179.009 188.88 179.225 189.168C179.441 189.456 179.777 189.696 179.993 189.912C180.905 190.632 181.625 191.304 182.057 192.12C182.489 192.936 182.657 193.896 182.441 195.264C181.913 198.624 179.129 201.312 175.721 201.312C174.473 201.312 173.249 201.048 172.169 200.568ZM196.012 201H191.116L193.972 182.904H198.868L196.012 201ZM198.897 201L201.753 182.904H206.409L208.617 193.8L208.665 193.752C208.809 191.664 208.761 189.6 209.097 187.512L209.817 182.904H214.521L211.665 201H206.961L204.969 190.56L204.921 190.608C204.753 192.312 204.705 193.992 204.441 195.696L203.601 201H198.897ZM227.906 201H223.01L225.17 187.32H222.482L223.178 182.904H233.57L232.874 187.32H230.066L227.906 201ZM244.79 201H239.894L241.046 193.656H238.718L237.566 201H232.67L235.526 182.904H240.422L239.414 189.384H241.742L242.75 182.904H247.646L244.79 201ZM247.694 201L250.55 182.904H259.646L258.974 187.176H254.774L254.39 189.696H258.158L257.462 193.968H253.694L253.262 196.728H257.462L256.79 201H247.694ZM276.455 182.904H281.351L279.479 194.736C279.143 196.92 277.967 201.312 272.303 201.312C266.639 201.312 266.855 196.92 267.191 194.736L269.063 182.904H273.959L272.159 194.28C272.087 194.76 271.967 195.384 272.039 195.864C272.111 196.368 272.351 196.752 273.023 196.752C273.719 196.752 274.103 196.368 274.295 195.888C274.511 195.384 274.583 194.76 274.655 194.304L276.455 182.904ZM280.872 200.568L281.76 194.904C282.288 195.912 283.296 196.92 284.544 196.92C285.216 196.92 286.056 196.512 286.176 195.72C286.248 195.288 286.152 194.976 285.936 194.712C285.768 194.448 285.528 194.232 285.24 194.016C284.4 193.272 283.68 192.576 283.176 191.712C282.72 190.872 282.48 189.864 282.696 188.544C283.032 186.432 284.976 182.592 289.152 182.592C290.328 182.592 291.552 182.952 292.488 183.504L291.624 189C291.192 188.088 290.184 187.056 289.056 187.056C288.48 187.056 287.712 187.464 287.616 188.16C287.544 188.544 287.712 188.88 287.928 189.168C288.144 189.456 288.48 189.696 288.696 189.912C289.608 190.632 290.328 191.304 290.76 192.12C291.192 192.936 291.36 193.896 291.144 195.264C290.616 198.624 287.832 201.312 284.424 201.312C283.176 201.312 281.952 201.048 280.872 200.568Z" fill="#78C440"/>
<path d="M41.0607 126H30.0447V85.284H41.0607V126ZM88.0525 126H76.6045L75.5785 100.404H75.4705C74.9845 103.374 74.6065 106.344 74.0665 109.314L70.9345 126H61.9705L58.1365 100.404H58.0285C57.9745 103.428 58.0285 106.398 57.8665 109.422L56.9485 126H45.1225L49.8745 85.284H63.5905L66.7225 106.938H66.8305C67.1545 104.4 67.4245 101.916 67.9105 99.378L70.5565 85.284H84.1105L88.0525 126ZM132.613 126H121.165L120.139 100.404H120.031C119.545 103.374 119.167 106.344 118.627 109.314L115.495 126H106.531L102.697 100.404H102.589C102.535 103.428 102.589 106.398 102.427 109.422L101.509 126H89.683L94.435 85.284H108.151L111.283 106.938H111.391C111.715 104.4 111.985 101.916 112.471 99.378L115.117 85.284H128.671L132.613 126ZM147.69 126H136.674V85.284H147.69V126ZM168.167 102.456H183.503L183.557 104.184C183.557 114.228 181.613 126.702 168.869 126.702C156.881 126.702 152.993 116.172 152.993 105.858C152.993 95.76 156.827 84.582 168.761 84.582C175.349 84.582 180.263 88.74 182.639 94.626L172.001 98.568C171.893 96.948 170.813 94.41 168.869 94.41C163.793 94.41 164.225 103.752 164.225 106.83C164.387 109.746 164.171 116.874 168.437 116.874C171.353 116.874 172.271 113.418 172.217 111.042H168.167V102.456ZM217.404 126H205.47L199.368 109.044L199.26 109.152C199.314 111.15 199.422 113.148 199.422 115.146V126H188.406V85.284H199.044C208.602 85.284 215.514 88.092 215.514 98.838C215.514 103.32 213.57 107.316 209.196 109.044L217.404 126ZM199.422 104.076L200.124 104.13C203.04 104.13 204.606 101.592 204.606 98.946C204.606 95.382 202.446 93.87 199.422 94.032V104.076ZM250.048 126H238.654L237.844 120.762H230.446L229.528 126H218.188L227.962 85.284H241.408L250.048 126ZM231.904 112.122H236.548L235.36 102.672C235.036 100.134 234.82 97.542 234.55 95.004H234.442C234.118 97.542 233.848 100.134 233.416 102.672L231.904 112.122ZM266.806 126H255.79V95.22H249.742V85.284H273.124V95.22H266.806V126ZM288.543 126H277.527V85.284H288.543V126ZM293.793 105.642C293.793 95.706 298.167 84.582 309.345 84.582C320.523 84.582 324.897 95.706 324.897 105.642C324.897 115.578 320.523 126.702 309.345 126.702C298.167 126.702 293.793 115.578 293.793 105.642ZM305.025 105.642C305.025 108.18 305.187 116.442 309.345 116.442C313.503 116.442 313.665 108.18 313.665 105.642C313.665 103.104 313.503 94.842 309.345 94.842C305.187 94.842 305.025 103.104 305.025 105.642ZM330.209 126V85.284H340.685L349.487 109.8L349.595 109.692C349.163 104.994 348.353 100.35 348.353 95.652V85.284H358.937V126H348.353L340.145 102.51L340.037 102.618C340.307 106.452 340.793 110.232 340.793 114.066V126H330.209Z" fill="white"/>
</svg>
