<svg width="546" height="327" viewBox="0 0 546 327" fill="none" xmlns="http://www.w3.org/2000/svg">
<rect width="546" height="327" rx="50" fill="#0E3D68"/>
<path d="M77.1541 151H66.9541V113.3H77.1541V151ZM83.165 151V113.3H92.865L101.015 136L101.115 135.9C100.715 131.55 99.965 127.25 99.965 122.9V113.3H109.765V151H99.965L92.365 129.25L92.265 129.35C92.515 132.9 92.965 136.4 92.965 139.95V151H83.165ZM125.982 151H115.782V113.3H125.982V151ZM145.943 151H135.743V122.5H130.143V113.3H151.793V122.5H145.943V151ZM166.07 151H155.87V113.3H166.07V151ZM198.981 151H188.431L187.681 146.15H180.831L179.981 151H169.481L178.531 113.3H190.981L198.981 151ZM182.181 138.15H186.481L185.381 129.4C185.081 127.05 184.881 124.65 184.631 122.3H184.531C184.231 124.65 183.981 127.05 183.581 129.4L182.181 138.15ZM220.204 151H202.354V113.3H212.554V142.1H220.204V151ZM264.264 151H253.714L252.964 146.15H246.114L245.264 151H234.764L243.814 113.3H256.264L264.264 151ZM247.464 138.15H251.764L250.664 129.4C250.364 127.05 250.164 124.65 249.914 122.3H249.814C249.514 124.65 249.264 127.05 248.864 129.4L247.464 138.15ZM266.688 150.1V138.3C268.088 140.4 270.538 142.5 273.138 142.5C274.538 142.5 276.138 141.65 276.138 140C276.138 139.1 275.838 138.45 275.338 137.9C274.888 137.35 274.288 136.9 273.638 136.45C271.638 134.9 269.888 133.45 268.588 131.65C267.338 129.9 266.538 127.8 266.538 125.05C266.538 120.65 269.338 112.65 278.038 112.65C280.488 112.65 283.138 113.4 285.288 114.55V126C284.088 124.1 281.638 121.95 279.288 121.95C278.088 121.95 276.638 122.8 276.638 124.25C276.638 125.05 277.088 125.75 277.638 126.35C278.188 126.95 278.938 127.45 279.488 127.9C281.638 129.4 283.338 130.8 284.488 132.5C285.688 134.2 286.338 136.2 286.338 139.05C286.338 146.05 281.438 151.65 274.338 151.65C271.738 151.65 269.088 151.1 266.688 150.1ZM290.272 150.1V138.3C291.672 140.4 294.122 142.5 296.722 142.5C298.122 142.5 299.722 141.65 299.722 140C299.722 139.1 299.422 138.45 298.922 137.9C298.472 137.35 297.872 136.9 297.222 136.45C295.222 134.9 293.472 133.45 292.172 131.65C290.922 129.9 290.122 127.8 290.122 125.05C290.122 120.65 292.922 112.65 301.622 112.65C304.072 112.65 306.722 113.4 308.872 114.55V126C307.672 124.1 305.222 121.95 302.872 121.95C301.672 121.95 300.222 122.8 300.222 124.25C300.222 125.05 300.672 125.75 301.222 126.35C301.772 126.95 302.522 127.45 303.072 127.9C305.222 129.4 306.922 130.8 308.072 132.5C309.272 134.2 309.922 136.2 309.922 139.05C309.922 146.05 305.022 151.65 297.922 151.65C295.322 151.65 292.672 151.1 290.272 150.1ZM314.806 151V113.3H333.756V122.2H325.006V127.45H332.856V136.35H325.006V142.1H333.756V151H314.806ZM338.807 150.1V138.3C340.207 140.4 342.657 142.5 345.257 142.5C346.657 142.5 348.257 141.65 348.257 140C348.257 139.1 347.957 138.45 347.457 137.9C347.007 137.35 346.407 136.9 345.757 136.45C343.757 134.9 342.007 133.45 340.707 131.65C339.457 129.9 338.657 127.8 338.657 125.05C338.657 120.65 341.457 112.65 350.157 112.65C352.607 112.65 355.257 113.4 357.407 114.55V126C356.207 124.1 353.757 121.95 351.407 121.95C350.207 121.95 348.757 122.8 348.757 124.25C348.757 125.05 349.207 125.75 349.757 126.35C350.307 126.95 351.057 127.45 351.607 127.9C353.757 129.4 355.457 130.8 356.607 132.5C357.807 134.2 358.457 136.2 358.457 139.05C358.457 146.05 353.557 151.65 346.457 151.65C343.857 151.65 341.207 151.1 338.807 150.1ZM400.841 151H390.241L389.291 127.3H389.191C388.741 130.05 388.391 132.8 387.891 135.55L384.991 151H376.691L373.141 127.3H373.041C372.991 130.1 373.041 132.85 372.891 135.65L372.041 151H361.091L365.491 113.3H378.191L381.091 133.35H381.191C381.491 131 381.741 128.7 382.191 126.35L384.641 113.3H397.191L400.841 151ZM404.601 151V113.3H423.551V122.2H414.801V127.45H422.651V136.35H414.801V142.1H423.551V151H404.601ZM429.552 151V113.3H439.252L447.402 136L447.502 135.9C447.102 131.55 446.352 127.25 446.352 122.9V113.3H456.152V151H446.352L438.752 129.25L438.652 129.35C438.902 132.9 439.352 136.4 439.352 139.95V151H429.552ZM476.119 151H465.919V122.5H460.319V113.3H481.969V122.5H476.119V151ZM113.556 211H103.006L102.256 206.15H95.4063L94.5563 211H84.0563L93.1063 173.3H105.556L113.556 211ZM96.7563 198.15H101.056L99.9563 189.4C99.6563 187.05 99.4563 184.65 99.2063 182.3H99.1063C98.8063 184.65 98.5563 187.05 98.1563 189.4L96.7563 198.15ZM116.93 211V173.3H126.63L134.78 196L134.88 195.9C134.48 191.55 133.73 187.25 133.73 182.9V173.3H143.53V211H133.73L126.13 189.25L126.03 189.35C126.28 192.9 126.73 196.4 126.73 199.95V211H116.93ZM149.547 211V173.3H157.747C169.347 173.3 175.597 180.6 175.597 192C175.597 209.4 164.647 211 158.447 211H149.547ZM159.747 182.7V201.9C164.397 201.85 165.197 196.05 165.197 192.5C165.197 188.4 164.397 182.7 159.747 182.7ZM214.728 173.55V184.35C213.278 182.95 212.078 182.15 209.978 182.15C204.678 182.15 203.378 188 203.378 192.15C203.378 196.55 204.678 202.15 209.778 202.15C212.078 202.15 213.528 201.25 215.178 199.75L214.578 210.3C212.528 211.2 210.678 211.65 208.428 211.65C200.078 211.65 192.978 205.3 192.978 192.4C192.978 175.5 204.578 172.65 209.528 172.65C211.328 172.65 213.078 172.9 214.728 173.55ZM217.83 192.15C217.83 182.95 221.88 172.65 232.23 172.65C242.58 172.65 246.63 182.95 246.63 192.15C246.63 201.35 242.58 211.65 232.23 211.65C221.88 211.65 217.83 201.35 217.83 192.15ZM228.23 192.15C228.23 194.5 228.38 202.15 232.23 202.15C236.08 202.15 236.23 194.5 236.23 192.15C236.23 189.8 236.08 182.15 232.23 182.15C228.38 182.15 228.23 189.8 228.23 192.15ZM266.699 173.3H276.899V197.95C276.899 202.5 275.899 211.65 264.099 211.65C252.299 211.65 251.299 202.5 251.299 197.95V173.3H261.499V197C261.499 198 261.449 199.3 261.749 200.3C262.049 201.35 262.699 202.15 264.099 202.15C265.549 202.15 266.199 201.35 266.449 200.35C266.749 199.3 266.699 198 266.699 197.05V173.3ZM282.652 211V173.3H292.352L300.502 196L300.602 195.9C300.202 191.55 299.452 187.25 299.452 182.9V173.3H309.252V211H299.452L291.852 189.25L291.752 189.35C292.002 192.9 292.452 196.4 292.452 199.95V211H282.652ZM314.32 210.1V198.3C315.72 200.4 318.17 202.5 320.77 202.5C322.17 202.5 323.77 201.65 323.77 200C323.77 199.1 323.47 198.45 322.97 197.9C322.52 197.35 321.92 196.9 321.27 196.45C319.27 194.9 317.52 193.45 316.22 191.65C314.97 189.9 314.17 187.8 314.17 185.05C314.17 180.65 316.97 172.65 325.67 172.65C328.12 172.65 330.77 173.4 332.92 174.55V186C331.72 184.1 329.27 181.95 326.92 181.95C325.72 181.95 324.27 182.8 324.27 184.25C324.27 185.05 324.72 185.75 325.27 186.35C325.82 186.95 326.57 187.45 327.12 187.9C329.27 189.4 330.97 190.8 332.12 192.5C333.32 194.2 333.97 196.2 333.97 199.05C333.97 206.05 329.07 211.65 321.97 211.65C319.37 211.65 316.72 211.1 314.32 210.1ZM338.854 211V173.3H357.804V182.2H349.054V187.45H356.904V196.35H349.054V202.1H357.804V211H338.854ZM381.655 211H363.805V173.3H374.005V202.1H381.655V211ZM396.026 211H385.826V173.3H396.026V211ZM402.037 211V173.3H411.737L419.887 196L419.987 195.9C419.587 191.55 418.837 187.25 418.837 182.9V173.3H428.637V211H418.837L411.237 189.25L411.137 189.35C411.387 192.9 411.837 196.4 411.837 199.95V211H402.037ZM447.604 189.2H461.804L461.854 190.8C461.854 200.1 460.054 211.65 448.254 211.65C437.154 211.65 433.554 201.9 433.554 192.35C433.554 183 437.104 172.65 448.154 172.65C454.254 172.65 458.804 176.5 461.004 181.95L451.154 185.6C451.054 184.1 450.054 181.75 448.254 181.75C443.554 181.75 443.954 190.4 443.954 193.25C444.104 195.95 443.904 202.55 447.854 202.55C450.554 202.55 451.404 199.35 451.354 197.15H447.604V189.2Z" fill="#E0F3FF" fill-opacity="0.9"/>
</svg>
