<svg width="546" height="327" viewBox="0 0 546 327" fill="none" xmlns="http://www.w3.org/2000/svg">
<rect width="546" height="327" rx="50" fill="#6CBF2A"/>
<g clip-path="url(#clip0_2029_490)">
<path d="M91.4165 99L58.6469 86.5L57.3748 87.6833L62.7498 99L57.3748 110.317L58.6469 111.5L91.4165 99Z" fill="#0E3D68"/>
</g>
<path d="M116.752 92.048L115.652 99H113.584L116.202 82.412H118.578C123.682 82.412 125.002 84.172 124.518 87.208C123.968 90.706 121.086 92.048 117.94 92.048H116.752ZM117.984 84.26L117.038 90.2H117.698C119.81 90.2 122.164 89.804 122.582 87.164C123 84.568 120.58 84.26 118.534 84.26H117.984ZM128.255 97.592C130.411 97.592 131.863 95.876 132.193 93.852C132.501 91.85 131.577 90.156 129.443 90.156C127.397 90.156 125.901 91.938 125.593 93.852C125.285 95.788 126.165 97.592 128.255 97.592ZM134.877 88.704L133.249 99H131.269L131.533 97.394H131.489C130.499 98.56 129.135 99.352 127.661 99.352C124.515 99.352 123.151 96.734 123.635 93.786C124.075 90.97 126.341 88.396 129.333 88.396C130.851 88.396 131.973 89.188 132.589 90.42H132.633L132.897 88.704H134.877ZM139.555 88.704L139.291 90.376H139.357C140.039 89.166 141.161 88.396 142.481 88.396C143.053 88.396 143.603 88.594 144.043 88.902L142.855 90.706C142.547 90.398 142.173 90.288 141.711 90.288C139.577 90.288 138.983 92.268 138.719 93.94L137.927 99H135.947L137.575 88.704H139.555ZM147.566 90.552L146.224 99H144.244L145.586 90.552H144.508L144.794 88.704H145.872L146.488 84.766H148.468L147.852 88.704H149.788L149.502 90.552H147.566ZM153.312 88.704L151.684 99H149.704L151.332 88.704H153.312ZM153.29 82.61C154.038 82.61 154.566 83.226 154.434 83.996C154.324 84.744 153.598 85.338 152.85 85.338C152.102 85.338 151.596 84.744 151.706 83.996C151.838 83.226 152.542 82.61 153.29 82.61ZM163.98 89.078L163.584 91.63C162.946 90.728 162.044 90.244 160.856 90.244C158.92 90.244 157.16 91.96 156.852 93.852C156.522 95.964 157.754 97.504 159.844 97.504C160.988 97.504 162 96.976 162.88 96.14L162.462 98.67C161.494 99.154 160.548 99.352 159.514 99.352C156.478 99.352 154.366 97.02 154.85 93.94C155.356 90.75 158.194 88.396 161.362 88.396C162.286 88.396 163.276 88.616 163.98 89.078ZM168.609 88.704L166.981 99H165.001L166.629 88.704H168.609ZM168.587 82.61C169.335 82.61 169.863 83.226 169.731 83.996C169.621 84.744 168.895 85.338 168.147 85.338C167.399 85.338 166.893 84.744 167.003 83.996C167.135 83.226 167.839 82.61 168.587 82.61ZM175.339 97.592C177.495 97.592 178.947 95.876 179.277 93.852C179.585 91.85 178.661 90.156 176.527 90.156C174.481 90.156 172.985 91.938 172.677 93.852C172.369 95.788 173.249 97.592 175.339 97.592ZM173.601 88.704L173.337 90.42H173.381C174.393 89.188 175.735 88.396 177.275 88.396C180.245 88.396 181.719 90.97 181.279 93.786C180.795 96.734 178.617 99.352 175.449 99.352C173.997 99.352 172.875 98.56 172.281 97.394H172.237L171.049 104.896H169.069L171.621 88.704H173.601ZM187.036 97.592C189.192 97.592 190.644 95.876 190.974 93.852C191.282 91.85 190.358 90.156 188.224 90.156C186.178 90.156 184.682 91.938 184.374 93.852C184.066 95.788 184.946 97.592 187.036 97.592ZM193.658 88.704L192.03 99H190.05L190.314 97.394H190.27C189.28 98.56 187.916 99.352 186.442 99.352C183.296 99.352 181.932 96.734 182.416 93.786C182.856 90.97 185.122 88.396 188.114 88.396C189.632 88.396 190.754 89.188 191.37 90.42H191.414L191.678 88.704H193.658ZM198.204 90.552L196.862 99H194.882L196.224 90.552H195.146L195.432 88.704H196.51L197.126 84.766H199.106L198.49 88.704H200.426L200.14 90.552H198.204ZM209.694 94.182H201.84C201.576 95.942 202.5 97.592 204.392 97.592C205.91 97.592 206.856 96.822 207.802 95.59L209.32 96.536C208.066 98.318 206.086 99.352 204.084 99.352C200.938 99.352 199.42 96.976 199.882 93.94C200.388 90.772 202.456 88.396 205.778 88.396C209.056 88.396 210.222 90.816 209.738 93.874L209.694 94.182ZM202.17 92.686H207.934C207.956 91.146 207.098 90.112 205.514 90.112C203.974 90.112 202.654 91.212 202.17 92.686ZM221.031 88.704L219.403 99H217.423L219.051 88.704H221.031ZM221.009 82.61C221.757 82.61 222.285 83.226 222.153 83.996C222.043 84.744 221.317 85.338 220.569 85.338C219.821 85.338 219.315 84.744 219.425 83.996C219.557 83.226 220.261 82.61 221.009 82.61ZM226.177 88.704L225.957 90.09H226.001C226.793 88.99 228.113 88.396 229.367 88.396C232.271 88.396 232.711 90.354 232.315 92.862L231.347 99H229.367L230.291 93.104C230.577 91.344 230.533 90.156 228.509 90.156C225.957 90.156 225.605 92.4 225.297 94.27L224.549 99H222.569L224.197 88.704H226.177ZM243.986 88.704L243.788 90.002H243.832C244.536 89.1 245.68 88.396 246.802 88.396C248.144 88.396 249.002 89.078 249.486 90.222C250.3 89.122 251.642 88.396 252.94 88.396C255.646 88.396 256.02 90.508 255.646 92.84L254.678 99H252.698L253.622 93.17C253.82 91.85 253.93 90.156 252.192 90.156C250.08 90.156 249.574 92.356 249.31 93.94L248.518 99H246.538L247.396 93.544C247.616 92.202 247.88 90.156 246.054 90.156C243.942 90.156 243.414 92.334 243.15 93.94L242.358 99H240.378L242.006 88.704H243.986ZM263.557 88.396C266.637 88.396 268.683 90.772 268.199 93.874C267.715 96.976 264.899 99.352 261.819 99.352C258.739 99.352 256.715 96.976 257.199 93.874C257.683 90.772 260.477 88.396 263.557 88.396ZM263.271 90.288C261.313 90.288 259.487 91.916 259.179 93.874C258.871 95.81 260.169 97.46 262.127 97.46C264.085 97.46 265.911 95.81 266.219 93.874C266.527 91.916 265.229 90.288 263.271 90.288ZM278.32 89.078L277.924 91.63C277.286 90.728 276.384 90.244 275.196 90.244C273.26 90.244 271.5 91.96 271.192 93.852C270.862 95.964 272.094 97.504 274.184 97.504C275.328 97.504 276.34 96.976 277.22 96.14L276.802 98.67C275.834 99.154 274.888 99.352 273.854 99.352C270.818 99.352 268.706 97.02 269.19 93.94C269.696 90.75 272.534 88.396 275.702 88.396C276.626 88.396 277.616 88.616 278.32 89.078ZM284.027 79.904L282.025 92.576L286.513 88.704H289.131L284.049 92.972L287.943 99H285.369L282.443 94.314L281.651 94.996L281.013 99H279.033L282.047 79.904H284.027ZM299.471 88.704L297.843 99H295.863L297.491 88.704H299.471ZM299.449 82.61C300.197 82.61 300.725 83.226 300.593 83.996C300.483 84.744 299.757 85.338 299.009 85.338C298.261 85.338 297.755 84.744 297.865 83.996C297.997 83.226 298.701 82.61 299.449 82.61ZM304.617 88.704L304.397 90.09H304.441C305.233 88.99 306.553 88.396 307.807 88.396C310.711 88.396 311.151 90.354 310.755 92.862L309.787 99H307.807L308.731 93.104C309.017 91.344 308.973 90.156 306.949 90.156C304.397 90.156 304.045 92.4 303.737 94.27L302.989 99H301.009L302.637 88.704H304.617ZM316.132 90.552L314.79 99H312.81L314.152 90.552H313.074L313.36 88.704H314.438L315.054 84.766H317.034L316.418 88.704H318.354L318.068 90.552H316.132ZM327.621 94.182H319.767C319.503 95.942 320.427 97.592 322.319 97.592C323.837 97.592 324.783 96.822 325.729 95.59L327.247 96.536C325.993 98.318 324.013 99.352 322.011 99.352C318.865 99.352 317.347 96.976 317.809 93.94C318.315 90.772 320.383 88.396 323.705 88.396C326.983 88.396 328.149 90.816 327.665 93.874L327.621 94.182ZM320.097 92.686H325.861C325.883 91.146 325.025 90.112 323.441 90.112C321.901 90.112 320.581 91.212 320.097 92.686ZM332.292 88.704L332.028 90.376H332.094C332.776 89.166 333.898 88.396 335.218 88.396C335.79 88.396 336.34 88.594 336.78 88.902L335.592 90.706C335.284 90.398 334.91 90.288 334.448 90.288C332.314 90.288 331.72 92.268 331.456 93.94L330.664 99H328.684L330.312 88.704H332.292ZM339.345 88.704L341.281 95.128L345.263 88.704H347.485L340.599 99.352L337.123 88.704H339.345ZM350.99 88.704L349.362 99H347.382L349.01 88.704H350.99ZM350.968 82.61C351.716 82.61 352.244 83.226 352.112 83.996C352.002 84.744 351.276 85.338 350.528 85.338C349.78 85.338 349.274 84.744 349.384 83.996C349.516 83.226 350.22 82.61 350.968 82.61ZM362.34 94.182H354.486C354.222 95.942 355.146 97.592 357.038 97.592C358.556 97.592 359.502 96.822 360.448 95.59L361.966 96.536C360.712 98.318 358.732 99.352 356.73 99.352C353.584 99.352 352.066 96.976 352.528 93.94C353.034 90.772 355.102 88.396 358.424 88.396C361.702 88.396 362.868 90.816 362.384 93.874L362.34 94.182ZM354.816 92.686H360.58C360.602 91.146 359.744 90.112 358.16 90.112C356.62 90.112 355.3 91.212 354.816 92.686ZM365.426 88.704L367.384 95.26L371.542 88.132L373.434 95.26L377.46 88.704H379.704L372.774 99.352L370.86 92.466L366.724 99.352L363.182 88.704H365.426ZM386.189 90.2L384.451 91.058C384.297 90.552 383.857 90.156 383.285 90.156C382.735 90.156 382.141 90.596 382.031 91.168C381.899 92.07 383.021 92.466 384.143 93.016C385.265 93.566 386.321 94.314 386.057 95.942C385.749 97.9 383.879 99.352 381.965 99.352C380.469 99.352 379.105 98.494 378.775 97.042L380.601 96.272C380.887 97.042 381.305 97.592 382.251 97.592C383.087 97.592 383.901 97.02 384.055 96.14C384.143 95.59 383.901 95.326 383.505 95.018L381.723 93.984C380.689 93.368 379.941 92.796 380.161 91.388C380.425 89.716 381.987 88.396 383.659 88.396C384.913 88.396 385.815 89.078 386.189 90.2ZM397.472 90.552L396.13 99H394.15L395.492 90.552H394.414L394.7 88.704H395.778L396.394 84.766H398.374L397.758 88.704H399.694L399.408 90.552H397.472ZM405.397 88.396C408.477 88.396 410.523 90.772 410.039 93.874C409.555 96.976 406.739 99.352 403.659 99.352C400.579 99.352 398.555 96.976 399.039 93.874C399.523 90.772 402.317 88.396 405.397 88.396ZM405.111 90.288C403.153 90.288 401.327 91.916 401.019 93.874C400.711 95.81 402.009 97.46 403.967 97.46C405.925 97.46 407.751 95.81 408.059 93.874C408.367 91.916 407.069 90.288 405.111 90.288ZM422.581 97.592C424.737 97.592 426.189 95.876 426.519 93.852C426.827 91.85 425.903 90.156 423.769 90.156C421.723 90.156 420.227 91.938 419.919 93.852C419.611 95.788 420.491 97.592 422.581 97.592ZM420.843 88.704L420.579 90.42H420.623C421.635 89.188 422.977 88.396 424.517 88.396C427.487 88.396 428.961 90.97 428.521 93.786C428.037 96.734 425.859 99.352 422.691 99.352C421.239 99.352 420.117 98.56 419.523 97.394H419.479L418.291 104.896H416.311L418.863 88.704H420.843ZM433.354 88.704L433.09 90.376H433.156C433.838 89.166 434.96 88.396 436.28 88.396C436.852 88.396 437.402 88.594 437.842 88.902L436.654 90.706C436.346 90.398 435.972 90.288 435.51 90.288C433.376 90.288 432.782 92.268 432.518 93.94L431.726 99H429.746L431.374 88.704H433.354ZM441.733 97.592C443.889 97.592 445.341 95.876 445.671 93.852C445.979 91.85 445.055 90.156 442.921 90.156C440.875 90.156 439.379 91.938 439.071 93.852C438.763 95.788 439.643 97.592 441.733 97.592ZM448.355 88.704L446.727 99H444.747L445.011 97.394H444.967C443.977 98.56 442.613 99.352 441.139 99.352C437.993 99.352 436.629 96.734 437.113 93.786C437.553 90.97 439.819 88.396 442.811 88.396C444.329 88.396 445.451 89.188 446.067 90.42H446.111L446.375 88.704H448.355ZM458.424 89.078L458.028 91.63C457.39 90.728 456.488 90.244 455.3 90.244C453.364 90.244 451.604 91.96 451.296 93.852C450.966 95.964 452.198 97.504 454.288 97.504C455.432 97.504 456.444 96.976 457.324 96.14L456.906 98.67C455.938 99.154 454.992 99.352 453.958 99.352C450.922 99.352 448.81 97.02 449.294 93.94C449.8 90.75 452.638 88.396 455.806 88.396C456.73 88.396 457.72 88.616 458.424 89.078ZM462.613 90.552L461.271 99H459.291L460.633 90.552H459.555L459.841 88.704H460.919L461.535 84.766H463.515L462.899 88.704H464.835L464.549 90.552H462.613ZM468.359 88.704L466.731 99H464.751L466.379 88.704H468.359ZM468.337 82.61C469.085 82.61 469.613 83.226 469.481 83.996C469.371 84.744 468.645 85.338 467.897 85.338C467.149 85.338 466.643 84.744 466.753 83.996C466.885 83.226 467.589 82.61 468.337 82.61ZM479.027 89.078L478.631 91.63C477.993 90.728 477.091 90.244 475.903 90.244C473.967 90.244 472.207 91.96 471.899 93.852C471.569 95.964 472.801 97.504 474.891 97.504C476.035 97.504 477.047 96.976 477.927 96.14L477.509 98.67C476.541 99.154 475.595 99.352 474.561 99.352C471.525 99.352 469.413 97.02 469.897 93.94C470.403 90.75 473.241 88.396 476.409 88.396C477.333 88.396 478.323 88.616 479.027 89.078ZM489.162 94.182H481.308C481.044 95.942 481.968 97.592 483.86 97.592C485.378 97.592 486.324 96.822 487.27 95.59L488.788 96.536C487.534 98.318 485.554 99.352 483.552 99.352C480.406 99.352 478.888 96.976 479.35 93.94C479.856 90.772 481.924 88.396 485.246 88.396C488.524 88.396 489.69 90.816 489.206 93.874L489.162 94.182ZM481.638 92.686H487.402C487.424 91.146 486.566 90.112 484.982 90.112C483.442 90.112 482.122 91.212 481.638 92.686ZM118.028 123.592C120.184 123.592 121.636 121.876 121.966 119.852C122.274 117.85 121.35 116.156 119.216 116.156C117.17 116.156 115.674 117.938 115.366 119.852C115.058 121.788 115.938 123.592 118.028 123.592ZM124.65 114.704L123.022 125H121.042L121.306 123.394H121.262C120.272 124.56 118.908 125.352 117.434 125.352C114.288 125.352 112.924 122.734 113.408 119.786C113.848 116.97 116.114 114.396 119.106 114.396C120.624 114.396 121.746 115.188 122.362 116.42H122.406L122.67 114.704H124.65ZM129.197 114.704L128.977 116.09H129.021C129.813 114.99 131.133 114.396 132.387 114.396C135.291 114.396 135.731 116.354 135.335 118.862L134.367 125H132.387L133.311 119.104C133.597 117.344 133.553 116.156 131.529 116.156C128.977 116.156 128.625 118.4 128.317 120.27L127.569 125H125.589L127.217 114.704H129.197ZM144.232 116.2L142.494 117.058C142.34 116.552 141.9 116.156 141.328 116.156C140.778 116.156 140.184 116.596 140.074 117.168C139.942 118.07 141.064 118.466 142.186 119.016C143.308 119.566 144.364 120.314 144.1 121.942C143.792 123.9 141.922 125.352 140.008 125.352C138.512 125.352 137.148 124.494 136.818 123.042L138.644 122.272C138.93 123.042 139.348 123.592 140.294 123.592C141.13 123.592 141.944 123.02 142.098 122.14C142.186 121.59 141.944 121.326 141.548 121.018L139.766 119.984C138.732 119.368 137.984 118.796 138.204 117.388C138.468 115.716 140.03 114.396 141.702 114.396C142.956 114.396 143.858 115.078 144.232 116.2ZM147.704 114.704L149.662 121.26L153.82 114.132L155.712 121.26L159.738 114.704H161.982L155.052 125.352L153.138 118.466L149.002 125.352L145.46 114.704H147.704ZM171.151 120.182H163.297C163.033 121.942 163.957 123.592 165.849 123.592C167.367 123.592 168.313 122.822 169.259 121.59L170.777 122.536C169.523 124.318 167.543 125.352 165.541 125.352C162.395 125.352 160.877 122.976 161.339 119.94C161.845 116.772 163.913 114.396 167.235 114.396C170.513 114.396 171.679 116.816 171.195 119.874L171.151 120.182ZM163.627 118.686H169.391C169.413 117.146 168.555 116.112 166.971 116.112C165.431 116.112 164.111 117.212 163.627 118.686ZM175.821 114.704L175.557 116.376H175.623C176.305 115.166 177.427 114.396 178.747 114.396C179.319 114.396 179.869 114.594 180.309 114.902L179.121 116.706C178.813 116.398 178.439 116.288 177.977 116.288C175.843 116.288 175.249 118.268 174.985 119.94L174.193 125H172.213L173.841 114.704H175.821ZM183.842 114.704L182.214 125H180.234L181.862 114.704H183.842ZM183.82 108.61C184.568 108.61 185.096 109.226 184.964 109.996C184.854 110.744 184.128 111.338 183.38 111.338C182.632 111.338 182.126 110.744 182.236 109.996C182.368 109.226 183.072 108.61 183.82 108.61ZM188.988 114.704L188.768 116.09H188.812C189.604 114.99 190.924 114.396 192.178 114.396C195.082 114.396 195.522 116.354 195.126 118.862L194.158 125H192.178L193.102 119.104C193.388 117.344 193.344 116.156 191.32 116.156C188.768 116.156 188.416 118.4 188.108 120.27L187.36 125H185.38L187.008 114.704H188.988ZM201.537 123.592C203.693 123.592 205.145 121.876 205.475 119.852C205.783 117.85 204.859 116.156 202.725 116.156C200.679 116.156 199.183 117.938 198.875 119.852C198.567 121.788 199.447 123.592 201.537 123.592ZM208.159 114.704L206.553 124.802C206.003 128.344 204.595 130.896 200.591 130.896C197.731 130.896 195.927 129.136 196.345 126.232H198.325C198.039 128.08 199.139 129.136 200.943 129.136C203.385 129.136 204.155 127.464 204.485 125.352L204.815 123.394H204.771C203.781 124.56 202.395 125.352 200.943 125.352C197.775 125.352 196.433 122.734 196.917 119.786C197.357 116.97 199.623 114.396 202.593 114.396C204.133 114.396 205.255 115.188 205.849 116.464H205.893L206.179 114.704H208.159ZM224.588 115.078L224.192 117.63C223.554 116.728 222.652 116.244 221.464 116.244C219.528 116.244 217.768 117.96 217.46 119.852C217.13 121.964 218.362 123.504 220.452 123.504C221.596 123.504 222.608 122.976 223.488 122.14L223.07 124.67C222.102 125.154 221.156 125.352 220.122 125.352C217.086 125.352 214.974 123.02 215.458 119.94C215.964 116.75 218.802 114.396 221.97 114.396C222.894 114.396 223.884 114.616 224.588 115.078ZM231.159 114.396C234.239 114.396 236.285 116.772 235.801 119.874C235.317 122.976 232.501 125.352 229.421 125.352C226.341 125.352 224.317 122.976 224.801 119.874C225.285 116.772 228.079 114.396 231.159 114.396ZM230.873 116.288C228.915 116.288 227.089 117.916 226.781 119.874C226.473 121.81 227.771 123.46 229.729 123.46C231.687 123.46 233.513 121.81 233.821 119.874C234.129 117.916 232.831 116.288 230.873 116.288ZM240.334 114.704L240.136 116.002H240.18C240.884 115.1 242.028 114.396 243.15 114.396C244.492 114.396 245.35 115.078 245.834 116.222C246.648 115.122 247.99 114.396 249.288 114.396C251.994 114.396 252.368 116.508 251.994 118.84L251.026 125H249.046L249.97 119.17C250.168 117.85 250.278 116.156 248.54 116.156C246.428 116.156 245.922 118.356 245.658 119.94L244.866 125H242.886L243.744 119.544C243.964 118.202 244.228 116.156 242.402 116.156C240.29 116.156 239.762 118.334 239.498 119.94L238.706 125H236.726L238.354 114.704H240.334ZM257.199 114.704L257.001 116.002H257.045C257.749 115.1 258.893 114.396 260.015 114.396C261.357 114.396 262.215 115.078 262.699 116.222C263.513 115.122 264.855 114.396 266.153 114.396C268.859 114.396 269.233 116.508 268.859 118.84L267.891 125H265.911L266.835 119.17C267.033 117.85 267.143 116.156 265.405 116.156C263.293 116.156 262.787 118.356 262.523 119.94L261.731 125H259.751L260.609 119.544C260.829 118.202 261.093 116.156 259.267 116.156C257.155 116.156 256.627 118.334 256.363 119.94L255.571 125H253.591L255.219 114.704H257.199ZM276.77 114.396C279.85 114.396 281.896 116.772 281.412 119.874C280.928 122.976 278.112 125.352 275.032 125.352C271.952 125.352 269.928 122.976 270.412 119.874C270.896 116.772 273.69 114.396 276.77 114.396ZM276.484 116.288C274.526 116.288 272.7 117.916 272.392 119.874C272.084 121.81 273.382 123.46 275.34 123.46C277.298 123.46 279.124 121.81 279.432 119.874C279.74 117.916 278.442 116.288 276.484 116.288ZM286.011 114.704L285.791 116.09H285.835C286.627 114.99 287.947 114.396 289.201 114.396C292.105 114.396 292.545 116.354 292.149 118.862L291.181 125H289.201L290.125 119.104C290.411 117.344 290.367 116.156 288.343 116.156C285.791 116.156 285.439 118.4 285.131 120.27L284.383 125H282.403L284.031 114.704H286.011ZM304.942 123.592C307.098 123.592 308.55 121.876 308.88 119.852C309.188 117.85 308.264 116.156 306.13 116.156C304.084 116.156 302.588 117.938 302.28 119.852C301.972 121.788 302.852 123.592 304.942 123.592ZM311.564 114.704L309.012 130.896H307.032L308.22 123.394H308.176C307.186 124.56 305.8 125.352 304.348 125.352C301.18 125.352 299.838 122.734 300.322 119.786C300.762 116.97 303.028 114.396 305.998 114.396C307.538 114.396 308.66 115.188 309.276 116.42H309.32L309.584 114.704H311.564ZM314.043 114.704H316.023L315.121 120.402C314.857 122.052 315.055 123.504 317.013 123.504C318.971 123.504 319.609 122.052 319.873 120.402L320.775 114.704H322.755L321.831 120.622C321.369 123.438 319.741 125.352 316.705 125.352C313.669 125.352 312.657 123.438 313.119 120.622L314.043 114.704ZM333.572 120.182H325.718C325.454 121.942 326.378 123.592 328.27 123.592C329.788 123.592 330.734 122.822 331.68 121.59L333.198 122.536C331.944 124.318 329.964 125.352 327.962 125.352C324.816 125.352 323.298 122.976 323.76 119.94C324.266 116.772 326.334 114.396 329.656 114.396C332.934 114.396 334.1 116.816 333.616 119.874L333.572 120.182ZM326.048 118.686H331.812C331.834 117.146 330.976 116.112 329.392 116.112C327.852 116.112 326.532 117.212 326.048 118.686ZM341.631 116.2L339.893 117.058C339.739 116.552 339.299 116.156 338.727 116.156C338.177 116.156 337.583 116.596 337.473 117.168C337.341 118.07 338.463 118.466 339.585 119.016C340.707 119.566 341.763 120.314 341.499 121.942C341.191 123.9 339.321 125.352 337.407 125.352C335.911 125.352 334.547 124.494 334.217 123.042L336.043 122.272C336.329 123.042 336.747 123.592 337.693 123.592C338.529 123.592 339.343 123.02 339.497 122.14C339.585 121.59 339.343 121.326 338.947 121.018L337.165 119.984C336.131 119.368 335.383 118.796 335.603 117.388C335.867 115.716 337.429 114.396 339.101 114.396C340.355 114.396 341.257 115.078 341.631 116.2ZM346.554 116.552L345.212 125H343.232L344.574 116.552H343.496L343.782 114.704H344.86L345.476 110.766H347.456L346.84 114.704H348.776L348.49 116.552H346.554ZM352.301 114.704L350.673 125H348.693L350.321 114.704H352.301ZM352.279 108.61C353.027 108.61 353.555 109.226 353.423 109.996C353.313 110.744 352.587 111.338 351.839 111.338C351.091 111.338 350.585 110.744 350.695 109.996C350.827 109.226 351.531 108.61 352.279 108.61ZM360.087 114.396C363.167 114.396 365.213 116.772 364.729 119.874C364.245 122.976 361.429 125.352 358.349 125.352C355.269 125.352 353.245 122.976 353.729 119.874C354.213 116.772 357.007 114.396 360.087 114.396ZM359.801 116.288C357.843 116.288 356.017 117.916 355.709 119.874C355.401 121.81 356.699 123.46 358.657 123.46C360.615 123.46 362.441 121.81 362.749 119.874C363.057 117.916 361.759 116.288 359.801 116.288ZM369.327 114.704L369.107 116.09H369.151C369.943 114.99 371.263 114.396 372.517 114.396C375.421 114.396 375.861 116.354 375.465 118.862L374.497 125H372.517L373.441 119.104C373.727 117.344 373.683 116.156 371.659 116.156C369.107 116.156 368.755 118.4 368.447 120.27L367.699 125H365.719L367.347 114.704H369.327ZM384.363 116.2L382.625 117.058C382.471 116.552 382.031 116.156 381.459 116.156C380.909 116.156 380.315 116.596 380.205 117.168C380.073 118.07 381.195 118.466 382.317 119.016C383.439 119.566 384.495 120.314 384.231 121.942C383.923 123.9 382.053 125.352 380.139 125.352C378.643 125.352 377.279 124.494 376.949 123.042L378.775 122.272C379.061 123.042 379.479 123.592 380.425 123.592C381.261 123.592 382.075 123.02 382.229 122.14C382.317 121.59 382.075 121.326 381.679 121.018L379.897 119.984C378.863 119.368 378.115 118.796 378.335 117.388C378.599 115.716 380.161 114.396 381.833 114.396C383.087 114.396 383.989 115.078 384.363 116.2ZM396.702 123.592C398.858 123.592 400.31 121.876 400.64 119.852C400.948 117.85 400.024 116.156 397.89 116.156C395.844 116.156 394.348 117.938 394.04 119.852C393.732 121.788 394.612 123.592 396.702 123.592ZM403.324 114.704L401.696 125H399.716L399.98 123.394H399.936C398.946 124.56 397.582 125.352 396.108 125.352C392.962 125.352 391.598 122.734 392.082 119.786C392.522 116.97 394.788 114.396 397.78 114.396C399.298 114.396 400.42 115.188 401.036 116.42H401.08L401.344 114.704H403.324ZM407.87 114.704L407.65 116.09H407.694C408.486 114.99 409.806 114.396 411.06 114.396C413.964 114.396 414.404 116.354 414.008 118.862L413.04 125H411.06L411.984 119.104C412.27 117.344 412.226 116.156 410.202 116.156C407.65 116.156 407.298 118.4 406.99 120.27L406.242 125H404.262L405.89 114.704H407.87ZM420.442 123.592C422.598 123.592 424.05 121.876 424.38 119.852C424.688 117.85 423.764 116.156 421.63 116.156C419.584 116.156 418.088 117.938 417.78 119.852C417.472 121.788 418.352 123.592 420.442 123.592ZM423.456 125L423.72 123.394H423.676C422.686 124.56 421.3 125.352 419.848 125.352C416.68 125.352 415.338 122.734 415.822 119.786C416.262 116.97 418.528 114.396 421.498 114.396C423.038 114.396 424.16 115.188 424.776 116.42H424.82L426.47 105.904H428.45L425.436 125H423.456ZM117.104 140.704L116.84 142.376H116.906C117.588 141.166 118.71 140.396 120.03 140.396C120.602 140.396 121.152 140.594 121.592 140.902L120.404 142.706C120.096 142.398 119.722 142.288 119.26 142.288C117.126 142.288 116.532 144.268 116.268 145.94L115.476 151H113.496L115.124 140.704H117.104ZM130.502 146.182H122.648C122.384 147.942 123.308 149.592 125.2 149.592C126.718 149.592 127.664 148.822 128.61 147.59L130.128 148.536C128.874 150.318 126.894 151.352 124.892 151.352C121.746 151.352 120.228 148.976 120.69 145.94C121.196 142.772 123.264 140.396 126.586 140.396C129.864 140.396 131.03 142.816 130.546 145.874L130.502 146.182ZM122.978 144.686H128.742C128.764 143.146 127.906 142.112 126.322 142.112C124.782 142.112 123.462 143.212 122.978 144.686ZM140.562 141.078L140.166 143.63C139.528 142.728 138.626 142.244 137.438 142.244C135.502 142.244 133.742 143.96 133.434 145.852C133.104 147.964 134.336 149.504 136.426 149.504C137.57 149.504 138.582 148.976 139.462 148.14L139.044 150.67C138.076 151.154 137.13 151.352 136.096 151.352C133.06 151.352 130.948 149.02 131.432 145.94C131.938 142.75 134.776 140.396 137.944 140.396C138.868 140.396 139.858 140.616 140.562 141.078ZM150.697 146.182H142.843C142.579 147.942 143.503 149.592 145.395 149.592C146.913 149.592 147.859 148.822 148.805 147.59L150.323 148.536C149.069 150.318 147.089 151.352 145.087 151.352C141.941 151.352 140.423 148.976 140.885 145.94C141.391 142.772 143.459 140.396 146.781 140.396C150.059 140.396 151.225 142.816 150.741 145.874L150.697 146.182ZM143.173 144.686H148.937C148.959 143.146 148.101 142.112 146.517 142.112C144.977 142.112 143.657 143.212 143.173 144.686ZM155.676 140.704L154.048 151H152.068L153.696 140.704H155.676ZM155.654 134.61C156.402 134.61 156.93 135.226 156.798 135.996C156.688 136.744 155.962 137.338 155.214 137.338C154.466 137.338 153.96 136.744 154.07 135.996C154.202 135.226 154.906 134.61 155.654 134.61ZM159.414 140.704L161.35 147.128L165.332 140.704H167.554L160.668 151.352L157.192 140.704H159.414ZM176.822 146.182H168.968C168.704 147.942 169.628 149.592 171.52 149.592C173.038 149.592 173.984 148.822 174.93 147.59L176.448 148.536C175.194 150.318 173.214 151.352 171.212 151.352C168.066 151.352 166.548 148.976 167.01 145.94C167.516 142.772 169.584 140.396 172.906 140.396C176.184 140.396 177.35 142.816 176.866 145.874L176.822 146.182ZM169.298 144.686H175.062C175.084 143.146 174.226 142.112 172.642 142.112C171.102 142.112 169.782 143.212 169.298 144.686ZM192.23 131.904L191.922 133.906C191.548 133.73 191.086 133.488 190.668 133.488C189.26 133.488 188.974 135.27 188.82 136.282L188.116 140.704H190.844L190.558 142.552H187.83L186.488 151H184.508L185.85 142.552H184.948L185.234 140.704H186.136L186.928 135.688C187.28 133.444 188.336 131.64 190.888 131.64C191.372 131.64 191.834 131.728 192.23 131.904ZM199.983 146.182H192.129C191.865 147.942 192.789 149.592 194.681 149.592C196.199 149.592 197.145 148.822 198.091 147.59L199.609 148.536C198.355 150.318 196.375 151.352 194.373 151.352C191.227 151.352 189.709 148.976 190.171 145.94C190.677 142.772 192.745 140.396 196.067 140.396C199.345 140.396 200.511 142.816 200.027 145.874L199.983 146.182ZM192.459 144.686H198.223C198.245 143.146 197.387 142.112 195.803 142.112C194.263 142.112 192.943 143.212 192.459 144.686ZM210.725 146.182H202.871C202.607 147.942 203.531 149.592 205.423 149.592C206.941 149.592 207.887 148.822 208.833 147.59L210.351 148.536C209.097 150.318 207.117 151.352 205.115 151.352C201.969 151.352 200.451 148.976 200.913 145.94C201.419 142.772 203.487 140.396 206.809 140.396C210.087 140.396 211.253 142.816 210.769 145.874L210.725 146.182ZM203.201 144.686H208.965C208.987 143.146 208.129 142.112 206.545 142.112C205.005 142.112 203.685 143.212 203.201 144.686ZM216.319 149.592C218.475 149.592 219.927 147.876 220.257 145.852C220.565 143.85 219.641 142.156 217.507 142.156C215.461 142.156 213.965 143.938 213.657 145.852C213.349 147.788 214.229 149.592 216.319 149.592ZM219.333 151L219.597 149.394H219.553C218.563 150.56 217.177 151.352 215.725 151.352C212.557 151.352 211.215 148.734 211.699 145.786C212.139 142.97 214.405 140.396 217.375 140.396C218.915 140.396 220.037 141.188 220.653 142.42H220.697L222.347 131.904H224.327L221.313 151H219.333ZM229.093 149.592C231.249 149.592 232.701 147.876 233.031 145.852C233.339 143.85 232.415 142.156 230.281 142.156C228.235 142.156 226.739 143.938 226.431 145.852C226.123 147.788 227.003 149.592 229.093 149.592ZM223.747 151L226.761 131.904H228.741L227.091 142.42H227.135C228.147 141.188 229.489 140.396 231.029 140.396C233.999 140.396 235.473 142.97 235.033 145.786C234.549 148.734 232.371 151.352 229.203 151.352C227.751 151.352 226.629 150.56 226.035 149.394H225.991L225.727 151H223.747ZM240.79 149.592C242.946 149.592 244.398 147.876 244.728 145.852C245.036 143.85 244.112 142.156 241.978 142.156C239.932 142.156 238.436 143.938 238.128 145.852C237.82 147.788 238.7 149.592 240.79 149.592ZM247.412 140.704L245.784 151H243.804L244.068 149.394H244.024C243.034 150.56 241.67 151.352 240.196 151.352C237.05 151.352 235.686 148.734 236.17 145.786C236.61 142.97 238.876 140.396 241.868 140.396C243.386 140.396 244.508 141.188 245.124 142.42H245.168L245.432 140.704H247.412ZM257.48 141.078L257.084 143.63C256.446 142.728 255.544 142.244 254.356 142.244C252.42 142.244 250.66 143.96 250.352 145.852C250.022 147.964 251.254 149.504 253.344 149.504C254.488 149.504 255.5 148.976 256.38 148.14L255.962 150.67C254.994 151.154 254.048 151.352 253.014 151.352C249.978 151.352 247.866 149.02 248.35 145.94C248.856 142.75 251.694 140.396 254.862 140.396C255.786 140.396 256.776 140.616 257.48 141.078ZM263.187 131.904L261.185 144.576L265.673 140.704H268.291L263.209 144.972L267.103 151H264.529L261.603 146.314L260.811 146.996L260.173 151H258.193L261.207 131.904H263.187ZM270.401 148.8C271.105 148.8 271.589 149.394 271.479 150.076C271.369 150.78 270.687 151.352 269.983 151.352C269.279 151.352 268.817 150.78 268.927 150.076C269.037 149.394 269.697 148.8 270.401 148.8Z" fill="#093761"/>
<g clip-path="url(#clip1_2029_490)">
<path d="M91.4165 212L58.6469 199.5L57.3748 200.683L62.7498 212L57.3748 223.317L58.6469 224.5L91.4165 212Z" fill="#0E3D68"/>
</g>
<path d="M118.27 195.412L115.96 210.108H120.998L120.69 212H113.584L116.202 195.412H118.27ZM131.512 207.182H123.658C123.394 208.942 124.318 210.592 126.21 210.592C127.728 210.592 128.674 209.822 129.62 208.59L131.138 209.536C129.884 211.318 127.904 212.352 125.902 212.352C122.756 212.352 121.238 209.976 121.7 206.94C122.206 203.772 124.274 201.396 127.596 201.396C130.874 201.396 132.04 203.816 131.556 206.874L131.512 207.182ZM123.988 205.686H129.752C129.774 204.146 128.916 203.112 127.332 203.112C125.792 203.112 124.472 204.212 123.988 205.686ZM137.106 210.592C139.262 210.592 140.714 208.876 141.044 206.852C141.352 204.85 140.428 203.156 138.294 203.156C136.248 203.156 134.752 204.938 134.444 206.852C134.136 208.788 135.016 210.592 137.106 210.592ZM143.728 201.704L142.1 212H140.12L140.384 210.394H140.34C139.35 211.56 137.986 212.352 136.512 212.352C133.366 212.352 132.002 209.734 132.486 206.786C132.926 203.97 135.192 201.396 138.184 201.396C139.702 201.396 140.824 202.188 141.44 203.42H141.484L141.748 201.704H143.728ZM148.407 201.704L148.143 203.376H148.209C148.891 202.166 150.013 201.396 151.333 201.396C151.905 201.396 152.455 201.594 152.895 201.902L151.707 203.706C151.399 203.398 151.025 203.288 150.563 203.288C148.429 203.288 147.835 205.268 147.571 206.94L146.779 212H144.799L146.427 201.704H148.407ZM156.16 201.704L155.94 203.09H155.984C156.776 201.99 158.096 201.396 159.35 201.396C162.254 201.396 162.694 203.354 162.297 205.862L161.33 212H159.35L160.274 206.104C160.56 204.344 160.516 203.156 158.492 203.156C155.94 203.156 155.588 205.4 155.28 207.27L154.532 212H152.552L154.18 201.704H156.16ZM180.11 207.182H172.256C171.992 208.942 172.916 210.592 174.808 210.592C176.326 210.592 177.272 209.822 178.218 208.59L179.736 209.536C178.482 211.318 176.502 212.352 174.5 212.352C171.354 212.352 169.836 209.976 170.298 206.94C170.804 203.772 172.872 201.396 176.194 201.396C179.472 201.396 180.638 203.816 180.154 206.874L180.11 207.182ZM172.586 205.686H178.35C178.372 204.146 177.514 203.112 175.93 203.112C174.39 203.112 173.07 204.212 172.586 205.686ZM189.158 192.904L188.85 194.906C188.476 194.73 188.014 194.488 187.596 194.488C186.188 194.488 185.902 196.27 185.748 197.282L185.044 201.704H187.772L187.486 203.552H184.758L183.416 212H181.436L182.778 203.552H181.876L182.162 201.704H183.064L183.856 196.688C184.208 194.444 185.264 192.64 187.816 192.64C188.3 192.64 188.762 192.728 189.158 192.904ZM195.216 192.904L194.908 194.906C194.534 194.73 194.072 194.488 193.654 194.488C192.246 194.488 191.96 196.27 191.806 197.282L191.102 201.704H193.83L193.544 203.552H190.816L189.474 212H187.494L188.836 203.552H187.934L188.22 201.704H189.122L189.914 196.688C190.266 194.444 191.322 192.64 193.874 192.64C194.358 192.64 194.82 192.728 195.216 192.904ZM202.969 207.182H195.115C194.851 208.942 195.775 210.592 197.667 210.592C199.185 210.592 200.131 209.822 201.077 208.59L202.595 209.536C201.341 211.318 199.361 212.352 197.359 212.352C194.213 212.352 192.695 209.976 193.157 206.94C193.663 203.772 195.731 201.396 199.053 201.396C202.331 201.396 203.497 203.816 203.013 206.874L202.969 207.182ZM195.445 205.686H201.209C201.231 204.146 200.373 203.112 198.789 203.112C197.249 203.112 195.929 204.212 195.445 205.686ZM213.029 202.078L212.633 204.63C211.995 203.728 211.093 203.244 209.905 203.244C207.969 203.244 206.209 204.96 205.901 206.852C205.571 208.964 206.803 210.504 208.893 210.504C210.037 210.504 211.049 209.976 211.929 209.14L211.511 211.67C210.543 212.154 209.597 212.352 208.563 212.352C205.527 212.352 203.415 210.02 203.899 206.94C204.405 203.75 207.243 201.396 210.411 201.396C211.335 201.396 212.325 201.616 213.029 202.078ZM217.218 203.552L215.876 212H213.896L215.238 203.552H214.16L214.446 201.704H215.524L216.14 197.766H218.12L217.504 201.704H219.44L219.154 203.552H217.218ZM222.965 201.704L221.337 212H219.357L220.985 201.704H222.965ZM222.943 195.61C223.691 195.61 224.219 196.226 224.087 196.996C223.977 197.744 223.251 198.338 222.503 198.338C221.755 198.338 221.249 197.744 221.359 196.996C221.491 196.226 222.195 195.61 222.943 195.61ZM226.703 201.704L228.639 208.128L232.621 201.704H234.843L227.957 212.352L224.481 201.704H226.703ZM244.112 207.182H236.258C235.994 208.942 236.918 210.592 238.81 210.592C240.328 210.592 241.274 209.822 242.22 208.59L243.738 209.536C242.484 211.318 240.504 212.352 238.502 212.352C235.356 212.352 233.838 209.976 234.3 206.94C234.806 203.772 236.874 201.396 240.196 201.396C243.474 201.396 244.64 203.816 244.156 206.874L244.112 207.182ZM236.588 205.686H242.352C242.374 204.146 241.516 203.112 239.932 203.112C238.392 203.112 237.072 204.212 236.588 205.686ZM255.449 201.704L253.821 212H251.841L253.469 201.704H255.449ZM255.427 195.61C256.175 195.61 256.703 196.226 256.571 196.996C256.461 197.744 255.735 198.338 254.987 198.338C254.239 198.338 253.733 197.744 253.843 196.996C253.975 196.226 254.679 195.61 255.427 195.61ZM260.595 201.704L260.375 203.09H260.419C261.211 201.99 262.531 201.396 263.785 201.396C266.689 201.396 267.129 203.354 266.733 205.862L265.765 212H263.785L264.709 206.104C264.995 204.344 264.951 203.156 262.927 203.156C260.375 203.156 260.023 205.4 259.715 207.27L258.967 212H256.987L258.615 201.704H260.595ZM272.111 203.552L270.769 212H268.789L270.131 203.552H269.053L269.339 201.704H270.417L271.033 197.766H273.013L272.397 201.704H274.333L274.047 203.552H272.111ZM283.6 207.182H275.746C275.482 208.942 276.406 210.592 278.298 210.592C279.816 210.592 280.762 209.822 281.708 208.59L283.226 209.536C281.972 211.318 279.992 212.352 277.99 212.352C274.844 212.352 273.326 209.976 273.788 206.94C274.294 203.772 276.362 201.396 279.684 201.396C282.962 201.396 284.128 203.816 283.644 206.874L283.6 207.182ZM276.076 205.686H281.84C281.862 204.146 281.004 203.112 279.42 203.112C277.88 203.112 276.56 204.212 276.076 205.686ZM288.27 201.704L288.006 203.376H288.072C288.754 202.166 289.876 201.396 291.196 201.396C291.768 201.396 292.318 201.594 292.758 201.902L291.57 203.706C291.262 203.398 290.888 203.288 290.426 203.288C288.292 203.288 287.698 205.268 287.434 206.94L286.642 212H284.662L286.29 201.704H288.27ZM295.324 201.704L297.26 208.128L301.242 201.704H303.464L296.578 212.352L293.102 201.704H295.324ZM306.969 201.704L305.341 212H303.361L304.989 201.704H306.969ZM306.947 195.61C307.695 195.61 308.223 196.226 308.091 196.996C307.981 197.744 307.255 198.338 306.507 198.338C305.759 198.338 305.253 197.744 305.363 196.996C305.495 196.226 306.199 195.61 306.947 195.61ZM318.319 207.182H310.465C310.201 208.942 311.125 210.592 313.017 210.592C314.535 210.592 315.481 209.822 316.427 208.59L317.945 209.536C316.691 211.318 314.711 212.352 312.709 212.352C309.563 212.352 308.045 209.976 308.507 206.94C309.013 203.772 311.081 201.396 314.403 201.396C317.681 201.396 318.847 203.816 318.363 206.874L318.319 207.182ZM310.795 205.686H316.559C316.581 204.146 315.723 203.112 314.139 203.112C312.599 203.112 311.279 204.212 310.795 205.686ZM321.405 201.704L323.363 208.26L327.521 201.132L329.413 208.26L333.439 201.704H335.683L328.753 212.352L326.839 205.466L322.703 212.352L319.161 201.704H321.405ZM345.007 203.552L343.665 212H341.685L343.027 203.552H341.949L342.235 201.704H343.313L343.929 197.766H345.909L345.293 201.704H347.229L346.943 203.552H345.007ZM356.496 207.182H348.642C348.378 208.942 349.302 210.592 351.194 210.592C352.712 210.592 353.658 209.822 354.604 208.59L356.122 209.536C354.868 211.318 352.888 212.352 350.886 212.352C347.74 212.352 346.222 209.976 346.684 206.94C347.19 203.772 349.258 201.396 352.58 201.396C355.858 201.396 357.024 203.816 356.54 206.874L356.496 207.182ZM348.972 205.686H354.736C354.758 204.146 353.9 203.112 352.316 203.112C350.776 203.112 349.456 204.212 348.972 205.686ZM366.557 202.078L366.161 204.63C365.523 203.728 364.621 203.244 363.433 203.244C361.497 203.244 359.737 204.96 359.429 206.852C359.099 208.964 360.331 210.504 362.421 210.504C363.565 210.504 364.577 209.976 365.457 209.14L365.039 211.67C364.071 212.154 363.125 212.352 362.091 212.352C359.055 212.352 356.943 210.02 357.427 206.94C357.933 203.75 360.771 201.396 363.939 201.396C364.863 201.396 365.853 201.616 366.557 202.078ZM370.151 192.904H372.131L370.525 203.09H370.569C371.361 201.99 372.681 201.396 373.935 201.396C376.839 201.396 377.279 203.354 376.883 205.862L375.915 212H373.935L374.859 206.104C375.145 204.344 375.101 203.156 373.077 203.156C370.525 203.156 370.173 205.4 369.865 207.27L369.117 212H367.137L370.151 192.904ZM382.261 201.704L382.041 203.09H382.085C382.877 201.99 384.197 201.396 385.451 201.396C388.355 201.396 388.795 203.354 388.399 205.862L387.431 212H385.451L386.375 206.104C386.661 204.344 386.617 203.156 384.593 203.156C382.041 203.156 381.689 205.4 381.381 207.27L380.633 212H378.653L380.281 201.704H382.261ZM394.217 201.704L392.589 212H390.609L392.237 201.704H394.217ZM394.195 195.61C394.943 195.61 395.471 196.226 395.339 196.996C395.229 197.744 394.503 198.338 393.755 198.338C393.007 198.338 392.501 197.744 392.611 196.996C392.743 196.226 393.447 195.61 394.195 195.61ZM400.419 210.592C402.575 210.592 404.027 208.876 404.357 206.852C404.665 204.85 403.741 203.156 401.607 203.156C399.561 203.156 398.065 204.938 397.757 206.852C397.449 208.788 398.329 210.592 400.419 210.592ZM407.041 201.704L404.489 217.896H402.509L403.697 210.394H403.653C402.663 211.56 401.277 212.352 399.825 212.352C396.657 212.352 395.315 209.734 395.799 206.786C396.239 203.97 398.505 201.396 401.475 201.396C403.015 201.396 404.137 202.188 404.753 203.42H404.797L405.061 201.704H407.041ZM409.519 201.704H411.499L410.597 207.402C410.333 209.052 410.531 210.504 412.489 210.504C414.447 210.504 415.085 209.052 415.349 207.402L416.251 201.704H418.231L417.307 207.622C416.845 210.438 415.217 212.352 412.181 212.352C409.145 212.352 408.133 210.438 408.595 207.622L409.519 201.704ZM429.049 207.182H421.195C420.931 208.942 421.855 210.592 423.747 210.592C425.265 210.592 426.211 209.822 427.157 208.59L428.675 209.536C427.421 211.318 425.441 212.352 423.439 212.352C420.293 212.352 418.775 209.976 419.237 206.94C419.743 203.772 421.811 201.396 425.133 201.396C428.411 201.396 429.577 203.816 429.093 206.874L429.049 207.182ZM421.525 205.686H427.289C427.311 204.146 426.453 203.112 424.869 203.112C423.329 203.112 422.009 204.212 421.525 205.686ZM437.107 203.2L435.369 204.058C435.215 203.552 434.775 203.156 434.203 203.156C433.653 203.156 433.059 203.596 432.949 204.168C432.817 205.07 433.939 205.466 435.061 206.016C436.183 206.566 437.239 207.314 436.975 208.942C436.667 210.9 434.797 212.352 432.883 212.352C431.387 212.352 430.023 211.494 429.693 210.042L431.519 209.272C431.805 210.042 432.223 210.592 433.169 210.592C434.005 210.592 434.819 210.02 434.973 209.14C435.061 208.59 434.819 208.326 434.423 208.018L432.641 206.984C431.607 206.368 430.859 205.796 431.079 204.388C431.343 202.716 432.905 201.396 434.577 201.396C435.831 201.396 436.733 202.078 437.107 203.2ZM449.446 210.592C451.602 210.592 453.054 208.876 453.384 206.852C453.692 204.85 452.768 203.156 450.634 203.156C448.588 203.156 447.092 204.938 446.784 206.852C446.476 208.788 447.356 210.592 449.446 210.592ZM456.068 201.704L454.44 212H452.46L452.724 210.394H452.68C451.69 211.56 450.326 212.352 448.852 212.352C445.706 212.352 444.342 209.734 444.826 206.786C445.266 203.97 447.532 201.396 450.524 201.396C452.042 201.396 453.164 202.188 453.78 203.42H453.824L454.088 201.704H456.068ZM460.615 201.704L460.395 203.09H460.439C461.231 201.99 462.551 201.396 463.805 201.396C466.709 201.396 467.149 203.354 466.753 205.862L465.785 212H463.805L464.729 206.104C465.015 204.344 464.971 203.156 462.947 203.156C460.395 203.156 460.043 205.4 459.735 207.27L458.987 212H457.007L458.635 201.704H460.615ZM473.186 210.592C475.342 210.592 476.794 208.876 477.124 206.852C477.432 204.85 476.508 203.156 474.374 203.156C472.328 203.156 470.832 204.938 470.524 206.852C470.216 208.788 471.096 210.592 473.186 210.592ZM476.2 212L476.464 210.394H476.42C475.43 211.56 474.044 212.352 472.592 212.352C469.424 212.352 468.082 209.734 468.566 206.786C469.006 203.97 471.272 201.396 474.242 201.396C475.782 201.396 476.904 202.188 477.52 203.42H477.564L479.214 192.904H481.194L478.18 212H476.2ZM120.492 229.2L118.754 230.058C118.6 229.552 118.16 229.156 117.588 229.156C117.038 229.156 116.444 229.596 116.334 230.168C116.202 231.07 117.324 231.466 118.446 232.016C119.568 232.566 120.624 233.314 120.36 234.942C120.052 236.9 118.182 238.352 116.268 238.352C114.772 238.352 113.408 237.494 113.078 236.042L114.904 235.272C115.19 236.042 115.608 236.592 116.554 236.592C117.39 236.592 118.204 236.02 118.358 235.14C118.446 234.59 118.204 234.326 117.808 234.018L116.026 232.984C114.992 232.368 114.244 231.796 114.464 230.388C114.728 228.716 116.29 227.396 117.962 227.396C119.216 227.396 120.118 228.078 120.492 229.2ZM125.415 229.552L124.073 238H122.093L123.435 229.552H122.357L122.643 227.704H123.721L124.337 223.766H126.317L125.701 227.704H127.637L127.351 229.552H125.415ZM130.833 227.704L130.569 229.376H130.635C131.317 228.166 132.439 227.396 133.759 227.396C134.331 227.396 134.881 227.594 135.321 227.902L134.133 229.706C133.825 229.398 133.451 229.288 132.989 229.288C130.855 229.288 130.261 231.268 129.997 232.94L129.205 238H127.225L128.853 227.704H130.833ZM139.212 236.592C141.368 236.592 142.82 234.876 143.15 232.852C143.458 230.85 142.534 229.156 140.4 229.156C138.354 229.156 136.858 230.938 136.55 232.852C136.242 234.788 137.122 236.592 139.212 236.592ZM145.834 227.704L144.206 238H142.226L142.49 236.394H142.446C141.456 237.56 140.092 238.352 138.618 238.352C135.472 238.352 134.108 235.734 134.592 232.786C135.032 229.97 137.298 227.396 140.29 227.396C141.808 227.396 142.93 228.188 143.546 229.42H143.59L143.854 227.704H145.834ZM150.38 229.552L149.038 238H147.058L148.4 229.552H147.322L147.608 227.704H148.686L149.302 223.766H151.282L150.666 227.704H152.602L152.316 229.552H150.38ZM161.869 233.182H154.015C153.751 234.942 154.675 236.592 156.567 236.592C158.085 236.592 159.031 235.822 159.977 234.59L161.495 235.536C160.241 237.318 158.261 238.352 156.259 238.352C153.113 238.352 151.595 235.976 152.057 232.94C152.563 229.772 154.631 227.396 157.953 227.396C161.231 227.396 162.397 229.816 161.913 232.874L161.869 233.182ZM154.345 231.686H160.109C160.131 230.146 159.273 229.112 157.689 229.112C156.149 229.112 154.829 230.212 154.345 231.686ZM167.442 236.592C169.598 236.592 171.05 234.876 171.38 232.852C171.688 230.85 170.764 229.156 168.63 229.156C166.584 229.156 165.088 230.938 164.78 232.852C164.472 234.788 165.352 236.592 167.442 236.592ZM174.064 227.704L172.458 237.802C171.908 241.344 170.5 243.896 166.496 243.896C163.636 243.896 161.832 242.136 162.25 239.232H164.23C163.944 241.08 165.044 242.136 166.848 242.136C169.29 242.136 170.06 240.464 170.39 238.352L170.72 236.394H170.676C169.686 237.56 168.3 238.352 166.848 238.352C163.68 238.352 162.338 235.734 162.822 232.786C163.262 229.97 165.528 227.396 168.498 227.396C170.038 227.396 171.16 228.188 171.754 229.464H171.798L172.084 227.704H174.064ZM179.051 227.704L177.423 238H175.443L177.071 227.704H179.051ZM179.029 221.61C179.777 221.61 180.305 222.226 180.173 222.996C180.063 223.744 179.337 224.338 178.589 224.338C177.841 224.338 177.335 223.744 177.445 222.996C177.577 222.226 178.281 221.61 179.029 221.61ZM190.401 233.182H182.547C182.283 234.942 183.207 236.592 185.099 236.592C186.617 236.592 187.563 235.822 188.509 234.59L190.027 235.536C188.773 237.318 186.793 238.352 184.791 238.352C181.645 238.352 180.127 235.976 180.589 232.94C181.095 229.772 183.163 227.396 186.485 227.396C189.763 227.396 190.929 229.816 190.445 232.874L190.401 233.182ZM182.877 231.686H188.641C188.663 230.146 187.805 229.112 186.221 229.112C184.681 229.112 183.361 230.212 182.877 231.686ZM198.459 229.2L196.721 230.058C196.567 229.552 196.127 229.156 195.555 229.156C195.005 229.156 194.411 229.596 194.301 230.168C194.169 231.07 195.291 231.466 196.413 232.016C197.535 232.566 198.591 233.314 198.327 234.942C198.019 236.9 196.149 238.352 194.235 238.352C192.739 238.352 191.375 237.494 191.045 236.042L192.871 235.272C193.157 236.042 193.575 236.592 194.521 236.592C195.357 236.592 196.171 236.02 196.325 235.14C196.413 234.59 196.171 234.326 195.775 234.018L193.993 232.984C192.959 232.368 192.211 231.796 192.431 230.388C192.695 228.716 194.257 227.396 195.929 227.396C197.183 227.396 198.085 228.078 198.459 229.2ZM209.742 229.552L208.4 238H206.42L207.762 229.552H206.684L206.97 227.704H208.048L208.664 223.766H210.644L210.028 227.704H211.964L211.678 229.552H209.742ZM217.667 227.396C220.747 227.396 222.793 229.772 222.309 232.874C221.825 235.976 219.009 238.352 215.929 238.352C212.849 238.352 210.825 235.976 211.309 232.874C211.793 229.772 214.587 227.396 217.667 227.396ZM217.381 229.288C215.423 229.288 213.597 230.916 213.289 232.874C212.981 234.81 214.279 236.46 216.237 236.46C218.195 236.46 220.021 234.81 220.329 232.874C220.637 230.916 219.339 229.288 217.381 229.288ZM234.851 236.592C237.007 236.592 238.459 234.876 238.789 232.852C239.097 230.85 238.173 229.156 236.039 229.156C233.993 229.156 232.497 230.938 232.189 232.852C231.881 234.788 232.761 236.592 234.851 236.592ZM233.113 227.704L232.849 229.42H232.893C233.905 228.188 235.247 227.396 236.787 227.396C239.757 227.396 241.231 229.97 240.791 232.786C240.307 235.734 238.129 238.352 234.961 238.352C233.509 238.352 232.387 237.56 231.793 236.394H231.749L230.561 243.896H228.581L231.133 227.704H233.113ZM245.624 227.704L245.36 229.376H245.426C246.108 228.166 247.23 227.396 248.55 227.396C249.122 227.396 249.672 227.594 250.112 227.902L248.924 229.706C248.616 229.398 248.242 229.288 247.78 229.288C245.646 229.288 245.052 231.268 244.788 232.94L243.996 238H242.016L243.644 227.704H245.624ZM259.022 233.182H251.168C250.904 234.942 251.828 236.592 253.72 236.592C255.238 236.592 256.184 235.822 257.13 234.59L258.648 235.536C257.394 237.318 255.414 238.352 253.412 238.352C250.266 238.352 248.748 235.976 249.21 232.94C249.716 229.772 251.784 227.396 255.106 227.396C258.384 227.396 259.55 229.816 259.066 232.874L259.022 233.182ZM251.498 231.686H257.262C257.284 230.146 256.426 229.112 254.842 229.112C253.302 229.112 251.982 230.212 251.498 231.686ZM267.08 229.2L265.342 230.058C265.188 229.552 264.748 229.156 264.176 229.156C263.626 229.156 263.032 229.596 262.922 230.168C262.79 231.07 263.912 231.466 265.034 232.016C266.156 232.566 267.212 233.314 266.948 234.942C266.64 236.9 264.77 238.352 262.856 238.352C261.36 238.352 259.996 237.494 259.666 236.042L261.492 235.272C261.778 236.042 262.196 236.592 263.142 236.592C263.978 236.592 264.792 236.02 264.946 235.14C265.034 234.59 264.792 234.326 264.396 234.018L262.614 232.984C261.58 232.368 260.832 231.796 261.052 230.388C261.316 228.716 262.878 227.396 264.55 227.396C265.804 227.396 266.706 228.078 267.08 229.2ZM278.207 233.182H270.353C270.089 234.942 271.013 236.592 272.905 236.592C274.423 236.592 275.369 235.822 276.315 234.59L277.833 235.536C276.579 237.318 274.599 238.352 272.597 238.352C269.451 238.352 267.933 235.976 268.395 232.94C268.901 229.772 270.969 227.396 274.291 227.396C277.569 227.396 278.735 229.816 278.251 232.874L278.207 233.182ZM270.683 231.686H276.447C276.469 230.146 275.611 229.112 274.027 229.112C272.487 229.112 271.167 230.212 270.683 231.686ZM282.745 227.704L282.525 229.09H282.569C283.361 227.99 284.681 227.396 285.935 227.396C288.839 227.396 289.279 229.354 288.883 231.862L287.915 238H285.935L286.859 232.104C287.145 230.344 287.101 229.156 285.077 229.156C282.525 229.156 282.173 231.4 281.865 233.27L281.117 238H279.137L280.765 227.704H282.745ZM294.261 229.552L292.919 238H290.939L292.281 229.552H291.203L291.489 227.704H292.567L293.183 223.766H295.163L294.547 227.704H296.483L296.197 229.552H294.261ZM305.212 236.24L301.846 227.704H304.156L306.598 234.238L310.866 227.704H313.088L302.198 243.896H299.954L305.212 236.24ZM318.772 227.396C321.852 227.396 323.898 229.772 323.414 232.874C322.93 235.976 320.114 238.352 317.034 238.352C313.954 238.352 311.93 235.976 312.414 232.874C312.898 229.772 315.692 227.396 318.772 227.396ZM318.486 229.288C316.528 229.288 314.702 230.916 314.394 232.874C314.086 234.81 315.384 236.46 317.342 236.46C319.3 236.46 321.126 234.81 321.434 232.874C321.742 230.916 320.444 229.288 318.486 229.288ZM325.945 227.704H327.925L327.023 233.402C326.759 235.052 326.957 236.504 328.915 236.504C330.873 236.504 331.511 235.052 331.775 233.402L332.677 227.704H334.657L333.733 233.622C333.271 236.438 331.643 238.352 328.607 238.352C325.571 238.352 324.559 236.438 325.021 233.622L325.945 227.704ZM339.403 227.704L339.139 229.376H339.205C339.887 228.166 341.009 227.396 342.329 227.396C342.901 227.396 343.451 227.594 343.891 227.902L342.703 229.706C342.395 229.398 342.021 229.288 341.559 229.288C339.425 229.288 338.831 231.268 338.567 232.94L337.775 238H335.795L337.423 227.704H339.403ZM350.504 229.2L348.766 230.058C348.612 229.552 348.172 229.156 347.6 229.156C347.05 229.156 346.456 229.596 346.346 230.168C346.214 231.07 347.336 231.466 348.458 232.016C349.58 232.566 350.636 233.314 350.372 234.942C350.064 236.9 348.194 238.352 346.28 238.352C344.784 238.352 343.42 237.494 343.09 236.042L344.916 235.272C345.202 236.042 345.62 236.592 346.566 236.592C347.402 236.592 348.216 236.02 348.37 235.14C348.458 234.59 348.216 234.326 347.82 234.018L346.038 232.984C345.004 232.368 344.256 231.796 344.476 230.388C344.74 228.716 346.302 227.396 347.974 227.396C349.228 227.396 350.13 228.078 350.504 229.2ZM361.631 233.182H353.777C353.513 234.942 354.437 236.592 356.329 236.592C357.847 236.592 358.793 235.822 359.739 234.59L361.257 235.536C360.003 237.318 358.023 238.352 356.021 238.352C352.875 238.352 351.357 235.976 351.819 232.94C352.325 229.772 354.393 227.396 357.715 227.396C360.993 227.396 362.159 229.816 361.675 232.874L361.631 233.182ZM354.107 231.686H359.871C359.893 230.146 359.035 229.112 357.451 229.112C355.911 229.112 354.591 230.212 354.107 231.686ZM367.643 218.904L364.629 238H362.649L365.663 218.904H367.643ZM375.578 218.904L375.27 220.906C374.896 220.73 374.434 220.488 374.016 220.488C372.608 220.488 372.322 222.27 372.168 223.282L371.464 227.704H374.192L373.906 229.552H371.178L369.836 238H367.856L369.198 229.552H368.296L368.582 227.704H369.484L370.276 222.688C370.628 220.444 371.684 218.64 374.236 218.64C374.72 218.64 375.182 218.728 375.578 218.904ZM389.008 228.078L388.612 230.63C387.974 229.728 387.072 229.244 385.884 229.244C383.948 229.244 382.188 230.96 381.88 232.852C381.55 234.964 382.782 236.504 384.872 236.504C386.016 236.504 387.028 235.976 387.908 235.14L387.49 237.67C386.522 238.154 385.576 238.352 384.542 238.352C381.506 238.352 379.394 236.02 379.878 232.94C380.384 229.75 383.222 227.396 386.39 227.396C387.314 227.396 388.304 227.616 389.008 228.078ZM395.579 227.396C398.659 227.396 400.705 229.772 400.221 232.874C399.737 235.976 396.921 238.352 393.841 238.352C390.761 238.352 388.737 235.976 389.221 232.874C389.705 229.772 392.499 227.396 395.579 227.396ZM395.293 229.288C393.335 229.288 391.509 230.916 391.201 232.874C390.893 234.81 392.191 236.46 394.149 236.46C396.107 236.46 397.933 234.81 398.241 232.874C398.549 230.916 397.251 229.288 395.293 229.288ZM404.82 227.704L404.6 229.09H404.644C405.436 227.99 406.756 227.396 408.01 227.396C410.914 227.396 411.354 229.354 410.958 231.862L409.99 238H408.01L408.934 232.104C409.22 230.344 409.176 229.156 407.152 229.156C404.6 229.156 404.248 231.4 403.94 233.27L403.192 238H401.212L402.84 227.704H404.82ZM422.451 227.704L420.823 238H418.843L420.471 227.704H422.451ZM422.429 221.61C423.177 221.61 423.705 222.226 423.573 222.996C423.463 223.744 422.737 224.338 421.989 224.338C421.241 224.338 420.735 223.744 420.845 222.996C420.977 222.226 421.681 221.61 422.429 221.61ZM420.845 218.904L420.537 220.906C420.163 220.73 419.701 220.488 419.283 220.488C417.875 220.488 417.589 222.27 417.435 223.282L416.731 227.704H419.459L419.173 229.552H416.445L415.103 238H413.123L414.465 229.552H413.563L413.849 227.704H414.751L415.543 222.688C415.895 220.444 416.951 218.64 419.503 218.64C419.987 218.64 420.449 218.728 420.845 218.904ZM428.649 236.592C430.805 236.592 432.257 234.876 432.587 232.852C432.895 230.85 431.971 229.156 429.837 229.156C427.791 229.156 426.295 230.938 425.987 232.852C425.679 234.788 426.559 236.592 428.649 236.592ZM431.663 238L431.927 236.394H431.883C430.893 237.56 429.507 238.352 428.055 238.352C424.887 238.352 423.545 235.734 424.029 232.786C424.469 229.97 426.735 227.396 429.705 227.396C431.245 227.396 432.367 228.188 432.983 229.42H433.027L434.677 218.904H436.657L433.643 238H431.663ZM446.022 233.182H438.168C437.904 234.942 438.828 236.592 440.72 236.592C442.238 236.592 443.184 235.822 444.13 234.59L445.648 235.536C444.394 237.318 442.414 238.352 440.412 238.352C437.266 238.352 435.748 235.976 436.21 232.94C436.716 229.772 438.784 227.396 442.106 227.396C445.384 227.396 446.55 229.816 446.066 232.874L446.022 233.182ZM438.498 231.686H444.262C444.284 230.146 443.426 229.112 441.842 229.112C440.302 229.112 438.982 230.212 438.498 231.686ZM450.56 227.704L450.34 229.09H450.384C451.176 227.99 452.496 227.396 453.75 227.396C456.654 227.396 457.094 229.354 456.698 231.862L455.73 238H453.75L454.674 232.104C454.96 230.344 454.916 229.156 452.892 229.156C450.34 229.156 449.988 231.4 449.68 233.27L448.932 238H446.952L448.58 227.704H450.56ZM462.076 229.552L460.734 238H458.754L460.096 229.552H459.018L459.304 227.704H460.382L460.998 223.766H462.978L462.362 227.704H464.298L464.012 229.552H462.076ZM468.856 218.904L465.842 238H463.862L466.876 218.904H468.856ZM471.995 236.24L468.629 227.704H470.939L473.381 234.238L477.649 227.704H479.871L468.981 243.896H466.737L471.995 236.24ZM481.485 235.8C482.189 235.8 482.673 236.394 482.563 237.076C482.453 237.78 481.771 238.352 481.067 238.352C480.363 238.352 479.901 237.78 480.011 237.076C480.121 236.394 480.781 235.8 481.485 235.8Z" fill="#093761"/>
<defs>
<clipPath id="clip0_2029_490">
<rect width="40" height="43" fill="white" transform="translate(95 79) rotate(90)"/>
</clipPath>
<clipPath id="clip1_2029_490">
<rect width="40" height="43" fill="white" transform="translate(95 192) rotate(90)"/>
</clipPath>
</defs>
</svg>
