<svg width="30" height="26" viewBox="0 0 30 26" fill="none" xmlns="http://www.w3.org/2000/svg">
<path d="M12.862 0.276123C13.3821 0.407031 13.9104 0.512372 14.4225 0.670894C17.7104 1.68953 19.9998 4.81394 20.0008 8.27074C20.0008 9.61664 19.5203 10.8398 18.9798 12.0313C17.1913 15.9698 14.7523 19.5084 12.2176 22.9846C12.1575 23.0665 12.0924 23.1432 11.9865 23.2771C11.445 22.5254 10.933 21.83 10.4372 21.1223C8.44817 18.2811 6.54564 15.3858 5.09711 12.2174C4.33162 10.5463 3.76971 8.85063 4.09342 6.94734C4.66245 3.5969 7.48112 0.815098 10.8515 0.371236C10.9472 0.358964 11.0378 0.30885 11.1304 0.276123C11.7076 0.276123 12.2848 0.276123 12.862 0.276123ZM11.9937 10.6138C13.2905 10.6138 14.2912 9.61869 14.2922 8.32904C14.2922 7.067 13.2478 6.0095 11.9987 6.00848C10.7497 6.00644 9.70227 7.06188 9.69922 8.32495C9.69617 9.61153 10.6999 10.6148 11.9937 10.6148V10.6138Z" fill="#C6E8FF"/>
</svg>
