<svg width="362" height="317" viewBox="0 0 362 317" fill="none" xmlns="http://www.w3.org/2000/svg">
<rect width="362" height="317" rx="50" fill="#44739E"/>
<path d="M60.9918 53.904L60.7518 55.44H58.0398L55.4238 72H53.7438L56.3598 55.44H53.6478L53.8878 53.904H60.9918ZM63.8403 52.8L62.5923 60.672C63.3363 59.952 64.2483 59.496 65.2083 59.496C67.4643 59.496 67.2723 61.464 66.9843 63.192L65.5923 72H64.0323L65.3763 63.456C65.6883 61.536 65.5923 60.768 64.4163 60.768C62.6403 60.768 62.2563 62.712 62.0643 64.008L60.7923 72H59.2323L62.2803 52.8H63.8403ZM70.1636 64.848H73.7396L73.7636 64.632C73.8836 63.456 74.2436 60.96 72.6116 60.96C71.1236 60.96 70.3316 63.744 70.1636 64.848ZM75.1076 66.168H69.9236L69.8756 66.528C69.6836 67.752 69.4196 70.728 71.1236 70.728C72.4916 70.728 72.9956 68.808 73.1636 67.824H74.7716C74.4356 69.696 73.3316 72.192 71.0516 72.192C67.8116 72.192 67.9796 68.352 68.3636 65.88C68.7236 63.672 69.8756 59.496 72.8516 59.496C75.7316 59.496 75.5876 63.264 75.2276 65.424L75.1076 66.168ZM91.7343 53.904L88.8783 72H87.4143L85.2543 59.832C85.1103 59.088 85.1103 58.272 85.0143 57.504H84.9183C84.7983 58.68 84.7263 59.832 84.5583 61.008L82.8063 72H81.3423L84.1983 53.904H85.6623L87.8223 66.48C87.9423 67.104 88.0143 67.728 88.0863 68.352H88.1583C88.2303 67.56 88.2543 66.744 88.3743 65.952L90.2703 53.904H91.7343ZM98.78 69.792L98.492 71.496C97.796 71.928 96.86 72.24 96.068 72.24C91.82 72.24 92.084 66.696 92.564 63.6C93.044 60.672 94.244 53.664 99.188 53.664C99.86 53.664 100.748 53.832 101.228 54.24L100.94 56.088C100.34 55.632 99.788 55.296 98.948 55.296C96.02 55.296 94.94 59.544 94.412 62.904C94.076 65.016 93.188 70.608 96.404 70.608C97.22 70.608 98.06 70.248 98.78 69.792ZM105.121 53.904L102.505 70.464H106.441L106.201 72H100.585L103.441 53.904H105.121ZM116.183 53.904L115.943 55.44H111.935L110.927 61.824H114.815L114.575 63.36H110.687L109.559 70.464H113.567L113.327 72H107.639L110.495 53.904H116.183ZM126.285 53.904L121.509 62.808L123.429 72H121.629L120.405 64.296H120.309C119.997 65.28 119.493 66.24 119.037 67.2L116.661 72H114.861L119.757 62.808L117.717 53.904H119.517L120.741 61.56H120.837C121.221 60.408 121.749 59.28 122.301 58.2L124.485 53.904H126.285ZM133.26 59.688L131.316 72H129.756L131.7 59.688H133.26ZM134.22 56.04C134.124 56.688 133.524 57.216 132.9 57.216C132.252 57.216 131.796 56.688 131.892 56.04C131.988 55.416 132.612 54.888 133.26 54.888C133.884 54.888 134.316 55.416 134.22 56.04ZM140.034 60.288L139.746 62.208H139.698C139.338 61.56 138.714 60.96 137.85 60.96C136.914 60.96 136.194 61.68 136.05 62.592C135.858 63.768 136.77 64.488 137.61 65.304C138.498 66.144 139.338 67.056 139.074 68.664C138.762 70.632 137.202 72.192 135.162 72.192C134.394 72.192 133.578 71.832 133.05 71.352L133.338 69.528C133.842 70.152 134.394 70.728 135.33 70.728C136.41 70.728 137.274 69.888 137.442 68.856C137.634 67.632 136.77 66.816 135.906 65.928C135.066 65.064 134.202 64.104 134.442 62.64C134.73 60.792 136.17 59.496 138.018 59.496C138.81 59.496 139.482 59.808 140.034 60.288ZM150.962 65.64C151.394 62.976 151.538 60.768 150.002 60.768C148.274 60.768 147.746 63.504 147.41 65.592C146.618 70.68 147.41 70.92 148.322 70.92C149.834 70.92 150.338 69.504 150.962 65.64ZM153.314 59.688L151.37 72H149.81L149.954 71.04H149.906C149.354 71.736 148.586 72.192 147.698 72.192C145.73 72.192 144.938 71.088 145.778 65.712C146.234 62.952 146.882 59.496 149.858 59.496C150.722 59.496 151.202 59.856 151.586 60.528H151.634L151.754 59.688H153.314ZM165.066 60.288L164.778 62.208H164.73C164.37 61.56 163.746 60.96 162.882 60.96C161.946 60.96 161.226 61.68 161.082 62.592C160.89 63.768 161.802 64.488 162.642 65.304C163.53 66.144 164.37 67.056 164.106 68.664C163.794 70.632 162.234 72.192 160.194 72.192C159.426 72.192 158.61 71.832 158.082 71.352L158.37 69.528C158.874 70.152 159.426 70.728 160.362 70.728C161.442 70.728 162.306 69.888 162.474 68.856C162.666 67.632 161.802 66.816 160.938 65.928C160.098 65.064 159.234 64.104 159.474 62.64C159.762 60.792 161.202 59.496 163.05 59.496C163.842 59.496 164.514 59.808 165.066 60.288ZM171.385 59.688L171.169 61.128H169.129L167.401 72H165.841L167.569 61.128H166.249L166.465 59.688H167.785L168.313 56.328H169.873L169.345 59.688H171.385ZM176.04 65.64C176.472 62.976 176.616 60.768 175.08 60.768C173.352 60.768 172.824 63.504 172.488 65.592C171.696 70.68 172.488 70.92 173.4 70.92C174.912 70.92 175.416 69.504 176.04 65.64ZM178.392 59.688L176.448 72H174.888L175.032 71.04H174.984C174.432 71.736 173.664 72.192 172.776 72.192C170.808 72.192 170.016 71.088 170.856 65.712C171.312 62.952 171.96 59.496 174.936 59.496C175.8 59.496 176.28 59.856 176.664 60.528H176.712L176.832 59.688H178.392ZM182.104 59.688L181.96 60.672C182.704 59.952 183.616 59.496 184.576 59.496C186.76 59.496 186.616 61.512 186.352 63.192L184.96 72H183.4L184.768 63.36C185.008 61.896 185.08 60.768 183.784 60.768C182.008 60.768 181.624 62.712 181.432 64.008L180.16 72H178.6L180.544 59.688H182.104ZM192.939 65.64C193.395 62.832 193.419 60.768 191.979 60.768C190.227 60.768 189.675 63.84 189.387 65.592C189.219 66.744 188.307 70.92 190.299 70.92C191.955 70.92 192.435 68.88 192.939 65.64ZM191.787 72L191.931 71.04H191.883C191.331 71.736 190.563 72.192 189.675 72.192C187.107 72.192 187.227 69.072 187.755 65.712C188.307 62.352 189.099 59.496 191.835 59.496C192.699 59.496 193.179 59.856 193.563 60.528H193.611L194.835 52.8H196.395L193.347 72H191.787ZM201.306 65.64C201.738 62.976 201.882 60.768 200.346 60.768C198.618 60.768 198.09 63.504 197.754 65.592C196.962 70.68 197.754 70.92 198.666 70.92C200.178 70.92 200.682 69.504 201.306 65.64ZM203.658 59.688L201.714 72H200.154L200.298 71.04H200.25C199.698 71.736 198.93 72.192 198.042 72.192C196.074 72.192 195.282 71.088 196.122 65.712C196.578 62.952 197.226 59.496 200.202 59.496C201.066 59.496 201.546 59.856 201.93 60.528H201.978L202.098 59.688H203.658ZM207.369 59.688L207.105 61.32H207.153C207.633 60.456 208.473 59.472 209.505 59.496L209.193 61.32L208.905 61.296C207.297 61.296 206.865 62.856 206.553 64.824L205.425 72H203.865L205.809 59.688H207.369ZM214.454 65.64C214.91 62.832 214.934 60.768 213.494 60.768C211.742 60.768 211.19 63.84 210.902 65.592C210.734 66.744 209.822 70.92 211.814 70.92C213.47 70.92 213.95 68.88 214.454 65.64ZM213.302 72L213.446 71.04H213.398C212.846 71.736 212.078 72.192 211.19 72.192C208.622 72.192 208.742 69.072 209.27 65.712C209.822 62.352 210.614 59.496 213.35 59.496C214.214 59.496 214.694 59.856 215.078 60.528H215.126L216.35 52.8H217.91L214.862 72H213.302ZM220.541 59.688L218.597 72H217.037L218.981 59.688H220.541ZM221.501 56.04C221.405 56.688 220.805 57.216 220.181 57.216C219.533 57.216 219.077 56.688 219.173 56.04C219.269 55.416 219.893 54.888 220.541 54.888C221.165 54.888 221.597 55.416 221.501 56.04ZM226.692 70.56L226.452 72H220.044L226.644 61.128H222.444L222.66 59.688H229.212L222.516 70.56H226.692ZM231.109 64.848H234.685L234.709 64.632C234.829 63.456 235.189 60.96 233.557 60.96C232.069 60.96 231.277 63.744 231.109 64.848ZM236.053 66.168H230.869L230.821 66.528C230.629 67.752 230.365 70.728 232.069 70.728C233.437 70.728 233.941 68.808 234.109 67.824H235.717C235.381 69.696 234.277 72.192 231.997 72.192C228.757 72.192 228.925 68.352 229.309 65.88C229.669 63.672 230.821 59.496 233.797 59.496C236.677 59.496 236.533 63.264 236.173 65.424L236.053 66.168ZM242.743 65.64C243.199 62.832 243.223 60.768 241.783 60.768C240.031 60.768 239.479 63.84 239.191 65.592C239.023 66.744 238.111 70.92 240.103 70.92C241.759 70.92 242.239 68.88 242.743 65.64ZM241.591 72L241.735 71.04H241.687C241.135 71.736 240.367 72.192 239.479 72.192C236.911 72.192 237.031 69.072 237.559 65.712C238.111 62.352 238.903 59.496 241.639 59.496C242.503 59.496 242.983 59.856 243.367 60.528H243.415L244.639 52.8H246.199L243.151 72H241.591ZM252.414 64.848H255.99L256.014 64.632C256.134 63.456 256.494 60.96 254.862 60.96C253.374 60.96 252.582 63.744 252.414 64.848ZM257.358 66.168H252.174L252.126 66.528C251.934 67.752 251.67 70.728 253.374 70.728C254.742 70.728 255.246 68.808 255.414 67.824H257.022C256.686 69.696 255.582 72.192 253.302 72.192C250.062 72.192 250.23 68.352 250.614 65.88C250.974 63.672 252.126 59.496 255.102 59.496C257.982 59.496 257.838 63.264 257.478 65.424L257.358 66.168ZM266.644 59.688L262.924 65.712L264.7 72H262.972L262.204 68.76C262.06 68.088 261.892 67.416 261.892 66.696H261.796C261.58 67.416 261.244 68.112 260.86 68.784L259.132 72H257.38L261.196 65.712L259.612 59.688H261.34L261.916 62.424C262.084 63.24 262.204 64.056 262.252 64.92H262.348C262.684 64.056 262.996 63.192 263.476 62.352L264.916 59.688H266.644ZM271.947 65.64C272.379 62.976 272.523 60.768 270.987 60.768C269.259 60.768 268.731 63.504 268.395 65.592C267.603 70.68 268.395 70.92 269.307 70.92C270.819 70.92 271.323 69.504 271.947 65.64ZM274.299 59.688L272.355 72H270.795L270.939 71.04H270.891C270.339 71.736 269.571 72.192 268.683 72.192C266.715 72.192 265.923 71.088 266.763 65.712C267.219 62.952 267.867 59.496 270.843 59.496C271.707 59.496 272.187 59.856 272.571 60.528H272.619L272.739 59.688H274.299ZM278.01 59.688L277.842 60.72H277.89C278.562 60 279.498 59.496 280.434 59.496C281.442 59.496 282.21 60.024 282.474 60.96C283.266 60.048 284.13 59.496 285.258 59.496C287.562 59.496 287.442 61.32 287.154 63.144L285.762 72H284.202L285.594 63.192C285.786 62.016 285.858 60.768 284.586 60.768C282.738 60.768 282.354 62.856 282.114 64.416L280.914 72H279.354L280.746 63.216C280.938 62.064 281.058 60.768 279.786 60.768C277.89 60.768 277.482 63.12 277.218 64.68L276.066 72H274.506L276.45 59.688H278.01ZM296.288 70.92C297.56 70.92 298.208 69.816 298.88 65.592C299.336 62.784 299.384 60.768 297.824 60.768C295.928 60.768 295.52 64.392 295.352 65.496C295.112 67.008 294.296 70.92 296.288 70.92ZM292.904 72L295.952 52.8H297.512L296.288 60.528H296.336C296.888 59.832 297.536 59.496 298.424 59.496C301.28 59.496 300.92 62.928 300.464 65.712C299.984 68.832 299.216 72.192 296.528 72.192C295.64 72.192 295.016 71.736 294.656 71.04H294.608L294.464 72H292.904ZM309.911 59.688L302.975 76.704H301.343L303.359 71.664L302.327 59.688H303.911L304.415 69.624H304.487C304.871 68.568 305.231 67.512 305.639 66.456L308.279 59.688H309.911ZM49.4484 89.288L49.1604 91.208H49.1124C48.7524 90.56 48.1284 89.96 47.2644 89.96C46.3284 89.96 45.6084 90.68 45.4644 91.592C45.2724 92.768 46.1844 93.488 47.0244 94.304C47.9124 95.144 48.7524 96.056 48.4884 97.664C48.1764 99.632 46.6164 101.192 44.5764 101.192C43.8084 101.192 42.9924 100.832 42.4644 100.352L42.7524 98.528C43.2564 99.152 43.8084 99.728 44.7444 99.728C45.8244 99.728 46.6884 98.888 46.8564 97.856C47.0484 96.632 46.1844 95.816 45.3204 94.928C44.4804 94.064 43.6164 93.104 43.8564 91.64C44.1444 89.792 45.5844 88.496 47.4324 88.496C48.2244 88.496 48.8964 88.808 49.4484 89.288ZM55.7681 88.688L55.5521 90.128H53.5121L51.7841 101H50.2241L51.9521 90.128H50.6321L50.8481 88.688H52.1681L52.6961 85.328H54.2561L53.7281 88.688H55.7681ZM60.4232 94.64C60.8552 91.976 60.9992 89.768 59.4632 89.768C57.7352 89.768 57.2072 92.504 56.8712 94.592C56.0792 99.68 56.8712 99.92 57.7832 99.92C59.2952 99.92 59.7992 98.504 60.4232 94.64ZM62.7752 88.688L60.8312 101H59.2712L59.4152 100.04H59.3672C58.8152 100.736 58.0472 101.192 57.1592 101.192C55.1912 101.192 54.3992 100.088 55.2392 94.712C55.6952 91.952 56.3432 88.496 59.3192 88.496C60.1832 88.496 60.6632 88.856 61.0472 89.528H61.0952L61.2152 88.688H62.7752ZM69.1743 88.688L68.9583 90.128H66.9183L65.1903 101H63.6303L65.3583 90.128H64.0383L64.2543 88.688H65.5743L66.1023 85.328H67.6623L67.1343 88.688H69.1743ZM70.4214 93.848H73.9974L74.0214 93.632C74.1414 92.456 74.5014 89.96 72.8694 89.96C71.3814 89.96 70.5894 92.744 70.4214 93.848ZM75.3654 95.168H70.1814L70.1334 95.528C69.9414 96.752 69.6774 99.728 71.3814 99.728C72.7494 99.728 73.2534 97.808 73.4214 96.824H75.0294C74.6934 98.696 73.5894 101.192 71.3094 101.192C68.0694 101.192 68.2374 97.352 68.6214 94.88C68.9814 92.672 70.1334 88.496 73.1094 88.496C75.9894 88.496 75.8454 92.264 75.4854 94.424L75.3654 95.168ZM84.6242 99.92C85.8962 99.92 86.5442 98.816 87.2162 94.592C87.6722 91.784 87.7202 89.768 86.1602 89.768C84.2642 89.768 83.8562 93.392 83.6882 94.496C83.4482 96.008 82.6322 99.92 84.6242 99.92ZM81.2402 101L84.2882 81.8H85.8482L84.6242 89.528H84.6722C85.2242 88.832 85.8722 88.496 86.7602 88.496C89.6162 88.496 89.2562 91.928 88.8002 94.712C88.3202 97.832 87.5522 101.192 84.8642 101.192C83.9762 101.192 83.3522 100.736 82.9922 100.04H82.9442L82.8002 101H81.2402ZM94.7673 88.496C98.0073 88.496 97.6473 92.528 97.2873 94.832C96.9033 97.16 95.9913 101.192 92.7513 101.192C89.5113 101.192 89.8473 97.16 90.2313 94.832C90.5913 92.528 91.5273 88.496 94.7673 88.496ZM94.5273 89.96C92.6553 89.96 92.0073 93.656 91.8393 94.832C91.6473 96.032 91.0953 99.728 92.9673 99.728C94.8393 99.728 95.4873 96.032 95.6793 94.832C95.8473 93.656 96.3993 89.96 94.5273 89.96ZM103.947 94.64C104.379 91.976 104.523 89.768 102.987 89.768C101.259 89.768 100.731 92.504 100.395 94.592C99.6026 99.68 100.395 99.92 101.307 99.92C102.819 99.92 103.323 98.504 103.947 94.64ZM106.299 88.688L104.355 101H102.795L102.939 100.04H102.891C102.339 100.736 101.571 101.192 100.683 101.192C98.7146 101.192 97.9226 100.088 98.7626 94.712C99.2186 91.952 99.8666 88.496 102.843 88.496C103.707 88.496 104.187 88.856 104.571 89.528H104.619L104.739 88.688H106.299ZM110.01 88.688L109.746 90.32H109.794C110.274 89.456 111.114 88.472 112.146 88.496L111.834 90.32L111.546 90.296C109.938 90.296 109.506 91.856 109.194 93.824L108.066 101H106.506L108.45 88.688H110.01ZM117.095 94.64C117.551 91.832 117.575 89.768 116.135 89.768C114.383 89.768 113.831 92.84 113.543 94.592C113.375 95.744 112.463 99.92 114.455 99.92C116.111 99.92 116.591 97.88 117.095 94.64ZM115.943 101L116.087 100.04H116.039C115.487 100.736 114.719 101.192 113.831 101.192C111.263 101.192 111.383 98.072 111.911 94.712C112.463 91.352 113.255 88.496 115.991 88.496C116.855 88.496 117.335 88.856 117.719 89.528H117.767L118.991 81.8H120.551L117.503 101H115.943ZM126.206 89.288L125.918 91.208H125.87C125.51 90.56 124.886 89.96 124.022 89.96C123.086 89.96 122.366 90.68 122.222 91.592C122.03 92.768 122.942 93.488 123.782 94.304C124.67 95.144 125.51 96.056 125.246 97.664C124.934 99.632 123.374 101.192 121.334 101.192C120.566 101.192 119.75 100.832 119.222 100.352L119.51 98.528C120.014 99.152 120.566 99.728 121.502 99.728C122.582 99.728 123.446 98.888 123.614 97.856C123.806 96.632 122.942 95.816 122.078 94.928C121.238 94.064 120.374 93.104 120.614 91.64C120.902 89.792 122.342 88.496 124.19 88.496C124.982 88.496 125.654 88.808 126.206 89.288ZM136.345 88.496C139.585 88.496 139.225 92.528 138.865 94.832C138.481 97.16 137.569 101.192 134.329 101.192C131.089 101.192 131.425 97.16 131.809 94.832C132.169 92.528 133.105 88.496 136.345 88.496ZM136.105 89.96C134.233 89.96 133.585 93.656 133.417 94.832C133.225 96.032 132.673 99.728 134.545 99.728C136.417 99.728 137.065 96.032 137.257 94.832C137.425 93.656 137.977 89.96 136.105 89.96ZM145.501 88.688L145.285 90.128H143.245L141.517 101H139.957L141.685 90.128H140.365L140.581 88.688H141.901L142.477 85.064C142.813 82.976 143.581 81.608 145.333 81.608C145.789 81.608 146.269 81.68 146.653 81.872L146.389 83.576C146.101 83.312 145.789 83.048 145.333 83.048C144.469 83.048 144.253 83.792 144.037 85.016L143.461 88.688H145.501ZM153.205 88.688L153.061 89.672C153.805 88.952 154.717 88.496 155.677 88.496C157.861 88.496 157.717 90.512 157.453 92.192L156.061 101H154.501L155.869 92.36C156.109 90.896 156.181 89.768 154.885 89.768C153.109 89.768 152.725 91.712 152.533 93.008L151.261 101H149.701L151.645 88.688H153.205ZM160.08 88.688H161.64L160.416 96.416C160.152 98.096 159.984 99.728 161.52 99.728C163.104 99.728 163.44 98.096 163.728 96.416L164.952 88.688H166.512L165.096 97.736C164.76 99.8 163.536 101.192 161.328 101.192C159.144 101.192 158.328 99.824 158.664 97.736L160.08 88.688ZM170.127 88.688L169.863 90.32H169.911C170.391 89.456 171.231 88.472 172.263 88.496L171.951 90.32L171.663 90.296C170.055 90.296 169.623 91.856 169.311 93.824L168.183 101H166.623L168.567 88.688H170.127ZM178.097 89.288L177.809 91.208H177.761C177.401 90.56 176.777 89.96 175.913 89.96C174.977 89.96 174.257 90.68 174.113 91.592C173.921 92.768 174.833 93.488 175.673 94.304C176.561 95.144 177.401 96.056 177.137 97.664C176.825 99.632 175.265 101.192 173.225 101.192C172.457 101.192 171.641 100.832 171.113 100.352L171.401 98.528C171.905 99.152 172.457 99.728 173.393 99.728C174.473 99.728 175.337 98.888 175.505 97.856C175.697 96.632 174.833 95.816 173.969 94.928C173.129 94.064 172.265 93.104 172.505 91.64C172.793 89.792 174.233 88.496 176.081 88.496C176.873 88.496 177.545 88.808 178.097 89.288ZM181.729 88.688L179.785 101H178.225L180.169 88.688H181.729ZM182.689 85.04C182.593 85.688 181.993 86.216 181.369 86.216C180.721 86.216 180.265 85.688 180.361 85.04C180.457 84.416 181.081 83.888 181.729 83.888C182.353 83.888 182.785 84.416 182.689 85.04ZM185.455 88.688L185.311 89.672C186.055 88.952 186.967 88.496 187.927 88.496C190.111 88.496 189.967 90.512 189.703 92.192L188.311 101H186.751L188.119 92.36C188.359 90.896 188.431 89.768 187.135 89.768C185.359 89.768 184.975 91.712 184.783 93.008L183.511 101H181.951L183.895 88.688H185.455ZM192.666 95.048C192.45 96.392 191.898 99.728 193.866 99.728C195.522 99.728 195.978 97.304 196.41 94.616C196.77 92.36 197.034 89.768 195.33 89.768C194.202 89.768 193.386 90.536 192.666 95.048ZM198.762 88.688L196.746 101.456C196.386 103.76 195.954 105.896 192.834 105.896C190.674 105.896 189.858 104.6 190.194 102.488L190.266 102.032H191.802L191.778 102.248C191.586 103.4 191.73 104.432 193.074 104.432C194.826 104.432 194.922 102.896 195.138 101.576L195.378 100.136C194.754 100.736 194.058 101 193.242 101C190.17 101 190.794 96.752 191.13 94.568C191.466 92.504 192.354 88.496 195.21 88.496C196.05 88.496 196.674 88.88 197.034 89.528H197.082L197.202 88.688H198.762ZM210.151 88.688L209.935 90.128H207.895L206.167 101H204.607L206.335 90.128H205.015L205.231 88.688H206.551L207.079 85.328H208.639L208.111 88.688H210.151ZM214.158 88.496C217.398 88.496 217.038 92.528 216.678 94.832C216.294 97.16 215.382 101.192 212.142 101.192C208.902 101.192 209.238 97.16 209.622 94.832C209.982 92.528 210.918 88.496 214.158 88.496ZM213.918 89.96C212.046 89.96 211.398 93.656 211.23 94.832C211.038 96.032 210.486 99.728 212.358 99.728C214.23 99.728 214.878 96.032 215.07 94.832C215.238 93.656 215.79 89.96 213.918 89.96ZM228.329 94.64C228.785 91.832 228.809 89.768 227.369 89.768C225.617 89.768 225.065 92.84 224.777 94.592C224.609 95.744 223.697 99.92 225.689 99.92C227.345 99.92 227.825 97.88 228.329 94.64ZM227.177 101L227.321 100.04H227.273C226.721 100.736 225.953 101.192 225.065 101.192C222.497 101.192 222.617 98.072 223.145 94.712C223.697 91.352 224.489 88.496 227.225 88.496C228.089 88.496 228.569 88.856 228.953 89.528H229.001L230.225 81.8H231.785L228.737 101H227.177ZM233.289 93.848H236.865L236.889 93.632C237.009 92.456 237.369 89.96 235.737 89.96C234.249 89.96 233.457 92.744 233.289 93.848ZM238.233 95.168H233.049L233.001 95.528C232.809 96.752 232.545 99.728 234.249 99.728C235.617 99.728 236.121 97.808 236.289 96.824H237.897C237.561 98.696 236.457 101.192 234.177 101.192C230.937 101.192 231.105 97.352 231.489 94.88C231.849 92.672 233.001 88.496 235.977 88.496C238.857 88.496 238.713 92.264 238.353 94.424L238.233 95.168ZM245.307 88.688L245.091 90.128H243.051L241.323 101H239.763L241.491 90.128H240.171L240.387 88.688H241.707L242.235 85.328H243.795L243.267 88.688H245.307ZM246.554 93.848H250.13L250.154 93.632C250.274 92.456 250.634 89.96 249.002 89.96C247.514 89.96 246.722 92.744 246.554 93.848ZM251.498 95.168H246.314L246.266 95.528C246.074 96.752 245.81 99.728 247.514 99.728C248.882 99.728 249.386 97.808 249.554 96.824H251.162C250.826 98.696 249.722 101.192 247.442 101.192C244.202 101.192 244.37 97.352 244.754 94.88C245.114 92.672 246.266 88.496 249.242 88.496C252.122 88.496 251.978 92.264 251.618 94.424L251.498 95.168ZM255.885 88.688L255.621 90.32H255.669C256.149 89.456 256.989 88.472 258.021 88.496L257.709 90.32L257.421 90.296C255.813 90.296 255.381 91.856 255.069 93.824L253.941 101H252.381L254.325 88.688H255.885ZM260.807 88.688L260.639 89.72H260.687C261.359 89 262.295 88.496 263.231 88.496C264.239 88.496 265.007 89.024 265.271 89.96C266.063 89.048 266.927 88.496 268.055 88.496C270.359 88.496 270.239 90.32 269.951 92.144L268.559 101H266.999L268.391 92.192C268.583 91.016 268.655 89.768 267.383 89.768C265.535 89.768 265.151 91.856 264.911 93.416L263.711 101H262.151L263.543 92.216C263.735 91.064 263.855 89.768 262.583 89.768C260.687 89.768 260.279 92.12 260.015 93.68L258.863 101H257.303L259.247 88.688H260.807ZM274.213 88.688L272.269 101H270.709L272.653 88.688H274.213ZM275.173 85.04C275.077 85.688 274.477 86.216 273.853 86.216C273.205 86.216 272.749 85.688 272.845 85.04C272.941 84.416 273.565 83.888 274.213 83.888C274.837 83.888 275.269 84.416 275.173 85.04ZM277.939 88.688L277.795 89.672C278.539 88.952 279.451 88.496 280.411 88.496C282.595 88.496 282.451 90.512 282.187 92.192L280.795 101H279.235L280.603 92.36C280.843 90.896 280.915 89.768 279.619 89.768C277.843 89.768 277.459 91.712 277.267 93.008L275.995 101H274.435L276.379 88.688H277.939ZM285.367 93.848H288.943L288.967 93.632C289.087 92.456 289.447 89.96 287.815 89.96C286.327 89.96 285.535 92.744 285.367 93.848ZM290.311 95.168H285.127L285.079 95.528C284.887 96.752 284.623 99.728 286.327 99.728C287.695 99.728 288.199 97.808 288.367 96.824H289.975C289.639 98.696 288.535 101.192 286.255 101.192C283.015 101.192 283.183 97.352 283.567 94.88C283.927 92.672 285.079 88.496 288.055 88.496C290.935 88.496 290.791 92.264 290.431 94.424L290.311 95.168ZM299.689 88.688L297.745 101H296.185L298.129 88.688H299.689ZM300.649 85.04C300.553 85.688 299.953 86.216 299.329 86.216C298.681 86.216 298.225 85.688 298.321 85.04C298.417 84.416 299.041 83.888 299.689 83.888C300.313 83.888 300.745 84.416 300.649 85.04ZM305.696 88.688L305.48 90.128H303.44L301.712 101H300.152L301.88 90.128H300.56L300.776 88.688H302.096L302.672 85.064C303.008 82.976 303.776 81.608 305.528 81.608C305.984 81.608 306.464 81.68 306.848 81.872L306.584 83.576C306.296 83.312 305.984 83.048 305.528 83.048C304.664 83.048 304.448 83.792 304.232 85.016L303.656 88.688H305.696ZM315.704 94.64C316.136 91.976 316.28 89.768 314.744 89.768C313.016 89.768 312.488 92.504 312.152 94.592C311.36 99.68 312.152 99.92 313.064 99.92C314.576 99.92 315.08 98.504 315.704 94.64ZM318.056 88.688L316.112 101H314.552L314.696 100.04H314.648C314.096 100.736 313.328 101.192 312.44 101.192C310.472 101.192 309.68 100.088 310.52 94.712C310.976 91.952 311.624 88.496 314.6 88.496C315.464 88.496 315.944 88.856 316.328 89.528H316.376L316.496 88.688H318.056ZM49.3497 117.976L49.0617 119.776C48.7497 119.368 48.3177 118.96 47.7177 118.96C45.7017 118.96 44.9577 122.464 44.7177 123.88C44.5257 125.104 44.2137 128.728 46.0617 128.728C46.7817 128.728 47.3337 128.176 47.7897 127.624H47.8377L47.5257 129.568C46.9977 129.952 46.2537 130.192 45.6537 130.192C42.8217 130.192 42.7497 126.208 43.0857 124.096C43.4457 121.768 44.6217 117.496 47.7417 117.496C48.3177 117.496 48.8937 117.664 49.3497 117.976ZM54.9974 123.64C55.4294 120.976 55.5734 118.768 54.0374 118.768C52.3094 118.768 51.7814 121.504 51.4454 123.592C50.6534 128.68 51.4454 128.92 52.3574 128.92C53.8694 128.92 54.3734 127.504 54.9974 123.64ZM57.3494 117.688L55.4054 130H53.8454L53.9894 129.04H53.9414C53.3894 129.736 52.6214 130.192 51.7334 130.192C49.7654 130.192 48.9734 129.088 49.8134 123.712C50.2694 120.952 50.9174 117.496 53.8934 117.496C54.7574 117.496 55.2374 117.856 55.6214 118.528H55.6694L55.7894 117.688H57.3494ZM61.0606 117.688L60.9166 118.672C61.6606 117.952 62.5726 117.496 63.5326 117.496C65.7166 117.496 65.5726 119.512 65.3086 121.192L63.9166 130H62.3566L63.7246 121.36C63.9646 119.896 64.0366 118.768 62.7406 118.768C60.9646 118.768 60.5806 120.712 60.3886 122.008L59.1166 130H57.5566L59.5006 117.688H61.0606ZM71.8958 123.64C72.3518 120.832 72.3758 118.768 70.9358 118.768C69.1838 118.768 68.6318 121.84 68.3438 123.592C68.1758 124.744 67.2638 128.92 69.2558 128.92C70.9118 128.92 71.3918 126.88 71.8958 123.64ZM70.7438 130L70.8878 129.04H70.8398C70.2878 129.736 69.5198 130.192 68.6318 130.192C66.0638 130.192 66.1838 127.072 66.7118 123.712C67.2638 120.352 68.0558 117.496 70.7918 117.496C71.6558 117.496 72.1358 117.856 72.5198 118.528H72.5678L73.7918 110.8H75.3518L72.3038 130H70.7438ZM77.9824 117.688L76.0384 130H74.4784L76.4224 117.688H77.9824ZM78.9424 114.04C78.8464 114.688 78.2464 115.216 77.6224 115.216C76.9744 115.216 76.5184 114.688 76.6144 114.04C76.7104 113.416 77.3344 112.888 77.9824 112.888C78.6064 112.888 79.0384 113.416 78.9424 114.04ZM84.013 123.64C84.469 120.832 84.493 118.768 83.053 118.768C81.301 118.768 80.749 121.84 80.461 123.592C80.293 124.744 79.381 128.92 81.373 128.92C83.029 128.92 83.509 126.88 84.013 123.64ZM82.861 130L83.005 129.04H82.957C82.405 129.736 81.637 130.192 80.749 130.192C78.181 130.192 78.301 127.072 78.829 123.712C79.381 120.352 80.173 117.496 82.909 117.496C83.773 117.496 84.253 117.856 84.637 118.528H84.685L85.909 110.8H87.469L84.421 130H82.861ZM92.3802 123.64C92.8122 120.976 92.9562 118.768 91.4202 118.768C89.6922 118.768 89.1642 121.504 88.8282 123.592C88.0362 128.68 88.8282 128.92 89.7402 128.92C91.2522 128.92 91.7562 127.504 92.3802 123.64ZM94.7322 117.688L92.7882 130H91.2282L91.3722 129.04H91.3242C90.7722 129.736 90.0042 130.192 89.1162 130.192C87.1482 130.192 86.3562 129.088 87.1962 123.712C87.6522 120.952 88.3002 117.496 91.2762 117.496C92.1402 117.496 92.6202 117.856 93.0042 118.528H93.0522L93.1722 117.688H94.7322ZM101.131 117.688L100.915 119.128H98.8754L97.1474 130H95.5874L97.3154 119.128H95.9954L96.2114 117.688H97.5314L98.0594 114.328H99.6194L99.0914 117.688H101.131ZM102.378 122.848H105.954L105.978 122.632C106.098 121.456 106.458 118.96 104.826 118.96C103.338 118.96 102.546 121.744 102.378 122.848ZM107.322 124.168H102.138L102.09 124.528C101.898 125.752 101.634 128.728 103.338 128.728C104.706 128.728 105.21 126.808 105.378 125.824H106.986C106.65 127.696 105.546 130.192 103.266 130.192C100.026 130.192 100.194 126.352 100.578 123.88C100.938 121.672 102.09 117.496 105.066 117.496C107.946 117.496 107.802 121.264 107.442 123.424L107.322 124.168ZM116.701 117.688L114.757 130H113.197L115.141 117.688H116.701ZM117.661 114.04C117.565 114.688 116.965 115.216 116.341 115.216C115.693 115.216 115.237 114.688 115.333 114.04C115.429 113.416 116.053 112.888 116.701 112.888C117.325 112.888 117.757 113.416 117.661 114.04ZM123.476 118.288L123.188 120.208H123.14C122.78 119.56 122.156 118.96 121.292 118.96C120.356 118.96 119.636 119.68 119.492 120.592C119.3 121.768 120.212 122.488 121.052 123.304C121.94 124.144 122.78 125.056 122.516 126.664C122.204 128.632 120.644 130.192 118.604 130.192C117.836 130.192 117.02 129.832 116.492 129.352L116.78 127.528C117.284 128.152 117.836 128.728 118.772 128.728C119.852 128.728 120.716 127.888 120.884 126.856C121.076 125.632 120.212 124.816 119.348 123.928C118.508 123.064 117.644 122.104 117.884 120.64C118.172 118.792 119.612 117.496 121.46 117.496C122.252 117.496 122.924 117.808 123.476 118.288ZM132.1 117.688L131.836 119.32H131.884C132.364 118.456 133.204 117.472 134.236 117.496L133.924 119.32L133.636 119.296C132.028 119.296 131.596 120.856 131.284 122.824L130.156 130H128.596L130.54 117.688H132.1ZM135.777 122.848H139.353L139.377 122.632C139.497 121.456 139.857 118.96 138.225 118.96C136.737 118.96 135.945 121.744 135.777 122.848ZM140.721 124.168H135.537L135.489 124.528C135.297 125.752 135.033 128.728 136.737 128.728C138.105 128.728 138.609 126.808 138.777 125.824H140.385C140.049 127.696 138.945 130.192 136.665 130.192C133.425 130.192 133.593 126.352 133.977 123.88C134.337 121.672 135.489 117.496 138.465 117.496C141.345 117.496 141.201 121.264 140.841 123.424L140.721 124.168ZM147.411 123.64C147.843 120.976 147.987 118.768 146.451 118.768C144.723 118.768 144.195 121.504 143.859 123.592C143.067 128.68 143.859 128.92 144.771 128.92C146.283 128.92 146.787 127.504 147.411 123.64ZM149.763 117.688L147.819 130H146.259L146.403 129.04H146.355C145.803 129.736 145.035 130.192 144.147 130.192C142.179 130.192 141.387 129.088 142.227 123.712C142.683 120.952 143.331 117.496 146.307 117.496C147.171 117.496 147.651 117.856 148.035 118.528H148.083L148.203 117.688H149.763ZM155.779 123.64C156.235 120.832 156.259 118.768 154.819 118.768C153.067 118.768 152.515 121.84 152.227 123.592C152.059 124.744 151.147 128.92 153.139 128.92C154.795 128.92 155.275 126.88 155.779 123.64ZM154.627 130L154.771 129.04H154.723C154.171 129.736 153.403 130.192 152.515 130.192C149.947 130.192 150.067 127.072 150.595 123.712C151.147 120.352 151.939 117.496 154.675 117.496C155.539 117.496 156.019 117.856 156.403 118.528H156.451L157.675 110.8H159.235L156.187 130H154.627ZM166.978 117.688L160.042 134.704H158.41L160.426 129.664L159.394 117.688H160.978L161.482 127.624H161.554C161.938 126.568 162.298 125.512 162.706 124.456L165.346 117.688H166.978ZM177.083 117.688L176.867 119.128H174.827L173.099 130H171.539L173.267 119.128H171.947L172.163 117.688H173.483L174.059 114.064C174.395 111.976 175.163 110.608 176.915 110.608C177.371 110.608 177.851 110.68 178.235 110.872L177.971 112.576C177.683 112.312 177.371 112.048 176.915 112.048C176.051 112.048 175.835 112.792 175.619 114.016L175.043 117.688H177.083ZM181.451 117.496C184.691 117.496 184.331 121.528 183.971 123.832C183.587 126.16 182.675 130.192 179.435 130.192C176.195 130.192 176.531 126.16 176.915 123.832C177.275 121.528 178.211 117.496 181.451 117.496ZM181.211 118.96C179.339 118.96 178.691 122.656 178.523 123.832C178.331 125.032 177.779 128.728 179.651 128.728C181.523 128.728 182.171 125.032 182.363 123.832C182.531 122.656 183.083 118.96 181.211 118.96ZM188.326 117.688L188.062 119.32H188.11C188.59 118.456 189.43 117.472 190.462 117.496L190.15 119.32L189.862 119.296C188.254 119.296 187.822 120.856 187.51 122.824L186.382 130H184.822L186.766 117.688H188.326ZM196.855 122.848H200.431L200.455 122.632C200.575 121.456 200.935 118.96 199.303 118.96C197.815 118.96 197.023 121.744 196.855 122.848ZM201.799 124.168H196.615L196.567 124.528C196.375 125.752 196.111 128.728 197.815 128.728C199.183 128.728 199.687 126.808 199.855 125.824H201.463C201.127 127.696 200.023 130.192 197.743 130.192C194.503 130.192 194.671 126.352 195.055 123.88C195.415 121.672 196.567 117.496 199.543 117.496C202.423 117.496 202.279 121.264 201.919 123.424L201.799 124.168ZM206.186 117.688L206.042 118.672C206.786 117.952 207.698 117.496 208.658 117.496C210.842 117.496 210.698 119.512 210.434 121.192L209.042 130H207.482L208.85 121.36C209.09 119.896 209.162 118.768 207.866 118.768C206.09 118.768 205.706 120.712 205.514 122.008L204.242 130H202.682L204.626 117.688H206.186ZM217.405 117.688L217.189 119.128H215.149L213.421 130H211.861L213.589 119.128H212.269L212.485 117.688H213.805L214.333 114.328H215.893L215.365 117.688H217.405ZM219.756 117.688L219.492 119.32H219.54C220.02 118.456 220.86 117.472 221.892 117.496L221.58 119.32L221.292 119.296C219.684 119.296 219.252 120.856 218.94 122.824L217.812 130H216.252L218.196 117.688H219.756ZM229.814 117.688L222.878 134.704H221.246L223.262 129.664L222.23 117.688H223.814L224.318 127.624H224.39C224.774 126.568 225.134 125.512 225.542 124.456L228.182 117.688H229.814ZM229.119 123.28L229.431 121.384H233.175L232.863 123.28H229.119ZM237.501 110.8L234.453 130H232.893L235.941 110.8H237.501ZM239.019 122.848H242.595L242.619 122.632C242.739 121.456 243.099 118.96 241.467 118.96C239.979 118.96 239.187 121.744 239.019 122.848ZM243.963 124.168H238.779L238.731 124.528C238.539 125.752 238.275 128.728 239.979 128.728C241.347 128.728 241.851 126.808 242.019 125.824H243.627C243.291 127.696 242.187 130.192 239.907 130.192C236.667 130.192 236.835 126.352 237.219 123.88C237.579 121.672 238.731 117.496 241.707 117.496C244.587 117.496 244.443 121.264 244.083 123.424L243.963 124.168ZM253.126 117.688L248.446 130H246.766L245.902 117.688H247.486L247.846 125.392C247.894 126.16 247.894 126.928 247.942 127.696H248.038C248.254 126.928 248.494 126.136 248.734 125.392L251.518 117.688H253.126ZM254.839 122.848H258.415L258.439 122.632C258.559 121.456 258.919 118.96 257.287 118.96C255.799 118.96 255.007 121.744 254.839 122.848ZM259.783 124.168H254.599L254.551 124.528C254.359 125.752 254.095 128.728 255.799 128.728C257.167 128.728 257.671 126.808 257.839 125.824H259.447C259.111 127.696 258.007 130.192 255.727 130.192C252.487 130.192 252.655 126.352 253.039 123.88C253.399 121.672 254.551 117.496 257.527 117.496C260.407 117.496 260.263 121.264 259.903 123.424L259.783 124.168ZM265.274 110.8L262.226 130H260.666L263.714 110.8H265.274ZM272.889 117.688L272.745 118.672C273.489 117.952 274.401 117.496 275.361 117.496C277.545 117.496 277.401 119.512 277.137 121.192L275.745 130H274.185L275.553 121.36C275.793 119.896 275.865 118.768 274.569 118.768C272.793 118.768 272.409 120.712 272.217 122.008L270.945 130H269.385L271.329 117.688H272.889ZM279.764 117.688H281.324L280.1 125.416C279.836 127.096 279.668 128.728 281.204 128.728C282.788 128.728 283.124 127.096 283.412 125.416L284.636 117.688H286.196L284.78 126.736C284.444 128.8 283.22 130.192 281.012 130.192C278.828 130.192 278.012 128.824 278.348 126.736L279.764 117.688ZM289.811 117.688L289.547 119.32H289.595C290.075 118.456 290.915 117.472 291.947 117.496L291.635 119.32L291.347 119.296C289.739 119.296 289.307 120.856 288.995 122.824L287.867 130H286.307L288.251 117.688H289.811ZM297.78 118.288L297.492 120.208H297.444C297.084 119.56 296.46 118.96 295.596 118.96C294.66 118.96 293.94 119.68 293.796 120.592C293.604 121.768 294.516 122.488 295.356 123.304C296.244 124.144 297.084 125.056 296.82 126.664C296.508 128.632 294.948 130.192 292.908 130.192C292.14 130.192 291.324 129.832 290.796 129.352L291.084 127.528C291.588 128.152 292.14 128.728 293.076 128.728C294.156 128.728 295.02 127.888 295.188 126.856C295.38 125.632 294.516 124.816 293.652 123.928C292.812 123.064 291.948 122.104 292.188 120.64C292.476 118.792 293.916 117.496 295.764 117.496C296.556 117.496 297.228 117.808 297.78 118.288ZM301.412 117.688L299.468 130H297.908L299.852 117.688H301.412ZM302.372 114.04C302.276 114.688 301.676 115.216 301.052 115.216C300.404 115.216 299.948 114.688 300.044 114.04C300.14 113.416 300.764 112.888 301.412 112.888C302.036 112.888 302.468 113.416 302.372 114.04ZM305.139 117.688L304.995 118.672C305.739 117.952 306.651 117.496 307.611 117.496C309.795 117.496 309.651 119.512 309.387 121.192L307.995 130H306.435L307.803 121.36C308.043 119.896 308.115 118.768 306.819 118.768C305.043 118.768 304.659 120.712 304.467 122.008L303.195 130H301.635L303.579 117.688H305.139ZM312.35 124.048C312.134 125.392 311.582 128.728 313.55 128.728C315.206 128.728 315.662 126.304 316.094 123.616C316.454 121.36 316.718 118.768 315.014 118.768C313.886 118.768 313.07 119.536 312.35 124.048ZM318.446 117.688L316.43 130.456C316.07 132.76 315.638 134.896 312.518 134.896C310.358 134.896 309.542 133.6 309.878 131.488L309.95 131.032H311.486L311.462 131.248C311.27 132.4 311.414 133.432 312.758 133.432C314.51 133.432 314.606 131.896 314.822 130.576L315.062 129.136C314.438 129.736 313.742 130 312.926 130C309.854 130 310.478 125.752 310.814 123.568C311.15 121.504 312.038 117.496 314.894 117.496C315.734 117.496 316.358 117.88 316.718 118.528H316.766L316.886 117.688H318.446ZM42.7648 157.92C44.2048 157.92 44.7328 156.504 45.3328 152.712C45.6448 150.816 46.1008 147.768 44.3008 147.768C42.6448 147.768 42.1648 150.312 41.8288 152.496C41.4448 154.872 41.0608 157.92 42.7648 157.92ZM42.8848 146.688L42.7648 147.528H42.8128C43.3888 146.856 44.0128 146.496 44.9008 146.496C47.7568 146.496 47.3488 150.216 46.9408 152.712C46.5088 155.496 45.8608 159.192 43.0048 159.192C42.1168 159.192 41.4928 158.736 41.1328 158.04H41.0848L40.1968 163.704H38.6368L41.3248 146.688H42.8848ZM51.252 146.688L50.988 148.32H51.036C51.516 147.456 52.356 146.472 53.388 146.496L53.076 148.32L52.788 148.296C51.18 148.296 50.748 149.856 50.436 151.824L49.308 159H47.748L49.692 146.688H51.252ZM58.3372 152.64C58.7692 149.976 58.9132 147.768 57.3772 147.768C55.6492 147.768 55.1212 150.504 54.7852 152.592C53.9932 157.68 54.7852 157.92 55.6972 157.92C57.2092 157.92 57.7132 156.504 58.3372 152.64ZM60.6892 146.688L58.7452 159H57.1852L57.3292 158.04H57.2812C56.7292 158.736 55.9612 159.192 55.0732 159.192C53.1052 159.192 52.3132 158.088 53.1532 152.712C53.6092 149.952 54.2572 146.496 57.2332 146.496C58.0972 146.496 58.5772 146.856 58.9612 147.528H59.0092L59.1292 146.688H60.6892ZM67.7364 146.976L67.4484 148.776C67.1364 148.368 66.7044 147.96 66.1044 147.96C64.0884 147.96 63.3444 151.464 63.1044 152.88C62.9124 154.104 62.6004 157.728 64.4484 157.728C65.1684 157.728 65.7204 157.176 66.1764 156.624H66.2244L65.9124 158.568C65.3844 158.952 64.6404 159.192 64.0404 159.192C61.2084 159.192 61.1364 155.208 61.4724 153.096C61.8324 150.768 63.0084 146.496 66.1284 146.496C66.7044 146.496 67.2804 146.664 67.7364 146.976ZM73.7681 146.688L73.5521 148.128H71.5121L69.7841 159H68.2241L69.9521 148.128H68.6321L68.8481 146.688H70.1681L70.6961 143.328H72.2561L71.7281 146.688H73.7681ZM76.1426 146.688L74.1986 159H72.6386L74.5826 146.688H76.1426ZM77.1026 143.04C77.0066 143.688 76.4066 144.216 75.7826 144.216C75.1346 144.216 74.6786 143.688 74.7746 143.04C74.8706 142.416 75.4946 141.888 76.1426 141.888C76.7666 141.888 77.1986 142.416 77.1026 143.04ZM83.2052 146.976L82.9172 148.776C82.6052 148.368 82.1732 147.96 81.5732 147.96C79.5572 147.96 78.8132 151.464 78.5732 152.88C78.3812 154.104 78.0692 157.728 79.9172 157.728C80.6372 157.728 81.1892 157.176 81.6452 156.624H81.6932L81.3812 158.568C80.8532 158.952 80.1092 159.192 79.5092 159.192C76.6772 159.192 76.6052 155.208 76.9412 153.096C77.3012 150.768 78.4772 146.496 81.5972 146.496C82.1732 146.496 82.7492 146.664 83.2052 146.976ZM85.4448 151.848H89.0208L89.0448 151.632C89.1648 150.456 89.5248 147.96 87.8928 147.96C86.4048 147.96 85.6128 150.744 85.4448 151.848ZM90.3888 153.168H85.2048L85.1568 153.528C84.9648 154.752 84.7008 157.728 86.4048 157.728C87.7728 157.728 88.2768 155.808 88.4448 154.824H90.0528C89.7168 156.696 88.6128 159.192 86.3328 159.192C83.0928 159.192 83.2608 155.352 83.6448 152.88C84.0048 150.672 85.1568 146.496 88.1328 146.496C91.0128 146.496 90.8688 150.264 90.5088 152.424L90.3888 153.168ZM93.0474 156.744C93.7194 156.744 94.1754 157.296 94.0794 157.968C93.9594 158.64 93.3354 159.192 92.6634 159.192C91.9914 159.192 91.5114 158.64 91.6314 157.968C91.7274 157.296 92.3754 156.744 93.0474 156.744ZM116.112 140.904L110.064 159H108.528L108.624 146.808C108.648 146.184 108.792 144.84 108.888 143.856H108.792C108.528 144.84 108.24 146.208 108.048 146.808L104.016 159H102.48L102.456 140.904H104.184L103.896 153C103.872 153.888 103.8 154.8 103.752 155.688H103.848C104.112 154.8 104.328 153.888 104.616 153L108.6 140.904H110.04L109.872 153C109.848 153.888 109.824 154.8 109.8 155.688H109.896C110.136 154.8 110.352 153.888 110.64 153L114.408 140.904H116.112ZM116.898 151.848H120.474L120.498 151.632C120.618 150.456 120.978 147.96 119.346 147.96C117.858 147.96 117.066 150.744 116.898 151.848ZM121.842 153.168H116.658L116.61 153.528C116.418 154.752 116.154 157.728 117.858 157.728C119.226 157.728 119.73 155.808 119.898 154.824H121.506C121.17 156.696 120.066 159.192 117.786 159.192C114.546 159.192 114.714 155.352 115.098 152.88C115.458 150.672 116.61 146.496 119.586 146.496C122.466 146.496 122.322 150.264 121.962 152.424L121.842 153.168ZM129.901 153.048C129.685 154.392 129.133 157.728 131.101 157.728C132.757 157.728 133.213 155.304 133.645 152.616C134.005 150.36 134.269 147.768 132.565 147.768C131.437 147.768 130.621 148.536 129.901 153.048ZM135.997 146.688L133.981 159.456C133.621 161.76 133.189 163.896 130.069 163.896C127.909 163.896 127.093 162.6 127.429 160.488L127.501 160.032H129.037L129.013 160.248C128.821 161.4 128.965 162.432 130.309 162.432C132.061 162.432 132.157 160.896 132.373 159.576L132.613 158.136C131.989 158.736 131.293 159 130.477 159C127.405 159 128.029 154.752 128.365 152.568C128.701 150.504 129.589 146.496 132.445 146.496C133.285 146.496 133.909 146.88 134.269 147.528H134.317L134.437 146.688H135.997ZM138.049 146.688H139.609L138.385 154.416C138.121 156.096 137.953 157.728 139.489 157.728C141.073 157.728 141.409 156.096 141.697 154.416L142.921 146.688H144.481L143.065 155.736C142.729 157.8 141.505 159.192 139.297 159.192C137.113 159.192 136.297 157.824 136.633 155.736L138.049 146.688ZM148.096 146.688L146.152 159H144.592L146.536 146.688H148.096ZM149.056 143.04C148.96 143.688 148.36 144.216 147.736 144.216C147.088 144.216 146.632 143.688 146.728 143.04C146.824 142.416 147.448 141.888 148.096 141.888C148.72 141.888 149.152 142.416 149.056 143.04ZM154.126 152.64C154.582 149.832 154.606 147.768 153.166 147.768C151.414 147.768 150.862 150.84 150.574 152.592C150.406 153.744 149.494 157.92 151.486 157.92C153.142 157.92 153.622 155.88 154.126 152.64ZM152.974 159L153.118 158.04H153.07C152.518 158.736 151.75 159.192 150.862 159.192C148.294 159.192 148.414 156.072 148.942 152.712C149.494 149.352 150.286 146.496 153.022 146.496C153.886 146.496 154.366 146.856 154.75 147.528H154.798L156.022 139.8H157.582L154.534 159H152.974ZM159.085 151.848H162.661L162.685 151.632C162.805 150.456 163.165 147.96 161.533 147.96C160.045 147.96 159.253 150.744 159.085 151.848ZM164.029 153.168H158.845L158.797 153.528C158.605 154.752 158.341 157.728 160.045 157.728C161.413 157.728 161.917 155.808 162.085 154.824H163.693C163.357 156.696 162.253 159.192 159.973 159.192C156.733 159.192 156.901 155.352 157.285 152.88C157.645 150.672 158.797 146.496 161.773 146.496C164.653 146.496 164.509 150.264 164.149 152.424L164.029 153.168ZM174.924 146.496C178.164 146.496 177.804 150.528 177.444 152.832C177.06 155.16 176.148 159.192 172.908 159.192C169.668 159.192 170.004 155.16 170.388 152.832C170.748 150.528 171.684 146.496 174.924 146.496ZM174.684 147.96C172.812 147.96 172.164 151.656 171.996 152.832C171.804 154.032 171.252 157.728 173.124 157.728C174.996 157.728 175.644 154.032 175.836 152.832C176.004 151.656 176.556 147.96 174.684 147.96ZM180.143 146.688H181.703L180.479 154.416C180.215 156.096 180.047 157.728 181.583 157.728C183.167 157.728 183.503 156.096 183.791 154.416L185.015 146.688H186.575L185.159 155.736C184.823 157.8 183.599 159.192 181.391 159.192C179.207 159.192 178.391 157.824 178.727 155.736L180.143 146.688ZM190.189 146.688L189.925 148.32H189.973C190.453 147.456 191.293 146.472 192.325 146.496L192.013 148.32L191.725 148.296C190.117 148.296 189.685 149.856 189.373 151.824L188.245 159H186.685L188.629 146.688H190.189ZM202.408 152.64C202.84 149.976 202.984 147.768 201.448 147.768C199.72 147.768 199.192 150.504 198.856 152.592C198.064 157.68 198.856 157.92 199.768 157.92C201.28 157.92 201.784 156.504 202.408 152.64ZM204.76 146.688L202.816 159H201.256L201.4 158.04H201.352C200.8 158.736 200.032 159.192 199.144 159.192C197.176 159.192 196.384 158.088 197.224 152.712C197.68 149.952 198.328 146.496 201.304 146.496C202.168 146.496 202.648 146.856 203.032 147.528H203.08L203.2 146.688H204.76ZM208.351 157.92C209.791 157.92 210.319 156.504 210.919 152.712C211.231 150.816 211.687 147.768 209.887 147.768C208.231 147.768 207.751 150.312 207.415 152.496C207.031 154.872 206.647 157.92 208.351 157.92ZM208.471 146.688L208.351 147.528H208.399C208.975 146.856 209.599 146.496 210.487 146.496C213.343 146.496 212.935 150.216 212.527 152.712C212.095 155.496 211.447 159.192 208.591 159.192C207.703 159.192 207.079 158.736 206.719 158.04H206.671L205.783 163.704H204.223L206.911 146.688H208.471ZM216.718 157.92C218.158 157.92 218.686 156.504 219.286 152.712C219.598 150.816 220.054 147.768 218.254 147.768C216.598 147.768 216.118 150.312 215.782 152.496C215.398 154.872 215.014 157.92 216.718 157.92ZM216.838 146.688L216.718 147.528H216.766C217.342 146.856 217.966 146.496 218.854 146.496C221.71 146.496 221.302 150.216 220.894 152.712C220.462 155.496 219.814 159.192 216.958 159.192C216.07 159.192 215.446 158.736 215.086 158.04H215.038L214.15 163.704H212.59L215.278 146.688H216.838ZM226.309 139.8L223.261 159H221.701L224.749 139.8H226.309ZM228.955 146.688L227.011 159H225.451L227.395 146.688H228.955ZM229.915 143.04C229.819 143.688 229.219 144.216 228.595 144.216C227.947 144.216 227.491 143.688 227.587 143.04C227.683 142.416 228.307 141.888 228.955 141.888C229.579 141.888 230.011 142.416 229.915 143.04ZM236.018 146.976L235.73 148.776C235.418 148.368 234.986 147.96 234.386 147.96C232.37 147.96 231.626 151.464 231.386 152.88C231.194 154.104 230.882 157.728 232.73 157.728C233.45 157.728 234.002 157.176 234.458 156.624H234.506L234.194 158.568C233.666 158.952 232.922 159.192 232.322 159.192C229.49 159.192 229.418 155.208 229.754 153.096C230.114 150.768 231.29 146.496 234.41 146.496C234.986 146.496 235.562 146.664 236.018 146.976ZM241.665 152.64C242.097 149.976 242.241 147.768 240.705 147.768C238.977 147.768 238.449 150.504 238.113 152.592C237.321 157.68 238.113 157.92 239.025 157.92C240.537 157.92 241.041 156.504 241.665 152.64ZM244.017 146.688L242.073 159H240.513L240.657 158.04H240.609C240.057 158.736 239.289 159.192 238.401 159.192C236.433 159.192 235.641 158.088 236.481 152.712C236.937 149.952 237.585 146.496 240.561 146.496C241.425 146.496 241.905 146.856 242.289 147.528H242.337L242.457 146.688H244.017ZM247.729 146.688L247.585 147.672C248.329 146.952 249.241 146.496 250.201 146.496C252.385 146.496 252.241 148.512 251.977 150.192L250.585 159H249.025L250.393 150.36C250.633 148.896 250.705 147.768 249.409 147.768C247.633 147.768 247.249 149.712 247.057 151.008L245.785 159H244.225L246.169 146.688H247.729ZM258.948 146.688L258.732 148.128H256.692L254.964 159H253.404L255.132 148.128H253.812L254.028 146.688H255.348L255.876 143.328H257.436L256.908 146.688H258.948ZM264.347 147.288L264.059 149.208H264.011C263.651 148.56 263.027 147.96 262.163 147.96C261.227 147.96 260.507 148.68 260.363 149.592C260.171 150.768 261.083 151.488 261.923 152.304C262.811 153.144 263.651 154.056 263.387 155.664C263.075 157.632 261.515 159.192 259.475 159.192C258.707 159.192 257.891 158.832 257.363 158.352L257.651 156.528C258.155 157.152 258.707 157.728 259.643 157.728C260.723 157.728 261.587 156.888 261.755 155.856C261.947 154.632 261.083 153.816 260.219 152.928C259.379 152.064 258.515 151.104 258.755 149.64C259.043 147.792 260.483 146.496 262.331 146.496C263.123 146.496 263.795 146.808 264.347 147.288ZM275.659 146.688L275.443 148.128H273.403L271.675 159H270.115L271.843 148.128H270.523L270.739 146.688H272.059L272.587 143.328H274.147L273.619 146.688H275.659ZM279.137 139.8L277.889 147.672C278.633 146.952 279.545 146.496 280.505 146.496C282.761 146.496 282.569 148.464 282.281 150.192L280.889 159H279.329L280.673 150.456C280.985 148.536 280.889 147.768 279.713 147.768C277.937 147.768 277.553 149.712 277.361 151.008L276.089 159H274.529L277.577 139.8H279.137ZM286.564 146.688L286.3 148.32H286.348C286.828 147.456 287.668 146.472 288.7 146.496L288.388 148.32L288.1 148.296C286.492 148.296 286.06 149.856 285.748 151.824L284.62 159H283.06L285.004 146.688H286.564ZM293.002 146.496C296.242 146.496 295.882 150.528 295.522 152.832C295.138 155.16 294.226 159.192 290.986 159.192C287.746 159.192 288.082 155.16 288.466 152.832C288.826 150.528 289.762 146.496 293.002 146.496ZM292.762 147.96C290.89 147.96 290.242 151.656 290.074 152.832C289.882 154.032 289.33 157.728 291.202 157.728C293.074 157.728 293.722 154.032 293.914 152.832C294.082 151.656 294.634 147.96 292.762 147.96ZM298.221 146.688H299.781L298.557 154.416C298.293 156.096 298.125 157.728 299.661 157.728C301.245 157.728 301.581 156.096 301.869 154.416L303.093 146.688H304.653L303.237 155.736C302.901 157.8 301.677 159.192 299.469 159.192C297.285 159.192 296.469 157.824 296.805 155.736L298.221 146.688ZM306.948 153.048C306.732 154.392 306.18 157.728 308.148 157.728C309.804 157.728 310.26 155.304 310.692 152.616C311.052 150.36 311.316 147.768 309.612 147.768C308.484 147.768 307.668 148.536 306.948 153.048ZM313.044 146.688L311.028 159.456C310.668 161.76 310.236 163.896 307.116 163.896C304.956 163.896 304.14 162.6 304.476 160.488L304.548 160.032H306.084L306.06 160.248C305.868 161.4 306.012 162.432 307.356 162.432C309.108 162.432 309.204 160.896 309.42 159.576L309.66 158.136C309.036 158.736 308.34 159 307.524 159C304.452 159 305.076 154.752 305.412 152.568C305.748 150.504 306.636 146.496 309.492 146.496C310.332 146.496 310.956 146.88 311.316 147.528H311.364L311.484 146.688H313.044ZM317.856 139.8L316.608 147.672C317.352 146.952 318.264 146.496 319.224 146.496C321.48 146.496 321.288 148.464 321 150.192L319.608 159H318.048L319.392 150.456C319.704 148.536 319.608 147.768 318.432 147.768C316.656 147.768 316.272 149.712 316.08 151.008L314.808 159H313.248L316.296 139.8H317.856ZM48.315 175.688L48.099 177.128H46.059L44.331 188H42.771L44.499 177.128H43.179L43.395 175.688H44.715L45.243 172.328H46.803L46.275 175.688H48.315ZM51.7935 168.8L50.5455 176.672C51.2895 175.952 52.2015 175.496 53.1615 175.496C55.4175 175.496 55.2255 177.464 54.9375 179.192L53.5455 188H51.9855L53.3295 179.456C53.6415 177.536 53.5455 176.768 52.3695 176.768C50.5935 176.768 50.2095 178.712 50.0175 180.008L48.7455 188H47.1855L50.2335 168.8H51.7935ZM58.1167 180.848H61.6927L61.7167 180.632C61.8367 179.456 62.1967 176.96 60.5647 176.96C59.0767 176.96 58.2847 179.744 58.1167 180.848ZM63.0607 182.168H57.8767L57.8287 182.528C57.6367 183.752 57.3727 186.728 59.0767 186.728C60.4447 186.728 60.9487 184.808 61.1167 183.824H62.7247C62.3887 185.696 61.2847 188.192 59.0047 188.192C55.7647 188.192 55.9327 184.352 56.3167 181.88C56.6767 179.672 57.8287 175.496 60.8047 175.496C63.6847 175.496 63.5407 179.264 63.1807 181.424L63.0607 182.168ZM67.4473 175.688L65.5033 188H63.9433L65.8873 175.688H67.4473ZM68.4073 172.04C68.3113 172.688 67.7113 173.216 67.0873 173.216C66.4393 173.216 65.9833 172.688 66.0793 172.04C66.1753 171.416 66.7993 170.888 67.4473 170.888C68.0713 170.888 68.5033 171.416 68.4073 172.04ZM71.1738 175.688L70.9098 177.32H70.9578C71.4378 176.456 72.2778 175.472 73.3098 175.496L72.9978 177.32L72.7098 177.296C71.1018 177.296 70.6698 178.856 70.3578 180.824L69.2298 188H67.6698L69.6138 175.688H71.1738ZM79.7027 180.848H83.2787L83.3027 180.632C83.4227 179.456 83.7827 176.96 82.1507 176.96C80.6627 176.96 79.8707 179.744 79.7027 180.848ZM84.6467 182.168H79.4627L79.4147 182.528C79.2227 183.752 78.9587 186.728 80.6627 186.728C82.0307 186.728 82.5347 184.808 82.7027 183.824H84.3107C83.9747 185.696 82.8707 188.192 80.5907 188.192C77.3507 188.192 77.5187 184.352 77.9027 181.88C78.2627 179.672 79.4147 175.496 82.3907 175.496C85.2707 175.496 85.1267 179.264 84.7667 181.424L84.6467 182.168ZM89.0332 175.688L88.8892 176.672C89.6332 175.952 90.5452 175.496 91.5052 175.496C93.6892 175.496 93.5452 177.512 93.2812 179.192L91.8892 188H90.3292L91.6972 179.36C91.9372 177.896 92.0092 176.768 90.7132 176.768C88.9372 176.768 88.5532 178.712 88.3612 180.008L87.0892 188H85.5292L87.4732 175.688H89.0332ZM100.252 175.688L100.036 177.128H97.9965L96.2685 188H94.7085L96.4365 177.128H95.1165L95.3325 175.688H96.6525L97.1805 172.328H98.7405L98.2125 175.688H100.252ZM102.627 175.688L100.683 188H99.123L101.067 175.688H102.627ZM103.587 172.04C103.491 172.688 102.891 173.216 102.267 173.216C101.619 173.216 101.163 172.688 101.259 172.04C101.355 171.416 101.979 170.888 102.627 170.888C103.251 170.888 103.683 171.416 103.587 172.04ZM106.354 175.688L106.09 177.32H106.138C106.618 176.456 107.458 175.472 108.49 175.496L108.178 177.32L107.89 177.296C106.282 177.296 105.85 178.856 105.538 180.824L104.41 188H102.85L104.794 175.688H106.354ZM110.031 180.848H113.607L113.631 180.632C113.751 179.456 114.111 176.96 112.479 176.96C110.991 176.96 110.199 179.744 110.031 180.848ZM114.975 182.168H109.791L109.743 182.528C109.551 183.752 109.287 186.728 110.991 186.728C112.359 186.728 112.863 184.808 113.031 183.824H114.639C114.303 185.696 113.199 188.192 110.919 188.192C107.679 188.192 107.847 184.352 108.231 181.88C108.591 179.672 109.743 175.496 112.719 175.496C115.599 175.496 115.455 179.264 115.095 181.424L114.975 182.168ZM131.602 169.904L128.746 188H127.282L125.122 175.832C124.978 175.088 124.978 174.272 124.882 173.504H124.786C124.666 174.68 124.594 175.832 124.426 177.008L122.674 188H121.21L124.066 169.904H125.53L127.69 182.48C127.81 183.104 127.882 183.728 127.954 184.352H128.026C128.098 183.56 128.122 182.744 128.242 181.952L130.138 169.904H131.602ZM138.647 185.792L138.359 187.496C137.663 187.928 136.727 188.24 135.935 188.24C131.687 188.24 131.951 182.696 132.431 179.6C132.911 176.672 134.111 169.664 139.055 169.664C139.727 169.664 140.615 169.832 141.095 170.24L140.807 172.088C140.207 171.632 139.655 171.296 138.815 171.296C135.887 171.296 134.807 175.544 134.279 178.904C133.943 181.016 133.055 186.608 136.271 186.608C137.087 186.608 137.927 186.248 138.647 185.792ZM144.988 169.904L142.372 186.464H146.308L146.068 188H140.452L143.308 169.904H144.988ZM156.05 169.904L155.81 171.44H151.802L150.794 177.824H154.682L154.442 179.36H150.554L149.426 186.464H153.434L153.194 188H147.506L150.362 169.904H156.05ZM166.152 169.904L161.376 178.808L163.296 188H161.496L160.272 180.296H160.176C159.864 181.28 159.36 182.24 158.904 183.2L156.528 188H154.728L159.624 178.808L157.584 169.904H159.384L160.608 177.56H160.704C161.088 176.408 161.616 175.28 162.168 174.2L164.352 169.904H166.152ZM173.007 186.92C174.447 186.92 174.975 185.504 175.575 181.712C175.887 179.816 176.343 176.768 174.543 176.768C172.887 176.768 172.407 179.312 172.071 181.496C171.687 183.872 171.303 186.92 173.007 186.92ZM173.127 175.688L173.007 176.528H173.055C173.631 175.856 174.255 175.496 175.143 175.496C177.999 175.496 177.591 179.216 177.183 181.712C176.751 184.496 176.103 188.192 173.247 188.192C172.359 188.192 171.735 187.736 171.375 187.04H171.327L170.439 192.704H168.879L171.567 175.688H173.127ZM181.494 175.688L181.23 177.32H181.278C181.758 176.456 182.598 175.472 183.63 175.496L183.318 177.32L183.03 177.296C181.422 177.296 180.99 178.856 180.678 180.824L179.55 188H177.99L179.934 175.688H181.494ZM187.931 175.496C191.171 175.496 190.811 179.528 190.451 181.832C190.067 184.16 189.155 188.192 185.915 188.192C182.675 188.192 183.011 184.16 183.395 181.832C183.755 179.528 184.691 175.496 187.931 175.496ZM187.691 176.96C185.819 176.96 185.171 180.656 185.003 181.832C184.811 183.032 184.259 186.728 186.131 186.728C188.003 186.728 188.651 183.032 188.843 181.832C189.011 180.656 189.563 176.96 187.691 176.96ZM198.143 175.976L197.855 177.776C197.543 177.368 197.111 176.96 196.511 176.96C194.495 176.96 193.751 180.464 193.511 181.88C193.319 183.104 193.007 186.728 194.855 186.728C195.575 186.728 196.127 186.176 196.583 185.624H196.631L196.319 187.568C195.791 187.952 195.047 188.192 194.447 188.192C191.615 188.192 191.543 184.208 191.879 182.096C192.239 179.768 193.415 175.496 196.535 175.496C197.111 175.496 197.687 175.664 198.143 175.976ZM200.382 180.848H203.958L203.982 180.632C204.102 179.456 204.462 176.96 202.83 176.96C201.342 176.96 200.55 179.744 200.382 180.848ZM205.326 182.168H200.142L200.094 182.528C199.902 183.752 199.638 186.728 201.342 186.728C202.71 186.728 203.214 184.808 203.382 183.824H204.99C204.654 185.696 203.55 188.192 201.27 188.192C198.03 188.192 198.198 184.352 198.582 181.88C198.942 179.672 200.094 175.496 203.07 175.496C205.95 175.496 205.806 179.264 205.446 181.424L205.326 182.168ZM212.761 176.288L212.473 178.208H212.425C212.065 177.56 211.441 176.96 210.577 176.96C209.641 176.96 208.921 177.68 208.777 178.592C208.585 179.768 209.497 180.488 210.337 181.304C211.225 182.144 212.065 183.056 211.801 184.664C211.489 186.632 209.929 188.192 207.889 188.192C207.121 188.192 206.305 187.832 205.777 187.352L206.065 185.528C206.569 186.152 207.121 186.728 208.057 186.728C209.137 186.728 210.001 185.888 210.169 184.856C210.361 183.632 209.497 182.816 208.633 181.928C207.793 181.064 206.929 180.104 207.169 178.64C207.457 176.792 208.897 175.496 210.745 175.496C211.537 175.496 212.209 175.808 212.761 176.288ZM219.441 176.288L219.153 178.208H219.105C218.745 177.56 218.121 176.96 217.257 176.96C216.321 176.96 215.601 177.68 215.457 178.592C215.265 179.768 216.177 180.488 217.017 181.304C217.905 182.144 218.745 183.056 218.481 184.664C218.169 186.632 216.609 188.192 214.569 188.192C213.801 188.192 212.985 187.832 212.457 187.352L212.745 185.528C213.249 186.152 213.801 186.728 214.737 186.728C215.817 186.728 216.681 185.888 216.849 184.856C217.041 183.632 216.177 182.816 215.313 181.928C214.473 181.064 213.609 180.104 213.849 178.64C214.137 176.792 215.577 175.496 217.425 175.496C218.217 175.496 218.889 175.808 219.441 176.288ZM222.76 186.512L219.496 191.864L218.44 191.312L221.176 185.744L222.76 186.512ZM235.378 176.288L235.09 178.208H235.042C234.682 177.56 234.058 176.96 233.194 176.96C232.258 176.96 231.538 177.68 231.394 178.592C231.202 179.768 232.114 180.488 232.954 181.304C233.842 182.144 234.682 183.056 234.418 184.664C234.106 186.632 232.546 188.192 230.506 188.192C229.738 188.192 228.922 187.832 228.394 187.352L228.682 185.528C229.186 186.152 229.738 186.728 230.674 186.728C231.754 186.728 232.618 185.888 232.786 184.856C232.978 183.632 232.114 182.816 231.25 181.928C230.41 181.064 229.546 180.104 229.786 178.64C230.074 176.792 231.514 175.496 233.362 175.496C234.154 175.496 234.826 175.808 235.378 176.288ZM241.698 175.688L241.482 177.128H239.442L237.714 188H236.154L237.882 177.128H236.562L236.778 175.688H238.098L238.626 172.328H240.186L239.658 175.688H241.698ZM246.353 181.64C246.785 178.976 246.929 176.768 245.393 176.768C243.665 176.768 243.137 179.504 242.801 181.592C242.009 186.68 242.801 186.92 243.713 186.92C245.225 186.92 245.729 185.504 246.353 181.64ZM248.705 175.688L246.761 188H245.201L245.345 187.04H245.297C244.745 187.736 243.977 188.192 243.089 188.192C241.121 188.192 240.329 187.088 241.169 181.712C241.625 178.952 242.273 175.496 245.249 175.496C246.113 175.496 246.593 175.856 246.977 176.528H247.025L247.145 175.688H248.705ZM252.416 175.688L252.152 177.32H252.2C252.68 176.456 253.52 175.472 254.552 175.496L254.24 177.32L253.952 177.296C252.344 177.296 251.912 178.856 251.6 180.824L250.472 188H248.912L250.856 175.688H252.416ZM260.026 175.688L259.81 177.128H257.77L256.042 188H254.482L256.21 177.128H254.89L255.106 175.688H256.426L256.954 172.328H258.514L257.986 175.688H260.026ZM262.4 175.688L260.456 188H258.896L260.84 175.688H262.4ZM263.36 172.04C263.264 172.688 262.664 173.216 262.04 173.216C261.392 173.216 260.936 172.688 261.032 172.04C261.128 171.416 261.752 170.888 262.4 170.888C263.024 170.888 263.456 171.416 263.36 172.04ZM266.127 175.688L265.983 176.672C266.727 175.952 267.639 175.496 268.599 175.496C270.783 175.496 270.639 177.512 270.375 179.192L268.983 188H267.423L268.791 179.36C269.031 177.896 269.103 176.768 267.807 176.768C266.031 176.768 265.647 178.712 265.455 180.008L264.183 188H262.623L264.567 175.688H266.127ZM273.338 182.048C273.122 183.392 272.57 186.728 274.538 186.728C276.194 186.728 276.65 184.304 277.082 181.616C277.442 179.36 277.706 176.768 276.002 176.768C274.874 176.768 274.058 177.536 273.338 182.048ZM279.434 175.688L277.418 188.456C277.058 190.76 276.626 192.896 273.506 192.896C271.346 192.896 270.53 191.6 270.866 189.488L270.938 189.032H272.474L272.45 189.248C272.258 190.4 272.402 191.432 273.746 191.432C275.498 191.432 275.594 189.896 275.81 188.576L276.05 187.136C275.426 187.736 274.73 188 273.914 188C270.842 188 271.466 183.752 271.802 181.568C272.138 179.504 273.026 175.496 275.882 175.496C276.722 175.496 277.346 175.88 277.706 176.528H277.754L277.874 175.688H279.434ZM297.327 175.688L292.671 188H291.063V179.072C291.063 178.64 291.135 178.184 291.159 177.752H291.087C290.895 178.496 290.727 179.24 290.487 179.984L287.895 188H286.311L285.759 175.688H287.343L287.367 182.96C287.367 183.896 287.415 184.808 287.439 185.744H287.535C287.799 184.808 288.039 183.896 288.327 182.96L290.679 175.688H292.263L292.215 184.208C292.215 184.712 292.191 185.24 292.191 185.744H292.263C292.503 184.952 292.719 184.136 293.007 183.344L295.743 175.688H297.327ZM300.229 175.688L298.285 188H296.725L298.669 175.688H300.229ZM301.189 172.04C301.093 172.688 300.493 173.216 299.869 173.216C299.221 173.216 298.765 172.688 298.861 172.04C298.957 171.416 299.581 170.888 300.229 170.888C300.853 170.888 301.285 171.416 301.189 172.04ZM306.643 175.688L306.427 177.128H304.387L302.659 188H301.099L302.827 177.128H301.507L301.723 175.688H303.043L303.571 172.328H305.131L304.603 175.688H306.643ZM310.122 168.8L308.874 176.672C309.618 175.952 310.53 175.496 311.49 175.496C313.746 175.496 313.554 177.464 313.266 179.192L311.874 188H310.314L311.658 179.456C311.97 177.536 311.874 176.768 310.698 176.768C308.922 176.768 308.538 178.712 308.346 180.008L307.074 188H305.514L308.562 168.8H310.122ZM66.5638 210.64C66.9958 207.976 67.1398 205.768 65.6038 205.768C63.8758 205.768 63.3478 208.504 63.0118 210.592C62.2198 215.68 63.0118 215.92 63.9238 215.92C65.4358 215.92 65.9398 214.504 66.5638 210.64ZM68.9158 204.688L66.9718 217H65.4118L65.5558 216.04H65.5078C64.9558 216.736 64.1878 217.192 63.2998 217.192C61.3318 217.192 60.5398 216.088 61.3798 210.712C61.8358 207.952 62.4838 204.496 65.4598 204.496C66.3238 204.496 66.8038 204.856 67.1878 205.528H67.2358L67.3558 204.688H68.9158ZM72.627 204.688L72.483 205.672C73.227 204.952 74.139 204.496 75.099 204.496C77.283 204.496 77.139 206.512 76.875 208.192L75.483 217H73.923L75.291 208.36C75.531 206.896 75.603 205.768 74.307 205.768C72.531 205.768 72.147 207.712 71.955 209.008L70.683 217H69.123L71.067 204.688H72.627ZM86.1504 204.688L84.2064 217H82.6464L84.5904 204.688H86.1504ZM87.1104 201.04C87.0144 201.688 86.4144 202.216 85.7904 202.216C85.1424 202.216 84.6864 201.688 84.7824 201.04C84.8784 200.416 85.5024 199.888 86.1504 199.888C86.7744 199.888 87.2064 200.416 87.1104 201.04ZM89.877 204.688L89.733 205.672C90.477 204.952 91.389 204.496 92.349 204.496C94.533 204.496 94.389 206.512 94.125 208.192L92.733 217H91.173L92.541 208.36C92.781 206.896 92.853 205.768 91.557 205.768C89.781 205.768 89.397 207.712 89.205 209.008L87.933 217H86.373L88.317 204.688H89.877ZM98.4082 204.688L96.4642 217H94.9042L96.8482 204.688H98.4082ZM99.3682 201.04C99.2722 201.688 98.6722 202.216 98.0482 202.216C97.4002 202.216 96.9442 201.688 97.0402 201.04C97.1362 200.416 97.7602 199.888 98.4082 199.888C99.0322 199.888 99.4642 200.416 99.3682 201.04ZM104.823 204.688L104.607 206.128H102.567L100.839 217H99.2788L101.007 206.128H99.6868L99.9028 204.688H101.223L101.751 201.328H103.311L102.783 204.688H104.823ZM107.197 204.688L105.253 217H103.693L105.637 204.688H107.197ZM108.157 201.04C108.061 201.688 107.461 202.216 106.837 202.216C106.189 202.216 105.733 201.688 105.829 201.04C105.925 200.416 106.549 199.888 107.197 199.888C107.821 199.888 108.253 200.416 108.157 201.04ZM113.228 210.64C113.66 207.976 113.804 205.768 112.268 205.768C110.54 205.768 110.012 208.504 109.676 210.592C108.884 215.68 109.676 215.92 110.588 215.92C112.1 215.92 112.604 214.504 113.228 210.64ZM115.58 204.688L113.636 217H112.076L112.22 216.04H112.172C111.62 216.736 110.852 217.192 109.964 217.192C107.996 217.192 107.204 216.088 108.044 210.712C108.5 207.952 109.148 204.496 112.124 204.496C112.988 204.496 113.468 204.856 113.852 205.528H113.9L114.02 204.688H115.58ZM120.395 197.8L117.347 217H115.787L118.835 197.8H120.395ZM130.314 210.64C130.746 207.976 130.89 205.768 129.354 205.768C127.626 205.768 127.098 208.504 126.762 210.592C125.97 215.68 126.762 215.92 127.674 215.92C129.186 215.92 129.69 214.504 130.314 210.64ZM132.666 204.688L130.722 217H129.162L129.306 216.04H129.258C128.706 216.736 127.938 217.192 127.05 217.192C125.082 217.192 124.29 216.088 125.13 210.712C125.586 207.952 126.234 204.496 129.21 204.496C130.074 204.496 130.554 204.856 130.938 205.528H130.986L131.106 204.688H132.666ZM139.425 205.288L139.137 207.208H139.089C138.729 206.56 138.105 205.96 137.241 205.96C136.305 205.96 135.585 206.68 135.441 207.592C135.249 208.768 136.161 209.488 137.001 210.304C137.889 211.144 138.729 212.056 138.465 213.664C138.153 215.632 136.593 217.192 134.553 217.192C133.785 217.192 132.969 216.832 132.441 216.352L132.729 214.528C133.233 215.152 133.785 215.728 134.721 215.728C135.801 215.728 136.665 214.888 136.833 213.856C137.025 212.632 136.161 211.816 135.297 210.928C134.457 210.064 133.593 209.104 133.833 207.64C134.121 205.792 135.561 204.496 137.409 204.496C138.201 204.496 138.873 204.808 139.425 205.288ZM146.105 205.288L145.817 207.208H145.769C145.409 206.56 144.785 205.96 143.921 205.96C142.985 205.96 142.265 206.68 142.121 207.592C141.929 208.768 142.841 209.488 143.681 210.304C144.569 211.144 145.409 212.056 145.145 213.664C144.833 215.632 143.273 217.192 141.233 217.192C140.465 217.192 139.649 216.832 139.121 216.352L139.409 214.528C139.913 215.152 140.465 215.728 141.401 215.728C142.481 215.728 143.345 214.888 143.513 213.856C143.705 212.632 142.841 211.816 141.977 210.928C141.137 210.064 140.273 209.104 140.513 207.64C140.801 205.792 142.241 204.496 144.089 204.496C144.881 204.496 145.553 204.808 146.105 205.288ZM148.632 209.848H152.208L152.232 209.632C152.352 208.456 152.712 205.96 151.08 205.96C149.592 205.96 148.8 208.744 148.632 209.848ZM153.576 211.168H148.392L148.344 211.528C148.152 212.752 147.888 215.728 149.592 215.728C150.96 215.728 151.464 213.808 151.632 212.824H153.24C152.904 214.696 151.8 217.192 149.52 217.192C146.28 217.192 146.448 213.352 146.832 210.88C147.192 208.672 148.344 204.496 151.32 204.496C154.2 204.496 154.056 208.264 153.696 210.424L153.576 211.168ZM161.011 205.288L160.723 207.208H160.675C160.315 206.56 159.691 205.96 158.827 205.96C157.891 205.96 157.171 206.68 157.027 207.592C156.835 208.768 157.747 209.488 158.587 210.304C159.475 211.144 160.315 212.056 160.051 213.664C159.739 215.632 158.179 217.192 156.139 217.192C155.371 217.192 154.555 216.832 154.027 216.352L154.315 214.528C154.819 215.152 155.371 215.728 156.307 215.728C157.387 215.728 158.251 214.888 158.419 213.856C158.611 212.632 157.747 211.816 156.883 210.928C156.043 210.064 155.179 209.104 155.419 207.64C155.707 205.792 157.147 204.496 158.995 204.496C159.787 204.496 160.459 204.808 161.011 205.288ZM167.691 205.288L167.403 207.208H167.355C166.995 206.56 166.371 205.96 165.507 205.96C164.571 205.96 163.851 206.68 163.707 207.592C163.515 208.768 164.427 209.488 165.267 210.304C166.155 211.144 166.995 212.056 166.731 213.664C166.419 215.632 164.859 217.192 162.819 217.192C162.051 217.192 161.235 216.832 160.707 216.352L160.995 214.528C161.499 215.152 162.051 215.728 162.987 215.728C164.067 215.728 164.931 214.888 165.099 213.856C165.291 212.632 164.427 211.816 163.563 210.928C162.723 210.064 161.859 209.104 162.099 207.64C162.387 205.792 163.827 204.496 165.675 204.496C166.467 204.496 167.139 204.808 167.691 205.288ZM171.322 204.688L171.154 205.72H171.202C171.874 205 172.81 204.496 173.746 204.496C174.754 204.496 175.522 205.024 175.786 205.96C176.578 205.048 177.442 204.496 178.57 204.496C180.874 204.496 180.754 206.32 180.466 208.144L179.074 217H177.514L178.906 208.192C179.098 207.016 179.17 205.768 177.898 205.768C176.05 205.768 175.666 207.856 175.426 209.416L174.226 217H172.666L174.058 208.216C174.25 207.064 174.37 205.768 173.098 205.768C171.202 205.768 170.794 208.12 170.53 209.68L169.378 217H167.818L169.762 204.688H171.322ZM183.625 209.848H187.201L187.225 209.632C187.345 208.456 187.705 205.96 186.073 205.96C184.585 205.96 183.793 208.744 183.625 209.848ZM188.569 211.168H183.385L183.337 211.528C183.145 212.752 182.881 215.728 184.585 215.728C185.953 215.728 186.457 213.808 186.625 212.824H188.233C187.897 214.696 186.793 217.192 184.513 217.192C181.273 217.192 181.441 213.352 181.825 210.88C182.185 208.672 183.337 204.496 186.313 204.496C189.193 204.496 189.049 208.264 188.689 210.424L188.569 211.168ZM192.955 204.688L192.811 205.672C193.555 204.952 194.467 204.496 195.427 204.496C197.611 204.496 197.467 206.512 197.203 208.192L195.811 217H194.251L195.619 208.36C195.859 206.896 195.931 205.768 194.635 205.768C192.859 205.768 192.475 207.712 192.283 209.008L191.011 217H189.451L191.395 204.688H192.955ZM204.174 204.688L203.958 206.128H201.918L200.19 217H198.63L200.358 206.128H199.038L199.254 204.688H200.574L201.102 201.328H202.662L202.134 204.688H204.174ZM213.822 210.64C214.254 207.976 214.398 205.768 212.862 205.768C211.134 205.768 210.606 208.504 210.27 210.592C209.478 215.68 210.27 215.92 211.182 215.92C212.694 215.92 213.198 214.504 213.822 210.64ZM216.174 204.688L214.23 217H212.67L212.814 216.04H212.766C212.214 216.736 211.446 217.192 210.558 217.192C208.59 217.192 207.798 216.088 208.638 210.712C209.094 207.952 209.742 204.496 212.718 204.496C213.582 204.496 214.062 204.856 214.446 205.528H214.494L214.614 204.688H216.174ZM219.885 204.688L219.741 205.672C220.485 204.952 221.397 204.496 222.357 204.496C224.541 204.496 224.397 206.512 224.133 208.192L222.741 217H221.181L222.549 208.36C222.789 206.896 222.861 205.768 221.565 205.768C219.789 205.768 219.405 207.712 219.213 209.008L217.941 217H216.381L218.325 204.688H219.885ZM230.72 210.64C231.176 207.832 231.2 205.768 229.76 205.768C228.008 205.768 227.456 208.84 227.168 210.592C227 211.744 226.088 215.92 228.08 215.92C229.736 215.92 230.216 213.88 230.72 210.64ZM229.568 217L229.712 216.04H229.664C229.112 216.736 228.344 217.192 227.456 217.192C224.888 217.192 225.008 214.072 225.536 210.712C226.088 207.352 226.88 204.496 229.616 204.496C230.48 204.496 230.96 204.856 231.344 205.528H231.392L232.616 197.8H234.176L231.128 217H229.568ZM241.655 215.92C243.095 215.92 243.623 214.504 244.223 210.712C244.535 208.816 244.991 205.768 243.191 205.768C241.535 205.768 241.055 208.312 240.719 210.496C240.335 212.872 239.951 215.92 241.655 215.92ZM241.775 204.688L241.655 205.528H241.703C242.279 204.856 242.903 204.496 243.791 204.496C246.647 204.496 246.239 208.216 245.831 210.712C245.399 213.496 244.751 217.192 241.895 217.192C241.007 217.192 240.383 216.736 240.023 216.04H239.975L239.087 221.704H237.527L240.215 204.688H241.775ZM250.143 204.688L249.879 206.32H249.927C250.407 205.456 251.247 204.472 252.279 204.496L251.967 206.32L251.679 206.296C250.071 206.296 249.639 207.856 249.327 209.824L248.199 217H246.639L248.583 204.688H250.143ZM256.58 204.496C259.82 204.496 259.46 208.528 259.1 210.832C258.716 213.16 257.804 217.192 254.564 217.192C251.324 217.192 251.66 213.16 252.044 210.832C252.404 208.528 253.34 204.496 256.58 204.496ZM256.34 205.96C254.468 205.96 253.82 209.656 253.652 210.832C253.46 212.032 252.908 215.728 254.78 215.728C256.652 215.728 257.3 212.032 257.492 210.832C257.66 209.656 258.212 205.96 256.34 205.96ZM268.231 204.688L263.551 217H261.871L261.007 204.688H262.591L262.951 212.392C262.999 213.16 262.999 213.928 263.047 214.696H263.143C263.359 213.928 263.599 213.136 263.839 212.392L266.623 204.688H268.231ZM271.049 204.688L269.105 217H267.545L269.489 204.688H271.049ZM272.009 201.04C271.913 201.688 271.313 202.216 270.689 202.216C270.041 202.216 269.585 201.688 269.681 201.04C269.777 200.416 270.401 199.888 271.049 199.888C271.673 199.888 272.105 200.416 272.009 201.04ZM277.079 210.64C277.535 207.832 277.559 205.768 276.119 205.768C274.367 205.768 273.815 208.84 273.527 210.592C273.359 211.744 272.447 215.92 274.439 215.92C276.095 215.92 276.575 213.88 277.079 210.64ZM275.927 217L276.071 216.04H276.023C275.471 216.736 274.703 217.192 273.815 217.192C271.247 217.192 271.367 214.072 271.895 210.712C272.447 207.352 273.239 204.496 275.975 204.496C276.839 204.496 277.319 204.856 277.703 205.528H277.751L278.975 197.8H280.535L277.487 217H275.927ZM283.166 204.688L281.222 217H279.662L281.606 204.688H283.166ZM284.126 201.04C284.03 201.688 283.43 202.216 282.806 202.216C282.158 202.216 281.702 201.688 281.798 201.04C281.894 200.416 282.518 199.888 283.166 199.888C283.79 199.888 284.222 200.416 284.126 201.04ZM286.893 204.688L286.749 205.672C287.493 204.952 288.405 204.496 289.365 204.496C291.549 204.496 291.405 206.512 291.141 208.192L289.749 217H288.189L289.557 208.36C289.797 206.896 289.869 205.768 288.573 205.768C286.797 205.768 286.413 207.712 286.221 209.008L284.949 217H283.389L285.333 204.688H286.893ZM294.104 211.048C293.888 212.392 293.336 215.728 295.304 215.728C296.96 215.728 297.416 213.304 297.848 210.616C298.208 208.36 298.472 205.768 296.768 205.768C295.64 205.768 294.824 206.536 294.104 211.048ZM300.2 204.688L298.184 217.456C297.824 219.76 297.392 221.896 294.272 221.896C292.112 221.896 291.296 220.6 291.632 218.488L291.704 218.032H293.24L293.216 218.248C293.024 219.4 293.168 220.432 294.512 220.432C296.264 220.432 296.36 218.896 296.576 217.576L296.816 216.136C296.192 216.736 295.496 217 294.68 217C291.608 217 292.232 212.752 292.568 210.568C292.904 208.504 293.792 204.496 296.648 204.496C297.488 204.496 298.112 204.88 298.472 205.528H298.52L298.64 204.688H300.2ZM44.7101 244.92C46.1501 244.92 46.6781 243.504 47.2781 239.712C47.5901 237.816 48.0461 234.768 46.2461 234.768C44.5901 234.768 44.1101 237.312 43.7741 239.496C43.3901 241.872 43.0061 244.92 44.7101 244.92ZM44.8301 233.688L44.7101 234.528H44.7581C45.3341 233.856 45.9581 233.496 46.8461 233.496C49.7021 233.496 49.2941 237.216 48.8861 239.712C48.4541 242.496 47.8061 246.192 44.9501 246.192C44.0621 246.192 43.4381 245.736 43.0781 245.04H43.0301L42.1421 250.704H40.5821L43.2701 233.688H44.8301ZM52.0933 238.848H55.6693L55.6933 238.632C55.8133 237.456 56.1733 234.96 54.5413 234.96C53.0533 234.96 52.2613 237.744 52.0933 238.848ZM57.0373 240.168H51.8533L51.8053 240.528C51.6133 241.752 51.3493 244.728 53.0533 244.728C54.4213 244.728 54.9253 242.808 55.0933 241.824H56.7013C56.3653 243.696 55.2613 246.192 52.9813 246.192C49.7413 246.192 49.9093 242.352 50.2933 239.88C50.6533 237.672 51.8053 233.496 54.7813 233.496C57.6613 233.496 57.5173 237.264 57.1573 239.424L57.0373 240.168ZM61.4238 233.688L61.1598 235.32H61.2078C61.6878 234.456 62.5278 233.472 63.5598 233.496L63.2478 235.32L62.9598 235.296C61.3518 235.296 60.9198 236.856 60.6078 238.824L59.4798 246H57.9198L59.8638 233.688H61.4238ZM69.3937 234.288L69.1057 236.208H69.0577C68.6977 235.56 68.0737 234.96 67.2097 234.96C66.2737 234.96 65.5537 235.68 65.4097 236.592C65.2177 237.768 66.1297 238.488 66.9697 239.304C67.8577 240.144 68.6977 241.056 68.4337 242.664C68.1217 244.632 66.5617 246.192 64.5217 246.192C63.7537 246.192 62.9377 245.832 62.4097 245.352L62.6977 243.528C63.2017 244.152 63.7537 244.728 64.6897 244.728C65.7697 244.728 66.6337 243.888 66.8017 242.856C66.9937 241.632 66.1297 240.816 65.2657 239.928C64.4257 239.064 63.5617 238.104 63.8017 236.64C64.0897 234.792 65.5297 233.496 67.3777 233.496C68.1697 233.496 68.8417 233.808 69.3937 234.288ZM74.6814 233.496C77.9214 233.496 77.5614 237.528 77.2014 239.832C76.8174 242.16 75.9054 246.192 72.6654 246.192C69.4254 246.192 69.7614 242.16 70.1454 239.832C70.5054 237.528 71.4414 233.496 74.6814 233.496ZM74.4414 234.96C72.5694 234.96 71.9214 238.656 71.7534 239.832C71.5614 241.032 71.0094 244.728 72.8814 244.728C74.7534 244.728 75.4014 241.032 75.5934 239.832C75.7614 238.656 76.3134 234.96 74.4414 234.96ZM81.5567 233.688L81.4127 234.672C82.1567 233.952 83.0687 233.496 84.0287 233.496C86.2127 233.496 86.0687 235.512 85.8047 237.192L84.4127 246H82.8527L84.2207 237.36C84.4607 235.896 84.5327 234.768 83.2367 234.768C81.4607 234.768 81.0767 236.712 80.8847 238.008L79.6127 246H78.0527L79.9967 233.688H81.5567ZM92.3919 239.64C92.8239 236.976 92.9679 234.768 91.4319 234.768C89.7039 234.768 89.1759 237.504 88.8399 239.592C88.0479 244.68 88.8399 244.92 89.7519 244.92C91.2639 244.92 91.7679 243.504 92.3919 239.64ZM94.7439 233.688L92.7999 246H91.2399L91.3839 245.04H91.3359C90.7839 245.736 90.0159 246.192 89.1279 246.192C87.1599 246.192 86.3679 245.088 87.2079 239.712C87.6639 236.952 88.3119 233.496 91.2879 233.496C92.1519 233.496 92.6319 233.856 93.0159 234.528H93.0639L93.1839 233.688H94.7439ZM99.5591 226.8L96.5111 246H94.9511L97.9991 226.8H99.5591ZM102.205 233.688L100.261 246H98.7011L100.645 233.688H102.205ZM103.165 230.04C103.069 230.688 102.469 231.216 101.845 231.216C101.197 231.216 100.741 230.688 100.837 230.04C100.933 229.416 101.557 228.888 102.205 228.888C102.829 228.888 103.261 229.416 103.165 230.04ZM108.356 244.56L108.116 246H101.708L108.308 235.128H104.108L104.324 233.688H110.876L104.18 244.56H108.356ZM112.773 238.848H116.349L116.373 238.632C116.493 237.456 116.853 234.96 115.221 234.96C113.733 234.96 112.941 237.744 112.773 238.848ZM117.717 240.168H112.533L112.485 240.528C112.293 241.752 112.029 244.728 113.733 244.728C115.101 244.728 115.605 242.808 115.773 241.824H117.381C117.045 243.696 115.941 246.192 113.661 246.192C110.421 246.192 110.589 242.352 110.973 239.88C111.333 237.672 112.485 233.496 115.461 233.496C118.341 233.496 118.197 237.264 117.837 239.424L117.717 240.168ZM124.408 239.64C124.864 236.832 124.888 234.768 123.448 234.768C121.696 234.768 121.144 237.84 120.856 239.592C120.688 240.744 119.776 244.92 121.768 244.92C123.424 244.92 123.904 242.88 124.408 239.64ZM123.256 246L123.4 245.04H123.352C122.8 245.736 122.032 246.192 121.144 246.192C118.576 246.192 118.696 243.072 119.224 239.712C119.776 236.352 120.568 233.496 123.304 233.496C124.168 233.496 124.648 233.856 125.032 234.528H125.08L126.304 226.8H127.864L124.816 246H123.256ZM138.511 234.288L138.223 236.208H138.175C137.815 235.56 137.191 234.96 136.327 234.96C135.391 234.96 134.671 235.68 134.527 236.592C134.335 237.768 135.247 238.488 136.087 239.304C136.975 240.144 137.815 241.056 137.551 242.664C137.239 244.632 135.679 246.192 133.639 246.192C132.871 246.192 132.055 245.832 131.527 245.352L131.815 243.528C132.319 244.152 132.871 244.728 133.807 244.728C134.887 244.728 135.751 243.888 135.919 242.856C136.111 241.632 135.247 240.816 134.383 239.928C133.543 239.064 132.679 238.104 132.919 236.64C133.207 234.792 134.647 233.496 136.495 233.496C137.287 233.496 137.959 233.808 138.511 234.288ZM144.831 233.688L144.615 235.128H142.575L140.847 246H139.287L141.015 235.128H139.695L139.911 233.688H141.231L141.759 230.328H143.319L142.791 233.688H144.831ZM145.526 233.688H147.086L145.862 241.416C145.598 243.096 145.43 244.728 146.966 244.728C148.55 244.728 148.886 243.096 149.174 241.416L150.398 233.688H151.958L150.542 242.736C150.206 244.8 148.982 246.192 146.774 246.192C144.59 246.192 143.774 244.824 144.11 242.736L145.526 233.688ZM157.876 239.64C158.332 236.832 158.356 234.768 156.916 234.768C155.164 234.768 154.612 237.84 154.324 239.592C154.156 240.744 153.244 244.92 155.236 244.92C156.892 244.92 157.372 242.88 157.876 239.64ZM156.724 246L156.868 245.04H156.82C156.268 245.736 155.5 246.192 154.612 246.192C152.044 246.192 152.164 243.072 152.692 239.712C153.244 236.352 154.036 233.496 156.772 233.496C157.636 233.496 158.116 233.856 158.5 234.528H158.548L159.772 226.8H161.332L158.284 246H156.724ZM169.075 233.688L162.139 250.704H160.507L162.523 245.664L161.491 233.688H163.075L163.579 243.624H163.651C164.035 242.568 164.395 241.512 164.803 240.456L167.443 233.688H169.075ZM176.78 244.92C178.22 244.92 178.748 243.504 179.348 239.712C179.66 237.816 180.116 234.768 178.316 234.768C176.66 234.768 176.18 237.312 175.844 239.496C175.46 241.872 175.076 244.92 176.78 244.92ZM176.9 233.688L176.78 234.528H176.828C177.404 233.856 178.028 233.496 178.916 233.496C181.772 233.496 181.364 237.216 180.956 239.712C180.524 242.496 179.876 246.192 177.02 246.192C176.132 246.192 175.508 245.736 175.148 245.04H175.1L174.212 250.704H172.652L175.34 233.688H176.9ZM186.372 226.8L183.324 246H181.764L184.812 226.8H186.372ZM191.298 239.64C191.73 236.976 191.874 234.768 190.338 234.768C188.61 234.768 188.082 237.504 187.746 239.592C186.954 244.68 187.746 244.92 188.658 244.92C190.17 244.92 190.674 243.504 191.298 239.64ZM193.65 233.688L191.706 246H190.146L190.29 245.04H190.242C189.69 245.736 188.922 246.192 188.034 246.192C186.066 246.192 185.274 245.088 186.114 239.712C186.57 236.952 187.218 233.496 190.194 233.496C191.058 233.496 191.538 233.856 191.922 234.528H191.97L192.09 233.688H193.65ZM197.361 233.688L197.217 234.672C197.961 233.952 198.873 233.496 199.833 233.496C202.017 233.496 201.873 235.512 201.609 237.192L200.217 246H198.657L200.025 237.36C200.265 235.896 200.337 234.768 199.041 234.768C197.265 234.768 196.881 236.712 196.689 238.008L195.417 246H193.857L195.801 233.688H197.361ZM208.941 234.288L208.653 236.208H208.605C208.245 235.56 207.621 234.96 206.757 234.96C205.821 234.96 205.101 235.68 204.957 236.592C204.765 237.768 205.677 238.488 206.517 239.304C207.405 240.144 208.245 241.056 207.981 242.664C207.669 244.632 206.109 246.192 204.069 246.192C203.301 246.192 202.485 245.832 201.957 245.352L202.245 243.528C202.749 244.152 203.301 244.728 204.237 244.728C205.317 244.728 206.181 243.888 206.349 242.856C206.541 241.632 205.677 240.816 204.813 239.928C203.973 239.064 203.109 238.104 203.349 236.64C203.637 234.792 205.077 233.496 206.925 233.496C207.717 233.496 208.389 233.808 208.941 234.288ZM212.26 244.512L208.996 249.864L207.94 249.312L210.676 243.744L212.26 244.512ZM225.166 233.976L224.878 235.776C224.566 235.368 224.134 234.96 223.534 234.96C221.518 234.96 220.774 238.464 220.534 239.88C220.342 241.104 220.03 244.728 221.878 244.728C222.598 244.728 223.15 244.176 223.606 243.624H223.654L223.342 245.568C222.814 245.952 222.07 246.192 221.47 246.192C218.638 246.192 218.566 242.208 218.902 240.096C219.262 237.768 220.438 233.496 223.558 233.496C224.134 233.496 224.71 233.664 225.166 233.976ZM230.166 233.496C233.406 233.496 233.046 237.528 232.686 239.832C232.302 242.16 231.39 246.192 228.15 246.192C224.91 246.192 225.246 242.16 225.63 239.832C225.99 237.528 226.926 233.496 230.166 233.496ZM229.926 234.96C228.054 234.96 227.406 238.656 227.238 239.832C227.046 241.032 226.494 244.728 228.366 244.728C230.238 244.728 230.886 241.032 231.078 239.832C231.246 238.656 231.798 234.96 229.926 234.96ZM237.041 233.688L236.873 234.72H236.921C237.593 234 238.529 233.496 239.465 233.496C240.473 233.496 241.241 234.024 241.505 234.96C242.297 234.048 243.161 233.496 244.289 233.496C246.593 233.496 246.473 235.32 246.185 237.144L244.793 246H243.233L244.625 237.192C244.817 236.016 244.889 234.768 243.617 234.768C241.769 234.768 241.385 236.856 241.145 238.416L239.945 246H238.385L239.777 237.216C239.969 236.064 240.089 234.768 238.817 234.768C236.921 234.768 236.513 237.12 236.249 238.68L235.097 246H233.537L235.481 233.688H237.041ZM250.327 244.92C251.767 244.92 252.295 243.504 252.895 239.712C253.207 237.816 253.663 234.768 251.863 234.768C250.207 234.768 249.727 237.312 249.391 239.496C249.007 241.872 248.623 244.92 250.327 244.92ZM250.447 233.688L250.327 234.528H250.375C250.951 233.856 251.575 233.496 252.463 233.496C255.319 233.496 254.911 237.216 254.503 239.712C254.071 242.496 253.423 246.192 250.567 246.192C249.679 246.192 249.055 245.736 248.695 245.04H248.647L247.759 250.704H246.199L248.887 233.688H250.447ZM258.814 233.688L258.55 235.32H258.598C259.078 234.456 259.918 233.472 260.95 233.496L260.638 235.32L260.35 235.296C258.742 235.296 258.31 236.856 257.998 238.824L256.87 246H255.31L257.254 233.688H258.814ZM262.492 238.848H266.068L266.092 238.632C266.212 237.456 266.572 234.96 264.94 234.96C263.452 234.96 262.66 237.744 262.492 238.848ZM267.436 240.168H262.252L262.204 240.528C262.012 241.752 261.748 244.728 263.452 244.728C264.82 244.728 265.324 242.808 265.492 241.824H267.1C266.764 243.696 265.66 246.192 263.38 246.192C260.14 246.192 260.308 242.352 260.692 239.88C261.052 237.672 262.204 233.496 265.18 233.496C268.06 233.496 267.916 237.264 267.556 239.424L267.436 240.168ZM272.926 226.8L271.678 234.672C272.422 233.952 273.334 233.496 274.294 233.496C276.55 233.496 276.358 235.464 276.07 237.192L274.678 246H273.118L274.462 237.456C274.774 235.536 274.678 234.768 273.502 234.768C271.726 234.768 271.342 236.712 271.15 238.008L269.878 246H268.318L271.366 226.8H272.926ZM279.25 238.848H282.826L282.85 238.632C282.97 237.456 283.33 234.96 281.698 234.96C280.21 234.96 279.418 237.744 279.25 238.848ZM284.194 240.168H279.01L278.962 240.528C278.77 241.752 278.506 244.728 280.21 244.728C281.578 244.728 282.082 242.808 282.25 241.824H283.858C283.522 243.696 282.418 246.192 280.138 246.192C276.898 246.192 277.066 242.352 277.45 239.88C277.81 237.672 278.962 233.496 281.938 233.496C284.818 233.496 284.674 237.264 284.314 239.424L284.194 240.168ZM288.58 233.688L288.436 234.672C289.18 233.952 290.092 233.496 291.052 233.496C293.236 233.496 293.092 235.512 292.828 237.192L291.436 246H289.876L291.244 237.36C291.484 235.896 291.556 234.768 290.26 234.768C288.484 234.768 288.1 236.712 287.908 238.008L286.636 246H285.076L287.02 233.688H288.58ZM300.159 234.288L299.871 236.208H299.823C299.463 235.56 298.839 234.96 297.975 234.96C297.039 234.96 296.319 235.68 296.175 236.592C295.983 237.768 296.895 238.488 297.735 239.304C298.623 240.144 299.463 241.056 299.199 242.664C298.887 244.632 297.327 246.192 295.287 246.192C294.519 246.192 293.703 245.832 293.175 245.352L293.463 243.528C293.967 244.152 294.519 244.728 295.455 244.728C296.535 244.728 297.399 243.888 297.567 242.856C297.759 241.632 296.895 240.816 296.031 239.928C295.191 239.064 294.327 238.104 294.567 236.64C294.855 234.792 296.295 233.496 298.143 233.496C298.935 233.496 299.607 233.808 300.159 234.288ZM303.791 233.688L301.847 246H300.287L302.231 233.688H303.791ZM304.751 230.04C304.655 230.688 304.055 231.216 303.431 231.216C302.783 231.216 302.327 230.688 302.423 230.04C302.519 229.416 303.143 228.888 303.791 228.888C304.415 228.888 304.847 229.416 304.751 230.04ZM312.294 233.688L307.614 246H305.934L305.07 233.688H306.654L307.014 241.392C307.062 242.16 307.062 242.928 307.11 243.696H307.206C307.422 242.928 307.662 242.136 307.902 241.392L310.686 233.688H312.294ZM314.007 238.848H317.583L317.607 238.632C317.727 237.456 318.087 234.96 316.455 234.96C314.967 234.96 314.175 237.744 314.007 238.848ZM318.951 240.168H313.767L313.719 240.528C313.527 241.752 313.263 244.728 314.967 244.728C316.335 244.728 316.839 242.808 317.007 241.824H318.615C318.279 243.696 317.175 246.192 314.895 246.192C311.655 246.192 311.823 242.352 312.207 239.88C312.567 237.672 313.719 233.496 316.695 233.496C319.575 233.496 319.431 237.264 319.071 239.424L318.951 240.168ZM62.339 263.288L62.051 265.208H62.003C61.643 264.56 61.019 263.96 60.155 263.96C59.219 263.96 58.499 264.68 58.355 265.592C58.163 266.768 59.075 267.488 59.915 268.304C60.803 269.144 61.643 270.056 61.379 271.664C61.067 273.632 59.507 275.192 57.467 275.192C56.699 275.192 55.883 274.832 55.355 274.352L55.643 272.528C56.147 273.152 56.699 273.728 57.635 273.728C58.715 273.728 59.579 272.888 59.747 271.856C59.939 270.632 59.075 269.816 58.211 268.928C57.371 268.064 56.507 267.104 56.747 265.64C57.035 263.792 58.475 262.496 60.323 262.496C61.115 262.496 61.787 262.808 62.339 263.288ZM68.6587 262.688L68.4427 264.128H66.4027L64.6747 275H63.1147L64.8427 264.128H63.5227L63.7387 262.688H65.0587L65.5867 259.328H67.1467L66.6187 262.688H68.6587ZM69.3538 262.688H70.9138L69.6898 270.416C69.4258 272.096 69.2578 273.728 70.7938 273.728C72.3778 273.728 72.7138 272.096 73.0018 270.416L74.2258 262.688H75.7858L74.3698 271.736C74.0338 273.8 72.8098 275.192 70.6018 275.192C68.4178 275.192 67.6018 273.824 67.9378 271.736L69.3538 262.688ZM81.7044 268.64C82.1604 265.832 82.1844 263.768 80.7444 263.768C78.9924 263.768 78.4404 266.84 78.1524 268.592C77.9844 269.744 77.0724 273.92 79.0644 273.92C80.7204 273.92 81.2004 271.88 81.7044 268.64ZM80.5524 275L80.6964 274.04H80.6484C80.0964 274.736 79.3284 275.192 78.4404 275.192C75.8724 275.192 75.9924 272.072 76.5204 268.712C77.0724 265.352 77.8644 262.496 80.6004 262.496C81.4644 262.496 81.9444 262.856 82.3284 263.528H82.3764L83.6004 255.8H85.1604L82.1124 275H80.5524ZM92.9036 262.688L85.9676 279.704H84.3356L86.3516 274.664L85.3196 262.688H86.9036L87.4076 272.624H87.4796C87.8636 271.568 88.2236 270.512 88.6316 269.456L91.2716 262.688H92.9036ZM100.729 262.688L100.561 263.72H100.609C101.281 263 102.217 262.496 103.153 262.496C104.161 262.496 104.929 263.024 105.193 263.96C105.985 263.048 106.849 262.496 107.977 262.496C110.281 262.496 110.161 264.32 109.873 266.144L108.481 275H106.921L108.313 266.192C108.505 265.016 108.577 263.768 107.305 263.768C105.457 263.768 105.073 265.856 104.833 267.416L103.633 275H102.073L103.465 266.216C103.657 265.064 103.777 263.768 102.505 263.768C100.609 263.768 100.201 266.12 99.9365 267.68L98.7845 275H97.2245L99.1685 262.688H100.729ZM116.439 268.64C116.871 265.976 117.015 263.768 115.479 263.768C113.751 263.768 113.223 266.504 112.887 268.592C112.095 273.68 112.887 273.92 113.799 273.92C115.311 273.92 115.815 272.504 116.439 268.64ZM118.791 262.688L116.847 275H115.287L115.431 274.04H115.383C114.831 274.736 114.063 275.192 113.175 275.192C111.207 275.192 110.415 274.088 111.255 268.712C111.711 265.952 112.359 262.496 115.335 262.496C116.199 262.496 116.679 262.856 117.063 263.528H117.111L117.231 262.688H118.791ZM125.19 262.688L124.974 264.128H122.934L121.206 275H119.646L121.374 264.128H120.054L120.27 262.688H121.59L122.118 259.328H123.678L123.15 262.688H125.19ZM126.437 267.848H130.013L130.037 267.632C130.157 266.456 130.517 263.96 128.885 263.96C127.397 263.96 126.605 266.744 126.437 267.848ZM131.381 269.168H126.197L126.149 269.528C125.957 270.752 125.693 273.728 127.397 273.728C128.765 273.728 129.269 271.808 129.437 270.824H131.045C130.709 272.696 129.605 275.192 127.325 275.192C124.085 275.192 124.253 271.352 124.637 268.88C124.997 266.672 126.149 262.496 129.125 262.496C132.005 262.496 131.861 266.264 131.501 268.424L131.381 269.168ZM135.768 262.688L135.504 264.32H135.552C136.032 263.456 136.872 262.472 137.904 262.496L137.592 264.32L137.304 264.296C135.696 264.296 135.264 265.856 134.952 267.824L133.824 275H132.264L134.208 262.688H135.768ZM140.689 262.688L138.745 275H137.185L139.129 262.688H140.689ZM141.649 259.04C141.553 259.688 140.953 260.216 140.329 260.216C139.681 260.216 139.225 259.688 139.321 259.04C139.417 258.416 140.041 257.888 140.689 257.888C141.313 257.888 141.745 258.416 141.649 259.04ZM146.72 268.64C147.152 265.976 147.296 263.768 145.76 263.768C144.032 263.768 143.504 266.504 143.168 268.592C142.376 273.68 143.168 273.92 144.08 273.92C145.592 273.92 146.096 272.504 146.72 268.64ZM149.072 262.688L147.128 275H145.568L145.712 274.04H145.664C145.112 274.736 144.344 275.192 143.456 275.192C141.488 275.192 140.696 274.088 141.536 268.712C141.992 265.952 142.64 262.496 145.616 262.496C146.48 262.496 146.96 262.856 147.344 263.528H147.392L147.512 262.688H149.072ZM153.887 255.8L150.839 275H149.279L152.327 255.8H153.887ZM159.558 263.288L159.27 265.208H159.222C158.862 264.56 158.238 263.96 157.374 263.96C156.438 263.96 155.718 264.68 155.574 265.592C155.382 266.768 156.294 267.488 157.134 268.304C158.022 269.144 158.862 270.056 158.598 271.664C158.286 273.632 156.726 275.192 154.686 275.192C153.918 275.192 153.102 274.832 152.574 274.352L152.862 272.528C153.366 273.152 153.918 273.728 154.854 273.728C155.934 273.728 156.798 272.888 156.966 271.856C157.158 270.632 156.294 269.816 155.43 268.928C154.59 268.064 153.726 267.104 153.966 265.64C154.254 263.792 155.694 262.496 157.542 262.496C158.334 262.496 159.006 262.808 159.558 263.288ZM162.877 273.512L159.613 278.864L158.557 278.312L161.293 272.744L162.877 273.512ZM174.751 268.64C175.183 265.976 175.327 263.768 173.791 263.768C172.063 263.768 171.535 266.504 171.199 268.592C170.407 273.68 171.199 273.92 172.111 273.92C173.623 273.92 174.127 272.504 174.751 268.64ZM177.103 262.688L175.159 275H173.599L173.743 274.04H173.695C173.143 274.736 172.375 275.192 171.487 275.192C169.519 275.192 168.727 274.088 169.567 268.712C170.023 265.952 170.671 262.496 173.647 262.496C174.511 262.496 174.991 262.856 175.375 263.528H175.423L175.543 262.688H177.103ZM180.814 262.688L180.67 263.672C181.414 262.952 182.326 262.496 183.286 262.496C185.47 262.496 185.326 264.512 185.062 266.192L183.67 275H182.11L183.478 266.36C183.718 264.896 183.79 263.768 182.494 263.768C180.718 263.768 180.334 265.712 180.142 267.008L178.87 275H177.31L179.254 262.688H180.814ZM191.65 268.64C192.106 265.832 192.13 263.768 190.69 263.768C188.938 263.768 188.386 266.84 188.098 268.592C187.93 269.744 187.018 273.92 189.01 273.92C190.666 273.92 191.146 271.88 191.65 268.64ZM190.498 275L190.642 274.04H190.594C190.042 274.736 189.274 275.192 188.386 275.192C185.818 275.192 185.938 272.072 186.466 268.712C187.018 265.352 187.81 262.496 190.546 262.496C191.41 262.496 191.89 262.856 192.274 263.528H192.322L193.546 255.8H195.106L192.058 275H190.498ZM202.585 273.92C204.025 273.92 204.553 272.504 205.153 268.712C205.465 266.816 205.921 263.768 204.121 263.768C202.465 263.768 201.985 266.312 201.649 268.496C201.265 270.872 200.881 273.92 202.585 273.92ZM202.705 262.688L202.585 263.528H202.633C203.209 262.856 203.833 262.496 204.721 262.496C207.577 262.496 207.169 266.216 206.761 268.712C206.329 271.496 205.681 275.192 202.825 275.192C201.937 275.192 201.313 274.736 200.953 274.04H200.905L200.017 279.704H198.457L201.145 262.688H202.705ZM211.072 262.688L210.808 264.32H210.856C211.336 263.456 212.176 262.472 213.208 262.496L212.896 264.32L212.608 264.296C211 264.296 210.568 265.856 210.256 267.824L209.128 275H207.568L209.512 262.688H211.072ZM218.158 268.64C218.59 265.976 218.734 263.768 217.198 263.768C215.47 263.768 214.942 266.504 214.606 268.592C213.814 273.68 214.606 273.92 215.518 273.92C217.03 273.92 217.534 272.504 218.158 268.64ZM220.51 262.688L218.566 275H217.006L217.15 274.04H217.102C216.55 274.736 215.782 275.192 214.894 275.192C212.926 275.192 212.134 274.088 212.974 268.712C213.43 265.952 214.078 262.496 217.054 262.496C217.918 262.496 218.398 262.856 218.782 263.528H218.83L218.95 262.688H220.51ZM227.557 262.976L227.269 264.776C226.957 264.368 226.525 263.96 225.925 263.96C223.909 263.96 223.165 267.464 222.925 268.88C222.733 270.104 222.421 273.728 224.269 273.728C224.989 273.728 225.541 273.176 225.997 272.624H226.045L225.733 274.568C225.205 274.952 224.461 275.192 223.861 275.192C221.029 275.192 220.957 271.208 221.293 269.096C221.653 266.768 222.829 262.496 225.949 262.496C226.525 262.496 227.101 262.664 227.557 262.976ZM233.588 262.688L233.372 264.128H231.332L229.604 275H228.044L229.772 264.128H228.452L228.668 262.688H229.988L230.516 259.328H232.076L231.548 262.688H233.588ZM235.963 262.688L234.019 275H232.459L234.403 262.688H235.963ZM236.923 259.04C236.827 259.688 236.227 260.216 235.603 260.216C234.955 260.216 234.499 259.688 234.595 259.04C234.691 258.416 235.315 257.888 235.963 257.888C236.587 257.888 237.019 258.416 236.923 259.04ZM243.025 262.976L242.737 264.776C242.425 264.368 241.993 263.96 241.393 263.96C239.377 263.96 238.633 267.464 238.393 268.88C238.201 270.104 237.889 273.728 239.737 273.728C240.457 273.728 241.009 273.176 241.465 272.624H241.513L241.201 274.568C240.673 274.952 239.929 275.192 239.329 275.192C236.497 275.192 236.425 271.208 236.761 269.096C237.121 266.768 238.297 262.496 241.417 262.496C241.993 262.496 242.569 262.664 243.025 262.976ZM245.265 267.848H248.841L248.865 267.632C248.985 266.456 249.345 263.96 247.713 263.96C246.225 263.96 245.433 266.744 245.265 267.848ZM250.209 269.168H245.025L244.977 269.528C244.785 270.752 244.521 273.728 246.225 273.728C247.593 273.728 248.097 271.808 248.265 270.824H249.873C249.537 272.696 248.433 275.192 246.153 275.192C242.913 275.192 243.081 271.352 243.465 268.88C243.825 266.672 244.977 262.496 247.953 262.496C250.833 262.496 250.689 266.264 250.329 268.424L250.209 269.168ZM258.203 267.848H261.779L261.803 267.632C261.923 266.456 262.283 263.96 260.651 263.96C259.163 263.96 258.371 266.744 258.203 267.848ZM263.147 269.168H257.963L257.915 269.528C257.723 270.752 257.459 273.728 259.163 273.728C260.531 273.728 261.035 271.808 261.203 270.824H262.811C262.475 272.696 261.371 275.192 259.091 275.192C255.851 275.192 256.019 271.352 256.403 268.88C256.763 266.672 257.915 262.496 260.891 262.496C263.771 262.496 263.627 266.264 263.267 268.424L263.147 269.168ZM272.433 262.688L268.713 268.712L270.489 275H268.761L267.993 271.76C267.849 271.088 267.681 270.416 267.681 269.696H267.585C267.369 270.416 267.033 271.112 266.649 271.784L264.921 275H263.169L266.985 268.712L265.401 262.688H267.129L267.705 265.424C267.873 266.24 267.993 267.056 268.041 267.92H268.137C268.473 267.056 268.785 266.192 269.265 265.352L270.705 262.688H272.433ZM277.736 268.64C278.168 265.976 278.312 263.768 276.776 263.768C275.048 263.768 274.52 266.504 274.184 268.592C273.392 273.68 274.184 273.92 275.096 273.92C276.608 273.92 277.112 272.504 277.736 268.64ZM280.088 262.688L278.144 275H276.584L276.728 274.04H276.68C276.128 274.736 275.36 275.192 274.472 275.192C272.504 275.192 271.712 274.088 272.552 268.712C273.008 265.952 273.656 262.496 276.632 262.496C277.496 262.496 277.976 262.856 278.36 263.528H278.408L278.528 262.688H280.088ZM283.799 262.688L283.631 263.72H283.679C284.351 263 285.287 262.496 286.223 262.496C287.231 262.496 287.999 263.024 288.263 263.96C289.055 263.048 289.919 262.496 291.047 262.496C293.351 262.496 293.231 264.32 292.943 266.144L291.551 275H289.991L291.383 266.192C291.575 265.016 291.647 263.768 290.375 263.768C288.527 263.768 288.143 265.856 287.903 267.416L286.703 275H285.143L286.535 266.216C286.727 265.064 286.847 263.768 285.575 263.768C283.679 263.768 283.271 266.12 283.007 267.68L281.855 275H280.295L282.239 262.688H283.799ZM300.253 263.288L299.965 265.208H299.917C299.557 264.56 298.933 263.96 298.069 263.96C297.133 263.96 296.413 264.68 296.269 265.592C296.077 266.768 296.989 267.488 297.829 268.304C298.717 269.144 299.557 270.056 299.293 271.664C298.981 273.632 297.421 275.192 295.381 275.192C294.613 275.192 293.797 274.832 293.269 274.352L293.557 272.528C294.061 273.152 294.613 273.728 295.549 273.728C296.629 273.728 297.493 272.888 297.661 271.856C297.853 270.632 296.989 269.816 296.125 268.928C295.285 268.064 294.421 267.104 294.661 265.64C294.949 263.792 296.389 262.496 298.237 262.496C299.029 262.496 299.701 262.808 300.253 263.288ZM302.157 272.744C302.829 272.744 303.285 273.296 303.189 273.968C303.069 274.64 302.445 275.192 301.773 275.192C301.101 275.192 300.621 274.64 300.741 273.968C300.837 273.296 301.485 272.744 302.157 272.744Z" fill="white"/>
</svg>
