<svg width="25" height="25" viewBox="0 0 25 25" fill="none" xmlns="http://www.w3.org/2000/svg">
<path d="M12.4732 1.53213e-05C19.4286 0.0107342 25.0161 5.6042 25 12.5375C24.9839 19.4423 19.3357 25.0197 12.3839 24.9982C5.56071 24.9786 0 19.3655 0 12.5C0 5.6042 5.60179 -0.0107036 12.4732 1.53213e-05ZM10.0464 10.3991C10.5304 10.0168 10.8107 9.83995 11.0357 9.60949C11.7768 8.85381 11.7821 8.50545 11.0554 7.72833C10.6304 7.27277 10.175 6.84581 9.72857 6.40991C9.18214 5.87217 8.64107 5.91684 8.08393 6.40991C6.57322 7.74798 6.2625 9.23612 7.19464 11.044C8.20893 13.0092 9.73036 14.5688 11.4661 15.88C12.5393 16.6911 13.7589 17.3342 14.9732 17.9291C15.8464 18.3579 16.7589 18.2203 17.5696 17.5968C19.1786 16.3606 19.2196 15.9068 17.8036 14.4705C16.7619 13.4141 15.7196 13.4052 14.6768 14.4437C14.6393 14.4812 14.5732 14.4866 14.3018 14.5938C12.9875 13.2986 11.6054 11.9373 10.0429 10.3991H10.0464Z" fill="#C6E8FF"/>
</svg>
