<svg width="1087" height="423" viewBox="0 0 1087 423" fill="none" xmlns="http://www.w3.org/2000/svg">
<g filter="url(#filter0_d_2055_338)">
<path d="M16 13H985C1029.18 13 1065 48.8172 1065 93V318C1065 362.183 1029.18 398 985 398H96C51.8172 398 16 362.183 16 318V13Z" fill="white" fill-opacity="0.05" shape-rendering="crispEdges"/>
</g>
<path d="M265.016 110.904L268.04 123.864L275.264 110.52L278.264 123.864L285.368 110.904H287.816L277.328 129.72L274.328 116.448L267.104 129.72L262.568 110.904H265.016ZM295.419 123.744H286.851C286.563 125.664 287.571 127.464 289.635 127.464C291.291 127.464 292.323 126.624 293.355 125.28L295.011 126.312C293.643 128.256 291.483 129.384 289.299 129.384C285.867 129.384 284.211 126.792 284.715 123.48C285.267 120.024 287.523 117.432 291.147 117.432C294.723 117.432 295.995 120.072 295.467 123.408L295.419 123.744ZM287.211 122.112H293.499C293.523 120.432 292.587 119.304 290.859 119.304C289.179 119.304 287.739 120.504 287.211 122.112ZM313.331 118.176L312.899 120.96C312.203 119.976 311.219 119.448 309.923 119.448C307.811 119.448 305.891 121.32 305.555 123.384C305.195 125.688 306.539 127.368 308.819 127.368C310.067 127.368 311.171 126.792 312.131 125.88L311.675 128.64C310.619 129.168 309.587 129.384 308.459 129.384C305.147 129.384 302.843 126.84 303.371 123.48C303.923 120 307.019 117.432 310.475 117.432C311.483 117.432 312.563 117.672 313.331 118.176ZM320.499 117.432C323.859 117.432 326.091 120.024 325.563 123.408C325.035 126.792 321.963 129.384 318.603 129.384C315.243 129.384 313.035 126.792 313.563 123.408C314.091 120.024 317.139 117.432 320.499 117.432ZM320.187 119.496C318.051 119.496 316.059 121.272 315.723 123.408C315.387 125.52 316.803 127.32 318.939 127.32C321.075 127.32 323.067 125.52 323.403 123.408C323.739 121.272 322.323 119.496 320.187 119.496ZM330.58 117.768L330.34 119.28H330.388C331.252 118.08 332.692 117.432 334.06 117.432C337.228 117.432 337.708 119.568 337.276 122.304L336.22 129H334.06L335.068 122.568C335.38 120.648 335.332 119.352 333.124 119.352C330.34 119.352 329.956 121.8 329.62 123.84L328.804 129H326.644L328.42 117.768H330.58ZM343.143 117.768L342.903 119.28H342.951C343.815 118.08 345.255 117.432 346.623 117.432C349.791 117.432 350.271 119.568 349.839 122.304L348.783 129H346.623L347.631 122.568C347.943 120.648 347.895 119.352 345.687 119.352C342.903 119.352 342.519 121.8 342.183 123.84L341.367 129H339.207L340.983 117.768H343.143ZM362.473 123.744H353.905C353.617 125.664 354.625 127.464 356.689 127.464C358.345 127.464 359.377 126.624 360.409 125.28L362.065 126.312C360.697 128.256 358.537 129.384 356.353 129.384C352.921 129.384 351.265 126.792 351.769 123.48C352.321 120.024 354.577 117.432 358.201 117.432C361.777 117.432 363.049 120.072 362.521 123.408L362.473 123.744ZM354.265 122.112H360.553C360.577 120.432 359.641 119.304 357.913 119.304C356.233 119.304 354.793 120.504 354.265 122.112ZM373.448 118.176L373.016 120.96C372.32 119.976 371.336 119.448 370.04 119.448C367.928 119.448 366.008 121.32 365.672 123.384C365.312 125.688 366.656 127.368 368.936 127.368C370.184 127.368 371.288 126.792 372.248 125.88L371.792 128.64C370.736 129.168 369.704 129.384 368.576 129.384C365.264 129.384 362.96 126.84 363.488 123.48C364.04 120 367.136 117.432 370.592 117.432C371.6 117.432 372.68 117.672 373.448 118.176ZM378.018 119.784L376.554 129H374.394L375.858 119.784H374.682L374.994 117.768H376.17L376.842 113.472H379.002L378.33 117.768H380.442L380.13 119.784H378.018ZM389.964 127.08L386.292 117.768H388.812L391.476 124.896L396.132 117.768H398.556L386.676 135.432H384.228L389.964 127.08ZM404.757 117.432C408.117 117.432 410.349 120.024 409.821 123.408C409.293 126.792 406.221 129.384 402.861 129.384C399.501 129.384 397.293 126.792 397.821 123.408C398.349 120.024 401.397 117.432 404.757 117.432ZM404.445 119.496C402.309 119.496 400.317 121.272 399.981 123.408C399.645 125.52 401.061 127.32 403.197 127.32C405.333 127.32 407.325 125.52 407.661 123.408C407.997 121.272 406.581 119.496 404.445 119.496ZM412.582 117.768H414.742L413.758 123.984C413.47 125.784 413.686 127.368 415.822 127.368C417.958 127.368 418.654 125.784 418.942 123.984L419.926 117.768H422.086L421.078 124.224C420.574 127.296 418.798 129.384 415.486 129.384C412.174 129.384 411.07 127.296 411.574 124.224L412.582 117.768ZM432.473 117.768L434.609 124.92L439.145 117.144L441.209 124.92L445.601 117.768H448.049L440.489 129.384L438.401 121.872L433.889 129.384L430.025 117.768H432.473ZM451.763 117.768L449.987 129H447.827L449.603 117.768H451.763ZM451.739 111.12C452.555 111.12 453.131 111.792 452.987 112.632C452.867 113.448 452.075 114.096 451.259 114.096C450.443 114.096 449.891 113.448 450.011 112.632C450.155 111.792 450.923 111.12 451.739 111.12ZM457.377 119.784L455.913 129H453.753L455.217 119.784H454.041L454.353 117.768H455.529L456.201 113.472H458.361L457.689 117.768H459.801L459.489 119.784H457.377ZM462.518 108.168H464.678L462.926 119.28H462.974C463.838 118.08 465.278 117.432 466.646 117.432C469.814 117.432 470.294 119.568 469.862 122.304L468.806 129H466.646L467.654 122.568C467.966 120.648 467.918 119.352 465.71 119.352C462.926 119.352 462.542 121.8 462.206 123.84L461.39 129H459.23L462.518 108.168ZM484.394 127.464C486.746 127.464 488.33 125.592 488.69 123.384C489.026 121.2 488.018 119.352 485.69 119.352C483.458 119.352 481.826 121.296 481.49 123.384C481.154 125.496 482.114 127.464 484.394 127.464ZM482.498 117.768L482.21 119.64H482.258C483.362 118.296 484.826 117.432 486.506 117.432C489.746 117.432 491.354 120.24 490.874 123.312C490.346 126.528 487.97 129.384 484.514 129.384C482.93 129.384 481.706 128.52 481.058 127.248H481.01L479.714 135.432H477.554L480.338 117.768H482.498ZM497.61 108.168L494.322 129H492.162L495.45 108.168H497.61ZM502.474 127.464C504.826 127.464 506.41 125.592 506.77 123.384C507.106 121.2 506.098 119.352 503.77 119.352C501.538 119.352 499.906 121.296 499.57 123.384C499.234 125.496 500.194 127.464 502.474 127.464ZM509.698 117.768L507.922 129H505.762L506.05 127.248H506.002C504.922 128.52 503.434 129.384 501.826 129.384C498.394 129.384 496.906 126.528 497.434 123.312C497.914 120.24 500.386 117.432 503.65 117.432C505.306 117.432 506.53 118.296 507.202 119.64H507.25L507.538 117.768H509.698ZM520.682 118.176L520.25 120.96C519.554 119.976 518.57 119.448 517.274 119.448C515.162 119.448 513.242 121.32 512.906 123.384C512.546 125.688 513.89 127.368 516.17 127.368C517.418 127.368 518.522 126.792 519.482 125.88L519.026 128.64C517.97 129.168 516.938 129.384 515.81 129.384C512.498 129.384 510.194 126.84 510.722 123.48C511.274 120 514.37 117.432 517.826 117.432C518.834 117.432 519.914 117.672 520.682 118.176ZM531.739 123.744H523.171C522.883 125.664 523.891 127.464 525.955 127.464C527.611 127.464 528.643 126.624 529.675 125.28L531.331 126.312C529.963 128.256 527.803 129.384 525.619 129.384C522.187 129.384 520.531 126.792 521.035 123.48C521.587 120.024 523.843 117.432 527.467 117.432C531.043 117.432 532.315 120.072 531.787 123.408L531.739 123.744ZM523.531 122.112H529.819C529.843 120.432 528.907 119.304 527.179 119.304C525.499 119.304 524.059 120.504 523.531 122.112ZM536.618 117.768L536.402 119.184H536.45C537.218 118.2 538.466 117.432 539.69 117.432C541.154 117.432 542.09 118.176 542.618 119.424C543.506 118.224 544.97 117.432 546.386 117.432C549.338 117.432 549.746 119.736 549.338 122.28L548.282 129H546.122L547.13 122.64C547.346 121.2 547.466 119.352 545.57 119.352C543.266 119.352 542.714 121.752 542.426 123.48L541.562 129H539.402L540.338 123.048C540.578 121.584 540.866 119.352 538.874 119.352C536.57 119.352 535.994 121.728 535.706 123.48L534.842 129H532.682L534.458 117.768H536.618ZM561.856 123.744H553.288C553 125.664 554.008 127.464 556.072 127.464C557.728 127.464 558.76 126.624 559.792 125.28L561.448 126.312C560.08 128.256 557.92 129.384 555.736 129.384C552.304 129.384 550.648 126.792 551.152 123.48C551.704 120.024 553.96 117.432 557.584 117.432C561.16 117.432 562.432 120.072 561.904 123.408L561.856 123.744ZM553.648 122.112H559.936C559.96 120.432 559.024 119.304 557.296 119.304C555.616 119.304 554.176 120.504 553.648 122.112ZM566.807 117.768L566.567 119.28H566.615C567.479 118.08 568.919 117.432 570.287 117.432C573.455 117.432 573.935 119.568 573.503 122.304L572.447 129H570.287L571.295 122.568C571.607 120.648 571.559 119.352 569.351 119.352C566.567 119.352 566.183 121.8 565.847 123.84L565.031 129H562.871L564.647 117.768H566.807ZM579.369 119.784L577.905 129H575.745L577.209 119.784H576.033L576.345 117.768H577.521L578.193 113.472H580.353L579.681 117.768H581.793L581.481 119.784H579.369ZM592.552 117.768L590.776 129H588.616L590.392 117.768H592.552ZM592.528 111.12C593.344 111.12 593.92 111.792 593.776 112.632C593.656 113.448 592.864 114.096 592.048 114.096C591.232 114.096 590.68 113.448 590.8 112.632C590.944 111.792 591.712 111.12 592.528 111.12ZM598.166 117.768L597.926 119.28H597.974C598.838 118.08 600.278 117.432 601.646 117.432C604.814 117.432 605.294 119.568 604.862 122.304L603.806 129H601.646L602.654 122.568C602.966 120.648 602.918 119.352 600.71 119.352C597.926 119.352 597.542 121.8 597.206 123.84L596.39 129H594.23L596.006 117.768H598.166ZM618.818 127.464C621.17 127.464 622.754 125.592 623.114 123.384C623.45 121.2 622.442 119.352 620.114 119.352C617.882 119.352 616.25 121.296 615.914 123.384C615.578 125.496 616.538 127.464 618.818 127.464ZM626.042 117.768L624.266 129H622.106L622.394 127.248H622.346C621.266 128.52 619.778 129.384 618.17 129.384C614.738 129.384 613.25 126.528 613.778 123.312C614.258 120.24 616.73 117.432 619.994 117.432C621.65 117.432 622.874 118.296 623.546 119.64H623.594L623.882 117.768H626.042ZM637.292 108.168H639.452L637.7 119.28H637.748C638.612 118.08 640.052 117.432 641.42 117.432C644.588 117.432 645.068 119.568 644.636 122.304L643.58 129H641.42L642.428 122.568C642.74 120.648 642.692 119.352 640.484 119.352C637.7 119.352 637.316 121.8 636.98 123.84L636.164 129H634.004L637.292 108.168ZM653.382 117.432C656.742 117.432 658.974 120.024 658.446 123.408C657.918 126.792 654.846 129.384 651.486 129.384C648.126 129.384 645.918 126.792 646.446 123.408C646.974 120.024 650.022 117.432 653.382 117.432ZM653.07 119.496C650.934 119.496 648.942 121.272 648.606 123.408C648.27 125.52 649.686 127.32 651.822 127.32C653.958 127.32 655.95 125.52 656.286 123.408C656.622 121.272 655.206 119.496 653.07 119.496ZM667.303 119.4L665.407 120.336C665.239 119.784 664.759 119.352 664.135 119.352C663.535 119.352 662.887 119.832 662.767 120.456C662.623 121.44 663.847 121.872 665.071 122.472C666.295 123.072 667.447 123.888 667.159 125.664C666.823 127.8 664.783 129.384 662.695 129.384C661.063 129.384 659.575 128.448 659.215 126.864L661.207 126.024C661.519 126.864 661.975 127.464 663.007 127.464C663.919 127.464 664.807 126.84 664.975 125.88C665.071 125.28 664.807 124.992 664.375 124.656L662.431 123.528C661.303 122.856 660.487 122.232 660.727 120.696C661.015 118.872 662.719 117.432 664.543 117.432C665.911 117.432 666.895 118.176 667.303 119.4ZM674.402 127.464C676.754 127.464 678.338 125.592 678.698 123.384C679.034 121.2 678.026 119.352 675.698 119.352C673.466 119.352 671.834 121.296 671.498 123.384C671.162 125.496 672.122 127.464 674.402 127.464ZM672.506 117.768L672.218 119.64H672.266C673.37 118.296 674.834 117.432 676.514 117.432C679.754 117.432 681.362 120.24 680.882 123.312C680.354 126.528 677.978 129.384 674.522 129.384C672.938 129.384 671.714 128.52 671.066 127.248H671.018L669.722 135.432H667.562L670.346 117.768H672.506ZM686.49 117.768L684.714 129H682.554L684.33 117.768H686.49ZM686.466 111.12C687.282 111.12 687.858 111.792 687.714 112.632C687.594 113.448 686.802 114.096 685.986 114.096C685.17 114.096 684.618 113.448 684.738 112.632C684.882 111.792 685.65 111.12 686.466 111.12ZM692.104 119.784L690.64 129H688.48L689.944 119.784H688.768L689.08 117.768H690.256L690.928 113.472H693.088L692.416 117.768H694.528L694.216 119.784H692.104ZM699.021 127.464C701.373 127.464 702.957 125.592 703.317 123.384C703.653 121.2 702.645 119.352 700.317 119.352C698.085 119.352 696.453 121.296 696.117 123.384C695.781 125.496 696.741 127.464 699.021 127.464ZM706.245 117.768L704.469 129H702.309L702.597 127.248H702.549C701.469 128.52 699.981 129.384 698.373 129.384C694.941 129.384 693.453 126.528 693.981 123.312C694.461 120.24 696.933 117.432 700.197 117.432C701.853 117.432 703.077 118.296 703.749 119.64H703.797L704.085 117.768H706.245ZM712.813 108.168L709.525 129H707.365L710.653 108.168H712.813ZM724.615 127.464C726.967 127.464 728.551 125.592 728.911 123.384C729.247 121.2 728.239 119.352 725.911 119.352C723.679 119.352 722.047 121.296 721.711 123.384C721.375 125.496 722.335 127.464 724.615 127.464ZM731.839 117.768L730.063 129H727.903L728.191 127.248H728.143C727.063 128.52 725.575 129.384 723.967 129.384C720.535 129.384 719.047 126.528 719.575 123.312C720.055 120.24 722.527 117.432 725.791 117.432C727.447 117.432 728.671 118.296 729.343 119.64H729.391L729.679 117.768H731.839ZM740.639 119.4L738.743 120.336C738.575 119.784 738.095 119.352 737.471 119.352C736.871 119.352 736.223 119.832 736.103 120.456C735.959 121.44 737.183 121.872 738.407 122.472C739.631 123.072 740.783 123.888 740.495 125.664C740.159 127.8 738.119 129.384 736.031 129.384C734.399 129.384 732.911 128.448 732.551 126.864L734.543 126.024C734.855 126.864 735.311 127.464 736.343 127.464C737.255 127.464 738.143 126.84 738.311 125.88C738.407 125.28 738.143 124.992 737.711 124.656L735.767 123.528C734.639 122.856 733.823 122.232 734.063 120.696C734.351 118.872 736.055 117.432 737.879 117.432C739.247 117.432 740.231 118.176 740.639 119.4ZM751.363 117.768L753.499 124.92L758.035 117.144L760.099 124.92L764.491 117.768H766.939L759.379 129.384L757.291 121.872L752.779 129.384L748.915 117.768H751.363ZM776.942 123.744H768.374C768.086 125.664 769.094 127.464 771.158 127.464C772.814 127.464 773.846 126.624 774.878 125.28L776.534 126.312C775.166 128.256 773.006 129.384 770.822 129.384C767.39 129.384 765.734 126.792 766.238 123.48C766.79 120.024 769.046 117.432 772.67 117.432C776.246 117.432 777.518 120.072 776.99 123.408L776.942 123.744ZM768.734 122.112H775.022C775.046 120.432 774.11 119.304 772.382 119.304C770.702 119.304 769.262 120.504 768.734 122.112ZM789.982 127.464C792.334 127.464 793.918 125.592 794.278 123.384C794.614 121.2 793.606 119.352 791.278 119.352C789.046 119.352 787.414 121.296 787.078 123.384C786.742 125.496 787.702 127.464 789.982 127.464ZM793.27 129L793.558 127.248H793.51C792.43 128.52 790.918 129.384 789.334 129.384C785.878 129.384 784.414 126.528 784.942 123.312C785.422 120.24 787.894 117.432 791.134 117.432C792.814 117.432 794.038 118.296 794.71 119.64H794.758L796.558 108.168H798.718L795.43 129H793.27ZM802.67 117.768L800.894 129H798.734L800.51 117.768H802.67ZM802.646 111.12C803.462 111.12 804.038 111.792 803.894 112.632C803.774 113.448 802.982 114.096 802.166 114.096C801.35 114.096 800.798 113.448 800.918 112.632C801.062 111.792 801.83 111.12 802.646 111.12ZM808.427 117.768L808.139 119.592H808.211C808.955 118.272 810.179 117.432 811.619 117.432C812.243 117.432 812.843 117.648 813.323 117.984L812.027 119.952C811.691 119.616 811.283 119.496 810.779 119.496C808.451 119.496 807.803 121.656 807.515 123.48L806.651 129H804.491L806.267 117.768H808.427ZM823.044 123.744H814.476C814.188 125.664 815.196 127.464 817.26 127.464C818.916 127.464 819.948 126.624 820.98 125.28L822.636 126.312C821.268 128.256 819.108 129.384 816.924 129.384C813.492 129.384 811.836 126.792 812.34 123.48C812.892 120.024 815.148 117.432 818.772 117.432C822.348 117.432 823.62 120.072 823.092 123.408L823.044 123.744ZM814.836 122.112H821.124C821.148 120.432 820.212 119.304 818.484 119.304C816.804 119.304 815.364 120.504 814.836 122.112ZM834.018 118.176L833.586 120.96C832.89 119.976 831.906 119.448 830.61 119.448C828.498 119.448 826.578 121.32 826.242 123.384C825.882 125.688 827.226 127.368 829.506 127.368C830.754 127.368 831.858 126.792 832.818 125.88L832.362 128.64C831.306 129.168 830.274 129.384 829.146 129.384C825.834 129.384 823.53 126.84 824.058 123.48C824.61 120 827.706 117.432 831.162 117.432C832.17 117.432 833.25 117.672 834.018 118.176ZM838.588 119.784L837.124 129H834.964L836.428 119.784H835.252L835.564 117.768H836.74L837.412 113.472H839.572L838.9 117.768H841.012L840.7 119.784H838.588ZM845.985 108.168L842.697 129H840.537L843.825 108.168H845.985ZM849.409 127.08L845.737 117.768H848.257L850.921 124.896L855.577 117.768H858.001L846.121 135.432H843.673L849.409 127.08ZM874.887 123.744H866.319C866.031 125.664 867.039 127.464 869.103 127.464C870.759 127.464 871.791 126.624 872.823 125.28L874.479 126.312C873.111 128.256 870.951 129.384 868.767 129.384C865.335 129.384 863.679 126.792 864.183 123.48C864.735 120.024 866.991 117.432 870.615 117.432C874.191 117.432 875.463 120.072 874.935 123.408L874.887 123.744ZM866.679 122.112H872.967C872.991 120.432 872.055 119.304 870.327 119.304C868.647 119.304 867.207 120.504 866.679 122.112ZM879.766 117.768L879.55 119.184H879.598C880.366 118.2 881.614 117.432 882.838 117.432C884.302 117.432 885.238 118.176 885.766 119.424C886.654 118.224 888.118 117.432 889.534 117.432C892.486 117.432 892.894 119.736 892.486 122.28L891.43 129H889.27L890.278 122.64C890.494 121.2 890.614 119.352 888.718 119.352C886.414 119.352 885.862 121.752 885.574 123.48L884.71 129H882.55L883.486 123.048C883.726 121.584 884.014 119.352 882.022 119.352C879.718 119.352 879.142 121.728 878.854 123.48L877.99 129H875.83L877.606 117.768H879.766ZM899.965 127.464C902.317 127.464 903.901 125.592 904.261 123.384C904.597 121.2 903.589 119.352 901.261 119.352C899.029 119.352 897.397 121.296 897.061 123.384C896.725 125.496 897.685 127.464 899.965 127.464ZM898.069 117.768L897.781 119.64H897.829C898.933 118.296 900.397 117.432 902.077 117.432C905.317 117.432 906.924 120.24 906.445 123.312C905.917 126.528 903.541 129.384 900.085 129.384C898.501 129.384 897.277 128.52 896.629 127.248H896.581L895.285 135.432H893.125L895.909 117.768H898.069ZM913.18 108.168L909.892 129H907.732L911.02 108.168H913.18ZM919.773 117.432C923.133 117.432 925.365 120.024 924.837 123.408C924.309 126.792 921.237 129.384 917.877 129.384C914.517 129.384 912.309 126.792 912.837 123.408C913.365 120.024 916.413 117.432 919.773 117.432ZM919.461 119.496C917.325 119.496 915.333 121.272 914.997 123.408C914.661 125.52 916.077 127.32 918.213 127.32C920.349 127.32 922.341 125.52 922.677 123.408C923.013 121.272 921.597 119.496 919.461 119.496ZM929.566 127.08L925.894 117.768H928.414L931.078 124.896L935.734 117.768H938.158L926.278 135.432H923.83L929.566 127.08ZM947.659 127.08L943.987 117.768H946.507L949.171 124.896L953.827 117.768H956.251L944.371 135.432H941.923L947.659 127.08ZM962.452 117.432C965.812 117.432 968.044 120.024 967.516 123.408C966.988 126.792 963.916 129.384 960.556 129.384C957.196 129.384 954.988 126.792 955.516 123.408C956.044 120.024 959.092 117.432 962.452 117.432ZM962.14 119.496C960.004 119.496 958.012 121.272 957.676 123.408C957.34 125.52 958.756 127.32 960.892 127.32C963.028 127.32 965.02 125.52 965.356 123.408C965.692 121.272 964.276 119.496 962.14 119.496ZM970.277 117.768H972.437L971.453 123.984C971.165 125.784 971.381 127.368 973.517 127.368C975.653 127.368 976.349 125.784 976.637 123.984L977.621 117.768H979.781L978.773 124.224C978.269 127.296 976.493 129.384 973.181 129.384C969.869 129.384 968.765 127.296 969.269 124.224L970.277 117.768ZM996.672 108.168L996.336 110.352C995.928 110.16 995.424 109.896 994.968 109.896C993.432 109.896 993.12 111.84 992.952 112.944L992.184 117.768H995.16L994.848 119.784H991.872L990.408 129H988.248L989.712 119.784H988.728L989.04 117.768H990.024L990.888 112.296C991.272 109.848 992.424 107.88 995.208 107.88C995.736 107.88 996.24 107.976 996.672 108.168ZM1001.24 117.432C1004.6 117.432 1006.83 120.024 1006.31 123.408C1005.78 126.792 1002.71 129.384 999.346 129.384C995.986 129.384 993.778 126.792 994.306 123.408C994.834 120.024 997.882 117.432 1001.24 117.432ZM1000.93 119.496C998.794 119.496 996.802 121.272 996.465 123.408C996.13 125.52 997.546 127.32 999.682 127.32C1001.82 127.32 1003.81 125.52 1004.15 123.408C1004.48 121.272 1003.07 119.496 1000.93 119.496ZM1011.47 117.768L1011.18 119.592H1011.25C1011.99 118.272 1013.22 117.432 1014.66 117.432C1015.28 117.432 1015.88 117.648 1016.36 117.984L1015.07 119.952C1014.73 119.616 1014.32 119.496 1013.82 119.496C1011.49 119.496 1010.84 121.656 1010.55 123.48L1009.69 129H1007.53L1009.31 117.768H1011.47ZM265.424 148.784L263.96 158H261.8L263.264 148.784H262.088L262.4 146.768H263.576L264.248 142.472H266.408L265.736 146.768H267.848L267.536 148.784H265.424ZM270.565 137.168H272.725L270.973 148.28H271.021C271.885 147.08 273.325 146.432 274.693 146.432C277.861 146.432 278.341 148.568 277.909 151.304L276.853 158H274.693L275.701 151.568C276.013 149.648 275.965 148.352 273.757 148.352C270.973 148.352 270.589 150.8 270.253 152.84L269.437 158H267.277L270.565 137.168ZM284.928 156.464C287.28 156.464 288.864 154.592 289.224 152.384C289.56 150.2 288.552 148.352 286.224 148.352C283.992 148.352 282.36 150.296 282.024 152.384C281.688 154.496 282.648 156.464 284.928 156.464ZM292.152 146.768L290.376 158H288.216L288.504 156.248H288.456C287.376 157.52 285.888 158.384 284.28 158.384C280.848 158.384 279.36 155.528 279.888 152.312C280.368 149.24 282.84 146.432 286.104 146.432C287.76 146.432 288.984 147.296 289.656 148.64H289.704L289.992 146.768H292.152ZM297.112 148.784L295.648 158H293.488L294.952 148.784H293.776L294.088 146.768H295.264L295.936 142.472H298.096L297.424 146.768H299.536L299.224 148.784H297.112ZM311.543 156.464C313.895 156.464 315.479 154.592 315.839 152.384C316.175 150.2 315.167 148.352 312.839 148.352C310.607 148.352 308.975 150.296 308.639 152.384C308.303 154.496 309.263 156.464 311.543 156.464ZM309.647 146.768L309.359 148.64H309.407C310.511 147.296 311.975 146.432 313.655 146.432C316.895 146.432 318.503 149.24 318.023 152.312C317.495 155.528 315.119 158.384 311.663 158.384C310.079 158.384 308.855 157.52 308.207 156.248H308.159L306.863 164.432H304.703L307.487 146.768H309.647ZM326.031 146.432C329.391 146.432 331.623 149.024 331.095 152.408C330.567 155.792 327.495 158.384 324.135 158.384C320.775 158.384 318.567 155.792 319.095 152.408C319.623 149.024 322.671 146.432 326.031 146.432ZM325.719 148.496C323.583 148.496 321.591 150.272 321.255 152.408C320.919 154.52 322.335 156.32 324.471 156.32C326.607 156.32 328.599 154.52 328.935 152.408C329.271 150.272 327.855 148.496 325.719 148.496ZM339.952 148.4L338.056 149.336C337.888 148.784 337.408 148.352 336.784 148.352C336.184 148.352 335.536 148.832 335.416 149.456C335.272 150.44 336.496 150.872 337.72 151.472C338.944 152.072 340.096 152.888 339.808 154.664C339.472 156.8 337.432 158.384 335.344 158.384C333.712 158.384 332.224 157.448 331.864 155.864L333.855 155.024C334.168 155.864 334.624 156.464 335.656 156.464C336.568 156.464 337.456 155.84 337.624 154.88C337.72 154.28 337.456 153.992 337.023 153.656L335.08 152.528C333.952 151.856 333.136 151.232 333.376 149.696C333.664 147.872 335.368 146.432 337.192 146.432C338.56 146.432 339.544 147.176 339.952 148.4ZM345.802 146.768L344.026 158H341.866L343.642 146.768H345.802ZM345.778 140.12C346.594 140.12 347.17 140.792 347.026 141.632C346.906 142.448 346.114 143.096 345.298 143.096C344.482 143.096 343.93 142.448 344.05 141.632C344.194 140.792 344.962 140.12 345.778 140.12ZM351.416 148.784L349.952 158H347.792L349.256 148.784H348.08L348.392 146.768H349.568L350.24 142.472H352.4L351.728 146.768H353.84L353.528 148.784H351.416ZM357.685 146.768L355.909 158H353.749L355.525 146.768H357.685ZM357.661 140.12C358.477 140.12 359.053 140.792 358.909 141.632C358.789 142.448 357.997 143.096 357.181 143.096C356.365 143.096 355.813 142.448 355.933 141.632C356.077 140.792 356.845 140.12 357.661 140.12ZM366.179 146.432C369.539 146.432 371.771 149.024 371.243 152.408C370.715 155.792 367.643 158.384 364.283 158.384C360.923 158.384 358.715 155.792 359.243 152.408C359.771 149.024 362.819 146.432 366.179 146.432ZM365.867 148.496C363.731 148.496 361.739 150.272 361.403 152.408C361.067 154.52 362.483 156.32 364.619 156.32C366.755 156.32 368.747 154.52 369.083 152.408C369.419 150.272 368.003 148.496 365.867 148.496ZM376.26 146.768L376.02 148.28H376.068C376.932 147.08 378.372 146.432 379.74 146.432C382.908 146.432 383.388 148.568 382.956 151.304L381.9 158H379.74L380.748 151.568C381.06 149.648 381.012 148.352 378.804 148.352C376.02 148.352 375.636 150.8 375.3 152.84L374.484 158H372.324L374.1 146.768H376.26ZM387.262 155.6C388.03 155.6 388.558 156.248 388.438 156.992C388.318 157.76 387.574 158.384 386.806 158.384C386.038 158.384 385.534 157.76 385.654 156.992C385.774 156.248 386.494 155.6 387.262 155.6ZM265.016 197.904L268.04 210.864L275.264 197.52L278.264 210.864L285.368 197.904H287.816L277.328 216.72L274.328 203.448L267.104 216.72L262.568 197.904H265.016ZM295.419 210.744H286.851C286.563 212.664 287.571 214.464 289.635 214.464C291.291 214.464 292.323 213.624 293.355 212.28L295.011 213.312C293.643 215.256 291.483 216.384 289.299 216.384C285.867 216.384 284.211 213.792 284.715 210.48C285.267 207.024 287.523 204.432 291.147 204.432C294.723 204.432 295.995 207.072 295.467 210.408L295.419 210.744ZM287.211 209.112H293.499C293.523 207.432 292.587 206.304 290.859 206.304C289.179 206.304 287.739 207.504 287.211 209.112ZM308.459 214.464C310.811 214.464 312.395 212.592 312.755 210.384C313.091 208.2 312.083 206.352 309.755 206.352C307.523 206.352 305.891 208.296 305.555 210.384C305.219 212.496 306.179 214.464 308.459 214.464ZM315.683 204.768L313.907 216H311.747L312.035 214.248H311.987C310.907 215.52 309.419 216.384 307.811 216.384C304.379 216.384 302.891 213.528 303.419 210.312C303.899 207.24 306.371 204.432 309.635 204.432C311.291 204.432 312.515 205.296 313.187 206.64H313.235L313.523 204.768H315.683ZM322.251 195.168L318.963 216H316.803L320.091 195.168H322.251ZM329.803 206.4L327.907 207.336C327.739 206.784 327.259 206.352 326.635 206.352C326.035 206.352 325.387 206.832 325.267 207.456C325.123 208.44 326.347 208.872 327.571 209.472C328.795 210.072 329.947 210.888 329.659 212.664C329.323 214.8 327.283 216.384 325.195 216.384C323.563 216.384 322.075 215.448 321.715 213.864L323.707 213.024C324.019 213.864 324.475 214.464 325.507 214.464C326.419 214.464 327.307 213.84 327.475 212.88C327.571 212.28 327.307 211.992 326.875 211.656L324.931 210.528C323.803 209.856 322.987 209.232 323.227 207.696C323.515 205.872 325.219 204.432 327.043 204.432C328.411 204.432 329.395 205.176 329.803 206.4ZM338.054 204.432C341.414 204.432 343.646 207.024 343.118 210.408C342.59 213.792 339.518 216.384 336.158 216.384C332.798 216.384 330.59 213.792 331.118 210.408C331.646 207.024 334.694 204.432 338.054 204.432ZM337.742 206.496C335.606 206.496 333.614 208.272 333.278 210.408C332.942 212.52 334.358 214.32 336.494 214.32C338.63 214.32 340.622 212.52 340.958 210.408C341.294 208.272 339.878 206.496 337.742 206.496ZM357.812 204.432C361.172 204.432 363.404 207.024 362.876 210.408C362.348 213.792 359.276 216.384 355.916 216.384C352.556 216.384 350.348 213.792 350.876 210.408C351.404 207.024 354.452 204.432 357.812 204.432ZM357.5 206.496C355.364 206.496 353.372 208.272 353.036 210.408C352.7 212.52 354.116 214.32 356.252 214.32C358.388 214.32 360.38 212.52 360.716 210.408C361.052 208.272 359.636 206.496 357.5 206.496ZM372.813 195.168L372.477 197.352C372.069 197.16 371.565 196.896 371.109 196.896C369.573 196.896 369.261 198.84 369.093 199.944L368.325 204.768H371.301L370.989 206.784H368.013L366.549 216H364.389L365.853 206.784H364.869L365.181 204.768H366.165L367.029 199.296C367.413 196.848 368.565 194.88 371.349 194.88C371.877 194.88 372.381 194.976 372.813 195.168ZM379.422 195.168L379.086 197.352C378.678 197.16 378.174 196.896 377.718 196.896C376.182 196.896 375.87 198.84 375.702 199.944L374.934 204.768H377.91L377.598 206.784H374.622L373.158 216H370.998L372.462 206.784H371.478L371.79 204.768H372.774L373.638 199.296C374.022 196.848 375.174 194.88 377.958 194.88C378.486 194.88 378.99 194.976 379.422 195.168ZM387.88 210.744H379.312C379.024 212.664 380.032 214.464 382.096 214.464C383.752 214.464 384.784 213.624 385.816 212.28L387.472 213.312C386.104 215.256 383.944 216.384 381.76 216.384C378.328 216.384 376.672 213.792 377.176 210.48C377.728 207.024 379.984 204.432 383.608 204.432C387.184 204.432 388.456 207.072 387.928 210.408L387.88 210.744ZM379.672 209.112H385.96C385.984 207.432 385.048 206.304 383.32 206.304C381.64 206.304 380.2 207.504 379.672 209.112ZM392.974 204.768L392.686 206.592H392.758C393.502 205.272 394.726 204.432 396.166 204.432C396.79 204.432 397.39 204.648 397.87 204.984L396.574 206.952C396.238 206.616 395.83 206.496 395.326 206.496C392.998 206.496 392.35 208.656 392.062 210.48L391.198 216H389.038L390.814 204.768H392.974ZM414.206 205.176L413.774 207.96C413.078 206.976 412.094 206.448 410.798 206.448C408.686 206.448 406.766 208.32 406.43 210.384C406.07 212.688 407.414 214.368 409.694 214.368C410.942 214.368 412.046 213.792 413.006 212.88L412.55 215.64C411.494 216.168 410.462 216.384 409.334 216.384C406.022 216.384 403.718 213.84 404.246 210.48C404.798 207 407.894 204.432 411.35 204.432C412.358 204.432 413.438 204.672 414.206 205.176ZM421.374 204.432C424.734 204.432 426.966 207.024 426.438 210.408C425.91 213.792 422.838 216.384 419.478 216.384C416.118 216.384 413.91 213.792 414.438 210.408C414.966 207.024 418.014 204.432 421.374 204.432ZM421.062 206.496C418.926 206.496 416.934 208.272 416.598 210.408C416.262 212.52 417.678 214.32 419.814 214.32C421.95 214.32 423.942 212.52 424.278 210.408C424.614 208.272 423.198 206.496 421.062 206.496ZM431.455 204.768L431.215 206.28H431.263C432.127 205.08 433.567 204.432 434.935 204.432C438.103 204.432 438.583 206.568 438.151 209.304L437.095 216H434.935L435.943 209.568C436.255 207.648 436.207 206.352 433.999 206.352C431.215 206.352 430.831 208.8 430.495 210.84L429.679 216H427.519L429.295 204.768H431.455ZM444.018 206.784L442.554 216H440.394L441.858 206.784H440.682L440.994 204.768H442.17L442.842 200.472H445.002L444.33 204.768H446.442L446.13 206.784H444.018ZM450.287 204.768L448.511 216H446.351L448.127 204.768H450.287ZM450.263 198.12C451.079 198.12 451.655 198.792 451.511 199.632C451.391 200.448 450.599 201.096 449.783 201.096C448.967 201.096 448.415 200.448 448.535 199.632C448.679 198.792 449.447 198.12 450.263 198.12ZM455.901 204.768L455.661 206.28H455.709C456.573 205.08 458.013 204.432 459.381 204.432C462.549 204.432 463.029 206.568 462.597 209.304L461.541 216H459.381L460.389 209.568C460.701 207.648 460.653 206.352 458.445 206.352C455.661 206.352 455.277 208.8 454.941 210.84L454.125 216H451.965L453.741 204.768H455.901ZM466.207 204.768H468.367L467.383 210.984C467.095 212.784 467.311 214.368 469.447 214.368C471.583 214.368 472.279 212.784 472.567 210.984L473.551 204.768H475.711L474.703 211.224C474.199 214.296 472.423 216.384 469.111 216.384C465.799 216.384 464.695 214.296 465.199 211.224L466.207 204.768ZM483.624 204.432C486.984 204.432 489.216 207.024 488.688 210.408C488.16 213.792 485.088 216.384 481.728 216.384C478.368 216.384 476.16 213.792 476.688 210.408C477.216 207.024 480.264 204.432 483.624 204.432ZM483.312 206.496C481.176 206.496 479.184 208.272 478.848 210.408C478.512 212.52 479.928 214.32 482.064 214.32C484.2 214.32 486.192 212.52 486.528 210.408C486.864 208.272 485.448 206.496 483.312 206.496ZM491.449 204.768H493.609L492.625 210.984C492.337 212.784 492.553 214.368 494.689 214.368C496.825 214.368 497.521 212.784 497.809 210.984L498.793 204.768H500.953L499.945 211.224C499.441 214.296 497.665 216.384 494.353 216.384C491.041 216.384 489.937 214.296 490.441 211.224L491.449 204.768ZM509.827 206.4L507.931 207.336C507.763 206.784 507.283 206.352 506.659 206.352C506.059 206.352 505.411 206.832 505.291 207.456C505.147 208.44 506.371 208.872 507.595 209.472C508.819 210.072 509.971 210.888 509.683 212.664C509.347 214.8 507.307 216.384 505.219 216.384C503.587 216.384 502.099 215.448 501.739 213.864L503.73 213.024C504.043 213.864 504.499 214.464 505.531 214.464C506.443 214.464 507.331 213.84 507.499 212.88C507.595 212.28 507.331 211.992 506.898 211.656L504.955 210.528C503.827 209.856 503.011 209.232 503.251 207.696C503.539 205.872 505.243 204.432 507.067 204.432C508.435 204.432 509.419 205.176 509.827 206.4ZM525.975 206.4L524.079 207.336C523.911 206.784 523.431 206.352 522.807 206.352C522.207 206.352 521.559 206.832 521.439 207.456C521.295 208.44 522.519 208.872 523.743 209.472C524.967 210.072 526.119 210.888 525.831 212.664C525.495 214.8 523.455 216.384 521.367 216.384C519.735 216.384 518.247 215.448 517.887 213.864L519.879 213.024C520.191 213.864 520.647 214.464 521.679 214.464C522.591 214.464 523.479 213.84 523.647 212.88C523.743 212.28 523.479 211.992 523.047 211.656L521.103 210.528C519.975 209.856 519.159 209.232 519.399 207.696C519.687 205.872 521.391 204.432 523.215 204.432C524.583 204.432 525.567 205.176 525.975 206.4ZM529.09 204.768H531.25L530.266 210.984C529.978 212.784 530.194 214.368 532.33 214.368C534.466 214.368 535.162 212.784 535.45 210.984L536.434 204.768H538.594L537.586 211.224C537.082 214.296 535.306 216.384 531.994 216.384C528.682 216.384 527.578 214.296 528.082 211.224L529.09 204.768ZM545.355 214.464C547.707 214.464 549.291 212.592 549.651 210.384C549.987 208.2 548.979 206.352 546.651 206.352C544.419 206.352 542.787 208.296 542.451 210.384C542.115 212.496 543.075 214.464 545.355 214.464ZM543.459 204.768L543.171 206.64H543.219C544.323 205.296 545.787 204.432 547.467 204.432C550.707 204.432 552.315 207.24 551.835 210.312C551.307 213.528 548.931 216.384 545.475 216.384C543.891 216.384 542.667 215.52 542.019 214.248H541.971L540.675 222.432H538.515L541.299 204.768H543.459ZM558.691 214.464C561.043 214.464 562.627 212.592 562.987 210.384C563.323 208.2 562.315 206.352 559.987 206.352C557.755 206.352 556.123 208.296 555.787 210.384C555.451 212.496 556.411 214.464 558.691 214.464ZM556.795 204.768L556.507 206.64H556.555C557.659 205.296 559.123 204.432 560.803 204.432C564.043 204.432 565.651 207.24 565.171 210.312C564.643 213.528 562.267 216.384 558.811 216.384C557.227 216.384 556.003 215.52 555.355 214.248H555.307L554.011 222.432H551.851L554.635 204.768H556.795ZM573.179 204.432C576.539 204.432 578.771 207.024 578.243 210.408C577.715 213.792 574.643 216.384 571.283 216.384C567.923 216.384 565.715 213.792 566.243 210.408C566.771 207.024 569.819 204.432 573.179 204.432ZM572.867 206.496C570.731 206.496 568.739 208.272 568.403 210.408C568.067 212.52 569.483 214.32 571.619 214.32C573.755 214.32 575.747 212.52 576.083 210.408C576.419 208.272 575.003 206.496 572.867 206.496ZM583.404 204.768L583.116 206.592H583.188C583.932 205.272 585.156 204.432 586.596 204.432C587.22 204.432 587.82 204.648 588.3 204.984L587.004 206.952C586.668 206.616 586.26 206.496 585.756 206.496C583.428 206.496 582.78 208.656 582.492 210.48L581.628 216H579.468L581.244 204.768H583.404ZM592.143 206.784L590.679 216H588.519L589.983 206.784H588.807L589.119 204.768H590.295L590.967 200.472H593.127L592.455 204.768H594.567L594.255 206.784H592.143ZM604.846 206.784L603.382 216H601.222L602.686 206.784H601.51L601.822 204.768H602.998L603.67 200.472H605.83L605.158 204.768H607.27L606.958 206.784H604.846ZM613.492 204.432C616.852 204.432 619.084 207.024 618.556 210.408C618.028 213.792 614.956 216.384 611.596 216.384C608.236 216.384 606.028 213.792 606.556 210.408C607.084 207.024 610.132 204.432 613.492 204.432ZM613.18 206.496C611.044 206.496 609.052 208.272 608.715 210.408C608.38 212.52 609.796 214.32 611.932 214.32C614.068 214.32 616.06 212.52 616.396 210.408C616.732 208.272 615.316 206.496 613.18 206.496ZM631.662 214.464C634.014 214.464 635.598 212.592 635.958 210.384C636.294 208.2 635.286 206.352 632.958 206.352C630.726 206.352 629.094 208.296 628.758 210.384C628.422 212.496 629.382 214.464 631.662 214.464ZM638.886 204.768L637.11 216H634.95L635.238 214.248H635.19C634.11 215.52 632.622 216.384 631.014 216.384C627.582 216.384 626.094 213.528 626.622 210.312C627.102 207.24 629.574 204.432 632.838 204.432C634.494 204.432 635.718 205.296 636.39 206.64H636.438L636.726 204.768H638.886ZM644.998 214.464C647.35 214.464 648.934 212.592 649.294 210.384C649.63 208.2 648.622 206.352 646.294 206.352C644.062 206.352 642.43 208.296 642.094 210.384C641.758 212.496 642.718 214.464 644.998 214.464ZM648.286 216L648.574 214.248H648.526C647.446 215.52 645.934 216.384 644.35 216.384C640.894 216.384 639.43 213.528 639.958 210.312C640.438 207.24 642.91 204.432 646.15 204.432C647.83 204.432 649.054 205.296 649.726 206.64H649.774L651.574 195.168H653.734L650.446 216H648.286ZM658.334 214.464C660.686 214.464 662.27 212.592 662.63 210.384C662.966 208.2 661.958 206.352 659.63 206.352C657.398 206.352 655.766 208.296 655.43 210.384C655.094 212.496 656.054 214.464 658.334 214.464ZM661.622 216L661.91 214.248H661.862C660.782 215.52 659.27 216.384 657.686 216.384C654.23 216.384 652.766 213.528 653.294 210.312C653.774 207.24 656.246 204.432 659.486 204.432C661.166 204.432 662.39 205.296 663.062 206.64H663.11L664.91 195.168H667.07L663.782 216H661.622ZM670.662 204.768L670.374 206.592H670.446C671.19 205.272 672.414 204.432 673.854 204.432C674.478 204.432 675.078 204.648 675.558 204.984L674.262 206.952C673.926 206.616 673.518 206.496 673.014 206.496C670.686 206.496 670.038 208.656 669.75 210.48L668.886 216H666.726L668.502 204.768H670.662ZM685.278 210.744H676.71C676.422 212.664 677.43 214.464 679.494 214.464C681.15 214.464 682.182 213.624 683.214 212.28L684.87 213.312C683.502 215.256 681.342 216.384 679.158 216.384C675.726 216.384 674.07 213.792 674.574 210.48C675.126 207.024 677.382 204.432 681.006 204.432C684.582 204.432 685.854 207.072 685.326 210.408L685.278 210.744ZM677.07 209.112H683.358C683.382 207.432 682.446 206.304 680.718 206.304C679.038 206.304 677.598 207.504 677.07 209.112ZM694.069 206.4L692.173 207.336C692.005 206.784 691.525 206.352 690.901 206.352C690.301 206.352 689.653 206.832 689.533 207.456C689.389 208.44 690.613 208.872 691.837 209.472C693.061 210.072 694.213 210.888 693.925 212.664C693.589 214.8 691.549 216.384 689.461 216.384C687.829 216.384 686.341 215.448 685.981 213.864L687.973 213.024C688.285 213.864 688.741 214.464 689.773 214.464C690.685 214.464 691.573 213.84 691.741 212.88C691.837 212.28 691.573 211.992 691.141 211.656L689.197 210.528C688.069 209.856 687.253 209.232 687.493 207.696C687.781 205.872 689.485 204.432 691.309 204.432C692.677 204.432 693.661 205.176 694.069 206.4ZM703.28 206.4L701.384 207.336C701.216 206.784 700.736 206.352 700.112 206.352C699.512 206.352 698.864 206.832 698.744 207.456C698.6 208.44 699.824 208.872 701.048 209.472C702.272 210.072 703.424 210.888 703.136 212.664C702.8 214.8 700.76 216.384 698.672 216.384C697.04 216.384 695.552 215.448 695.192 213.864L697.184 213.024C697.496 213.864 697.952 214.464 698.984 214.464C699.896 214.464 700.784 213.84 700.952 212.88C701.048 212.28 700.784 211.992 700.352 211.656L698.408 210.528C697.28 209.856 696.464 209.232 696.704 207.696C696.992 205.872 698.696 204.432 700.52 204.432C701.888 204.432 702.872 205.176 703.28 206.4ZM716.74 214.464C719.092 214.464 720.676 212.592 721.036 210.384C721.372 208.2 720.364 206.352 718.036 206.352C715.804 206.352 714.172 208.296 713.836 210.384C713.5 212.496 714.46 214.464 716.74 214.464ZM723.964 204.768L722.188 216H720.028L720.316 214.248H720.268C719.188 215.52 717.7 216.384 716.092 216.384C712.66 216.384 711.172 213.528 711.7 210.312C712.18 207.24 714.652 204.432 717.916 204.432C719.572 204.432 720.796 205.296 721.468 206.64H721.516L721.804 204.768H723.964ZM728.924 204.768L728.684 206.28H728.732C729.596 205.08 731.036 204.432 732.404 204.432C735.572 204.432 736.052 206.568 735.62 209.304L734.564 216H732.404L733.412 209.568C733.724 207.648 733.676 206.352 731.468 206.352C728.684 206.352 728.3 208.8 727.964 210.84L727.148 216H724.988L726.764 204.768H728.924ZM741.199 214.08L737.527 204.768H740.047L742.711 211.896L747.367 204.768H749.791L737.911 222.432H735.462L741.199 214.08ZM766.073 205.176L765.641 207.96C764.945 206.976 763.961 206.448 762.665 206.448C760.553 206.448 758.633 208.32 758.297 210.384C757.937 212.688 759.281 214.368 761.561 214.368C762.809 214.368 763.913 213.792 764.873 212.88L764.417 215.64C763.361 216.168 762.329 216.384 761.201 216.384C757.889 216.384 755.585 213.84 756.113 210.48C756.665 207 759.761 204.432 763.217 204.432C764.225 204.432 765.305 204.672 766.073 205.176ZM769.995 195.168H772.155L770.403 206.28H770.451C771.315 205.08 772.755 204.432 774.123 204.432C777.291 204.432 777.771 206.568 777.339 209.304L776.283 216H774.123L775.131 209.568C775.443 207.648 775.395 206.352 773.187 206.352C770.403 206.352 770.019 208.8 769.683 210.84L768.867 216H766.707L769.995 195.168ZM784.357 214.464C786.709 214.464 788.293 212.592 788.653 210.384C788.989 208.2 787.981 206.352 785.653 206.352C783.421 206.352 781.789 208.296 781.453 210.384C781.117 212.496 782.077 214.464 784.357 214.464ZM791.581 204.768L789.805 216H787.645L787.933 214.248H787.885C786.805 215.52 785.317 216.384 783.709 216.384C780.277 216.384 778.789 213.528 779.317 210.312C779.797 207.24 782.269 204.432 785.533 204.432C787.189 204.432 788.413 205.296 789.085 206.64H789.133L789.421 204.768H791.581ZM798.149 195.168L794.861 216H792.701L795.989 195.168H798.149ZM803.493 195.168L800.205 216H798.045L801.333 195.168H803.493ZM813.973 210.744H805.405C805.117 212.664 806.125 214.464 808.189 214.464C809.845 214.464 810.877 213.624 811.909 212.28L813.565 213.312C812.197 215.256 810.037 216.384 807.853 216.384C804.421 216.384 802.765 213.792 803.269 210.48C803.821 207.024 806.077 204.432 809.701 204.432C813.277 204.432 814.549 207.072 814.021 210.408L813.973 210.744ZM805.765 209.112H812.053C812.077 207.432 811.141 206.304 809.413 206.304C807.733 206.304 806.293 207.504 805.765 209.112ZM818.924 204.768L818.684 206.28H818.732C819.596 205.08 821.036 204.432 822.404 204.432C825.572 204.432 826.052 206.568 825.62 209.304L824.564 216H822.404L823.412 209.568C823.724 207.648 823.676 206.352 821.468 206.352C818.684 206.352 818.3 208.8 817.964 210.84L817.148 216H814.988L816.764 204.768H818.924ZM832.615 214.464C834.967 214.464 836.551 212.592 836.911 210.384C837.247 208.2 836.239 206.352 833.911 206.352C831.679 206.352 830.047 208.296 829.711 210.384C829.375 212.496 830.335 214.464 832.615 214.464ZM839.839 204.768L838.087 215.784C837.487 219.648 835.951 222.432 831.583 222.432C828.463 222.432 826.495 220.512 826.951 217.344H829.111C828.799 219.36 829.999 220.512 831.967 220.512C834.631 220.512 835.471 218.688 835.831 216.384L836.191 214.248H836.143C835.063 215.52 833.551 216.384 831.967 216.384C828.511 216.384 827.047 213.528 827.575 210.312C828.055 207.24 830.527 204.432 833.767 204.432C835.447 204.432 836.671 205.296 837.319 206.688H837.367L837.679 204.768H839.839ZM851.567 210.744H842.999C842.711 212.664 843.719 214.464 845.783 214.464C847.439 214.464 848.471 213.624 849.503 212.28L851.159 213.312C849.791 215.256 847.631 216.384 845.447 216.384C842.015 216.384 840.359 213.792 840.863 210.48C841.415 207.024 843.671 204.432 847.295 204.432C850.871 204.432 852.143 207.072 851.615 210.408L851.567 210.744ZM843.359 209.112H849.647C849.671 207.432 848.735 206.304 847.007 206.304C845.327 206.304 843.887 207.504 843.359 209.112ZM860.358 206.4L858.462 207.336C858.294 206.784 857.814 206.352 857.19 206.352C856.59 206.352 855.942 206.832 855.822 207.456C855.678 208.44 856.902 208.872 858.126 209.472C859.35 210.072 860.502 210.888 860.214 212.664C859.878 214.8 857.838 216.384 855.75 216.384C854.118 216.384 852.63 215.448 852.27 213.864L854.262 213.024C854.574 213.864 855.03 214.464 856.062 214.464C856.974 214.464 857.862 213.84 858.03 212.88C858.126 212.28 857.862 211.992 857.43 211.656L855.486 210.528C854.358 209.856 853.542 209.232 853.782 207.696C854.07 205.872 855.774 204.432 857.598 204.432C858.966 204.432 859.95 205.176 860.358 206.4ZM871.909 214.08L868.237 204.768H870.757L873.421 211.896L878.077 204.768H880.501L868.621 222.432H866.173L871.909 214.08ZM886.702 204.432C890.062 204.432 892.294 207.024 891.766 210.408C891.238 213.792 888.166 216.384 884.806 216.384C881.446 216.384 879.238 213.792 879.766 210.408C880.294 207.024 883.342 204.432 886.702 204.432ZM886.39 206.496C884.254 206.496 882.262 208.272 881.926 210.408C881.59 212.52 883.006 214.32 885.142 214.32C887.278 214.32 889.27 212.52 889.606 210.408C889.942 208.272 888.526 206.496 886.39 206.496ZM894.527 204.768H896.687L895.703 210.984C895.415 212.784 895.631 214.368 897.767 214.368C899.903 214.368 900.599 212.784 900.887 210.984L901.871 204.768H904.031L903.023 211.224C902.519 214.296 900.743 216.384 897.431 216.384C894.119 216.384 893.015 214.296 893.519 211.224L894.527 204.768ZM915.93 204.768L915.714 206.184H915.762C916.53 205.2 917.778 204.432 919.002 204.432C920.466 204.432 921.402 205.176 921.93 206.424C922.818 205.224 924.282 204.432 925.698 204.432C928.65 204.432 929.058 206.736 928.65 209.28L927.594 216H925.434L926.442 209.64C926.658 208.2 926.778 206.352 924.882 206.352C922.578 206.352 922.026 208.752 921.738 210.48L920.874 216H918.714L919.65 210.048C919.89 208.584 920.178 206.352 918.186 206.352C915.882 206.352 915.306 208.728 915.018 210.48L914.154 216H911.994L913.77 204.768H915.93ZM935.553 214.464C937.905 214.464 939.489 212.592 939.849 210.384C940.185 208.2 939.177 206.352 936.849 206.352C934.617 206.352 932.985 208.296 932.649 210.384C932.313 212.496 933.273 214.464 935.553 214.464ZM942.777 204.768L941.001 216H938.841L939.129 214.248H939.081C938.001 215.52 936.513 216.384 934.905 216.384C931.473 216.384 929.985 213.528 930.513 210.312C930.993 207.24 933.465 204.432 936.729 204.432C938.385 204.432 939.609 205.296 940.281 206.64H940.329L940.617 204.768H942.777ZM947.449 214.08L943.777 204.768H946.297L948.961 211.896L953.617 204.768H956.041L944.161 222.432H941.712L947.449 214.08ZM270.344 224.168L270.008 226.352C269.6 226.16 269.096 225.896 268.64 225.896C267.104 225.896 266.792 227.84 266.624 228.944L265.856 233.768H268.832L268.52 235.784H265.544L264.08 245H261.92L263.384 235.784H262.4L262.712 233.768H263.696L264.56 228.296C264.944 225.848 266.096 223.88 268.88 223.88C269.408 223.88 269.912 223.976 270.344 224.168ZM273.185 243.464C275.537 243.464 277.121 241.592 277.481 239.384C277.817 237.2 276.809 235.352 274.481 235.352C272.249 235.352 270.617 237.296 270.281 239.384C269.945 241.496 270.905 243.464 273.185 243.464ZM280.409 233.768L278.633 245H276.473L276.761 243.248H276.713C275.633 244.52 274.145 245.384 272.537 245.384C269.105 245.384 267.617 242.528 268.145 239.312C268.625 236.24 271.097 233.432 274.361 233.432C276.017 233.432 277.241 234.296 277.913 235.64H277.961L278.249 233.768H280.409ZM291.393 234.176L290.961 236.96C290.265 235.976 289.281 235.448 287.985 235.448C285.873 235.448 283.953 237.32 283.617 239.384C283.257 241.688 284.601 243.368 286.881 243.368C288.129 243.368 289.233 242.792 290.193 241.88L289.737 244.64C288.681 245.168 287.649 245.384 286.521 245.384C283.209 245.384 280.905 242.84 281.433 239.48C281.985 236 285.081 233.432 288.537 233.432C289.545 233.432 290.625 233.672 291.393 234.176ZM302.45 239.744H293.882C293.594 241.664 294.602 243.464 296.666 243.464C298.322 243.464 299.354 242.624 300.386 241.28L302.042 242.312C300.674 244.256 298.514 245.384 296.33 245.384C292.898 245.384 291.242 242.792 291.746 239.48C292.298 236.024 294.554 233.432 298.178 233.432C301.754 233.432 303.026 236.072 302.498 239.408L302.45 239.744ZM294.242 238.112H300.53C300.554 236.432 299.618 235.304 297.89 235.304C296.21 235.304 294.77 236.504 294.242 238.112ZM315.49 243.464C317.842 243.464 319.426 241.592 319.786 239.384C320.122 237.2 319.114 235.352 316.786 235.352C314.554 235.352 312.922 237.296 312.586 239.384C312.25 241.496 313.21 243.464 315.49 243.464ZM322.714 233.768L320.938 245H318.778L319.066 243.248H319.018C317.938 244.52 316.45 245.384 314.842 245.384C311.41 245.384 309.922 242.528 310.45 239.312C310.93 236.24 313.402 233.432 316.666 233.432C318.322 233.432 319.546 234.296 320.218 235.64H320.266L320.554 233.768H322.714ZM327.674 233.768L327.434 235.28H327.482C328.346 234.08 329.786 233.432 331.154 233.432C334.322 233.432 334.802 235.568 334.37 238.304L333.314 245H331.154L332.162 238.568C332.474 236.648 332.426 235.352 330.218 235.352C327.434 235.352 327.05 237.8 326.714 239.84L325.898 245H323.738L325.514 233.768H327.674ZM341.389 243.464C343.741 243.464 345.325 241.592 345.685 239.384C346.021 237.2 345.013 235.352 342.685 235.352C340.453 235.352 338.821 237.296 338.485 239.384C338.149 241.496 339.109 243.464 341.389 243.464ZM344.677 245L344.965 243.248H344.917C343.837 244.52 342.325 245.384 340.741 245.384C337.285 245.384 335.821 242.528 336.349 239.312C336.829 236.24 339.301 233.432 342.541 233.432C344.221 233.432 345.445 234.296 346.117 235.64H346.165L347.965 224.168H350.125L346.837 245H344.677ZM362.238 243.464C364.59 243.464 366.174 241.592 366.534 239.384C366.87 237.2 365.862 235.352 363.534 235.352C361.302 235.352 359.67 237.296 359.334 239.384C358.998 241.496 359.958 243.464 362.238 243.464ZM360.342 233.768L360.054 235.64H360.102C361.206 234.296 362.67 233.432 364.35 233.432C367.59 233.432 369.198 236.24 368.718 239.312C368.19 242.528 365.814 245.384 362.358 245.384C360.774 245.384 359.55 244.52 358.902 243.248H358.854L357.558 251.432H355.398L358.182 233.768H360.342ZM373.99 233.768L373.702 235.592H373.774C374.518 234.272 375.742 233.432 377.182 233.432C377.806 233.432 378.406 233.648 378.886 233.984L377.59 235.952C377.254 235.616 376.846 235.496 376.342 235.496C374.014 235.496 373.366 237.656 373.078 239.48L372.214 245H370.054L371.83 233.768H373.99ZM384.718 233.432C388.078 233.432 390.31 236.024 389.782 239.408C389.254 242.792 386.182 245.384 382.822 245.384C379.462 245.384 377.254 242.792 377.782 239.408C378.31 236.024 381.358 233.432 384.718 233.432ZM384.406 235.496C382.27 235.496 380.278 237.272 379.942 239.408C379.606 241.52 381.022 243.32 383.158 243.32C385.294 243.32 387.286 241.52 387.622 239.408C387.958 237.272 386.542 235.496 384.406 235.496ZM393.263 233.768L395.375 240.776L399.719 233.768H402.143L394.631 245.384L390.839 233.768H393.263ZM405.967 233.768L404.191 245H402.031L403.807 233.768H405.967ZM405.943 227.12C406.759 227.12 407.335 227.792 407.191 228.632C407.071 229.448 406.279 230.096 405.463 230.096C404.647 230.096 404.095 229.448 404.215 228.632C404.359 227.792 405.127 227.12 405.943 227.12ZM412.732 243.464C415.084 243.464 416.668 241.592 417.028 239.384C417.364 237.2 416.356 235.352 414.028 235.352C411.796 235.352 410.164 237.296 409.828 239.384C409.492 241.496 410.452 243.464 412.732 243.464ZM416.02 245L416.308 243.248H416.26C415.18 244.52 413.668 245.384 412.084 245.384C408.628 245.384 407.164 242.528 407.692 239.312C408.172 236.24 410.644 233.432 413.884 233.432C415.564 233.432 416.788 234.296 417.46 235.64H417.508L419.308 224.168H421.468L418.18 245H416.02ZM431.684 239.744H423.116C422.828 241.664 423.836 243.464 425.9 243.464C427.556 243.464 428.588 242.624 429.62 241.28L431.276 242.312C429.908 244.256 427.748 245.384 425.564 245.384C422.132 245.384 420.476 242.792 420.98 239.48C421.532 236.024 423.788 233.432 427.412 233.432C430.988 233.432 432.26 236.072 431.732 239.408L431.684 239.744ZM423.476 238.112H429.764C429.788 236.432 428.852 235.304 427.124 235.304C425.444 235.304 424.004 236.504 423.476 238.112ZM443.716 233.768L443.428 235.592H443.5C444.244 234.272 445.468 233.432 446.908 233.432C447.532 233.432 448.132 233.648 448.612 233.984L447.316 235.952C446.98 235.616 446.572 235.496 446.068 235.496C443.74 235.496 443.092 237.656 442.804 239.48L441.94 245H439.78L441.556 233.768H443.716ZM458.333 239.744H449.765C449.477 241.664 450.485 243.464 452.549 243.464C454.205 243.464 455.237 242.624 456.269 241.28L457.925 242.312C456.557 244.256 454.397 245.384 452.213 245.384C448.781 245.384 447.125 242.792 447.629 239.48C448.181 236.024 450.437 233.432 454.061 233.432C457.637 233.432 458.909 236.072 458.381 239.408L458.333 239.744ZM450.125 238.112H456.413C456.437 236.432 455.501 235.304 453.773 235.304C452.093 235.304 450.653 236.504 450.125 238.112ZM467.123 235.4L465.227 236.336C465.059 235.784 464.579 235.352 463.955 235.352C463.355 235.352 462.707 235.832 462.587 236.456C462.443 237.44 463.667 237.872 464.891 238.472C466.115 239.072 467.267 239.888 466.979 241.664C466.643 243.8 464.603 245.384 462.515 245.384C460.883 245.384 459.395 244.448 459.035 242.864L461.027 242.024C461.339 242.864 461.795 243.464 462.827 243.464C463.739 243.464 464.627 242.84 464.795 241.88C464.891 241.28 464.627 240.992 464.195 240.656L462.251 239.528C461.123 238.856 460.307 238.232 460.547 236.696C460.835 234.872 462.539 233.432 464.363 233.432C465.731 233.432 466.715 234.176 467.123 235.4ZM475.374 233.432C478.734 233.432 480.966 236.024 480.438 239.408C479.91 242.792 476.838 245.384 473.478 245.384C470.118 245.384 467.91 242.792 468.438 239.408C468.966 236.024 472.014 233.432 475.374 233.432ZM475.062 235.496C472.926 235.496 470.934 237.272 470.598 239.408C470.262 241.52 471.678 243.32 473.814 243.32C475.95 243.32 477.942 241.52 478.278 239.408C478.614 237.272 477.198 235.496 475.062 235.496ZM483.199 233.768H485.359L484.375 239.984C484.087 241.784 484.303 243.368 486.439 243.368C488.575 243.368 489.271 241.784 489.559 239.984L490.543 233.768H492.703L491.695 240.224C491.191 243.296 489.415 245.384 486.103 245.384C482.791 245.384 481.687 243.296 482.191 240.224L483.199 233.768ZM497.881 233.768L497.593 235.592H497.665C498.409 234.272 499.633 233.432 501.073 233.432C501.697 233.432 502.297 233.648 502.777 233.984L501.481 235.952C501.145 235.616 500.737 235.496 500.233 235.496C497.905 235.496 497.257 237.656 496.969 239.48L496.105 245H493.945L495.721 233.768H497.881ZM511.753 234.176L511.321 236.96C510.625 235.976 509.641 235.448 508.345 235.448C506.233 235.448 504.313 237.32 503.977 239.384C503.617 241.688 504.961 243.368 507.241 243.368C508.489 243.368 509.593 242.792 510.553 241.88L510.097 244.64C509.041 245.168 508.009 245.384 506.881 245.384C503.569 245.384 501.265 242.84 501.793 239.48C502.345 236 505.441 233.432 508.897 233.432C509.905 233.432 510.985 233.672 511.753 234.176ZM522.809 239.744H514.241C513.953 241.664 514.961 243.464 517.025 243.464C518.681 243.464 519.713 242.624 520.745 241.28L522.401 242.312C521.033 244.256 518.873 245.384 516.689 245.384C513.257 245.384 511.601 242.792 512.105 239.48C512.657 236.024 514.913 233.432 518.537 233.432C522.113 233.432 523.385 236.072 522.857 239.408L522.809 239.744ZM514.601 238.112H520.889C520.913 236.432 519.977 235.304 518.249 235.304C516.569 235.304 515.129 236.504 514.601 238.112ZM531.6 235.4L529.704 236.336C529.536 235.784 529.056 235.352 528.432 235.352C527.832 235.352 527.184 235.832 527.064 236.456C526.92 237.44 528.144 237.872 529.368 238.472C530.592 239.072 531.744 239.888 531.456 241.664C531.12 243.8 529.08 245.384 526.992 245.384C525.36 245.384 523.872 244.448 523.512 242.864L525.504 242.024C525.816 242.864 526.272 243.464 527.304 243.464C528.216 243.464 529.104 242.84 529.272 241.88C529.368 241.28 529.104 240.992 528.672 240.656L526.728 239.528C525.6 238.856 524.784 238.232 525.024 236.696C525.312 234.872 527.016 233.432 528.84 233.432C530.208 233.432 531.192 234.176 531.6 235.4ZM548.828 224.168L548.492 226.352C548.084 226.16 547.58 225.896 547.124 225.896C545.588 225.896 545.276 227.84 545.108 228.944L544.34 233.768H547.316L547.004 235.784H544.028L542.564 245H540.404L541.868 235.784H540.884L541.196 233.768H542.18L543.044 228.296C543.428 225.848 544.58 223.88 547.364 223.88C547.892 223.88 548.396 223.976 548.828 224.168ZM553.398 233.432C556.758 233.432 558.99 236.024 558.462 239.408C557.934 242.792 554.862 245.384 551.502 245.384C548.142 245.384 545.934 242.792 546.462 239.408C546.99 236.024 550.038 233.432 553.398 233.432ZM553.086 235.496C550.95 235.496 548.958 237.272 548.622 239.408C548.286 241.52 549.702 243.32 551.838 243.32C553.974 243.32 555.966 241.52 556.302 239.408C556.638 237.272 555.222 235.496 553.086 235.496ZM563.623 233.768L563.335 235.592H563.407C564.151 234.272 565.375 233.432 566.815 233.432C567.439 233.432 568.039 233.648 568.519 233.984L567.223 235.952C566.887 235.616 566.479 235.496 565.975 235.496C563.647 235.496 562.999 237.656 562.711 239.48L561.847 245H559.687L561.463 233.768H563.623ZM582.67 235.4L580.774 236.336C580.606 235.784 580.126 235.352 579.502 235.352C578.902 235.352 578.254 235.832 578.134 236.456C577.99 237.44 579.214 237.872 580.438 238.472C581.662 239.072 582.814 239.888 582.526 241.664C582.19 243.8 580.15 245.384 578.062 245.384C576.43 245.384 574.942 244.448 574.582 242.864L576.574 242.024C576.886 242.864 577.342 243.464 578.374 243.464C579.286 243.464 580.174 242.84 580.342 241.88C580.438 241.28 580.174 240.992 579.742 240.656L577.798 239.528C576.67 238.856 575.854 238.232 576.094 236.696C576.382 234.872 578.086 233.432 579.91 233.432C581.278 233.432 582.262 234.176 582.67 235.4ZM589.697 224.168L587.513 237.992L592.409 233.768H595.265L589.721 238.424L593.969 245H591.161L587.969 239.888L587.105 240.632L586.409 245H584.249L587.537 224.168H589.697ZM599.607 233.768L597.831 245H595.671L597.447 233.768H599.607ZM599.583 227.12C600.399 227.12 600.975 227.792 600.831 228.632C600.711 229.448 599.919 230.096 599.103 230.096C598.287 230.096 597.735 229.448 597.855 228.632C597.999 227.792 598.767 227.12 599.583 227.12ZM606.829 224.168L603.541 245H601.381L604.669 224.168H606.829ZM612.173 224.168L608.885 245H606.725L610.013 224.168H612.173ZM629.45 239.744H620.882C620.594 241.664 621.602 243.464 623.666 243.464C625.322 243.464 626.354 242.624 627.386 241.28L629.042 242.312C627.674 244.256 625.514 245.384 623.33 245.384C619.898 245.384 618.242 242.792 618.746 239.48C619.298 236.024 621.554 233.432 625.178 233.432C628.754 233.432 630.026 236.072 629.498 239.408L629.45 239.744ZM621.242 238.112H627.53C627.554 236.432 626.618 235.304 624.89 235.304C623.21 235.304 621.77 236.504 621.242 238.112ZM634.401 233.768L634.161 235.28H634.209C635.073 234.08 636.513 233.432 637.881 233.432C641.049 233.432 641.529 235.568 641.097 238.304L640.041 245H637.881L638.889 238.568C639.201 236.648 639.153 235.352 636.945 235.352C634.161 235.352 633.777 237.8 633.441 239.84L632.625 245H630.465L632.241 233.768H634.401ZM646.315 224.168H648.475L646.723 235.28H646.771C647.635 234.08 649.075 233.432 650.443 233.432C653.611 233.432 654.091 235.568 653.659 238.304L652.603 245H650.443L651.451 238.568C651.763 236.648 651.715 235.352 649.507 235.352C646.723 235.352 646.339 237.8 646.003 239.84L645.187 245H643.027L646.315 224.168ZM660.678 243.464C663.03 243.464 664.614 241.592 664.974 239.384C665.31 237.2 664.302 235.352 661.974 235.352C659.742 235.352 658.11 237.296 657.774 239.384C657.438 241.496 658.398 243.464 660.678 243.464ZM667.902 233.768L666.126 245H663.966L664.254 243.248H664.206C663.126 244.52 661.638 245.384 660.03 245.384C656.598 245.384 655.11 242.528 655.638 239.312C656.118 236.24 658.59 233.432 661.854 233.432C663.51 233.432 664.734 234.296 665.406 235.64H665.454L665.742 233.768H667.902ZM672.862 233.768L672.622 235.28H672.67C673.534 234.08 674.974 233.432 676.342 233.432C679.51 233.432 679.99 235.568 679.557 238.304L678.502 245H676.342L677.35 238.568C677.662 236.648 677.614 235.352 675.406 235.352C672.622 235.352 672.238 237.8 671.902 239.84L671.086 245H668.926L670.702 233.768H672.862ZM691.448 234.176L691.016 236.96C690.32 235.976 689.336 235.448 688.04 235.448C685.928 235.448 684.008 237.32 683.672 239.384C683.312 241.688 684.656 243.368 686.936 243.368C688.184 243.368 689.288 242.792 690.248 241.88L689.792 244.64C688.736 245.168 687.704 245.384 686.576 245.384C683.264 245.384 680.96 242.84 681.488 239.48C682.04 236 685.136 233.432 688.592 233.432C689.6 233.432 690.68 233.672 691.448 234.176ZM702.505 239.744H693.937C693.649 241.664 694.657 243.464 696.721 243.464C698.377 243.464 699.409 242.624 700.441 241.28L702.097 242.312C700.729 244.256 698.569 245.384 696.385 245.384C692.953 245.384 691.297 242.792 691.801 239.48C692.353 236.024 694.609 233.432 698.233 233.432C701.809 233.432 703.081 236.072 702.553 239.408L702.505 239.744ZM694.297 238.112H700.585C700.609 236.432 699.673 235.304 697.945 235.304C696.265 235.304 694.825 236.504 694.297 238.112ZM707.383 233.768L707.167 235.184H707.215C707.983 234.2 709.231 233.432 710.455 233.432C711.919 233.432 712.855 234.176 713.383 235.424C714.271 234.224 715.735 233.432 717.151 233.432C720.103 233.432 720.511 235.736 720.103 238.28L719.047 245H716.887L717.895 238.64C718.111 237.2 718.231 235.352 716.335 235.352C714.031 235.352 713.479 237.752 713.191 239.48L712.327 245H710.167L711.103 239.048C711.343 237.584 711.631 235.352 709.639 235.352C707.335 235.352 706.759 237.728 706.471 239.48L705.607 245H703.447L705.223 233.768H707.383ZM732.622 239.744H724.054C723.766 241.664 724.774 243.464 726.838 243.464C728.494 243.464 729.526 242.624 730.558 241.28L732.214 242.312C730.846 244.256 728.686 245.384 726.502 245.384C723.07 245.384 721.414 242.792 721.918 239.48C722.47 236.024 724.726 233.432 728.35 233.432C731.926 233.432 733.198 236.072 732.67 239.408L732.622 239.744ZM724.414 238.112H730.702C730.726 236.432 729.79 235.304 728.062 235.304C726.382 235.304 724.942 236.504 724.414 238.112ZM737.572 233.768L737.332 235.28H737.38C738.244 234.08 739.684 233.432 741.052 233.432C744.22 233.432 744.7 235.568 744.268 238.304L743.212 245H741.052L742.06 238.568C742.372 236.648 742.324 235.352 740.116 235.352C737.332 235.352 736.948 237.8 736.612 239.84L735.796 245H733.636L735.412 233.768H737.572ZM750.135 235.784L748.671 245H746.511L747.975 235.784H746.799L747.111 233.768H748.287L748.959 229.472H751.119L750.447 233.768H752.559L752.247 235.784H750.135ZM754.341 242.6C755.109 242.6 755.637 243.248 755.517 243.992C755.397 244.76 754.653 245.384 753.885 245.384C753.117 245.384 752.613 244.76 752.733 243.992C752.853 243.248 753.573 242.6 754.341 242.6ZM776.63 226.52C781.814 226.52 785.438 230.768 784.622 235.952C783.758 241.328 778.862 245.384 773.63 245.384C768.398 245.384 764.798 241.328 765.662 235.952C766.478 230.768 771.446 226.52 776.63 226.52ZM773.966 243.272C777.878 243.272 781.694 240.08 782.366 235.952C782.99 231.968 780.542 228.632 776.294 228.632C772.046 228.632 768.542 231.968 767.918 235.952C767.246 240.08 770.054 243.272 773.966 243.272ZM786.809 233.768H788.969L787.985 239.984C787.697 241.784 787.913 243.368 790.049 243.368C792.185 243.368 792.881 241.784 793.169 239.984L794.153 233.768H796.313L795.305 240.224C794.801 243.296 793.025 245.384 789.713 245.384C786.401 245.384 785.297 243.296 785.801 240.224L786.809 233.768ZM801.49 233.768L801.202 235.592H801.274C802.018 234.272 803.242 233.432 804.682 233.432C805.306 233.432 805.906 233.648 806.386 233.984L805.09 235.952C804.754 235.616 804.346 235.496 803.842 235.496C801.514 235.496 800.866 237.656 800.578 239.48L799.714 245H797.554L799.33 233.768H801.49ZM816.697 235.784L815.233 245H813.073L814.537 235.784H813.361L813.673 233.768H814.849L815.521 229.472H817.681L817.009 233.768H819.121L818.809 235.784H816.697ZM829.231 239.744H820.663C820.375 241.664 821.383 243.464 823.447 243.464C825.103 243.464 826.135 242.624 827.167 241.28L828.823 242.312C827.455 244.256 825.295 245.384 823.111 245.384C819.679 245.384 818.023 242.792 818.527 239.48C819.079 236.024 821.335 233.432 824.959 233.432C828.535 233.432 829.807 236.072 829.279 239.408L829.231 239.744ZM821.023 238.112H827.311C827.335 236.432 826.399 235.304 824.671 235.304C822.991 235.304 821.551 236.504 821.023 238.112ZM835.334 243.464C837.686 243.464 839.27 241.592 839.63 239.384C839.966 237.2 838.958 235.352 836.63 235.352C834.398 235.352 832.766 237.296 832.43 239.384C832.094 241.496 833.054 243.464 835.334 243.464ZM842.558 233.768L840.782 245H838.622L838.91 243.248H838.862C837.782 244.52 836.294 245.384 834.686 245.384C831.254 245.384 829.766 242.528 830.294 239.312C830.774 236.24 833.246 233.432 836.51 233.432C838.166 233.432 839.39 234.296 840.062 235.64H840.11L840.398 233.768H842.558ZM847.446 233.768L847.23 235.184H847.278C848.046 234.2 849.294 233.432 850.518 233.432C851.982 233.432 852.918 234.176 853.446 235.424C854.334 234.224 855.798 233.432 857.214 233.432C860.166 233.432 860.574 235.736 860.166 238.28L859.11 245H856.95L857.958 238.64C858.174 237.2 858.294 235.352 856.398 235.352C854.094 235.352 853.542 237.752 853.254 239.48L852.39 245H850.23L851.166 239.048C851.406 237.584 851.694 235.352 849.702 235.352C847.398 235.352 846.822 237.728 846.534 239.48L845.67 245H843.51L845.286 233.768H847.446ZM873.334 233.768L871.558 245H869.398L871.174 233.768H873.334ZM873.31 227.12C874.126 227.12 874.702 227.792 874.558 228.632C874.438 229.448 873.646 230.096 872.83 230.096C872.014 230.096 871.462 229.448 871.582 228.632C871.726 227.792 872.494 227.12 873.31 227.12ZM882.787 235.4L880.891 236.336C880.723 235.784 880.243 235.352 879.619 235.352C879.019 235.352 878.371 235.832 878.251 236.456C878.107 237.44 879.331 237.872 880.555 238.472C881.779 239.072 882.931 239.888 882.643 241.664C882.307 243.8 880.267 245.384 878.179 245.384C876.547 245.384 875.059 244.448 874.699 242.864L876.691 242.024C877.003 242.864 877.459 243.464 878.491 243.464C879.403 243.464 880.291 242.84 880.459 241.88C880.555 241.28 880.291 240.992 879.859 240.656L877.915 239.528C876.787 238.856 875.971 238.232 876.211 236.696C876.499 234.872 878.203 233.432 880.027 233.432C881.395 233.432 882.379 234.176 882.787 235.4ZM896.248 243.464C898.6 243.464 900.184 241.592 900.544 239.384C900.88 237.2 899.872 235.352 897.544 235.352C895.312 235.352 893.68 237.296 893.344 239.384C893.008 241.496 893.968 243.464 896.248 243.464ZM899.536 245L899.824 243.248H899.776C898.696 244.52 897.184 245.384 895.6 245.384C892.144 245.384 890.68 242.528 891.208 239.312C891.688 236.24 894.16 233.432 897.4 233.432C899.08 233.432 900.304 234.296 900.976 235.64H901.024L902.824 224.168H904.984L901.696 245H899.536ZM915.2 239.744H906.632C906.344 241.664 907.352 243.464 909.416 243.464C911.072 243.464 912.104 242.624 913.136 241.28L914.792 242.312C913.424 244.256 911.264 245.384 909.08 245.384C905.648 245.384 903.992 242.792 904.496 239.48C905.048 236.024 907.304 233.432 910.928 233.432C914.504 233.432 915.776 236.072 915.248 239.408L915.2 239.744ZM906.992 238.112H913.28C913.304 236.432 912.368 235.304 910.64 235.304C908.96 235.304 907.52 236.504 906.992 238.112ZM921.303 243.464C923.655 243.464 925.239 241.592 925.599 239.384C925.935 237.2 924.927 235.352 922.599 235.352C920.367 235.352 918.735 237.296 918.399 239.384C918.063 241.496 919.023 243.464 921.303 243.464ZM924.591 245L924.879 243.248H924.831C923.751 244.52 922.239 245.384 920.655 245.384C917.199 245.384 915.735 242.528 916.263 239.312C916.743 236.24 919.215 233.432 922.455 233.432C924.135 233.432 925.359 234.296 926.031 235.64H926.079L927.879 224.168H930.039L926.751 245H924.591ZM933.99 233.768L932.214 245H930.054L931.83 233.768H933.99ZM933.966 227.12C934.782 227.12 935.358 227.792 935.214 228.632C935.094 229.448 934.302 230.096 933.486 230.096C932.67 230.096 932.118 229.448 932.238 228.632C932.382 227.792 933.15 227.12 933.966 227.12ZM945.628 234.176L945.196 236.96C944.5 235.976 943.516 235.448 942.22 235.448C940.108 235.448 938.188 237.32 937.852 239.384C937.492 241.688 938.836 243.368 941.116 243.368C942.364 243.368 943.468 242.792 944.428 241.88L943.972 244.64C942.916 245.168 941.884 245.384 940.756 245.384C937.444 245.384 935.14 242.84 935.668 239.48C936.22 236 939.316 233.432 942.772 233.432C943.78 233.432 944.86 233.672 945.628 234.176ZM951.349 243.464C953.701 243.464 955.285 241.592 955.645 239.384C955.981 237.2 954.973 235.352 952.645 235.352C950.413 235.352 948.781 237.296 948.445 239.384C948.109 241.496 949.069 243.464 951.349 243.464ZM958.573 233.768L956.797 245H954.637L954.925 243.248H954.877C953.797 244.52 952.309 245.384 950.701 245.384C947.269 245.384 945.781 242.528 946.309 239.312C946.789 236.24 949.261 233.432 952.525 233.432C954.181 233.432 955.405 234.296 956.077 235.64H956.125L956.413 233.768H958.573ZM963.533 235.784L962.069 245H959.909L961.373 235.784H960.197L960.509 233.768H961.685L962.357 229.472H964.517L963.845 233.768H965.957L965.645 235.784H963.533ZM976.067 239.744H967.499C967.211 241.664 968.219 243.464 970.283 243.464C971.939 243.464 972.971 242.624 974.003 241.28L975.659 242.312C974.291 244.256 972.131 245.384 969.947 245.384C966.515 245.384 964.859 242.792 965.363 239.48C965.915 236.024 968.171 233.432 971.795 233.432C975.371 233.432 976.643 236.072 976.115 239.408L976.067 239.744ZM967.859 238.112H974.147C974.171 236.432 973.235 235.304 971.507 235.304C969.827 235.304 968.387 236.504 967.859 238.112ZM982.17 243.464C984.522 243.464 986.106 241.592 986.466 239.384C986.802 237.2 985.794 235.352 983.466 235.352C981.234 235.352 979.602 237.296 979.266 239.384C978.93 241.496 979.89 243.464 982.17 243.464ZM985.458 245L985.746 243.248H985.698C984.618 244.52 983.106 245.384 981.522 245.384C978.066 245.384 976.602 242.528 977.13 239.312C977.61 236.24 980.082 233.432 983.322 233.432C985.002 233.432 986.226 234.296 986.898 235.64H986.946L988.746 224.168H990.906L987.618 245H985.458ZM265.424 264.784L263.96 274H261.8L263.264 264.784H262.088L262.4 262.768H263.576L264.248 258.472H266.408L265.736 262.768H267.848L267.536 264.784H265.424ZM274.07 262.432C277.43 262.432 279.662 265.024 279.134 268.408C278.606 271.792 275.534 274.384 272.174 274.384C268.814 274.384 266.606 271.792 267.134 268.408C267.662 265.024 270.71 262.432 274.07 262.432ZM273.758 264.496C271.622 264.496 269.63 266.272 269.294 268.408C268.958 270.52 270.374 272.32 272.51 272.32C274.646 272.32 276.638 270.52 276.974 268.408C277.31 266.272 275.894 264.496 273.758 264.496ZM297.715 268.744H289.147C288.859 270.664 289.867 272.464 291.931 272.464C293.587 272.464 294.619 271.624 295.651 270.28L297.307 271.312C295.939 273.256 293.779 274.384 291.595 274.384C288.163 274.384 286.507 271.792 287.011 268.48C287.563 265.024 289.819 262.432 293.443 262.432C297.019 262.432 298.291 265.072 297.763 268.408L297.715 268.744ZM289.507 267.112H295.795C295.819 265.432 294.883 264.304 293.155 264.304C291.475 264.304 290.035 265.504 289.507 267.112ZM302.666 262.768L302.426 264.28H302.474C303.338 263.08 304.778 262.432 306.146 262.432C309.314 262.432 309.794 264.568 309.362 267.304L308.306 274H306.146L307.154 267.568C307.466 265.648 307.418 264.352 305.21 264.352C302.426 264.352 302.042 266.8 301.706 268.84L300.89 274H298.73L300.506 262.768H302.666ZM319.069 264.4L317.173 265.336C317.005 264.784 316.525 264.352 315.901 264.352C315.301 264.352 314.653 264.832 314.533 265.456C314.389 266.44 315.613 266.872 316.837 267.472C318.061 268.072 319.213 268.888 318.925 270.664C318.589 272.8 316.549 274.384 314.461 274.384C312.829 274.384 311.341 273.448 310.981 271.864L312.973 271.024C313.285 271.864 313.741 272.464 314.773 272.464C315.685 272.464 316.573 271.84 316.741 270.88C316.837 270.28 316.573 269.992 316.141 269.656L314.197 268.528C313.069 267.856 312.253 267.232 312.493 265.696C312.781 263.872 314.485 262.432 316.309 262.432C317.677 262.432 318.661 263.176 319.069 264.4ZM322.184 262.768H324.344L323.36 268.984C323.072 270.784 323.288 272.368 325.424 272.368C327.56 272.368 328.256 270.784 328.544 268.984L329.528 262.768H331.688L330.68 269.224C330.176 272.296 328.4 274.384 325.088 274.384C321.776 274.384 320.672 272.296 321.176 269.224L322.184 262.768ZM336.865 262.768L336.577 264.592H336.649C337.393 263.272 338.617 262.432 340.057 262.432C340.681 262.432 341.281 262.648 341.761 262.984L340.465 264.952C340.129 264.616 339.721 264.496 339.217 264.496C336.889 264.496 336.241 266.656 335.953 268.48L335.089 274H332.929L334.705 262.768H336.865ZM345.615 262.768L343.839 274H341.679L343.455 262.768H345.615ZM345.591 256.12C346.407 256.12 346.983 256.792 346.839 257.632C346.719 258.448 345.927 259.096 345.111 259.096C344.295 259.096 343.743 258.448 343.863 257.632C344.007 256.792 344.775 256.12 345.591 256.12ZM351.229 262.768L350.989 264.28H351.037C351.901 263.08 353.341 262.432 354.709 262.432C357.877 262.432 358.357 264.568 357.925 267.304L356.869 274H354.709L355.717 267.568C356.029 265.648 355.981 264.352 353.773 264.352C350.989 264.352 350.605 266.8 350.269 268.84L349.453 274H347.293L349.069 262.768H351.229ZM364.919 272.464C367.271 272.464 368.855 270.592 369.215 268.384C369.551 266.2 368.543 264.352 366.215 264.352C363.983 264.352 362.351 266.296 362.015 268.384C361.679 270.496 362.639 272.464 364.919 272.464ZM372.143 262.768L370.391 273.784C369.791 277.648 368.255 280.432 363.887 280.432C360.767 280.432 358.799 278.512 359.255 275.344H361.415C361.103 277.36 362.303 278.512 364.271 278.512C366.935 278.512 367.775 276.688 368.135 274.384L368.495 272.248H368.447C367.367 273.52 365.855 274.384 364.271 274.384C360.815 274.384 359.351 271.528 359.879 268.312C360.359 265.24 362.831 262.432 366.071 262.432C367.751 262.432 368.975 263.296 369.623 264.688H369.671L369.983 262.768H372.143ZM385.193 272.464C387.545 272.464 389.129 270.592 389.489 268.384C389.825 266.2 388.817 264.352 386.489 264.352C384.257 264.352 382.625 266.296 382.289 268.384C381.953 270.496 382.913 272.464 385.193 272.464ZM392.417 262.768L390.641 274H388.481L388.769 272.248H388.721C387.641 273.52 386.153 274.384 384.545 274.384C381.113 274.384 379.625 271.528 380.153 268.312C380.633 265.24 383.105 262.432 386.369 262.432C388.025 262.432 389.249 263.296 389.921 264.64H389.969L390.257 262.768H392.417ZM408.155 264.4L406.259 265.336C406.091 264.784 405.611 264.352 404.987 264.352C404.387 264.352 403.739 264.832 403.619 265.456C403.475 266.44 404.699 266.872 405.923 267.472C407.147 268.072 408.299 268.888 408.011 270.664C407.675 272.8 405.635 274.384 403.547 274.384C401.915 274.384 400.427 273.448 400.067 271.864L402.059 271.024C402.371 271.864 402.827 272.464 403.859 272.464C404.771 272.464 405.659 271.84 405.827 270.88C405.923 270.28 405.659 269.992 405.227 269.656L403.283 268.528C402.155 267.856 401.339 267.232 401.579 265.696C401.867 263.872 403.571 262.432 405.395 262.432C406.763 262.432 407.747 263.176 408.155 264.4ZM413.454 262.768L413.238 264.184H413.286C414.054 263.2 415.302 262.432 416.526 262.432C417.99 262.432 418.926 263.176 419.454 264.424C420.342 263.224 421.806 262.432 423.222 262.432C426.174 262.432 426.582 264.736 426.174 267.28L425.118 274H422.958L423.966 267.64C424.182 266.2 424.302 264.352 422.406 264.352C420.102 264.352 419.55 266.752 419.262 268.48L418.398 274H416.238L417.174 268.048C417.414 266.584 417.702 264.352 415.71 264.352C413.406 264.352 412.83 266.728 412.542 268.48L411.678 274H409.518L411.294 262.768H413.454ZM434.804 262.432C438.164 262.432 440.396 265.024 439.868 268.408C439.34 271.792 436.268 274.384 432.908 274.384C429.548 274.384 427.34 271.792 427.868 268.408C428.396 265.024 431.444 262.432 434.804 262.432ZM434.492 264.496C432.356 264.496 430.364 266.272 430.028 268.408C429.692 270.52 431.108 272.32 433.244 272.32C435.38 272.32 437.372 270.52 437.708 268.408C438.044 266.272 436.628 264.496 434.492 264.496ZM447.765 262.432C451.125 262.432 453.357 265.024 452.829 268.408C452.301 271.792 449.229 274.384 445.869 274.384C442.509 274.384 440.301 271.792 440.829 268.408C441.357 265.024 444.405 262.432 447.765 262.432ZM447.453 264.496C445.317 264.496 443.325 266.272 442.989 268.408C442.653 270.52 444.069 272.32 446.205 272.32C448.341 272.32 450.333 270.52 450.669 268.408C451.005 266.272 449.589 264.496 447.453 264.496ZM457.846 264.784L456.382 274H454.222L455.686 264.784H454.51L454.822 262.768H455.998L456.67 258.472H458.83L458.158 262.768H460.27L459.958 264.784H457.846ZM462.987 253.168H465.147L463.395 264.28H463.443C464.307 263.08 465.747 262.432 467.115 262.432C470.283 262.432 470.763 264.568 470.331 267.304L469.275 274H467.115L468.123 267.568C468.435 265.648 468.387 264.352 466.179 264.352C463.395 264.352 463.011 266.8 462.675 268.84L461.859 274H459.699L462.987 253.168ZM483.135 264.784L481.671 274H479.511L480.975 264.784H479.799L480.111 262.768H481.287L481.959 258.472H484.119L483.447 262.768H485.559L485.247 264.784H483.135ZM489.045 262.768L488.757 264.592H488.829C489.573 263.272 490.797 262.432 492.237 262.432C492.861 262.432 493.461 262.648 493.941 262.984L492.645 264.952C492.309 264.616 491.901 264.496 491.397 264.496C489.069 264.496 488.421 266.656 488.133 268.48L487.269 274H485.109L486.885 262.768H489.045ZM498.185 272.464C500.537 272.464 502.121 270.592 502.481 268.384C502.817 266.2 501.809 264.352 499.481 264.352C497.249 264.352 495.617 266.296 495.281 268.384C494.945 270.496 495.905 272.464 498.185 272.464ZM505.409 262.768L503.633 274H501.473L501.761 272.248H501.713C500.633 273.52 499.145 274.384 497.537 274.384C494.105 274.384 492.617 271.528 493.145 268.312C493.625 265.24 496.097 262.432 499.361 262.432C501.017 262.432 502.241 263.296 502.913 264.64H502.961L503.249 262.768H505.409ZM510.369 262.768L510.129 264.28H510.177C511.041 263.08 512.481 262.432 513.849 262.432C517.017 262.432 517.497 264.568 517.065 267.304L516.009 274H513.849L514.857 267.568C515.169 265.648 515.121 264.352 512.913 264.352C510.129 264.352 509.745 266.8 509.409 268.84L508.593 274H506.433L508.209 262.768H510.369ZM526.772 264.4L524.876 265.336C524.708 264.784 524.228 264.352 523.604 264.352C523.004 264.352 522.356 264.832 522.236 265.456C522.092 266.44 523.316 266.872 524.54 267.472C525.764 268.072 526.916 268.888 526.628 270.664C526.292 272.8 524.252 274.384 522.164 274.384C520.532 274.384 519.044 273.448 518.684 271.864L520.676 271.024C520.988 271.864 521.444 272.464 522.476 272.464C523.388 272.464 524.276 271.84 524.444 270.88C524.54 270.28 524.276 269.992 523.844 269.656L521.9 268.528C520.772 267.856 519.956 267.232 520.196 265.696C520.484 263.872 522.188 262.432 524.012 262.432C525.38 262.432 526.364 263.176 526.772 264.4ZM532.623 262.768L530.847 274H528.687L530.463 262.768H532.623ZM532.599 256.12C533.415 256.12 533.991 256.792 533.847 257.632C533.727 258.448 532.935 259.096 532.119 259.096C531.303 259.096 530.751 258.448 530.871 257.632C531.015 256.792 531.783 256.12 532.599 256.12ZM538.237 264.784L536.773 274H534.613L536.077 264.784H534.901L535.213 262.768H536.389L537.061 258.472H539.221L538.549 262.768H540.661L540.349 264.784H538.237ZM544.506 262.768L542.73 274H540.57L542.346 262.768H544.506ZM544.482 256.12C545.298 256.12 545.874 256.792 545.73 257.632C545.61 258.448 544.818 259.096 544.002 259.096C543.186 259.096 542.634 258.448 542.754 257.632C542.898 256.792 543.666 256.12 544.482 256.12ZM552.999 262.432C556.359 262.432 558.591 265.024 558.063 268.408C557.535 271.792 554.463 274.384 551.103 274.384C547.743 274.384 545.535 271.792 546.063 268.408C546.591 265.024 549.639 262.432 552.999 262.432ZM552.687 264.496C550.551 264.496 548.559 266.272 548.223 268.408C547.887 270.52 549.303 272.32 551.439 272.32C553.575 272.32 555.567 270.52 555.903 268.408C556.239 266.272 554.823 264.496 552.687 264.496ZM563.08 262.768L562.84 264.28H562.888C563.752 263.08 565.192 262.432 566.56 262.432C569.728 262.432 570.208 264.568 569.776 267.304L568.72 274H566.56L567.568 267.568C567.88 265.648 567.832 264.352 565.624 264.352C562.84 264.352 562.456 266.8 562.12 268.84L561.304 274H559.144L560.92 262.768H563.08ZM574.611 271.144L576.363 271.888L572.163 278.296L570.915 277.744L574.611 271.144ZM588.87 253.168H591.03L589.278 264.28H589.326C590.19 263.08 591.63 262.432 592.998 262.432C596.166 262.432 596.646 264.568 596.214 267.304L595.158 274H592.998L594.006 267.568C594.318 265.648 594.27 264.352 592.062 264.352C589.278 264.352 588.894 266.8 588.558 268.84L587.742 274H585.582L588.87 253.168ZM608.848 268.744H600.28C599.992 270.664 601 272.464 603.064 272.464C604.72 272.464 605.752 271.624 606.784 270.28L608.44 271.312C607.072 273.256 604.912 274.384 602.728 274.384C599.296 274.384 597.64 271.792 598.144 268.48C598.696 265.024 600.952 262.432 604.576 262.432C608.152 262.432 609.424 265.072 608.896 268.408L608.848 268.744ZM600.64 267.112H606.928C606.952 265.432 606.016 264.304 604.288 264.304C602.608 264.304 601.168 265.504 600.64 267.112ZM615.407 253.168L612.119 274H609.959L613.247 253.168H615.407ZM620.847 272.464C623.199 272.464 624.783 270.592 625.143 268.384C625.479 266.2 624.471 264.352 622.143 264.352C619.911 264.352 618.279 266.296 617.943 268.384C617.607 270.496 618.567 272.464 620.847 272.464ZM618.951 262.768L618.663 264.64H618.711C619.815 263.296 621.279 262.432 622.959 262.432C626.199 262.432 627.807 265.24 627.327 268.312C626.799 271.528 624.423 274.384 620.967 274.384C619.383 274.384 618.159 273.52 617.511 272.248H617.463L616.167 280.432H614.007L616.791 262.768H618.951ZM632.935 262.768L631.159 274H628.999L630.775 262.768H632.935ZM632.911 256.12C633.727 256.12 634.303 256.792 634.159 257.632C634.039 258.448 633.247 259.096 632.431 259.096C631.615 259.096 631.063 258.448 631.183 257.632C631.327 256.792 632.095 256.12 632.911 256.12ZM638.549 262.768L638.309 264.28H638.357C639.221 263.08 640.661 262.432 642.029 262.432C645.197 262.432 645.677 264.568 645.245 267.304L644.189 274H642.029L643.037 267.568C643.349 265.648 643.301 264.352 641.093 264.352C638.309 264.352 637.925 266.8 637.589 268.84L636.773 274H634.613L636.389 262.768H638.549ZM652.24 272.464C654.592 272.464 656.176 270.592 656.536 268.384C656.872 266.2 655.864 264.352 653.536 264.352C651.304 264.352 649.672 266.296 649.336 268.384C649 270.496 649.96 272.464 652.24 272.464ZM659.464 262.768L657.712 273.784C657.112 277.648 655.576 280.432 651.208 280.432C648.088 280.432 646.12 278.512 646.576 275.344H648.736C648.424 277.36 649.624 278.512 651.592 278.512C654.256 278.512 655.096 276.688 655.456 274.384L655.816 272.248H655.768C654.688 273.52 653.176 274.384 651.592 274.384C648.136 274.384 646.672 271.528 647.2 268.312C647.68 265.24 650.152 262.432 653.392 262.432C655.072 262.432 656.296 263.296 656.944 264.688H656.992L657.304 262.768H659.464ZM670.605 272.08L666.933 262.768H669.453L672.117 269.896L676.773 262.768H679.197L667.317 280.432H664.869L670.605 272.08ZM685.398 262.432C688.758 262.432 690.99 265.024 690.462 268.408C689.934 271.792 686.862 274.384 683.502 274.384C680.142 274.384 677.934 271.792 678.462 268.408C678.99 265.024 682.038 262.432 685.398 262.432ZM685.086 264.496C682.95 264.496 680.958 266.272 680.622 268.408C680.286 270.52 681.702 272.32 683.838 272.32C685.974 272.32 687.966 270.52 688.302 268.408C688.638 266.272 687.222 264.496 685.086 264.496ZM693.223 262.768H695.383L694.399 268.984C694.111 270.784 694.327 272.368 696.463 272.368C698.599 272.368 699.295 270.784 699.583 268.984L700.567 262.768H702.727L701.719 269.224C701.215 272.296 699.439 274.384 696.127 274.384C692.815 274.384 691.711 272.296 692.215 269.224L693.223 262.768ZM714.697 264.784L713.233 274H711.073L712.537 264.784H711.361L711.673 262.768H712.849L713.521 258.472H715.681L715.009 262.768H717.121L716.809 264.784H714.697ZM719.839 253.168H721.999L720.247 264.28H720.295C721.159 263.08 722.599 262.432 723.967 262.432C727.135 262.432 727.615 264.568 727.182 267.304L726.127 274H723.967L724.975 267.568C725.287 265.648 725.239 264.352 723.031 264.352C720.247 264.352 719.863 266.8 719.527 268.84L718.711 274H716.551L719.839 253.168ZM733.193 262.768L732.905 264.592H732.977C733.721 263.272 734.945 262.432 736.385 262.432C737.009 262.432 737.609 262.648 738.089 262.984L736.793 264.952C736.457 264.616 736.049 264.496 735.545 264.496C733.217 264.496 732.569 266.656 732.281 268.48L731.417 274H729.257L731.033 262.768H733.193ZM741.943 262.768L740.167 274H738.007L739.783 262.768H741.943ZM741.919 256.12C742.735 256.12 743.311 256.792 743.167 257.632C743.047 258.448 742.255 259.096 741.439 259.096C740.623 259.096 740.071 258.448 740.191 257.632C740.335 256.792 741.103 256.12 741.919 256.12ZM746.021 262.768L748.133 269.776L752.477 262.768H754.901L747.389 274.384L743.597 262.768H746.021ZM765.012 268.744H756.444C756.156 270.664 757.164 272.464 759.228 272.464C760.884 272.464 761.916 271.624 762.948 270.28L764.604 271.312C763.236 273.256 761.076 274.384 758.892 274.384C755.46 274.384 753.804 271.792 754.308 268.48C754.86 265.024 757.116 262.432 760.74 262.432C764.316 262.432 765.588 265.072 765.06 268.408L765.012 268.744ZM756.804 267.112H763.092C763.116 265.432 762.18 264.304 760.452 264.304C758.772 264.304 757.332 265.504 756.804 267.112ZM778.053 272.464C780.405 272.464 781.989 270.592 782.349 268.384C782.685 266.2 781.677 264.352 779.349 264.352C777.117 264.352 775.485 266.296 775.149 268.384C774.813 270.496 775.773 272.464 778.053 272.464ZM785.277 262.768L783.501 274H781.341L781.629 272.248H781.581C780.501 273.52 779.013 274.384 777.405 274.384C773.973 274.384 772.485 271.528 773.013 268.312C773.493 265.24 775.965 262.432 779.229 262.432C780.885 262.432 782.109 263.296 782.781 264.64H782.829L783.117 262.768H785.277ZM790.237 262.768L789.997 264.28H790.045C790.909 263.08 792.349 262.432 793.717 262.432C796.885 262.432 797.365 264.568 796.932 267.304L795.877 274H793.717L794.725 267.568C795.037 265.648 794.989 264.352 792.781 264.352C789.997 264.352 789.613 266.8 789.277 268.84L788.461 274H786.301L788.077 262.768H790.237ZM803.951 272.464C806.303 272.464 807.887 270.592 808.247 268.384C808.583 266.2 807.575 264.352 805.247 264.352C803.015 264.352 801.383 266.296 801.047 268.384C800.711 270.496 801.671 272.464 803.951 272.464ZM807.239 274L807.527 272.248H807.479C806.399 273.52 804.887 274.384 803.303 274.384C799.847 274.384 798.383 271.528 798.911 268.312C799.391 265.24 801.863 262.432 805.103 262.432C806.783 262.432 808.007 263.296 808.679 264.64H808.727L810.527 253.168H812.687L809.399 274H807.239ZM824.224 272.464C826.576 272.464 828.16 270.592 828.52 268.384C828.856 266.2 827.848 264.352 825.52 264.352C823.288 264.352 821.656 266.296 821.32 268.384C820.984 270.496 821.944 272.464 824.224 272.464ZM831.448 262.768L829.672 274H827.512L827.8 272.248H827.752C826.672 273.52 825.184 274.384 823.576 274.384C820.144 274.384 818.656 271.528 819.184 268.312C819.664 265.24 822.136 262.432 825.4 262.432C827.056 262.432 828.28 263.296 828.952 264.64H829L829.288 262.768H831.448ZM842.432 263.176L842 265.96C841.304 264.976 840.32 264.448 839.024 264.448C836.912 264.448 834.992 266.32 834.656 268.384C834.296 270.688 835.64 272.368 837.92 272.368C839.168 272.368 840.272 271.792 841.232 270.88L840.776 273.64C839.72 274.168 838.688 274.384 837.56 274.384C834.248 274.384 831.944 271.84 832.472 268.48C833.024 265 836.12 262.432 839.576 262.432C840.584 262.432 841.664 262.672 842.432 263.176ZM846.354 253.168H848.514L846.762 264.28H846.81C847.674 263.08 849.114 262.432 850.482 262.432C853.65 262.432 854.13 264.568 853.698 267.304L852.642 274H850.482L851.49 267.568C851.802 265.648 851.754 264.352 849.546 264.352C846.762 264.352 846.378 266.8 846.042 268.84L845.226 274H843.066L846.354 253.168ZM860.045 262.768L858.269 274H856.109L857.885 262.768H860.045ZM860.021 256.12C860.837 256.12 861.413 256.792 861.269 257.632C861.149 258.448 860.357 259.096 859.541 259.096C858.725 259.096 858.173 258.448 858.293 257.632C858.437 256.792 859.205 256.12 860.021 256.12ZM872.426 268.744H863.858C863.57 270.664 864.578 272.464 866.642 272.464C868.298 272.464 869.33 271.624 870.362 270.28L872.018 271.312C870.65 273.256 868.49 274.384 866.306 274.384C862.874 274.384 861.218 271.792 861.722 268.48C862.274 265.024 864.53 262.432 868.154 262.432C871.73 262.432 873.002 265.072 872.474 268.408L872.426 268.744ZM864.218 267.112H870.506C870.53 265.432 869.594 264.304 867.866 264.304C866.186 264.304 864.746 265.504 864.218 267.112ZM875.841 262.768L877.953 269.776L882.297 262.768H884.721L877.209 274.384L873.417 262.768H875.841ZM894.833 268.744H886.265C885.977 270.664 886.985 272.464 889.049 272.464C890.705 272.464 891.737 271.624 892.769 270.28L894.425 271.312C893.057 273.256 890.897 274.384 888.713 274.384C885.281 274.384 883.625 271.792 884.129 268.48C884.681 265.024 886.937 262.432 890.561 262.432C894.137 262.432 895.409 265.072 894.881 268.408L894.833 268.744ZM886.625 267.112H892.913C892.937 265.432 892.001 264.304 890.273 264.304C888.593 264.304 887.153 265.504 886.625 267.112ZM905.964 272.08L902.292 262.768H904.812L907.476 269.896L912.132 262.768H914.556L902.676 280.432H900.228L905.964 272.08ZM920.757 262.432C924.117 262.432 926.349 265.024 925.821 268.408C925.293 271.792 922.221 274.384 918.861 274.384C915.501 274.384 913.293 271.792 913.821 268.408C914.349 265.024 917.397 262.432 920.757 262.432ZM920.445 264.496C918.309 264.496 916.317 266.272 915.981 268.408C915.645 270.52 917.061 272.32 919.197 272.32C921.333 272.32 923.325 270.52 923.661 268.408C923.997 266.272 922.581 264.496 920.445 264.496ZM928.582 262.768H930.742L929.758 268.984C929.47 270.784 929.686 272.368 931.822 272.368C933.958 272.368 934.654 270.784 934.942 268.984L935.926 262.768H938.086L937.078 269.224C936.574 272.296 934.798 274.384 931.486 274.384C928.174 274.384 927.07 272.296 927.574 269.224L928.582 262.768ZM943.263 262.768L942.975 264.592H943.047C943.791 263.272 945.015 262.432 946.455 262.432C947.079 262.432 947.679 262.648 948.159 262.984L946.863 264.952C946.527 264.616 946.119 264.496 945.615 264.496C943.287 264.496 942.639 266.656 942.351 268.48L941.487 274H939.327L941.103 262.768H943.263ZM271.448 292.176L271.016 294.96C270.32 293.976 269.336 293.448 268.04 293.448C265.928 293.448 264.008 295.32 263.672 297.384C263.312 299.688 264.656 301.368 266.936 301.368C268.184 301.368 269.288 300.792 270.248 299.88L269.792 302.64C268.736 303.168 267.704 303.384 266.576 303.384C263.264 303.384 260.96 300.84 261.488 297.48C262.04 294 265.136 291.432 268.592 291.432C269.6 291.432 270.68 291.672 271.448 292.176ZM277.17 301.464C279.522 301.464 281.106 299.592 281.466 297.384C281.802 295.2 280.794 293.352 278.466 293.352C276.234 293.352 274.602 295.296 274.266 297.384C273.93 299.496 274.89 301.464 277.17 301.464ZM284.394 291.768L282.618 303H280.458L280.746 301.248H280.698C279.618 302.52 278.13 303.384 276.522 303.384C273.09 303.384 271.602 300.528 272.13 297.312C272.61 294.24 275.082 291.432 278.346 291.432C280.002 291.432 281.226 292.296 281.898 293.64H281.946L282.234 291.768H284.394ZM289.498 291.768L289.21 293.592H289.282C290.026 292.272 291.25 291.432 292.69 291.432C293.314 291.432 293.914 291.648 294.394 291.984L293.098 293.952C292.762 293.616 292.354 293.496 291.85 293.496C289.522 293.496 288.874 295.656 288.586 297.48L287.722 303H285.562L287.338 291.768H289.498ZM304.114 297.744H295.546C295.258 299.664 296.266 301.464 298.33 301.464C299.986 301.464 301.018 300.624 302.05 299.28L303.706 300.312C302.338 302.256 300.178 303.384 297.994 303.384C294.562 303.384 292.906 300.792 293.41 297.48C293.962 294.024 296.218 291.432 299.842 291.432C303.418 291.432 304.69 294.072 304.162 297.408L304.114 297.744ZM295.906 296.112H302.194C302.218 294.432 301.282 293.304 299.554 293.304C297.874 293.304 296.434 294.504 295.906 296.112ZM315.833 297.744H307.265C306.977 299.664 307.985 301.464 310.049 301.464C311.705 301.464 312.737 300.624 313.769 299.28L315.425 300.312C314.057 302.256 311.897 303.384 309.713 303.384C306.281 303.384 304.625 300.792 305.129 297.48C305.681 294.024 307.937 291.432 311.561 291.432C315.137 291.432 316.409 294.072 315.881 297.408L315.833 297.744ZM307.625 296.112H313.913C313.937 294.432 313.001 293.304 311.273 293.304C309.593 293.304 308.153 294.504 307.625 296.112ZM320.927 291.768L320.639 293.592H320.711C321.455 292.272 322.679 291.432 324.119 291.432C324.743 291.432 325.343 291.648 325.823 291.984L324.527 293.952C324.191 293.616 323.783 293.496 323.279 293.496C320.951 293.496 320.303 295.656 320.015 297.48L319.151 303H316.991L318.767 291.768H320.927ZM337.263 301.464C339.615 301.464 341.199 299.592 341.559 297.384C341.895 295.2 340.887 293.352 338.559 293.352C336.327 293.352 334.695 295.296 334.359 297.384C334.023 299.496 334.983 301.464 337.263 301.464ZM344.487 291.768L342.735 302.784C342.135 306.648 340.599 309.432 336.231 309.432C333.111 309.432 331.143 307.512 331.599 304.344H333.759C333.447 306.36 334.647 307.512 336.615 307.512C339.279 307.512 340.119 305.688 340.479 303.384L340.839 301.248H340.791C339.711 302.52 338.199 303.384 336.615 303.384C333.159 303.384 331.695 300.528 332.223 297.312C332.703 294.24 335.175 291.432 338.415 291.432C340.095 291.432 341.319 292.296 341.967 293.688H342.015L342.327 291.768H344.487ZM352.327 291.432C355.687 291.432 357.919 294.024 357.391 297.408C356.863 300.792 353.791 303.384 350.431 303.384C347.071 303.384 344.863 300.792 345.391 297.408C345.919 294.024 348.967 291.432 352.327 291.432ZM352.015 293.496C349.879 293.496 347.887 295.272 347.551 297.408C347.215 299.52 348.631 301.32 350.767 301.32C352.903 301.32 354.895 299.52 355.231 297.408C355.567 295.272 354.151 293.496 352.015 293.496ZM363.56 301.464C365.912 301.464 367.496 299.592 367.856 297.384C368.192 295.2 367.184 293.352 364.856 293.352C362.624 293.352 360.992 295.296 360.656 297.384C360.32 299.496 361.28 301.464 363.56 301.464ZM370.784 291.768L369.008 303H366.848L367.136 301.248H367.088C366.008 302.52 364.52 303.384 362.912 303.384C359.48 303.384 357.992 300.528 358.52 297.312C359 294.24 361.472 291.432 364.736 291.432C366.392 291.432 367.616 292.296 368.288 293.64H368.336L368.624 291.768H370.784ZM377.352 282.168L374.064 303H371.904L375.192 282.168H377.352ZM384.905 293.4L383.009 294.336C382.841 293.784 382.361 293.352 381.737 293.352C381.137 293.352 380.489 293.832 380.369 294.456C380.225 295.44 381.449 295.872 382.673 296.472C383.897 297.072 385.049 297.888 384.761 299.664C384.425 301.8 382.385 303.384 380.297 303.384C378.665 303.384 377.177 302.448 376.817 300.864L378.809 300.024C379.121 300.864 379.577 301.464 380.609 301.464C381.521 301.464 382.409 300.84 382.577 299.88C382.673 299.28 382.409 298.992 381.977 298.656L380.033 297.528C378.905 296.856 378.089 296.232 378.329 294.696C378.617 292.872 380.321 291.432 382.145 291.432C383.513 291.432 384.497 292.176 384.905 293.4ZM388.716 300.6C389.484 300.6 390.012 301.248 389.892 301.992C389.772 302.76 389.028 303.384 388.26 303.384C387.492 303.384 386.988 302.76 387.108 301.992C387.228 301.248 387.948 300.6 388.716 300.6Z" fill="#0E3D68"/>
<defs>
<filter id="filter0_d_2055_338" x="0.200001" y="0.200001" width="1086.6" height="422.6" filterUnits="userSpaceOnUse" color-interpolation-filters="sRGB">
<feFlood flood-opacity="0" result="BackgroundImageFix"/>
<feColorMatrix in="SourceAlpha" type="matrix" values="0 0 0 0 0 0 0 0 0 0 0 0 0 0 0 0 0 0 127 0" result="hardAlpha"/>
<feOffset dx="3" dy="6"/>
<feGaussianBlur stdDeviation="9.4"/>
<feComposite in2="hardAlpha" operator="out"/>
<feColorMatrix type="matrix" values="0 0 0 0 0 0 0 0 0 0 0 0 0 0 0 0 0 0 0.2 0"/>
<feBlend mode="normal" in2="BackgroundImageFix" result="effect1_dropShadow_2055_338"/>
<feBlend mode="normal" in="SourceGraphic" in2="effect1_dropShadow_2055_338" result="shape"/>
</filter>
</defs>
</svg>
