<svg width="362" height="317" viewBox="0 0 362 317" fill="none" xmlns="http://www.w3.org/2000/svg">
<rect width="362" height="317" rx="50" fill="#44739E"/>
<path d="M52.3068 82.664C56.3868 82.664 55.9068 87.968 55.2828 91.952C54.7308 95.336 53.5548 101.24 49.3548 101.24C45.3948 101.24 45.7308 96.176 46.4028 91.952C47.1228 87.368 48.4668 82.664 52.3068 82.664ZM52.0428 84.296C49.4748 84.176 48.6348 88.76 48.1308 91.952C47.6268 95.144 47.0268 99.608 49.6188 99.608C52.2108 99.608 53.0508 95.144 53.5548 91.952C54.0588 88.76 54.6348 84.296 52.0428 84.296ZM57.6897 88.688H59.2497L58.0257 96.416C57.7617 98.096 57.5937 99.728 59.1297 99.728C60.7137 99.728 61.0497 98.096 61.3377 96.416L62.5617 88.688H64.1217L62.7057 97.736C62.3697 99.8 61.1457 101.192 58.9377 101.192C56.7537 101.192 55.9377 99.824 56.2737 97.736L57.6897 88.688ZM67.7363 88.688L67.4723 90.32H67.5203C68.0003 89.456 68.8403 88.472 69.8723 88.496L69.5603 90.32L69.2723 90.296C67.6643 90.296 67.2323 91.856 66.9203 93.824L65.7923 101H64.2323L66.1763 88.688H67.7363ZM77.5304 99.92C78.9704 99.92 79.4984 98.504 80.0984 94.712C80.4104 92.816 80.8664 89.768 79.0664 89.768C77.4104 89.768 76.9304 92.312 76.5944 94.496C76.2104 96.872 75.8264 99.92 77.5304 99.92ZM77.6504 88.688L77.5304 89.528H77.5784C78.1544 88.856 78.7784 88.496 79.6664 88.496C82.5224 88.496 82.1144 92.216 81.7064 94.712C81.2744 97.496 80.6264 101.192 77.7704 101.192C76.8824 101.192 76.2584 100.736 75.8984 100.04H75.8504L74.9624 105.704H73.4024L76.0904 88.688H77.6504ZM87.1216 81.8L84.0736 101H82.5136L85.5616 81.8H87.1216ZM92.0482 94.64C92.4802 91.976 92.6242 89.768 91.0882 89.768C89.3602 89.768 88.8322 92.504 88.4962 94.592C87.7042 99.68 88.4962 99.92 89.4082 99.92C90.9202 99.92 91.4242 98.504 92.0482 94.64ZM94.4002 88.688L92.4562 101H90.8962L91.0402 100.04H90.9922C90.4402 100.736 89.6722 101.192 88.7842 101.192C86.8162 101.192 86.0242 100.088 86.8642 94.712C87.3202 91.952 87.9682 88.496 90.9442 88.496C91.8082 88.496 92.2882 88.856 92.6722 89.528H92.7202L92.8402 88.688H94.4002ZM101.447 88.976L101.159 90.776C100.847 90.368 100.415 89.96 99.8153 89.96C97.7993 89.96 97.0553 93.464 96.8153 94.88C96.6233 96.104 96.3113 99.728 98.1593 99.728C98.8793 99.728 99.4313 99.176 99.8873 98.624H99.9353L99.6233 100.568C99.0953 100.952 98.3513 101.192 97.7513 101.192C94.9193 101.192 94.8473 97.208 95.1833 95.096C95.5433 92.768 96.7193 88.496 99.8393 88.496C100.415 88.496 100.991 88.664 101.447 88.976ZM103.687 93.848H107.263L107.287 93.632C107.407 92.456 107.767 89.96 106.135 89.96C104.647 89.96 103.855 92.744 103.687 93.848ZM108.631 95.168H103.447L103.399 95.528C103.207 96.752 102.943 99.728 104.647 99.728C106.015 99.728 106.519 97.808 106.687 96.824H108.295C107.959 98.696 106.855 101.192 104.575 101.192C101.335 101.192 101.503 97.352 101.887 94.88C102.247 92.672 103.399 88.496 106.375 88.496C109.255 88.496 109.111 92.264 108.751 94.424L108.631 95.168ZM113.018 88.688L112.85 89.72H112.898C113.57 89 114.506 88.496 115.442 88.496C116.45 88.496 117.218 89.024 117.482 89.96C118.274 89.048 119.138 88.496 120.266 88.496C122.57 88.496 122.45 90.32 122.162 92.144L120.77 101H119.21L120.602 92.192C120.794 91.016 120.866 89.768 119.594 89.768C117.746 89.768 117.362 91.856 117.122 93.416L115.922 101H114.362L115.754 92.216C115.946 91.064 116.066 89.768 114.794 89.768C112.898 89.768 112.49 92.12 112.226 93.68L111.074 101H109.514L111.458 88.688H113.018ZM125.32 93.848H128.896L128.92 93.632C129.04 92.456 129.4 89.96 127.768 89.96C126.28 89.96 125.488 92.744 125.32 93.848ZM130.264 95.168H125.08L125.032 95.528C124.84 96.752 124.576 99.728 126.28 99.728C127.648 99.728 128.152 97.808 128.32 96.824H129.928C129.592 98.696 128.488 101.192 126.208 101.192C122.968 101.192 123.136 97.352 123.52 94.88C123.88 92.672 125.032 88.496 128.008 88.496C130.888 88.496 130.744 92.264 130.384 94.424L130.264 95.168ZM134.65 88.688L134.506 89.672C135.25 88.952 136.162 88.496 137.122 88.496C139.306 88.496 139.162 90.512 138.898 92.192L137.506 101H135.946L137.314 92.36C137.554 90.896 137.626 89.768 136.33 89.768C134.554 89.768 134.17 91.712 133.978 93.008L132.706 101H131.146L133.09 88.688H134.65ZM145.87 88.688L145.654 90.128H143.614L141.886 101H140.326L142.054 90.128H140.734L140.95 88.688H142.27L142.798 85.328H144.358L143.83 88.688H145.87ZM153.093 99.92C154.365 99.92 155.013 98.816 155.685 94.592C156.141 91.784 156.189 89.768 154.629 89.768C152.733 89.768 152.325 93.392 152.157 94.496C151.917 96.008 151.101 99.92 153.093 99.92ZM149.709 101L152.757 81.8H154.317L153.093 89.528H153.141C153.693 88.832 154.341 88.496 155.229 88.496C158.085 88.496 157.725 91.928 157.269 94.712C156.789 97.832 156.021 101.192 153.333 101.192C152.445 101.192 151.821 100.736 151.461 100.04H151.413L151.269 101H149.709ZM160.476 93.848H164.052L164.076 93.632C164.196 92.456 164.556 89.96 162.924 89.96C161.436 89.96 160.644 92.744 160.476 93.848ZM165.42 95.168H160.236L160.188 95.528C159.996 96.752 159.732 99.728 161.436 99.728C162.804 99.728 163.308 97.808 163.476 96.824H165.084C164.748 98.696 163.644 101.192 161.364 101.192C158.124 101.192 158.292 97.352 158.676 94.88C159.036 92.672 160.188 88.496 163.164 88.496C166.044 88.496 165.9 92.264 165.54 94.424L165.42 95.168ZM169.807 88.688L169.663 89.672C170.407 88.952 171.319 88.496 172.279 88.496C174.463 88.496 174.319 90.512 174.055 92.192L172.663 101H171.103L172.471 92.36C172.711 90.896 172.783 89.768 171.487 89.768C169.711 89.768 169.327 91.712 169.135 93.008L167.863 101H166.303L168.247 88.688H169.807ZM177.234 93.848H180.81L180.834 93.632C180.954 92.456 181.314 89.96 179.682 89.96C178.194 89.96 177.402 92.744 177.234 93.848ZM182.178 95.168H176.994L176.946 95.528C176.754 96.752 176.49 99.728 178.194 99.728C179.562 99.728 180.066 97.808 180.234 96.824H181.842C181.506 98.696 180.402 101.192 178.122 101.192C174.882 101.192 175.05 97.352 175.434 94.88C175.794 92.672 176.946 88.496 179.922 88.496C182.802 88.496 182.658 92.264 182.298 94.424L182.178 95.168ZM188.844 88.688L188.628 90.128H186.588L184.86 101H183.3L185.028 90.128H183.708L183.924 88.688H185.244L185.82 85.04C186.18 82.88 186.924 81.608 188.676 81.608C189.132 81.608 189.612 81.68 189.996 81.872L189.732 83.576C189.444 83.312 189.132 83.048 188.676 83.048C187.812 83.048 187.572 83.84 187.38 85.016L186.804 88.688H188.844ZM191.556 88.688L189.612 101H188.052L189.996 88.688H191.556ZM192.516 85.04C192.42 85.688 191.82 86.216 191.196 86.216C190.548 86.216 190.092 85.688 190.188 85.04C190.284 84.416 190.908 83.888 191.556 83.888C192.18 83.888 192.612 84.416 192.516 85.04ZM197.971 88.688L197.755 90.128H195.715L193.987 101H192.427L194.155 90.128H192.835L193.051 88.688H194.371L194.899 85.328H196.459L195.931 88.688H197.971ZM203.37 89.288L203.082 91.208H203.034C202.674 90.56 202.05 89.96 201.186 89.96C200.25 89.96 199.53 90.68 199.386 91.592C199.194 92.768 200.106 93.488 200.946 94.304C201.834 95.144 202.674 96.056 202.41 97.664C202.098 99.632 200.538 101.192 198.498 101.192C197.73 101.192 196.914 100.832 196.386 100.352L196.674 98.528C197.178 99.152 197.73 99.728 198.666 99.728C199.746 99.728 200.61 98.888 200.778 97.856C200.97 96.632 200.106 95.816 199.242 94.928C198.402 94.064 197.538 93.104 197.778 91.64C198.066 89.792 199.506 88.496 201.354 88.496C202.146 88.496 202.818 88.808 203.37 89.288ZM210.609 93.848H214.185L214.209 93.632C214.329 92.456 214.689 89.96 213.057 89.96C211.569 89.96 210.777 92.744 210.609 93.848ZM215.553 95.168H210.369L210.321 95.528C210.129 96.752 209.865 99.728 211.569 99.728C212.937 99.728 213.441 97.808 213.609 96.824H215.217C214.881 98.696 213.777 101.192 211.497 101.192C208.257 101.192 208.425 97.352 208.809 94.88C209.169 92.672 210.321 88.496 213.297 88.496C216.177 88.496 216.033 92.264 215.673 94.424L215.553 95.168ZM219.939 88.688L219.795 89.672C220.539 88.952 221.451 88.496 222.411 88.496C224.595 88.496 224.451 90.512 224.187 92.192L222.795 101H221.235L222.603 92.36C222.843 90.896 222.915 89.768 221.619 89.768C219.843 89.768 219.459 91.712 219.267 93.008L217.995 101H216.435L218.379 88.688H219.939ZM231.519 89.288L231.231 91.208H231.183C230.823 90.56 230.199 89.96 229.335 89.96C228.399 89.96 227.679 90.68 227.535 91.592C227.343 92.768 228.255 93.488 229.095 94.304C229.983 95.144 230.823 96.056 230.559 97.664C230.247 99.632 228.687 101.192 226.647 101.192C225.879 101.192 225.063 100.832 224.535 100.352L224.823 98.528C225.327 99.152 225.879 99.728 226.815 99.728C227.895 99.728 228.759 98.888 228.927 97.856C229.119 96.632 228.255 95.816 227.391 94.928C226.551 94.064 225.687 93.104 225.927 91.64C226.215 89.792 227.655 88.496 229.503 88.496C230.295 88.496 230.967 88.808 231.519 89.288ZM233.494 88.688H235.054L233.83 96.416C233.566 98.096 233.398 99.728 234.934 99.728C236.518 99.728 236.854 98.096 237.142 96.416L238.366 88.688H239.926L238.51 97.736C238.174 99.8 236.95 101.192 234.742 101.192C232.558 101.192 231.742 99.824 232.078 97.736L233.494 88.688ZM243.541 88.688L243.277 90.32H243.325C243.805 89.456 244.645 88.472 245.677 88.496L245.365 90.32L245.077 90.296C243.469 90.296 243.037 91.856 242.725 93.824L241.597 101H240.037L241.981 88.688H243.541ZM247.218 93.848H250.794L250.818 93.632C250.938 92.456 251.298 89.96 249.666 89.96C248.178 89.96 247.386 92.744 247.218 93.848ZM252.162 95.168H246.978L246.93 95.528C246.738 96.752 246.474 99.728 248.178 99.728C249.546 99.728 250.05 97.808 250.218 96.824H251.826C251.49 98.696 250.386 101.192 248.106 101.192C244.866 101.192 245.034 97.352 245.418 94.88C245.778 92.672 246.93 88.496 249.906 88.496C252.786 88.496 252.642 92.264 252.282 94.424L252.162 95.168ZM264.589 89.288L264.301 91.208H264.253C263.893 90.56 263.269 89.96 262.405 89.96C261.469 89.96 260.749 90.68 260.605 91.592C260.413 92.768 261.325 93.488 262.165 94.304C263.053 95.144 263.893 96.056 263.629 97.664C263.317 99.632 261.757 101.192 259.717 101.192C258.949 101.192 258.133 100.832 257.605 100.352L257.893 98.528C258.397 99.152 258.949 99.728 259.885 99.728C260.965 99.728 261.829 98.888 261.997 97.856C262.189 96.632 261.325 95.816 260.461 94.928C259.621 94.064 258.757 93.104 258.997 91.64C259.285 89.792 260.725 88.496 262.573 88.496C263.365 88.496 264.037 88.808 264.589 89.288ZM267.117 93.848H270.693L270.717 93.632C270.837 92.456 271.197 89.96 269.565 89.96C268.077 89.96 267.285 92.744 267.117 93.848ZM272.061 95.168H266.877L266.829 95.528C266.637 96.752 266.373 99.728 268.077 99.728C269.445 99.728 269.949 97.808 270.117 96.824H271.725C271.389 98.696 270.285 101.192 268.005 101.192C264.765 101.192 264.933 97.352 265.317 94.88C265.677 92.672 266.829 88.496 269.805 88.496C272.685 88.496 272.541 92.264 272.181 94.424L272.061 95.168ZM278.751 94.64C279.183 91.976 279.327 89.768 277.791 89.768C276.063 89.768 275.535 92.504 275.199 94.592C274.407 99.68 275.199 99.92 276.111 99.92C277.623 99.92 278.127 98.504 278.751 94.64ZM281.103 88.688L279.159 101H277.599L277.743 100.04H277.695C277.143 100.736 276.375 101.192 275.487 101.192C273.519 101.192 272.727 100.088 273.567 94.712C274.023 91.952 274.671 88.496 277.647 88.496C278.511 88.496 278.991 88.856 279.375 89.528H279.423L279.543 88.688H281.103ZM284.814 88.688L284.646 89.72H284.694C285.366 89 286.302 88.496 287.238 88.496C288.246 88.496 289.014 89.024 289.278 89.96C290.07 89.048 290.934 88.496 292.062 88.496C294.366 88.496 294.246 90.32 293.958 92.144L292.566 101H291.006L292.398 92.192C292.59 91.016 292.662 89.768 291.39 89.768C289.542 89.768 289.158 91.856 288.918 93.416L287.718 101H286.158L287.55 92.216C287.742 91.064 287.862 89.768 286.59 89.768C284.694 89.768 284.286 92.12 284.022 93.68L282.87 101H281.31L283.254 88.688H284.814ZM299.325 81.8L296.277 101H294.717L297.765 81.8H299.325ZM300.843 93.848H304.419L304.443 93.632C304.563 92.456 304.923 89.96 303.291 89.96C301.803 89.96 301.011 92.744 300.843 93.848ZM305.787 95.168H300.603L300.555 95.528C300.363 96.752 300.099 99.728 301.803 99.728C303.171 99.728 303.675 97.808 303.843 96.824H305.451C305.115 98.696 304.011 101.192 301.731 101.192C298.491 101.192 298.659 97.352 299.043 94.88C299.403 92.672 300.555 88.496 303.531 88.496C306.411 88.496 306.267 92.264 305.907 94.424L305.787 95.168ZM313.222 89.288L312.934 91.208H312.886C312.526 90.56 311.902 89.96 311.038 89.96C310.102 89.96 309.382 90.68 309.238 91.592C309.046 92.768 309.958 93.488 310.798 94.304C311.686 95.144 312.526 96.056 312.262 97.664C311.95 99.632 310.39 101.192 308.35 101.192C307.582 101.192 306.766 100.832 306.238 100.352L306.526 98.528C307.03 99.152 307.582 99.728 308.518 99.728C309.598 99.728 310.462 98.888 310.63 97.856C310.822 96.632 309.958 95.816 309.094 94.928C308.254 94.064 307.39 93.104 307.63 91.64C307.918 89.792 309.358 88.496 311.206 88.496C311.998 88.496 312.67 88.808 313.222 89.288ZM319.902 89.288L319.614 91.208H319.566C319.206 90.56 318.582 89.96 317.718 89.96C316.782 89.96 316.062 90.68 315.918 91.592C315.726 92.768 316.638 93.488 317.478 94.304C318.366 95.144 319.206 96.056 318.942 97.664C318.63 99.632 317.07 101.192 315.03 101.192C314.262 101.192 313.446 100.832 312.918 100.352L313.206 98.528C313.71 99.152 314.262 99.728 315.198 99.728C316.278 99.728 317.142 98.888 317.31 97.856C317.502 96.632 316.638 95.816 315.774 94.928C314.934 94.064 314.07 93.104 314.31 91.64C314.598 89.792 316.038 88.496 317.886 88.496C318.678 88.496 319.35 88.808 319.902 89.288ZM47.8496 117.688L45.9056 130H44.3456L46.2896 117.688H47.8496ZM48.8096 114.04C48.7136 114.688 48.1136 115.216 47.4896 115.216C46.8416 115.216 46.3856 114.688 46.4816 114.04C46.5776 113.416 47.2016 112.888 47.8496 112.888C48.4736 112.888 48.9056 113.416 48.8096 114.04ZM51.5762 117.688L51.4322 118.672C52.1762 117.952 53.0882 117.496 54.0482 117.496C56.2322 117.496 56.0882 119.512 55.8242 121.192L54.4322 130H52.8722L54.2402 121.36C54.4802 119.896 54.5522 118.768 53.2562 118.768C51.4802 118.768 51.0962 120.712 50.9042 122.008L49.6322 130H48.0722L50.0162 117.688H51.5762ZM62.7954 117.688L62.5794 119.128H60.5394L58.8114 130H57.2514L58.9794 119.128H57.6594L57.8754 117.688H59.1954L59.7234 114.328H61.2834L60.7554 117.688H62.7954ZM64.0425 122.848H67.6185L67.6425 122.632C67.7625 121.456 68.1225 118.96 66.4905 118.96C65.0025 118.96 64.2105 121.744 64.0425 122.848ZM68.9865 124.168H63.8025L63.7545 124.528C63.5625 125.752 63.2985 128.728 65.0025 128.728C66.3705 128.728 66.8745 126.808 67.0425 125.824H68.6505C68.3145 127.696 67.2105 130.192 64.9305 130.192C61.6905 130.192 61.8585 126.352 62.2425 123.88C62.6025 121.672 63.7545 117.496 66.7305 117.496C69.6105 117.496 69.4665 121.264 69.1065 123.424L68.9865 124.168ZM72.0531 124.048C71.8371 125.392 71.2851 128.728 73.2531 128.728C74.9091 128.728 75.3651 126.304 75.7971 123.616C76.1571 121.36 76.4211 118.768 74.7171 118.768C73.5891 118.768 72.7731 119.536 72.0531 124.048ZM78.1491 117.688L76.1331 130.456C75.7731 132.76 75.3411 134.896 72.2211 134.896C70.0611 134.896 69.2451 133.6 69.5811 131.488L69.6531 131.032H71.1891L71.1651 131.248C70.9731 132.4 71.1171 133.432 72.4611 133.432C74.2131 133.432 74.3091 131.896 74.5251 130.576L74.7651 129.136C74.1411 129.736 73.4451 130 72.6291 130C69.5571 130 70.1811 125.752 70.5171 123.568C70.8531 121.504 71.7411 117.496 74.5971 117.496C75.4371 117.496 76.0611 117.88 76.4211 118.528H76.4691L76.5891 117.688H78.1491ZM81.8574 117.688L81.5934 119.32H81.6414C82.1214 118.456 82.9614 117.472 83.9934 117.496L83.6814 119.32L83.3934 119.296C81.7854 119.296 81.3534 120.856 81.0414 122.824L79.9134 130H78.3534L80.2974 117.688H81.8574ZM88.9427 123.64C89.3747 120.976 89.5187 118.768 87.9827 118.768C86.2547 118.768 85.7267 121.504 85.3907 123.592C84.5987 128.68 85.3907 128.92 86.3027 128.92C87.8147 128.92 88.3187 127.504 88.9427 123.64ZM91.2947 117.688L89.3507 130H87.7907L87.9347 129.04H87.8867C87.3347 129.736 86.5667 130.192 85.6787 130.192C83.7107 130.192 82.9187 129.088 83.7587 123.712C84.2147 120.952 84.8627 117.496 87.8387 117.496C88.7027 117.496 89.1827 117.856 89.5667 118.528H89.6147L89.7347 117.688H91.2947ZM97.6939 117.688L97.4779 119.128H95.4379L93.7099 130H92.1499L93.8779 119.128H92.5579L92.7739 117.688H94.0939L94.6219 114.328H96.1819L95.6539 117.688H97.6939ZM100.068 117.688L98.1244 130H96.5644L98.5084 117.688H100.068ZM101.028 114.04C100.932 114.688 100.332 115.216 99.7084 115.216C99.0604 115.216 98.6044 114.688 98.7004 114.04C98.7964 113.416 99.4204 112.888 100.068 112.888C100.692 112.888 101.124 113.416 101.028 114.04ZM105.451 117.496C108.691 117.496 108.331 121.528 107.971 123.832C107.587 126.16 106.675 130.192 103.435 130.192C100.195 130.192 100.531 126.16 100.915 123.832C101.275 121.528 102.211 117.496 105.451 117.496ZM105.211 118.96C103.339 118.96 102.691 122.656 102.523 123.832C102.331 125.032 101.779 128.728 103.651 128.728C105.523 128.728 106.171 125.032 106.363 123.832C106.531 122.656 107.083 118.96 105.211 118.96ZM112.326 117.688L112.182 118.672C112.926 117.952 113.838 117.496 114.798 117.496C116.982 117.496 116.838 119.512 116.574 121.192L115.182 130H113.622L114.99 121.36C115.23 119.896 115.302 118.768 114.006 118.768C112.23 118.768 111.846 120.712 111.654 122.008L110.382 130H108.822L110.766 117.688H112.326ZM125.85 117.688L123.906 130H122.346L124.29 117.688H125.85ZM126.81 114.04C126.714 114.688 126.114 115.216 125.49 115.216C124.842 115.216 124.386 114.688 124.482 114.04C124.578 113.416 125.202 112.888 125.85 112.888C126.474 112.888 126.906 113.416 126.81 114.04ZM129.576 117.688L129.432 118.672C130.176 117.952 131.088 117.496 132.048 117.496C134.232 117.496 134.088 119.512 133.824 121.192L132.432 130H130.872L132.24 121.36C132.48 119.896 132.552 118.768 131.256 118.768C129.48 118.768 129.096 120.712 128.904 122.008L127.632 130H126.072L128.016 117.688H129.576ZM140.795 117.688L140.579 119.128H138.539L136.811 130H135.251L136.979 119.128H135.659L135.875 117.688H137.195L137.723 114.328H139.283L138.755 117.688H140.795ZM144.803 117.496C148.043 117.496 147.683 121.528 147.323 123.832C146.939 126.16 146.027 130.192 142.787 130.192C139.547 130.192 139.883 126.16 140.267 123.832C140.627 121.528 141.562 117.496 144.803 117.496ZM144.562 118.96C142.691 118.96 142.043 122.656 141.875 123.832C141.683 125.032 141.131 128.728 143.003 128.728C144.875 128.728 145.523 125.032 145.715 123.832C145.883 122.656 146.435 118.96 144.562 118.96ZM161.22 117.688L154.284 134.704H152.652L154.668 129.664L153.636 117.688H155.22L155.724 127.624H155.796C156.18 126.568 156.54 125.512 156.948 124.456L159.588 117.688H161.22ZM165.709 117.496C168.949 117.496 168.589 121.528 168.229 123.832C167.845 126.16 166.933 130.192 163.693 130.192C160.453 130.192 160.789 126.16 161.173 123.832C161.533 121.528 162.469 117.496 165.709 117.496ZM165.469 118.96C163.597 118.96 162.949 122.656 162.781 123.832C162.589 125.032 162.037 128.728 163.909 128.728C165.781 128.728 166.429 125.032 166.621 123.832C166.789 122.656 167.341 118.96 165.469 118.96ZM170.928 117.688H172.488L171.264 125.416C171 127.096 170.832 128.728 172.368 128.728C173.952 128.728 174.288 127.096 174.576 125.416L175.8 117.688H177.36L175.944 126.736C175.608 128.8 174.384 130.192 172.176 130.192C169.992 130.192 169.176 128.824 169.512 126.736L170.928 117.688ZM180.975 117.688L180.711 119.32H180.759C181.239 118.456 182.079 117.472 183.111 117.496L182.799 119.32L182.511 119.296C180.903 119.296 180.471 120.856 180.159 122.824L179.031 130H177.471L179.415 117.688H180.975ZM190.889 117.688L190.745 118.672C191.489 117.952 192.401 117.496 193.361 117.496C195.545 117.496 195.401 119.512 195.137 121.192L193.745 130H192.185L193.553 121.36C193.793 119.896 193.865 118.768 192.569 118.768C190.793 118.768 190.409 120.712 190.217 122.008L188.945 130H187.385L189.329 117.688H190.889ZM198.316 122.848H201.892L201.916 122.632C202.036 121.456 202.396 118.96 200.764 118.96C199.276 118.96 198.484 121.744 198.316 122.848ZM203.26 124.168H198.076L198.028 124.528C197.836 125.752 197.572 128.728 199.276 128.728C200.644 128.728 201.148 126.808 201.316 125.824H202.924C202.588 127.696 201.484 130.192 199.204 130.192C195.964 130.192 196.132 126.352 196.516 123.88C196.876 121.672 198.028 117.496 201.004 117.496C203.884 117.496 203.74 121.264 203.38 123.424L203.26 124.168ZM216.839 117.688L212.183 130H210.575V121.072C210.575 120.64 210.647 120.184 210.671 119.752H210.599C210.407 120.496 210.239 121.24 209.999 121.984L207.407 130H205.823L205.271 117.688H206.855L206.879 124.96C206.879 125.896 206.927 126.808 206.951 127.744H207.047C207.311 126.808 207.551 125.896 207.839 124.96L210.191 117.688H211.775L211.727 126.208C211.727 126.712 211.703 127.24 211.703 127.744H211.775C212.015 126.952 212.231 126.136 212.519 125.344L215.255 117.688H216.839ZM233.924 117.688L229.268 130H227.66V121.072C227.66 120.64 227.732 120.184 227.756 119.752H227.684C227.492 120.496 227.324 121.24 227.084 121.984L224.492 130H222.908L222.356 117.688H223.94L223.964 124.96C223.964 125.896 224.012 126.808 224.036 127.744H224.132C224.396 126.808 224.636 125.896 224.924 124.96L227.276 117.688H228.86L228.812 126.208C228.812 126.712 228.788 127.24 228.788 127.744H228.86C229.1 126.952 229.316 126.136 229.604 125.344L232.34 117.688H233.924ZM238.482 117.496C241.722 117.496 241.362 121.528 241.002 123.832C240.618 126.16 239.706 130.192 236.466 130.192C233.226 130.192 233.562 126.16 233.946 123.832C234.306 121.528 235.242 117.496 238.482 117.496ZM238.242 118.96C236.37 118.96 235.722 122.656 235.554 123.832C235.362 125.032 234.81 128.728 236.682 128.728C238.554 128.728 239.202 125.032 239.394 123.832C239.562 122.656 240.114 118.96 238.242 118.96ZM245.357 117.688L245.093 119.32H245.141C245.621 118.456 246.461 117.472 247.493 117.496L247.181 119.32L246.893 119.296C245.285 119.296 244.853 120.856 244.541 122.824L243.413 130H241.853L243.797 117.688H245.357ZM251.383 110.8L249.487 122.68H249.535L253.327 117.688H255.103L250.567 123.208L254.119 130H252.175L249.319 124.096H249.271L248.335 130H246.775L249.823 110.8H251.383ZM258.573 128.92C260.013 128.92 260.541 127.504 261.141 123.712C261.453 121.816 261.909 118.768 260.109 118.768C258.453 118.768 257.973 121.312 257.637 123.496C257.253 125.872 256.869 128.92 258.573 128.92ZM258.693 117.688L258.573 118.528H258.621C259.197 117.856 259.821 117.496 260.709 117.496C263.565 117.496 263.157 121.216 262.749 123.712C262.317 126.496 261.669 130.192 258.813 130.192C257.925 130.192 257.301 129.736 256.941 129.04H256.893L256.005 134.704H254.445L257.133 117.688H258.693ZM268.165 110.8L265.117 130H263.557L266.605 110.8H268.165ZM273.091 123.64C273.523 120.976 273.667 118.768 272.131 118.768C270.403 118.768 269.875 121.504 269.539 123.592C268.747 128.68 269.539 128.92 270.451 128.92C271.963 128.92 272.467 127.504 273.091 123.64ZM275.443 117.688L273.499 130H271.939L272.083 129.04H272.035C271.483 129.736 270.715 130.192 269.827 130.192C267.859 130.192 267.067 129.088 267.907 123.712C268.363 120.952 269.011 117.496 271.987 117.496C272.851 117.496 273.331 117.856 273.715 118.528H273.763L273.883 117.688H275.443ZM282.49 117.976L282.202 119.776C281.89 119.368 281.458 118.96 280.858 118.96C278.842 118.96 278.098 122.464 277.858 123.88C277.666 125.104 277.354 128.728 279.202 128.728C279.922 128.728 280.474 128.176 280.93 127.624H280.978L280.666 129.568C280.138 129.952 279.394 130.192 278.794 130.192C275.962 130.192 275.89 126.208 276.226 124.096C276.586 121.768 277.762 117.496 280.882 117.496C281.458 117.496 282.034 117.664 282.49 117.976ZM284.73 122.848H288.306L288.33 122.632C288.45 121.456 288.81 118.96 287.178 118.96C285.69 118.96 284.898 121.744 284.73 122.848ZM289.674 124.168H284.49L284.442 124.528C284.25 125.752 283.986 128.728 285.69 128.728C287.058 128.728 287.562 126.808 287.73 125.824H289.338C289.002 127.696 287.898 130.192 285.618 130.192C282.378 130.192 282.546 126.352 282.93 123.88C283.29 121.672 284.442 117.496 287.418 117.496C290.298 117.496 290.154 121.264 289.794 123.424L289.674 124.168ZM301.357 123.64C301.789 120.976 301.933 118.768 300.397 118.768C298.669 118.768 298.141 121.504 297.805 123.592C297.013 128.68 297.805 128.92 298.717 128.92C300.229 128.92 300.733 127.504 301.357 123.64ZM303.709 117.688L301.765 130H300.205L300.349 129.04H300.301C299.749 129.736 298.981 130.192 298.093 130.192C296.125 130.192 295.333 129.088 296.173 123.712C296.629 120.952 297.277 117.496 300.253 117.496C301.117 117.496 301.597 117.856 301.981 118.528H302.029L302.149 117.688H303.709ZM307.42 117.688L307.276 118.672C308.02 117.952 308.932 117.496 309.892 117.496C312.076 117.496 311.932 119.512 311.668 121.192L310.276 130H308.716L310.084 121.36C310.324 119.896 310.396 118.768 309.1 118.768C307.324 118.768 306.94 120.712 306.748 122.008L305.476 130H303.916L305.86 117.688H307.42ZM318.255 123.64C318.711 120.832 318.735 118.768 317.295 118.768C315.543 118.768 314.991 121.84 314.703 123.592C314.535 124.744 313.623 128.92 315.615 128.92C317.271 128.92 317.751 126.88 318.255 123.64ZM317.103 130L317.247 129.04H317.199C316.647 129.736 315.879 130.192 314.991 130.192C312.423 130.192 312.543 127.072 313.071 123.712C313.623 120.352 314.415 117.496 317.151 117.496C318.015 117.496 318.495 117.856 318.879 118.528H318.927L320.151 110.8H321.711L318.663 130H317.103ZM35.1593 147.288L34.8713 149.208H34.8233C34.4633 148.56 33.8393 147.96 32.9753 147.96C32.0393 147.96 31.3193 148.68 31.1753 149.592C30.9833 150.768 31.8953 151.488 32.7353 152.304C33.6233 153.144 34.4633 154.056 34.1993 155.664C33.8873 157.632 32.3273 159.192 30.2873 159.192C29.5193 159.192 28.7033 158.832 28.1753 158.352L28.4633 156.528C28.9673 157.152 29.5193 157.728 30.4553 157.728C31.5353 157.728 32.3993 156.888 32.5673 155.856C32.7593 154.632 31.8953 153.816 31.0313 152.928C30.1913 152.064 29.3273 151.104 29.5673 149.64C29.8553 147.792 31.2953 146.496 33.1433 146.496C33.9353 146.496 34.6073 146.808 35.1593 147.288ZM37.135 146.688H38.695L37.471 154.416C37.207 156.096 37.039 157.728 38.575 157.728C40.159 157.728 40.495 156.096 40.783 154.416L42.007 146.688H43.567L42.151 155.736C41.815 157.8 40.591 159.192 38.383 159.192C36.199 159.192 35.383 157.824 35.719 155.736L37.135 146.688ZM47.0617 157.92C48.5017 157.92 49.0297 156.504 49.6297 152.712C49.9417 150.816 50.3977 147.768 48.5977 147.768C46.9417 147.768 46.4617 150.312 46.1257 152.496C45.7417 154.872 45.3577 157.92 47.0617 157.92ZM47.1817 146.688L47.0617 147.528H47.1097C47.6857 146.856 48.3097 146.496 49.1977 146.496C52.0537 146.496 51.6457 150.216 51.2377 152.712C50.8057 155.496 50.1577 159.192 47.3017 159.192C46.4137 159.192 45.7897 158.736 45.4297 158.04H45.3817L44.4937 163.704H42.9337L45.6217 146.688H47.1817ZM55.4288 157.92C56.8688 157.92 57.3968 156.504 57.9968 152.712C58.3088 150.816 58.7648 147.768 56.9648 147.768C55.3088 147.768 54.8288 150.312 54.4928 152.496C54.1088 154.872 53.7248 157.92 55.4288 157.92ZM55.5488 146.688L55.4288 147.528H55.4768C56.0528 146.856 56.6768 146.496 57.5648 146.496C60.4208 146.496 60.0128 150.216 59.6048 152.712C59.1728 155.496 58.5248 159.192 55.6688 159.192C54.7808 159.192 54.1568 158.736 53.7968 158.04H53.7488L52.8608 163.704H51.3008L53.9888 146.688H55.5488ZM65.572 146.496C68.812 146.496 68.452 150.528 68.092 152.832C67.708 155.16 66.796 159.192 63.556 159.192C60.316 159.192 60.652 155.16 61.036 152.832C61.396 150.528 62.332 146.496 65.572 146.496ZM65.332 147.96C63.46 147.96 62.812 151.656 62.644 152.832C62.452 154.032 61.9 157.728 63.772 157.728C65.644 157.728 66.292 154.032 66.484 152.832C66.652 151.656 67.204 147.96 65.332 147.96ZM72.4473 146.688L72.1833 148.32H72.2313C72.7113 147.456 73.5513 146.472 74.5833 146.496L74.2713 148.32L73.9833 148.296C72.3753 148.296 71.9433 149.856 71.6313 151.824L70.5033 159H68.9433L70.8873 146.688H72.4473ZM80.0572 146.688L79.8412 148.128H77.8012L76.0732 159H74.5132L76.2412 148.128H74.9212L75.1372 146.688H76.4572L76.9852 143.328H78.5452L78.0172 146.688H80.0572ZM91.9505 146.688L85.0145 163.704H83.3825L85.3985 158.664L84.3665 146.688H85.9505L86.4545 156.624H86.5265C86.9105 155.568 87.2705 154.512 87.6785 153.456L90.3185 146.688H91.9505ZM96.4392 146.496C99.6792 146.496 99.3192 150.528 98.9592 152.832C98.5752 155.16 97.6632 159.192 94.4232 159.192C91.1832 159.192 91.5192 155.16 91.9032 152.832C92.2632 150.528 93.1992 146.496 96.4392 146.496ZM96.1992 147.96C94.3272 147.96 93.6792 151.656 93.5112 152.832C93.3192 154.032 92.7672 157.728 94.6392 157.728C96.5112 157.728 97.1592 154.032 97.3512 152.832C97.5192 151.656 98.0712 147.96 96.1992 147.96ZM101.658 146.688H103.218L101.994 154.416C101.73 156.096 101.562 157.728 103.098 157.728C104.682 157.728 105.018 156.096 105.306 154.416L106.53 146.688H108.09L106.674 155.736C106.338 157.8 105.114 159.192 102.906 159.192C100.722 159.192 99.9065 157.824 100.242 155.736L101.658 146.688ZM111.705 146.688L111.441 148.32H111.489C111.969 147.456 112.809 146.472 113.841 146.496L113.529 148.32L113.241 148.296C111.633 148.296 111.201 149.856 110.889 151.824L109.761 159H108.201L110.145 146.688H111.705ZM121.499 157.92C122.939 157.92 123.467 156.504 124.067 152.712C124.379 150.816 124.835 147.768 123.035 147.768C121.379 147.768 120.899 150.312 120.563 152.496C120.179 154.872 119.795 157.92 121.499 157.92ZM121.619 146.688L121.499 147.528H121.547C122.123 146.856 122.747 146.496 123.635 146.496C126.491 146.496 126.083 150.216 125.675 152.712C125.243 155.496 124.595 159.192 121.739 159.192C120.851 159.192 120.227 158.736 119.867 158.04H119.819L118.931 163.704H117.371L120.059 146.688H121.619ZM129.986 146.688L129.722 148.32H129.77C130.25 147.456 131.09 146.472 132.122 146.496L131.81 148.32L131.522 148.296C129.914 148.296 129.482 149.856 129.17 151.824L128.042 159H126.482L128.426 146.688H129.986ZM136.424 146.496C139.664 146.496 139.304 150.528 138.944 152.832C138.56 155.16 137.648 159.192 134.408 159.192C131.168 159.192 131.504 155.16 131.888 152.832C132.248 150.528 133.184 146.496 136.424 146.496ZM136.184 147.96C134.312 147.96 133.664 151.656 133.496 152.832C133.304 154.032 132.752 157.728 134.624 157.728C136.496 157.728 137.144 154.032 137.336 152.832C137.504 151.656 138.056 147.96 136.184 147.96ZM145.579 146.688L145.363 148.128H143.323L141.595 159H140.035L141.763 148.128H140.443L140.659 146.688H141.979L142.555 143.064C142.891 140.976 143.659 139.608 145.411 139.608C145.867 139.608 146.347 139.68 146.731 139.872L146.467 141.576C146.179 141.312 145.867 141.048 145.411 141.048C144.547 141.048 144.331 141.792 144.115 143.016L143.539 146.688H145.579ZM147.187 151.848H150.763L150.787 151.632C150.907 150.456 151.267 147.96 149.635 147.96C148.147 147.96 147.355 150.744 147.187 151.848ZM152.131 153.168H146.947L146.899 153.528C146.707 154.752 146.443 157.728 148.147 157.728C149.515 157.728 150.019 155.808 150.187 154.824H151.795C151.459 156.696 150.355 159.192 148.075 159.192C144.835 159.192 145.003 155.352 145.387 152.88C145.747 150.672 146.899 146.496 149.875 146.496C152.755 146.496 152.611 150.264 152.251 152.424L152.131 153.168ZM159.566 147.288L159.278 149.208H159.23C158.87 148.56 158.246 147.96 157.382 147.96C156.446 147.96 155.726 148.68 155.582 149.592C155.39 150.768 156.302 151.488 157.142 152.304C158.03 153.144 158.87 154.056 158.606 155.664C158.294 157.632 156.734 159.192 154.694 159.192C153.926 159.192 153.11 158.832 152.582 158.352L152.87 156.528C153.374 157.152 153.926 157.728 154.862 157.728C155.942 157.728 156.806 156.888 156.974 155.856C157.166 154.632 156.302 153.816 155.438 152.928C154.598 152.064 153.734 151.104 153.974 149.64C154.262 147.792 155.702 146.496 157.55 146.496C158.342 146.496 159.014 146.808 159.566 147.288ZM166.245 147.288L165.957 149.208H165.909C165.549 148.56 164.925 147.96 164.061 147.96C163.125 147.96 162.405 148.68 162.261 149.592C162.069 150.768 162.981 151.488 163.821 152.304C164.709 153.144 165.549 154.056 165.285 155.664C164.973 157.632 163.413 159.192 161.373 159.192C160.605 159.192 159.789 158.832 159.261 158.352L159.549 156.528C160.053 157.152 160.605 157.728 161.541 157.728C162.621 157.728 163.485 156.888 163.653 155.856C163.845 154.632 162.981 153.816 162.117 152.928C161.277 152.064 160.413 151.104 160.653 149.64C160.941 147.792 162.381 146.496 164.229 146.496C165.021 146.496 165.693 146.808 166.245 147.288ZM169.877 146.688L167.933 159H166.373L168.317 146.688H169.877ZM170.837 143.04C170.741 143.688 170.141 144.216 169.517 144.216C168.869 144.216 168.413 143.688 168.509 143.04C168.605 142.416 169.229 141.888 169.877 141.888C170.501 141.888 170.933 142.416 170.837 143.04ZM175.26 146.496C178.5 146.496 178.14 150.528 177.78 152.832C177.396 155.16 176.484 159.192 173.244 159.192C170.004 159.192 170.34 155.16 170.724 152.832C171.084 150.528 172.02 146.496 175.26 146.496ZM175.02 147.96C173.148 147.96 172.5 151.656 172.332 152.832C172.14 154.032 171.588 157.728 173.46 157.728C175.332 157.728 175.98 154.032 176.172 152.832C176.34 151.656 176.892 147.96 175.02 147.96ZM182.135 146.688L181.991 147.672C182.735 146.952 183.647 146.496 184.607 146.496C186.791 146.496 186.647 148.512 186.383 150.192L184.991 159H183.431L184.799 150.36C185.039 148.896 185.111 147.768 183.815 147.768C182.039 147.768 181.655 149.712 181.463 151.008L180.191 159H178.631L180.575 146.688H182.135ZM192.97 152.64C193.402 149.976 193.546 147.768 192.01 147.768C190.282 147.768 189.754 150.504 189.418 152.592C188.626 157.68 189.418 157.92 190.33 157.92C191.842 157.92 192.346 156.504 192.97 152.64ZM195.322 146.688L193.378 159H191.818L191.962 158.04H191.914C191.362 158.736 190.594 159.192 189.706 159.192C187.738 159.192 186.946 158.088 187.786 152.712C188.242 149.952 188.89 146.496 191.866 146.496C192.73 146.496 193.21 146.856 193.594 147.528H193.642L193.762 146.688H195.322ZM200.137 139.8L197.089 159H195.529L198.577 139.8H200.137ZM210.056 152.64C210.512 149.832 210.536 147.768 209.096 147.768C207.344 147.768 206.792 150.84 206.504 152.592C206.336 153.744 205.424 157.92 207.416 157.92C209.072 157.92 209.552 155.88 210.056 152.64ZM208.904 159L209.048 158.04H209C208.448 158.736 207.68 159.192 206.792 159.192C204.224 159.192 204.344 156.072 204.872 152.712C205.424 149.352 206.216 146.496 208.952 146.496C209.816 146.496 210.296 146.856 210.68 147.528H210.728L211.952 139.8H213.512L210.464 159H208.904ZM215.015 151.848H218.591L218.615 151.632C218.735 150.456 219.095 147.96 217.463 147.96C215.975 147.96 215.183 150.744 215.015 151.848ZM219.959 153.168H214.775L214.727 153.528C214.535 154.752 214.271 157.728 215.975 157.728C217.343 157.728 217.847 155.808 218.015 154.824H219.623C219.287 156.696 218.183 159.192 215.903 159.192C212.663 159.192 212.831 155.352 213.215 152.88C213.575 150.672 214.727 146.496 217.703 146.496C220.583 146.496 220.439 150.264 220.079 152.424L219.959 153.168ZM229.122 146.688L224.442 159H222.762L221.898 146.688H223.482L223.842 154.392C223.89 155.16 223.89 155.928 223.938 156.696H224.034C224.25 155.928 224.49 155.136 224.73 154.392L227.514 146.688H229.122ZM230.835 151.848H234.411L234.435 151.632C234.555 150.456 234.915 147.96 233.283 147.96C231.795 147.96 231.003 150.744 230.835 151.848ZM235.779 153.168H230.595L230.547 153.528C230.355 154.752 230.091 157.728 231.795 157.728C233.163 157.728 233.667 155.808 233.835 154.824H235.443C235.107 156.696 234.003 159.192 231.723 159.192C228.483 159.192 228.651 155.352 229.035 152.88C229.395 150.672 230.547 146.496 233.523 146.496C236.403 146.496 236.259 150.264 235.899 152.424L235.779 153.168ZM241.27 139.8L238.222 159H236.662L239.71 139.8H241.27ZM245.549 146.496C248.789 146.496 248.429 150.528 248.069 152.832C247.685 155.16 246.773 159.192 243.533 159.192C240.293 159.192 240.629 155.16 241.013 152.832C241.373 150.528 242.309 146.496 245.549 146.496ZM245.309 147.96C243.437 147.96 242.789 151.656 242.621 152.832C242.429 154.032 241.877 157.728 243.749 157.728C245.621 157.728 246.269 154.032 246.461 152.832C246.629 151.656 247.181 147.96 245.309 147.96ZM252.304 157.92C253.744 157.92 254.272 156.504 254.872 152.712C255.184 150.816 255.64 147.768 253.84 147.768C252.184 147.768 251.704 150.312 251.368 152.496C250.984 154.872 250.6 157.92 252.304 157.92ZM252.424 146.688L252.304 147.528H252.352C252.928 146.856 253.552 146.496 254.44 146.496C257.296 146.496 256.888 150.216 256.48 152.712C256.048 155.496 255.4 159.192 252.544 159.192C251.656 159.192 251.032 158.736 250.672 158.04H250.624L249.736 163.704H248.176L250.864 146.688H252.424ZM260.791 146.688L260.623 147.72H260.671C261.343 147 262.279 146.496 263.215 146.496C264.223 146.496 264.991 147.024 265.255 147.96C266.047 147.048 266.911 146.496 268.039 146.496C270.343 146.496 270.223 148.32 269.935 150.144L268.543 159H266.983L268.375 150.192C268.567 149.016 268.639 147.768 267.367 147.768C265.519 147.768 265.135 149.856 264.895 151.416L263.695 159H262.135L263.527 150.216C263.719 149.064 263.839 147.768 262.567 147.768C260.671 147.768 260.263 150.12 259.999 151.68L258.847 159H257.287L259.231 146.688H260.791ZM273.093 151.848H276.669L276.693 151.632C276.813 150.456 277.173 147.96 275.541 147.96C274.053 147.96 273.261 150.744 273.093 151.848ZM278.037 153.168H272.853L272.805 153.528C272.613 154.752 272.349 157.728 274.053 157.728C275.421 157.728 275.925 155.808 276.093 154.824H277.701C277.365 156.696 276.261 159.192 273.981 159.192C270.741 159.192 270.909 155.352 271.293 152.88C271.653 150.672 272.805 146.496 275.781 146.496C278.661 146.496 278.517 150.264 278.157 152.424L278.037 153.168ZM282.424 146.688L282.28 147.672C283.024 146.952 283.936 146.496 284.896 146.496C287.08 146.496 286.936 148.512 286.672 150.192L285.28 159H283.72L285.088 150.36C285.328 148.896 285.4 147.768 284.104 147.768C282.328 147.768 281.944 149.712 281.752 151.008L280.48 159H278.92L280.864 146.688H282.424ZM293.643 146.688L293.427 148.128H291.387L289.659 159H288.099L289.827 148.128H288.507L288.723 146.688H290.043L290.571 143.328H292.131L291.603 146.688H293.643ZM300.986 146.688L299.042 159H297.482L299.426 146.688H300.986ZM301.946 143.04C301.85 143.688 301.25 144.216 300.626 144.216C299.978 144.216 299.522 143.688 299.618 143.04C299.714 142.416 300.338 141.888 300.986 141.888C301.61 141.888 302.042 142.416 301.946 143.04ZM304.713 146.688L304.569 147.672C305.313 146.952 306.225 146.496 307.185 146.496C309.369 146.496 309.225 148.512 308.961 150.192L307.569 159H306.009L307.377 150.36C307.617 148.896 307.689 147.768 306.393 147.768C304.617 147.768 304.233 149.712 304.041 151.008L302.769 159H301.209L303.153 146.688H304.713ZM320.924 146.688L320.708 148.128H318.668L316.94 159H315.38L317.108 148.128H315.788L316.004 146.688H317.324L317.852 143.328H319.412L318.884 146.688H320.924ZM324.403 139.8L323.155 147.672C323.899 146.952 324.811 146.496 325.771 146.496C328.027 146.496 327.835 148.464 327.547 150.192L326.155 159H324.595L325.939 150.456C326.251 148.536 326.155 147.768 324.979 147.768C323.203 147.768 322.819 149.712 322.627 151.008L321.355 159H319.795L322.843 139.8H324.403ZM330.726 151.848H334.302L334.326 151.632C334.446 150.456 334.806 147.96 333.174 147.96C331.686 147.96 330.894 150.744 330.726 151.848ZM335.67 153.168H330.486L330.438 153.528C330.246 154.752 329.982 157.728 331.686 157.728C333.054 157.728 333.558 155.808 333.726 154.824H335.334C334.998 156.696 333.894 159.192 331.614 159.192C328.374 159.192 328.542 155.352 328.926 152.88C329.286 150.672 330.438 146.496 333.414 146.496C336.294 146.496 336.15 150.264 335.79 152.424L335.67 153.168ZM35.7143 169.904L33.7703 182.264C33.2423 185.6 32.5463 188.24 29.0183 188.24C25.3943 188.24 25.6583 185.504 26.1863 182.264L28.1303 169.904H29.8103L27.8663 182.168C27.4103 185.168 27.3383 186.608 29.2823 186.608C31.2023 186.608 31.6343 185.168 32.0903 182.168L34.0343 169.904H35.7143ZM36.4888 185.744C37.1608 185.744 37.6168 186.296 37.5208 186.968C37.4008 187.64 36.7768 188.192 36.1048 188.192C35.4328 188.192 34.9528 187.64 35.0728 186.968C35.1688 186.296 35.8168 185.744 36.4888 185.744ZM49.113 170.624L48.777 172.76C48.177 171.944 47.481 171.296 46.329 171.296C44.649 171.296 43.497 172.688 43.257 174.224C42.921 176.336 44.289 177.32 45.705 178.376C47.049 179.456 48.417 180.608 48.009 183.104C47.601 185.744 45.489 188.24 42.657 188.24C41.649 188.24 40.665 187.952 39.945 187.328L40.305 185.144C40.929 185.96 41.841 186.608 42.993 186.608C44.769 186.608 45.993 185.048 46.233 183.416C46.593 181.304 45.177 180.368 43.809 179.288C42.441 178.232 41.073 177.056 41.481 174.464C41.865 172.04 43.737 169.664 46.401 169.664C47.481 169.664 48.345 170.024 49.113 170.624ZM50.8091 185.744C51.4811 185.744 51.9371 186.296 51.8411 186.968C51.7211 187.64 51.0971 188.192 50.4251 188.192C49.7531 188.192 49.2731 187.64 49.3931 186.968C49.4891 186.296 50.1371 185.744 50.8091 185.744ZM62.8989 168.8L61.6509 176.672C62.3949 175.952 63.3069 175.496 64.2669 175.496C66.5229 175.496 66.3309 177.464 66.0429 179.192L64.6509 188H63.0909L64.4349 179.456C64.7469 177.536 64.6509 176.768 63.4749 176.768C61.6989 176.768 61.3149 178.712 61.1229 180.008L59.8509 188H58.2909L61.3389 168.8H62.8989ZM69.2222 180.848H72.7982L72.8222 180.632C72.9422 179.456 73.3022 176.96 71.6702 176.96C70.1822 176.96 69.3902 179.744 69.2222 180.848ZM74.1662 182.168H68.9822L68.9342 182.528C68.7422 183.752 68.4782 186.728 70.1822 186.728C71.5502 186.728 72.0542 184.808 72.2222 183.824H73.8302C73.4942 185.696 72.3902 188.192 70.1102 188.192C66.8702 188.192 67.0382 184.352 67.4222 181.88C67.7822 179.672 68.9342 175.496 71.9102 175.496C74.7902 175.496 74.6462 179.264 74.2862 181.424L74.1662 182.168ZM80.8568 181.64C81.2888 178.976 81.4328 176.768 79.8968 176.768C78.1688 176.768 77.6408 179.504 77.3048 181.592C76.5128 186.68 77.3048 186.92 78.2168 186.92C79.7288 186.92 80.2328 185.504 80.8568 181.64ZM83.2088 175.688L81.2648 188H79.7048L79.8488 187.04H79.8008C79.2488 187.736 78.4808 188.192 77.5928 188.192C75.6248 188.192 74.8328 187.088 75.6728 181.712C76.1288 178.952 76.7768 175.496 79.7528 175.496C80.6168 175.496 81.0968 175.856 81.4808 176.528H81.5288L81.6488 175.688H83.2088ZM88.0239 168.8L84.9759 188H83.4159L86.4639 168.8H88.0239ZM93.3579 175.688L93.1419 177.128H91.1019L89.3739 188H87.8139L89.5419 177.128H88.2219L88.4379 175.688H89.7579L90.2859 172.328H91.8459L91.3179 175.688H93.3579ZM96.8364 168.8L95.5884 176.672C96.3324 175.952 97.2444 175.496 98.2044 175.496C100.46 175.496 100.268 177.464 99.9804 179.192L98.5884 188H97.0284L98.3724 179.456C98.6844 177.536 98.5884 176.768 97.4124 176.768C95.6364 176.768 95.2524 178.712 95.0604 180.008L93.7884 188H92.2284L95.2764 168.8H96.8364ZM107.6 175.976L107.312 177.776C107 177.368 106.568 176.96 105.968 176.96C103.952 176.96 103.208 180.464 102.968 181.88C102.776 183.104 102.464 186.728 104.312 186.728C105.032 186.728 105.584 186.176 106.04 185.624H106.088L105.776 187.568C105.248 187.952 104.504 188.192 103.904 188.192C101.072 188.192 101 184.208 101.336 182.096C101.696 179.768 102.872 175.496 105.992 175.496C106.568 175.496 107.144 175.664 107.6 175.976ZM113.247 181.64C113.679 178.976 113.823 176.768 112.287 176.768C110.559 176.768 110.031 179.504 109.695 181.592C108.903 186.68 109.695 186.92 110.607 186.92C112.119 186.92 112.623 185.504 113.247 181.64ZM115.599 175.688L113.655 188H112.095L112.239 187.04H112.191C111.639 187.736 110.871 188.192 109.983 188.192C108.015 188.192 107.223 187.088 108.063 181.712C108.519 178.952 109.167 175.496 112.143 175.496C113.007 175.496 113.487 175.856 113.871 176.528H113.919L114.039 175.688H115.599ZM119.311 175.688L119.047 177.32H119.095C119.575 176.456 120.415 175.472 121.447 175.496L121.135 177.32L120.847 177.296C119.239 177.296 118.807 178.856 118.495 180.824L117.367 188H115.807L117.751 175.688H119.311ZM122.988 180.848H126.564L126.588 180.632C126.708 179.456 127.068 176.96 125.436 176.96C123.948 176.96 123.156 179.744 122.988 180.848ZM127.932 182.168H122.748L122.7 182.528C122.508 183.752 122.244 186.728 123.948 186.728C125.316 186.728 125.82 184.808 125.988 183.824H127.596C127.26 185.696 126.156 188.192 123.876 188.192C120.636 188.192 120.804 184.352 121.188 181.88C121.548 179.672 122.7 175.496 125.676 175.496C128.556 175.496 128.412 179.264 128.052 181.424L127.932 182.168ZM140.359 176.288L140.071 178.208H140.023C139.663 177.56 139.039 176.96 138.175 176.96C137.239 176.96 136.519 177.68 136.375 178.592C136.183 179.768 137.095 180.488 137.935 181.304C138.823 182.144 139.663 183.056 139.399 184.664C139.087 186.632 137.527 188.192 135.487 188.192C134.719 188.192 133.903 187.832 133.375 187.352L133.663 185.528C134.167 186.152 134.719 186.728 135.655 186.728C136.735 186.728 137.599 185.888 137.767 184.856C137.959 183.632 137.095 182.816 136.231 181.928C135.391 181.064 134.527 180.104 134.767 178.64C135.055 176.792 136.495 175.496 138.343 175.496C139.135 175.496 139.807 175.808 140.359 176.288ZM149.126 175.688L142.19 192.704H140.558L142.574 187.664L141.542 175.688H143.126L143.63 185.624H143.702C144.086 184.568 144.446 183.512 144.854 182.456L147.494 175.688H149.126ZM155.007 176.288L154.719 178.208H154.671C154.311 177.56 153.687 176.96 152.823 176.96C151.887 176.96 151.167 177.68 151.023 178.592C150.831 179.768 151.743 180.488 152.583 181.304C153.471 182.144 154.311 183.056 154.047 184.664C153.735 186.632 152.175 188.192 150.135 188.192C149.367 188.192 148.551 187.832 148.023 187.352L148.311 185.528C148.815 186.152 149.367 186.728 150.303 186.728C151.383 186.728 152.247 185.888 152.415 184.856C152.607 183.632 151.743 182.816 150.879 181.928C150.039 181.064 149.175 180.104 149.415 178.64C149.703 176.792 151.143 175.496 152.991 175.496C153.783 175.496 154.455 175.808 155.007 176.288ZM161.327 175.688L161.111 177.128H159.071L157.343 188H155.783L157.511 177.128H156.191L156.407 175.688H157.727L158.255 172.328H159.815L159.287 175.688H161.327ZM162.574 180.848H166.15L166.174 180.632C166.294 179.456 166.654 176.96 165.022 176.96C163.534 176.96 162.742 179.744 162.574 180.848ZM167.518 182.168H162.334L162.286 182.528C162.094 183.752 161.83 186.728 163.534 186.728C164.902 186.728 165.406 184.808 165.574 183.824H167.182C166.846 185.696 165.742 188.192 163.462 188.192C160.222 188.192 160.39 184.352 160.774 181.88C161.134 179.672 162.286 175.496 165.262 175.496C168.142 175.496 167.998 179.264 167.638 181.424L167.518 182.168ZM171.904 175.688L171.736 176.72H171.784C172.456 176 173.392 175.496 174.328 175.496C175.336 175.496 176.104 176.024 176.368 176.96C177.16 176.048 178.024 175.496 179.152 175.496C181.456 175.496 181.336 177.32 181.048 179.144L179.656 188H178.096L179.488 179.192C179.68 178.016 179.752 176.768 178.48 176.768C176.632 176.768 176.248 178.856 176.008 180.416L174.808 188H173.248L174.64 179.216C174.832 178.064 174.952 176.768 173.68 176.768C171.784 176.768 171.376 179.12 171.112 180.68L169.96 188H168.4L170.344 175.688H171.904ZM183.583 185.744C184.255 185.744 184.711 186.296 184.615 186.968C184.495 187.64 183.871 188.192 183.199 188.192C182.527 188.192 182.047 187.64 182.167 186.968C182.263 186.296 182.911 185.744 183.583 185.744ZM197.514 169.664C201.594 169.664 201.114 174.968 200.49 178.952C199.938 182.336 198.762 188.24 194.562 188.24C190.602 188.24 190.938 183.176 191.61 178.952C192.33 174.368 193.674 169.664 197.514 169.664ZM197.25 171.296C194.682 171.176 193.842 175.76 193.338 178.952C192.834 182.144 192.234 186.608 194.826 186.608C197.418 186.608 198.258 182.144 198.762 178.952C199.266 175.76 199.842 171.296 197.25 171.296ZM202.897 175.688H204.457L203.233 183.416C202.969 185.096 202.801 186.728 204.337 186.728C205.921 186.728 206.257 185.096 206.545 183.416L207.769 175.688H209.329L207.913 184.736C207.577 186.8 206.353 188.192 204.145 188.192C201.961 188.192 201.145 186.824 201.481 184.736L202.897 175.688ZM212.943 175.688L212.679 177.32H212.727C213.207 176.456 214.047 175.472 215.079 175.496L214.767 177.32L214.479 177.296C212.871 177.296 212.439 178.856 212.127 180.824L210.999 188H209.439L211.383 175.688H212.943ZM225.545 175.688L225.329 177.128H223.289L221.561 188H220.001L221.729 177.128H220.409L220.625 175.688H221.945L222.473 172.328H224.033L223.505 175.688H225.545ZM226.793 180.848H230.368L230.393 180.632C230.513 179.456 230.873 176.96 229.241 176.96C227.753 176.96 226.961 179.744 226.793 180.848ZM231.737 182.168H226.553L226.505 182.528C226.312 183.752 226.049 186.728 227.753 186.728C229.121 186.728 229.625 184.808 229.793 183.824H231.401C231.065 185.696 229.961 188.192 227.681 188.192C224.441 188.192 224.609 184.352 224.993 181.88C225.353 179.672 226.505 175.496 229.48 175.496C232.361 175.496 232.217 179.264 231.857 181.424L231.737 182.168ZM238.427 181.64C238.859 178.976 239.003 176.768 237.467 176.768C235.739 176.768 235.211 179.504 234.875 181.592C234.083 186.68 234.875 186.92 235.787 186.92C237.299 186.92 237.803 185.504 238.427 181.64ZM240.779 175.688L238.835 188H237.275L237.419 187.04H237.371C236.819 187.736 236.051 188.192 235.163 188.192C233.195 188.192 232.403 187.088 233.243 181.712C233.699 178.952 234.347 175.496 237.323 175.496C238.187 175.496 238.667 175.856 239.051 176.528H239.099L239.219 175.688H240.779ZM244.49 175.688L244.322 176.72H244.37C245.042 176 245.978 175.496 246.914 175.496C247.922 175.496 248.69 176.024 248.954 176.96C249.746 176.048 250.61 175.496 251.738 175.496C254.042 175.496 253.922 177.32 253.634 179.144L252.242 188H250.682L252.074 179.192C252.266 178.016 252.338 176.768 251.066 176.768C249.218 176.768 248.834 178.856 248.594 180.416L247.394 188H245.834L247.226 179.216C247.418 178.064 247.538 176.768 246.266 176.768C244.37 176.768 243.962 179.12 243.698 180.68L242.546 188H240.986L242.93 175.688H244.49ZM262.889 175.688L260.945 188H259.385L261.329 175.688H262.889ZM263.849 172.04C263.753 172.688 263.153 173.216 262.529 173.216C261.881 173.216 261.425 172.688 261.521 172.04C261.617 171.416 262.241 170.888 262.889 170.888C263.513 170.888 263.945 171.416 263.849 172.04ZM269.663 176.288L269.375 178.208H269.327C268.967 177.56 268.343 176.96 267.479 176.96C266.543 176.96 265.823 177.68 265.679 178.592C265.487 179.768 266.399 180.488 267.239 181.304C268.127 182.144 268.967 183.056 268.703 184.664C268.391 186.632 266.831 188.192 264.791 188.192C264.023 188.192 263.207 187.832 262.679 187.352L262.967 185.528C263.471 186.152 264.023 186.728 264.959 186.728C266.039 186.728 266.903 185.888 267.071 184.856C267.263 183.632 266.399 182.816 265.535 181.928C264.695 181.064 263.831 180.104 264.071 178.64C264.359 176.792 265.799 175.496 267.647 175.496C268.439 175.496 269.111 175.808 269.663 176.288ZM280.591 181.64C281.047 178.832 281.071 176.768 279.631 176.768C277.879 176.768 277.327 179.84 277.039 181.592C276.871 182.744 275.959 186.92 277.951 186.92C279.607 186.92 280.087 184.88 280.591 181.64ZM279.439 188L279.583 187.04H279.535C278.983 187.736 278.215 188.192 277.327 188.192C274.759 188.192 274.879 185.072 275.407 181.712C275.959 178.352 276.751 175.496 279.487 175.496C280.351 175.496 280.831 175.856 281.215 176.528H281.263L282.487 168.8H284.047L280.999 188H279.439ZM285.55 180.848H289.126L289.15 180.632C289.27 179.456 289.63 176.96 287.998 176.96C286.51 176.96 285.718 179.744 285.55 180.848ZM290.494 182.168H285.31L285.262 182.528C285.07 183.752 284.806 186.728 286.51 186.728C287.878 186.728 288.382 184.808 288.55 183.824H290.158C289.822 185.696 288.718 188.192 286.438 188.192C283.198 188.192 283.366 184.352 283.75 181.88C284.11 179.672 285.262 175.496 288.238 175.496C291.118 175.496 290.974 179.264 290.614 181.424L290.494 182.168ZM297.185 181.64C297.641 178.832 297.665 176.768 296.225 176.768C294.473 176.768 293.921 179.84 293.633 181.592C293.465 182.744 292.553 186.92 294.545 186.92C296.201 186.92 296.681 184.88 297.185 181.64ZM296.033 188L296.177 187.04H296.129C295.577 187.736 294.809 188.192 293.921 188.192C291.353 188.192 291.473 185.072 292.001 181.712C292.553 178.352 293.345 175.496 296.081 175.496C296.945 175.496 297.425 175.856 297.809 176.528H297.857L299.081 168.8H300.641L297.593 188H296.033ZM303.272 175.688L301.328 188H299.768L301.712 175.688H303.272ZM304.232 172.04C304.136 172.688 303.536 173.216 302.912 173.216C302.264 173.216 301.808 172.688 301.904 172.04C302 171.416 302.624 170.888 303.272 170.888C303.896 170.888 304.328 171.416 304.232 172.04ZM310.334 175.976L310.046 177.776C309.734 177.368 309.302 176.96 308.702 176.96C306.686 176.96 305.942 180.464 305.702 181.88C305.51 183.104 305.198 186.728 307.046 186.728C307.766 186.728 308.318 186.176 308.774 185.624H308.822L308.51 187.568C307.982 187.952 307.238 188.192 306.638 188.192C303.806 188.192 303.734 184.208 304.07 182.096C304.43 179.768 305.606 175.496 308.726 175.496C309.302 175.496 309.878 175.664 310.334 175.976ZM315.982 181.64C316.414 178.976 316.558 176.768 315.022 176.768C313.294 176.768 312.766 179.504 312.43 181.592C311.638 186.68 312.43 186.92 313.342 186.92C314.854 186.92 315.358 185.504 315.982 181.64ZM318.334 175.688L316.39 188H314.83L314.974 187.04H314.926C314.374 187.736 313.606 188.192 312.718 188.192C310.75 188.192 309.958 187.088 310.798 181.712C311.254 178.952 311.902 175.496 314.878 175.496C315.742 175.496 316.222 175.856 316.606 176.528H316.654L316.774 175.688H318.334ZM324.733 175.688L324.517 177.128H322.477L320.749 188H319.189L320.917 177.128H319.597L319.813 175.688H321.133L321.661 172.328H323.221L322.693 175.688H324.733ZM325.98 180.848H329.556L329.58 180.632C329.7 179.456 330.06 176.96 328.428 176.96C326.94 176.96 326.148 179.744 325.98 180.848ZM330.924 182.168H325.74L325.692 182.528C325.5 183.752 325.236 186.728 326.94 186.728C328.308 186.728 328.812 184.808 328.98 183.824H330.588C330.252 185.696 329.148 188.192 326.868 188.192C323.628 188.192 323.796 184.352 324.18 181.88C324.54 179.672 325.692 175.496 328.668 175.496C331.548 175.496 331.404 179.264 331.044 181.424L330.924 182.168ZM337.615 181.64C338.071 178.832 338.095 176.768 336.655 176.768C334.903 176.768 334.351 179.84 334.063 181.592C333.895 182.744 332.983 186.92 334.975 186.92C336.631 186.92 337.111 184.88 337.615 181.64ZM336.463 188L336.607 187.04H336.559C336.007 187.736 335.239 188.192 334.351 188.192C331.783 188.192 331.903 185.072 332.431 181.712C332.983 178.352 333.775 175.496 336.511 175.496C337.375 175.496 337.855 175.856 338.239 176.528H338.287L339.511 168.8H341.071L338.023 188H336.463ZM48.0181 204.688L47.8021 206.128H45.7621L44.0341 217H42.4741L44.2021 206.128H42.8821L43.0981 204.688H44.4181L44.9461 201.328H46.5061L45.9781 204.688H48.0181ZM52.0252 204.496C55.2652 204.496 54.9052 208.528 54.5452 210.832C54.1612 213.16 53.2492 217.192 50.0092 217.192C46.7692 217.192 47.1052 213.16 47.4892 210.832C47.8492 208.528 48.7852 204.496 52.0252 204.496ZM51.7852 205.96C49.9132 205.96 49.2652 209.656 49.0972 210.832C48.9052 212.032 48.3532 215.728 50.2252 215.728C52.0972 215.728 52.7452 212.032 52.9372 210.832C53.1052 209.656 53.6572 205.96 51.7852 205.96ZM68.4427 204.688L61.5067 221.704H59.8747L61.8907 216.664L60.8587 204.688H62.4427L62.9467 214.624H63.0187C63.4027 213.568 63.7627 212.512 64.1707 211.456L66.8107 204.688H68.4427ZM72.9314 204.496C76.1714 204.496 75.8114 208.528 75.4514 210.832C75.0674 213.16 74.1554 217.192 70.9154 217.192C67.6754 217.192 68.0114 213.16 68.3954 210.832C68.7554 208.528 69.6914 204.496 72.9314 204.496ZM72.6914 205.96C70.8194 205.96 70.1714 209.656 70.0034 210.832C69.8114 212.032 69.2594 215.728 71.1314 215.728C73.0034 215.728 73.6514 212.032 73.8434 210.832C74.0114 209.656 74.5634 205.96 72.6914 205.96ZM78.1507 204.688H79.7107L78.4867 212.416C78.2227 214.096 78.0547 215.728 79.5907 215.728C81.1747 215.728 81.5107 214.096 81.7987 212.416L83.0227 204.688H84.5827L83.1667 213.736C82.8307 215.8 81.6067 217.192 79.3987 217.192C77.2147 217.192 76.3987 215.824 76.7347 213.736L78.1507 204.688ZM88.1973 204.688L87.9333 206.32H87.9813C88.4613 205.456 89.3013 204.472 90.3333 204.496L90.0213 206.32L89.7333 206.296C88.1253 206.296 87.6933 207.856 87.3813 209.824L86.2533 217H84.6933L86.6373 204.688H88.1973ZM101.159 205.288L100.871 207.208H100.823C100.463 206.56 99.8393 205.96 98.9753 205.96C98.0393 205.96 97.3193 206.68 97.1753 207.592C96.9833 208.768 97.8953 209.488 98.7353 210.304C99.6233 211.144 100.463 212.056 100.199 213.664C99.8873 215.632 98.3273 217.192 96.2873 217.192C95.5193 217.192 94.7033 216.832 94.1753 216.352L94.4633 214.528C94.9673 215.152 95.5193 215.728 96.4553 215.728C97.5353 215.728 98.3993 214.888 98.5673 213.856C98.7593 212.632 97.8953 211.816 97.0313 210.928C96.1913 210.064 95.3273 209.104 95.5673 207.64C95.8553 205.792 97.2953 204.496 99.1433 204.496C99.9353 204.496 100.607 204.808 101.159 205.288ZM103.135 204.688H104.695L103.471 212.416C103.207 214.096 103.039 215.728 104.575 215.728C106.159 215.728 106.495 214.096 106.783 212.416L108.007 204.688H109.567L108.151 213.736C107.815 215.8 106.591 217.192 104.383 217.192C102.199 217.192 101.383 215.824 101.719 213.736L103.135 204.688ZM116.518 204.976L116.23 206.776C115.918 206.368 115.486 205.96 114.886 205.96C112.87 205.96 112.126 209.464 111.886 210.88C111.694 212.104 111.382 215.728 113.23 215.728C113.95 215.728 114.502 215.176 114.958 214.624H115.006L114.694 216.568C114.166 216.952 113.422 217.192 112.822 217.192C109.99 217.192 109.918 213.208 110.254 211.096C110.614 208.768 111.79 204.496 114.91 204.496C115.486 204.496 116.062 204.664 116.518 204.976ZM123.197 204.976L122.909 206.776C122.597 206.368 122.165 205.96 121.565 205.96C119.549 205.96 118.805 209.464 118.565 210.88C118.373 212.104 118.061 215.728 119.909 215.728C120.629 215.728 121.181 215.176 121.637 214.624H121.685L121.373 216.568C120.845 216.952 120.101 217.192 119.501 217.192C116.669 217.192 116.597 213.208 116.933 211.096C117.293 208.768 118.469 204.496 121.589 204.496C122.165 204.496 122.741 204.664 123.197 204.976ZM125.437 209.848H129.013L129.037 209.632C129.157 208.456 129.517 205.96 127.885 205.96C126.397 205.96 125.605 208.744 125.437 209.848ZM130.381 211.168H125.197L125.149 211.528C124.957 212.752 124.693 215.728 126.397 215.728C127.765 215.728 128.269 213.808 128.437 212.824H130.045C129.709 214.696 128.605 217.192 126.325 217.192C123.085 217.192 123.253 213.352 123.637 210.88C123.997 208.672 125.149 204.496 128.125 204.496C131.005 204.496 130.861 208.264 130.501 210.424L130.381 211.168ZM137.816 205.288L137.528 207.208H137.48C137.12 206.56 136.496 205.96 135.632 205.96C134.696 205.96 133.976 206.68 133.832 207.592C133.64 208.768 134.552 209.488 135.392 210.304C136.28 211.144 137.12 212.056 136.856 213.664C136.544 215.632 134.984 217.192 132.944 217.192C132.176 217.192 131.36 216.832 130.832 216.352L131.12 214.528C131.624 215.152 132.176 215.728 133.112 215.728C134.192 215.728 135.056 214.888 135.224 213.856C135.416 212.632 134.552 211.816 133.688 210.928C132.848 210.064 131.984 209.104 132.224 207.64C132.512 205.792 133.952 204.496 135.8 204.496C136.592 204.496 137.264 204.808 137.816 205.288ZM144.495 205.288L144.207 207.208H144.159C143.799 206.56 143.175 205.96 142.311 205.96C141.375 205.96 140.655 206.68 140.511 207.592C140.319 208.768 141.231 209.488 142.071 210.304C142.959 211.144 143.799 212.056 143.535 213.664C143.223 215.632 141.663 217.192 139.623 217.192C138.855 217.192 138.039 216.832 137.511 216.352L137.799 214.528C138.303 215.152 138.855 215.728 139.791 215.728C140.871 215.728 141.735 214.888 141.903 213.856C142.095 212.632 141.231 211.816 140.367 210.928C139.527 210.064 138.663 209.104 138.903 207.64C139.191 205.792 140.631 204.496 142.479 204.496C143.271 204.496 143.943 204.808 144.495 205.288ZM147.815 215.512L144.551 220.864L143.495 220.312L146.231 214.744L147.815 215.512ZM158.489 197.8L157.241 205.672C157.985 204.952 158.897 204.496 159.857 204.496C162.113 204.496 161.921 206.464 161.633 208.192L160.241 217H158.681L160.025 208.456C160.337 206.536 160.241 205.768 159.065 205.768C157.289 205.768 156.905 207.712 156.713 209.008L155.441 217H153.881L156.929 197.8H158.489ZM164.812 209.848H168.388L168.412 209.632C168.532 208.456 168.892 205.96 167.26 205.96C165.772 205.96 164.98 208.744 164.812 209.848ZM169.756 211.168H164.572L164.524 211.528C164.332 212.752 164.068 215.728 165.772 215.728C167.14 215.728 167.644 213.808 167.812 212.824H169.42C169.084 214.696 167.98 217.192 165.7 217.192C162.46 217.192 162.628 213.352 163.012 210.88C163.372 208.672 164.524 204.496 167.5 204.496C170.38 204.496 170.236 208.264 169.876 210.424L169.756 211.168ZM175.247 197.8L172.199 217H170.639L173.687 197.8H175.247ZM177.749 215.92C179.189 215.92 179.717 214.504 180.317 210.712C180.629 208.816 181.085 205.768 179.285 205.768C177.629 205.768 177.149 208.312 176.813 210.496C176.429 212.872 176.045 215.92 177.749 215.92ZM177.869 204.688L177.749 205.528H177.797C178.373 204.856 178.997 204.496 179.885 204.496C182.741 204.496 182.333 208.216 181.925 210.712C181.493 213.496 180.845 217.192 177.989 217.192C177.101 217.192 176.477 216.736 176.117 216.04H176.069L175.181 221.704H173.621L176.309 204.688H177.869ZM186.236 204.688L184.292 217H182.732L184.676 204.688H186.236ZM187.196 201.04C187.1 201.688 186.5 202.216 185.876 202.216C185.228 202.216 184.772 201.688 184.868 201.04C184.964 200.416 185.588 199.888 186.236 199.888C186.86 199.888 187.292 200.416 187.196 201.04ZM189.963 204.688L189.819 205.672C190.563 204.952 191.475 204.496 192.435 204.496C194.619 204.496 194.475 206.512 194.211 208.192L192.819 217H191.259L192.627 208.36C192.867 206.896 192.939 205.768 191.643 205.768C189.867 205.768 189.483 207.712 189.291 209.008L188.019 217H186.459L188.403 204.688H189.963ZM197.174 211.048C196.958 212.392 196.406 215.728 198.374 215.728C200.03 215.728 200.486 213.304 200.918 210.616C201.278 208.36 201.542 205.768 199.838 205.768C198.71 205.768 197.894 206.536 197.174 211.048ZM203.27 204.688L201.254 217.456C200.894 219.76 200.462 221.896 197.342 221.896C195.182 221.896 194.366 220.6 194.702 218.488L194.774 218.032H196.31L196.286 218.248C196.094 219.4 196.238 220.432 197.582 220.432C199.334 220.432 199.43 218.896 199.646 217.576L199.886 216.136C199.262 216.736 198.566 217 197.75 217C194.678 217 195.302 212.752 195.638 210.568C195.974 208.504 196.862 204.496 199.718 204.496C200.558 204.496 201.182 204.88 201.542 205.528H201.59L201.71 204.688H203.27ZM216.521 204.688L209.585 221.704H207.953L209.969 216.664L208.937 204.688H210.521L211.025 214.624H211.097C211.481 213.568 211.841 212.512 212.249 211.456L214.889 204.688H216.521ZM221.01 204.496C224.25 204.496 223.89 208.528 223.53 210.832C223.146 213.16 222.234 217.192 218.994 217.192C215.754 217.192 216.09 213.16 216.474 210.832C216.834 208.528 217.77 204.496 221.01 204.496ZM220.77 205.96C218.898 205.96 218.25 209.656 218.082 210.832C217.89 212.032 217.338 215.728 219.21 215.728C221.082 215.728 221.73 212.032 221.922 210.832C222.09 209.656 222.642 205.96 220.77 205.96ZM226.229 204.688H227.789L226.565 212.416C226.301 214.096 226.133 215.728 227.669 215.728C229.253 215.728 229.589 214.096 229.877 212.416L231.101 204.688H232.661L231.245 213.736C230.909 215.8 229.685 217.192 227.477 217.192C225.293 217.192 224.477 215.824 224.813 213.736L226.229 204.688ZM243.572 210.64C244.004 207.976 244.148 205.768 242.612 205.768C240.884 205.768 240.356 208.504 240.02 210.592C239.228 215.68 240.02 215.92 240.932 215.92C242.444 215.92 242.948 214.504 243.572 210.64ZM245.924 204.688L243.98 217H242.42L242.564 216.04H242.516C241.964 216.736 241.196 217.192 240.308 217.192C238.34 217.192 237.548 216.088 238.388 210.712C238.844 207.952 239.492 204.496 242.468 204.496C243.332 204.496 243.812 204.856 244.196 205.528H244.244L244.364 204.688H245.924ZM252.971 204.976L252.683 206.776C252.371 206.368 251.939 205.96 251.339 205.96C249.323 205.96 248.579 209.464 248.339 210.88C248.147 212.104 247.835 215.728 249.683 215.728C250.403 215.728 250.955 215.176 251.411 214.624H251.459L251.147 216.568C250.619 216.952 249.875 217.192 249.275 217.192C246.443 217.192 246.371 213.208 246.707 211.096C247.067 208.768 248.243 204.496 251.363 204.496C251.939 204.496 252.515 204.664 252.971 204.976ZM257.418 197.8L256.17 205.672C256.914 204.952 257.826 204.496 258.786 204.496C261.042 204.496 260.85 206.464 260.562 208.192L259.17 217H257.61L258.954 208.456C259.266 206.536 259.17 205.768 257.994 205.768C256.218 205.768 255.834 207.712 255.642 209.008L254.37 217H252.81L255.858 197.8H257.418ZM264.846 204.688L262.902 217H261.342L263.286 204.688H264.846ZM265.806 201.04C265.71 201.688 265.11 202.216 264.486 202.216C263.838 202.216 263.382 201.688 263.478 201.04C263.574 200.416 264.198 199.888 264.846 199.888C265.47 199.888 265.902 200.416 265.806 201.04ZM267.468 209.848H271.044L271.068 209.632C271.188 208.456 271.548 205.96 269.916 205.96C268.428 205.96 267.636 208.744 267.468 209.848ZM272.412 211.168H267.228L267.18 211.528C266.988 212.752 266.724 215.728 268.428 215.728C269.796 215.728 270.3 213.808 270.468 212.824H272.076C271.74 214.696 270.636 217.192 268.356 217.192C265.116 217.192 265.284 213.352 265.668 210.88C266.028 208.672 267.18 204.496 270.156 204.496C273.036 204.496 272.892 208.264 272.532 210.424L272.412 211.168ZM281.575 204.688L276.895 217H275.215L274.351 204.688H275.935L276.295 212.392C276.343 213.16 276.343 213.928 276.391 214.696H276.487C276.703 213.928 276.943 213.136 277.183 212.392L279.967 204.688H281.575ZM283.289 209.848H286.865L286.889 209.632C287.009 208.456 287.369 205.96 285.737 205.96C284.249 205.96 283.457 208.744 283.289 209.848ZM288.233 211.168H283.049L283.001 211.528C282.809 212.752 282.545 215.728 284.249 215.728C285.617 215.728 286.121 213.808 286.289 212.824H287.897C287.561 214.696 286.457 217.192 284.177 217.192C280.937 217.192 281.105 213.352 281.489 210.88C281.849 208.672 283.001 204.496 285.977 204.496C288.857 204.496 288.713 208.264 288.353 210.424L288.233 211.168ZM302.161 204.688L295.225 221.704H293.593L295.609 216.664L294.577 204.688H296.161L296.665 214.624H296.737C297.121 213.568 297.481 212.512 297.889 211.456L300.529 204.688H302.161ZM306.65 204.496C309.89 204.496 309.53 208.528 309.17 210.832C308.786 213.16 307.874 217.192 304.634 217.192C301.394 217.192 301.73 213.16 302.114 210.832C302.474 208.528 303.41 204.496 306.65 204.496ZM306.41 205.96C304.538 205.96 303.89 209.656 303.722 210.832C303.53 212.032 302.978 215.728 304.85 215.728C306.722 215.728 307.37 212.032 307.562 210.832C307.73 209.656 308.282 205.96 306.41 205.96ZM311.869 204.688H313.429L312.205 212.416C311.941 214.096 311.773 215.728 313.309 215.728C314.893 215.728 315.229 214.096 315.517 212.416L316.741 204.688H318.301L316.885 213.736C316.549 215.8 315.325 217.192 313.117 217.192C310.933 217.192 310.117 215.824 310.453 213.736L311.869 204.688ZM321.916 204.688L321.652 206.32H321.7C322.18 205.456 323.02 204.472 324.052 204.496L323.74 206.32L323.452 206.296C321.844 206.296 321.412 207.856 321.1 209.824L319.972 217H318.412L320.356 204.688H321.916ZM53.3536 233.976L53.0656 235.776C52.7536 235.368 52.3216 234.96 51.7216 234.96C49.7056 234.96 48.9616 238.464 48.7216 239.88C48.5296 241.104 48.2176 244.728 50.0656 244.728C50.7856 244.728 51.3376 244.176 51.7936 243.624H51.8416L51.5296 245.568C51.0016 245.952 50.2576 246.192 49.6576 246.192C46.8256 246.192 46.7536 242.208 47.0896 240.096C47.4496 237.768 48.6256 233.496 51.7456 233.496C52.3216 233.496 52.8976 233.664 53.3536 233.976ZM59.0013 239.64C59.4333 236.976 59.5773 234.768 58.0413 234.768C56.3133 234.768 55.7853 237.504 55.4493 239.592C54.6573 244.68 55.4493 244.92 56.3613 244.92C57.8733 244.92 58.3773 243.504 59.0013 239.64ZM61.3533 233.688L59.4093 246H57.8493L57.9933 245.04H57.9453C57.3933 245.736 56.6253 246.192 55.7373 246.192C53.7693 246.192 52.9773 245.088 53.8173 239.712C54.2733 236.952 54.9213 233.496 57.8973 233.496C58.7613 233.496 59.2413 233.856 59.6253 234.528H59.6733L59.7933 233.688H61.3533ZM65.0645 233.688L64.8005 235.32H64.8485C65.3285 234.456 66.1685 233.472 67.2005 233.496L66.8885 235.32L66.6005 235.296C64.9925 235.296 64.5605 236.856 64.2485 238.824L63.1205 246H61.5605L63.5045 233.688H65.0645ZM68.7417 238.848H72.3177L72.3417 238.632C72.4617 237.456 72.8217 234.96 71.1897 234.96C69.7017 234.96 68.9097 237.744 68.7417 238.848ZM73.6857 240.168H68.5017L68.4537 240.528C68.2617 241.752 67.9977 244.728 69.7017 244.728C71.0697 244.728 71.5737 242.808 71.7417 241.824H73.3497C73.0137 243.696 71.9097 246.192 69.6297 246.192C66.3897 246.192 66.5577 242.352 66.9417 239.88C67.3017 237.672 68.4537 233.496 71.4297 233.496C74.3097 233.496 74.1657 237.264 73.8057 239.424L73.6857 240.168ZM76.9683 238.848H80.5443L80.5683 238.632C80.6883 237.456 81.0483 234.96 79.4163 234.96C77.9283 234.96 77.1363 237.744 76.9683 238.848ZM81.9123 240.168H76.7283L76.6803 240.528C76.4883 241.752 76.2243 244.728 77.9283 244.728C79.2963 244.728 79.8003 242.808 79.9683 241.824H81.5763C81.2403 243.696 80.1363 246.192 77.8563 246.192C74.6163 246.192 74.7843 242.352 75.1683 239.88C75.5283 237.672 76.6803 233.496 79.6563 233.496C82.5363 233.496 82.3923 237.264 82.0323 239.424L81.9123 240.168ZM86.2988 233.688L86.0348 235.32H86.0828C86.5628 234.456 87.4028 233.472 88.4348 233.496L88.1228 235.32L87.8348 235.296C86.2268 235.296 85.7948 236.856 85.4828 238.824L84.3548 246H82.7948L84.7388 233.688H86.2988ZM94.8929 240.048C94.6769 241.392 94.1249 244.728 96.0929 244.728C97.7489 244.728 98.2049 242.304 98.6369 239.616C98.9969 237.36 99.2609 234.768 97.5569 234.768C96.4289 234.768 95.6129 235.536 94.8929 240.048ZM100.989 233.688L98.9729 246.456C98.6129 248.76 98.1809 250.896 95.0609 250.896C92.9009 250.896 92.0849 249.6 92.4209 247.488L92.4929 247.032H94.0289L94.0049 247.248C93.8129 248.4 93.9569 249.432 95.3009 249.432C97.0529 249.432 97.1489 247.896 97.3649 246.576L97.6049 245.136C96.9809 245.736 96.2849 246 95.4689 246C92.3969 246 93.0209 241.752 93.3569 239.568C93.6929 237.504 94.5809 233.496 97.4369 233.496C98.2769 233.496 98.9009 233.88 99.2609 234.528H99.3089L99.4289 233.688H100.989ZM106.353 233.496C109.593 233.496 109.233 237.528 108.873 239.832C108.489 242.16 107.577 246.192 104.337 246.192C101.097 246.192 101.433 242.16 101.817 239.832C102.177 237.528 103.113 233.496 106.353 233.496ZM106.113 234.96C104.241 234.96 103.593 238.656 103.425 239.832C103.233 241.032 102.681 244.728 104.553 244.728C106.425 244.728 107.073 241.032 107.265 239.832C107.433 238.656 107.985 234.96 106.113 234.96ZM115.533 239.64C115.965 236.976 116.109 234.768 114.573 234.768C112.845 234.768 112.317 237.504 111.981 239.592C111.189 244.68 111.981 244.92 112.893 244.92C114.405 244.92 114.909 243.504 115.533 239.64ZM117.885 233.688L115.941 246H114.381L114.525 245.04H114.477C113.925 245.736 113.157 246.192 112.269 246.192C110.301 246.192 109.509 245.088 110.349 239.712C110.805 236.952 111.453 233.496 114.429 233.496C115.293 233.496 115.773 233.856 116.157 234.528H116.205L116.325 233.688H117.885ZM122.7 226.8L119.652 246H118.092L121.14 226.8H122.7ZM128.37 234.288L128.082 236.208H128.034C127.674 235.56 127.05 234.96 126.186 234.96C125.25 234.96 124.53 235.68 124.386 236.592C124.194 237.768 125.106 238.488 125.946 239.304C126.834 240.144 127.674 241.056 127.41 242.664C127.098 244.632 125.538 246.192 123.498 246.192C122.73 246.192 121.914 245.832 121.386 245.352L121.674 243.528C122.178 244.152 122.73 244.728 123.666 244.728C124.746 244.728 125.61 243.888 125.778 242.856C125.97 241.632 125.106 240.816 124.242 239.928C123.402 239.064 122.538 238.104 122.778 236.64C123.066 234.792 124.506 233.496 126.354 233.496C127.146 233.496 127.818 233.808 128.37 234.288ZM139.298 239.64C139.73 236.976 139.874 234.768 138.338 234.768C136.61 234.768 136.082 237.504 135.746 239.592C134.954 244.68 135.746 244.92 136.658 244.92C138.17 244.92 138.674 243.504 139.298 239.64ZM141.65 233.688L139.706 246H138.146L138.29 245.04H138.242C137.69 245.736 136.922 246.192 136.034 246.192C134.066 246.192 133.274 245.088 134.114 239.712C134.57 236.952 135.218 233.496 138.194 233.496C139.058 233.496 139.538 233.856 139.922 234.528H139.97L140.09 233.688H141.65ZM145.361 233.688L145.217 234.672C145.961 233.952 146.873 233.496 147.833 233.496C150.017 233.496 149.873 235.512 149.609 237.192L148.217 246H146.657L148.025 237.36C148.265 235.896 148.337 234.768 147.041 234.768C145.265 234.768 144.881 236.712 144.689 238.008L143.417 246H141.857L143.801 233.688H145.361ZM156.197 239.64C156.653 236.832 156.677 234.768 155.237 234.768C153.485 234.768 152.933 237.84 152.645 239.592C152.477 240.744 151.565 244.92 153.557 244.92C155.213 244.92 155.693 242.88 156.197 239.64ZM155.045 246L155.189 245.04H155.141C154.589 245.736 153.821 246.192 152.933 246.192C150.365 246.192 150.485 243.072 151.013 239.712C151.565 236.352 152.357 233.496 155.093 233.496C155.957 233.496 156.437 233.856 156.821 234.528H156.869L158.093 226.8H159.653L156.605 246H155.045ZM165.867 238.848H169.443L169.467 238.632C169.587 237.456 169.947 234.96 168.315 234.96C166.827 234.96 166.035 237.744 165.867 238.848ZM170.811 240.168H165.627L165.579 240.528C165.387 241.752 165.123 244.728 166.827 244.728C168.195 244.728 168.699 242.808 168.867 241.824H170.475C170.139 243.696 169.035 246.192 166.755 246.192C163.515 246.192 163.683 242.352 164.067 239.88C164.427 237.672 165.579 233.496 168.555 233.496C171.435 233.496 171.291 237.264 170.931 239.424L170.811 240.168ZM180.097 233.688L176.377 239.712L178.153 246H176.425L175.657 242.76C175.513 242.088 175.345 241.416 175.345 240.696H175.249C175.033 241.416 174.697 242.112 174.313 242.784L172.585 246H170.833L174.649 239.712L173.065 233.688H174.793L175.369 236.424C175.537 237.24 175.657 238.056 175.705 238.92H175.801C176.137 238.056 176.449 237.192 176.929 236.352L178.369 233.688H180.097ZM186.291 233.976L186.003 235.776C185.691 235.368 185.259 234.96 184.659 234.96C182.643 234.96 181.899 238.464 181.659 239.88C181.467 241.104 181.155 244.728 183.003 244.728C183.723 244.728 184.275 244.176 184.731 243.624H184.779L184.467 245.568C183.939 245.952 183.195 246.192 182.595 246.192C179.763 246.192 179.691 242.208 180.027 240.096C180.387 237.768 181.563 233.496 184.683 233.496C185.259 233.496 185.835 233.664 186.291 233.976ZM188.531 238.848H192.107L192.131 238.632C192.251 237.456 192.611 234.96 190.979 234.96C189.491 234.96 188.699 237.744 188.531 238.848ZM193.475 240.168H188.291L188.243 240.528C188.051 241.752 187.787 244.728 189.491 244.728C190.859 244.728 191.363 242.808 191.531 241.824H193.139C192.803 243.696 191.699 246.192 189.419 246.192C186.179 246.192 186.347 242.352 186.731 239.88C187.091 237.672 188.243 233.496 191.219 233.496C194.099 233.496 193.955 237.264 193.595 239.424L193.475 240.168ZM198.965 226.8L195.917 246H194.357L197.405 226.8H198.965ZM206.58 233.688L204.636 246H203.076L205.02 233.688H206.58ZM207.54 230.04C207.444 230.688 206.844 231.216 206.22 231.216C205.572 231.216 205.116 230.688 205.212 230.04C205.308 229.416 205.932 228.888 206.58 228.888C207.204 228.888 207.636 229.416 207.54 230.04ZM210.307 233.688L210.163 234.672C210.907 233.952 211.819 233.496 212.779 233.496C214.963 233.496 214.819 235.512 214.555 237.192L213.163 246H211.603L212.971 237.36C213.211 235.896 213.283 234.768 211.987 234.768C210.211 234.768 209.827 236.712 209.635 238.008L208.363 246H206.803L208.747 233.688H210.307ZM228.38 233.688L221.444 250.704H219.812L221.828 245.664L220.796 233.688H222.38L222.884 243.624H222.956C223.34 242.568 223.7 241.512 224.108 240.456L226.748 233.688H228.38ZM232.869 233.496C236.109 233.496 235.749 237.528 235.389 239.832C235.005 242.16 234.093 246.192 230.853 246.192C227.613 246.192 227.949 242.16 228.333 239.832C228.693 237.528 229.629 233.496 232.869 233.496ZM232.629 234.96C230.757 234.96 230.109 238.656 229.941 239.832C229.749 241.032 229.197 244.728 231.069 244.728C232.941 244.728 233.589 241.032 233.781 239.832C233.949 238.656 234.501 234.96 232.629 234.96ZM238.088 233.688H239.648L238.424 241.416C238.16 243.096 237.992 244.728 239.528 244.728C241.112 244.728 241.448 243.096 241.736 241.416L242.96 233.688H244.52L243.104 242.736C242.768 244.8 241.544 246.192 239.336 246.192C237.152 246.192 236.336 244.824 236.672 242.736L238.088 233.688ZM248.135 233.688L247.871 235.32H247.919C248.399 234.456 249.239 233.472 250.271 233.496L249.959 235.32L249.671 235.296C248.063 235.296 247.631 236.856 247.319 238.824L246.191 246H244.631L246.575 233.688H248.135ZM258.049 233.688L257.905 234.672C258.649 233.952 259.561 233.496 260.521 233.496C262.705 233.496 262.561 235.512 262.297 237.192L260.905 246H259.345L260.713 237.36C260.953 235.896 261.025 234.768 259.729 234.768C257.953 234.768 257.569 236.712 257.377 238.008L256.105 246H254.545L256.489 233.688H258.049ZM265.476 238.848H269.052L269.076 238.632C269.196 237.456 269.556 234.96 267.924 234.96C266.436 234.96 265.644 237.744 265.476 238.848ZM270.42 240.168H265.236L265.188 240.528C264.996 241.752 264.732 244.728 266.436 244.728C267.804 244.728 268.308 242.808 268.476 241.824H270.084C269.748 243.696 268.644 246.192 266.364 246.192C263.124 246.192 263.292 242.352 263.676 239.88C264.036 237.672 265.188 233.496 268.164 233.496C271.044 233.496 270.9 237.264 270.54 239.424L270.42 240.168ZM283.999 233.688L279.343 246H277.735V237.072C277.735 236.64 277.807 236.184 277.831 235.752H277.759C277.567 236.496 277.399 237.24 277.159 237.984L274.567 246H272.983L272.431 233.688H274.015L274.039 240.96C274.039 241.896 274.087 242.808 274.111 243.744H274.207C274.471 242.808 274.711 241.896 274.999 240.96L277.351 233.688H278.935L278.887 242.208C278.887 242.712 278.863 243.24 278.863 243.744H278.935C279.175 242.952 279.391 242.136 279.679 241.344L282.415 233.688H283.999ZM291.893 233.688L291.629 235.32H291.677C292.157 234.456 292.997 233.472 294.029 233.496L293.717 235.32L293.429 235.296C291.821 235.296 291.389 236.856 291.077 238.824L289.949 246H288.389L290.333 233.688H291.893ZM298.33 233.496C301.57 233.496 301.21 237.528 300.85 239.832C300.466 242.16 299.554 246.192 296.314 246.192C293.074 246.192 293.41 242.16 293.794 239.832C294.154 237.528 295.09 233.496 298.33 233.496ZM298.09 234.96C296.218 234.96 295.57 238.656 295.402 239.832C295.21 241.032 294.658 244.728 296.53 244.728C298.402 244.728 299.05 241.032 299.242 239.832C299.41 238.656 299.962 234.96 298.09 234.96ZM306.309 226.8L303.261 246H301.701L304.749 226.8H306.309ZM307.828 238.848H311.404L311.428 238.632C311.548 237.456 311.908 234.96 310.276 234.96C308.788 234.96 307.996 237.744 307.828 238.848ZM312.772 240.168H307.588L307.54 240.528C307.348 241.752 307.084 244.728 308.788 244.728C310.156 244.728 310.66 242.808 310.828 241.824H312.436C312.1 243.696 310.996 246.192 308.716 246.192C305.476 246.192 305.644 242.352 306.028 239.88C306.388 237.672 307.54 233.496 310.516 233.496C313.396 233.496 313.252 237.264 312.892 239.424L312.772 240.168ZM315.43 243.744C316.102 243.744 316.558 244.296 316.462 244.968C316.342 245.64 315.718 246.192 315.046 246.192C314.374 246.192 313.894 245.64 314.014 244.968C314.11 244.296 314.758 243.744 315.43 243.744Z" fill="white"/>
</svg>
