<svg width="546" height="327" viewBox="0 0 546 327" fill="none" xmlns="http://www.w3.org/2000/svg">
<rect width="546" height="327" rx="50" fill="#0E3D68"/>
<path d="M161.151 131H150.951V93.3H168.951V102.2H161.151V107.65H168.451V116.55H161.151V131ZM173.873 112.15C173.873 102.95 177.923 92.65 188.273 92.65C198.623 92.65 202.673 102.95 202.673 112.15C202.673 121.35 198.623 131.65 188.273 131.65C177.923 131.65 173.873 121.35 173.873 112.15ZM184.273 112.15C184.273 114.5 184.423 122.15 188.273 122.15C192.123 122.15 192.273 114.5 192.273 112.15C192.273 109.8 192.123 102.15 188.273 102.15C184.423 102.15 184.273 109.8 184.273 112.15ZM225.442 131H207.592V93.3H217.792V122.1H225.442V131ZM247.463 131H229.613V93.3H239.813V122.1H247.463V131ZM248.971 112.15C248.971 102.95 253.021 92.65 263.371 92.65C273.721 92.65 277.771 102.95 277.771 112.15C277.771 121.35 273.721 131.65 263.371 131.65C253.021 131.65 248.971 121.35 248.971 112.15ZM259.371 112.15C259.371 114.5 259.521 122.15 263.371 122.15C267.221 122.15 267.371 114.5 267.371 112.15C267.371 109.8 267.221 102.15 263.371 102.15C259.521 102.15 259.371 109.8 259.371 112.15ZM314.689 131H304.839L302.089 115.7C301.539 112.65 301.389 110 301.039 107.4H300.939C300.689 110 300.589 112.65 300.139 115.7L297.989 131H288.089L279.689 93.3H289.739L291.989 108.5C292.389 111.3 292.689 114.05 293.039 116.85H293.139C293.439 114.05 293.489 111.3 293.989 108.5L296.639 93.3H305.389L307.989 108.5C308.439 111.25 308.739 113.95 309.139 116.7H309.239C309.539 114.35 309.639 111.45 310.089 108.5L312.339 93.3H322.289L314.689 131ZM335.832 119.05H323.582V110.95H335.832V119.05ZM355.896 93.3H366.096V117.95C366.096 122.5 365.096 131.65 353.296 131.65C341.496 131.65 340.496 122.5 340.496 117.95V93.3H350.696V117C350.696 118 350.646 119.3 350.946 120.3C351.246 121.35 351.896 122.15 353.296 122.15C354.746 122.15 355.396 121.35 355.646 120.35C355.946 119.3 355.896 118 355.896 117.05V93.3ZM382.05 131H371.85V93.3H381.15C390.05 93.3 396.9 96.2 396.9 106.1C396.9 115.9 390.9 118.9 382.05 118.65V131ZM386.6 105.95C386.6 103.55 385.3 101.4 382.8 101.4L382.05 101.45V110.15C384.85 110.3 386.6 108.75 386.6 105.95ZM171.626 153.55V164.35C170.176 162.95 168.976 162.15 166.876 162.15C161.576 162.15 160.276 168 160.276 172.15C160.276 176.55 161.576 182.15 166.676 182.15C168.976 182.15 170.426 181.25 172.076 179.75L171.476 190.3C169.426 191.2 167.576 191.65 165.326 191.65C156.976 191.65 149.876 185.3 149.876 172.4C149.876 155.5 161.476 152.65 166.426 152.65C168.226 152.65 169.976 152.9 171.626 153.55ZM174.728 172.15C174.728 162.95 178.778 152.65 189.128 152.65C199.478 152.65 203.528 162.95 203.528 172.15C203.528 181.35 199.478 191.65 189.128 191.65C178.778 191.65 174.728 181.35 174.728 172.15ZM185.128 172.15C185.128 174.5 185.278 182.15 189.128 182.15C192.978 182.15 193.128 174.5 193.128 172.15C193.128 169.8 192.978 162.15 189.128 162.15C185.278 162.15 185.128 169.8 185.128 172.15ZM208.446 191V153.3H218.146L226.296 176L226.396 175.9C225.996 171.55 225.246 167.25 225.246 162.9V153.3H235.046V191H225.246L217.646 169.25L217.546 169.35C217.796 172.9 218.246 176.4 218.246 179.95V191H208.446ZM255.013 191H244.813V162.5H239.213V153.3H260.863V162.5H255.013V191ZM275.14 191H264.94V153.3H275.14V191ZM281.151 191V153.3H290.851L299.001 176L299.101 175.9C298.701 171.55 297.951 167.25 297.951 162.9V153.3H307.751V191H297.951L290.351 169.25L290.251 169.35C290.501 172.9 290.951 176.4 290.951 179.95V191H281.151ZM312.619 172.15C312.619 162.95 316.669 152.65 327.019 152.65C337.369 152.65 341.419 162.95 341.419 172.15C341.419 181.35 337.369 191.65 327.019 191.65C316.669 191.65 312.619 181.35 312.619 172.15ZM323.019 172.15C323.019 174.5 323.169 182.15 327.019 182.15C330.869 182.15 331.019 174.5 331.019 172.15C331.019 169.8 330.869 162.15 327.019 162.15C323.169 162.15 323.019 169.8 323.019 172.15ZM361.487 153.3H371.687V177.95C371.687 182.5 370.687 191.65 358.887 191.65C347.087 191.65 346.087 182.5 346.087 177.95V153.3H356.287V177C356.287 178 356.237 179.3 356.537 180.3C356.837 181.35 357.487 182.15 358.887 182.15C360.337 182.15 360.987 181.35 361.237 180.35C361.537 179.3 361.487 178 361.487 177.05V153.3ZM376.49 190.1V178.3C377.89 180.4 380.34 182.5 382.94 182.5C384.34 182.5 385.94 181.65 385.94 180C385.94 179.1 385.64 178.45 385.14 177.9C384.69 177.35 384.09 176.9 383.44 176.45C381.44 174.9 379.69 173.45 378.39 171.65C377.14 169.9 376.34 167.8 376.34 165.05C376.34 160.65 379.14 152.65 387.84 152.65C390.29 152.65 392.94 153.4 395.09 154.55V166C393.89 164.1 391.44 161.95 389.09 161.95C387.89 161.95 386.44 162.8 386.44 164.25C386.44 165.05 386.89 165.75 387.44 166.35C387.99 166.95 388.74 167.45 389.29 167.9C391.44 169.4 393.14 170.8 394.29 172.5C395.49 174.2 396.14 176.2 396.14 179.05C396.14 186.05 391.24 191.65 384.14 191.65C381.54 191.65 378.89 191.1 376.49 190.1ZM175.343 250.1V238.3C176.743 240.4 179.193 242.5 181.793 242.5C183.193 242.5 184.793 241.65 184.793 240C184.793 239.1 184.493 238.45 183.993 237.9C183.543 237.35 182.943 236.9 182.293 236.45C180.293 234.9 178.543 233.45 177.243 231.65C175.993 229.9 175.193 227.8 175.193 225.05C175.193 220.65 177.993 212.65 186.693 212.65C189.143 212.65 191.793 213.4 193.943 214.55V226C192.743 224.1 190.293 221.95 187.943 221.95C186.743 221.95 185.293 222.8 185.293 224.25C185.293 225.05 185.743 225.75 186.293 226.35C186.843 226.95 187.593 227.45 188.143 227.9C190.293 229.4 191.993 230.8 193.143 232.5C194.343 234.2 194.993 236.2 194.993 239.05C194.993 246.05 190.093 251.65 182.993 251.65C180.393 251.65 177.743 251.1 175.343 250.1ZM215.027 213.3H225.227V237.95C225.227 242.5 224.227 251.65 212.427 251.65C200.627 251.65 199.627 242.5 199.627 237.95V213.3H209.827V237C209.827 238 209.777 239.3 210.077 240.3C210.377 241.35 211.027 242.15 212.427 242.15C213.877 242.15 214.527 241.35 214.777 240.35C215.077 239.3 215.027 238 215.027 237.05V213.3ZM241.18 251H230.98V213.3H240.28C249.18 213.3 256.03 216.2 256.03 226.1C256.03 235.9 250.03 238.9 241.18 238.65V251ZM245.73 225.95C245.73 223.55 244.43 221.4 241.93 221.4L241.18 221.45V230.15C243.98 230.3 245.73 228.75 245.73 225.95ZM270.38 251H260.18V213.3H269.48C278.38 213.3 285.23 216.2 285.23 226.1C285.23 235.9 279.23 238.9 270.38 238.65V251ZM274.93 225.95C274.93 223.55 273.63 221.4 271.13 221.4L270.38 221.45V230.15C273.18 230.3 274.93 228.75 274.93 225.95ZM288.229 232.15C288.229 222.95 292.279 212.65 302.629 212.65C312.979 212.65 317.029 222.95 317.029 232.15C317.029 241.35 312.979 251.65 302.629 251.65C292.279 251.65 288.229 241.35 288.229 232.15ZM298.629 232.15C298.629 234.5 298.779 242.15 302.629 242.15C306.479 242.15 306.629 234.5 306.629 232.15C306.629 229.8 306.479 222.15 302.629 222.15C298.779 222.15 298.629 229.8 298.629 232.15ZM348.797 251H337.747L332.097 235.3L331.997 235.4C332.047 237.25 332.147 239.1 332.147 240.95V251H321.947V213.3H331.797C340.647 213.3 347.047 215.9 347.047 225.85C347.047 230 345.247 233.7 341.197 235.3L348.797 251ZM332.147 230.7L332.797 230.75C335.497 230.75 336.947 228.4 336.947 225.95C336.947 222.65 334.947 221.25 332.147 221.4V230.7ZM365.78 251H355.58V222.5H349.98V213.3H371.63V222.5H365.78V251Z" fill="#CBE1F0"/>
</svg>
