<svg width="546" height="327" viewBox="0 0 546 327" fill="none" xmlns="http://www.w3.org/2000/svg">
<rect width="546" height="327" rx="50" fill="#6CBF2A"/>
<g clip-path="url(#clip0_407_2577)">
<path d="M81.4165 94L48.6469 81.5L47.3748 82.6833L52.7498 94L47.3748 105.317L48.6469 106.5L81.4165 94Z" fill="#0E3D68"/>
</g>
<path d="M115.44 85.64H122.018L121.908 86.3C121.204 90.854 117.42 94.352 112.778 94.352C108.136 94.352 105.034 90.348 105.76 85.75C106.53 80.976 110.974 77.06 115.748 77.06C118.322 77.06 120.698 78.226 121.996 80.272L120.324 81.658C119.4 80.03 117.552 78.952 115.528 78.952C111.81 78.952 108.444 81.966 107.85 85.684C107.3 89.16 109.632 92.46 113.218 92.46C115.792 92.46 118.916 90.238 119.444 87.532H115.154L115.44 85.64ZM132.342 89.182H124.488C124.224 90.942 125.148 92.592 127.04 92.592C128.558 92.592 129.504 91.822 130.45 90.59L131.968 91.536C130.714 93.318 128.734 94.352 126.732 94.352C123.586 94.352 122.068 91.976 122.53 88.94C123.036 85.772 125.104 83.396 128.426 83.396C131.704 83.396 132.87 85.816 132.386 88.874L132.342 89.182ZM124.818 87.686H130.582C130.604 86.146 129.746 85.112 128.162 85.112C126.622 85.112 125.302 86.212 124.818 87.686ZM136.88 85.552L135.538 94H133.558L134.9 85.552H133.822L134.108 83.704H135.186L135.802 79.766H137.782L137.166 83.704H139.102L138.816 85.552H136.88ZM154.6 89.182H146.746C146.482 90.942 147.406 92.592 149.298 92.592C150.816 92.592 151.762 91.822 152.708 90.59L154.226 91.536C152.972 93.318 150.992 94.352 148.99 94.352C145.844 94.352 144.326 91.976 144.788 88.94C145.294 85.772 147.362 83.396 150.684 83.396C153.962 83.396 155.128 85.816 154.644 88.874L154.6 89.182ZM147.076 87.686H152.84C152.862 86.146 152.004 85.112 150.42 85.112C148.88 85.112 147.56 86.212 147.076 87.686ZM159.207 88.412L156.259 83.704H158.591L160.505 87.026L163.695 83.704H166.093L161.561 88.412L165.103 94H162.793L160.065 89.82L156.127 94H153.729L159.207 88.412ZM171.357 92.592C173.513 92.592 174.965 90.876 175.295 88.852C175.603 86.85 174.679 85.156 172.545 85.156C170.499 85.156 169.003 86.938 168.695 88.852C168.387 90.788 169.267 92.592 171.357 92.592ZM169.619 83.704L169.355 85.42H169.399C170.411 84.188 171.753 83.396 173.293 83.396C176.263 83.396 177.737 85.97 177.297 88.786C176.813 91.734 174.635 94.352 171.467 94.352C170.015 94.352 168.893 93.56 168.299 92.394H168.255L167.067 99.896H165.087L167.639 83.704H169.619ZM188.201 89.182H180.347C180.083 90.942 181.007 92.592 182.899 92.592C184.417 92.592 185.363 91.822 186.309 90.59L187.827 91.536C186.573 93.318 184.593 94.352 182.591 94.352C179.445 94.352 177.927 91.976 178.389 88.94C178.895 85.772 180.963 83.396 184.285 83.396C187.563 83.396 188.729 85.816 188.245 88.874L188.201 89.182ZM180.677 87.686H186.441C186.463 86.146 185.605 85.112 184.021 85.112C182.481 85.112 181.161 86.212 180.677 87.686ZM192.872 83.704L192.608 85.376H192.674C193.356 84.166 194.478 83.396 195.798 83.396C196.37 83.396 196.92 83.594 197.36 83.902L196.172 85.706C195.864 85.398 195.49 85.288 195.028 85.288C192.894 85.288 192.3 87.268 192.036 88.94L191.244 94H189.264L190.892 83.704H192.872ZM200.882 85.552L199.54 94H197.56L198.902 85.552H197.824L198.11 83.704H199.188L199.804 79.766H201.784L201.168 83.704H203.104L202.818 85.552H200.882ZM211.933 74.904H213.913L212.307 85.09H212.351C213.143 83.99 214.463 83.396 215.717 83.396C218.621 83.396 219.061 85.354 218.665 87.862L217.697 94H215.717L216.641 88.104C216.927 86.344 216.883 85.156 214.859 85.156C212.307 85.156 211.955 87.4 211.647 89.27L210.899 94H208.919L211.933 74.904ZM230.246 89.182H222.392C222.128 90.942 223.052 92.592 224.944 92.592C226.462 92.592 227.408 91.822 228.354 90.59L229.872 91.536C228.618 93.318 226.638 94.352 224.636 94.352C221.49 94.352 219.972 91.976 220.434 88.94C220.94 85.772 223.008 83.396 226.33 83.396C229.608 83.396 230.774 85.816 230.29 88.874L230.246 89.182ZM222.722 87.686H228.486C228.508 86.146 227.65 85.112 226.066 85.112C224.526 85.112 223.206 86.212 222.722 87.686ZM236.259 74.904L233.245 94H231.264L234.279 74.904H236.259ZM241.245 92.592C243.401 92.592 244.853 90.876 245.183 88.852C245.491 86.85 244.567 85.156 242.433 85.156C240.387 85.156 238.891 86.938 238.583 88.852C238.275 90.788 239.155 92.592 241.245 92.592ZM239.507 83.704L239.243 85.42H239.287C240.299 84.188 241.641 83.396 243.181 83.396C246.151 83.396 247.625 85.97 247.185 88.786C246.701 91.734 244.523 94.352 241.355 94.352C239.903 94.352 238.781 93.56 238.187 92.394H238.143L236.955 99.896H234.975L237.527 83.704H239.507ZM258.685 83.704L257.057 94H255.077L256.705 83.704H258.685ZM258.663 77.61C259.411 77.61 259.939 78.226 259.807 78.996C259.697 79.744 258.971 80.338 258.223 80.338C257.475 80.338 256.969 79.744 257.079 78.996C257.211 78.226 257.915 77.61 258.663 77.61ZM263.831 83.704L263.611 85.09H263.655C264.447 83.99 265.767 83.396 267.021 83.396C269.925 83.396 270.365 85.354 269.969 87.862L269.001 94H267.021L267.945 88.104C268.231 86.344 268.187 85.156 266.163 85.156C263.611 85.156 263.259 87.4 262.951 89.27L262.203 94H260.223L261.851 83.704H263.831ZM287.228 84.078L286.832 86.63C286.194 85.728 285.292 85.244 284.104 85.244C282.168 85.244 280.408 86.96 280.1 88.852C279.77 90.964 281.002 92.504 283.092 92.504C284.236 92.504 285.248 91.976 286.128 91.14L285.71 93.67C284.742 94.154 283.796 94.352 282.762 94.352C279.726 94.352 277.614 92.02 278.098 88.94C278.604 85.75 281.442 83.396 284.61 83.396C285.534 83.396 286.524 83.616 287.228 84.078ZM291.549 83.704L291.285 85.376H291.351C292.033 84.166 293.155 83.396 294.475 83.396C295.047 83.396 295.597 83.594 296.037 83.902L294.849 85.706C294.541 85.398 294.167 85.288 293.705 85.288C291.571 85.288 290.977 87.268 290.713 88.94L289.921 94H287.941L289.569 83.704H291.549ZM299.928 92.592C302.084 92.592 303.536 90.876 303.866 88.852C304.174 86.85 303.25 85.156 301.116 85.156C299.07 85.156 297.574 86.938 297.266 88.852C296.958 90.788 297.838 92.592 299.928 92.592ZM306.55 83.704L304.922 94H302.942L303.206 92.394H303.162C302.172 93.56 300.808 94.352 299.334 94.352C296.188 94.352 294.824 91.734 295.308 88.786C295.748 85.97 298.014 83.396 301.006 83.396C302.524 83.396 303.646 84.188 304.262 85.42H304.306L304.57 83.704H306.55ZM315.607 74.904L315.299 76.906C314.925 76.73 314.463 76.488 314.045 76.488C312.637 76.488 312.351 78.27 312.197 79.282L311.493 83.704H314.221L313.935 85.552H311.207L309.865 94H307.885L309.227 85.552H308.325L308.611 83.704H309.513L310.305 78.688C310.657 76.444 311.713 74.64 314.265 74.64C314.749 74.64 315.211 74.728 315.607 74.904ZM317.156 85.552L315.814 94H313.834L315.176 85.552H314.098L314.384 83.704H315.462L316.078 79.766H318.058L317.442 83.704H319.378L319.092 85.552H317.156ZM322.902 83.704L321.274 94H319.294L320.922 83.704H322.902ZM322.88 77.61C323.628 77.61 324.156 78.226 324.024 78.996C323.914 79.744 323.188 80.338 322.44 80.338C321.692 80.338 321.186 79.744 321.296 78.996C321.428 78.226 322.132 77.61 322.88 77.61ZM328.048 83.704L327.828 85.09H327.872C328.664 83.99 329.984 83.396 331.238 83.396C334.142 83.396 334.582 85.354 334.186 87.862L333.218 94H331.238L332.162 88.104C332.448 86.344 332.404 85.156 330.38 85.156C327.828 85.156 327.476 87.4 327.168 89.27L326.42 94H324.44L326.068 83.704H328.048ZM340.598 92.592C342.754 92.592 344.206 90.876 344.536 88.852C344.844 86.85 343.92 85.156 341.786 85.156C339.74 85.156 338.244 86.938 337.936 88.852C337.628 90.788 338.508 92.592 340.598 92.592ZM347.22 83.704L345.614 93.802C345.064 97.344 343.656 99.896 339.652 99.896C336.792 99.896 334.988 98.136 335.406 95.232H337.386C337.1 97.08 338.2 98.136 340.004 98.136C342.446 98.136 343.216 96.464 343.546 94.352L343.876 92.394H343.832C342.842 93.56 341.456 94.352 340.004 94.352C336.836 94.352 335.494 91.734 335.978 88.786C336.418 85.97 338.684 83.396 341.654 83.396C343.194 83.396 344.316 84.188 344.91 85.464H344.954L345.24 83.704H347.22ZM359.182 92.592C361.338 92.592 362.79 90.876 363.12 88.852C363.428 86.85 362.504 85.156 360.37 85.156C358.324 85.156 356.828 86.938 356.52 88.852C356.212 90.788 357.092 92.592 359.182 92.592ZM365.804 83.704L364.176 94H362.196L362.46 92.394H362.416C361.426 93.56 360.062 94.352 358.588 94.352C355.442 94.352 354.078 91.734 354.562 88.786C355.002 85.97 357.268 83.396 360.26 83.396C361.778 83.396 362.9 84.188 363.516 85.42H363.56L363.824 83.704H365.804ZM378.294 92.592C380.45 92.592 381.902 90.876 382.232 88.852C382.54 86.85 381.616 85.156 379.482 85.156C377.436 85.156 375.94 86.938 375.632 88.852C375.324 90.788 376.204 92.592 378.294 92.592ZM376.556 83.704L376.292 85.42H376.336C377.348 84.188 378.69 83.396 380.23 83.396C383.2 83.396 384.674 85.97 384.234 88.786C383.75 91.734 381.572 94.352 378.404 94.352C376.952 94.352 375.83 93.56 375.236 92.394H375.192L374.004 99.896H372.024L374.576 83.704H376.556ZM389.067 83.704L388.803 85.376H388.869C389.551 84.166 390.673 83.396 391.993 83.396C392.565 83.396 393.115 83.594 393.555 83.902L392.367 85.706C392.059 85.398 391.685 85.288 391.223 85.288C389.089 85.288 388.495 87.268 388.231 88.94L387.439 94H385.459L387.087 83.704H389.067ZM398.901 83.396C401.981 83.396 404.027 85.772 403.543 88.874C403.059 91.976 400.243 94.352 397.163 94.352C394.083 94.352 392.059 91.976 392.543 88.874C393.027 85.772 395.821 83.396 398.901 83.396ZM398.615 85.288C396.657 85.288 394.831 86.916 394.523 88.874C394.215 90.81 395.513 92.46 397.471 92.46C399.429 92.46 401.255 90.81 401.563 88.874C401.871 86.916 400.573 85.288 398.615 85.288ZM412.652 74.904L412.344 76.906C411.97 76.73 411.508 76.488 411.09 76.488C409.682 76.488 409.396 78.27 409.242 79.282L408.538 83.704H411.266L410.98 85.552H408.252L406.91 94H404.93L406.272 85.552H405.37L405.656 83.704H406.558L407.35 78.688C407.702 76.444 408.758 74.64 411.31 74.64C411.794 74.64 412.256 74.728 412.652 74.904ZM420.405 89.182H412.551C412.287 90.942 413.211 92.592 415.103 92.592C416.621 92.592 417.567 91.822 418.513 90.59L420.031 91.536C418.777 93.318 416.797 94.352 414.795 94.352C411.649 94.352 410.131 91.976 410.593 88.94C411.099 85.772 413.167 83.396 416.489 83.396C419.767 83.396 420.933 85.816 420.449 88.874L420.405 89.182ZM412.881 87.686H418.645C418.667 86.146 417.809 85.112 416.225 85.112C414.685 85.112 413.365 86.212 412.881 87.686ZM428.463 85.2L426.725 86.058C426.571 85.552 426.131 85.156 425.559 85.156C425.009 85.156 424.415 85.596 424.305 86.168C424.173 87.07 425.295 87.466 426.417 88.016C427.539 88.566 428.595 89.314 428.331 90.942C428.023 92.9 426.153 94.352 424.239 94.352C422.743 94.352 421.379 93.494 421.049 92.042L422.875 91.272C423.161 92.042 423.579 92.592 424.525 92.592C425.361 92.592 426.175 92.02 426.329 91.14C426.417 90.59 426.175 90.326 425.779 90.018L423.997 88.984C422.963 88.368 422.215 87.796 422.435 86.388C422.699 84.716 424.261 83.396 425.933 83.396C427.187 83.396 428.089 84.078 428.463 85.2ZM436.906 85.2L435.168 86.058C435.014 85.552 434.574 85.156 434.002 85.156C433.452 85.156 432.858 85.596 432.748 86.168C432.616 87.07 433.738 87.466 434.86 88.016C435.982 88.566 437.038 89.314 436.774 90.942C436.466 92.9 434.596 94.352 432.682 94.352C431.186 94.352 429.822 93.494 429.492 92.042L431.318 91.272C431.604 92.042 432.022 92.592 432.968 92.592C433.804 92.592 434.618 92.02 434.772 91.14C434.86 90.59 434.618 90.326 434.222 90.018L432.44 88.984C431.406 88.368 430.658 87.796 430.878 86.388C431.142 84.716 432.704 83.396 434.376 83.396C435.63 83.396 436.532 84.078 436.906 85.2ZM442.269 83.704L440.641 94H438.661L440.289 83.704H442.269ZM442.247 77.61C442.995 77.61 443.523 78.226 443.391 78.996C443.281 79.744 442.555 80.338 441.807 80.338C441.059 80.338 440.553 79.744 440.663 78.996C440.795 78.226 441.499 77.61 442.247 77.61ZM450.055 83.396C453.135 83.396 455.181 85.772 454.697 88.874C454.213 91.976 451.397 94.352 448.317 94.352C445.237 94.352 443.213 91.976 443.697 88.874C444.181 85.772 446.975 83.396 450.055 83.396ZM449.769 85.288C447.811 85.288 445.985 86.916 445.677 88.874C445.369 90.81 446.667 92.46 448.625 92.46C450.583 92.46 452.409 90.81 452.717 88.874C453.025 86.916 451.727 85.288 449.769 85.288ZM459.296 83.704L459.076 85.09H459.12C459.912 83.99 461.232 83.396 462.486 83.396C465.39 83.396 465.83 85.354 465.434 87.862L464.466 94H462.486L463.41 88.104C463.696 86.344 463.652 85.156 461.628 85.156C459.076 85.156 458.724 87.4 458.416 89.27L457.668 94H455.688L457.316 83.704H459.296ZM471.868 92.592C474.024 92.592 475.476 90.876 475.806 88.852C476.114 86.85 475.19 85.156 473.056 85.156C471.01 85.156 469.514 86.938 469.206 88.852C468.898 90.788 469.778 92.592 471.868 92.592ZM478.49 83.704L476.862 94H474.882L475.146 92.394H475.102C474.112 93.56 472.748 94.352 471.274 94.352C468.128 94.352 466.764 91.734 467.248 88.786C467.688 85.97 469.954 83.396 472.946 83.396C474.464 83.396 475.586 84.188 476.202 85.42H476.246L476.51 83.704H478.49ZM484.51 74.904L481.496 94H479.516L482.53 74.904H484.51ZM109.104 109.704L108.84 111.376H108.906C109.588 110.166 110.71 109.396 112.03 109.396C112.602 109.396 113.152 109.594 113.592 109.902L112.404 111.706C112.096 111.398 111.722 111.288 111.26 111.288C109.126 111.288 108.532 113.268 108.268 114.94L107.476 120H105.496L107.124 109.704H109.104ZM122.502 115.182H114.648C114.384 116.942 115.308 118.592 117.2 118.592C118.718 118.592 119.664 117.822 120.61 116.59L122.128 117.536C120.874 119.318 118.894 120.352 116.892 120.352C113.746 120.352 112.228 117.976 112.69 114.94C113.196 111.772 115.264 109.396 118.586 109.396C121.864 109.396 123.03 111.816 122.546 114.874L122.502 115.182ZM114.978 113.686H120.742C120.764 112.146 119.906 111.112 118.322 111.112C116.782 111.112 115.462 112.212 114.978 113.686ZM130.56 111.2L128.822 112.058C128.668 111.552 128.228 111.156 127.656 111.156C127.106 111.156 126.512 111.596 126.402 112.168C126.27 113.07 127.392 113.466 128.514 114.016C129.636 114.566 130.692 115.314 130.428 116.942C130.12 118.9 128.25 120.352 126.336 120.352C124.84 120.352 123.476 119.494 123.146 118.042L124.972 117.272C125.258 118.042 125.676 118.592 126.622 118.592C127.458 118.592 128.272 118.02 128.426 117.14C128.514 116.59 128.272 116.326 127.876 116.018L126.094 114.984C125.06 114.368 124.312 113.796 124.532 112.388C124.796 110.716 126.358 109.396 128.03 109.396C129.284 109.396 130.186 110.078 130.56 111.2ZM133.416 109.704H135.396L134.494 115.402C134.23 117.052 134.428 118.504 136.386 118.504C138.344 118.504 138.982 117.052 139.246 115.402L140.148 109.704H142.128L141.204 115.622C140.742 118.438 139.114 120.352 136.078 120.352C133.042 120.352 132.03 118.438 132.492 115.622L133.416 109.704ZM146.676 109.704L146.478 111.002H146.522C147.226 110.1 148.37 109.396 149.492 109.396C150.834 109.396 151.692 110.078 152.176 111.222C152.99 110.122 154.332 109.396 155.63 109.396C158.336 109.396 158.71 111.508 158.336 113.84L157.368 120H155.388L156.312 114.17C156.51 112.85 156.62 111.156 154.882 111.156C152.77 111.156 152.264 113.356 152 114.94L151.208 120H149.228L150.086 114.544C150.306 113.202 150.57 111.156 148.744 111.156C146.632 111.156 146.104 113.334 145.84 114.94L145.048 120H143.068L144.696 109.704H146.676ZM169.811 115.182H161.957C161.693 116.942 162.617 118.592 164.509 118.592C166.027 118.592 166.973 117.822 167.919 116.59L169.437 117.536C168.183 119.318 166.203 120.352 164.201 120.352C161.055 120.352 159.537 117.976 159.999 114.94C160.505 111.772 162.573 109.396 165.895 109.396C169.173 109.396 170.339 111.816 169.855 114.874L169.811 115.182ZM162.287 113.686H168.051C168.073 112.146 167.215 111.112 165.631 111.112C164.091 111.112 162.771 112.212 162.287 113.686ZM180.708 111.552L179.366 120H177.386L178.728 111.552H177.65L177.936 109.704H179.014L179.63 105.766H181.61L180.994 109.704H182.93L182.644 111.552H180.708ZM185.421 100.904H187.401L185.795 111.09H185.839C186.631 109.99 187.951 109.396 189.205 109.396C192.109 109.396 192.549 111.354 192.153 113.862L191.185 120H189.205L190.129 114.104C190.415 112.344 190.371 111.156 188.347 111.156C185.795 111.156 185.443 113.4 185.135 115.27L184.387 120H182.407L185.421 100.904ZM198.587 118.592C200.743 118.592 202.195 116.876 202.525 114.852C202.833 112.85 201.909 111.156 199.775 111.156C197.729 111.156 196.233 112.938 195.925 114.852C195.617 116.788 196.497 118.592 198.587 118.592ZM205.209 109.704L203.581 120H201.601L201.865 118.394H201.821C200.831 119.56 199.467 120.352 197.993 120.352C194.847 120.352 193.483 117.734 193.967 114.786C194.407 111.97 196.673 109.396 199.665 109.396C201.183 109.396 202.305 110.188 202.921 111.42H202.965L203.229 109.704H205.209ZM209.755 111.552L208.413 120H206.433L207.775 111.552H206.697L206.983 109.704H208.061L208.677 105.766H210.657L210.041 109.704H211.977L211.691 111.552H209.755ZM220.806 100.904H222.786L221.18 111.09H221.224C222.016 109.99 223.336 109.396 224.59 109.396C227.494 109.396 227.934 111.354 227.538 113.862L226.57 120H224.59L225.514 114.104C225.8 112.344 225.756 111.156 223.732 111.156C221.18 111.156 220.828 113.4 220.52 115.27L219.772 120H217.792L220.806 100.904ZM233.355 109.704L231.727 120H229.747L231.375 109.704H233.355ZM233.333 103.61C234.081 103.61 234.609 104.226 234.477 104.996C234.367 105.744 233.641 106.338 232.893 106.338C232.145 106.338 231.639 105.744 231.749 104.996C231.881 104.226 232.585 103.61 233.333 103.61ZM239.535 118.592C241.691 118.592 243.143 116.876 243.473 114.852C243.781 112.85 242.857 111.156 240.723 111.156C238.677 111.156 237.181 112.938 236.873 114.852C236.565 116.788 237.445 118.592 239.535 118.592ZM246.157 109.704L244.551 119.802C244.001 123.344 242.593 125.896 238.589 125.896C235.729 125.896 233.925 124.136 234.343 121.232H236.323C236.037 123.08 237.137 124.136 238.941 124.136C241.383 124.136 242.153 122.464 242.483 120.352L242.813 118.394H242.769C241.779 119.56 240.393 120.352 238.941 120.352C235.773 120.352 234.431 117.734 234.915 114.786C235.355 111.97 237.621 109.396 240.591 109.396C242.131 109.396 243.253 110.188 243.847 111.464H243.891L244.177 109.704H246.157ZM250.11 100.904H252.09L250.484 111.09H250.528C251.32 109.99 252.64 109.396 253.894 109.396C256.798 109.396 257.238 111.354 256.842 113.862L255.874 120H253.894L254.818 114.104C255.104 112.344 255.06 111.156 253.036 111.156C250.484 111.156 250.132 113.4 249.824 115.27L249.076 120H247.096L250.11 100.904ZM263.694 100.904L260.68 120H258.7L261.714 100.904H263.694ZM267.558 109.704L265.93 120H263.95L265.578 109.704H267.558ZM267.536 103.61C268.284 103.61 268.812 104.226 268.68 104.996C268.57 105.744 267.844 106.338 267.096 106.338C266.348 106.338 265.842 105.744 265.952 104.996C266.084 104.226 266.788 103.61 267.536 103.61ZM273.738 118.592C275.894 118.592 277.346 116.876 277.676 114.852C277.984 112.85 277.06 111.156 274.926 111.156C272.88 111.156 271.384 112.938 271.076 114.852C270.768 116.788 271.648 118.592 273.738 118.592ZM280.36 109.704L278.754 119.802C278.204 123.344 276.796 125.896 272.792 125.896C269.932 125.896 268.128 124.136 268.546 121.232H270.526C270.24 123.08 271.34 124.136 273.144 124.136C275.586 124.136 276.356 122.464 276.686 120.352L277.016 118.394H276.972C275.982 119.56 274.596 120.352 273.144 120.352C269.976 120.352 268.634 117.734 269.118 114.786C269.558 111.97 271.824 109.396 274.794 109.396C276.334 109.396 277.456 110.188 278.05 111.464H278.094L278.38 109.704H280.36ZM284.314 100.904H286.294L284.688 111.09H284.732C285.524 109.99 286.844 109.396 288.098 109.396C291.002 109.396 291.442 111.354 291.046 113.862L290.078 120H288.098L289.022 114.104C289.308 112.344 289.264 111.156 287.24 111.156C284.688 111.156 284.336 113.4 284.028 115.27L283.28 120H281.3L284.314 100.904ZM296.423 111.552L295.081 120H293.101L294.443 111.552H293.365L293.651 109.704H294.729L295.345 105.766H297.325L296.709 109.704H298.645L298.359 111.552H296.423ZM305.228 111.2L303.49 112.058C303.336 111.552 302.896 111.156 302.324 111.156C301.774 111.156 301.18 111.596 301.07 112.168C300.938 113.07 302.06 113.466 303.182 114.016C304.304 114.566 305.36 115.314 305.096 116.942C304.788 118.9 302.918 120.352 301.004 120.352C299.508 120.352 298.144 119.494 297.814 118.042L299.64 117.272C299.926 118.042 300.344 118.592 301.29 118.592C302.126 118.592 302.94 118.02 303.094 117.14C303.182 116.59 302.94 116.326 302.544 116.018L300.762 114.984C299.728 114.368 298.98 113.796 299.2 112.388C299.464 110.716 301.026 109.396 302.698 109.396C303.952 109.396 304.854 110.078 305.228 111.2ZM315.817 118.24L312.451 109.704H314.761L317.203 116.238L321.471 109.704H323.693L312.803 125.896H310.559L315.817 118.24ZM329.378 109.396C332.458 109.396 334.504 111.772 334.02 114.874C333.536 117.976 330.72 120.352 327.64 120.352C324.56 120.352 322.536 117.976 323.02 114.874C323.504 111.772 326.298 109.396 329.378 109.396ZM329.092 111.288C327.134 111.288 325.308 112.916 325 114.874C324.692 116.81 325.99 118.46 327.948 118.46C329.906 118.46 331.732 116.81 332.04 114.874C332.348 112.916 331.05 111.288 329.092 111.288ZM336.55 109.704H338.53L337.628 115.402C337.364 117.052 337.562 118.504 339.52 118.504C341.478 118.504 342.116 117.052 342.38 115.402L343.282 109.704H345.262L344.338 115.622C343.876 118.438 342.248 120.352 339.212 120.352C336.176 120.352 335.164 118.438 335.626 115.622L336.55 109.704ZM350.008 109.704L349.744 111.376H349.81C350.492 110.166 351.614 109.396 352.934 109.396C353.506 109.396 354.056 109.594 354.496 109.902L353.308 111.706C353 111.398 352.626 111.288 352.164 111.288C350.03 111.288 349.436 113.268 349.172 114.94L348.38 120H346.4L348.028 109.704H350.008ZM367.469 111.2L365.731 112.058C365.577 111.552 365.137 111.156 364.565 111.156C364.015 111.156 363.421 111.596 363.311 112.168C363.179 113.07 364.301 113.466 365.423 114.016C366.545 114.566 367.601 115.314 367.337 116.942C367.029 118.9 365.159 120.352 363.245 120.352C361.749 120.352 360.385 119.494 360.055 118.042L361.881 117.272C362.167 118.042 362.585 118.592 363.531 118.592C364.367 118.592 365.181 118.02 365.335 117.14C365.423 116.59 365.181 116.326 364.785 116.018L363.003 114.984C361.969 114.368 361.221 113.796 361.441 112.388C361.705 110.716 363.267 109.396 364.939 109.396C366.193 109.396 367.095 110.078 367.469 111.2ZM373.91 100.904L371.908 113.576L376.396 109.704H379.014L373.932 113.972L377.826 120H375.252L372.326 115.314L371.534 115.996L370.896 120H368.916L371.93 100.904H373.91ZM382.994 109.704L381.366 120H379.386L381.014 109.704H382.994ZM382.972 103.61C383.72 103.61 384.248 104.226 384.116 104.996C384.006 105.744 383.28 106.338 382.532 106.338C381.784 106.338 381.278 105.744 381.388 104.996C381.52 104.226 382.224 103.61 382.972 103.61ZM389.614 100.904L386.6 120H384.62L387.634 100.904H389.614ZM394.512 100.904L391.498 120H389.518L392.532 100.904H394.512ZM401.435 111.2L399.697 112.058C399.543 111.552 399.103 111.156 398.531 111.156C397.981 111.156 397.387 111.596 397.277 112.168C397.145 113.07 398.267 113.466 399.389 114.016C400.511 114.566 401.567 115.314 401.303 116.942C400.995 118.9 399.125 120.352 397.211 120.352C395.715 120.352 394.351 119.494 394.021 118.042L395.847 117.272C396.133 118.042 396.551 118.592 397.497 118.592C398.333 118.592 399.147 118.02 399.301 117.14C399.389 116.59 399.147 116.326 398.751 116.018L396.969 114.984C395.935 114.368 395.187 113.796 395.407 112.388C395.671 110.716 397.233 109.396 398.905 109.396C400.159 109.396 401.061 110.078 401.435 111.2ZM413.774 118.592C415.93 118.592 417.382 116.876 417.712 114.852C418.02 112.85 417.096 111.156 414.962 111.156C412.916 111.156 411.42 112.938 411.112 114.852C410.804 116.788 411.684 118.592 413.774 118.592ZM420.396 109.704L418.768 120H416.788L417.052 118.394H417.008C416.018 119.56 414.654 120.352 413.18 120.352C410.034 120.352 408.67 117.734 409.154 114.786C409.594 111.97 411.86 109.396 414.852 109.396C416.37 109.396 417.492 110.188 418.108 111.42H418.152L418.416 109.704H420.396ZM424.943 109.704L424.723 111.09H424.767C425.559 109.99 426.879 109.396 428.133 109.396C431.037 109.396 431.477 111.354 431.081 113.862L430.113 120H428.133L429.057 114.104C429.343 112.344 429.299 111.156 427.275 111.156C424.723 111.156 424.371 113.4 424.063 115.27L423.315 120H421.335L422.963 109.704H424.943ZM437.514 118.592C439.67 118.592 441.122 116.876 441.452 114.852C441.76 112.85 440.836 111.156 438.702 111.156C436.656 111.156 435.16 112.938 434.852 114.852C434.544 116.788 435.424 118.592 437.514 118.592ZM440.528 120L440.792 118.394H440.748C439.758 119.56 438.372 120.352 436.92 120.352C433.752 120.352 432.41 117.734 432.894 114.786C433.334 111.97 435.6 109.396 438.57 109.396C440.11 109.396 441.232 110.188 441.848 111.42H441.892L443.542 100.904H445.522L442.508 120H440.528ZM115.176 141.182H107.322C107.058 142.942 107.982 144.592 109.874 144.592C111.392 144.592 112.338 143.822 113.284 142.59L114.802 143.536C113.548 145.318 111.568 146.352 109.566 146.352C106.42 146.352 104.902 143.976 105.364 140.94C105.87 137.772 107.938 135.396 111.26 135.396C114.538 135.396 115.704 137.816 115.22 140.874L115.176 141.182ZM107.652 139.686H113.416C113.438 138.146 112.58 137.112 110.996 137.112C109.456 137.112 108.136 138.212 107.652 139.686ZM119.783 140.412L116.835 135.704H119.167L121.081 139.026L124.271 135.704H126.669L122.137 140.412L125.679 146H123.369L120.641 141.82L116.703 146H114.305L119.783 140.412ZM131.933 144.592C134.089 144.592 135.541 142.876 135.871 140.852C136.179 138.85 135.255 137.156 133.121 137.156C131.075 137.156 129.579 138.938 129.271 140.852C128.963 142.788 129.843 144.592 131.933 144.592ZM130.195 135.704L129.931 137.42H129.975C130.987 136.188 132.329 135.396 133.869 135.396C136.839 135.396 138.313 137.97 137.873 140.786C137.389 143.734 135.211 146.352 132.043 146.352C130.591 146.352 129.469 145.56 128.875 144.394H128.831L127.643 151.896H125.663L128.215 135.704H130.195ZM148.778 141.182H140.924C140.66 142.942 141.584 144.592 143.476 144.592C144.994 144.592 145.94 143.822 146.886 142.59L148.404 143.536C147.15 145.318 145.17 146.352 143.168 146.352C140.022 146.352 138.504 143.976 138.966 140.94C139.472 137.772 141.54 135.396 144.862 135.396C148.14 135.396 149.306 137.816 148.822 140.874L148.778 141.182ZM141.254 139.686H147.018C147.04 138.146 146.182 137.112 144.598 137.112C143.058 137.112 141.738 138.212 141.254 139.686ZM153.448 135.704L153.184 137.376H153.25C153.932 136.166 155.054 135.396 156.374 135.396C156.946 135.396 157.496 135.594 157.936 135.902L156.748 137.706C156.44 137.398 156.066 137.288 155.604 137.288C153.47 137.288 152.876 139.268 152.612 140.94L151.82 146H149.84L151.468 135.704H153.448ZM161.469 135.704L159.841 146H157.861L159.489 135.704H161.469ZM161.447 129.61C162.195 129.61 162.723 130.226 162.591 130.996C162.481 131.744 161.755 132.338 161.007 132.338C160.259 132.338 159.753 131.744 159.863 130.996C159.995 130.226 160.699 129.61 161.447 129.61ZM172.819 141.182H164.965C164.701 142.942 165.625 144.592 167.517 144.592C169.035 144.592 169.981 143.822 170.927 142.59L172.445 143.536C171.191 145.318 169.211 146.352 167.209 146.352C164.063 146.352 162.545 143.976 163.007 140.94C163.513 137.772 165.581 135.396 168.903 135.396C172.181 135.396 173.347 137.816 172.863 140.874L172.819 141.182ZM165.295 139.686H171.059C171.081 138.146 170.223 137.112 168.639 137.112C167.099 137.112 165.779 138.212 165.295 139.686ZM177.357 135.704L177.137 137.09H177.181C177.973 135.99 179.293 135.396 180.547 135.396C183.451 135.396 183.891 137.354 183.495 139.862L182.527 146H180.547L181.471 140.104C181.757 138.344 181.713 137.156 179.689 137.156C177.137 137.156 176.785 139.4 176.477 141.27L175.729 146H173.749L175.377 135.704H177.357ZM194.394 136.078L193.998 138.63C193.36 137.728 192.458 137.244 191.27 137.244C189.334 137.244 187.574 138.96 187.266 140.852C186.936 142.964 188.168 144.504 190.258 144.504C191.402 144.504 192.414 143.976 193.294 143.14L192.876 145.67C191.908 146.154 190.962 146.352 189.928 146.352C186.892 146.352 184.78 144.02 185.264 140.94C185.77 137.75 188.608 135.396 191.776 135.396C192.7 135.396 193.69 135.616 194.394 136.078ZM204.53 141.182H196.676C196.412 142.942 197.336 144.592 199.228 144.592C200.746 144.592 201.692 143.822 202.638 142.59L204.156 143.536C202.902 145.318 200.922 146.352 198.92 146.352C195.774 146.352 194.256 143.976 194.718 140.94C195.224 137.772 197.292 135.396 200.614 135.396C203.892 135.396 205.058 137.816 204.574 140.874L204.53 141.182ZM197.006 139.686H202.77C202.792 138.146 201.934 137.112 200.35 137.112C198.81 137.112 197.49 138.212 197.006 139.686ZM212.588 137.2L210.85 138.058C210.696 137.552 210.256 137.156 209.684 137.156C209.134 137.156 208.54 137.596 208.43 138.168C208.298 139.07 209.42 139.466 210.542 140.016C211.664 140.566 212.72 141.314 212.456 142.942C212.148 144.9 210.278 146.352 208.364 146.352C206.868 146.352 205.504 145.494 205.174 144.042L207 143.272C207.286 144.042 207.704 144.592 208.65 144.592C209.486 144.592 210.3 144.02 210.454 143.14C210.542 142.59 210.3 142.326 209.904 142.018L208.122 140.984C207.088 140.368 206.34 139.796 206.56 138.388C206.824 136.716 208.386 135.396 210.058 135.396C211.312 135.396 212.214 136.078 212.588 137.2ZM216.081 143.8C216.785 143.8 217.269 144.394 217.159 145.076C217.049 145.78 216.367 146.352 215.663 146.352C214.959 146.352 214.497 145.78 214.607 145.076C214.717 144.394 215.377 143.8 216.081 143.8Z" fill="#093761"/>
<g clip-path="url(#clip1_407_2577)">
<path d="M81.4165 199L48.6469 186.5L47.3748 187.683L52.7498 199L47.3748 210.317L48.6469 211.5L81.4165 199Z" fill="#0E3D68"/>
</g>
<path d="M111.81 191.784L115.902 199H113.394L109.632 191.982H108.774L107.652 199H105.584L108.202 182.412H110.71C112.184 182.412 113.768 182.434 114.978 183.182C116.232 183.996 116.782 185.558 116.518 187.142C116.144 189.518 114.252 191.498 111.81 191.784ZM109.984 184.26L109.038 190.266H109.698C111.81 190.266 114.164 189.87 114.582 187.23C114.978 184.634 112.58 184.26 110.534 184.26H109.984ZM126.864 194.182H119.01C118.746 195.942 119.67 197.592 121.562 197.592C123.08 197.592 124.026 196.822 124.972 195.59L126.49 196.536C125.236 198.318 123.256 199.352 121.254 199.352C118.108 199.352 116.59 196.976 117.052 193.94C117.558 190.772 119.626 188.396 122.948 188.396C126.226 188.396 127.392 190.816 126.908 193.874L126.864 194.182ZM119.34 192.686H125.104C125.126 191.146 124.268 190.112 122.684 190.112C121.144 190.112 119.824 191.212 119.34 192.686ZM136.924 189.078L136.528 191.63C135.89 190.728 134.988 190.244 133.8 190.244C131.864 190.244 130.104 191.96 129.796 193.852C129.466 195.964 130.698 197.504 132.788 197.504C133.932 197.504 134.944 196.976 135.824 196.14L135.406 198.67C134.438 199.154 133.492 199.352 132.458 199.352C129.422 199.352 127.31 197.02 127.794 193.94C128.3 190.75 131.138 188.396 134.306 188.396C135.23 188.396 136.22 188.616 136.924 189.078ZM147.059 194.182H139.205C138.941 195.942 139.865 197.592 141.757 197.592C143.275 197.592 144.221 196.822 145.167 195.59L146.685 196.536C145.431 198.318 143.451 199.352 141.449 199.352C138.303 199.352 136.785 196.976 137.247 193.94C137.753 190.772 139.821 188.396 143.143 188.396C146.421 188.396 147.587 190.816 147.103 193.874L147.059 194.182ZM139.535 192.686H145.299C145.321 191.146 144.463 190.112 142.879 190.112C141.339 190.112 140.019 191.212 139.535 192.686ZM152.037 188.704L150.409 199H148.429L150.057 188.704H152.037ZM152.015 182.61C152.763 182.61 153.291 183.226 153.159 183.996C153.049 184.744 152.323 185.338 151.575 185.338C150.827 185.338 150.321 184.744 150.431 183.996C150.563 183.226 151.267 182.61 152.015 182.61ZM155.775 188.704L157.711 195.128L161.693 188.704H163.915L157.029 199.352L153.553 188.704H155.775ZM173.184 194.182H165.33C165.066 195.942 165.99 197.592 167.882 197.592C169.4 197.592 170.346 196.822 171.292 195.59L172.81 196.536C171.556 198.318 169.576 199.352 167.574 199.352C164.428 199.352 162.91 196.976 163.372 193.94C163.878 190.772 165.946 188.396 169.268 188.396C172.546 188.396 173.712 190.816 173.228 193.874L173.184 194.182ZM165.66 192.686H171.424C171.446 191.146 170.588 190.112 169.004 190.112C167.464 190.112 166.144 191.212 165.66 192.686ZM185.115 197.592C187.271 197.592 188.723 195.876 189.053 193.852C189.361 191.85 188.437 190.156 186.303 190.156C184.257 190.156 182.761 191.938 182.453 193.852C182.145 195.788 183.025 197.592 185.115 197.592ZM191.737 188.704L190.131 198.802C189.581 202.344 188.173 204.896 184.169 204.896C181.309 204.896 179.505 203.136 179.923 200.232H181.903C181.617 202.08 182.717 203.136 184.521 203.136C186.963 203.136 187.733 201.464 188.063 199.352L188.393 197.394H188.349C187.359 198.56 185.973 199.352 184.521 199.352C181.353 199.352 180.011 196.734 180.495 193.786C180.935 190.97 183.201 188.396 186.171 188.396C187.711 188.396 188.833 189.188 189.427 190.464H189.471L189.757 188.704H191.737ZM194.216 188.704H196.197L195.295 194.402C195.031 196.052 195.229 197.504 197.187 197.504C199.145 197.504 199.783 196.052 200.047 194.402L200.949 188.704H202.928L202.005 194.622C201.543 197.438 199.915 199.352 196.879 199.352C193.843 199.352 192.831 197.438 193.293 194.622L194.216 188.704ZM207.982 188.704L206.354 199H204.374L206.002 188.704H207.982ZM207.96 182.61C208.708 182.61 209.236 183.226 209.104 183.996C208.994 184.744 208.268 185.338 207.52 185.338C206.772 185.338 206.266 184.744 206.376 183.996C206.508 183.226 207.212 182.61 207.96 182.61ZM214.184 197.592C216.34 197.592 217.792 195.876 218.122 193.852C218.43 191.85 217.506 190.156 215.372 190.156C213.326 190.156 211.83 191.938 211.522 193.852C211.214 195.788 212.094 197.592 214.184 197.592ZM217.198 199L217.462 197.394H217.418C216.428 198.56 215.042 199.352 213.59 199.352C210.422 199.352 209.08 196.734 209.564 193.786C210.004 190.97 212.27 188.396 215.24 188.396C216.78 188.396 217.902 189.188 218.518 190.42H218.562L220.212 179.904H222.192L219.178 199H217.198ZM226.409 197.592C228.565 197.592 230.017 195.876 230.347 193.852C230.655 191.85 229.731 190.156 227.597 190.156C225.551 190.156 224.055 191.938 223.747 193.852C223.439 195.788 224.319 197.592 226.409 197.592ZM233.031 188.704L231.403 199H229.423L229.687 197.394H229.643C228.653 198.56 227.289 199.352 225.815 199.352C222.669 199.352 221.305 196.734 221.789 193.786C222.229 190.97 224.495 188.396 227.487 188.396C229.005 188.396 230.127 189.188 230.743 190.42H230.787L231.051 188.704H233.031ZM237.577 188.704L237.357 190.09H237.401C238.193 188.99 239.513 188.396 240.767 188.396C243.671 188.396 244.111 190.354 243.715 192.862L242.747 199H240.767L241.691 193.104C241.977 191.344 241.933 190.156 239.909 190.156C237.357 190.156 237.005 192.4 236.697 194.27L235.949 199H233.969L235.597 188.704H237.577ZM254.615 189.078L254.219 191.63C253.581 190.728 252.679 190.244 251.491 190.244C249.555 190.244 247.795 191.96 247.487 193.852C247.157 195.964 248.389 197.504 250.479 197.504C251.623 197.504 252.635 196.976 253.515 196.14L253.097 198.67C252.129 199.154 251.183 199.352 250.149 199.352C247.113 199.352 245.001 197.02 245.485 193.94C245.991 190.75 248.829 188.396 251.997 188.396C252.921 188.396 253.911 188.616 254.615 189.078ZM264.75 194.182H256.896C256.632 195.942 257.556 197.592 259.448 197.592C260.966 197.592 261.912 196.822 262.858 195.59L264.376 196.536C263.122 198.318 261.142 199.352 259.14 199.352C255.994 199.352 254.476 196.976 254.938 193.94C255.444 190.772 257.512 188.396 260.834 188.396C264.112 188.396 265.278 190.816 264.794 193.874L264.75 194.182ZM257.226 192.686H262.99C263.012 191.146 262.154 190.112 260.57 190.112C259.03 190.112 257.71 191.212 257.226 192.686ZM278.159 188.396C281.239 188.396 283.285 190.772 282.801 193.874C282.317 196.976 279.501 199.352 276.421 199.352C273.341 199.352 271.317 196.976 271.801 193.874C272.285 190.772 275.079 188.396 278.159 188.396ZM277.873 190.288C275.915 190.288 274.089 191.916 273.781 193.874C273.473 195.81 274.771 197.46 276.729 197.46C278.687 197.46 280.513 195.81 280.821 193.874C281.129 191.916 279.831 190.288 277.873 190.288ZM287.4 188.704L287.18 190.09H287.224C288.016 188.99 289.336 188.396 290.59 188.396C293.494 188.396 293.934 190.354 293.538 192.862L292.57 199H290.59L291.514 193.104C291.8 191.344 291.756 190.156 289.732 190.156C287.18 190.156 286.828 192.4 286.52 194.27L285.772 199H283.792L285.42 188.704H287.4ZM303.823 188.704L305.781 195.26L309.939 188.132L311.831 195.26L315.857 188.704H318.101L311.171 199.352L309.257 192.466L305.121 199.352L301.579 188.704H303.823ZM321.198 188.704L320.934 190.376H321C321.682 189.166 322.804 188.396 324.124 188.396C324.696 188.396 325.246 188.594 325.686 188.902L324.498 190.706C324.19 190.398 323.816 190.288 323.354 190.288C321.22 190.288 320.626 192.268 320.362 193.94L319.57 199H317.59L319.218 188.704H321.198ZM329.219 188.704L327.591 199H325.611L327.239 188.704H329.219ZM329.197 182.61C329.945 182.61 330.473 183.226 330.341 183.996C330.231 184.744 329.505 185.338 328.757 185.338C328.009 185.338 327.503 184.744 327.613 183.996C327.745 183.226 328.449 182.61 329.197 182.61ZM334.365 190.552L333.023 199H331.043L332.385 190.552H331.307L331.593 188.704H332.671L333.287 184.766H335.267L334.651 188.704H336.587L336.301 190.552H334.365ZM340.111 188.704L338.483 199H336.503L338.131 188.704H340.111ZM340.089 182.61C340.837 182.61 341.365 183.226 341.233 183.996C341.123 184.744 340.397 185.338 339.649 185.338C338.901 185.338 338.395 184.744 338.505 183.996C338.637 183.226 339.341 182.61 340.089 182.61ZM345.257 188.704L345.037 190.09H345.081C345.873 188.99 347.193 188.396 348.447 188.396C351.351 188.396 351.791 190.354 351.395 192.862L350.427 199H348.447L349.371 193.104C349.657 191.344 349.613 190.156 347.589 190.156C345.037 190.156 344.685 192.4 344.377 194.27L343.629 199H341.649L343.277 188.704H345.257ZM357.807 197.592C359.963 197.592 361.415 195.876 361.745 193.852C362.053 191.85 361.129 190.156 358.995 190.156C356.949 190.156 355.453 191.938 355.145 193.852C354.837 195.788 355.717 197.592 357.807 197.592ZM364.429 188.704L362.823 198.802C362.273 202.344 360.865 204.896 356.861 204.896C354.001 204.896 352.197 203.136 352.615 200.232H354.595C354.309 202.08 355.409 203.136 357.213 203.136C359.655 203.136 360.425 201.464 360.755 199.352L361.085 197.394H361.041C360.051 198.56 358.665 199.352 357.213 199.352C354.045 199.352 352.703 196.734 353.187 193.786C353.627 190.97 355.893 188.396 358.863 188.396C360.403 188.396 361.525 189.188 362.119 190.464H362.163L362.449 188.704H364.429ZM380.857 189.078L380.461 191.63C379.823 190.728 378.921 190.244 377.733 190.244C375.797 190.244 374.037 191.96 373.729 193.852C373.399 195.964 374.631 197.504 376.721 197.504C377.865 197.504 378.877 196.976 379.757 196.14L379.339 198.67C378.371 199.154 377.425 199.352 376.391 199.352C373.355 199.352 371.243 197.02 371.727 193.94C372.233 190.75 375.071 188.396 378.239 188.396C379.163 188.396 380.153 188.616 380.857 189.078ZM387.428 188.396C390.508 188.396 392.554 190.772 392.07 193.874C391.586 196.976 388.77 199.352 385.69 199.352C382.61 199.352 380.586 196.976 381.07 193.874C381.554 190.772 384.348 188.396 387.428 188.396ZM387.142 190.288C385.184 190.288 383.358 191.916 383.05 193.874C382.742 195.81 384.04 197.46 385.998 197.46C387.956 197.46 389.782 195.81 390.09 193.874C390.398 191.916 389.1 190.288 387.142 190.288ZM396.603 188.704L396.405 190.002H396.449C397.153 189.1 398.297 188.396 399.419 188.396C400.761 188.396 401.619 189.078 402.103 190.222C402.917 189.122 404.259 188.396 405.557 188.396C408.263 188.396 408.637 190.508 408.263 192.84L407.295 199H405.315L406.239 193.17C406.437 191.85 406.547 190.156 404.809 190.156C402.697 190.156 402.191 192.356 401.927 193.94L401.135 199H399.155L400.013 193.544C400.233 192.202 400.497 190.156 398.671 190.156C396.559 190.156 396.031 192.334 395.767 193.94L394.975 199H392.995L394.623 188.704H396.603ZM415.119 197.592C417.275 197.592 418.727 195.876 419.057 193.852C419.365 191.85 418.441 190.156 416.307 190.156C414.261 190.156 412.765 191.938 412.457 193.852C412.149 195.788 413.029 197.592 415.119 197.592ZM413.381 188.704L413.117 190.42H413.161C414.173 189.188 415.515 188.396 417.055 188.396C420.025 188.396 421.498 190.97 421.059 193.786C420.575 196.734 418.397 199.352 415.229 199.352C413.777 199.352 412.655 198.56 412.061 197.394H412.017L410.829 204.896H408.849L411.401 188.704H413.381ZM431.963 194.182H424.109C423.845 195.942 424.769 197.592 426.661 197.592C428.179 197.592 429.125 196.822 430.071 195.59L431.589 196.536C430.335 198.318 428.355 199.352 426.353 199.352C423.207 199.352 421.689 196.976 422.151 193.94C422.657 190.772 424.725 188.396 428.047 188.396C431.325 188.396 432.491 190.816 432.007 193.874L431.963 194.182ZM424.439 192.686H430.203C430.225 191.146 429.367 190.112 427.783 190.112C426.243 190.112 424.923 191.212 424.439 192.686ZM437.975 179.904L434.961 199H432.981L435.995 179.904H437.975ZM442.874 179.904L439.86 199H437.88L440.894 179.904H442.874ZM446.738 188.704L445.11 199H443.13L444.758 188.704H446.738ZM446.716 182.61C447.464 182.61 447.992 183.226 447.86 183.996C447.75 184.744 447.024 185.338 446.276 185.338C445.528 185.338 445.022 184.744 445.132 183.996C445.264 183.226 445.968 182.61 446.716 182.61ZM451.884 188.704L451.664 190.09H451.708C452.5 188.99 453.82 188.396 455.074 188.396C457.978 188.396 458.418 190.354 458.022 192.862L457.054 199H455.074L455.998 193.104C456.284 191.344 456.24 190.156 454.216 190.156C451.664 190.156 451.312 192.4 451.004 194.27L450.256 199H448.276L449.904 188.704H451.884ZM464.434 197.592C466.59 197.592 468.042 195.876 468.372 193.852C468.68 191.85 467.756 190.156 465.622 190.156C463.576 190.156 462.08 191.938 461.772 193.852C461.464 195.788 462.344 197.592 464.434 197.592ZM471.056 188.704L469.45 198.802C468.9 202.344 467.492 204.896 463.488 204.896C460.628 204.896 458.824 203.136 459.242 200.232H461.222C460.936 202.08 462.036 203.136 463.84 203.136C466.282 203.136 467.052 201.464 467.382 199.352L467.712 197.394H467.668C466.678 198.56 465.292 199.352 463.84 199.352C460.672 199.352 459.33 196.734 459.814 193.786C460.254 190.97 462.52 188.396 465.49 188.396C467.03 188.396 468.152 189.188 468.746 190.464H468.79L469.076 188.704H471.056ZM114.494 215.078L114.098 217.63C113.46 216.728 112.558 216.244 111.37 216.244C109.434 216.244 107.674 217.96 107.366 219.852C107.036 221.964 108.268 223.504 110.358 223.504C111.502 223.504 112.514 222.976 113.394 222.14L112.976 224.67C112.008 225.154 111.062 225.352 110.028 225.352C106.992 225.352 104.88 223.02 105.364 219.94C105.87 216.75 108.708 214.396 111.876 214.396C112.8 214.396 113.79 214.616 114.494 215.078ZM121.065 214.396C124.145 214.396 126.191 216.772 125.707 219.874C125.223 222.976 122.407 225.352 119.327 225.352C116.247 225.352 114.223 222.976 114.707 219.874C115.191 216.772 117.985 214.396 121.065 214.396ZM120.779 216.288C118.821 216.288 116.995 217.916 116.687 219.874C116.379 221.81 117.677 223.46 119.635 223.46C121.593 223.46 123.419 221.81 123.727 219.874C124.035 217.916 122.737 216.288 120.779 216.288ZM128.898 214.704L130.834 221.128L134.816 214.704H137.038L130.152 225.352L126.676 214.704H128.898ZM146.307 220.182H138.453C138.189 221.942 139.113 223.592 141.005 223.592C142.523 223.592 143.469 222.822 144.415 221.59L145.933 222.536C144.679 224.318 142.699 225.352 140.697 225.352C137.551 225.352 136.033 222.976 136.495 219.94C137.001 216.772 139.069 214.396 142.391 214.396C145.669 214.396 146.835 216.816 146.351 219.874L146.307 220.182ZM138.783 218.686H144.547C144.569 217.146 143.711 216.112 142.127 216.112C140.587 216.112 139.267 217.212 138.783 218.686ZM150.977 214.704L150.713 216.376H150.779C151.461 215.166 152.583 214.396 153.903 214.396C154.475 214.396 155.025 214.594 155.465 214.902L154.277 216.706C153.969 216.398 153.595 216.288 153.133 216.288C150.999 216.288 150.405 218.268 150.141 219.94L149.349 225H147.369L148.997 214.704H150.977ZM166.391 205.904L163.377 225H161.397L164.411 205.904H166.391ZM175.998 220.182H168.144C167.88 221.942 168.804 223.592 170.696 223.592C172.214 223.592 173.16 222.822 174.106 221.59L175.624 222.536C174.37 224.318 172.39 225.352 170.388 225.352C167.242 225.352 165.724 222.976 166.186 219.94C166.692 216.772 168.76 214.396 172.082 214.396C175.36 214.396 176.526 216.816 176.042 219.874L175.998 220.182ZM168.474 218.686H174.238C174.26 217.146 173.402 216.112 171.818 216.112C170.278 216.112 168.958 217.212 168.474 218.686ZM180.536 216.552L179.194 225H177.214L178.556 216.552H177.478L177.764 214.704H178.842L179.458 210.766H181.438L180.822 214.704H182.758L182.472 216.552H180.536ZM185.843 216.552L184.501 225H182.521L183.863 216.552H182.785L183.071 214.704H184.149L184.765 210.766H186.745L186.129 214.704H188.065L187.779 216.552H185.843ZM197.332 220.182H189.478C189.214 221.942 190.138 223.592 192.03 223.592C193.548 223.592 194.494 222.822 195.44 221.59L196.958 222.536C195.704 224.318 193.724 225.352 191.722 225.352C188.576 225.352 187.058 222.976 187.52 219.94C188.026 216.772 190.094 214.396 193.416 214.396C196.694 214.396 197.86 216.816 197.376 219.874L197.332 220.182ZM189.808 218.686H195.572C195.594 217.146 194.736 216.112 193.152 216.112C191.612 216.112 190.292 217.212 189.808 218.686ZM202.002 214.704L201.738 216.376H201.804C202.486 215.166 203.608 214.396 204.928 214.396C205.5 214.396 206.05 214.594 206.49 214.902L205.302 216.706C204.994 216.398 204.62 216.288 204.158 216.288C202.024 216.288 201.43 218.268 201.166 219.94L200.374 225H198.394L200.022 214.704H202.002ZM213.103 216.2L211.365 217.058C211.211 216.552 210.771 216.156 210.199 216.156C209.649 216.156 209.055 216.596 208.945 217.168C208.813 218.07 209.935 218.466 211.057 219.016C212.179 219.566 213.235 220.314 212.971 221.942C212.663 223.9 210.793 225.352 208.879 225.352C207.383 225.352 206.019 224.494 205.689 223.042L207.515 222.272C207.801 223.042 208.219 223.592 209.165 223.592C210.001 223.592 210.815 223.02 210.969 222.14C211.057 221.59 210.815 221.326 210.419 221.018L208.637 219.984C207.603 219.368 206.855 218.796 207.075 217.388C207.339 215.716 208.901 214.396 210.573 214.396C211.827 214.396 212.729 215.078 213.103 216.2ZM224.386 216.552L223.044 225H221.064L222.406 216.552H221.328L221.614 214.704H222.692L223.308 210.766H225.288L224.672 214.704H226.608L226.322 216.552H224.386ZM230.727 223.592C232.883 223.592 234.335 221.876 234.665 219.852C234.973 217.85 234.049 216.156 231.915 216.156C229.869 216.156 228.373 217.938 228.065 219.852C227.757 221.788 228.637 223.592 230.727 223.592ZM237.349 214.704L235.721 225H233.741L234.005 223.394H233.961C232.971 224.56 231.607 225.352 230.133 225.352C226.987 225.352 225.623 222.734 226.107 219.786C226.547 216.97 228.813 214.396 231.805 214.396C233.323 214.396 234.445 215.188 235.061 216.42H235.105L235.369 214.704H237.349ZM242.336 214.704L240.708 225H238.728L240.356 214.704H242.336ZM242.314 208.61C243.062 208.61 243.59 209.226 243.458 209.996C243.348 210.744 242.622 211.338 241.874 211.338C241.126 211.338 240.62 210.744 240.73 209.996C240.862 209.226 241.566 208.61 242.314 208.61ZM248.956 205.904L245.942 225H243.962L246.976 205.904H248.956ZM254.999 214.396C258.079 214.396 260.125 216.772 259.641 219.874C259.157 222.976 256.341 225.352 253.261 225.352C250.181 225.352 248.157 222.976 248.641 219.874C249.125 216.772 251.919 214.396 254.999 214.396ZM254.713 216.288C252.755 216.288 250.929 217.916 250.621 219.874C250.313 221.81 251.611 223.46 253.569 223.46C255.527 223.46 257.353 221.81 257.661 219.874C257.969 217.916 256.671 216.288 254.713 216.288ZM264.372 214.704L264.108 216.376H264.174C264.856 215.166 265.978 214.396 267.298 214.396C267.87 214.396 268.42 214.594 268.86 214.902L267.672 216.706C267.364 216.398 266.99 216.288 266.528 216.288C264.394 216.288 263.8 218.268 263.536 219.94L262.744 225H260.764L262.392 214.704H264.372ZM277.77 220.182H269.916C269.652 221.942 270.576 223.592 272.468 223.592C273.986 223.592 274.932 222.822 275.878 221.59L277.396 222.536C276.142 224.318 274.162 225.352 272.16 225.352C269.014 225.352 267.496 222.976 267.958 219.94C268.464 216.772 270.532 214.396 273.854 214.396C277.132 214.396 278.298 216.816 277.814 219.874L277.77 220.182ZM270.246 218.686H276.01C276.032 217.146 275.174 216.112 273.59 216.112C272.05 216.112 270.73 217.212 270.246 218.686ZM283.364 223.592C285.52 223.592 286.972 221.876 287.302 219.852C287.61 217.85 286.686 216.156 284.552 216.156C282.506 216.156 281.01 217.938 280.702 219.852C280.394 221.788 281.274 223.592 283.364 223.592ZM286.378 225L286.642 223.394H286.598C285.608 224.56 284.222 225.352 282.77 225.352C279.602 225.352 278.26 222.734 278.744 219.786C279.184 216.97 281.45 214.396 284.42 214.396C285.96 214.396 287.082 215.188 287.698 216.42H287.742L289.392 205.904H291.372L288.358 225H286.378ZM300.892 216.552L299.55 225H297.57L298.912 216.552H297.834L298.12 214.704H299.198L299.814 210.766H301.794L301.178 214.704H303.114L302.828 216.552H300.892ZM308.817 214.396C311.897 214.396 313.943 216.772 313.459 219.874C312.975 222.976 310.159 225.352 307.079 225.352C303.999 225.352 301.975 222.976 302.459 219.874C302.943 216.772 305.737 214.396 308.817 214.396ZM308.531 216.288C306.573 216.288 304.747 217.916 304.439 219.874C304.131 221.81 305.429 223.46 307.387 223.46C309.345 223.46 311.171 221.81 311.479 219.874C311.787 217.916 310.489 216.288 308.531 216.288ZM327.937 216.2L326.199 217.058C326.045 216.552 325.605 216.156 325.033 216.156C324.483 216.156 323.889 216.596 323.779 217.168C323.647 218.07 324.769 218.466 325.891 219.016C327.013 219.566 328.069 220.314 327.805 221.942C327.497 223.9 325.627 225.352 323.713 225.352C322.217 225.352 320.853 224.494 320.523 223.042L322.349 222.272C322.635 223.042 323.053 223.592 323.999 223.592C324.835 223.592 325.649 223.02 325.803 222.14C325.891 221.59 325.649 221.326 325.253 221.018L323.471 219.984C322.437 219.368 321.689 218.796 321.909 217.388C322.173 215.716 323.735 214.396 325.407 214.396C326.661 214.396 327.563 215.078 327.937 216.2ZM334.445 223.592C336.601 223.592 338.053 221.876 338.383 219.852C338.691 217.85 337.767 216.156 335.633 216.156C333.587 216.156 332.091 217.938 331.783 219.852C331.475 221.788 332.355 223.592 334.445 223.592ZM332.707 214.704L332.443 216.42H332.487C333.499 215.188 334.841 214.396 336.381 214.396C339.351 214.396 340.825 216.97 340.385 219.786C339.901 222.734 337.723 225.352 334.555 225.352C333.103 225.352 331.981 224.56 331.387 223.394H331.343L330.155 230.896H328.175L330.727 214.704H332.707ZM351.289 220.182H343.435C343.171 221.942 344.095 223.592 345.987 223.592C347.505 223.592 348.451 222.822 349.397 221.59L350.915 222.536C349.661 224.318 347.681 225.352 345.679 225.352C342.533 225.352 341.015 222.976 341.477 219.94C341.983 216.772 344.051 214.396 347.373 214.396C350.651 214.396 351.817 216.816 351.333 219.874L351.289 220.182ZM343.765 218.686H349.529C349.551 217.146 348.693 216.112 347.109 216.112C345.569 216.112 344.249 217.212 343.765 218.686ZM361.349 215.078L360.953 217.63C360.315 216.728 359.413 216.244 358.225 216.244C356.289 216.244 354.529 217.96 354.221 219.852C353.891 221.964 355.123 223.504 357.213 223.504C358.357 223.504 359.369 222.976 360.249 222.14L359.831 224.67C358.863 225.154 357.917 225.352 356.883 225.352C353.847 225.352 351.735 223.02 352.219 219.94C352.725 216.75 355.563 214.396 358.731 214.396C359.655 214.396 360.645 214.616 361.349 215.078ZM365.978 214.704L364.35 225H362.37L363.998 214.704H365.978ZM365.956 208.61C366.704 208.61 367.232 209.226 367.1 209.996C366.99 210.744 366.264 211.338 365.516 211.338C364.768 211.338 364.262 210.744 364.372 209.996C364.504 209.226 365.208 208.61 365.956 208.61ZM377.24 214.704L375.612 225H373.632L375.26 214.704H377.24ZM377.218 208.61C377.966 208.61 378.494 209.226 378.362 209.996C378.252 210.744 377.526 211.338 376.778 211.338C376.03 211.338 375.524 210.744 375.634 209.996C375.766 209.226 376.47 208.61 377.218 208.61ZM375.634 205.904L375.326 207.906C374.952 207.73 374.49 207.488 374.072 207.488C372.664 207.488 372.378 209.27 372.224 210.282L371.52 214.704H374.248L373.962 216.552H371.234L369.892 225H367.912L369.254 216.552H368.352L368.638 214.704H369.54L370.332 209.688C370.684 207.444 371.74 205.64 374.292 205.64C374.776 205.64 375.238 205.728 375.634 205.904ZM387.904 215.078L387.508 217.63C386.87 216.728 385.968 216.244 384.78 216.244C382.844 216.244 381.084 217.96 380.776 219.852C380.446 221.964 381.678 223.504 383.768 223.504C384.912 223.504 385.924 222.976 386.804 222.14L386.386 224.67C385.418 225.154 384.472 225.352 383.438 225.352C380.402 225.352 378.29 223.02 378.774 219.94C379.28 216.75 382.118 214.396 385.286 214.396C386.21 214.396 387.2 214.616 387.904 215.078ZM398.892 214.704L396.34 230.896H394.36L396.912 214.704H398.892ZM398.87 208.61C399.618 208.61 400.146 209.226 400.014 209.996C399.904 210.744 399.178 211.338 398.43 211.338C397.682 211.338 397.176 210.744 397.286 209.996C397.418 209.226 398.122 208.61 398.87 208.61ZM406.678 214.396C409.758 214.396 411.804 216.772 411.32 219.874C410.836 222.976 408.02 225.352 404.94 225.352C401.86 225.352 399.836 222.976 400.32 219.874C400.804 216.772 403.598 214.396 406.678 214.396ZM406.392 216.288C404.434 216.288 402.608 217.916 402.3 219.874C401.992 221.81 403.29 223.46 405.248 223.46C407.206 223.46 409.032 221.81 409.34 219.874C409.648 217.916 408.35 216.288 406.392 216.288ZM417.503 223.592C419.659 223.592 421.111 221.876 421.441 219.852C421.749 217.85 420.825 216.156 418.691 216.156C416.645 216.156 415.149 217.938 414.841 219.852C414.533 221.788 415.413 223.592 417.503 223.592ZM412.157 225L415.171 205.904H417.151L415.501 216.42H415.545C416.557 215.188 417.899 214.396 419.439 214.396C422.409 214.396 423.883 216.97 423.443 219.786C422.959 222.734 420.781 225.352 417.613 225.352C416.161 225.352 415.039 224.56 414.445 223.394H414.401L414.137 225H412.157ZM111.612 240.396C114.692 240.396 116.738 242.772 116.254 245.874C115.77 248.976 112.954 251.352 109.874 251.352C106.794 251.352 104.77 248.976 105.254 245.874C105.738 242.772 108.532 240.396 111.612 240.396ZM111.326 242.288C109.368 242.288 107.542 243.916 107.234 245.874C106.926 247.81 108.224 249.46 110.182 249.46C112.14 249.46 113.966 247.81 114.274 245.874C114.582 243.916 113.284 242.288 111.326 242.288ZM122.437 249.592C124.593 249.592 126.045 247.876 126.375 245.852C126.683 243.85 125.759 242.156 123.625 242.156C121.579 242.156 120.083 243.938 119.775 245.852C119.467 247.788 120.347 249.592 122.437 249.592ZM120.699 240.704L120.435 242.42H120.479C121.491 241.188 122.833 240.396 124.373 240.396C127.343 240.396 128.817 242.97 128.377 245.786C127.893 248.734 125.715 251.352 122.547 251.352C121.095 251.352 119.973 250.56 119.379 249.394H119.335L118.147 256.896H116.167L118.719 240.704H120.699ZM134.661 249.592C136.817 249.592 138.269 247.876 138.599 245.852C138.907 243.85 137.983 242.156 135.849 242.156C133.803 242.156 132.307 243.938 131.999 245.852C131.691 247.788 132.571 249.592 134.661 249.592ZM132.923 240.704L132.659 242.42H132.703C133.715 241.188 135.057 240.396 136.597 240.396C139.567 240.396 141.041 242.97 140.601 245.786C140.117 248.734 137.939 251.352 134.771 251.352C133.319 251.352 132.197 250.56 131.603 249.394H131.559L130.371 256.896H128.391L130.943 240.704H132.923ZM147.942 240.396C151.022 240.396 153.068 242.772 152.584 245.874C152.1 248.976 149.284 251.352 146.204 251.352C143.124 251.352 141.1 248.976 141.584 245.874C142.068 242.772 144.862 240.396 147.942 240.396ZM147.656 242.288C145.698 242.288 143.872 243.916 143.564 245.874C143.256 247.81 144.554 249.46 146.512 249.46C148.47 249.46 150.296 247.81 150.604 245.874C150.912 243.916 149.614 242.288 147.656 242.288ZM157.315 240.704L157.051 242.376H157.117C157.799 241.166 158.921 240.396 160.241 240.396C160.813 240.396 161.363 240.594 161.803 240.902L160.615 242.706C160.307 242.398 159.933 242.288 159.471 242.288C157.337 242.288 156.743 244.268 156.479 245.94L155.687 251H153.707L155.335 240.704H157.315ZM165.326 242.552L163.984 251H162.004L163.346 242.552H162.268L162.554 240.704H163.632L164.248 236.766H166.228L165.612 240.704H167.548L167.262 242.552H165.326ZM168.543 240.704H170.523L169.621 246.402C169.357 248.052 169.555 249.504 171.513 249.504C173.471 249.504 174.109 248.052 174.373 246.402L175.275 240.704H177.255L176.331 246.622C175.869 249.438 174.241 251.352 171.205 251.352C168.169 251.352 167.157 249.438 167.619 246.622L168.543 240.704ZM181.868 240.704L181.648 242.09H181.692C182.484 240.99 183.804 240.396 185.058 240.396C187.962 240.396 188.402 242.354 188.006 244.862L187.038 251H185.058L185.982 245.104C186.268 243.344 186.224 242.156 184.2 242.156C181.648 242.156 181.296 244.4 180.988 246.27L180.24 251H178.26L179.888 240.704H181.868ZM193.824 240.704L192.196 251H190.216L191.844 240.704H193.824ZM193.802 234.61C194.55 234.61 195.078 235.226 194.946 235.996C194.836 236.744 194.11 237.338 193.362 237.338C192.614 237.338 192.108 236.744 192.218 235.996C192.35 235.226 193.054 234.61 193.802 234.61ZM198.97 242.552L197.628 251H195.648L196.99 242.552H195.912L196.198 240.704H197.276L197.892 236.766H199.872L199.256 240.704H201.192L200.906 242.552H198.97ZM204.717 240.704L203.089 251H201.109L202.737 240.704H204.717ZM204.695 234.61C205.443 234.61 205.971 235.226 205.839 235.996C205.729 236.744 205.003 237.338 204.255 237.338C203.507 237.338 203.001 236.744 203.111 235.996C203.243 235.226 203.947 234.61 204.695 234.61ZM216.067 246.182H208.213C207.949 247.942 208.873 249.592 210.765 249.592C212.283 249.592 213.229 248.822 214.175 247.59L215.693 248.536C214.439 250.318 212.459 251.352 210.457 251.352C207.311 251.352 205.793 248.976 206.255 245.94C206.761 242.772 208.829 240.396 212.151 240.396C215.429 240.396 216.595 242.816 216.111 245.874L216.067 246.182ZM208.543 244.686H214.307C214.329 243.146 213.471 242.112 211.887 242.112C210.347 242.112 209.027 243.212 208.543 244.686ZM224.125 242.2L222.387 243.058C222.233 242.552 221.793 242.156 221.221 242.156C220.671 242.156 220.077 242.596 219.967 243.168C219.835 244.07 220.957 244.466 222.079 245.016C223.201 245.566 224.257 246.314 223.993 247.942C223.685 249.9 221.815 251.352 219.901 251.352C218.405 251.352 217.041 250.494 216.711 249.042L218.537 248.272C218.823 249.042 219.241 249.592 220.187 249.592C221.023 249.592 221.837 249.02 221.991 248.14C222.079 247.59 221.837 247.326 221.441 247.018L219.659 245.984C218.625 245.368 217.877 244.796 218.097 243.388C218.361 241.716 219.923 240.396 221.595 240.396C222.849 240.396 223.751 241.078 224.125 242.2ZM227.618 248.8C228.322 248.8 228.806 249.394 228.696 250.076C228.586 250.78 227.904 251.352 227.2 251.352C226.496 251.352 226.034 250.78 226.144 250.076C226.254 249.394 226.914 248.8 227.618 248.8Z" fill="#093761"/>
<defs>
<clipPath id="clip0_407_2577">
<rect width="40" height="43" fill="white" transform="translate(85 74) rotate(90)"/>
</clipPath>
<clipPath id="clip1_407_2577">
<rect width="40" height="43" fill="white" transform="translate(85 179) rotate(90)"/>
</clipPath>
</defs>
</svg>
