<svg width="546" height="327" viewBox="0 0 546 327" fill="none" xmlns="http://www.w3.org/2000/svg">
<rect width="546" height="327" rx="50" fill="#6CBF2A"/>
<path d="M86.0415 193.5L53.2719 181L51.9998 182.183L57.3748 193.5L51.9998 204.817L53.2719 206L86.0415 193.5Z" fill="#0E3D68"/>
<path d="M86.0415 92.5L53.2719 80L51.9998 81.1833L57.3748 92.5L51.9998 103.817L53.2719 105L86.0415 92.5Z" fill="#0E3D68"/>
<path d="M114.44 84.64H121.018L120.908 85.3C120.204 89.854 116.42 93.352 111.778 93.352C107.136 93.352 104.034 89.348 104.76 84.75C105.53 79.976 109.974 76.06 114.748 76.06C117.322 76.06 119.698 77.226 120.996 79.272L119.324 80.658C118.4 79.03 116.552 77.952 114.528 77.952C110.81 77.952 107.444 80.966 106.85 84.684C106.3 88.16 108.632 91.46 112.218 91.46C114.792 91.46 117.916 89.238 118.444 86.532H114.154L114.44 84.64ZM131.342 88.182H123.488C123.224 89.942 124.148 91.592 126.04 91.592C127.558 91.592 128.504 90.822 129.45 89.59L130.968 90.536C129.714 92.318 127.734 93.352 125.732 93.352C122.586 93.352 121.068 90.976 121.53 87.94C122.036 84.772 124.104 82.396 127.426 82.396C130.704 82.396 131.87 84.816 131.386 87.874L131.342 88.182ZM123.818 86.686H129.582C129.604 85.146 128.746 84.112 127.162 84.112C125.622 84.112 124.302 85.212 123.818 86.686ZM135.88 84.552L134.538 93H132.558L133.9 84.552H132.822L133.108 82.704H134.186L134.802 78.766H136.782L136.166 82.704H138.102L137.816 84.552H135.88ZM153.6 88.182H145.746C145.482 89.942 146.406 91.592 148.298 91.592C149.816 91.592 150.762 90.822 151.708 89.59L153.226 90.536C151.972 92.318 149.992 93.352 147.99 93.352C144.844 93.352 143.326 90.976 143.788 87.94C144.294 84.772 146.362 82.396 149.684 82.396C152.962 82.396 154.128 84.816 153.644 87.874L153.6 88.182ZM146.076 86.686H151.84C151.862 85.146 151.004 84.112 149.42 84.112C147.88 84.112 146.56 85.212 146.076 86.686ZM158.207 87.412L155.259 82.704H157.591L159.505 86.026L162.695 82.704H165.093L160.561 87.412L164.103 93H161.793L159.065 88.82L155.127 93H152.729L158.207 87.412ZM170.357 91.592C172.513 91.592 173.965 89.876 174.295 87.852C174.603 85.85 173.679 84.156 171.545 84.156C169.499 84.156 168.003 85.938 167.695 87.852C167.387 89.788 168.267 91.592 170.357 91.592ZM168.619 82.704L168.355 84.42H168.399C169.411 83.188 170.753 82.396 172.293 82.396C175.263 82.396 176.737 84.97 176.297 87.786C175.813 90.734 173.635 93.352 170.467 93.352C169.015 93.352 167.893 92.56 167.299 91.394H167.255L166.067 98.896H164.087L166.639 82.704H168.619ZM187.201 88.182H179.347C179.083 89.942 180.007 91.592 181.899 91.592C183.417 91.592 184.363 90.822 185.309 89.59L186.827 90.536C185.573 92.318 183.593 93.352 181.591 93.352C178.445 93.352 176.927 90.976 177.389 87.94C177.895 84.772 179.963 82.396 183.285 82.396C186.563 82.396 187.729 84.816 187.245 87.874L187.201 88.182ZM179.677 86.686H185.441C185.463 85.146 184.605 84.112 183.021 84.112C181.481 84.112 180.161 85.212 179.677 86.686ZM191.872 82.704L191.608 84.376H191.674C192.356 83.166 193.478 82.396 194.798 82.396C195.37 82.396 195.92 82.594 196.36 82.902L195.172 84.706C194.864 84.398 194.49 84.288 194.028 84.288C191.894 84.288 191.3 86.268 191.036 87.94L190.244 93H188.264L189.892 82.704H191.872ZM199.882 84.552L198.54 93H196.56L197.902 84.552H196.824L197.11 82.704H198.188L198.804 78.766H200.784L200.168 82.704H202.104L201.818 84.552H199.882ZM212.583 91.592C214.739 91.592 216.191 89.876 216.521 87.852C216.829 85.85 215.905 84.156 213.771 84.156C211.725 84.156 210.229 85.938 209.921 87.852C209.613 89.788 210.493 91.592 212.583 91.592ZM219.205 82.704L217.577 93H215.597L215.861 91.394H215.817C214.827 92.56 213.463 93.352 211.989 93.352C208.843 93.352 207.479 90.734 207.963 87.786C208.403 84.97 210.669 82.396 213.661 82.396C215.179 82.396 216.301 83.188 216.917 84.42H216.961L217.225 82.704H219.205ZM224.807 91.592C226.963 91.592 228.415 89.876 228.745 87.852C229.053 85.85 228.129 84.156 225.995 84.156C223.949 84.156 222.453 85.938 222.145 87.852C221.837 89.788 222.717 91.592 224.807 91.592ZM227.821 93L228.085 91.394H228.041C227.051 92.56 225.665 93.352 224.213 93.352C221.045 93.352 219.703 90.734 220.187 87.786C220.627 84.97 222.893 82.396 225.863 82.396C227.403 82.396 228.525 83.188 229.141 84.42H229.185L230.835 73.904H232.815L229.801 93H227.821ZM234.568 82.704L236.504 89.128L240.486 82.704H242.708L235.822 93.352L232.346 82.704H234.568ZM246.213 82.704L244.585 93H242.605L244.233 82.704H246.213ZM246.191 76.61C246.939 76.61 247.467 77.226 247.335 77.996C247.225 78.744 246.499 79.338 245.751 79.338C245.003 79.338 244.497 78.744 244.607 77.996C244.739 77.226 245.443 76.61 246.191 76.61ZM256.881 83.078L256.485 85.63C255.847 84.728 254.945 84.244 253.757 84.244C251.821 84.244 250.061 85.96 249.753 87.852C249.423 89.964 250.655 91.504 252.745 91.504C253.889 91.504 254.901 90.976 255.781 90.14L255.363 92.67C254.395 93.154 253.449 93.352 252.415 93.352C249.379 93.352 247.267 91.02 247.751 87.94C248.257 84.75 251.095 82.396 254.263 82.396C255.187 82.396 256.177 82.616 256.881 83.078ZM267.016 88.182H259.162C258.898 89.942 259.822 91.592 261.714 91.592C263.232 91.592 264.178 90.822 265.124 89.59L266.642 90.536C265.388 92.318 263.408 93.352 261.406 93.352C258.26 93.352 256.742 90.976 257.204 87.94C257.71 84.772 259.778 82.396 263.1 82.396C266.378 82.396 267.544 84.816 267.06 87.874L267.016 88.182ZM259.492 86.686H265.256C265.278 85.146 264.42 84.112 262.836 84.112C261.296 84.112 259.976 85.212 259.492 86.686ZM280.425 82.396C283.505 82.396 285.551 84.772 285.067 87.874C284.583 90.976 281.767 93.352 278.687 93.352C275.607 93.352 273.583 90.976 274.067 87.874C274.551 84.772 277.345 82.396 280.425 82.396ZM280.139 84.288C278.181 84.288 276.355 85.916 276.046 87.874C275.739 89.81 277.037 91.46 278.995 91.46C280.953 91.46 282.779 89.81 283.087 87.874C283.395 85.916 282.097 84.288 280.139 84.288ZM289.665 82.704L289.445 84.09H289.489C290.281 82.99 291.601 82.396 292.855 82.396C295.759 82.396 296.199 84.354 295.803 86.862L294.835 93H292.855L293.779 87.104C294.065 85.344 294.021 84.156 291.997 84.156C289.445 84.156 289.093 86.4 288.785 88.27L288.037 93H286.057L287.685 82.704H289.665ZM307.54 82.704L307.32 84.09H307.364C308.156 82.99 309.476 82.396 310.73 82.396C313.634 82.396 314.074 84.354 313.678 86.862L312.71 93H310.73L311.654 87.104C311.94 85.344 311.896 84.156 309.872 84.156C307.32 84.156 306.968 86.4 306.66 88.27L305.912 93H303.932L305.56 82.704H307.54ZM325.26 88.182H317.406C317.142 89.942 318.066 91.592 319.958 91.592C321.476 91.592 322.422 90.822 323.368 89.59L324.886 90.536C323.632 92.318 321.652 93.352 319.65 93.352C316.504 93.352 314.986 90.976 315.448 87.94C315.954 84.772 318.022 82.396 321.344 82.396C324.622 82.396 325.788 84.816 325.304 87.874L325.26 88.182ZM317.736 86.686H323.5C323.522 85.146 322.664 84.112 321.08 84.112C319.54 84.112 318.22 85.212 317.736 86.686ZM330.832 91.592C332.988 91.592 334.44 89.876 334.77 87.852C335.078 85.85 334.154 84.156 332.02 84.156C329.974 84.156 328.478 85.938 328.17 87.852C327.862 89.788 328.742 91.592 330.832 91.592ZM337.454 82.704L335.848 92.802C335.298 96.344 333.89 98.896 329.886 98.896C327.026 98.896 325.222 97.136 325.64 94.232H327.62C327.334 96.08 328.434 97.136 330.238 97.136C332.68 97.136 333.45 95.464 333.78 93.352L334.11 91.394H334.066C333.076 92.56 331.69 93.352 330.238 93.352C327.07 93.352 325.728 90.734 326.212 87.786C326.652 84.97 328.918 82.396 331.888 82.396C333.428 82.396 334.55 83.188 335.144 84.464H335.188L335.474 82.704H337.454ZM344.641 82.396C347.721 82.396 349.767 84.772 349.283 87.874C348.799 90.976 345.983 93.352 342.903 93.352C339.823 93.352 337.799 90.976 338.283 87.874C338.767 84.772 341.561 82.396 344.641 82.396ZM344.355 84.288C342.397 84.288 340.571 85.916 340.263 87.874C339.955 89.81 341.253 91.46 343.211 91.46C345.169 91.46 346.995 89.81 347.303 87.874C347.611 85.916 346.313 84.288 344.355 84.288ZM353.882 84.552L352.54 93H350.56L351.902 84.552H350.824L351.11 82.704H352.188L352.804 78.766H354.784L354.168 82.704H356.104L355.818 84.552H353.882ZM359.629 82.704L358.001 93H356.021L357.649 82.704H359.629ZM359.607 76.61C360.355 76.61 360.883 77.226 360.751 77.996C360.641 78.744 359.915 79.338 359.167 79.338C358.419 79.338 357.913 78.744 358.023 77.996C358.155 77.226 358.859 76.61 359.607 76.61ZM365.831 91.592C367.987 91.592 369.439 89.876 369.769 87.852C370.077 85.85 369.153 84.156 367.019 84.156C364.973 84.156 363.477 85.938 363.169 87.852C362.861 89.788 363.741 91.592 365.831 91.592ZM372.453 82.704L370.825 93H368.845L369.109 91.394H369.065C368.075 92.56 366.711 93.352 365.237 93.352C362.091 93.352 360.727 90.734 361.211 87.786C361.651 84.97 363.917 82.396 366.909 82.396C368.427 82.396 369.549 83.188 370.165 84.42H370.209L370.473 82.704H372.453ZM376.999 84.552L375.657 93H373.677L375.019 84.552H373.941L374.227 82.704H375.305L375.921 78.766H377.901L377.285 82.704H379.221L378.935 84.552H376.999ZM382.746 82.704L381.118 93H379.138L380.766 82.704H382.746ZM382.724 76.61C383.472 76.61 384 77.226 383.868 77.996C383.758 78.744 383.032 79.338 382.284 79.338C381.536 79.338 381.03 78.744 381.14 77.996C381.272 77.226 381.976 76.61 382.724 76.61ZM387.892 82.704L387.672 84.09H387.716C388.508 82.99 389.828 82.396 391.082 82.396C393.986 82.396 394.426 84.354 394.03 86.862L393.062 93H391.082L392.006 87.104C392.292 85.344 392.248 84.156 390.224 84.156C387.672 84.156 387.32 86.4 387.012 88.27L386.264 93H384.284L385.912 82.704H387.892ZM400.442 91.592C402.598 91.592 404.05 89.876 404.38 87.852C404.688 85.85 403.764 84.156 401.63 84.156C399.584 84.156 398.088 85.938 397.78 87.852C397.472 89.788 398.352 91.592 400.442 91.592ZM407.064 82.704L405.458 92.802C404.908 96.344 403.5 98.896 399.496 98.896C396.636 98.896 394.832 97.136 395.25 94.232H397.23C396.944 96.08 398.044 97.136 399.848 97.136C402.29 97.136 403.06 95.464 403.39 93.352L403.72 91.394H403.676C402.686 92.56 401.3 93.352 399.848 93.352C396.68 93.352 395.338 90.734 395.822 87.786C396.262 84.97 398.528 82.396 401.498 82.396C403.038 82.396 404.16 83.188 404.754 84.464H404.798L405.084 82.704H407.064ZM417.276 91.24L413.91 82.704H416.22L418.662 89.238L422.93 82.704H425.152L414.262 98.896H412.018L417.276 91.24ZM430.837 82.396C433.917 82.396 435.963 84.772 435.479 87.874C434.995 90.976 432.179 93.352 429.099 93.352C426.019 93.352 423.995 90.976 424.479 87.874C424.963 84.772 427.757 82.396 430.837 82.396ZM430.551 84.288C428.593 84.288 426.767 85.916 426.459 87.874C426.151 89.81 427.449 91.46 429.407 91.46C431.365 91.46 433.191 89.81 433.499 87.874C433.807 85.916 432.509 84.288 430.551 84.288ZM438.009 82.704H439.989L439.087 88.402C438.823 90.052 439.021 91.504 440.979 91.504C442.937 91.504 443.575 90.052 443.839 88.402L444.741 82.704H446.721L445.797 88.622C445.335 91.438 443.707 93.352 440.671 93.352C437.635 93.352 436.623 91.438 437.085 88.622L438.009 82.704ZM451.467 82.704L451.203 84.376H451.269C451.951 83.166 453.073 82.396 454.393 82.396C454.965 82.396 455.515 82.594 455.955 82.902L454.767 84.706C454.459 84.398 454.085 84.288 453.623 84.288C451.489 84.288 450.895 86.268 450.631 87.94L449.839 93H447.859L449.487 82.704H451.467ZM111.492 110.2L109.754 111.058C109.6 110.552 109.16 110.156 108.588 110.156C108.038 110.156 107.444 110.596 107.334 111.168C107.202 112.07 108.324 112.466 109.446 113.016C110.568 113.566 111.624 114.314 111.36 115.942C111.052 117.9 109.182 119.352 107.268 119.352C105.772 119.352 104.408 118.494 104.078 117.042L105.904 116.272C106.19 117.042 106.608 117.592 107.554 117.592C108.39 117.592 109.204 117.02 109.358 116.14C109.446 115.59 109.204 115.326 108.808 115.018L107.026 113.984C105.992 113.368 105.244 112.796 105.464 111.388C105.728 109.716 107.29 108.396 108.962 108.396C110.216 108.396 111.118 109.078 111.492 110.2ZM117.471 117.592C119.627 117.592 121.079 115.876 121.409 113.852C121.717 111.85 120.793 110.156 118.659 110.156C116.613 110.156 115.117 111.938 114.809 113.852C114.501 115.788 115.381 117.592 117.471 117.592ZM124.093 108.704L122.465 119H120.485L120.749 117.394H120.705C119.715 118.56 118.351 119.352 116.877 119.352C113.731 119.352 112.367 116.734 112.851 113.786C113.291 110.97 115.557 108.396 118.549 108.396C120.067 108.396 121.189 109.188 121.805 110.42H121.849L122.113 108.704H124.093ZM130.114 99.904L127.1 119H125.12L128.134 99.904H130.114ZM134.573 117.592C136.729 117.592 138.181 115.876 138.511 113.852C138.819 111.85 137.895 110.156 135.761 110.156C133.715 110.156 132.219 111.938 131.911 113.852C131.603 115.788 132.483 117.592 134.573 117.592ZM141.195 108.704L139.567 119H137.587L137.851 117.394H137.807C136.817 118.56 135.453 119.352 133.979 119.352C130.833 119.352 129.469 116.734 129.953 113.786C130.393 110.97 132.659 108.396 135.651 108.396C137.169 108.396 138.291 109.188 138.907 110.42H138.951L139.215 108.704H141.195ZM145.874 108.704L145.61 110.376H145.676C146.358 109.166 147.48 108.396 148.8 108.396C149.372 108.396 149.922 108.594 150.362 108.902L149.174 110.706C148.866 110.398 148.492 110.288 148.03 110.288C145.896 110.288 145.302 112.268 145.038 113.94L144.246 119H142.266L143.894 108.704H145.874ZM154.071 117.24L150.705 108.704H153.015L155.457 115.238L159.725 108.704H161.947L151.057 124.896H148.813L154.071 117.24ZM171.351 110.552L170.009 119H168.029L169.371 110.552H168.293L168.579 108.704H169.657L170.273 104.766H172.253L171.637 108.704H173.573L173.287 110.552H171.351ZM179.276 108.396C182.356 108.396 184.402 110.772 183.918 113.874C183.434 116.976 180.618 119.352 177.538 119.352C174.458 119.352 172.434 116.976 172.918 113.874C173.402 110.772 176.196 108.396 179.276 108.396ZM178.99 110.288C177.032 110.288 175.206 111.916 174.898 113.874C174.59 115.81 175.888 117.46 177.846 117.46C179.804 117.46 181.63 115.81 181.938 113.874C182.246 111.916 180.948 110.288 178.99 110.288ZM200.951 114.182H193.097C192.833 115.942 193.757 117.592 195.649 117.592C197.167 117.592 198.113 116.822 199.059 115.59L200.577 116.536C199.323 118.318 197.343 119.352 195.341 119.352C192.195 119.352 190.677 116.976 191.139 113.94C191.645 110.772 193.713 108.396 197.035 108.396C200.313 108.396 201.479 110.816 200.995 113.874L200.951 114.182ZM193.427 112.686H199.191C199.213 111.146 198.355 110.112 196.771 110.112C195.231 110.112 193.911 111.212 193.427 112.686ZM205.49 108.704L205.27 110.09H205.314C206.106 108.99 207.426 108.396 208.68 108.396C211.584 108.396 212.024 110.354 211.628 112.862L210.66 119H208.68L209.604 113.104C209.89 111.344 209.846 110.156 207.822 110.156C205.27 110.156 204.918 112.4 204.61 114.27L203.862 119H201.882L203.51 108.704H205.49ZM220.525 110.2L218.787 111.058C218.633 110.552 218.193 110.156 217.621 110.156C217.071 110.156 216.477 110.596 216.367 111.168C216.235 112.07 217.357 112.466 218.479 113.016C219.601 113.566 220.657 114.314 220.393 115.942C220.085 117.9 218.215 119.352 216.301 119.352C214.805 119.352 213.441 118.494 213.111 117.042L214.937 116.272C215.223 117.042 215.641 117.592 216.587 117.592C217.423 117.592 218.237 117.02 218.391 116.14C218.479 115.59 218.237 115.326 217.841 115.018L216.059 113.984C215.025 113.368 214.277 112.796 214.497 111.388C214.761 109.716 216.323 108.396 217.995 108.396C219.249 108.396 220.151 109.078 220.525 110.2ZM223.381 108.704H225.361L224.459 114.402C224.195 116.052 224.393 117.504 226.351 117.504C228.309 117.504 228.947 116.052 229.211 114.402L230.113 108.704H232.093L231.169 114.622C230.707 117.438 229.079 119.352 226.043 119.352C223.007 119.352 221.995 117.438 222.457 114.622L223.381 108.704ZM236.838 108.704L236.574 110.376H236.64C237.322 109.166 238.444 108.396 239.764 108.396C240.336 108.396 240.886 108.594 241.326 108.902L240.138 110.706C239.83 110.398 239.456 110.288 238.994 110.288C236.86 110.288 236.266 112.268 236.002 113.94L235.21 119H233.23L234.858 108.704H236.838ZM250.237 114.182H242.383C242.119 115.942 243.043 117.592 244.935 117.592C246.453 117.592 247.399 116.822 248.345 115.59L249.863 116.536C248.609 118.318 246.629 119.352 244.627 119.352C241.481 119.352 239.963 116.976 240.425 113.94C240.931 110.772 242.999 108.396 246.321 108.396C249.599 108.396 250.765 110.816 250.281 113.874L250.237 114.182ZM242.713 112.686H248.477C248.499 111.146 247.641 110.112 246.057 110.112C244.517 110.112 243.197 111.212 242.713 112.686ZM260.44 117.24L257.074 108.704H259.384L261.826 115.238L266.094 108.704H268.316L257.426 124.896H255.182L260.44 117.24ZM274.001 108.396C277.081 108.396 279.127 110.772 278.643 113.874C278.159 116.976 275.343 119.352 272.263 119.352C269.183 119.352 267.159 116.976 267.643 113.874C268.127 110.772 270.921 108.396 274.001 108.396ZM273.715 110.288C271.757 110.288 269.931 111.916 269.623 113.874C269.315 115.81 270.613 117.46 272.571 117.46C274.529 117.46 276.355 115.81 276.663 113.874C276.971 111.916 275.673 110.288 273.715 110.288ZM281.174 108.704H283.154L282.252 114.402C281.988 116.052 282.186 117.504 284.144 117.504C286.102 117.504 286.74 116.052 287.004 114.402L287.906 108.704H289.886L288.962 114.622C288.5 117.438 286.872 119.352 283.836 119.352C280.8 119.352 279.788 117.438 280.25 114.622L281.174 108.704ZM300.991 108.704L300.727 110.376H300.793C301.475 109.166 302.597 108.396 303.917 108.396C304.489 108.396 305.039 108.594 305.479 108.902L304.291 110.706C303.983 110.398 303.609 110.288 303.147 110.288C301.013 110.288 300.419 112.268 300.155 113.94L299.363 119H297.383L299.011 108.704H300.991ZM314.389 114.182H306.535C306.271 115.942 307.195 117.592 309.087 117.592C310.605 117.592 311.551 116.822 312.497 115.59L314.015 116.536C312.761 118.318 310.781 119.352 308.779 119.352C305.633 119.352 304.115 116.976 304.577 113.94C305.083 110.772 307.151 108.396 310.473 108.396C313.751 108.396 314.917 110.816 314.433 113.874L314.389 114.182ZM306.865 112.686H312.629C312.651 111.146 311.793 110.112 310.209 110.112C308.669 110.112 307.349 111.212 306.865 112.686ZM324.449 109.078L324.053 111.63C323.415 110.728 322.513 110.244 321.325 110.244C319.389 110.244 317.629 111.96 317.321 113.852C316.991 115.964 318.223 117.504 320.313 117.504C321.457 117.504 322.469 116.976 323.349 116.14L322.931 118.67C321.963 119.154 321.017 119.352 319.983 119.352C316.947 119.352 314.835 117.02 315.319 113.94C315.825 110.75 318.663 108.396 321.831 108.396C322.755 108.396 323.745 108.616 324.449 109.078ZM334.584 114.182H326.73C326.466 115.942 327.39 117.592 329.282 117.592C330.8 117.592 331.746 116.822 332.692 115.59L334.21 116.536C332.956 118.318 330.976 119.352 328.974 119.352C325.828 119.352 324.31 116.976 324.772 113.94C325.278 110.772 327.346 108.396 330.668 108.396C333.946 108.396 335.112 110.816 334.628 113.874L334.584 114.182ZM327.06 112.686H332.824C332.846 111.146 331.988 110.112 330.404 110.112C328.864 110.112 327.544 111.212 327.06 112.686ZM339.562 108.704L337.934 119H335.954L337.582 108.704H339.562ZM339.54 102.61C340.288 102.61 340.816 103.226 340.684 103.996C340.574 104.744 339.848 105.338 339.1 105.338C338.352 105.338 337.846 104.744 337.956 103.996C338.088 103.226 338.792 102.61 339.54 102.61ZM343.3 108.704L345.236 115.128L349.218 108.704H351.44L344.554 119.352L341.078 108.704H343.3ZM360.709 114.182H352.855C352.591 115.942 353.515 117.592 355.407 117.592C356.925 117.592 357.871 116.822 358.817 115.59L360.335 116.536C359.081 118.318 357.101 119.352 355.099 119.352C351.953 119.352 350.435 116.976 350.897 113.94C351.403 110.772 353.471 108.396 356.793 108.396C360.071 108.396 361.237 110.816 360.753 113.874L360.709 114.182ZM353.185 112.686H358.949C358.971 111.146 358.113 110.112 356.529 110.112C354.989 110.112 353.669 111.212 353.185 112.686ZM372.663 117.592C374.819 117.592 376.271 115.876 376.601 113.852C376.909 111.85 375.985 110.156 373.851 110.156C371.805 110.156 370.309 111.938 370.001 113.852C369.693 115.788 370.573 117.592 372.663 117.592ZM379.285 108.704L377.657 119H375.677L375.941 117.394H375.897C374.907 118.56 373.543 119.352 372.069 119.352C368.923 119.352 367.559 116.734 368.043 113.786C368.483 110.97 370.749 108.396 373.741 108.396C375.259 108.396 376.381 109.188 376.997 110.42H377.041L377.305 108.704H379.285ZM395.713 109.078L395.317 111.63C394.679 110.728 393.777 110.244 392.589 110.244C390.653 110.244 388.893 111.96 388.585 113.852C388.255 115.964 389.487 117.504 391.577 117.504C392.721 117.504 393.733 116.976 394.613 116.14L394.195 118.67C393.227 119.154 392.281 119.352 391.247 119.352C388.211 119.352 386.099 117.02 386.583 113.94C387.089 110.75 389.927 108.396 393.095 108.396C394.019 108.396 395.009 108.616 395.713 109.078ZM402.284 108.396C405.364 108.396 407.41 110.772 406.926 113.874C406.442 116.976 403.626 119.352 400.546 119.352C397.466 119.352 395.442 116.976 395.926 113.874C396.41 110.772 399.204 108.396 402.284 108.396ZM401.998 110.288C400.04 110.288 398.214 111.916 397.906 113.874C397.598 115.81 398.896 117.46 400.854 117.46C402.812 117.46 404.638 115.81 404.946 113.874C405.254 111.916 403.956 110.288 401.998 110.288ZM411.459 108.704L411.261 110.002H411.305C412.009 109.1 413.153 108.396 414.275 108.396C415.617 108.396 416.475 109.078 416.959 110.222C417.773 109.122 419.115 108.396 420.413 108.396C423.119 108.396 423.493 110.508 423.119 112.84L422.151 119H420.171L421.095 113.17C421.293 111.85 421.403 110.156 419.665 110.156C417.553 110.156 417.047 112.356 416.783 113.94L415.991 119H414.011L414.869 113.544C415.089 112.202 415.353 110.156 413.527 110.156C411.415 110.156 410.887 112.334 410.623 113.94L409.831 119H407.851L409.479 108.704H411.459ZM429.974 117.592C432.13 117.592 433.582 115.876 433.912 113.852C434.22 111.85 433.296 110.156 431.162 110.156C429.116 110.156 427.62 111.938 427.312 113.852C427.004 115.788 427.884 117.592 429.974 117.592ZM428.236 108.704L427.972 110.42H428.016C429.028 109.188 430.37 108.396 431.91 108.396C434.88 108.396 436.354 110.97 435.914 113.786C435.43 116.734 433.252 119.352 430.084 119.352C428.632 119.352 427.51 118.56 426.916 117.394H426.872L425.684 124.896H423.704L426.256 108.704H428.236ZM446.819 114.182H438.965C438.701 115.942 439.625 117.592 441.517 117.592C443.035 117.592 443.981 116.822 444.927 115.59L446.445 116.536C445.191 118.318 443.211 119.352 441.209 119.352C438.063 119.352 436.545 116.976 437.007 113.94C437.513 110.772 439.581 108.396 442.903 108.396C446.181 108.396 447.347 110.816 446.863 113.874L446.819 114.182ZM439.295 112.686H445.059C445.081 111.146 444.223 110.112 442.639 110.112C441.099 110.112 439.779 111.212 439.295 112.686ZM451.357 110.552L450.015 119H448.035L449.377 110.552H448.299L448.585 108.704H449.663L450.279 104.766H452.259L451.643 108.704H453.579L453.293 110.552H451.357ZM457.103 108.704L455.475 119H453.495L455.123 108.704H457.103ZM457.081 102.61C457.829 102.61 458.357 103.226 458.225 103.996C458.115 104.744 457.389 105.338 456.641 105.338C455.893 105.338 455.387 104.744 455.497 103.996C455.629 103.226 456.333 102.61 457.081 102.61ZM462.249 110.552L460.907 119H458.927L460.269 110.552H459.191L459.477 108.704H460.555L461.171 104.766H463.151L462.535 108.704H464.471L464.185 110.552H462.249ZM467.996 108.704L466.368 119H464.388L466.016 108.704H467.996ZM467.974 102.61C468.722 102.61 469.25 103.226 469.118 103.996C469.008 104.744 468.282 105.338 467.534 105.338C466.786 105.338 466.28 104.744 466.39 103.996C466.522 103.226 467.226 102.61 467.974 102.61ZM471.734 108.704L473.67 115.128L477.652 108.704H479.874L472.988 119.352L469.512 108.704H471.734ZM489.143 114.182H481.289C481.025 115.942 481.949 117.592 483.841 117.592C485.359 117.592 486.305 116.822 487.251 115.59L488.769 116.536C487.515 118.318 485.535 119.352 483.533 119.352C480.387 119.352 478.869 116.976 479.331 113.94C479.837 110.772 481.905 108.396 485.227 108.396C488.505 108.396 489.671 110.816 489.187 113.874L489.143 114.182ZM481.619 112.686H487.383C487.405 111.146 486.547 110.112 484.963 110.112C483.423 110.112 482.103 111.212 481.619 112.686ZM113.494 135.078L113.098 137.63C112.46 136.728 111.558 136.244 110.37 136.244C108.434 136.244 106.674 137.96 106.366 139.852C106.036 141.964 107.268 143.504 109.358 143.504C110.502 143.504 111.514 142.976 112.394 142.14L111.976 144.67C111.008 145.154 110.062 145.352 109.028 145.352C105.992 145.352 103.88 143.02 104.364 139.94C104.87 136.75 107.708 134.396 110.876 134.396C111.8 134.396 112.79 134.616 113.494 135.078ZM120.065 134.396C123.145 134.396 125.191 136.772 124.707 139.874C124.223 142.976 121.407 145.352 118.327 145.352C115.247 145.352 113.223 142.976 113.707 139.874C114.191 136.772 116.985 134.396 120.065 134.396ZM119.779 136.288C117.821 136.288 115.995 137.916 115.687 139.874C115.379 141.81 116.677 143.46 118.635 143.46C120.593 143.46 122.419 141.81 122.727 139.874C123.035 137.916 121.737 136.288 119.779 136.288ZM129.24 134.704L129.042 136.002H129.086C129.79 135.1 130.934 134.396 132.056 134.396C133.398 134.396 134.256 135.078 134.74 136.222C135.554 135.122 136.896 134.396 138.194 134.396C140.9 134.396 141.274 136.508 140.9 138.84L139.932 145H137.952L138.876 139.17C139.074 137.85 139.184 136.156 137.446 136.156C135.334 136.156 134.828 138.356 134.564 139.94L133.772 145H131.792L132.65 139.544C132.87 138.202 133.134 136.156 131.308 136.156C129.196 136.156 128.668 138.334 128.404 139.94L127.612 145H125.632L127.26 134.704H129.24ZM147.755 143.592C149.911 143.592 151.363 141.876 151.693 139.852C152.001 137.85 151.077 136.156 148.943 136.156C146.897 136.156 145.401 137.938 145.093 139.852C144.785 141.788 145.665 143.592 147.755 143.592ZM146.017 134.704L145.753 136.42H145.797C146.809 135.188 148.151 134.396 149.691 134.396C152.661 134.396 154.135 136.97 153.695 139.786C153.211 142.734 151.033 145.352 147.865 145.352C146.413 145.352 145.291 144.56 144.697 143.394H144.653L143.465 150.896H141.485L144.037 134.704H146.017ZM164.6 140.182H156.746C156.482 141.942 157.406 143.592 159.298 143.592C160.816 143.592 161.762 142.822 162.708 141.59L164.226 142.536C162.972 144.318 160.992 145.352 158.99 145.352C155.844 145.352 154.326 142.976 154.788 139.94C155.294 136.772 157.362 134.396 160.684 134.396C163.962 134.396 165.128 136.816 164.644 139.874L164.6 140.182ZM157.076 138.686H162.84C162.862 137.146 162.004 136.112 160.42 136.112C158.88 136.112 157.56 137.212 157.076 138.686ZM169.138 134.704L168.918 136.09H168.962C169.754 134.99 171.074 134.396 172.328 134.396C175.232 134.396 175.672 136.354 175.276 138.862L174.308 145H172.328L173.252 139.104C173.538 137.344 173.494 136.156 171.47 136.156C168.918 136.156 168.566 138.4 168.258 140.27L167.51 145H165.53L167.158 134.704H169.138ZM184.174 136.2L182.436 137.058C182.282 136.552 181.842 136.156 181.27 136.156C180.72 136.156 180.126 136.596 180.016 137.168C179.884 138.07 181.006 138.466 182.128 139.016C183.25 139.566 184.306 140.314 184.042 141.942C183.734 143.9 181.864 145.352 179.95 145.352C178.454 145.352 177.09 144.494 176.76 143.042L178.586 142.272C178.872 143.042 179.29 143.592 180.236 143.592C181.072 143.592 181.886 143.02 182.04 142.14C182.128 141.59 181.886 141.326 181.49 141.018L179.708 139.984C178.674 139.368 177.926 138.796 178.146 137.388C178.41 135.716 179.972 134.396 181.644 134.396C182.898 134.396 183.8 135.078 184.174 136.2ZM190.153 143.592C192.309 143.592 193.761 141.876 194.091 139.852C194.399 137.85 193.475 136.156 191.341 136.156C189.295 136.156 187.799 137.938 187.491 139.852C187.183 141.788 188.063 143.592 190.153 143.592ZM196.775 134.704L195.147 145H193.167L193.431 143.394H193.387C192.397 144.56 191.033 145.352 189.559 145.352C186.413 145.352 185.049 142.734 185.533 139.786C185.973 136.97 188.239 134.396 191.231 134.396C192.749 134.396 193.871 135.188 194.487 136.42H194.531L194.795 134.704H196.775ZM201.322 136.552L199.98 145H198L199.342 136.552H198.264L198.55 134.704H199.628L200.244 130.766H202.224L201.608 134.704H203.544L203.258 136.552H201.322ZM207.068 134.704L205.44 145H203.46L205.088 134.704H207.068ZM207.046 128.61C207.794 128.61 208.322 129.226 208.19 129.996C208.08 130.744 207.354 131.338 206.606 131.338C205.858 131.338 205.352 130.744 205.462 129.996C205.594 129.226 206.298 128.61 207.046 128.61ZM214.854 134.396C217.934 134.396 219.98 136.772 219.496 139.874C219.012 142.976 216.196 145.352 213.116 145.352C210.036 145.352 208.012 142.976 208.496 139.874C208.98 136.772 211.774 134.396 214.854 134.396ZM214.568 136.288C212.61 136.288 210.784 137.916 210.476 139.874C210.168 141.81 211.466 143.46 213.424 143.46C215.382 143.46 217.208 141.81 217.516 139.874C217.824 137.916 216.526 136.288 214.568 136.288ZM224.095 134.704L223.875 136.09H223.919C224.711 134.99 226.031 134.396 227.285 134.396C230.189 134.396 230.629 136.354 230.233 138.862L229.265 145H227.285L228.209 139.104C228.495 137.344 228.451 136.156 226.427 136.156C223.875 136.156 223.523 138.4 223.215 140.27L222.467 145H220.487L222.115 134.704H224.095ZM243.554 143.592C245.71 143.592 247.162 141.876 247.492 139.852C247.8 137.85 246.876 136.156 244.742 136.156C242.696 136.156 241.2 137.938 240.892 139.852C240.584 141.788 241.464 143.592 243.554 143.592ZM241.816 134.704L241.552 136.42H241.596C242.608 135.188 243.95 134.396 245.49 134.396C248.46 134.396 249.934 136.97 249.494 139.786C249.01 142.734 246.832 145.352 243.664 145.352C242.212 145.352 241.09 144.56 240.496 143.394H240.452L239.264 150.896H237.284L239.836 134.704H241.816ZM255.251 143.592C257.407 143.592 258.859 141.876 259.189 139.852C259.497 137.85 258.573 136.156 256.439 136.156C254.393 136.156 252.897 137.938 252.589 139.852C252.281 141.788 253.161 143.592 255.251 143.592ZM261.873 134.704L260.245 145H258.265L258.529 143.394H258.485C257.495 144.56 256.131 145.352 254.657 145.352C251.511 145.352 250.147 142.734 250.631 139.786C251.071 136.97 253.337 134.396 256.329 134.396C257.847 134.396 258.969 135.188 259.585 136.42H259.629L259.893 134.704H261.873ZM271.941 135.078L271.545 137.63C270.907 136.728 270.005 136.244 268.817 136.244C266.881 136.244 265.121 137.96 264.813 139.852C264.483 141.964 265.715 143.504 267.805 143.504C268.949 143.504 269.961 142.976 270.841 142.14L270.423 144.67C269.455 145.154 268.509 145.352 267.475 145.352C264.439 145.352 262.327 143.02 262.811 139.94C263.317 136.75 266.155 134.396 269.323 134.396C270.247 134.396 271.237 134.616 271.941 135.078ZM277.648 125.904L275.646 138.576L280.134 134.704H282.752L277.67 138.972L281.564 145H278.99L276.064 140.314L275.272 140.996L274.634 145H272.654L275.668 125.904H277.648ZM287.219 143.592C289.375 143.592 290.827 141.876 291.157 139.852C291.465 137.85 290.541 136.156 288.407 136.156C286.361 136.156 284.865 137.938 284.557 139.852C284.249 141.788 285.129 143.592 287.219 143.592ZM293.841 134.704L292.213 145H290.233L290.497 143.394H290.453C289.463 144.56 288.099 145.352 286.625 145.352C283.479 145.352 282.115 142.734 282.599 139.786C283.039 136.97 285.305 134.396 288.297 134.396C289.815 134.396 290.937 135.188 291.553 136.42H291.597L291.861 134.704H293.841ZM299.422 143.592C301.578 143.592 303.03 141.876 303.36 139.852C303.668 137.85 302.744 136.156 300.61 136.156C298.564 136.156 297.068 137.938 296.76 139.852C296.452 141.788 297.332 143.592 299.422 143.592ZM306.044 134.704L304.438 144.802C303.888 148.344 302.48 150.896 298.476 150.896C295.616 150.896 293.812 149.136 294.23 146.232H296.21C295.924 148.08 297.024 149.136 298.828 149.136C301.27 149.136 302.04 147.464 302.37 145.352L302.7 143.394H302.656C301.666 144.56 300.28 145.352 298.828 145.352C295.66 145.352 294.318 142.734 294.802 139.786C295.242 136.97 297.508 134.396 300.478 134.396C302.018 134.396 303.14 135.188 303.734 136.464H303.778L304.064 134.704H306.044ZM316.795 140.182H308.941C308.677 141.942 309.601 143.592 311.493 143.592C313.011 143.592 313.957 142.822 314.903 141.59L316.421 142.536C315.167 144.318 313.187 145.352 311.185 145.352C308.039 145.352 306.521 142.976 306.983 139.94C307.489 136.772 309.557 134.396 312.879 134.396C316.157 134.396 317.323 136.816 316.839 139.874L316.795 140.182ZM309.271 138.686H315.035C315.057 137.146 314.199 136.112 312.615 136.112C311.075 136.112 309.755 137.212 309.271 138.686ZM319.903 142.8C320.607 142.8 321.091 143.394 320.981 144.076C320.871 144.78 320.189 145.352 319.485 145.352C318.781 145.352 318.319 144.78 318.429 144.076C318.539 143.394 319.199 142.8 319.903 142.8Z" fill="#093761"/>
<path d="M110.81 182.784L114.902 190H112.394L108.632 182.982H107.774L106.652 190H104.584L107.202 173.412H109.71C111.184 173.412 112.768 173.434 113.978 174.182C115.232 174.996 115.782 176.558 115.518 178.142C115.144 180.518 113.252 182.498 110.81 182.784ZM108.984 175.26L108.038 181.266H108.698C110.81 181.266 113.164 180.87 113.582 178.23C113.978 175.634 111.58 175.26 109.534 175.26H108.984ZM125.864 185.182H118.01C117.746 186.942 118.67 188.592 120.562 188.592C122.08 188.592 123.026 187.822 123.972 186.59L125.49 187.536C124.236 189.318 122.256 190.352 120.254 190.352C117.108 190.352 115.59 187.976 116.052 184.94C116.558 181.772 118.626 179.396 121.948 179.396C125.226 179.396 126.392 181.816 125.908 184.874L125.864 185.182ZM118.34 183.686H124.104C124.126 182.146 123.268 181.112 121.684 181.112C120.144 181.112 118.824 182.212 118.34 183.686ZM135.924 180.078L135.528 182.63C134.89 181.728 133.988 181.244 132.8 181.244C130.864 181.244 129.104 182.96 128.796 184.852C128.466 186.964 129.698 188.504 131.788 188.504C132.932 188.504 133.944 187.976 134.824 187.14L134.406 189.67C133.438 190.154 132.492 190.352 131.458 190.352C128.422 190.352 126.31 188.02 126.794 184.94C127.3 181.75 130.138 179.396 133.306 179.396C134.23 179.396 135.22 179.616 135.924 180.078ZM146.059 185.182H138.205C137.941 186.942 138.865 188.592 140.757 188.592C142.275 188.592 143.221 187.822 144.167 186.59L145.685 187.536C144.431 189.318 142.451 190.352 140.449 190.352C137.303 190.352 135.785 187.976 136.247 184.94C136.753 181.772 138.821 179.396 142.143 179.396C145.421 179.396 146.587 181.816 146.103 184.874L146.059 185.182ZM138.535 183.686H144.299C144.321 182.146 143.463 181.112 141.879 181.112C140.339 181.112 139.019 182.212 138.535 183.686ZM151.037 179.704L149.409 190H147.429L149.057 179.704H151.037ZM151.015 173.61C151.763 173.61 152.291 174.226 152.159 174.996C152.049 175.744 151.323 176.338 150.575 176.338C149.827 176.338 149.321 175.744 149.431 174.996C149.563 174.226 150.267 173.61 151.015 173.61ZM154.775 179.704L156.711 186.128L160.693 179.704H162.915L156.029 190.352L152.553 179.704H154.775ZM172.184 185.182H164.33C164.066 186.942 164.99 188.592 166.882 188.592C168.4 188.592 169.346 187.822 170.292 186.59L171.81 187.536C170.556 189.318 168.576 190.352 166.574 190.352C163.428 190.352 161.91 187.976 162.372 184.94C162.878 181.772 164.946 179.396 168.268 179.396C171.546 179.396 172.712 181.816 172.228 184.874L172.184 185.182ZM164.66 183.686H170.424C170.446 182.146 169.588 181.112 168.004 181.112C166.464 181.112 165.144 182.212 164.66 183.686ZM184.115 188.592C186.271 188.592 187.723 186.876 188.053 184.852C188.361 182.85 187.437 181.156 185.303 181.156C183.257 181.156 181.761 182.938 181.453 184.852C181.145 186.788 182.025 188.592 184.115 188.592ZM190.737 179.704L189.131 189.802C188.581 193.344 187.173 195.896 183.169 195.896C180.309 195.896 178.505 194.136 178.923 191.232H180.903C180.617 193.08 181.717 194.136 183.521 194.136C185.963 194.136 186.733 192.464 187.063 190.352L187.393 188.394H187.349C186.359 189.56 184.973 190.352 183.521 190.352C180.353 190.352 179.011 187.734 179.495 184.786C179.935 181.97 182.201 179.396 185.171 179.396C186.711 179.396 187.833 180.188 188.427 181.464H188.471L188.757 179.704H190.737ZM193.216 179.704H195.197L194.295 185.402C194.031 187.052 194.229 188.504 196.187 188.504C198.145 188.504 198.783 187.052 199.047 185.402L199.949 179.704H201.928L201.005 185.622C200.543 188.438 198.915 190.352 195.879 190.352C192.843 190.352 191.831 188.438 192.293 185.622L193.216 179.704ZM206.982 179.704L205.354 190H203.374L205.002 179.704H206.982ZM206.96 173.61C207.708 173.61 208.236 174.226 208.104 174.996C207.994 175.744 207.268 176.338 206.52 176.338C205.772 176.338 205.266 175.744 205.376 174.996C205.508 174.226 206.212 173.61 206.96 173.61ZM213.184 188.592C215.34 188.592 216.792 186.876 217.122 184.852C217.43 182.85 216.506 181.156 214.372 181.156C212.326 181.156 210.83 182.938 210.522 184.852C210.214 186.788 211.094 188.592 213.184 188.592ZM216.198 190L216.462 188.394H216.418C215.428 189.56 214.042 190.352 212.59 190.352C209.422 190.352 208.08 187.734 208.564 184.786C209.004 181.97 211.27 179.396 214.24 179.396C215.78 179.396 216.902 180.188 217.518 181.42H217.562L219.212 170.904H221.192L218.178 190H216.198ZM225.409 188.592C227.565 188.592 229.017 186.876 229.347 184.852C229.655 182.85 228.731 181.156 226.597 181.156C224.551 181.156 223.055 182.938 222.747 184.852C222.439 186.788 223.319 188.592 225.409 188.592ZM232.031 179.704L230.403 190H228.423L228.687 188.394H228.643C227.653 189.56 226.289 190.352 224.815 190.352C221.669 190.352 220.305 187.734 220.789 184.786C221.229 181.97 223.495 179.396 226.487 179.396C228.005 179.396 229.127 180.188 229.743 181.42H229.787L230.051 179.704H232.031ZM236.577 179.704L236.357 181.09H236.401C237.193 179.99 238.513 179.396 239.767 179.396C242.671 179.396 243.111 181.354 242.715 183.862L241.747 190H239.767L240.691 184.104C240.977 182.344 240.933 181.156 238.909 181.156C236.357 181.156 236.005 183.4 235.697 185.27L234.949 190H232.969L234.597 179.704H236.577ZM253.615 180.078L253.219 182.63C252.581 181.728 251.679 181.244 250.491 181.244C248.555 181.244 246.795 182.96 246.487 184.852C246.157 186.964 247.389 188.504 249.479 188.504C250.623 188.504 251.635 187.976 252.515 187.14L252.097 189.67C251.129 190.154 250.183 190.352 249.149 190.352C246.113 190.352 244.001 188.02 244.485 184.94C244.991 181.75 247.829 179.396 250.997 179.396C251.921 179.396 252.911 179.616 253.615 180.078ZM263.75 185.182H255.896C255.632 186.942 256.556 188.592 258.448 188.592C259.966 188.592 260.912 187.822 261.858 186.59L263.376 187.536C262.122 189.318 260.142 190.352 258.14 190.352C254.994 190.352 253.476 187.976 253.938 184.94C254.444 181.772 256.512 179.396 259.834 179.396C263.112 179.396 264.278 181.816 263.794 184.874L263.75 185.182ZM256.226 183.686H261.99C262.012 182.146 261.154 181.112 259.57 181.112C258.03 181.112 256.71 182.212 256.226 183.686ZM277.159 179.396C280.239 179.396 282.285 181.772 281.801 184.874C281.317 187.976 278.501 190.352 275.421 190.352C272.341 190.352 270.317 187.976 270.801 184.874C271.285 181.772 274.079 179.396 277.159 179.396ZM276.873 181.288C274.915 181.288 273.089 182.916 272.781 184.874C272.473 186.81 273.771 188.46 275.729 188.46C277.687 188.46 279.513 186.81 279.821 184.874C280.129 182.916 278.831 181.288 276.873 181.288ZM286.4 179.704L286.18 181.09H286.224C287.016 179.99 288.336 179.396 289.59 179.396C292.494 179.396 292.934 181.354 292.538 183.862L291.57 190H289.59L290.514 184.104C290.8 182.344 290.756 181.156 288.732 181.156C286.18 181.156 285.828 183.4 285.52 185.27L284.772 190H282.792L284.42 179.704H286.4ZM302.078 179.704H304.058L303.156 185.402C302.892 187.052 303.09 188.504 305.048 188.504C307.006 188.504 307.644 187.052 307.908 185.402L308.81 179.704H310.79L309.866 185.622C309.404 188.438 307.776 190.352 304.74 190.352C301.704 190.352 300.692 188.438 301.154 185.622L302.078 179.704ZM315.404 179.704L315.184 181.09H315.228C316.02 179.99 317.34 179.396 318.594 179.396C321.498 179.396 321.938 181.354 321.542 183.862L320.574 190H318.594L319.518 184.104C319.804 182.344 319.76 181.156 317.736 181.156C315.184 181.156 314.832 183.4 314.524 185.27L313.776 190H311.796L313.424 179.704H315.404ZM327.975 188.592C330.131 188.592 331.583 186.876 331.913 184.852C332.221 182.85 331.297 181.156 329.163 181.156C327.117 181.156 325.621 182.938 325.313 184.852C325.005 186.788 325.885 188.592 327.975 188.592ZM330.989 190L331.253 188.394H331.209C330.219 189.56 328.833 190.352 327.381 190.352C324.213 190.352 322.871 187.734 323.355 184.786C323.795 181.97 326.061 179.396 329.031 179.396C330.571 179.396 331.693 180.188 332.309 181.42H332.353L334.003 170.904H335.983L332.969 190H330.989ZM345.348 185.182H337.494C337.23 186.942 338.154 188.592 340.046 188.592C341.564 188.592 342.51 187.822 343.456 186.59L344.974 187.536C343.72 189.318 341.74 190.352 339.738 190.352C336.592 190.352 335.074 187.976 335.536 184.94C336.042 181.772 338.11 179.396 341.432 179.396C344.71 179.396 345.876 181.816 345.392 184.874L345.348 185.182ZM337.824 183.686H343.588C343.61 182.146 342.752 181.112 341.168 181.112C339.628 181.112 338.308 182.212 337.824 183.686ZM350.018 179.704L349.754 181.376H349.82C350.502 180.166 351.624 179.396 352.944 179.396C353.516 179.396 354.066 179.594 354.506 179.902L353.318 181.706C353.01 181.398 352.636 181.288 352.174 181.288C350.04 181.288 349.446 183.268 349.182 184.94L348.39 190H346.41L348.038 179.704H350.018ZM361.119 181.2L359.381 182.058C359.227 181.552 358.787 181.156 358.215 181.156C357.665 181.156 357.071 181.596 356.961 182.168C356.829 183.07 357.951 183.466 359.073 184.016C360.195 184.566 361.251 185.314 360.987 186.942C360.679 188.9 358.809 190.352 356.895 190.352C355.399 190.352 354.035 189.494 353.705 188.042L355.531 187.272C355.817 188.042 356.235 188.592 357.181 188.592C358.017 188.592 358.831 188.02 358.985 187.14C359.073 186.59 358.831 186.326 358.435 186.018L356.653 184.984C355.619 184.368 354.871 183.796 355.091 182.388C355.355 180.716 356.917 179.396 358.589 179.396C359.843 179.396 360.745 180.078 361.119 181.2ZM366.042 181.552L364.7 190H362.72L364.062 181.552H362.984L363.27 179.704H364.348L364.964 175.766H366.944L366.328 179.704H368.264L367.978 181.552H366.042ZM372.383 188.592C374.539 188.592 375.991 186.876 376.321 184.852C376.629 182.85 375.705 181.156 373.571 181.156C371.525 181.156 370.029 182.938 369.721 184.852C369.413 186.788 370.293 188.592 372.383 188.592ZM379.005 179.704L377.377 190H375.397L375.661 188.394H375.617C374.627 189.56 373.263 190.352 371.789 190.352C368.643 190.352 367.279 187.734 367.763 184.786C368.203 181.97 370.469 179.396 373.461 179.396C374.979 179.396 376.101 180.188 376.717 181.42H376.761L377.025 179.704H379.005ZM383.552 179.704L383.332 181.09H383.376C384.168 179.99 385.488 179.396 386.742 179.396C389.646 179.396 390.086 181.354 389.69 183.862L388.722 190H386.742L387.666 184.104C387.952 182.344 387.908 181.156 385.884 181.156C383.332 181.156 382.98 183.4 382.672 185.27L381.924 190H379.944L381.572 179.704H383.552ZM396.124 188.592C398.28 188.592 399.732 186.876 400.062 184.852C400.37 182.85 399.446 181.156 397.312 181.156C395.266 181.156 393.77 182.938 393.462 184.852C393.154 186.788 394.034 188.592 396.124 188.592ZM399.138 190L399.402 188.394H399.358C398.368 189.56 396.982 190.352 395.53 190.352C392.362 190.352 391.02 187.734 391.504 184.786C391.944 181.97 394.21 179.396 397.18 179.396C398.72 179.396 399.842 180.188 400.458 181.42H400.502L402.152 170.904H404.132L401.118 190H399.138ZM407.754 179.704L406.126 190H404.146L405.774 179.704H407.754ZM407.732 173.61C408.48 173.61 409.008 174.226 408.876 174.996C408.766 175.744 408.04 176.338 407.292 176.338C406.544 176.338 406.038 175.744 406.148 174.996C406.28 174.226 406.984 173.61 407.732 173.61ZM412.9 179.704L412.68 181.09H412.724C413.516 179.99 414.836 179.396 416.09 179.396C418.994 179.396 419.434 181.354 419.038 183.862L418.07 190H416.09L417.014 184.104C417.3 182.344 417.256 181.156 415.232 181.156C412.68 181.156 412.328 183.4 412.02 185.27L411.272 190H409.292L410.92 179.704H412.9ZM425.449 188.592C427.605 188.592 429.057 186.876 429.387 184.852C429.695 182.85 428.771 181.156 426.637 181.156C424.591 181.156 423.095 182.938 422.787 184.852C422.479 186.788 423.359 188.592 425.449 188.592ZM432.071 179.704L430.465 189.802C429.915 193.344 428.507 195.896 424.503 195.896C421.643 195.896 419.839 194.136 420.257 191.232H422.237C421.951 193.08 423.051 194.136 424.855 194.136C427.297 194.136 428.067 192.464 428.397 190.352L428.727 188.394H428.683C427.693 189.56 426.307 190.352 424.855 190.352C421.687 190.352 420.345 187.734 420.829 184.786C421.269 181.97 423.535 179.396 426.505 179.396C428.045 179.396 429.167 180.188 429.761 181.464H429.805L430.091 179.704H432.071ZM444.034 188.592C446.19 188.592 447.642 186.876 447.972 184.852C448.28 182.85 447.356 181.156 445.222 181.156C443.176 181.156 441.68 182.938 441.372 184.852C441.064 186.788 441.944 188.592 444.034 188.592ZM450.656 179.704L449.028 190H447.048L447.312 188.394H447.268C446.278 189.56 444.914 190.352 443.44 190.352C440.294 190.352 438.93 187.734 439.414 184.786C439.854 181.97 442.12 179.396 445.112 179.396C446.63 179.396 447.752 180.188 448.368 181.42H448.412L448.676 179.704H450.656ZM455.202 179.704L454.982 181.09H455.026C455.818 179.99 457.138 179.396 458.392 179.396C461.296 179.396 461.736 181.354 461.34 183.862L460.372 190H458.392L459.316 184.104C459.602 182.344 459.558 181.156 457.534 181.156C454.982 181.156 454.63 183.4 454.322 185.27L453.574 190H451.594L453.222 179.704H455.202ZM467.774 188.592C469.93 188.592 471.382 186.876 471.712 184.852C472.02 182.85 471.096 181.156 468.962 181.156C466.916 181.156 465.42 182.938 465.112 184.852C464.804 186.788 465.684 188.592 467.774 188.592ZM470.788 190L471.052 188.394H471.008C470.018 189.56 468.632 190.352 467.18 190.352C464.012 190.352 462.67 187.734 463.154 184.786C463.594 181.97 465.86 179.396 468.83 179.396C470.37 179.396 471.492 180.188 472.108 181.42H472.152L473.802 170.904H475.782L472.768 190H470.788ZM107.972 205.704L107.752 207.09H107.796C108.588 205.99 109.908 205.396 111.162 205.396C114.066 205.396 114.506 207.354 114.11 209.862L113.142 216H111.162L112.086 210.104C112.372 208.344 112.328 207.156 110.304 207.156C107.752 207.156 107.4 209.4 107.092 211.27L106.344 216H104.364L105.992 205.704H107.972ZM125.692 211.182H117.838C117.574 212.942 118.498 214.592 120.39 214.592C121.908 214.592 122.854 213.822 123.8 212.59L125.318 213.536C124.064 215.318 122.084 216.352 120.082 216.352C116.936 216.352 115.418 213.976 115.88 210.94C116.386 207.772 118.454 205.396 121.776 205.396C125.054 205.396 126.22 207.816 125.736 210.874L125.692 211.182ZM118.168 209.686H123.932C123.954 208.146 123.096 207.112 121.512 207.112C119.972 207.112 118.652 208.212 118.168 209.686ZM131.264 214.592C133.42 214.592 134.872 212.876 135.202 210.852C135.51 208.85 134.586 207.156 132.452 207.156C130.406 207.156 128.91 208.938 128.602 210.852C128.294 212.788 129.174 214.592 131.264 214.592ZM137.886 205.704L136.28 215.802C135.73 219.344 134.322 221.896 130.318 221.896C127.458 221.896 125.654 220.136 126.072 217.232H128.052C127.766 219.08 128.866 220.136 130.67 220.136C133.112 220.136 133.882 218.464 134.212 216.352L134.542 214.394H134.498C133.508 215.56 132.122 216.352 130.67 216.352C127.502 216.352 126.16 213.734 126.644 210.786C127.084 207.97 129.35 205.396 132.32 205.396C133.86 205.396 134.982 206.188 135.576 207.464H135.62L135.906 205.704H137.886ZM145.073 205.396C148.153 205.396 150.199 207.772 149.715 210.874C149.231 213.976 146.415 216.352 143.335 216.352C140.255 216.352 138.231 213.976 138.715 210.874C139.199 207.772 141.993 205.396 145.073 205.396ZM144.787 207.288C142.829 207.288 141.003 208.916 140.695 210.874C140.387 212.81 141.685 214.46 143.643 214.46C145.601 214.46 147.427 212.81 147.735 210.874C148.043 208.916 146.745 207.288 144.787 207.288ZM154.314 207.552L152.972 216H150.992L152.334 207.552H151.256L151.542 205.704H152.62L153.236 201.766H155.216L154.6 205.704H156.536L156.25 207.552H154.314ZM160.06 205.704L158.432 216H156.452L158.08 205.704H160.06ZM160.038 199.61C160.786 199.61 161.314 200.226 161.182 200.996C161.072 201.744 160.346 202.338 159.598 202.338C158.85 202.338 158.344 201.744 158.454 200.996C158.586 200.226 159.29 199.61 160.038 199.61ZM166.262 214.592C168.418 214.592 169.87 212.876 170.2 210.852C170.508 208.85 169.584 207.156 167.45 207.156C165.404 207.156 163.908 208.938 163.6 210.852C163.292 212.788 164.172 214.592 166.262 214.592ZM172.884 205.704L171.256 216H169.276L169.54 214.394H169.496C168.506 215.56 167.142 216.352 165.668 216.352C162.522 216.352 161.158 213.734 161.642 210.786C162.082 207.97 164.348 205.396 167.34 205.396C168.858 205.396 169.98 206.188 170.596 207.42H170.64L170.904 205.704H172.884ZM177.431 207.552L176.089 216H174.109L175.451 207.552H174.373L174.659 205.704H175.737L176.353 201.766H178.333L177.717 205.704H179.653L179.367 207.552H177.431ZM183.178 205.704L181.55 216H179.57L181.198 205.704H183.178ZM183.156 199.61C183.904 199.61 184.432 200.226 184.3 200.996C184.19 201.744 183.464 202.338 182.716 202.338C181.968 202.338 181.462 201.744 181.572 200.996C181.704 200.226 182.408 199.61 183.156 199.61ZM188.324 205.704L188.104 207.09H188.148C188.94 205.99 190.26 205.396 191.514 205.396C194.418 205.396 194.858 207.354 194.462 209.862L193.494 216H191.514L192.438 210.104C192.724 208.344 192.68 207.156 190.656 207.156C188.104 207.156 187.752 209.4 187.444 211.27L186.696 216H184.716L186.344 205.704H188.324ZM200.873 214.592C203.029 214.592 204.481 212.876 204.811 210.852C205.119 208.85 204.195 207.156 202.061 207.156C200.015 207.156 198.519 208.938 198.211 210.852C197.903 212.788 198.783 214.592 200.873 214.592ZM207.495 205.704L205.889 215.802C205.339 219.344 203.931 221.896 199.927 221.896C197.067 221.896 195.263 220.136 195.681 217.232H197.661C197.375 219.08 198.475 220.136 200.279 220.136C202.721 220.136 203.491 218.464 203.821 216.352L204.151 214.394H204.107C203.117 215.56 201.731 216.352 200.279 216.352C197.111 216.352 195.769 213.734 196.253 210.786C196.693 207.97 198.959 205.396 201.929 205.396C203.469 205.396 204.591 206.188 205.185 207.464H205.229L205.515 205.704H207.495ZM224.477 211.182H216.623C216.359 212.942 217.283 214.592 219.175 214.592C220.693 214.592 221.639 213.822 222.585 212.59L224.103 213.536C222.849 215.318 220.869 216.352 218.867 216.352C215.721 216.352 214.203 213.976 214.665 210.94C215.171 207.772 217.239 205.396 220.561 205.396C223.839 205.396 225.005 207.816 224.521 210.874L224.477 211.182ZM216.953 209.686H222.717C222.739 208.146 221.881 207.112 220.297 207.112C218.757 207.112 217.437 208.212 216.953 209.686ZM228.949 205.704L228.751 207.002H228.795C229.499 206.1 230.643 205.396 231.765 205.396C233.107 205.396 233.965 206.078 234.449 207.222C235.263 206.122 236.605 205.396 237.903 205.396C240.609 205.396 240.983 207.508 240.609 209.84L239.641 216H237.661L238.585 210.17C238.783 208.85 238.893 207.156 237.155 207.156C235.043 207.156 234.537 209.356 234.273 210.94L233.481 216H231.501L232.359 210.544C232.579 209.202 232.843 207.156 231.017 207.156C228.905 207.156 228.377 209.334 228.113 210.94L227.321 216H225.341L226.969 205.704H228.949ZM247.464 214.592C249.62 214.592 251.072 212.876 251.402 210.852C251.71 208.85 250.786 207.156 248.652 207.156C246.606 207.156 245.11 208.938 244.802 210.852C244.494 212.788 245.374 214.592 247.464 214.592ZM245.726 205.704L245.462 207.42H245.506C246.518 206.188 247.86 205.396 249.4 205.396C252.37 205.396 253.844 207.97 253.404 210.786C252.92 213.734 250.742 216.352 247.574 216.352C246.122 216.352 245 215.56 244.406 214.394H244.362L243.174 221.896H241.194L243.746 205.704H245.726ZM259.579 196.904L256.565 216H254.585L257.599 196.904H259.579ZM265.622 205.396C268.702 205.396 270.748 207.772 270.264 210.874C269.78 213.976 266.964 216.352 263.884 216.352C260.804 216.352 258.78 213.976 259.264 210.874C259.748 207.772 262.542 205.396 265.622 205.396ZM265.336 207.288C263.378 207.288 261.552 208.916 261.244 210.874C260.936 212.81 262.234 214.46 264.192 214.46C266.15 214.46 267.976 212.81 268.284 210.874C268.592 208.916 267.294 207.288 265.336 207.288ZM274.599 214.24L271.233 205.704H273.543L275.985 212.238L280.253 205.704H282.475L271.585 221.896H269.341L274.599 214.24ZM285.453 205.704L285.255 207.002H285.299C286.003 206.1 287.147 205.396 288.269 205.396C289.611 205.396 290.469 206.078 290.953 207.222C291.767 206.122 293.109 205.396 294.407 205.396C297.113 205.396 297.487 207.508 297.113 209.84L296.145 216H294.165L295.089 210.17C295.287 208.85 295.397 207.156 293.659 207.156C291.547 207.156 291.041 209.356 290.777 210.94L289.985 216H288.005L288.863 210.544C289.083 209.202 289.347 207.156 287.521 207.156C285.409 207.156 284.881 209.334 284.617 210.94L283.825 216H281.845L283.473 205.704H285.453ZM308.588 211.182H300.734C300.47 212.942 301.394 214.592 303.286 214.592C304.804 214.592 305.75 213.822 306.696 212.59L308.214 213.536C306.96 215.318 304.98 216.352 302.978 216.352C299.832 216.352 298.314 213.976 298.776 210.94C299.282 207.772 301.35 205.396 304.672 205.396C307.95 205.396 309.116 207.816 308.632 210.874L308.588 211.182ZM301.064 209.686H306.828C306.85 208.146 305.992 207.112 304.408 207.112C302.868 207.112 301.548 208.212 301.064 209.686ZM313.126 205.704L312.906 207.09H312.95C313.742 205.99 315.062 205.396 316.316 205.396C319.22 205.396 319.66 207.354 319.264 209.862L318.296 216H316.316L317.24 210.104C317.526 208.344 317.482 207.156 315.458 207.156C312.906 207.156 312.554 209.4 312.246 211.27L311.498 216H309.518L311.146 205.704H313.126ZM324.642 207.552L323.3 216H321.32L322.662 207.552H321.584L321.87 205.704H322.948L323.564 201.766H325.544L324.928 205.704H326.864L326.578 207.552H324.642ZM337.87 214.592C340.026 214.592 341.478 212.876 341.808 210.852C342.116 208.85 341.192 207.156 339.058 207.156C337.012 207.156 335.516 208.938 335.208 210.852C334.9 212.788 335.78 214.592 337.87 214.592ZM332.524 216L335.538 196.904H337.518L335.868 207.42H335.912C336.924 206.188 338.266 205.396 339.806 205.396C342.776 205.396 344.25 207.97 343.81 210.786C343.326 213.734 341.148 216.352 337.98 216.352C336.528 216.352 335.406 215.56 334.812 214.394H334.768L334.504 216H332.524ZM354.715 211.182H346.861C346.597 212.942 347.521 214.592 349.413 214.592C350.931 214.592 351.877 213.822 352.823 212.59L354.341 213.536C353.087 215.318 351.107 216.352 349.105 216.352C345.959 216.352 344.441 213.976 344.903 210.94C345.409 207.772 347.477 205.396 350.799 205.396C354.077 205.396 355.243 207.816 354.759 210.874L354.715 211.182ZM347.191 209.686H352.955C352.977 208.146 352.119 207.112 350.535 207.112C348.995 207.112 347.675 208.212 347.191 209.686ZM359.253 205.704L359.033 207.09H359.077C359.869 205.99 361.189 205.396 362.443 205.396C365.347 205.396 365.787 207.354 365.391 209.862L364.423 216H362.443L363.367 210.104C363.653 208.344 363.609 207.156 361.585 207.156C359.033 207.156 358.681 209.4 358.373 211.27L357.625 216H355.645L357.273 205.704H359.253ZM376.973 211.182H369.119C368.855 212.942 369.779 214.592 371.671 214.592C373.189 214.592 374.135 213.822 375.081 212.59L376.599 213.536C375.345 215.318 373.365 216.352 371.363 216.352C368.217 216.352 366.699 213.976 367.161 210.94C367.667 207.772 369.735 205.396 373.057 205.396C376.335 205.396 377.501 207.816 377.017 210.874L376.973 211.182ZM369.449 209.686H375.213C375.235 208.146 374.377 207.112 372.793 207.112C371.253 207.112 369.933 208.212 369.449 209.686ZM387.627 205.704L385.999 216H384.019L385.647 205.704H387.627ZM387.605 199.61C388.353 199.61 388.881 200.226 388.749 200.996C388.639 201.744 387.913 202.338 387.165 202.338C386.417 202.338 385.911 201.744 386.021 200.996C386.153 200.226 386.857 199.61 387.605 199.61ZM386.021 196.904L385.713 198.906C385.339 198.73 384.877 198.488 384.459 198.488C383.051 198.488 382.765 200.27 382.611 201.282L381.907 205.704H384.635L384.349 207.552H381.621L380.279 216H378.299L379.641 207.552H378.739L379.025 205.704H379.927L380.719 200.688C381.071 198.444 382.127 196.64 384.679 196.64C385.163 196.64 385.625 196.728 386.021 196.904ZM392.769 207.552L391.427 216H389.447L390.789 207.552H389.711L389.997 205.704H391.075L391.691 201.766H393.671L393.055 205.704H394.991L394.705 207.552H392.769ZM401.574 207.2L399.836 208.058C399.682 207.552 399.242 207.156 398.67 207.156C398.12 207.156 397.526 207.596 397.416 208.168C397.284 209.07 398.406 209.466 399.528 210.016C400.65 210.566 401.706 211.314 401.442 212.942C401.134 214.9 399.264 216.352 397.35 216.352C395.854 216.352 394.49 215.494 394.16 214.042L395.986 213.272C396.272 214.042 396.69 214.592 397.636 214.592C398.472 214.592 399.286 214.02 399.44 213.14C399.528 212.59 399.286 212.326 398.89 212.018L397.108 210.984C396.074 210.368 395.326 209.796 395.546 208.388C395.81 206.716 397.372 205.396 399.044 205.396C400.298 205.396 401.2 206.078 401.574 207.2ZM405.551 213.382L407.157 214.064L403.307 219.938L402.163 219.432L405.551 213.382ZM419.656 205.704L418.028 216H416.048L417.676 205.704H419.656ZM419.634 199.61C420.382 199.61 420.91 200.226 420.778 200.996C420.668 201.744 419.942 202.338 419.194 202.338C418.446 202.338 417.94 201.744 418.05 200.996C418.182 200.226 418.886 199.61 419.634 199.61ZM424.802 205.704L424.582 207.09H424.626C425.418 205.99 426.738 205.396 427.992 205.396C430.896 205.396 431.336 207.354 430.94 209.862L429.972 216H427.992L428.916 210.104C429.202 208.344 429.158 207.156 427.134 207.156C424.582 207.156 424.23 209.4 423.922 211.27L423.174 216H421.194L422.822 205.704H424.802ZM441.84 206.078L441.444 208.63C440.806 207.728 439.904 207.244 438.716 207.244C436.78 207.244 435.02 208.96 434.712 210.852C434.382 212.964 435.614 214.504 437.704 214.504C438.848 214.504 439.86 213.976 440.74 213.14L440.322 215.67C439.354 216.154 438.408 216.352 437.374 216.352C434.338 216.352 432.226 214.02 432.71 210.94C433.216 207.75 436.054 205.396 439.222 205.396C440.146 205.396 441.136 205.616 441.84 206.078ZM447.503 196.904L444.489 216H442.509L445.523 196.904H447.503ZM448.838 205.704H450.818L449.916 211.402C449.652 213.052 449.85 214.504 451.808 214.504C453.766 214.504 454.404 213.052 454.668 211.402L455.57 205.704H457.55L456.626 211.622C456.164 214.438 454.536 216.352 451.5 216.352C448.464 216.352 447.452 214.438 447.914 211.622L448.838 205.704ZM463.219 214.592C465.375 214.592 466.827 212.876 467.157 210.852C467.465 208.85 466.541 207.156 464.407 207.156C462.361 207.156 460.865 208.938 460.557 210.852C460.249 212.788 461.129 214.592 463.219 214.592ZM466.233 216L466.497 214.394H466.453C465.463 215.56 464.077 216.352 462.625 216.352C459.457 216.352 458.115 213.734 458.599 210.786C459.039 207.97 461.305 205.396 464.275 205.396C465.815 205.396 466.937 206.188 467.553 207.42H467.597L469.247 196.904H471.227L468.213 216H466.233ZM474.85 205.704L473.222 216H471.242L472.87 205.704H474.85ZM474.828 199.61C475.576 199.61 476.104 200.226 475.972 200.996C475.862 201.744 475.136 202.338 474.388 202.338C473.64 202.338 473.134 201.744 473.244 200.996C473.376 200.226 474.08 199.61 474.828 199.61ZM479.995 205.704L479.775 207.09H479.819C480.611 205.99 481.931 205.396 483.185 205.396C486.089 205.396 486.529 207.354 486.133 209.862L485.165 216H483.185L484.109 210.104C484.395 208.344 484.351 207.156 482.327 207.156C479.775 207.156 479.423 209.4 479.115 211.27L478.367 216H476.387L478.015 205.704H479.995ZM492.545 214.592C494.701 214.592 496.153 212.876 496.483 210.852C496.791 208.85 495.867 207.156 493.733 207.156C491.687 207.156 490.191 208.938 489.883 210.852C489.575 212.788 490.455 214.592 492.545 214.592ZM499.167 205.704L497.561 215.802C497.011 219.344 495.603 221.896 491.599 221.896C488.739 221.896 486.935 220.136 487.353 217.232H489.333C489.047 219.08 490.147 220.136 491.951 220.136C494.393 220.136 495.163 218.464 495.493 216.352L495.823 214.394H495.779C494.789 215.56 493.403 216.352 491.951 216.352C488.783 216.352 487.441 213.734 487.925 210.786C488.365 207.97 490.631 205.396 493.601 205.396C495.141 205.396 496.263 206.188 496.857 207.464H496.901L497.187 205.704H499.167ZM107.378 222.904H109.358L107.752 233.09H107.796C108.588 231.99 109.908 231.396 111.162 231.396C114.066 231.396 114.506 233.354 114.11 235.862L113.142 242H111.162L112.086 236.104C112.372 234.344 112.328 233.156 110.304 233.156C107.752 233.156 107.4 235.4 107.092 237.27L106.344 242H104.364L107.378 222.904ZM125.692 237.182H117.838C117.574 238.942 118.498 240.592 120.39 240.592C121.908 240.592 122.854 239.822 123.8 238.59L125.318 239.536C124.064 241.318 122.084 242.352 120.082 242.352C116.936 242.352 115.418 239.976 115.88 236.94C116.386 233.772 118.454 231.396 121.776 231.396C125.054 231.396 126.22 233.816 125.736 236.874L125.692 237.182ZM118.168 235.686H123.932C123.954 234.146 123.096 233.112 121.512 233.112C119.972 233.112 118.652 234.212 118.168 235.686ZM131.286 240.592C133.442 240.592 134.894 238.876 135.224 236.852C135.532 234.85 134.608 233.156 132.474 233.156C130.428 233.156 128.932 234.938 128.624 236.852C128.316 238.788 129.196 240.592 131.286 240.592ZM137.908 231.704L136.28 242H134.3L134.564 240.394H134.52C133.53 241.56 132.166 242.352 130.692 242.352C127.546 242.352 126.182 239.734 126.666 236.786C127.106 233.97 129.372 231.396 132.364 231.396C133.882 231.396 135.004 232.188 135.62 233.42H135.664L135.928 231.704H137.908ZM143.928 222.904L140.914 242H138.934L141.948 222.904H143.928ZM147.353 233.552L146.011 242H144.031L145.373 233.552H144.295L144.581 231.704H145.659L146.275 227.766H148.255L147.639 231.704H149.575L149.289 233.552H147.353ZM152.066 222.904H154.046L152.44 233.09H152.484C153.276 231.99 154.596 231.396 155.85 231.396C158.754 231.396 159.194 233.354 158.797 235.862L157.83 242H155.85L156.774 236.104C157.06 234.344 157.016 233.156 154.992 233.156C152.44 233.156 152.088 235.4 151.78 237.27L151.032 242H149.052L152.066 222.904ZM170.975 231.704L169.347 242H167.367L168.995 231.704H170.975ZM170.953 225.61C171.701 225.61 172.229 226.226 172.097 226.996C171.987 227.744 171.261 228.338 170.513 228.338C169.765 228.338 169.259 227.744 169.369 226.996C169.501 226.226 170.205 225.61 170.953 225.61ZM176.12 231.704L175.9 233.09H175.944C176.736 231.99 178.056 231.396 179.31 231.396C182.214 231.396 182.654 233.354 182.258 235.862L181.29 242H179.31L180.234 236.104C180.52 234.344 180.476 233.156 178.452 233.156C175.9 233.156 175.548 235.4 175.24 237.27L174.492 242H172.512L174.14 231.704H176.12ZM191.156 233.2L189.418 234.058C189.264 233.552 188.824 233.156 188.252 233.156C187.702 233.156 187.108 233.596 186.998 234.168C186.866 235.07 187.988 235.466 189.11 236.016C190.232 236.566 191.288 237.314 191.024 238.942C190.716 240.9 188.846 242.352 186.932 242.352C185.436 242.352 184.072 241.494 183.742 240.042L185.568 239.272C185.854 240.042 186.272 240.592 187.218 240.592C188.054 240.592 188.868 240.02 189.022 239.14C189.11 238.59 188.868 238.326 188.472 238.018L186.69 236.984C185.656 236.368 184.908 235.796 185.128 234.388C185.392 232.716 186.954 231.396 188.626 231.396C189.88 231.396 190.782 232.078 191.156 233.2ZM194.011 231.704H195.991L195.089 237.402C194.825 239.052 195.023 240.504 196.981 240.504C198.939 240.504 199.577 239.052 199.841 237.402L200.743 231.704H202.723L201.799 237.622C201.337 240.438 199.709 242.352 196.673 242.352C193.637 242.352 192.625 240.438 193.087 237.622L194.011 231.704ZM207.469 231.704L207.205 233.376H207.271C207.953 232.166 209.075 231.396 210.395 231.396C210.967 231.396 211.517 231.594 211.957 231.902L210.769 233.706C210.461 233.398 210.087 233.288 209.625 233.288C207.491 233.288 206.897 235.268 206.633 236.94L205.841 242H203.861L205.489 231.704H207.469ZM215.848 240.592C218.004 240.592 219.456 238.876 219.786 236.852C220.094 234.85 219.17 233.156 217.036 233.156C214.99 233.156 213.494 234.938 213.186 236.852C212.878 238.788 213.758 240.592 215.848 240.592ZM222.47 231.704L220.842 242H218.862L219.126 240.394H219.082C218.092 241.56 216.728 242.352 215.254 242.352C212.108 242.352 210.744 239.734 211.228 236.786C211.668 233.97 213.934 231.396 216.926 231.396C218.444 231.396 219.566 232.188 220.182 233.42H220.226L220.49 231.704H222.47ZM227.017 231.704L226.797 233.09H226.841C227.633 231.99 228.953 231.396 230.207 231.396C233.111 231.396 233.551 233.354 233.155 235.862L232.187 242H230.207L231.131 236.104C231.417 234.344 231.373 233.156 229.349 233.156C226.797 233.156 226.445 235.4 226.137 237.27L225.389 242H223.409L225.037 231.704H227.017ZM244.055 232.078L243.659 234.63C243.021 233.728 242.119 233.244 240.931 233.244C238.995 233.244 237.235 234.96 236.927 236.852C236.597 238.964 237.829 240.504 239.919 240.504C241.063 240.504 242.075 239.976 242.955 239.14L242.537 241.67C241.569 242.154 240.623 242.352 239.589 242.352C236.553 242.352 234.441 240.02 234.925 236.94C235.431 233.75 238.269 231.396 241.437 231.396C242.361 231.396 243.351 231.616 244.055 232.078ZM254.19 237.182H246.336C246.072 238.942 246.996 240.592 248.888 240.592C250.406 240.592 251.352 239.822 252.298 238.59L253.816 239.536C252.562 241.318 250.582 242.352 248.58 242.352C245.434 242.352 243.916 239.976 244.378 236.94C244.884 233.772 246.952 231.396 250.274 231.396C253.552 231.396 254.718 233.816 254.234 236.874L254.19 237.182ZM246.666 235.686H252.43C252.452 234.146 251.594 233.112 250.01 233.112C248.47 233.112 247.15 234.212 246.666 235.686ZM257.782 239.382L259.388 240.064L255.538 245.938L254.394 245.432L257.782 239.382ZM271.579 231.704L271.315 233.376H271.381C272.063 232.166 273.185 231.396 274.505 231.396C275.077 231.396 275.627 231.594 276.067 231.902L274.879 233.706C274.571 233.398 274.197 233.288 273.735 233.288C271.601 233.288 271.007 235.268 270.743 236.94L269.951 242H267.971L269.599 231.704H271.579ZM284.977 237.182H277.123C276.859 238.942 277.783 240.592 279.675 240.592C281.193 240.592 282.139 239.822 283.085 238.59L284.603 239.536C283.349 241.318 281.369 242.352 279.367 242.352C276.221 242.352 274.703 239.976 275.165 236.94C275.671 233.772 277.739 231.396 281.061 231.396C284.339 231.396 285.505 233.816 285.021 236.874L284.977 237.182ZM277.453 235.686H283.217C283.239 234.146 282.381 233.112 280.797 233.112C279.257 233.112 277.937 234.212 277.453 235.686ZM289.515 233.552L288.173 242H286.193L287.535 233.552H286.457L286.743 231.704H287.821L288.437 227.766H290.417L289.801 231.704H291.737L291.451 233.552H289.515ZM295.262 231.704L293.634 242H291.654L293.282 231.704H295.262ZM295.24 225.61C295.988 225.61 296.516 226.226 296.384 226.996C296.274 227.744 295.548 228.338 294.8 228.338C294.052 228.338 293.546 227.744 293.656 226.996C293.788 226.226 294.492 225.61 295.24 225.61ZM300.54 231.704L300.276 233.376H300.342C301.024 232.166 302.146 231.396 303.466 231.396C304.038 231.396 304.588 231.594 305.028 231.902L303.84 233.706C303.532 233.398 303.158 233.288 302.696 233.288C300.562 233.288 299.968 235.268 299.704 236.94L298.912 242H296.932L298.56 231.704H300.54ZM313.938 237.182H306.084C305.82 238.942 306.744 240.592 308.636 240.592C310.154 240.592 311.1 239.822 312.046 238.59L313.564 239.536C312.31 241.318 310.33 242.352 308.328 242.352C305.182 242.352 303.664 239.976 304.126 236.94C304.632 233.772 306.7 231.396 310.022 231.396C313.3 231.396 314.466 233.816 313.982 236.874L313.938 237.182ZM306.414 235.686H312.178C312.2 234.146 311.342 233.112 309.758 233.112C308.218 233.112 306.898 234.212 306.414 235.686ZM318.41 231.704L318.212 233.002H318.256C318.96 232.1 320.104 231.396 321.226 231.396C322.568 231.396 323.426 232.078 323.91 233.222C324.724 232.122 326.066 231.396 327.364 231.396C330.07 231.396 330.444 233.508 330.07 235.84L329.102 242H327.122L328.046 236.17C328.244 234.85 328.354 233.156 326.616 233.156C324.504 233.156 323.998 235.356 323.734 236.94L322.942 242H320.962L321.82 236.544C322.04 235.202 322.304 233.156 320.478 233.156C318.366 233.156 317.838 235.334 317.574 236.94L316.782 242H314.802L316.43 231.704H318.41ZM341.545 237.182H333.691C333.427 238.942 334.351 240.592 336.243 240.592C337.761 240.592 338.707 239.822 339.653 238.59L341.171 239.536C339.917 241.318 337.937 242.352 335.935 242.352C332.789 242.352 331.271 239.976 331.733 236.94C332.239 233.772 334.307 231.396 337.629 231.396C340.907 231.396 342.073 233.816 341.589 236.874L341.545 237.182ZM334.021 235.686H339.785C339.807 234.146 338.949 233.112 337.365 233.112C335.825 233.112 334.505 234.212 334.021 235.686ZM346.083 231.704L345.863 233.09H345.907C346.699 231.99 348.019 231.396 349.273 231.396C352.177 231.396 352.617 233.354 352.221 235.862L351.253 242H349.273L350.197 236.104C350.483 234.344 350.439 233.156 348.415 233.156C345.863 233.156 345.511 235.4 345.203 237.27L344.455 242H342.475L344.103 231.704H346.083ZM357.599 233.552L356.257 242H354.277L355.619 233.552H354.541L354.827 231.704H355.905L356.521 227.766H358.501L357.885 231.704H359.821L359.535 233.552H357.599ZM370.827 240.592C372.983 240.592 374.435 238.876 374.765 236.852C375.073 234.85 374.149 233.156 372.015 233.156C369.969 233.156 368.473 234.938 368.165 236.852C367.857 238.788 368.737 240.592 370.827 240.592ZM369.089 231.704L368.825 233.42H368.869C369.881 232.188 371.223 231.396 372.763 231.396C375.733 231.396 377.207 233.97 376.767 236.786C376.283 239.734 374.105 242.352 370.937 242.352C369.485 242.352 368.363 241.56 367.769 240.394H367.725L366.537 247.896H364.557L367.109 231.704H369.089ZM382.942 222.904L379.928 242H377.948L380.962 222.904H382.942ZM387.401 240.592C389.557 240.592 391.009 238.876 391.339 236.852C391.647 234.85 390.723 233.156 388.589 233.156C386.543 233.156 385.047 234.938 384.739 236.852C384.431 238.788 385.311 240.592 387.401 240.592ZM394.023 231.704L392.395 242H390.415L390.679 240.394H390.635C389.645 241.56 388.281 242.352 386.807 242.352C383.661 242.352 382.297 239.734 382.781 236.786C383.221 233.97 385.487 231.396 388.479 231.396C389.997 231.396 391.119 232.188 391.735 233.42H391.779L392.043 231.704H394.023ZM398.57 231.704L398.35 233.09H398.394C399.186 231.99 400.506 231.396 401.76 231.396C404.664 231.396 405.104 233.354 404.708 235.862L403.74 242H401.76L402.684 236.104C402.97 234.344 402.926 233.156 400.902 233.156C398.35 233.156 397.998 235.4 397.69 237.27L396.942 242H394.962L396.59 231.704H398.57ZM413.605 233.2L411.867 234.058C411.713 233.552 411.273 233.156 410.701 233.156C410.151 233.156 409.557 233.596 409.447 234.168C409.315 235.07 410.437 235.466 411.559 236.016C412.681 236.566 413.737 237.314 413.473 238.942C413.165 240.9 411.295 242.352 409.381 242.352C407.885 242.352 406.521 241.494 406.191 240.042L408.017 239.272C408.303 240.042 408.721 240.592 409.667 240.592C410.503 240.592 411.317 240.02 411.471 239.14C411.559 238.59 411.317 238.326 410.921 238.018L409.139 236.984C408.105 236.368 407.357 235.796 407.577 234.388C407.841 232.716 409.403 231.396 411.075 231.396C412.329 231.396 413.231 232.078 413.605 233.2ZM417.583 239.382L419.189 240.064L415.339 245.938L414.195 245.432L417.583 239.382ZM432.303 240.592C434.459 240.592 435.911 238.876 436.241 236.852C436.549 234.85 435.625 233.156 433.491 233.156C431.445 233.156 429.949 234.938 429.641 236.852C429.333 238.788 430.213 240.592 432.303 240.592ZM438.925 231.704L437.297 242H435.317L435.581 240.394H435.537C434.547 241.56 433.183 242.352 431.709 242.352C428.563 242.352 427.199 239.734 427.683 236.786C428.123 233.97 430.389 231.396 433.381 231.396C434.899 231.396 436.021 232.188 436.637 233.42H436.681L436.945 231.704H438.925ZM443.472 231.704L443.252 233.09H443.296C444.088 231.99 445.408 231.396 446.662 231.396C449.566 231.396 450.006 233.354 449.61 235.862L448.642 242H446.662L447.586 236.104C447.872 234.344 447.828 233.156 445.804 233.156C443.252 233.156 442.9 235.4 442.592 237.27L441.844 242H439.864L441.492 231.704H443.472ZM456.044 240.592C458.2 240.592 459.652 238.876 459.982 236.852C460.29 234.85 459.366 233.156 457.232 233.156C455.186 233.156 453.69 234.938 453.382 236.852C453.074 238.788 453.954 240.592 456.044 240.592ZM459.058 242L459.322 240.394H459.278C458.288 241.56 456.902 242.352 455.45 242.352C452.282 242.352 450.94 239.734 451.424 236.786C451.864 233.97 454.13 231.396 457.1 231.396C458.64 231.396 459.762 232.188 460.378 233.42H460.422L462.072 222.904H464.052L461.038 242H459.058ZM110.612 257.396C113.692 257.396 115.738 259.772 115.254 262.874C114.77 265.976 111.954 268.352 108.874 268.352C105.794 268.352 103.77 265.976 104.254 262.874C104.738 259.772 107.532 257.396 110.612 257.396ZM110.326 259.288C108.368 259.288 106.542 260.916 106.234 262.874C105.926 264.81 107.224 266.46 109.182 266.46C111.14 266.46 112.966 264.81 113.274 262.874C113.582 260.916 112.284 259.288 110.326 259.288ZM119.853 259.552L118.511 268H116.531L117.873 259.552H116.795L117.081 257.704H118.159L118.775 253.766H120.755L120.139 257.704H122.075L121.789 259.552H119.853ZM124.566 248.904H126.546L124.94 259.09H124.984C125.776 257.99 127.096 257.396 128.35 257.396C131.254 257.396 131.694 259.354 131.297 261.862L130.33 268H128.35L129.274 262.104C129.56 260.344 129.516 259.156 127.492 259.156C124.94 259.156 124.588 261.4 124.28 263.27L123.532 268H121.552L124.566 248.904ZM142.879 263.182H135.025C134.761 264.942 135.685 266.592 137.577 266.592C139.095 266.592 140.041 265.822 140.987 264.59L142.505 265.536C141.251 267.318 139.271 268.352 137.269 268.352C134.123 268.352 132.605 265.976 133.067 262.94C133.573 259.772 135.641 257.396 138.963 257.396C142.241 257.396 143.407 259.816 142.923 262.874L142.879 263.182ZM135.355 261.686H141.119C141.141 260.146 140.283 259.112 138.699 259.112C137.159 259.112 135.839 260.212 135.355 261.686ZM147.549 257.704L147.285 259.376H147.351C148.033 258.166 149.155 257.396 150.475 257.396C151.047 257.396 151.597 257.594 152.037 257.902L150.849 259.706C150.541 259.398 150.167 259.288 149.705 259.288C147.571 259.288 146.977 261.268 146.713 262.94L145.921 268H143.941L145.569 257.704H147.549ZM163.074 266.592C165.23 266.592 166.682 264.876 167.012 262.852C167.32 260.85 166.396 259.156 164.262 259.156C162.216 259.156 160.72 260.938 160.412 262.852C160.104 264.788 160.984 266.592 163.074 266.592ZM161.336 257.704L161.072 259.42H161.116C162.128 258.188 163.47 257.396 165.01 257.396C167.98 257.396 169.454 259.97 169.014 262.786C168.53 265.734 166.352 268.352 163.184 268.352C161.732 268.352 160.61 267.56 160.016 266.394H159.972L158.784 273.896H156.804L159.356 257.704H161.336ZM179.918 263.182H172.064C171.8 264.942 172.724 266.592 174.616 266.592C176.134 266.592 177.08 265.822 178.026 264.59L179.544 265.536C178.29 267.318 176.31 268.352 174.308 268.352C171.162 268.352 169.644 265.976 170.106 262.94C170.612 259.772 172.68 257.396 176.002 257.396C179.28 257.396 180.446 259.816 179.962 262.874L179.918 263.182ZM172.394 261.686H178.158C178.18 260.146 177.322 259.112 175.738 259.112C174.198 259.112 172.878 260.212 172.394 261.686ZM184.588 257.704L184.324 259.376H184.39C185.072 258.166 186.194 257.396 187.514 257.396C188.086 257.396 188.636 257.594 189.076 257.902L187.888 259.706C187.58 259.398 187.206 259.288 186.744 259.288C184.61 259.288 184.016 261.268 183.752 262.94L182.96 268H180.98L182.608 257.704H184.588ZM193.687 248.904L191.685 261.576L196.173 257.704H198.791L193.709 261.972L197.603 268H195.029L192.103 263.314L191.311 263.996L190.673 268H188.693L191.707 248.904H193.687ZM205.722 259.2L203.984 260.058C203.83 259.552 203.39 259.156 202.818 259.156C202.268 259.156 201.674 259.596 201.564 260.168C201.432 261.07 202.554 261.466 203.676 262.016C204.798 262.566 205.854 263.314 205.59 264.942C205.282 266.9 203.412 268.352 201.498 268.352C200.002 268.352 198.638 267.494 198.308 266.042L200.134 265.272C200.42 266.042 200.838 266.592 201.784 266.592C202.62 266.592 203.434 266.02 203.588 265.14C203.676 264.59 203.434 264.326 203.038 264.018L201.256 262.984C200.222 262.368 199.474 261.796 199.694 260.388C199.958 258.716 201.52 257.396 203.192 257.396C204.446 257.396 205.348 258.078 205.722 259.2ZM209.216 265.8C209.92 265.8 210.404 266.394 210.294 267.076C210.184 267.78 209.502 268.352 208.798 268.352C208.094 268.352 207.632 267.78 207.742 267.076C207.852 266.394 208.512 265.8 209.216 265.8Z" fill="#093761"/>
</svg>
