<svg width="546" height="327" viewBox="0 0 546 327" fill="none" xmlns="http://www.w3.org/2000/svg">
<rect width="546" height="327" rx="50" fill="#0E3D68"/>
<path d="M161.363 146V108.3H180.313V117.2H171.563V122.45H179.413V131.35H171.563V137.1H180.313V146H161.363ZM223.814 146H213.214L212.264 122.3H212.164C211.714 125.05 211.364 127.8 210.864 130.55L207.964 146H199.664L196.114 122.3H196.014C195.964 125.1 196.014 127.85 195.864 130.65L195.014 146H184.064L188.464 108.3H201.164L204.064 128.35H204.164C204.464 126 204.714 123.7 205.164 121.35L207.614 108.3H220.164L223.814 146ZM237.774 146H227.574V108.3H236.874C245.774 108.3 252.624 111.2 252.624 121.1C252.624 130.9 246.624 133.9 237.774 133.65V146ZM242.324 120.95C242.324 118.55 241.024 116.4 238.524 116.4L237.774 116.45V125.15C240.574 125.3 242.324 123.75 242.324 120.95ZM274.623 146H256.773V108.3H266.973V137.1H274.623V146ZM276.131 127.15C276.131 117.95 280.181 107.65 290.531 107.65C300.881 107.65 304.931 117.95 304.931 127.15C304.931 136.35 300.881 146.65 290.531 146.65C280.181 146.65 276.131 136.35 276.131 127.15ZM286.531 127.15C286.531 129.5 286.681 137.15 290.531 137.15C294.381 137.15 294.531 129.5 294.531 127.15C294.531 124.8 294.381 117.15 290.531 117.15C286.681 117.15 286.531 124.8 286.531 127.15ZM324.357 146H314.157V130L304.857 108.3H315.457L318.957 119.95H319.057L322.607 108.3H333.157L324.357 130V146ZM336.51 146V108.3H355.46V117.2H346.71V122.45H354.56V131.35H346.71V137.1H355.46V146H336.51ZM388.311 146H377.261L371.611 130.3L371.511 130.4C371.561 132.25 371.661 134.1 371.661 135.95V146H361.461V108.3H371.311C380.161 108.3 386.561 110.9 386.561 120.85C386.561 125 384.761 128.7 380.711 130.3L388.311 146ZM371.661 125.7L372.311 125.75C375.011 125.75 376.461 123.4 376.461 120.95C376.461 117.65 374.461 116.25 371.661 116.4V125.7ZM127.208 206V168.3H146.158V177.2H137.408V182.45H145.258V191.35H137.408V197.1H146.158V206H127.208ZM152.159 206V168.3H161.859L170.009 191L170.109 190.9C169.709 186.55 168.959 182.25 168.959 177.9V168.3H178.759V206H168.959L161.359 184.25L161.259 184.35C161.509 187.9 161.959 191.4 161.959 194.95V206H152.159ZM197.726 184.2H211.926L211.976 185.8C211.976 195.1 210.176 206.65 198.376 206.65C187.276 206.65 183.676 196.9 183.676 187.35C183.676 178 187.226 167.65 198.276 167.65C204.376 167.65 208.926 171.5 211.126 176.95L201.276 180.6C201.176 179.1 200.176 176.75 198.376 176.75C193.676 176.75 194.076 185.4 194.076 188.25C194.226 190.95 194.026 197.55 197.976 197.55C200.676 197.55 201.526 194.35 201.476 192.15H197.726V184.2ZM243.366 206H232.816L232.066 201.15H225.216L224.366 206H213.866L222.916 168.3H235.366L243.366 206ZM226.566 193.15H230.866L229.766 184.4C229.466 182.05 229.266 179.65 229.016 177.3H228.916C228.616 179.65 228.366 182.05 227.966 184.4L226.566 193.15ZM259.396 184.2H273.596L273.646 185.8C273.646 195.1 271.846 206.65 260.046 206.65C248.946 206.65 245.346 196.9 245.346 187.35C245.346 178 248.896 167.65 259.946 167.65C266.046 167.65 270.596 171.5 272.796 176.95L262.946 180.6C262.846 179.1 261.846 176.75 260.046 176.75C255.346 176.75 255.746 185.4 255.746 188.25C255.896 190.95 255.696 197.55 259.646 197.55C262.346 197.55 263.196 194.35 263.146 192.15H259.396V184.2ZM278.136 206V168.3H297.086V177.2H288.336V182.45H296.186V191.35H288.336V197.1H297.086V206H278.136ZM340.587 206H329.987L329.037 182.3H328.937C328.487 185.05 328.137 187.8 327.637 190.55L324.737 206H316.437L312.887 182.3H312.787C312.737 185.1 312.787 187.85 312.637 190.65L311.787 206H300.837L305.237 168.3H317.937L320.837 188.35H320.937C321.237 186 321.487 183.7 321.937 181.35L324.387 168.3H336.937L340.587 206ZM344.347 206V168.3H363.297V177.2H354.547V182.45H362.397V191.35H354.547V197.1H363.297V206H344.347ZM369.298 206V168.3H378.998L387.148 191L387.248 190.9C386.848 186.55 386.098 182.25 386.098 177.9V168.3H395.898V206H386.098L378.498 184.25L378.398 184.35C378.648 187.9 379.098 191.4 379.098 194.95V206H369.298ZM415.865 206H405.665V177.5H400.065V168.3H421.715V177.5H415.865V206Z" fill="#CBE1F0"/>
</svg>
