<svg width="546" height="327" viewBox="0 0 546 327" fill="none" xmlns="http://www.w3.org/2000/svg">
<rect width="546" height="327" rx="50" fill="#0E3D68"/>
<path d="M175.343 150.1V138.3C176.743 140.4 179.193 142.5 181.793 142.5C183.193 142.5 184.793 141.65 184.793 140C184.793 139.1 184.493 138.45 183.993 137.9C183.543 137.35 182.943 136.9 182.293 136.45C180.293 134.9 178.543 133.45 177.243 131.65C175.993 129.9 175.193 127.8 175.193 125.05C175.193 120.65 177.993 112.65 186.693 112.65C189.143 112.65 191.793 113.4 193.943 114.55V126C192.743 124.1 190.293 121.95 187.943 121.95C186.743 121.95 185.293 122.8 185.293 124.25C185.293 125.05 185.743 125.75 186.293 126.35C186.843 126.95 187.593 127.45 188.143 127.9C190.293 129.4 191.993 130.8 193.143 132.5C194.343 134.2 194.993 136.2 194.993 139.05C194.993 146.05 190.093 151.65 182.993 151.65C180.393 151.65 177.743 151.1 175.343 150.1ZM215.027 113.3H225.227V137.95C225.227 142.5 224.227 151.65 212.427 151.65C200.627 151.65 199.627 142.5 199.627 137.95V113.3H209.827V137C209.827 138 209.777 139.3 210.077 140.3C210.377 141.35 211.027 142.15 212.427 142.15C213.877 142.15 214.527 141.35 214.777 140.35C215.077 139.3 215.027 138 215.027 137.05V113.3ZM241.18 151H230.98V113.3H240.28C249.18 113.3 256.03 116.2 256.03 126.1C256.03 135.9 250.03 138.9 241.18 138.65V151ZM245.73 125.95C245.73 123.55 244.43 121.4 241.93 121.4L241.18 121.45V130.15C243.98 130.3 245.73 128.75 245.73 125.95ZM270.38 151H260.18V113.3H269.48C278.38 113.3 285.23 116.2 285.23 126.1C285.23 135.9 279.23 138.9 270.38 138.65V151ZM274.93 125.95C274.93 123.55 273.63 121.4 271.13 121.4L270.38 121.45V130.15C273.18 130.3 274.93 128.75 274.93 125.95ZM288.229 132.15C288.229 122.95 292.279 112.65 302.629 112.65C312.979 112.65 317.029 122.95 317.029 132.15C317.029 141.35 312.979 151.65 302.629 151.65C292.279 151.65 288.229 141.35 288.229 132.15ZM298.629 132.15C298.629 134.5 298.779 142.15 302.629 142.15C306.479 142.15 306.629 134.5 306.629 132.15C306.629 129.8 306.479 122.15 302.629 122.15C298.779 122.15 298.629 129.8 298.629 132.15ZM348.797 151H337.747L332.097 135.3L331.997 135.4C332.047 137.25 332.147 139.1 332.147 140.95V151H321.947V113.3H331.797C340.647 113.3 347.047 115.9 347.047 125.85C347.047 130 345.247 133.7 341.197 135.3L348.797 151ZM332.147 130.7L332.797 130.75C335.497 130.75 336.947 128.4 336.947 125.95C336.947 122.65 334.947 121.25 332.147 121.4V130.7ZM365.78 151H355.58V122.5H349.98V113.3H371.63V122.5H365.78V151ZM175.319 210.1V198.3C176.719 200.4 179.169 202.5 181.769 202.5C183.169 202.5 184.769 201.65 184.769 200C184.769 199.1 184.469 198.45 183.969 197.9C183.519 197.35 182.919 196.9 182.269 196.45C180.269 194.9 178.519 193.45 177.219 191.65C175.969 189.9 175.169 187.8 175.169 185.05C175.169 180.65 177.969 172.65 186.669 172.65C189.119 172.65 191.769 173.4 193.919 174.55V186C192.719 184.1 190.269 181.95 187.919 181.95C186.719 181.95 185.269 182.8 185.269 184.25C185.269 185.05 185.719 185.75 186.269 186.35C186.819 186.95 187.569 187.45 188.119 187.9C190.269 189.4 191.969 190.8 193.119 192.5C194.319 194.2 194.969 196.2 194.969 199.05C194.969 206.05 190.069 211.65 182.969 211.65C180.369 211.65 177.719 211.1 175.319 210.1ZM199.853 211V173.3H218.803V182.2H210.053V187.45H217.903V196.35H210.053V202.1H218.803V211H199.853ZM251.654 211H240.604L234.954 195.3L234.854 195.4C234.904 197.25 235.004 199.1 235.004 200.95V211H224.804V173.3H234.654C243.504 173.3 249.904 175.9 249.904 185.85C249.904 190 248.104 193.7 244.054 195.3L251.654 211ZM235.004 190.7L235.654 190.75C238.354 190.75 239.804 188.4 239.804 185.95C239.804 182.65 237.804 181.25 235.004 181.4V190.7ZM271.029 211H260.629L251.979 173.3H262.679L265.079 188.8C265.529 191.85 265.779 194.85 266.179 197.9H266.279C266.729 194.85 266.879 191.85 267.429 188.8L270.229 173.3H281.279L271.029 211ZM294.476 211H284.276V173.3H294.476V211ZM321.137 173.55V184.35C319.687 182.95 318.487 182.15 316.387 182.15C311.087 182.15 309.787 188 309.787 192.15C309.787 196.55 311.087 202.15 316.187 202.15C318.487 202.15 319.937 201.25 321.587 199.75L320.987 210.3C318.937 211.2 317.087 211.65 314.837 211.65C306.487 211.65 299.387 205.3 299.387 192.4C299.387 175.5 310.987 172.65 315.937 172.65C317.737 172.65 319.487 172.9 321.137 173.55ZM327.196 211V173.3H346.146V182.2H337.396V187.45H345.246V196.35H337.396V202.1H346.146V211H327.196ZM351.197 210.1V198.3C352.597 200.4 355.047 202.5 357.647 202.5C359.047 202.5 360.647 201.65 360.647 200C360.647 199.1 360.347 198.45 359.847 197.9C359.397 197.35 358.797 196.9 358.147 196.45C356.147 194.9 354.397 193.45 353.097 191.65C351.847 189.9 351.047 187.8 351.047 185.05C351.047 180.65 353.847 172.65 362.547 172.65C364.997 172.65 367.647 173.4 369.797 174.55V186C368.597 184.1 366.147 181.95 363.797 181.95C362.597 181.95 361.147 182.8 361.147 184.25C361.147 185.05 361.597 185.75 362.147 186.35C362.697 186.95 363.447 187.45 363.997 187.9C366.147 189.4 367.847 190.8 368.997 192.5C370.197 194.2 370.847 196.2 370.847 199.05C370.847 206.05 365.947 211.65 358.847 211.65C356.247 211.65 353.597 211.1 351.197 210.1Z" fill="#CBE1F0"/>
</svg>
