<svg width="362" height="317" viewBox="0 0 362 317" fill="none" xmlns="http://www.w3.org/2000/svg">
<rect width="362" height="317" rx="50" fill="#44739E"/>
<path d="M54.8424 66.904L48.7944 85H47.2584L47.3544 72.808C47.3784 72.184 47.5224 70.84 47.6184 69.856H47.5224C47.2584 70.84 46.9704 72.208 46.7784 72.808L42.7464 85H41.2104L41.1864 66.904H42.9144L42.6264 79C42.6024 79.888 42.5304 80.8 42.4824 81.688H42.5784C42.8424 80.8 43.0584 79.888 43.3464 79L47.3304 66.904H48.7704L48.6024 79C48.5784 79.888 48.5544 80.8 48.5304 81.688H48.6264C48.8664 80.8 49.0824 79.888 49.3704 79L53.1384 66.904H54.8424ZM55.6284 77.848H59.2044L59.2284 77.632C59.3484 76.456 59.7084 73.96 58.0764 73.96C56.5884 73.96 55.7964 76.744 55.6284 77.848ZM60.5724 79.168H55.3884L55.3404 79.528C55.1484 80.752 54.8844 83.728 56.5884 83.728C57.9564 83.728 58.4604 81.808 58.6284 80.824H60.2364C59.9004 82.696 58.7964 85.192 56.5164 85.192C53.2764 85.192 53.4444 81.352 53.8284 78.88C54.1884 76.672 55.3404 72.496 58.3164 72.496C61.1964 72.496 61.0524 76.264 60.6924 78.424L60.5724 79.168ZM69.8312 83.92C71.2712 83.92 71.7992 82.504 72.3992 78.712C72.7112 76.816 73.1672 73.768 71.3672 73.768C69.7112 73.768 69.2312 76.312 68.8952 78.496C68.5112 80.872 68.1272 83.92 69.8312 83.92ZM69.9512 72.688L69.8312 73.528H69.8792C70.4552 72.856 71.0792 72.496 71.9672 72.496C74.8232 72.496 74.4152 76.216 74.0072 78.712C73.5752 81.496 72.9272 85.192 70.0712 85.192C69.1832 85.192 68.5592 84.736 68.1992 84.04H68.1512L67.2632 89.704H65.7032L68.3912 72.688H69.9512ZM78.3184 72.688L78.0544 74.32H78.1024C78.5824 73.456 79.4224 72.472 80.4544 72.496L80.1424 74.32L79.8544 74.296C78.2464 74.296 77.8144 75.856 77.5024 77.824L76.3744 85H74.8144L76.7584 72.688H78.3184ZM84.7556 72.496C87.9956 72.496 87.6356 76.528 87.2756 78.832C86.8916 81.16 85.9796 85.192 82.7396 85.192C79.4996 85.192 79.8356 81.16 80.2196 78.832C80.5796 76.528 81.5156 72.496 84.7556 72.496ZM84.5156 73.96C82.6436 73.96 81.9956 77.656 81.8276 78.832C81.6356 80.032 81.0836 83.728 82.9556 83.728C84.8276 83.728 85.4756 80.032 85.6676 78.832C85.8356 77.656 86.3876 73.96 84.5156 73.96ZM96.4069 72.688L91.7269 85H90.0469L89.1829 72.688H90.7669L91.1269 80.392C91.1749 81.16 91.1749 81.928 91.2229 82.696H91.3189C91.5349 81.928 91.7749 81.136 92.0149 80.392L94.7989 72.688H96.4069ZM99.2246 72.688L97.2806 85H95.7206L97.6646 72.688H99.2246ZM100.185 69.04C100.089 69.688 99.4886 70.216 98.8646 70.216C98.2166 70.216 97.7606 69.688 97.8566 69.04C97.9526 68.416 98.5766 67.888 99.2246 67.888C99.8486 67.888 100.281 68.416 100.185 69.04ZM105.255 78.64C105.711 75.832 105.735 73.768 104.295 73.768C102.543 73.768 101.991 76.84 101.703 78.592C101.535 79.744 100.623 83.92 102.615 83.92C104.271 83.92 104.751 81.88 105.255 78.64ZM104.103 85L104.247 84.04H104.199C103.647 84.736 102.879 85.192 101.991 85.192C99.4232 85.192 99.5432 82.072 100.071 78.712C100.623 75.352 101.415 72.496 104.151 72.496C105.015 72.496 105.495 72.856 105.879 73.528H105.927L107.151 65.8H108.711L105.663 85H104.103ZM110.214 77.848H113.79L113.814 77.632C113.934 76.456 114.294 73.96 112.662 73.96C111.174 73.96 110.382 76.744 110.214 77.848ZM115.158 79.168H109.974L109.926 79.528C109.734 80.752 109.47 83.728 111.174 83.728C112.542 83.728 113.046 81.808 113.214 80.824H114.822C114.486 82.696 113.382 85.192 111.102 85.192C107.862 85.192 108.03 81.352 108.414 78.88C108.774 76.672 109.926 72.496 112.902 72.496C115.782 72.496 115.638 76.264 115.278 78.424L115.158 79.168ZM123.152 77.848H126.728L126.752 77.632C126.872 76.456 127.232 73.96 125.6 73.96C124.112 73.96 123.32 76.744 123.152 77.848ZM128.096 79.168H122.912L122.864 79.528C122.672 80.752 122.408 83.728 124.112 83.728C125.48 83.728 125.984 81.808 126.152 80.824H127.76C127.424 82.696 126.32 85.192 124.04 85.192C120.8 85.192 120.968 81.352 121.352 78.88C121.712 76.672 122.864 72.496 125.84 72.496C128.72 72.496 128.576 76.264 128.216 78.424L128.096 79.168ZM137.382 72.688L133.662 78.712L135.438 85H133.71L132.942 81.76C132.798 81.088 132.63 80.416 132.63 79.696H132.534C132.318 80.416 131.982 81.112 131.598 81.784L129.87 85H128.118L131.934 78.712L130.35 72.688H132.078L132.654 75.424C132.822 76.24 132.942 77.056 132.99 77.92H133.086C133.422 77.056 133.734 76.192 134.214 75.352L135.654 72.688H137.382ZM143.576 72.976L143.288 74.776C142.976 74.368 142.544 73.96 141.944 73.96C139.928 73.96 139.184 77.464 138.944 78.88C138.752 80.104 138.44 83.728 140.288 83.728C141.008 83.728 141.56 83.176 142.016 82.624H142.064L141.752 84.568C141.224 84.952 140.48 85.192 139.88 85.192C137.048 85.192 136.976 81.208 137.312 79.096C137.672 76.768 138.848 72.496 141.968 72.496C142.544 72.496 143.12 72.664 143.576 72.976ZM145.816 77.848H149.392L149.416 77.632C149.536 76.456 149.896 73.96 148.264 73.96C146.776 73.96 145.984 76.744 145.816 77.848ZM150.76 79.168H145.576L145.528 79.528C145.336 80.752 145.072 83.728 146.776 83.728C148.144 83.728 148.648 81.808 148.816 80.824H150.424C150.088 82.696 148.984 85.192 146.704 85.192C143.464 85.192 143.632 81.352 144.016 78.88C144.376 76.672 145.528 72.496 148.504 72.496C151.384 72.496 151.24 76.264 150.88 78.424L150.76 79.168ZM155.027 83.92C156.467 83.92 156.995 82.504 157.595 78.712C157.907 76.816 158.363 73.768 156.562 73.768C154.907 73.768 154.427 76.312 154.09 78.496C153.707 80.872 153.323 83.92 155.027 83.92ZM155.147 72.688L155.027 73.528H155.075C155.651 72.856 156.275 72.496 157.163 72.496C160.019 72.496 159.611 76.216 159.203 78.712C158.771 81.496 158.123 85.192 155.267 85.192C154.379 85.192 153.755 84.736 153.395 84.04H153.347L152.459 89.704H150.899L153.587 72.688H155.147ZM166.202 72.688L165.986 74.128H163.946L162.218 85H160.658L162.386 74.128H161.066L161.282 72.688H162.602L163.13 69.328H164.69L164.162 72.688H166.202ZM168.576 72.688L166.632 85H165.072L167.016 72.688H168.576ZM169.536 69.04C169.44 69.688 168.84 70.216 168.216 70.216C167.568 70.216 167.112 69.688 167.208 69.04C167.304 68.416 167.928 67.888 168.576 67.888C169.2 67.888 169.632 68.416 169.536 69.04ZM173.959 72.496C177.199 72.496 176.839 76.528 176.479 78.832C176.095 81.16 175.183 85.192 171.943 85.192C168.703 85.192 169.039 81.16 169.423 78.832C169.783 76.528 170.719 72.496 173.959 72.496ZM173.719 73.96C171.847 73.96 171.199 77.656 171.031 78.832C170.839 80.032 170.287 83.728 172.159 83.728C174.031 83.728 174.679 80.032 174.871 78.832C175.039 77.656 175.591 73.96 173.719 73.96ZM180.834 72.688L180.69 73.672C181.434 72.952 182.346 72.496 183.306 72.496C185.49 72.496 185.346 74.512 185.082 76.192L183.69 85H182.13L183.498 76.36C183.738 74.896 183.81 73.768 182.514 73.768C180.738 73.768 180.354 75.712 180.162 77.008L178.89 85H177.33L179.274 72.688H180.834ZM191.669 78.64C192.101 75.976 192.245 73.768 190.709 73.768C188.981 73.768 188.453 76.504 188.117 78.592C187.325 83.68 188.117 83.92 189.029 83.92C190.541 83.92 191.045 82.504 191.669 78.64ZM194.021 72.688L192.077 85H190.517L190.661 84.04H190.613C190.061 84.736 189.293 85.192 188.405 85.192C186.437 85.192 185.645 84.088 186.485 78.712C186.941 75.952 187.589 72.496 190.565 72.496C191.429 72.496 191.909 72.856 192.293 73.528H192.341L192.461 72.688H194.021ZM198.836 65.8L195.788 85H194.228L197.276 65.8H198.836ZM206.331 83.92C207.603 83.92 208.251 82.816 208.923 78.592C209.379 75.784 209.427 73.768 207.867 73.768C205.971 73.768 205.563 77.392 205.395 78.496C205.155 80.008 204.339 83.92 206.331 83.92ZM202.947 85L205.995 65.8H207.555L206.331 73.528H206.379C206.931 72.832 207.579 72.496 208.467 72.496C211.323 72.496 210.963 75.928 210.507 78.712C210.027 81.832 209.259 85.192 206.571 85.192C205.683 85.192 205.059 84.736 204.699 84.04H204.651L204.507 85H202.947ZM213.714 77.848H217.29L217.314 77.632C217.434 76.456 217.794 73.96 216.162 73.96C214.674 73.96 213.882 76.744 213.714 77.848ZM218.658 79.168H213.474L213.426 79.528C213.234 80.752 212.97 83.728 214.674 83.728C216.042 83.728 216.546 81.808 216.714 80.824H218.322C217.986 82.696 216.882 85.192 214.602 85.192C211.362 85.192 211.53 81.352 211.914 78.88C212.274 76.672 213.426 72.496 216.402 72.496C219.282 72.496 219.138 76.264 218.778 78.424L218.658 79.168ZM223.045 72.688L222.901 73.672C223.645 72.952 224.557 72.496 225.517 72.496C227.701 72.496 227.557 74.512 227.293 76.192L225.901 85H224.341L225.709 76.36C225.949 74.896 226.021 73.768 224.725 73.768C222.949 73.768 222.565 75.712 222.373 77.008L221.101 85H219.541L221.485 72.688H223.045ZM230.472 77.848H234.048L234.072 77.632C234.192 76.456 234.552 73.96 232.92 73.96C231.432 73.96 230.64 76.744 230.472 77.848ZM235.416 79.168H230.232L230.184 79.528C229.992 80.752 229.728 83.728 231.432 83.728C232.8 83.728 233.304 81.808 233.472 80.824H235.08C234.744 82.696 233.64 85.192 231.36 85.192C228.12 85.192 228.288 81.352 228.672 78.88C229.032 76.672 230.184 72.496 233.16 72.496C236.04 72.496 235.896 76.264 235.536 78.424L235.416 79.168ZM242.083 72.688L241.867 74.128H239.827L238.099 85H236.539L238.267 74.128H236.947L237.163 72.688H238.483L239.059 69.04C239.419 66.88 240.163 65.608 241.915 65.608C242.371 65.608 242.851 65.68 243.235 65.872L242.971 67.576C242.683 67.312 242.371 67.048 241.915 67.048C241.051 67.048 240.811 67.84 240.619 69.016L240.043 72.688H242.083ZM244.795 72.688L242.851 85H241.291L243.235 72.688H244.795ZM245.755 69.04C245.659 69.688 245.059 70.216 244.435 70.216C243.787 70.216 243.331 69.688 243.427 69.04C243.523 68.416 244.147 67.888 244.795 67.888C245.419 67.888 245.851 68.416 245.755 69.04ZM251.21 72.688L250.993 74.128H248.954L247.226 85H245.666L247.394 74.128H246.074L246.29 72.688H247.61L248.138 69.328H249.698L249.17 72.688H251.21ZM256.609 73.288L256.321 75.208H256.273C255.913 74.56 255.289 73.96 254.425 73.96C253.489 73.96 252.769 74.68 252.625 75.592C252.433 76.768 253.345 77.488 254.185 78.304C255.073 79.144 255.913 80.056 255.649 81.664C255.337 83.632 253.777 85.192 251.737 85.192C250.969 85.192 250.153 84.832 249.625 84.352L249.913 82.528C250.417 83.152 250.969 83.728 251.905 83.728C252.985 83.728 253.849 82.888 254.017 81.856C254.209 80.632 253.345 79.816 252.481 78.928C251.641 78.064 250.777 77.104 251.017 75.64C251.305 73.792 252.745 72.496 254.593 72.496C255.385 72.496 256.057 72.808 256.609 73.288ZM259.928 83.512L256.664 88.864L255.608 88.312L258.344 82.744L259.928 83.512ZM269.498 72.688L267.554 85H265.994L267.938 72.688H269.498ZM270.458 69.04C270.362 69.688 269.762 70.216 269.138 70.216C268.49 70.216 268.034 69.688 268.13 69.04C268.226 68.416 268.85 67.888 269.498 67.888C270.122 67.888 270.554 68.416 270.458 69.04ZM273.225 72.688L273.081 73.672C273.825 72.952 274.737 72.496 275.697 72.496C277.881 72.496 277.737 74.512 277.473 76.192L276.081 85H274.521L275.889 76.36C276.129 74.896 276.201 73.768 274.905 73.768C273.129 73.768 272.745 75.712 272.553 77.008L271.281 85H269.721L271.665 72.688H273.225ZM285.092 72.976L284.804 74.776C284.492 74.368 284.06 73.96 283.46 73.96C281.444 73.96 280.7 77.464 280.46 78.88C280.268 80.104 279.956 83.728 281.804 83.728C282.524 83.728 283.076 83.176 283.532 82.624H283.58L283.268 84.568C282.74 84.952 281.996 85.192 281.396 85.192C278.564 85.192 278.492 81.208 278.828 79.096C279.188 76.768 280.364 72.496 283.484 72.496C284.06 72.496 284.636 72.664 285.092 72.976ZM289.54 65.8L286.492 85H284.932L287.98 65.8H289.54ZM290.506 72.688H292.066L290.842 80.416C290.578 82.096 290.41 83.728 291.946 83.728C293.53 83.728 293.866 82.096 294.154 80.416L295.378 72.688H296.938L295.522 81.736C295.186 83.8 293.962 85.192 291.754 85.192C289.57 85.192 288.754 83.824 289.09 81.736L290.506 72.688ZM302.857 78.64C303.313 75.832 303.337 73.768 301.897 73.768C300.145 73.768 299.593 76.84 299.305 78.592C299.137 79.744 298.225 83.92 300.217 83.92C301.873 83.92 302.353 81.88 302.857 78.64ZM301.705 85L301.849 84.04H301.801C301.249 84.736 300.481 85.192 299.593 85.192C297.025 85.192 297.145 82.072 297.673 78.712C298.225 75.352 299.017 72.496 301.753 72.496C302.617 72.496 303.097 72.856 303.481 73.528H303.529L304.753 65.8H306.313L303.265 85H301.705ZM308.943 72.688L306.999 85H305.439L307.383 72.688H308.943ZM309.903 69.04C309.807 69.688 309.207 70.216 308.583 70.216C307.935 70.216 307.479 69.688 307.575 69.04C307.671 68.416 308.295 67.888 308.943 67.888C309.567 67.888 309.999 68.416 309.903 69.04ZM312.67 72.688L312.526 73.672C313.27 72.952 314.182 72.496 315.142 72.496C317.326 72.496 317.182 74.512 316.918 76.192L315.526 85H313.966L315.334 76.36C315.574 74.896 315.646 73.768 314.35 73.768C312.574 73.768 312.19 75.712 311.998 77.008L310.726 85H309.166L311.11 72.688H312.67ZM319.881 79.048C319.665 80.392 319.113 83.728 321.081 83.728C322.737 83.728 323.193 81.304 323.625 78.616C323.985 76.36 324.249 73.768 322.545 73.768C321.417 73.768 320.601 74.536 319.881 79.048ZM325.977 72.688L323.961 85.456C323.601 87.76 323.169 89.896 320.049 89.896C317.889 89.896 317.073 88.6 317.409 86.488L317.481 86.032H319.017L318.993 86.248C318.801 87.4 318.945 88.432 320.289 88.432C322.041 88.432 322.137 86.896 322.353 85.576L322.593 84.136C321.969 84.736 321.273 85 320.457 85C317.385 85 318.009 80.752 318.345 78.568C318.681 76.504 319.569 72.496 322.425 72.496C323.265 72.496 323.889 72.88 324.249 73.528H324.297L324.417 72.688H325.977ZM34.2251 101.688L34.0091 103.128H31.9691L30.2411 114H28.6811L30.4091 103.128H29.0891L29.3051 101.688H30.6251L31.1531 98.328H32.7131L32.1851 101.688H34.2251ZM38.8802 107.64C39.3122 104.976 39.4562 102.768 37.9202 102.768C36.1922 102.768 35.6642 105.504 35.3282 107.592C34.5362 112.68 35.3282 112.92 36.2402 112.92C37.7522 112.92 38.2562 111.504 38.8802 107.64ZM41.2322 101.688L39.2882 114H37.7282L37.8722 113.04H37.8242C37.2722 113.736 36.5042 114.192 35.6162 114.192C33.6482 114.192 32.8562 113.088 33.6962 107.712C34.1522 104.952 34.8002 101.496 37.7762 101.496C38.6402 101.496 39.1202 101.856 39.5042 102.528H39.5522L39.6722 101.688H41.2322ZM44.9434 101.688L42.9994 114H41.4394L43.3834 101.688H44.9434ZM45.9034 98.04C45.8074 98.688 45.2074 99.216 44.5834 99.216C43.9354 99.216 43.4794 98.688 43.5754 98.04C43.6714 97.416 44.2954 96.888 44.9434 96.888C45.5674 96.888 45.9994 97.416 45.9034 98.04ZM49.7739 94.8L46.7259 114H45.1659L48.2139 94.8H49.7739ZM54.0525 101.496C57.2925 101.496 56.9325 105.528 56.5725 107.832C56.1885 110.16 55.2765 114.192 52.0365 114.192C48.7965 114.192 49.1325 110.16 49.5165 107.832C49.8765 105.528 50.8125 101.496 54.0525 101.496ZM53.8125 102.96C51.9405 102.96 51.2925 106.656 51.1245 107.832C50.9325 109.032 50.3805 112.728 52.2525 112.728C54.1245 112.728 54.7725 109.032 54.9645 107.832C55.1325 106.656 55.6845 102.96 53.8125 102.96ZM60.9278 101.688L60.6638 103.32H60.7118C61.1918 102.456 62.0318 101.472 63.0638 101.496L62.7518 103.32L62.4638 103.296C60.8558 103.296 60.4238 104.856 60.1118 106.824L58.9838 114H57.4238L59.3678 101.688H60.9278ZM64.605 106.848H68.181L68.205 106.632C68.325 105.456 68.685 102.96 67.053 102.96C65.565 102.96 64.773 105.744 64.605 106.848ZM69.549 108.168H64.365L64.317 108.528C64.125 109.752 63.861 112.728 65.565 112.728C66.933 112.728 67.437 110.808 67.605 109.824H69.213C68.877 111.696 67.773 114.192 65.493 114.192C62.253 114.192 62.421 110.352 62.805 107.88C63.165 105.672 64.317 101.496 67.293 101.496C70.173 101.496 70.029 105.264 69.669 107.424L69.549 108.168ZM76.2396 107.64C76.6956 104.832 76.7196 102.768 75.2796 102.768C73.5276 102.768 72.9756 105.84 72.6876 107.592C72.5196 108.744 71.6076 112.92 73.5996 112.92C75.2556 112.92 75.7356 110.88 76.2396 107.64ZM75.0876 114L75.2316 113.04H75.1836C74.6316 113.736 73.8636 114.192 72.9756 114.192C70.4076 114.192 70.5276 111.072 71.0556 107.712C71.6076 104.352 72.3996 101.496 75.1356 101.496C75.9996 101.496 76.4796 101.856 76.8636 102.528H76.9116L78.1356 94.8H79.6956L76.6476 114H75.0876ZM87.2949 101.688L87.0309 103.32H87.0789C87.5589 102.456 88.3989 101.472 89.4309 101.496L89.1189 103.32L88.8309 103.296C87.2229 103.296 86.7909 104.856 86.4789 106.824L85.3509 114H83.7909L85.7349 101.688H87.2949ZM90.9722 106.848H94.5482L94.5722 106.632C94.6922 105.456 95.0522 102.96 93.4202 102.96C91.9322 102.96 91.1402 105.744 90.9722 106.848ZM95.9162 108.168H90.7322L90.6842 108.528C90.4922 109.752 90.2282 112.728 91.9322 112.728C93.3002 112.728 93.8042 110.808 93.9722 109.824H95.5802C95.2442 111.696 94.1402 114.192 91.8602 114.192C88.6202 114.192 88.7882 110.352 89.1722 107.88C89.5322 105.672 90.6842 101.496 93.6602 101.496C96.5402 101.496 96.3962 105.264 96.0362 107.424L95.9162 108.168ZM103.639 101.976L103.351 103.776C103.039 103.368 102.607 102.96 102.007 102.96C99.9908 102.96 99.2467 106.464 99.0068 107.88C98.8148 109.104 98.5028 112.728 100.351 112.728C101.071 112.728 101.623 112.176 102.079 111.624H102.127L101.815 113.568C101.287 113.952 100.543 114.192 99.9428 114.192C97.1108 114.192 97.0388 110.208 97.3748 108.096C97.7348 105.768 98.9108 101.496 102.031 101.496C102.607 101.496 103.183 101.664 103.639 101.976ZM106.982 101.688L106.718 103.32H106.766C107.246 102.456 108.086 101.472 109.118 101.496L108.806 103.32L108.518 103.296C106.91 103.296 106.478 104.856 106.166 106.824L105.038 114H103.478L105.422 101.688H106.982ZM110.248 101.688H111.808L110.584 109.416C110.32 111.096 110.152 112.728 111.688 112.728C113.272 112.728 113.608 111.096 113.896 109.416L115.12 101.688H116.68L115.264 110.736C114.928 112.8 113.704 114.192 111.496 114.192C109.312 114.192 108.496 112.824 108.832 110.736L110.248 101.688ZM120.295 101.688L118.351 114H116.791L118.735 101.688H120.295ZM121.255 98.04C121.159 98.688 120.559 99.216 119.935 99.216C119.287 99.216 118.831 98.688 118.927 98.04C119.023 97.416 119.647 96.888 120.295 96.888C120.919 96.888 121.351 97.416 121.255 98.04ZM126.71 101.688L126.493 103.128H124.454L122.726 114H121.166L122.894 103.128H121.574L121.79 101.688H123.11L123.638 98.328H125.198L124.67 101.688H126.71ZM129.061 101.688L128.893 102.72H128.941C129.613 102 130.549 101.496 131.485 101.496C132.493 101.496 133.261 102.024 133.525 102.96C134.317 102.048 135.181 101.496 136.309 101.496C138.613 101.496 138.493 103.32 138.205 105.144L136.813 114H135.253L136.645 105.192C136.837 104.016 136.909 102.768 135.637 102.768C133.789 102.768 133.405 104.856 133.165 106.416L131.965 114H130.405L131.797 105.216C131.989 104.064 132.109 102.768 130.837 102.768C128.941 102.768 128.533 105.12 128.269 106.68L127.117 114H125.557L127.501 101.688H129.061ZM141.363 106.848H144.939L144.963 106.632C145.083 105.456 145.443 102.96 143.811 102.96C142.323 102.96 141.531 105.744 141.363 106.848ZM146.307 108.168H141.123L141.075 108.528C140.883 109.752 140.619 112.728 142.323 112.728C143.691 112.728 144.195 110.808 144.363 109.824H145.971C145.635 111.696 144.531 114.192 142.251 114.192C139.011 114.192 139.179 110.352 139.563 107.88C139.923 105.672 141.075 101.496 144.051 101.496C146.931 101.496 146.787 105.264 146.427 107.424L146.307 108.168ZM150.693 101.688L150.549 102.672C151.293 101.952 152.205 101.496 153.165 101.496C155.349 101.496 155.205 103.512 154.941 105.192L153.549 114H151.989L153.357 105.36C153.597 103.896 153.669 102.768 152.373 102.768C150.597 102.768 150.213 104.712 150.021 106.008L148.749 114H147.189L149.133 101.688H150.693ZM161.913 101.688L161.697 103.128H159.657L157.929 114H156.369L158.097 103.128H156.777L156.993 101.688H158.313L158.841 98.328H160.401L159.873 101.688H161.913ZM163.952 112.512L160.688 117.864L159.632 117.312L162.368 111.744L163.952 112.512ZM178.298 101.688L173.618 114H171.938L171.074 101.688H172.658L173.018 109.392C173.066 110.16 173.066 110.928 173.114 111.696H173.21C173.426 110.928 173.666 110.136 173.906 109.392L176.69 101.688H178.298ZM181.115 101.688L179.171 114H177.611L179.555 101.688H181.115ZM182.075 98.04C181.979 98.688 181.379 99.216 180.755 99.216C180.107 99.216 179.651 98.688 179.747 98.04C179.843 97.416 180.467 96.888 181.115 96.888C181.739 96.888 182.171 97.416 182.075 98.04ZM187.89 102.288L187.602 104.208H187.554C187.194 103.56 186.57 102.96 185.706 102.96C184.77 102.96 184.05 103.68 183.906 104.592C183.714 105.768 184.626 106.488 185.466 107.304C186.354 108.144 187.194 109.056 186.93 110.664C186.618 112.632 185.058 114.192 183.018 114.192C182.25 114.192 181.434 113.832 180.906 113.352L181.194 111.528C181.698 112.152 182.25 112.728 183.186 112.728C184.266 112.728 185.13 111.888 185.298 110.856C185.49 109.632 184.626 108.816 183.762 107.928C182.922 107.064 182.058 106.104 182.298 104.64C182.586 102.792 184.026 101.496 185.874 101.496C186.666 101.496 187.338 101.808 187.89 102.288ZM193.826 107.64C194.258 104.976 194.402 102.768 192.866 102.768C191.138 102.768 190.61 105.504 190.274 107.592C189.482 112.68 190.274 112.92 191.186 112.92C192.698 112.92 193.202 111.504 193.826 107.64ZM196.178 101.688L194.234 114H192.674L192.818 113.04H192.77C192.218 113.736 191.45 114.192 190.562 114.192C188.594 114.192 187.802 113.088 188.642 107.712C189.098 104.952 189.746 101.496 192.722 101.496C193.586 101.496 194.066 101.856 194.45 102.528H194.498L194.618 101.688H196.178ZM207.929 102.288L207.641 104.208H207.593C207.233 103.56 206.609 102.96 205.745 102.96C204.809 102.96 204.089 103.68 203.945 104.592C203.753 105.768 204.665 106.488 205.505 107.304C206.393 108.144 207.233 109.056 206.969 110.664C206.657 112.632 205.097 114.192 203.057 114.192C202.289 114.192 201.473 113.832 200.945 113.352L201.233 111.528C201.737 112.152 202.289 112.728 203.225 112.728C204.305 112.728 205.169 111.888 205.337 110.856C205.529 109.632 204.665 108.816 203.801 107.928C202.961 107.064 202.097 106.104 202.337 104.64C202.625 102.792 204.065 101.496 205.913 101.496C206.705 101.496 207.377 101.808 207.929 102.288ZM211.441 112.92C212.881 112.92 213.409 111.504 214.009 107.712C214.321 105.816 214.777 102.768 212.977 102.768C211.321 102.768 210.841 105.312 210.505 107.496C210.121 109.872 209.737 112.92 211.441 112.92ZM211.561 101.688L211.441 102.528H211.489C212.065 101.856 212.689 101.496 213.577 101.496C216.433 101.496 216.025 105.216 215.617 107.712C215.185 110.496 214.537 114.192 211.681 114.192C210.793 114.192 210.169 113.736 209.809 113.04H209.761L208.873 118.704H207.313L210.001 101.688H211.561ZM221.584 101.496C224.824 101.496 224.464 105.528 224.104 107.832C223.72 110.16 222.808 114.192 219.568 114.192C216.328 114.192 216.664 110.16 217.048 107.832C217.408 105.528 218.344 101.496 221.584 101.496ZM221.344 102.96C219.472 102.96 218.824 106.656 218.656 107.832C218.464 109.032 217.912 112.728 219.784 112.728C221.656 112.728 222.304 109.032 222.496 107.832C222.664 106.656 223.216 102.96 221.344 102.96ZM228.459 101.688L228.315 102.672C229.059 101.952 229.971 101.496 230.931 101.496C233.115 101.496 232.971 103.512 232.707 105.192L231.315 114H229.755L231.123 105.36C231.363 103.896 231.435 102.768 230.139 102.768C228.363 102.768 227.979 104.712 227.787 106.008L226.515 114H224.955L226.899 101.688H228.459ZM240.038 102.288L239.75 104.208H239.702C239.342 103.56 238.718 102.96 237.854 102.96C236.918 102.96 236.198 103.68 236.054 104.592C235.862 105.768 236.774 106.488 237.614 107.304C238.502 108.144 239.342 109.056 239.078 110.664C238.766 112.632 237.206 114.192 235.166 114.192C234.398 114.192 233.582 113.832 233.054 113.352L233.342 111.528C233.846 112.152 234.398 112.728 235.334 112.728C236.414 112.728 237.278 111.888 237.446 110.856C237.638 109.632 236.774 108.816 235.91 107.928C235.07 107.064 234.206 106.104 234.446 104.64C234.734 102.792 236.174 101.496 238.022 101.496C238.814 101.496 239.486 101.808 240.038 102.288ZM245.326 101.496C248.566 101.496 248.206 105.528 247.846 107.832C247.462 110.16 246.55 114.192 243.31 114.192C240.07 114.192 240.406 110.16 240.79 107.832C241.15 105.528 242.086 101.496 245.326 101.496ZM245.086 102.96C243.214 102.96 242.566 106.656 242.398 107.832C242.206 109.032 241.654 112.728 243.526 112.728C245.398 112.728 246.046 109.032 246.238 107.832C246.406 106.656 246.958 102.96 245.086 102.96ZM252.201 101.688L251.937 103.32H251.985C252.465 102.456 253.305 101.472 254.337 101.496L254.025 103.32L253.737 103.296C252.129 103.296 251.697 104.856 251.385 106.824L250.257 114H248.697L250.641 101.688H252.201ZM260.171 102.288L259.883 104.208H259.835C259.475 103.56 258.851 102.96 257.987 102.96C257.051 102.96 256.331 103.68 256.187 104.592C255.995 105.768 256.907 106.488 257.747 107.304C258.635 108.144 259.475 109.056 259.211 110.664C258.899 112.632 257.339 114.192 255.299 114.192C254.531 114.192 253.715 113.832 253.187 113.352L253.475 111.528C253.979 112.152 254.531 112.728 255.467 112.728C256.547 112.728 257.411 111.888 257.579 110.856C257.771 109.632 256.907 108.816 256.043 107.928C255.203 107.064 254.339 106.104 254.579 104.64C254.867 102.792 256.307 101.496 258.155 101.496C258.947 101.496 259.619 101.808 260.171 102.288ZM264.907 94.8L263.659 102.672C264.403 101.952 265.315 101.496 266.275 101.496C268.531 101.496 268.339 103.464 268.051 105.192L266.659 114H265.099L266.443 105.456C266.755 103.536 266.659 102.768 265.483 102.768C263.707 102.768 263.323 104.712 263.131 106.008L261.859 114H260.299L263.347 94.8H264.907ZM272.334 101.688L270.39 114H268.83L270.774 101.688H272.334ZM273.294 98.04C273.198 98.688 272.598 99.216 271.974 99.216C271.326 99.216 270.87 98.688 270.966 98.04C271.062 97.416 271.686 96.888 272.334 96.888C272.958 96.888 273.39 97.416 273.294 98.04ZM275.941 112.92C277.381 112.92 277.909 111.504 278.509 107.712C278.821 105.816 279.277 102.768 277.477 102.768C275.821 102.768 275.341 105.312 275.005 107.496C274.621 109.872 274.237 112.92 275.941 112.92ZM276.061 101.688L275.941 102.528H275.989C276.565 101.856 277.189 101.496 278.077 101.496C280.933 101.496 280.525 105.216 280.117 107.712C279.685 110.496 279.037 114.192 276.181 114.192C275.293 114.192 274.669 113.736 274.309 113.04H274.261L273.373 118.704H271.813L274.501 101.688H276.061ZM283.835 112.512L280.571 117.864L279.514 117.312L282.251 111.744L283.835 112.512ZM300.652 95.904L297.796 114H296.332L294.172 101.832C294.028 101.088 294.028 100.272 293.932 99.504H293.836C293.716 100.68 293.644 101.832 293.476 103.008L291.724 114H290.26L293.116 95.904H294.58L296.74 108.48C296.86 109.104 296.932 109.728 297.004 110.352H297.076C297.148 109.56 297.172 108.744 297.292 107.952L299.188 95.904H300.652ZM307.698 111.792L307.41 113.496C306.714 113.928 305.778 114.24 304.986 114.24C300.738 114.24 301.002 108.696 301.482 105.6C301.962 102.672 303.162 95.664 308.106 95.664C308.778 95.664 309.666 95.832 310.146 96.24L309.858 98.088C309.258 97.632 308.706 97.296 307.866 97.296C304.938 97.296 303.858 101.544 303.33 104.904C302.994 107.016 302.106 112.608 305.322 112.608C306.138 112.608 306.978 112.248 307.698 111.792ZM314.039 95.904L311.423 112.464H315.359L315.118 114H309.503L312.359 95.904H314.039ZM325.101 95.904L324.861 97.44H320.853L319.845 103.824H323.733L323.493 105.36H319.605L318.477 112.464H322.485L322.245 114H316.557L319.413 95.904H325.101ZM335.203 95.904L330.427 104.808L332.347 114H330.547L329.323 106.296H329.227C328.915 107.28 328.411 108.24 327.955 109.2L325.579 114H323.779L328.675 104.808L326.635 95.904H328.435L329.659 103.56H329.755C330.139 102.408 330.667 101.28 331.219 100.2L333.403 95.904H335.203ZM333.353 107.28L333.665 105.384H337.409L337.097 107.28H333.353ZM35.2528 143H33.5728L36.4288 124.904H38.2288C40.7488 124.904 43.1488 125.096 42.4528 129.512C42.0928 131.816 41.2288 134.072 38.3008 134.168L40.9168 143H39.1408L36.6928 134.144H36.6448L35.2528 143ZM37.8688 126.44L36.8608 132.776H37.4608C39.8128 132.776 40.3408 131.96 40.7248 129.584C41.1568 126.728 40.3408 126.44 38.2048 126.44H37.8688ZM53.1054 124.904L50.2494 143H48.7854L46.6254 130.832C46.4814 130.088 46.4814 129.272 46.3854 128.504H46.2894C46.1694 129.68 46.0974 130.832 45.9294 132.008L44.1774 143H42.7134L45.5694 124.904H47.0334L49.1934 137.48C49.3134 138.104 49.3854 138.728 49.4574 139.352H49.5294C49.6014 138.56 49.6254 137.744 49.7454 136.952L51.6414 124.904H53.1054ZM59.8941 135.848H63.4701L63.4941 135.632C63.6141 134.456 63.9741 131.96 62.3421 131.96C60.8541 131.96 60.0621 134.744 59.8941 135.848ZM64.8381 137.168H59.6541L59.6061 137.528C59.4141 138.752 59.1501 141.728 60.8541 141.728C62.2221 141.728 62.7261 139.808 62.8941 138.824H64.5021C64.1661 140.696 63.0621 143.192 60.7821 143.192C57.5421 143.192 57.7101 139.352 58.0941 136.88C58.4541 134.672 59.6061 130.496 62.5821 130.496C65.4621 130.496 65.3181 134.264 64.9581 136.424L64.8381 137.168ZM74.124 130.688L70.404 136.712L72.18 143H70.452L69.684 139.76C69.54 139.088 69.372 138.416 69.372 137.696H69.276C69.06 138.416 68.724 139.112 68.34 139.784L66.612 143H64.86L68.676 136.712L67.092 130.688H68.82L69.396 133.424C69.564 134.24 69.684 135.056 69.732 135.92H69.828C70.164 135.056 70.476 134.192 70.956 133.352L72.396 130.688H74.124ZM79.4271 136.64C79.8591 133.976 80.0031 131.768 78.4671 131.768C76.7391 131.768 76.2111 134.504 75.8751 136.592C75.0831 141.68 75.8751 141.92 76.7871 141.92C78.2991 141.92 78.8031 140.504 79.4271 136.64ZM81.7791 130.688L79.8351 143H78.2751L78.4191 142.04H78.3711C77.8191 142.736 77.0511 143.192 76.1631 143.192C74.1951 143.192 73.4031 142.088 74.2431 136.712C74.6991 133.952 75.3471 130.496 78.3231 130.496C79.1871 130.496 79.6671 130.856 80.0511 131.528H80.0991L80.2191 130.688H81.7791ZM85.4903 130.688L85.3223 131.72H85.3703C86.0423 131 86.9783 130.496 87.9143 130.496C88.9223 130.496 89.6903 131.024 89.9543 131.96C90.7463 131.048 91.6103 130.496 92.7383 130.496C95.0423 130.496 94.9223 132.32 94.6343 134.144L93.2422 143H91.6823L93.0743 134.192C93.2663 133.016 93.3383 131.768 92.0663 131.768C90.2183 131.768 89.8343 133.856 89.5943 135.416L88.3943 143H86.8343L88.2263 134.216C88.4183 133.064 88.5383 131.768 87.2663 131.768C85.3703 131.768 84.9623 134.12 84.6983 135.68L83.5463 143H81.9863L83.9303 130.688H85.4903ZM103.769 141.92C105.209 141.92 105.737 140.504 106.337 136.712C106.649 134.816 107.105 131.768 105.305 131.768C103.649 131.768 103.169 134.312 102.833 136.496C102.449 138.872 102.065 141.92 103.769 141.92ZM103.889 130.688L103.769 131.528H103.817C104.393 130.856 105.017 130.496 105.905 130.496C108.761 130.496 108.353 134.216 107.945 136.712C107.513 139.496 106.865 143.192 104.009 143.192C103.121 143.192 102.497 142.736 102.137 142.04H102.089L101.201 147.704H99.6407L102.329 130.688H103.889ZM112.256 130.688L111.992 132.32H112.04C112.52 131.456 113.36 130.472 114.392 130.496L114.08 132.32L113.792 132.296C112.184 132.296 111.752 133.856 111.44 135.824L110.312 143H108.752L110.696 130.688H112.256ZM115.933 135.848H119.509L119.533 135.632C119.653 134.456 120.013 131.96 118.381 131.96C116.893 131.96 116.101 134.744 115.933 135.848ZM120.877 137.168H115.693L115.645 137.528C115.453 138.752 115.189 141.728 116.893 141.728C118.261 141.728 118.765 139.808 118.933 138.824H120.541C120.205 140.696 119.101 143.192 116.821 143.192C113.581 143.192 113.749 139.352 114.133 136.88C114.493 134.672 115.645 130.496 118.621 130.496C121.501 130.496 121.357 134.264 120.997 136.424L120.877 137.168ZM125.144 141.92C126.584 141.92 127.112 140.504 127.712 136.712C128.024 134.816 128.48 131.768 126.68 131.768C125.024 131.768 124.544 134.312 124.208 136.496C123.824 138.872 123.44 141.92 125.144 141.92ZM125.264 130.688L125.144 131.528H125.192C125.768 130.856 126.392 130.496 127.28 130.496C130.136 130.496 129.728 134.216 129.32 136.712C128.888 139.496 128.24 143.192 125.384 143.192C124.496 143.192 123.872 142.736 123.512 142.04H123.464L122.576 147.704H121.016L123.704 130.688H125.264ZM135.935 136.64C136.367 133.976 136.511 131.768 134.975 131.768C133.247 131.768 132.719 134.504 132.383 136.592C131.591 141.68 132.383 141.92 133.295 141.92C134.807 141.92 135.311 140.504 135.935 136.64ZM138.287 130.688L136.343 143H134.783L134.927 142.04H134.879C134.327 142.736 133.559 143.192 132.671 143.192C130.703 143.192 129.911 142.088 130.751 136.712C131.207 133.952 131.855 130.496 134.831 130.496C135.695 130.496 136.175 130.856 136.559 131.528H136.607L136.727 130.688H138.287ZM141.998 130.688L141.734 132.32H141.782C142.262 131.456 143.102 130.472 144.134 130.496L143.822 132.32L143.534 132.296C141.926 132.296 141.494 133.856 141.182 135.824L140.054 143H138.494L140.438 130.688H141.998ZM149.083 136.64C149.515 133.976 149.659 131.768 148.123 131.768C146.395 131.768 145.867 134.504 145.531 136.592C144.739 141.68 145.531 141.92 146.443 141.92C147.955 141.92 148.459 140.504 149.083 136.64ZM151.435 130.688L149.491 143H147.931L148.075 142.04H148.027C147.475 142.736 146.707 143.192 145.819 143.192C143.851 143.192 143.059 142.088 143.899 136.712C144.355 133.952 145.003 130.496 147.979 130.496C148.843 130.496 149.323 130.856 149.707 131.528H149.755L149.875 130.688H151.435ZM157.835 130.688L157.618 132.128H155.579L153.851 143H152.291L154.019 132.128H152.699L152.915 130.688H154.235L154.763 127.328H156.323L155.795 130.688H157.835ZM160.209 130.688L158.265 143H156.705L158.649 130.688H160.209ZM161.169 127.04C161.073 127.688 160.473 128.216 159.849 128.216C159.201 128.216 158.745 127.688 158.841 127.04C158.937 126.416 159.561 125.888 160.209 125.888C160.833 125.888 161.265 126.416 161.169 127.04ZM165.592 130.496C168.832 130.496 168.472 134.528 168.112 136.832C167.728 139.16 166.816 143.192 163.576 143.192C160.336 143.192 160.672 139.16 161.056 136.832C161.416 134.528 162.352 130.496 165.592 130.496ZM165.352 131.96C163.48 131.96 162.832 135.656 162.664 136.832C162.472 138.032 161.92 141.728 163.792 141.728C165.664 141.728 166.312 138.032 166.504 136.832C166.672 135.656 167.224 131.96 165.352 131.96ZM172.467 130.688L172.323 131.672C173.067 130.952 173.979 130.496 174.939 130.496C177.123 130.496 176.979 132.512 176.715 134.192L175.323 143H173.763L175.131 134.36C175.371 132.896 175.443 131.768 174.147 131.768C172.371 131.768 171.987 133.712 171.795 135.008L170.523 143H168.963L170.907 130.688H172.467ZM180.686 141.512L177.422 146.864L176.366 146.312L179.102 140.744L180.686 141.512ZM193.592 130.976L193.304 132.776C192.992 132.368 192.56 131.96 191.96 131.96C189.944 131.96 189.2 135.464 188.96 136.88C188.768 138.104 188.456 141.728 190.304 141.728C191.024 141.728 191.576 141.176 192.032 140.624H192.08L191.768 142.568C191.24 142.952 190.496 143.192 189.896 143.192C187.064 143.192 186.992 139.208 187.328 137.096C187.688 134.768 188.864 130.496 191.984 130.496C192.56 130.496 193.136 130.664 193.592 130.976ZM196.936 130.688L196.672 132.32H196.72C197.2 131.456 198.04 130.472 199.072 130.496L198.76 132.32L198.472 132.296C196.864 132.296 196.432 133.856 196.12 135.824L194.992 143H193.432L195.376 130.688H196.936ZM200.613 135.848H204.189L204.213 135.632C204.333 134.456 204.693 131.96 203.061 131.96C201.573 131.96 200.781 134.744 200.613 135.848ZM205.557 137.168H200.373L200.325 137.528C200.133 138.752 199.869 141.728 201.573 141.728C202.941 141.728 203.445 139.808 203.613 138.824H205.221C204.885 140.696 203.781 143.192 201.501 143.192C198.261 143.192 198.429 139.352 198.813 136.88C199.173 134.672 200.325 130.496 203.301 130.496C206.181 130.496 206.037 134.264 205.677 136.424L205.557 137.168ZM212.247 136.64C212.703 133.832 212.727 131.768 211.287 131.768C209.535 131.768 208.983 134.84 208.695 136.592C208.527 137.744 207.615 141.92 209.607 141.92C211.263 141.92 211.743 139.88 212.247 136.64ZM211.095 143L211.239 142.04H211.191C210.639 142.736 209.871 143.192 208.983 143.192C206.415 143.192 206.535 140.072 207.063 136.712C207.615 133.352 208.407 130.496 211.143 130.496C212.007 130.496 212.487 130.856 212.871 131.528H212.919L214.143 123.8H215.703L212.655 143H211.095ZM217.207 135.848H220.783L220.807 135.632C220.927 134.456 221.287 131.96 219.655 131.96C218.167 131.96 217.375 134.744 217.207 135.848ZM222.151 137.168H216.967L216.919 137.528C216.727 138.752 216.463 141.728 218.167 141.728C219.535 141.728 220.039 139.808 220.207 138.824H221.815C221.479 140.696 220.375 143.192 218.095 143.192C214.855 143.192 215.023 139.352 215.407 136.88C215.767 134.672 216.919 130.496 219.895 130.496C222.775 130.496 222.631 134.264 222.271 136.424L222.151 137.168ZM226.537 130.688L226.393 131.672C227.137 130.952 228.049 130.496 229.009 130.496C231.193 130.496 231.049 132.512 230.785 134.192L229.393 143H227.833L229.201 134.36C229.441 132.896 229.513 131.768 228.217 131.768C226.441 131.768 226.057 133.712 225.865 135.008L224.593 143H223.033L224.977 130.688H226.537ZM237.756 130.688L237.54 132.128H235.5L233.772 143H232.212L233.94 132.128H232.62L232.836 130.688H234.156L234.684 127.328H236.244L235.716 130.688H237.756ZM240.131 130.688L238.187 143H236.627L238.571 130.688H240.131ZM241.091 127.04C240.995 127.688 240.395 128.216 239.771 128.216C239.123 128.216 238.667 127.688 238.763 127.04C238.859 126.416 239.483 125.888 240.131 125.888C240.755 125.888 241.187 126.416 241.091 127.04ZM246.161 136.64C246.593 133.976 246.737 131.768 245.201 131.768C243.473 131.768 242.945 134.504 242.609 136.592C241.817 141.68 242.609 141.92 243.521 141.92C245.033 141.92 245.537 140.504 246.161 136.64ZM248.513 130.688L246.569 143H245.009L245.153 142.04H245.105C244.553 142.736 243.785 143.192 242.897 143.192C240.929 143.192 240.137 142.088 240.977 136.712C241.433 133.952 242.081 130.496 245.057 130.496C245.921 130.496 246.401 130.856 246.785 131.528H246.833L246.953 130.688H248.513ZM253.329 123.8L250.281 143H248.721L251.769 123.8H253.329ZM259.558 135.848H263.134L263.158 135.632C263.278 134.456 263.638 131.96 262.006 131.96C260.518 131.96 259.726 134.744 259.558 135.848ZM264.502 137.168H259.318L259.27 137.528C259.078 138.752 258.814 141.728 260.518 141.728C261.886 141.728 262.39 139.808 262.558 138.824H264.166C263.83 140.696 262.726 143.192 260.446 143.192C257.206 143.192 257.374 139.352 257.758 136.88C258.118 134.672 259.27 130.496 262.246 130.496C265.126 130.496 264.982 134.264 264.622 136.424L264.502 137.168ZM273.665 130.688L268.985 143H267.305L266.441 130.688H268.025L268.385 138.392C268.433 139.16 268.433 139.928 268.481 140.696H268.577C268.793 139.928 269.033 139.136 269.273 138.392L272.057 130.688H273.665ZM278.786 136.64C279.218 133.976 279.362 131.768 277.826 131.768C276.098 131.768 275.57 134.504 275.234 136.592C274.442 141.68 275.234 141.92 276.146 141.92C277.658 141.92 278.162 140.504 278.786 136.64ZM281.138 130.688L279.194 143H277.634L277.778 142.04H277.73C277.178 142.736 276.41 143.192 275.522 143.192C273.554 143.192 272.762 142.088 273.602 136.712C274.058 133.952 274.706 130.496 277.682 130.496C278.546 130.496 279.026 130.856 279.41 131.528H279.458L279.578 130.688H281.138ZM285.954 123.8L282.906 143H281.346L284.394 123.8H285.954ZM286.92 130.688H288.48L287.256 138.416C286.992 140.096 286.824 141.728 288.36 141.728C289.944 141.728 290.28 140.096 290.568 138.416L291.792 130.688H293.352L291.936 139.736C291.6 141.8 290.376 143.192 288.168 143.192C285.984 143.192 285.168 141.824 285.504 139.736L286.92 130.688ZM299.271 136.64C299.703 133.976 299.847 131.768 298.311 131.768C296.583 131.768 296.055 134.504 295.719 136.592C294.927 141.68 295.719 141.92 296.631 141.92C298.143 141.92 298.647 140.504 299.271 136.64ZM301.623 130.688L299.679 143H298.119L298.263 142.04H298.215C297.663 142.736 296.895 143.192 296.007 143.192C294.039 143.192 293.247 142.088 294.087 136.712C294.543 133.952 295.191 130.496 298.167 130.496C299.031 130.496 299.511 130.856 299.895 131.528H299.943L300.063 130.688H301.623ZM308.022 130.688L307.806 132.128H305.766L304.038 143H302.478L304.206 132.128H302.886L303.102 130.688H304.422L304.95 127.328H306.51L305.982 130.688H308.022ZM310.397 130.688L308.453 143H306.893L308.837 130.688H310.397ZM311.357 127.04C311.261 127.688 310.661 128.216 310.037 128.216C309.389 128.216 308.933 127.688 309.029 127.04C309.125 126.416 309.749 125.888 310.397 125.888C311.021 125.888 311.453 126.416 311.357 127.04ZM315.779 130.496C319.019 130.496 318.659 134.528 318.299 136.832C317.915 139.16 317.003 143.192 313.763 143.192C310.523 143.192 310.859 139.16 311.243 136.832C311.603 134.528 312.539 130.496 315.779 130.496ZM315.539 131.96C313.667 131.96 313.019 135.656 312.851 136.832C312.659 138.032 312.107 141.728 313.979 141.728C315.851 141.728 316.499 138.032 316.691 136.832C316.859 135.656 317.411 131.96 315.539 131.96ZM322.654 130.688L322.51 131.672C323.254 130.952 324.166 130.496 325.126 130.496C327.31 130.496 327.166 132.512 326.902 134.192L325.51 143H323.95L325.318 134.36C325.558 132.896 325.63 131.768 324.334 131.768C322.558 131.768 322.174 133.712 321.982 135.008L320.71 143H319.15L321.094 130.688H322.654ZM330.874 141.512L327.61 146.864L326.554 146.312L329.29 140.744L330.874 141.512ZM40.0872 165.64C40.5192 162.976 40.6632 160.768 39.1272 160.768C37.3992 160.768 36.8712 163.504 36.5352 165.592C35.7432 170.68 36.5352 170.92 37.4472 170.92C38.9592 170.92 39.4632 169.504 40.0872 165.64ZM42.4392 159.688L40.4952 172H38.9352L39.0792 171.04H39.0312C38.4792 171.736 37.7112 172.192 36.8232 172.192C34.8552 172.192 34.0632 171.088 34.9032 165.712C35.3592 162.952 36.0072 159.496 38.9832 159.496C39.8472 159.496 40.3272 159.856 40.7112 160.528H40.7592L40.8792 159.688H42.4392ZM46.1504 159.688L46.0064 160.672C46.7504 159.952 47.6624 159.496 48.6224 159.496C50.8064 159.496 50.6624 161.512 50.3984 163.192L49.0064 172H47.4464L48.8144 163.36C49.0544 161.896 49.1264 160.768 47.8304 160.768C46.0544 160.768 45.6704 162.712 45.4784 164.008L44.2064 172H42.6464L44.5904 159.688H46.1504ZM56.9857 165.64C57.4417 162.832 57.4657 160.768 56.0257 160.768C54.2737 160.768 53.7217 163.84 53.4337 165.592C53.2657 166.744 52.3537 170.92 54.3457 170.92C56.0017 170.92 56.4817 168.88 56.9857 165.64ZM55.8337 172L55.9777 171.04H55.9297C55.3777 171.736 54.6097 172.192 53.7217 172.192C51.1537 172.192 51.2737 169.072 51.8017 165.712C52.3537 162.352 53.1457 159.496 55.8817 159.496C56.7457 159.496 57.2257 159.856 57.6097 160.528H57.6577L58.8817 152.8H60.4417L57.3937 172H55.8337ZM69.5564 159.496C72.7964 159.496 72.4364 163.528 72.0764 165.832C71.6924 168.16 70.7804 172.192 67.5404 172.192C64.3004 172.192 64.6364 168.16 65.0204 165.832C65.3804 163.528 66.3164 159.496 69.5564 159.496ZM69.3164 160.96C67.4444 160.96 66.7964 164.656 66.6284 165.832C66.4364 167.032 65.8844 170.728 67.7564 170.728C69.6284 170.728 70.2764 167.032 70.4684 165.832C70.6364 164.656 71.1884 160.96 69.3164 160.96ZM76.4317 159.688L76.2877 160.672C77.0317 159.952 77.9437 159.496 78.9037 159.496C81.0877 159.496 80.9437 161.512 80.6797 163.192L79.2877 172H77.7277L79.0957 163.36C79.3357 161.896 79.4077 160.768 78.1117 160.768C76.3357 160.768 75.9517 162.712 75.7597 164.008L74.4877 172H72.9277L74.8717 159.688H76.4317ZM83.6429 166.048C83.4269 167.392 82.8749 170.728 84.8429 170.728C86.4989 170.728 86.9549 168.304 87.3869 165.616C87.7469 163.36 88.0109 160.768 86.3069 160.768C85.1789 160.768 84.3629 161.536 83.6429 166.048ZM89.7389 159.688L87.7229 172.456C87.3629 174.76 86.9309 176.896 83.8109 176.896C81.6509 176.896 80.8349 175.6 81.1709 173.488L81.2429 173.032H82.7789L82.7549 173.248C82.5629 174.4 82.7069 175.432 84.0509 175.432C85.8029 175.432 85.8989 173.896 86.1149 172.576L86.3549 171.136C85.7309 171.736 85.0349 172 84.2189 172C81.1469 172 81.7709 167.752 82.1069 165.568C82.4429 163.504 83.3309 159.496 86.1869 159.496C87.0269 159.496 87.6509 159.88 88.0109 160.528H88.0589L88.1789 159.688H89.7389ZM95.1033 159.496C98.3433 159.496 97.9833 163.528 97.6233 165.832C97.2393 168.16 96.3273 172.192 93.0873 172.192C89.8473 172.192 90.1833 168.16 90.5673 165.832C90.9273 163.528 91.8633 159.496 95.1033 159.496ZM94.8633 160.96C92.9913 160.96 92.3433 164.656 92.1753 165.832C91.9833 167.032 91.4313 170.728 93.3033 170.728C95.1753 170.728 95.8233 167.032 96.0153 165.832C96.1833 164.656 96.7353 160.96 94.8633 160.96ZM101.979 159.688L100.035 172H98.4745L100.419 159.688H101.979ZM102.939 156.04C102.843 156.688 102.243 157.216 101.619 157.216C100.971 157.216 100.515 156.688 100.611 156.04C100.707 155.416 101.331 154.888 101.979 154.888C102.603 154.888 103.035 155.416 102.939 156.04ZM105.705 159.688L105.561 160.672C106.305 159.952 107.217 159.496 108.177 159.496C110.361 159.496 110.217 161.512 109.953 163.192L108.561 172H107.001L108.369 163.36C108.609 161.896 108.681 160.768 107.385 160.768C105.609 160.768 105.225 162.712 105.033 164.008L103.761 172H102.201L104.145 159.688H105.705ZM112.916 166.048C112.7 167.392 112.148 170.728 114.116 170.728C115.772 170.728 116.228 168.304 116.66 165.616C117.02 163.36 117.284 160.768 115.58 160.768C114.452 160.768 113.636 161.536 112.916 166.048ZM119.012 159.688L116.996 172.456C116.636 174.76 116.204 176.896 113.084 176.896C110.924 176.896 110.108 175.6 110.444 173.488L110.516 173.032H112.052L112.028 173.248C111.836 174.4 111.98 175.432 113.324 175.432C115.076 175.432 115.172 173.896 115.388 172.576L115.628 171.136C115.004 171.736 114.308 172 113.492 172C110.42 172 111.044 167.752 111.38 165.568C111.716 163.504 112.604 159.496 115.46 159.496C116.3 159.496 116.924 159.88 117.284 160.528H117.332L117.452 159.688H119.012ZM131.049 159.976L130.761 161.776C130.449 161.368 130.017 160.96 129.417 160.96C127.401 160.96 126.657 164.464 126.417 165.88C126.225 167.104 125.913 170.728 127.761 170.728C128.481 170.728 129.033 170.176 129.489 169.624H129.537L129.225 171.568C128.697 171.952 127.953 172.192 127.353 172.192C124.521 172.192 124.449 168.208 124.785 166.096C125.145 163.768 126.321 159.496 129.441 159.496C130.017 159.496 130.593 159.664 131.049 159.976ZM136.697 165.64C137.129 162.976 137.273 160.768 135.737 160.768C134.009 160.768 133.481 163.504 133.145 165.592C132.353 170.68 133.145 170.92 134.057 170.92C135.569 170.92 136.073 169.504 136.697 165.64ZM139.049 159.688L137.105 172H135.545L135.689 171.04H135.641C135.089 171.736 134.321 172.192 133.433 172.192C131.465 172.192 130.673 171.088 131.513 165.712C131.969 162.952 132.617 159.496 135.593 159.496C136.457 159.496 136.937 159.856 137.321 160.528H137.369L137.489 159.688H139.049ZM142.76 159.688L142.496 161.32H142.544C143.024 160.456 143.864 159.472 144.896 159.496L144.584 161.32L144.296 161.296C142.688 161.296 142.256 162.856 141.944 164.824L140.816 172H139.256L141.2 159.688H142.76ZM146.437 164.848H150.013L150.037 164.632C150.157 163.456 150.517 160.96 148.885 160.96C147.397 160.96 146.605 163.744 146.437 164.848ZM151.381 166.168H146.197L146.149 166.528C145.957 167.752 145.693 170.728 147.397 170.728C148.765 170.728 149.269 168.808 149.437 167.824H151.045C150.709 169.696 149.605 172.192 147.325 172.192C144.085 172.192 144.253 168.352 144.637 165.88C144.997 163.672 146.149 159.496 149.125 159.496C152.005 159.496 151.861 163.264 151.501 165.424L151.381 166.168ZM154.664 164.848H158.24L158.264 164.632C158.384 163.456 158.744 160.96 157.112 160.96C155.624 160.96 154.832 163.744 154.664 164.848ZM159.608 166.168H154.424L154.376 166.528C154.184 167.752 153.92 170.728 155.624 170.728C156.992 170.728 157.496 168.808 157.664 167.824H159.272C158.936 169.696 157.832 172.192 155.552 172.192C152.312 172.192 152.48 168.352 152.864 165.88C153.224 163.672 154.376 159.496 157.352 159.496C160.232 159.496 160.088 163.264 159.728 165.424L159.608 166.168ZM163.994 159.688L163.73 161.32H163.778C164.258 160.456 165.098 159.472 166.13 159.496L165.818 161.32L165.53 161.296C163.922 161.296 163.49 162.856 163.178 164.824L162.05 172H160.49L162.434 159.688H163.994ZM176.212 165.64C176.668 162.832 176.692 160.768 175.252 160.768C173.5 160.768 172.948 163.84 172.66 165.592C172.492 166.744 171.58 170.92 173.572 170.92C175.228 170.92 175.708 168.88 176.212 165.64ZM175.06 172L175.204 171.04H175.156C174.604 171.736 173.836 172.192 172.948 172.192C170.38 172.192 170.5 169.072 171.028 165.712C171.58 162.352 172.372 159.496 175.108 159.496C175.972 159.496 176.452 159.856 176.836 160.528H176.884L178.108 152.8H179.668L176.62 172H175.06ZM181.171 164.848H184.747L184.771 164.632C184.891 163.456 185.251 160.96 183.619 160.96C182.131 160.96 181.339 163.744 181.171 164.848ZM186.115 166.168H180.931L180.883 166.528C180.691 167.752 180.427 170.728 182.131 170.728C183.499 170.728 184.003 168.808 184.171 167.824H185.779C185.443 169.696 184.339 172.192 182.059 172.192C178.819 172.192 178.987 168.352 179.371 165.88C179.731 163.672 180.883 159.496 183.859 159.496C186.739 159.496 186.595 163.264 186.235 165.424L186.115 166.168ZM195.278 159.688L190.598 172H188.918L188.054 159.688H189.638L189.998 167.392C190.046 168.16 190.046 168.928 190.094 169.696H190.19C190.406 168.928 190.646 168.136 190.886 167.392L193.67 159.688H195.278ZM196.992 164.848H200.568L200.592 164.632C200.712 163.456 201.072 160.96 199.44 160.96C197.952 160.96 197.16 163.744 196.992 164.848ZM201.936 166.168H196.752L196.704 166.528C196.512 167.752 196.248 170.728 197.952 170.728C199.32 170.728 199.824 168.808 199.992 167.824H201.6C201.264 169.696 200.16 172.192 197.88 172.192C194.64 172.192 194.808 168.352 195.192 165.88C195.552 163.672 196.704 159.496 199.68 159.496C202.56 159.496 202.416 163.264 202.056 165.424L201.936 166.168ZM207.426 152.8L204.378 172H202.818L205.866 152.8H207.426ZM211.705 159.496C214.945 159.496 214.585 163.528 214.225 165.832C213.841 168.16 212.929 172.192 209.689 172.192C206.449 172.192 206.785 168.16 207.169 165.832C207.529 163.528 208.465 159.496 211.705 159.496ZM211.465 160.96C209.593 160.96 208.945 164.656 208.777 165.832C208.585 167.032 208.033 170.728 209.905 170.728C211.777 170.728 212.425 167.032 212.617 165.832C212.785 164.656 213.337 160.96 211.465 160.96ZM218.46 170.92C219.9 170.92 220.428 169.504 221.028 165.712C221.34 163.816 221.796 160.768 219.996 160.768C218.34 160.768 217.86 163.312 217.524 165.496C217.14 167.872 216.756 170.92 218.46 170.92ZM218.58 159.688L218.46 160.528H218.508C219.084 159.856 219.708 159.496 220.596 159.496C223.452 159.496 223.044 163.216 222.636 165.712C222.204 168.496 221.556 172.192 218.7 172.192C217.812 172.192 217.188 171.736 216.828 171.04H216.78L215.892 176.704H214.332L217.02 159.688H218.58ZM226.947 159.688L226.779 160.72H226.827C227.499 160 228.435 159.496 229.371 159.496C230.379 159.496 231.147 160.024 231.411 160.96C232.203 160.048 233.067 159.496 234.195 159.496C236.499 159.496 236.379 161.32 236.091 163.144L234.699 172H233.139L234.531 163.192C234.723 162.016 234.795 160.768 233.523 160.768C231.675 160.768 231.291 162.856 231.051 164.416L229.851 172H228.291L229.683 163.216C229.875 162.064 229.995 160.768 228.723 160.768C226.827 160.768 226.419 163.12 226.155 164.68L225.003 172H223.443L225.387 159.688H226.947ZM239.25 164.848H242.826L242.85 164.632C242.97 163.456 243.33 160.96 241.698 160.96C240.21 160.96 239.418 163.744 239.25 164.848ZM244.194 166.168H239.01L238.962 166.528C238.77 167.752 238.506 170.728 240.21 170.728C241.578 170.728 242.082 168.808 242.25 167.824H243.858C243.522 169.696 242.418 172.192 240.138 172.192C236.898 172.192 237.066 168.352 237.45 165.88C237.81 163.672 238.962 159.496 241.938 159.496C244.818 159.496 244.674 163.264 244.314 165.424L244.194 166.168ZM248.58 159.688L248.436 160.672C249.18 159.952 250.092 159.496 251.052 159.496C253.236 159.496 253.092 161.512 252.828 163.192L251.436 172H249.876L251.244 163.36C251.484 161.896 251.556 160.768 250.26 160.768C248.484 160.768 248.1 162.712 247.908 164.008L246.636 172H245.076L247.02 159.688H248.58ZM259.799 159.688L259.583 161.128H257.543L255.815 172H254.255L255.983 161.128H254.663L254.879 159.688H256.199L256.727 156.328H258.287L257.759 159.688H259.799ZM267.143 159.688L266.879 161.32H266.927C267.407 160.456 268.247 159.472 269.279 159.496L268.967 161.32L268.679 161.296C267.071 161.296 266.639 162.856 266.327 164.824L265.199 172H263.639L265.583 159.688H267.143ZM270.82 164.848H274.396L274.42 164.632C274.54 163.456 274.9 160.96 273.268 160.96C271.78 160.96 270.988 163.744 270.82 164.848ZM275.764 166.168H270.58L270.532 166.528C270.34 167.752 270.076 170.728 271.78 170.728C273.148 170.728 273.652 168.808 273.82 167.824H275.428C275.092 169.696 273.988 172.192 271.708 172.192C268.468 172.192 268.636 168.352 269.02 165.88C269.38 163.672 270.532 159.496 273.508 159.496C276.388 159.496 276.244 163.264 275.884 165.424L275.764 166.168ZM283.198 160.288L282.91 162.208H282.862C282.502 161.56 281.878 160.96 281.014 160.96C280.078 160.96 279.358 161.68 279.214 162.592C279.022 163.768 279.934 164.488 280.774 165.304C281.662 166.144 282.502 167.056 282.238 168.664C281.926 170.632 280.366 172.192 278.326 172.192C277.558 172.192 276.742 171.832 276.214 171.352L276.502 169.528C277.006 170.152 277.558 170.728 278.494 170.728C279.574 170.728 280.438 169.888 280.606 168.856C280.798 167.632 279.934 166.816 279.07 165.928C278.23 165.064 277.366 164.104 277.606 162.64C277.894 160.792 279.334 159.496 281.182 159.496C281.974 159.496 282.646 159.808 283.198 160.288ZM288.486 159.496C291.726 159.496 291.366 163.528 291.006 165.832C290.622 168.16 289.71 172.192 286.47 172.192C283.23 172.192 283.566 168.16 283.95 165.832C284.31 163.528 285.246 159.496 288.486 159.496ZM288.246 160.96C286.374 160.96 285.726 164.656 285.558 165.832C285.366 167.032 284.814 170.728 286.686 170.728C288.558 170.728 289.206 167.032 289.398 165.832C289.566 164.656 290.118 160.96 288.246 160.96ZM293.705 159.688H295.265L294.041 167.416C293.777 169.096 293.609 170.728 295.145 170.728C296.729 170.728 297.065 169.096 297.353 167.416L298.577 159.688H300.137L298.721 168.736C298.385 170.8 297.161 172.192 294.953 172.192C292.769 172.192 291.953 170.824 292.289 168.736L293.705 159.688ZM303.752 159.688L303.488 161.32H303.536C304.016 160.456 304.856 159.472 305.888 159.496L305.576 161.32L305.288 161.296C303.68 161.296 303.248 162.856 302.936 164.824L301.808 172H300.248L302.192 159.688H303.752ZM311.869 159.976L311.581 161.776C311.269 161.368 310.837 160.96 310.237 160.96C308.221 160.96 307.477 164.464 307.237 165.88C307.045 167.104 306.733 170.728 308.581 170.728C309.301 170.728 309.853 170.176 310.309 169.624H310.357L310.045 171.568C309.517 171.952 308.773 172.192 308.173 172.192C305.341 172.192 305.269 168.208 305.605 166.096C305.965 163.768 307.141 159.496 310.261 159.496C310.837 159.496 311.413 159.664 311.869 159.976ZM314.109 164.848H317.685L317.709 164.632C317.829 163.456 318.189 160.96 316.557 160.96C315.069 160.96 314.277 163.744 314.109 164.848ZM319.053 166.168H313.869L313.821 166.528C313.629 167.752 313.365 170.728 315.069 170.728C316.437 170.728 316.941 168.808 317.109 167.824H318.717C318.381 169.696 317.277 172.192 314.997 172.192C311.757 172.192 311.925 168.352 312.309 165.88C312.669 163.672 313.821 159.496 316.797 159.496C319.677 159.496 319.533 163.264 319.173 165.424L319.053 166.168ZM326.487 160.288L326.199 162.208H326.151C325.791 161.56 325.167 160.96 324.303 160.96C323.367 160.96 322.647 161.68 322.503 162.592C322.311 163.768 323.223 164.488 324.063 165.304C324.951 166.144 325.791 167.056 325.527 168.664C325.215 170.632 323.655 172.192 321.615 172.192C320.847 172.192 320.031 171.832 319.503 171.352L319.791 169.528C320.295 170.152 320.847 170.728 321.783 170.728C322.863 170.728 323.727 169.888 323.895 168.856C324.087 167.632 323.223 166.816 322.359 165.928C321.519 165.064 320.655 164.104 320.895 162.64C321.183 160.792 322.623 159.496 324.471 159.496C325.263 159.496 325.935 159.808 326.487 160.288ZM328.391 169.744C329.063 169.744 329.519 170.296 329.423 170.968C329.303 171.64 328.679 172.192 328.007 172.192C327.335 172.192 326.855 171.64 326.975 170.968C327.071 170.296 327.719 169.744 328.391 169.744ZM35.8771 182.664C39.9571 182.664 39.4771 187.968 38.8531 191.952C38.3011 195.336 37.1251 201.24 32.9251 201.24C28.9651 201.24 29.3011 196.176 29.9731 191.952C30.6931 187.368 32.0371 182.664 35.8771 182.664ZM35.6131 184.296C33.0451 184.176 32.2051 188.76 31.7011 191.952C31.1971 195.144 30.5971 199.608 33.1891 199.608C35.7811 199.608 36.6211 195.144 37.1251 191.952C37.6291 188.76 38.2051 184.296 35.6131 184.296ZM41.26 188.688H42.82L41.596 196.416C41.332 198.096 41.164 199.728 42.7 199.728C44.284 199.728 44.62 198.096 44.908 196.416L46.132 188.688H47.692L46.276 197.736C45.94 199.8 44.716 201.192 42.508 201.192C40.324 201.192 39.508 199.824 39.844 197.736L41.26 188.688ZM51.3067 188.688L51.0427 190.32H51.0907C51.5707 189.456 52.4107 188.472 53.4427 188.496L53.1307 190.32L52.8427 190.296C51.2347 190.296 50.8027 191.856 50.4907 193.824L49.3627 201H47.8027L49.7467 188.688H51.3067ZM64.5567 188.976L64.2687 190.776C63.9567 190.368 63.5247 189.96 62.9247 189.96C60.9087 189.96 60.1647 193.464 59.9247 194.88C59.7327 196.104 59.4207 199.728 61.2687 199.728C61.9887 199.728 62.5407 199.176 62.9967 198.624H63.0447L62.7327 200.568C62.2047 200.952 61.4607 201.192 60.8607 201.192C58.0287 201.192 57.9567 197.208 58.2927 195.096C58.6527 192.768 59.8287 188.496 62.9487 188.496C63.5247 188.496 64.1007 188.664 64.5567 188.976ZM69.5564 188.496C72.7964 188.496 72.4364 192.528 72.0764 194.832C71.6924 197.16 70.7804 201.192 67.5404 201.192C64.3004 201.192 64.6364 197.16 65.0204 194.832C65.3804 192.528 66.3164 188.496 69.5564 188.496ZM69.3164 189.96C67.4444 189.96 66.7964 193.656 66.6284 194.832C66.4364 196.032 65.8844 199.728 67.7564 199.728C69.6284 199.728 70.2764 196.032 70.4684 194.832C70.6364 193.656 71.1884 189.96 69.3164 189.96ZM76.4317 188.688L76.2637 189.72H76.3117C76.9837 189 77.9197 188.496 78.8557 188.496C79.8637 188.496 80.6317 189.024 80.8957 189.96C81.6877 189.048 82.5517 188.496 83.6797 188.496C85.9837 188.496 85.8637 190.32 85.5757 192.144L84.1837 201H82.6237L84.0157 192.192C84.2077 191.016 84.2797 189.768 83.0077 189.768C81.1597 189.768 80.7757 191.856 80.5357 193.416L79.3357 201H77.7757L79.1677 192.216C79.3597 191.064 79.4797 189.768 78.2077 189.768C76.3117 189.768 75.9037 192.12 75.6397 193.68L74.4877 201H72.9277L74.8717 188.688H76.4317ZM89.8379 188.688L89.6699 189.72H89.7179C90.3899 189 91.3259 188.496 92.2619 188.496C93.2699 188.496 94.0379 189.024 94.3019 189.96C95.0939 189.048 95.9579 188.496 97.0859 188.496C99.3899 188.496 99.2699 190.32 98.9819 192.144L97.5899 201H96.0299L97.4219 192.192C97.6139 191.016 97.6859 189.768 96.4139 189.768C94.5659 189.768 94.1819 191.856 93.9419 193.416L92.7419 201H91.1819L92.5739 192.216C92.7659 191.064 92.8859 189.768 91.6139 189.768C89.7179 189.768 89.3099 192.12 89.0459 193.68L87.8939 201H86.3339L88.2779 188.688H89.8379ZM103.244 188.688L101.3 201H99.7402L101.684 188.688H103.244ZM104.204 185.04C104.108 185.688 103.508 186.216 102.884 186.216C102.236 186.216 101.78 185.688 101.876 185.04C101.972 184.416 102.596 183.888 103.244 183.888C103.868 183.888 104.3 184.416 104.204 185.04ZM109.659 188.688L109.443 190.128H107.403L105.675 201H104.115L105.843 190.128H104.523L104.739 188.688H106.059L106.587 185.328H108.147L107.619 188.688H109.659ZM112.01 188.688L111.842 189.72H111.89C112.562 189 113.498 188.496 114.434 188.496C115.442 188.496 116.21 189.024 116.474 189.96C117.266 189.048 118.13 188.496 119.258 188.496C121.562 188.496 121.442 190.32 121.154 192.144L119.762 201H118.202L119.594 192.192C119.786 191.016 119.858 189.768 118.586 189.768C116.738 189.768 116.354 191.856 116.114 193.416L114.914 201H113.354L114.746 192.216C114.938 191.064 115.058 189.768 113.786 189.768C111.89 189.768 111.482 192.12 111.218 193.68L110.066 201H108.506L110.45 188.688H112.01ZM124.312 193.848H127.888L127.912 193.632C128.032 192.456 128.392 189.96 126.76 189.96C125.272 189.96 124.48 192.744 124.312 193.848ZM129.256 195.168H124.072L124.024 195.528C123.832 196.752 123.568 199.728 125.272 199.728C126.64 199.728 127.144 197.808 127.312 196.824H128.92C128.584 198.696 127.48 201.192 125.2 201.192C121.96 201.192 122.128 197.352 122.512 194.88C122.872 192.672 124.024 188.496 127 188.496C129.88 188.496 129.736 192.264 129.376 194.424L129.256 195.168ZM133.643 188.688L133.499 189.672C134.243 188.952 135.155 188.496 136.115 188.496C138.299 188.496 138.155 190.512 137.891 192.192L136.499 201H134.939L136.307 192.36C136.547 190.896 136.619 189.768 135.323 189.768C133.547 189.768 133.163 191.712 132.971 193.008L131.699 201H130.139L132.083 188.688H133.643ZM144.862 188.688L144.646 190.128H142.606L140.878 201H139.318L141.046 190.128H139.726L139.942 188.688H141.262L141.79 185.328H143.35L142.822 188.688H144.862ZM154.893 188.688L154.677 190.128H152.637L150.909 201H149.349L151.077 190.128H149.757L149.973 188.688H151.293L151.821 185.328H153.381L152.853 188.688H154.893ZM158.9 188.496C162.14 188.496 161.78 192.528 161.42 194.832C161.036 197.16 160.124 201.192 156.884 201.192C153.644 201.192 153.98 197.16 154.364 194.832C154.724 192.528 155.66 188.496 158.9 188.496ZM158.66 189.96C156.788 189.96 156.14 193.656 155.972 194.832C155.78 196.032 155.228 199.728 157.1 199.728C158.972 199.728 159.62 196.032 159.812 194.832C159.98 193.656 160.532 189.96 158.66 189.96ZM169.382 193.848H172.958L172.982 193.632C173.102 192.456 173.462 189.96 171.83 189.96C170.342 189.96 169.55 192.744 169.382 193.848ZM174.326 195.168H169.142L169.094 195.528C168.902 196.752 168.638 199.728 170.342 199.728C171.71 199.728 172.214 197.808 172.382 196.824H173.99C173.654 198.696 172.55 201.192 170.27 201.192C167.03 201.192 167.198 197.352 167.582 194.88C167.942 192.672 169.094 188.496 172.07 188.496C174.95 188.496 174.806 192.264 174.446 194.424L174.326 195.168ZM183.612 188.688L179.892 194.712L181.668 201H179.94L179.172 197.76C179.028 197.088 178.86 196.416 178.86 195.696H178.764C178.548 196.416 178.212 197.112 177.828 197.784L176.1 201H174.348L178.164 194.712L176.58 188.688H178.308L178.884 191.424C179.052 192.24 179.172 193.056 179.22 193.92H179.316C179.652 193.056 179.964 192.192 180.444 191.352L181.884 188.688H183.612ZM189.807 188.976L189.519 190.776C189.207 190.368 188.775 189.96 188.175 189.96C186.159 189.96 185.415 193.464 185.175 194.88C184.983 196.104 184.671 199.728 186.519 199.728C187.239 199.728 187.791 199.176 188.247 198.624H188.295L187.983 200.568C187.455 200.952 186.711 201.192 186.111 201.192C183.279 201.192 183.207 197.208 183.543 195.096C183.903 192.768 185.079 188.496 188.199 188.496C188.775 188.496 189.351 188.664 189.807 188.976ZM192.046 193.848H195.622L195.646 193.632C195.766 192.456 196.126 189.96 194.494 189.96C193.006 189.96 192.214 192.744 192.046 193.848ZM196.99 195.168H191.806L191.758 195.528C191.566 196.752 191.302 199.728 193.006 199.728C194.374 199.728 194.878 197.808 195.046 196.824H196.654C196.318 198.696 195.214 201.192 192.934 201.192C189.694 201.192 189.862 197.352 190.246 194.88C190.606 192.672 191.758 188.496 194.734 188.496C197.614 188.496 197.47 192.264 197.11 194.424L196.99 195.168ZM202.481 181.8L199.433 201H197.873L200.921 181.8H202.481ZM206.231 181.8L203.183 201H201.623L204.671 181.8H206.231ZM207.75 193.848H211.326L211.35 193.632C211.47 192.456 211.83 189.96 210.198 189.96C208.71 189.96 207.918 192.744 207.75 193.848ZM212.694 195.168H207.51L207.462 195.528C207.27 196.752 207.006 199.728 208.71 199.728C210.078 199.728 210.582 197.808 210.75 196.824H212.358C212.022 198.696 210.918 201.192 208.638 201.192C205.398 201.192 205.566 197.352 205.95 194.88C206.31 192.672 207.462 188.496 210.438 188.496C213.318 188.496 213.174 192.264 212.814 194.424L212.694 195.168ZM217.08 188.688L216.936 189.672C217.68 188.952 218.592 188.496 219.552 188.496C221.736 188.496 221.592 190.512 221.328 192.192L219.936 201H218.376L219.744 192.36C219.984 190.896 220.056 189.768 218.76 189.768C216.984 189.768 216.6 191.712 216.408 193.008L215.136 201H213.576L215.52 188.688H217.08ZM228.947 188.976L228.659 190.776C228.347 190.368 227.915 189.96 227.315 189.96C225.299 189.96 224.555 193.464 224.315 194.88C224.123 196.104 223.811 199.728 225.659 199.728C226.379 199.728 226.931 199.176 227.387 198.624H227.435L227.123 200.568C226.595 200.952 225.851 201.192 225.251 201.192C222.419 201.192 222.347 197.208 222.683 195.096C223.043 192.768 224.219 188.496 227.339 188.496C227.915 188.496 228.491 188.664 228.947 188.976ZM231.187 193.848H234.763L234.787 193.632C234.907 192.456 235.267 189.96 233.635 189.96C232.147 189.96 231.355 192.744 231.187 193.848ZM236.131 195.168H230.947L230.899 195.528C230.707 196.752 230.443 199.728 232.147 199.728C233.515 199.728 234.019 197.808 234.187 196.824H235.795C235.459 198.696 234.355 201.192 232.075 201.192C228.835 201.192 229.003 197.352 229.387 194.88C229.747 192.672 230.899 188.496 233.875 188.496C236.755 188.496 236.611 192.264 236.251 194.424L236.131 195.168ZM240.206 199.512L236.942 204.864L235.886 204.312L238.622 198.744L240.206 199.512ZM249.775 188.688L247.831 201H246.271L248.215 188.688H249.775ZM250.735 185.04C250.639 185.688 250.039 186.216 249.415 186.216C248.767 186.216 248.311 185.688 248.407 185.04C248.503 184.416 249.127 183.888 249.775 183.888C250.399 183.888 250.831 184.416 250.735 185.04ZM253.502 188.688L253.358 189.672C254.102 188.952 255.014 188.496 255.974 188.496C258.158 188.496 258.014 190.512 257.75 192.192L256.358 201H254.798L256.166 192.36C256.406 190.896 256.478 189.768 255.182 189.768C253.406 189.768 253.022 191.712 252.83 193.008L251.558 201H249.998L251.942 188.688H253.502ZM264.721 188.688L264.505 190.128H262.465L260.737 201H259.177L260.905 190.128H259.585L259.801 188.688H261.121L261.649 185.328H263.209L262.681 188.688H264.721ZM265.968 193.848H269.544L269.568 193.632C269.688 192.456 270.048 189.96 268.416 189.96C266.928 189.96 266.136 192.744 265.968 193.848ZM270.912 195.168H265.728L265.68 195.528C265.488 196.752 265.224 199.728 266.928 199.728C268.296 199.728 268.8 197.808 268.968 196.824H270.576C270.24 198.696 269.136 201.192 266.856 201.192C263.616 201.192 263.784 197.352 264.168 194.88C264.528 192.672 265.68 188.496 268.656 188.496C271.536 188.496 271.392 192.264 271.032 194.424L270.912 195.168ZM273.979 195.048C273.763 196.392 273.211 199.728 275.179 199.728C276.835 199.728 277.291 197.304 277.723 194.616C278.083 192.36 278.347 189.768 276.643 189.768C275.515 189.768 274.699 190.536 273.979 195.048ZM280.075 188.688L278.059 201.456C277.699 203.76 277.267 205.896 274.147 205.896C271.987 205.896 271.171 204.6 271.507 202.488L271.579 202.032H273.115L273.091 202.248C272.899 203.4 273.043 204.432 274.387 204.432C276.139 204.432 276.235 202.896 276.451 201.576L276.691 200.136C276.067 200.736 275.371 201 274.555 201C271.483 201 272.107 196.752 272.443 194.568C272.779 192.504 273.667 188.496 276.523 188.496C277.363 188.496 277.987 188.88 278.347 189.528H278.395L278.515 188.688H280.075ZM283.783 188.688L283.519 190.32H283.567C284.047 189.456 284.887 188.472 285.919 188.496L285.607 190.32L285.319 190.296C283.711 190.296 283.279 191.856 282.967 193.824L281.839 201H280.279L282.223 188.688H283.783ZM288.705 188.688L286.761 201H285.201L287.145 188.688H288.705ZM289.665 185.04C289.569 185.688 288.969 186.216 288.345 186.216C287.697 186.216 287.241 185.688 287.337 185.04C287.433 184.416 288.057 183.888 288.705 183.888C289.329 183.888 289.761 184.416 289.665 185.04ZM295.12 188.688L294.904 190.128H292.864L291.136 201H289.576L291.304 190.128H289.984L290.2 188.688H291.52L292.048 185.328H293.608L293.08 188.688H295.12ZM302.607 188.688L295.671 205.704H294.039L296.055 200.664L295.023 188.688H296.607L297.111 198.624H297.183C297.567 197.568 297.927 196.512 298.335 195.456L300.975 188.688H302.607ZM305.127 199.512L301.863 204.864L300.807 204.312L303.543 198.744L305.127 199.512ZM317.001 194.64C317.433 191.976 317.577 189.768 316.041 189.768C314.313 189.768 313.785 192.504 313.449 194.592C312.657 199.68 313.449 199.92 314.361 199.92C315.873 199.92 316.377 198.504 317.001 194.64ZM319.353 188.688L317.409 201H315.849L315.993 200.04H315.945C315.393 200.736 314.625 201.192 313.737 201.192C311.769 201.192 310.977 200.088 311.817 194.712C312.273 191.952 312.921 188.496 315.897 188.496C316.761 188.496 317.241 188.856 317.625 189.528H317.673L317.793 188.688H319.353ZM323.064 188.688L322.92 189.672C323.664 188.952 324.576 188.496 325.536 188.496C327.72 188.496 327.576 190.512 327.312 192.192L325.92 201H324.36L325.728 192.36C325.968 190.896 326.04 189.768 324.744 189.768C322.968 189.768 322.584 191.712 322.392 193.008L321.12 201H319.56L321.504 188.688H323.064ZM333.9 194.64C334.356 191.832 334.38 189.768 332.94 189.768C331.188 189.768 330.636 192.84 330.348 194.592C330.18 195.744 329.268 199.92 331.26 199.92C332.916 199.92 333.396 197.88 333.9 194.64ZM332.748 201L332.892 200.04H332.844C332.292 200.736 331.524 201.192 330.636 201.192C328.068 201.192 328.188 198.072 328.716 194.712C329.268 191.352 330.06 188.496 332.796 188.496C333.66 188.496 334.14 188.856 334.524 189.528H334.572L335.796 181.8H337.356L334.308 201H332.748ZM43.545 217.976L43.257 219.776C42.945 219.368 42.513 218.96 41.913 218.96C39.897 218.96 39.153 222.464 38.913 223.88C38.721 225.104 38.409 228.728 40.257 228.728C40.977 228.728 41.529 228.176 41.985 227.624H42.033L41.721 229.568C41.193 229.952 40.449 230.192 39.849 230.192C37.017 230.192 36.945 226.208 37.281 224.096C37.641 221.768 38.817 217.496 41.937 217.496C42.513 217.496 43.089 217.664 43.545 217.976ZM48.5447 217.496C51.7847 217.496 51.4247 221.528 51.0647 223.832C50.6807 226.16 49.7687 230.192 46.5287 230.192C43.2887 230.192 43.6247 226.16 44.0087 223.832C44.3687 221.528 45.3047 217.496 48.5447 217.496ZM48.3047 218.96C46.4327 218.96 45.7847 222.656 45.6167 223.832C45.4247 225.032 44.8727 228.728 46.7447 228.728C48.6167 228.728 49.2647 225.032 49.4567 223.832C49.6247 222.656 50.1767 218.96 48.3047 218.96ZM55.4199 217.688L55.2519 218.72H55.2999C55.9719 218 56.9079 217.496 57.8439 217.496C58.8519 217.496 59.6199 218.024 59.8839 218.96C60.6759 218.048 61.5399 217.496 62.6679 217.496C64.9719 217.496 64.8519 219.32 64.5639 221.144L63.1719 230H61.6119L63.0039 221.192C63.1959 220.016 63.2679 218.768 61.9959 218.768C60.1479 218.768 59.7639 220.856 59.5239 222.416L58.3239 230H56.7639L58.1559 221.216C58.3479 220.064 58.4679 218.768 57.1959 218.768C55.2999 218.768 54.8919 221.12 54.6279 222.68L53.4759 230H51.9159L53.8599 217.688H55.4199ZM68.7062 228.92C70.1462 228.92 70.6742 227.504 71.2742 223.712C71.5862 221.816 72.0422 218.768 70.2422 218.768C68.5862 218.768 68.1062 221.312 67.7702 223.496C67.3862 225.872 67.0022 228.92 68.7062 228.92ZM68.8262 217.688L68.7062 218.528H68.7542C69.3302 217.856 69.9542 217.496 70.8422 217.496C73.6982 217.496 73.2902 221.216 72.8822 223.712C72.4502 226.496 71.8022 230.192 68.9462 230.192C68.0582 230.192 67.4342 229.736 67.0742 229.04H67.0262L66.1382 234.704H64.5782L67.2662 217.688H68.8262ZM79.4974 223.64C79.9294 220.976 80.0734 218.768 78.5374 218.768C76.8094 218.768 76.2814 221.504 75.9454 223.592C75.1534 228.68 75.9454 228.92 76.8574 228.92C78.3694 228.92 78.8734 227.504 79.4974 223.64ZM81.8494 217.688L79.9054 230H78.3454L78.4894 229.04H78.4414C77.8894 229.736 77.1214 230.192 76.2334 230.192C74.2654 230.192 73.4734 229.088 74.3134 223.712C74.7694 220.952 75.4174 217.496 78.3934 217.496C79.2574 217.496 79.7374 217.856 80.1214 218.528H80.1694L80.2894 217.688H81.8494ZM88.6086 218.288L88.3206 220.208H88.2726C87.9126 219.56 87.2886 218.96 86.4246 218.96C85.4886 218.96 84.7686 219.68 84.6246 220.592C84.4326 221.768 85.3446 222.488 86.1846 223.304C87.0726 224.144 87.9126 225.056 87.6486 226.664C87.3366 228.632 85.7766 230.192 83.7366 230.192C82.9686 230.192 82.1526 229.832 81.6246 229.352L81.9126 227.528C82.4166 228.152 82.9686 228.728 83.9046 228.728C84.9846 228.728 85.8486 227.888 86.0166 226.856C86.2086 225.632 85.3446 224.816 84.4806 223.928C83.6406 223.064 82.7766 222.104 83.0166 220.64C83.3046 218.792 84.7446 217.496 86.5926 217.496C87.3846 217.496 88.0566 217.808 88.6086 218.288ZM95.2883 218.288L95.0003 220.208H94.9523C94.5923 219.56 93.9683 218.96 93.1043 218.96C92.1683 218.96 91.4483 219.68 91.3043 220.592C91.1123 221.768 92.0243 222.488 92.8643 223.304C93.7523 224.144 94.5923 225.056 94.3283 226.664C94.0163 228.632 92.4563 230.192 90.4163 230.192C89.6483 230.192 88.8323 229.832 88.3043 229.352L88.5923 227.528C89.0963 228.152 89.6483 228.728 90.5843 228.728C91.6643 228.728 92.5283 227.888 92.6963 226.856C92.8883 225.632 92.0243 224.816 91.1603 223.928C90.3203 223.064 89.4563 222.104 89.6963 220.64C89.9843 218.792 91.4243 217.496 93.2723 217.496C94.0643 217.496 94.7363 217.808 95.2883 218.288ZM98.9199 217.688L96.9759 230H95.4159L97.3599 217.688H98.9199ZM99.8799 214.04C99.7839 214.688 99.1839 215.216 98.5599 215.216C97.9119 215.216 97.4559 214.688 97.5519 214.04C97.6479 213.416 98.2719 212.888 98.9199 212.888C99.5439 212.888 99.9759 213.416 99.8799 214.04ZM104.303 217.496C107.543 217.496 107.183 221.528 106.823 223.832C106.439 226.16 105.527 230.192 102.287 230.192C99.0465 230.192 99.3825 226.16 99.7665 223.832C100.127 221.528 101.062 217.496 104.303 217.496ZM104.062 218.96C102.191 218.96 101.543 222.656 101.375 223.832C101.183 225.032 100.631 228.728 102.503 228.728C104.375 228.728 105.023 225.032 105.215 223.832C105.383 222.656 105.935 218.96 104.062 218.96ZM111.178 217.688L111.034 218.672C111.778 217.952 112.69 217.496 113.65 217.496C115.834 217.496 115.69 219.512 115.426 221.192L114.034 230H112.474L113.842 221.36C114.082 219.896 114.154 218.768 112.858 218.768C111.082 218.768 110.698 220.712 110.506 222.008L109.234 230H107.674L109.618 217.688H111.178ZM123.316 222.848H126.892L126.916 222.632C127.036 221.456 127.396 218.96 125.764 218.96C124.276 218.96 123.484 221.744 123.316 222.848ZM128.26 224.168H123.076L123.028 224.528C122.836 225.752 122.572 228.728 124.276 228.728C125.644 228.728 126.148 226.808 126.316 225.824H127.924C127.588 227.696 126.484 230.192 124.204 230.192C120.964 230.192 121.132 226.352 121.516 223.88C121.876 221.672 123.028 217.496 126.004 217.496C128.884 217.496 128.74 221.264 128.38 223.424L128.26 224.168ZM132.647 217.688L132.503 218.672C133.247 217.952 134.159 217.496 135.118 217.496C137.303 217.496 137.159 219.512 136.895 221.192L135.503 230H133.943L135.311 221.36C135.551 219.896 135.623 218.768 134.327 218.768C132.551 218.768 132.167 220.712 131.975 222.008L130.703 230H129.143L131.087 217.688H132.647ZM144.226 218.288L143.938 220.208H143.89C143.53 219.56 142.906 218.96 142.042 218.96C141.106 218.96 140.386 219.68 140.242 220.592C140.05 221.768 140.962 222.488 141.802 223.304C142.69 224.144 143.53 225.056 143.266 226.664C142.954 228.632 141.394 230.192 139.354 230.192C138.586 230.192 137.77 229.832 137.242 229.352L137.53 227.528C138.034 228.152 138.586 228.728 139.522 228.728C140.602 228.728 141.466 227.888 141.634 226.856C141.826 225.632 140.962 224.816 140.098 223.928C139.258 223.064 138.394 222.104 138.634 220.64C138.922 218.792 140.362 217.496 142.21 217.496C143.002 217.496 143.674 217.808 144.226 218.288ZM146.201 217.688H147.761L146.537 225.416C146.273 227.096 146.105 228.728 147.641 228.728C149.225 228.728 149.561 227.096 149.849 225.416L151.073 217.688H152.633L151.217 226.736C150.881 228.8 149.657 230.192 147.449 230.192C145.265 230.192 144.449 228.824 144.785 226.736L146.201 217.688ZM156.248 217.688L155.984 219.32H156.032C156.512 218.456 157.352 217.472 158.384 217.496L158.072 219.32L157.784 219.296C156.176 219.296 155.744 220.856 155.432 222.824L154.304 230H152.744L154.688 217.688H156.248ZM159.925 222.848H163.501L163.525 222.632C163.645 221.456 164.005 218.96 162.373 218.96C160.885 218.96 160.093 221.744 159.925 222.848ZM164.869 224.168H159.685L159.637 224.528C159.445 225.752 159.181 228.728 160.885 228.728C162.253 228.728 162.757 226.808 162.925 225.824H164.533C164.197 227.696 163.093 230.192 160.813 230.192C157.573 230.192 157.741 226.352 158.125 223.88C158.485 221.672 159.637 217.496 162.613 217.496C165.493 217.496 165.349 221.264 164.989 223.424L164.869 224.168ZM172.304 218.288L172.016 220.208H171.968C171.608 219.56 170.984 218.96 170.12 218.96C169.184 218.96 168.464 219.68 168.32 220.592C168.128 221.768 169.04 222.488 169.88 223.304C170.768 224.144 171.608 225.056 171.344 226.664C171.032 228.632 169.472 230.192 167.432 230.192C166.664 230.192 165.848 229.832 165.32 229.352L165.608 227.528C166.112 228.152 166.664 228.728 167.6 228.728C168.68 228.728 169.544 227.888 169.712 226.856C169.904 225.632 169.04 224.816 168.176 223.928C167.336 223.064 166.472 222.104 166.712 220.64C167 218.792 168.44 217.496 170.288 217.496C171.08 217.496 171.752 217.808 172.304 218.288ZM185.478 217.688L178.542 234.704H176.91L178.926 229.664L177.894 217.688H179.478L179.982 227.624H180.054C180.438 226.568 180.798 225.512 181.206 224.456L183.846 217.688H185.478ZM189.967 217.496C193.207 217.496 192.847 221.528 192.487 223.832C192.103 226.16 191.191 230.192 187.951 230.192C184.711 230.192 185.047 226.16 185.431 223.832C185.791 221.528 186.727 217.496 189.967 217.496ZM189.727 218.96C187.855 218.96 187.207 222.656 187.039 223.832C186.847 225.032 186.295 228.728 188.167 228.728C190.039 228.728 190.687 225.032 190.879 223.832C191.047 222.656 191.599 218.96 189.727 218.96ZM195.186 217.688H196.746L195.522 225.416C195.258 227.096 195.09 228.728 196.626 228.728C198.21 228.728 198.546 227.096 198.834 225.416L200.058 217.688H201.618L200.202 226.736C199.866 228.8 198.642 230.192 196.434 230.192C194.25 230.192 193.434 228.824 193.77 226.736L195.186 217.688ZM205.232 217.688L204.968 219.32H205.016C205.496 218.456 206.336 217.472 207.368 217.496L207.056 219.32L206.768 219.296C205.16 219.296 204.728 220.856 204.416 222.824L203.288 230H201.728L203.672 217.688H205.232ZM218.195 218.288L217.907 220.208H217.859C217.499 219.56 216.875 218.96 216.011 218.96C215.075 218.96 214.355 219.68 214.211 220.592C214.019 221.768 214.931 222.488 215.771 223.304C216.659 224.144 217.499 225.056 217.235 226.664C216.923 228.632 215.363 230.192 213.323 230.192C212.555 230.192 211.739 229.832 211.211 229.352L211.499 227.528C212.003 228.152 212.555 228.728 213.491 228.728C214.571 228.728 215.435 227.888 215.603 226.856C215.795 225.632 214.931 224.816 214.067 223.928C213.227 223.064 212.363 222.104 212.603 220.64C212.891 218.792 214.331 217.496 216.179 217.496C216.971 217.496 217.643 217.808 218.195 218.288ZM220.17 217.688H221.73L220.506 225.416C220.242 227.096 220.074 228.728 221.61 228.728C223.194 228.728 223.53 227.096 223.818 225.416L225.042 217.688H226.602L225.186 226.736C224.85 228.8 223.626 230.192 221.418 230.192C219.234 230.192 218.418 228.824 218.754 226.736L220.17 217.688ZM233.553 217.976L233.265 219.776C232.953 219.368 232.521 218.96 231.921 218.96C229.905 218.96 229.161 222.464 228.921 223.88C228.729 225.104 228.417 228.728 230.265 228.728C230.985 228.728 231.537 228.176 231.993 227.624H232.041L231.729 229.568C231.201 229.952 230.457 230.192 229.857 230.192C227.025 230.192 226.953 226.208 227.289 224.096C227.649 221.768 228.825 217.496 231.945 217.496C232.521 217.496 233.097 217.664 233.553 217.976ZM240.233 217.976L239.945 219.776C239.633 219.368 239.201 218.96 238.601 218.96C236.585 218.96 235.84 222.464 235.601 223.88C235.409 225.104 235.097 228.728 236.945 228.728C237.665 228.728 238.217 228.176 238.673 227.624H238.721L238.409 229.568C237.881 229.952 237.137 230.192 236.537 230.192C233.705 230.192 233.633 226.208 233.969 224.096C234.329 221.768 235.505 217.496 238.625 217.496C239.201 217.496 239.777 217.664 240.233 217.976ZM242.472 222.848H246.048L246.072 222.632C246.192 221.456 246.552 218.96 244.92 218.96C243.432 218.96 242.64 221.744 242.472 222.848ZM247.416 224.168H242.232L242.184 224.528C241.992 225.752 241.728 228.728 243.432 228.728C244.8 228.728 245.304 226.808 245.472 225.824H247.08C246.744 227.696 245.64 230.192 243.36 230.192C240.12 230.192 240.288 226.352 240.672 223.88C241.032 221.672 242.184 217.496 245.16 217.496C248.04 217.496 247.896 221.264 247.536 223.424L247.416 224.168ZM254.851 218.288L254.563 220.208H254.515C254.155 219.56 253.531 218.96 252.667 218.96C251.731 218.96 251.011 219.68 250.867 220.592C250.675 221.768 251.587 222.488 252.427 223.304C253.315 224.144 254.155 225.056 253.891 226.664C253.579 228.632 252.019 230.192 249.979 230.192C249.211 230.192 248.395 229.832 247.867 229.352L248.155 227.528C248.659 228.152 249.211 228.728 250.147 228.728C251.227 228.728 252.091 227.888 252.259 226.856C252.451 225.632 251.587 224.816 250.723 223.928C249.883 223.064 249.019 222.104 249.259 220.64C249.547 218.792 250.987 217.496 252.835 217.496C253.627 217.496 254.299 217.808 254.851 218.288ZM261.53 218.288L261.242 220.208H261.194C260.834 219.56 260.21 218.96 259.346 218.96C258.41 218.96 257.69 219.68 257.546 220.592C257.354 221.768 258.266 222.488 259.106 223.304C259.994 224.144 260.834 225.056 260.57 226.664C260.258 228.632 258.698 230.192 256.658 230.192C255.89 230.192 255.074 229.832 254.546 229.352L254.834 227.528C255.338 228.152 255.89 228.728 256.826 228.728C257.906 228.728 258.77 227.888 258.938 226.856C259.13 225.632 258.266 224.816 257.402 223.928C256.562 223.064 255.698 222.104 255.938 220.64C256.226 218.792 257.666 217.496 259.514 217.496C260.306 217.496 260.978 217.808 261.53 218.288ZM272.458 223.64C272.89 220.976 273.034 218.768 271.498 218.768C269.77 218.768 269.242 221.504 268.906 223.592C268.114 228.68 268.906 228.92 269.818 228.92C271.33 228.92 271.834 227.504 272.458 223.64ZM274.81 217.688L272.866 230H271.306L271.45 229.04H271.402C270.85 229.736 270.082 230.192 269.194 230.192C267.226 230.192 266.434 229.088 267.274 223.712C267.73 220.952 268.378 217.496 271.354 217.496C272.218 217.496 272.698 217.856 273.082 218.528H273.13L273.25 217.688H274.81ZM278.522 217.688L278.378 218.672C279.122 217.952 280.034 217.496 280.993 217.496C283.178 217.496 283.034 219.512 282.77 221.192L281.378 230H279.818L281.186 221.36C281.426 219.896 281.498 218.768 280.202 218.768C278.426 218.768 278.042 220.712 277.85 222.008L276.578 230H275.018L276.962 217.688H278.522ZM289.357 223.64C289.813 220.832 289.837 218.768 288.397 218.768C286.645 218.768 286.093 221.84 285.805 223.592C285.637 224.744 284.725 228.92 286.717 228.92C288.373 228.92 288.853 226.88 289.357 223.64ZM288.205 230L288.349 229.04H288.301C287.749 229.736 286.981 230.192 286.093 230.192C283.525 230.192 283.645 227.072 284.173 223.712C284.725 220.352 285.517 217.496 288.253 217.496C289.117 217.496 289.597 217.856 289.981 218.528H290.029L291.253 210.8H292.813L289.765 230H288.205ZM309.604 217.688L304.948 230H303.34V221.072C303.34 220.64 303.412 220.184 303.436 219.752H303.364C303.172 220.496 303.004 221.24 302.764 221.984L300.172 230H298.588L298.036 217.688H299.62L299.644 224.96C299.644 225.896 299.692 226.808 299.716 227.744H299.812C300.076 226.808 300.316 225.896 300.604 224.96L302.956 217.688H304.54L304.492 226.208C304.492 226.712 304.468 227.24 304.468 227.744H304.54C304.78 226.952 304.996 226.136 305.284 225.344L308.02 217.688H309.604ZM311.402 222.848H314.978L315.002 222.632C315.122 221.456 315.482 218.96 313.85 218.96C312.362 218.96 311.57 221.744 311.402 222.848ZM316.346 224.168H311.162L311.114 224.528C310.922 225.752 310.658 228.728 312.362 228.728C313.73 228.728 314.234 226.808 314.402 225.824H316.01C315.674 227.696 314.57 230.192 312.29 230.192C309.05 230.192 309.218 226.352 309.602 223.88C309.962 221.672 311.114 217.496 314.09 217.496C316.97 217.496 316.826 221.264 316.466 223.424L316.346 224.168ZM321.836 210.8L318.788 230H317.228L320.276 210.8H321.836ZM325.586 210.8L322.538 230H320.978L324.026 210.8H325.586ZM324.681 223.28L324.993 221.384H328.737L328.425 223.28H324.681ZM62.1554 257.92C63.4274 257.92 64.0754 256.816 64.7474 252.592C65.2034 249.784 65.2514 247.768 63.6914 247.768C61.7954 247.768 61.3874 251.392 61.2194 252.496C60.9794 254.008 60.1634 257.92 62.1554 257.92ZM58.7714 259L61.8194 239.8H63.3794L62.1554 247.528H62.2034C62.7554 246.832 63.4034 246.496 64.2914 246.496C67.1474 246.496 66.7874 249.928 66.3314 252.712C65.8514 255.832 65.0834 259.192 62.3954 259.192C61.5074 259.192 60.8834 258.736 60.5234 258.04H60.4754L60.3314 259H58.7714ZM69.5386 251.848H73.1146L73.1386 251.632C73.2586 250.456 73.6186 247.96 71.9866 247.96C70.4986 247.96 69.7066 250.744 69.5386 251.848ZM74.4826 253.168H69.2986L69.2506 253.528C69.0586 254.752 68.7946 257.728 70.4986 257.728C71.8666 257.728 72.3706 255.808 72.5386 254.824H74.1466C73.8106 256.696 72.7066 259.192 70.4266 259.192C67.1866 259.192 67.3546 255.352 67.7386 252.88C68.0986 250.672 69.2506 246.496 72.2266 246.496C75.1066 246.496 74.9626 250.264 74.6026 252.424L74.4826 253.168ZM78.8692 246.688L76.9252 259H75.3652L77.3092 246.688H78.8692ZM79.8292 243.04C79.7332 243.688 79.1332 244.216 78.5092 244.216C77.8612 244.216 77.4052 243.688 77.5012 243.04C77.5972 242.416 78.2212 241.888 78.8692 241.888C79.4932 241.888 79.9252 242.416 79.8292 243.04ZM82.5957 246.688L82.4517 247.672C83.1957 246.952 84.1077 246.496 85.0677 246.496C87.2517 246.496 87.1077 248.512 86.8437 250.192L85.4517 259H83.8917L85.2597 250.36C85.4997 248.896 85.5717 247.768 84.2757 247.768C82.4997 247.768 82.1157 249.712 81.9237 251.008L80.6517 259H79.0917L81.0357 246.688H82.5957ZM89.807 253.048C89.591 254.392 89.039 257.728 91.007 257.728C92.663 257.728 93.119 255.304 93.551 252.616C93.911 250.36 94.175 247.768 92.471 247.768C91.343 247.768 90.527 248.536 89.807 253.048ZM95.903 246.688L93.887 259.456C93.527 261.76 93.095 263.896 89.975 263.896C87.815 263.896 86.999 262.6 87.335 260.488L87.407 260.032H88.943L88.919 260.248C88.727 261.4 88.871 262.432 90.215 262.432C91.967 262.432 92.063 260.896 92.279 259.576L92.519 258.136C91.895 258.736 91.199 259 90.383 259C87.311 259 87.935 254.752 88.271 252.568C88.607 250.504 89.495 246.496 92.351 246.496C93.191 246.496 93.815 246.88 94.175 247.528H94.223L94.343 246.688H95.903ZM104.604 246.688L102.66 259H101.1L103.044 246.688H104.604ZM105.564 243.04C105.468 243.688 104.868 244.216 104.244 244.216C103.596 244.216 103.14 243.688 103.236 243.04C103.332 242.416 103.956 241.888 104.604 241.888C105.228 241.888 105.66 242.416 105.564 243.04ZM108.33 246.688L108.186 247.672C108.93 246.952 109.842 246.496 110.802 246.496C112.986 246.496 112.842 248.512 112.578 250.192L111.186 259H109.626L110.994 250.36C111.234 248.896 111.306 247.768 110.01 247.768C108.234 247.768 107.85 249.712 107.658 251.008L106.386 259H104.826L106.77 246.688H108.33ZM124.542 246.688L124.326 248.128H122.286L120.558 259H118.998L120.726 248.128H119.406L119.622 246.688H120.942L121.47 243.328H123.03L122.502 246.688H124.542ZM128.02 239.8L126.772 247.672C127.516 246.952 128.428 246.496 129.388 246.496C131.644 246.496 131.452 248.464 131.164 250.192L129.772 259H128.212L129.556 250.456C129.868 248.536 129.772 247.768 128.596 247.768C126.82 247.768 126.436 249.712 126.244 251.008L124.972 259H123.412L126.46 239.8H128.02ZM134.343 251.848H137.919L137.943 251.632C138.063 250.456 138.423 247.96 136.791 247.96C135.303 247.96 134.511 250.744 134.343 251.848ZM139.287 253.168H134.103L134.055 253.528C133.863 254.752 133.599 257.728 135.303 257.728C136.671 257.728 137.175 255.808 137.343 254.824H138.951C138.615 256.696 137.511 259.192 135.231 259.192C131.991 259.192 132.159 255.352 132.543 252.88C132.903 250.672 134.055 246.496 137.031 246.496C139.911 246.496 139.767 250.264 139.407 252.424L139.287 253.168ZM155.304 240.904L153.36 253.264C152.832 256.6 152.136 259.24 148.608 259.24C144.984 259.24 145.248 256.504 145.776 253.264L147.72 240.904H149.4L147.456 253.168C147 256.168 146.928 257.608 148.872 257.608C150.792 257.608 151.224 256.168 151.68 253.168L153.624 240.904H155.304ZM156.079 256.744C156.751 256.744 157.207 257.296 157.111 257.968C156.991 258.64 156.367 259.192 155.695 259.192C155.023 259.192 154.543 258.64 154.663 257.968C154.759 257.296 155.407 256.744 156.079 256.744ZM168.703 241.624L168.367 243.76C167.767 242.944 167.071 242.296 165.919 242.296C164.239 242.296 163.087 243.688 162.847 245.224C162.511 247.336 163.879 248.32 165.295 249.376C166.639 250.456 168.007 251.608 167.599 254.104C167.191 256.744 165.079 259.24 162.247 259.24C161.239 259.24 160.255 258.952 159.535 258.328L159.895 256.144C160.519 256.96 161.431 257.608 162.583 257.608C164.359 257.608 165.583 256.048 165.823 254.416C166.183 252.304 164.767 251.368 163.399 250.288C162.031 249.232 160.663 248.056 161.071 245.464C161.455 243.04 163.327 240.664 165.991 240.664C167.071 240.664 167.935 241.024 168.703 241.624ZM170.399 256.744C171.071 256.744 171.527 257.296 171.431 257.968C171.311 258.64 170.687 259.192 170.015 259.192C169.343 259.192 168.863 258.64 168.983 257.968C169.079 257.296 169.727 256.744 170.399 256.744ZM182.489 239.8L181.241 247.672C181.985 246.952 182.897 246.496 183.857 246.496C186.113 246.496 185.921 248.464 185.633 250.192L184.241 259H182.681L184.025 250.456C184.337 248.536 184.241 247.768 183.065 247.768C181.289 247.768 180.905 249.712 180.713 251.008L179.441 259H177.881L180.929 239.8H182.489ZM188.812 251.848H192.388L192.412 251.632C192.532 250.456 192.892 247.96 191.26 247.96C189.772 247.96 188.98 250.744 188.812 251.848ZM193.756 253.168H188.572L188.524 253.528C188.332 254.752 188.068 257.728 189.772 257.728C191.14 257.728 191.644 255.808 191.812 254.824H193.42C193.084 256.696 191.98 259.192 189.7 259.192C186.46 259.192 186.628 255.352 187.012 252.88C187.372 250.672 188.524 246.496 191.5 246.496C194.38 246.496 194.236 250.264 193.876 252.424L193.756 253.168ZM200.447 252.64C200.879 249.976 201.023 247.768 199.487 247.768C197.759 247.768 197.231 250.504 196.895 252.592C196.103 257.68 196.895 257.92 197.807 257.92C199.319 257.92 199.823 256.504 200.447 252.64ZM202.799 246.688L200.855 259H199.295L199.439 258.04H199.391C198.839 258.736 198.071 259.192 197.183 259.192C195.215 259.192 194.423 258.088 195.263 252.712C195.719 249.952 196.367 246.496 199.343 246.496C200.207 246.496 200.687 246.856 201.071 247.528H201.119L201.239 246.688H202.799ZM207.614 239.8L204.566 259H203.006L206.054 239.8H207.614ZM212.948 246.688L212.732 248.128H210.692L208.964 259H207.404L209.132 248.128H207.812L208.028 246.688H209.348L209.876 243.328H211.436L210.908 246.688H212.948ZM216.426 239.8L215.178 247.672C215.922 246.952 216.834 246.496 217.794 246.496C220.05 246.496 219.858 248.464 219.57 250.192L218.178 259H216.618L217.962 250.456C218.274 248.536 218.178 247.768 217.002 247.768C215.226 247.768 214.842 249.712 214.65 251.008L213.378 259H211.818L214.866 239.8H216.426ZM227.19 246.976L226.902 248.776C226.59 248.368 226.158 247.96 225.558 247.96C223.542 247.96 222.798 251.464 222.558 252.88C222.366 254.104 222.054 257.728 223.902 257.728C224.622 257.728 225.174 257.176 225.63 256.624H225.678L225.366 258.568C224.838 258.952 224.094 259.192 223.494 259.192C220.662 259.192 220.59 255.208 220.926 253.096C221.286 250.768 222.462 246.496 225.582 246.496C226.158 246.496 226.734 246.664 227.19 246.976ZM232.837 252.64C233.269 249.976 233.413 247.768 231.877 247.768C230.149 247.768 229.621 250.504 229.285 252.592C228.493 257.68 229.285 257.92 230.197 257.92C231.709 257.92 232.213 256.504 232.837 252.64ZM235.189 246.688L233.245 259H231.685L231.829 258.04H231.781C231.229 258.736 230.461 259.192 229.573 259.192C227.605 259.192 226.813 258.088 227.653 252.712C228.109 249.952 228.757 246.496 231.733 246.496C232.597 246.496 233.077 246.856 233.461 247.528H233.509L233.629 246.688H235.189ZM238.9 246.688L238.636 248.32H238.684C239.164 247.456 240.004 246.472 241.036 246.496L240.724 248.32L240.436 248.296C238.828 248.296 238.396 249.856 238.084 251.824L236.956 259H235.396L237.34 246.688H238.9ZM242.578 251.848H246.154L246.178 251.632C246.298 250.456 246.658 247.96 245.026 247.96C243.538 247.96 242.746 250.744 242.578 251.848ZM247.522 253.168H242.338L242.29 253.528C242.098 254.752 241.834 257.728 243.538 257.728C244.906 257.728 245.41 255.808 245.578 254.824H247.186C246.85 256.696 245.746 259.192 243.466 259.192C240.226 259.192 240.394 255.352 240.778 252.88C241.138 250.672 242.29 246.496 245.266 246.496C248.146 246.496 248.002 250.264 247.642 252.424L247.522 253.168ZM259.948 247.288L259.66 249.208H259.612C259.252 248.56 258.628 247.96 257.764 247.96C256.828 247.96 256.108 248.68 255.964 249.592C255.772 250.768 256.684 251.488 257.524 252.304C258.412 253.144 259.252 254.056 258.988 255.664C258.676 257.632 257.116 259.192 255.076 259.192C254.308 259.192 253.492 258.832 252.964 258.352L253.252 256.528C253.756 257.152 254.308 257.728 255.244 257.728C256.324 257.728 257.188 256.888 257.356 255.856C257.548 254.632 256.684 253.816 255.82 252.928C254.98 252.064 254.116 251.104 254.356 249.64C254.644 247.792 256.084 246.496 257.932 246.496C258.724 246.496 259.396 246.808 259.948 247.288ZM268.716 246.688L261.78 263.704H260.148L262.164 258.664L261.132 246.688H262.716L263.22 256.624H263.292C263.676 255.568 264.036 254.512 264.444 253.456L267.084 246.688H268.716ZM274.597 247.288L274.309 249.208H274.261C273.901 248.56 273.277 247.96 272.413 247.96C271.477 247.96 270.757 248.68 270.613 249.592C270.421 250.768 271.333 251.488 272.173 252.304C273.061 253.144 273.901 254.056 273.637 255.664C273.325 257.632 271.765 259.192 269.725 259.192C268.957 259.192 268.141 258.832 267.613 258.352L267.901 256.528C268.405 257.152 268.957 257.728 269.893 257.728C270.973 257.728 271.837 256.888 272.005 255.856C272.197 254.632 271.333 253.816 270.469 252.928C269.629 252.064 268.765 251.104 269.005 249.64C269.293 247.792 270.733 246.496 272.581 246.496C273.373 246.496 274.045 246.808 274.597 247.288ZM280.917 246.688L280.701 248.128H278.661L276.933 259H275.373L277.101 248.128H275.781L275.997 246.688H277.317L277.845 243.328H279.405L278.877 246.688H280.917ZM282.164 251.848H285.74L285.764 251.632C285.884 250.456 286.244 247.96 284.612 247.96C283.124 247.96 282.332 250.744 282.164 251.848ZM287.108 253.168H281.924L281.876 253.528C281.684 254.752 281.42 257.728 283.124 257.728C284.492 257.728 284.996 255.808 285.164 254.824H286.772C286.436 256.696 285.332 259.192 283.052 259.192C279.812 259.192 279.98 255.352 280.364 252.88C280.724 250.672 281.876 246.496 284.852 246.496C287.732 246.496 287.588 250.264 287.228 252.424L287.108 253.168ZM291.494 246.688L291.326 247.72H291.374C292.046 247 292.982 246.496 293.918 246.496C294.926 246.496 295.694 247.024 295.958 247.96C296.75 247.048 297.614 246.496 298.742 246.496C301.046 246.496 300.926 248.32 300.638 250.144L299.246 259H297.686L299.078 250.192C299.27 249.016 299.342 247.768 298.07 247.768C296.222 247.768 295.838 249.856 295.598 251.416L294.398 259H292.838L294.23 250.216C294.422 249.064 294.542 247.768 293.27 247.768C291.374 247.768 290.966 250.12 290.702 251.68L289.55 259H287.99L289.934 246.688H291.494ZM303.172 256.744C303.844 256.744 304.3 257.296 304.204 257.968C304.084 258.64 303.46 259.192 302.788 259.192C302.116 259.192 301.636 258.64 301.756 257.968C301.852 257.296 302.5 256.744 303.172 256.744Z" fill="white"/>
</svg>
