<svg width="546" height="327" viewBox="0 0 546 327" fill="none" xmlns="http://www.w3.org/2000/svg">
<rect width="546" height="327" rx="50" fill="#0E3D68"/>
<path d="M193.47 119.1V107.3C194.87 109.4 197.32 111.5 199.92 111.5C201.32 111.5 202.92 110.65 202.92 109C202.92 108.1 202.62 107.45 202.12 106.9C201.67 106.35 201.07 105.9 200.42 105.45C198.42 103.9 196.67 102.45 195.37 100.65C194.12 98.9 193.32 96.8 193.32 94.05C193.32 89.65 196.12 81.65 204.82 81.65C207.27 81.65 209.92 82.4 212.07 83.55V95C210.87 93.1 208.42 90.95 206.07 90.95C204.87 90.95 203.42 91.8 203.42 93.25C203.42 94.05 203.87 94.75 204.42 95.35C204.97 95.95 205.72 96.45 206.27 96.9C208.42 98.4 210.12 99.8 211.27 101.5C212.47 103.2 213.12 105.2 213.12 108.05C213.12 115.05 208.22 120.65 201.12 120.65C198.52 120.65 195.87 120.1 193.47 119.1ZM244.904 120H234.354L233.604 115.15H226.754L225.904 120H215.404L224.454 82.3H236.904L244.904 120ZM228.104 107.15H232.404L231.304 98.4C231.004 96.05 230.804 93.65 230.554 91.3H230.454C230.154 93.65 229.904 96.05 229.504 98.4L228.104 107.15ZM266.127 120H248.277V82.3H258.477V111.1H266.127V120ZM297.199 120H286.649L285.899 115.15H279.049L278.199 120H267.699L276.749 82.3H289.199L297.199 120ZM280.399 107.15H284.699L283.599 98.4C283.299 96.05 283.099 93.65 282.849 91.3H282.749C282.449 93.65 282.199 96.05 281.799 98.4L280.399 107.15ZM327.422 120H316.372L310.722 104.3L310.622 104.4C310.672 106.25 310.772 108.1 310.772 109.95V120H300.572V82.3H310.422C319.272 82.3 325.672 84.9 325.672 94.85C325.672 99 323.872 102.7 319.822 104.3L327.422 120ZM310.772 99.7L311.422 99.75C314.122 99.75 315.572 97.4 315.572 94.95C315.572 91.65 313.572 90.25 310.772 90.4V99.7ZM347.648 120H337.448V104L328.148 82.3H338.748L342.248 93.95H342.348L345.898 82.3H356.448L347.648 104V120ZM128.966 180V142.3H138.666L146.816 165L146.916 164.9C146.516 160.55 145.766 156.25 145.766 151.9V142.3H155.566V180H145.766L138.166 158.25L138.066 158.35C138.316 161.9 138.766 165.4 138.766 168.95V180H128.966ZM161.583 180V142.3H180.533V151.2H171.783V156.45H179.633V165.35H171.783V171.1H180.533V180H161.583ZM199.484 158.2H213.684L213.734 159.8C213.734 169.1 211.934 180.65 200.134 180.65C189.034 180.65 185.434 170.9 185.434 161.35C185.434 152 188.984 141.65 200.034 141.65C206.134 141.65 210.684 145.5 212.884 150.95L203.034 154.6C202.934 153.1 201.934 150.75 200.134 150.75C195.434 150.75 195.834 159.4 195.834 162.25C195.984 164.95 195.784 171.55 199.734 171.55C202.434 171.55 203.284 168.35 203.234 166.15H199.484V158.2ZM217.074 161.15C217.074 151.95 221.124 141.65 231.474 141.65C241.824 141.65 245.874 151.95 245.874 161.15C245.874 170.35 241.824 180.65 231.474 180.65C221.124 180.65 217.074 170.35 217.074 161.15ZM227.474 161.15C227.474 163.5 227.624 171.15 231.474 171.15C235.324 171.15 235.474 163.5 235.474 161.15C235.474 158.8 235.324 151.15 231.474 151.15C227.624 151.15 227.474 158.8 227.474 161.15ZM264.156 180H253.956V151.5H248.356V142.3H270.006V151.5H264.156V180ZM284.283 180H274.083V142.3H284.283V180ZM317.194 180H306.644L305.894 175.15H299.044L298.194 180H287.694L296.744 142.3H309.194L317.194 180ZM300.394 167.15H304.694L303.594 158.4C303.294 156.05 303.094 153.65 302.844 151.3H302.744C302.444 153.65 302.194 156.05 301.794 158.4L300.394 167.15ZM332.711 180H322.511V151.5H316.911V142.3H338.561V151.5H332.711V180ZM352.838 180H342.638V142.3H352.838V180ZM357.699 161.15C357.699 151.95 361.749 141.65 372.099 141.65C382.449 141.65 386.499 151.95 386.499 161.15C386.499 170.35 382.449 180.65 372.099 180.65C361.749 180.65 357.699 170.35 357.699 161.15ZM368.099 161.15C368.099 163.5 368.249 171.15 372.099 171.15C375.949 171.15 376.099 163.5 376.099 161.15C376.099 158.8 375.949 151.15 372.099 151.15C368.249 151.15 368.099 158.8 368.099 161.15ZM391.417 180V142.3H401.117L409.267 165L409.367 164.9C408.967 160.55 408.217 156.25 408.217 151.9V142.3H418.017V180H408.217L400.617 158.25L400.517 158.35C400.767 161.9 401.217 165.4 401.217 168.95V180H391.417ZM148.542 240H137.992L137.242 235.15H130.392L129.542 240H119.042L128.092 202.3H140.542L148.542 240ZM131.742 227.15H136.042L134.942 218.4C134.642 216.05 134.442 213.65 134.192 211.3H134.092C133.792 213.65 133.542 216.05 133.142 218.4L131.742 227.15ZM151.915 240V202.3H161.615L169.765 225L169.865 224.9C169.465 220.55 168.715 216.25 168.715 211.9V202.3H178.515V240H168.715L161.115 218.25L161.015 218.35C161.265 221.9 161.715 225.4 161.715 228.95V240H151.915ZM184.532 240V202.3H192.732C204.332 202.3 210.582 209.6 210.582 221C210.582 238.4 199.632 240 193.432 240H184.532ZM194.732 211.7V230.9C199.382 230.85 200.182 225.05 200.182 221.5C200.182 217.4 199.382 211.7 194.732 211.7ZM230.577 240V202.3H242.577C248.577 202.3 255.577 204.9 255.577 213.05C255.577 217.3 252.827 220.6 248.527 220.6V220.7C253.527 221.1 256.177 224.2 256.177 229.25C256.177 233.9 253.377 240 244.277 240H230.577ZM240.777 231.85H241.627C243.877 231.85 245.877 230.75 245.877 228.2C245.877 225.65 243.927 224.6 241.577 224.6H240.777V231.85ZM240.777 216.95H241.377C243.477 216.95 245.427 216.1 245.427 213.65C245.427 211.4 243.877 210.45 241.777 210.45H240.777V216.95ZM261.095 240V202.3H280.045V211.2H271.295V216.45H279.145V225.35H271.295V231.1H280.045V240H261.095ZM286.046 240V202.3H295.746L303.896 225L303.996 224.9C303.596 220.55 302.846 216.25 302.846 211.9V202.3H312.646V240H302.846L295.246 218.25L295.146 218.35C295.396 221.9 295.846 225.4 295.846 228.95V240H286.046ZM318.663 240V202.3H337.613V211.2H328.863V216.45H336.713V225.35H328.863V231.1H337.613V240H318.663ZM353.814 240H343.614V202.3H361.614V211.2H353.814V216.65H361.114V225.55H353.814V240ZM377.887 240H367.687V202.3H377.887V240ZM397.847 240H387.647V211.5H382.047V202.3H403.697V211.5H397.847V240ZM406.824 239.1V227.3C408.224 229.4 410.674 231.5 413.274 231.5C414.674 231.5 416.274 230.65 416.274 229C416.274 228.1 415.974 227.45 415.474 226.9C415.024 226.35 414.424 225.9 413.774 225.45C411.774 223.9 410.024 222.45 408.724 220.65C407.474 218.9 406.674 216.8 406.674 214.05C406.674 209.65 409.474 201.65 418.174 201.65C420.624 201.65 423.274 202.4 425.424 203.55V215C424.224 213.1 421.774 210.95 419.424 210.95C418.224 210.95 416.774 211.8 416.774 213.25C416.774 214.05 417.224 214.75 417.774 215.35C418.324 215.95 419.074 216.45 419.624 216.9C421.774 218.4 423.474 219.8 424.624 221.5C425.824 223.2 426.474 225.2 426.474 228.05C426.474 235.05 421.574 240.65 414.474 240.65C411.874 240.65 409.224 240.1 406.824 239.1Z" fill="#CBE1F0"/>
</svg>
