<svg width="869" height="383" viewBox="0 0 869 383" fill="none" xmlns="http://www.w3.org/2000/svg">
<g filter="url(#filter0_d_2021_418)">
<path d="M159.885 58.65V79.2C157.035 78.45 154.335 78 151.485 78C131.835 78 123.285 95.85 123.285 113.25C123.285 130.05 131.835 150.75 151.335 150.75C154.185 150.75 157.035 150 159.885 149.1V170.25C156.585 171.6 153.135 172.2 149.535 172.2C117.285 172.2 99.4352 143.1 99.4352 113.4C99.4352 85.35 118.035 56.55 148.485 56.55C152.385 56.55 156.135 57.3 159.885 58.65ZM205.25 56.1C225.2 56.1 245 72 245 114.45C245 156.9 225.2 172.8 205.25 172.8C185.3 172.8 165.5 156.9 165.5 114.45C165.5 72 185.3 56.1 205.25 56.1ZM189.35 114.45C189.35 123.45 190.4 152.1 205.25 152.1C220.1 152.1 221.15 123.45 221.15 114.45C221.15 104.4 220.1 76.8 205.25 76.8C190.4 76.8 189.35 104.4 189.35 114.45ZM256.854 57.9H278.304L306.204 126.15L306.504 125.85C305.154 120.45 304.704 114.6 304.704 108.75V57.9H327.054V171H305.904L278.304 102.75L278.004 103.05L279.054 114.45L279.204 119.1V171H256.854V57.9ZM337.141 57.9H394.741V78.9H377.041V171H354.691V78.9H337.141V57.9ZM415.514 57.9H439.064L466.214 171H442.364L438.164 151.95H415.514L411.464 171H389.264L415.514 57.9ZM434.864 134.25L429.164 104.1L426.614 87H426.314L423.914 104.1L419.114 134.25H434.864ZM530.784 58.65V79.2C527.934 78.45 525.234 78 522.384 78C502.734 78 494.184 95.85 494.184 113.25C494.184 130.05 502.734 150.75 522.234 150.75C525.084 150.75 527.934 150 530.784 149.1V170.25C527.484 171.6 524.034 172.2 520.434 172.2C488.184 172.2 470.334 143.1 470.334 113.4C470.334 85.35 488.934 56.55 519.384 56.55C523.284 56.55 527.034 57.3 530.784 58.65ZM536.506 57.9H594.106V78.9H576.406V171H554.056V78.9H536.506V57.9ZM633.159 57.9H655.509V131.1C655.509 139.65 654.459 152.55 666.609 152.55C677.559 152.55 677.559 144.3 677.709 135.9V57.9H700.059V140.4C700.059 152.4 698.709 172.8 666.459 172.8C645.609 172.8 633.159 163.05 633.159 141.9V57.9ZM761.85 61.65V83.4C757.35 79.5 751.8 76.2 745.65 76.2C738.75 76.2 734.4 80.4 734.4 87.3C734.4 105.9 768.45 106.95 768.45 137.55C768.45 157.65 756.9 172.8 735.9 172.8C729.6 172.8 721.8 170.85 716.7 167.1V145.8C721.95 149.4 727.05 151.8 733.65 151.8C740.85 151.8 746.55 147 746.55 139.5C746.55 130.8 739.65 127.5 733.35 123C720.45 114.3 712.5 105.9 712.5 89.4C712.5 71.55 722.85 56.1 742.05 56.1C749.25 56.1 755.7 58.05 761.85 61.65Z" fill="#74FC02"/>
</g>
<path d="M161.857 245.1C163.257 245.1 164.317 245.413 165.037 246.04C165.757 246.667 166.117 247.48 166.117 248.48C166.117 248.653 166.09 248.913 166.037 249.26C165.877 250.153 165.463 250.973 164.797 251.72C164.143 252.467 163.25 252.973 162.117 253.24L164.537 259H161.817L159.617 253.44H157.857L156.877 259H154.597L157.057 245.1H161.857ZM163.697 249.26C163.737 249.06 163.757 248.867 163.757 248.68C163.757 248.107 163.57 247.667 163.197 247.36C162.837 247.04 162.283 246.88 161.537 246.88H159.017L158.177 251.64H160.697C161.55 251.64 162.23 251.427 162.737 251C163.257 250.573 163.577 249.993 163.697 249.26ZM173.953 247.8C175.327 247.8 176.42 248.187 177.233 248.96C178.06 249.733 178.473 250.773 178.473 252.08C178.473 252.387 178.44 252.753 178.373 253.18C178.32 253.473 178.227 253.833 178.093 254.26H169.673C169.66 254.353 169.653 254.493 169.653 254.68C169.653 255.467 169.893 256.093 170.373 256.56C170.867 257.027 171.507 257.26 172.293 257.26C173.533 257.26 174.487 256.747 175.153 255.72H177.613C177.107 256.733 176.36 257.567 175.373 258.22C174.387 258.86 173.247 259.18 171.953 259.18C171.033 259.18 170.227 259 169.533 258.64C168.84 258.28 168.3 257.767 167.913 257.1C167.527 256.42 167.333 255.627 167.333 254.72C167.333 254.333 167.373 253.92 167.453 253.48C167.653 252.347 168.06 251.353 168.673 250.5C169.287 249.633 170.047 248.967 170.953 248.5C171.873 248.033 172.873 247.8 173.953 247.8ZM176.093 252.62C176.12 252.38 176.133 252.207 176.133 252.1C176.133 251.367 175.887 250.787 175.393 250.36C174.913 249.933 174.287 249.72 173.513 249.72C172.7 249.72 171.967 249.98 171.313 250.5C170.66 251.02 170.213 251.727 169.973 252.62H176.093ZM179.797 253.44C179.997 252.333 180.397 251.353 180.997 250.5C181.611 249.647 182.357 248.987 183.237 248.52C184.117 248.04 185.037 247.8 185.997 247.8C186.864 247.8 187.591 247.973 188.177 248.32C188.764 248.653 189.204 249.073 189.497 249.58L189.777 247.98H192.077L190.137 259H187.837L188.137 257.36C187.657 257.88 187.051 258.313 186.317 258.66C185.597 259.007 184.811 259.18 183.957 259.18C183.131 259.18 182.391 258.993 181.737 258.62C181.097 258.247 180.591 257.72 180.217 257.04C179.857 256.347 179.677 255.553 179.677 254.66C179.677 254.26 179.717 253.853 179.797 253.44ZM188.817 253.48C188.871 253.227 188.897 252.953 188.897 252.66C188.897 251.767 188.631 251.067 188.097 250.56C187.577 250.04 186.924 249.78 186.137 249.78C185.551 249.78 184.977 249.927 184.417 250.22C183.857 250.5 183.371 250.92 182.957 251.48C182.544 252.027 182.271 252.68 182.137 253.44C182.084 253.693 182.057 253.967 182.057 254.26C182.057 255.167 182.317 255.887 182.837 256.42C183.371 256.94 184.031 257.2 184.817 257.2C185.404 257.2 185.977 257.053 186.537 256.76C187.097 256.467 187.584 256.04 187.997 255.48C188.411 254.907 188.684 254.24 188.817 253.48ZM193.352 253.48C193.552 252.347 193.952 251.353 194.552 250.5C195.165 249.633 195.919 248.967 196.812 248.5C197.719 248.033 198.699 247.8 199.752 247.8C201.085 247.8 202.132 248.12 202.892 248.76C203.652 249.387 204.085 250.287 204.192 251.46H201.732C201.625 250.913 201.379 250.487 200.992 250.18C200.605 249.873 200.079 249.72 199.412 249.72C198.479 249.72 197.679 250.053 197.012 250.72C196.345 251.373 195.905 252.293 195.692 253.48C195.625 253.907 195.592 254.253 195.592 254.52C195.592 255.4 195.812 256.08 196.252 256.56C196.692 257.027 197.305 257.26 198.092 257.26C199.412 257.26 200.385 256.68 201.012 255.52H203.472C202.952 256.64 202.192 257.533 201.192 258.2C200.205 258.853 199.059 259.18 197.752 259.18C196.365 259.18 195.265 258.787 194.452 258C193.639 257.2 193.232 256.12 193.232 254.76C193.232 254.347 193.272 253.92 193.352 253.48ZM212.804 247.8C213.911 247.8 214.797 248.113 215.464 248.74C216.131 249.353 216.464 250.233 216.464 251.38C216.464 251.687 216.431 252.06 216.364 252.5L215.204 259H212.944L214.044 252.84C214.097 252.467 214.124 252.2 214.124 252.04C214.124 251.307 213.917 250.747 213.504 250.36C213.104 249.973 212.544 249.78 211.824 249.78C210.957 249.78 210.224 250.047 209.624 250.58C209.037 251.1 208.664 251.853 208.504 252.84V252.8L207.404 259H205.124L207.744 244.2H210.024L209.124 249.26C209.591 248.793 210.144 248.433 210.784 248.18C211.424 247.927 212.097 247.8 212.804 247.8ZM228.928 259.18C227.995 259.18 227.175 258.987 226.468 258.6C225.762 258.213 225.208 257.667 224.808 256.96C224.422 256.253 224.228 255.447 224.228 254.54C224.228 253.3 224.515 252.167 225.088 251.14C225.675 250.113 226.475 249.3 227.488 248.7C228.515 248.1 229.655 247.8 230.908 247.8C231.842 247.8 232.668 248 233.388 248.4C234.108 248.787 234.668 249.333 235.068 250.04C235.482 250.733 235.688 251.54 235.688 252.46C235.688 253.7 235.388 254.833 234.788 255.86C234.188 256.887 233.375 257.7 232.348 258.3C231.322 258.887 230.182 259.18 228.928 259.18ZM229.208 257.26C229.968 257.26 230.662 257.047 231.288 256.62C231.928 256.18 232.428 255.607 232.788 254.9C233.148 254.18 233.328 253.413 233.328 252.6C233.328 251.68 233.068 250.973 232.548 250.48C232.028 249.973 231.375 249.72 230.588 249.72C229.815 249.72 229.122 249.94 228.508 250.38C227.908 250.807 227.435 251.387 227.088 252.12C226.755 252.84 226.588 253.613 226.588 254.44C226.588 255.333 226.828 256.027 227.308 256.52C227.802 257.013 228.435 257.26 229.208 257.26ZM248.782 247.98L246.842 259H244.562L244.782 257.7C244.342 258.153 243.809 258.513 243.182 258.78C242.569 259.033 241.936 259.16 241.282 259.16C240.122 259.16 239.196 258.847 238.502 258.22C237.809 257.593 237.462 256.707 237.462 255.56C237.462 255.253 237.496 254.887 237.562 254.46L238.702 247.98H240.962L239.882 254.12C239.829 254.493 239.802 254.76 239.802 254.92C239.802 255.653 240.002 256.213 240.402 256.6C240.816 256.987 241.382 257.18 242.102 257.18C242.942 257.18 243.656 256.933 244.242 256.44C244.829 255.933 245.216 255.207 245.402 254.26L246.502 247.98H248.782ZM253.051 255.94C253.024 256.127 253.011 256.247 253.011 256.3C253.011 256.58 253.097 256.787 253.271 256.92C253.444 257.04 253.731 257.1 254.131 257.1H255.531L255.191 259H253.391C252.511 259 251.837 258.827 251.371 258.48C250.904 258.12 250.671 257.553 250.671 256.78C250.671 256.487 250.697 256.207 250.751 255.94L251.831 249.84H250.531L250.851 247.98H252.171L252.651 245.24H254.951L254.471 247.98H257.131L256.811 249.84H254.131L253.051 255.94ZM266.488 255.94C266.461 256.127 266.448 256.247 266.448 256.3C266.448 256.58 266.535 256.787 266.708 256.92C266.881 257.04 267.168 257.1 267.568 257.1H268.968L268.628 259H266.828C265.948 259 265.275 258.827 264.808 258.48C264.341 258.12 264.108 257.553 264.108 256.78C264.108 256.487 264.135 256.207 264.188 255.94L265.268 249.84H263.968L264.288 247.98H265.608L266.088 245.24H268.388L267.908 247.98H270.568L270.248 249.84H267.568L266.488 255.94ZM275.55 259.18C274.616 259.18 273.796 258.987 273.09 258.6C272.383 258.213 271.83 257.667 271.43 256.96C271.043 256.253 270.85 255.447 270.85 254.54C270.85 253.3 271.136 252.167 271.71 251.14C272.296 250.113 273.096 249.3 274.11 248.7C275.136 248.1 276.276 247.8 277.53 247.8C278.463 247.8 279.29 248 280.01 248.4C280.73 248.787 281.29 249.333 281.69 250.04C282.103 250.733 282.31 251.54 282.31 252.46C282.31 253.7 282.01 254.833 281.41 255.86C280.81 256.887 279.996 257.7 278.97 258.3C277.943 258.887 276.803 259.18 275.55 259.18ZM275.83 257.26C276.59 257.26 277.283 257.047 277.91 256.62C278.55 256.18 279.05 255.607 279.41 254.9C279.77 254.18 279.95 253.413 279.95 252.6C279.95 251.68 279.69 250.973 279.17 250.48C278.65 249.973 277.996 249.72 277.21 249.72C276.436 249.72 275.743 249.94 275.13 250.38C274.53 250.807 274.056 251.387 273.71 252.12C273.376 252.84 273.21 253.613 273.21 254.44C273.21 255.333 273.45 256.027 273.93 256.52C274.423 257.013 275.056 257.26 275.83 257.26ZM301.4 247.98L299.46 259H297.18L297.4 257.7C296.96 258.153 296.426 258.513 295.8 258.78C295.186 259.033 294.553 259.16 293.9 259.16C292.74 259.16 291.813 258.847 291.12 258.22C290.426 257.593 290.08 256.707 290.08 255.56C290.08 255.253 290.113 254.887 290.18 254.46L291.32 247.98H293.58L292.5 254.12C292.446 254.493 292.42 254.76 292.42 254.92C292.42 255.653 292.62 256.213 293.02 256.6C293.433 256.987 294 257.18 294.72 257.18C295.56 257.18 296.273 256.933 296.86 256.44C297.446 255.933 297.833 255.207 298.02 254.26L299.12 247.98H301.4ZM306.528 259.18C305.768 259.18 305.074 259.053 304.448 258.8C303.821 258.533 303.328 258.167 302.968 257.7C302.608 257.22 302.428 256.673 302.428 256.06C302.428 255.953 302.441 255.807 302.468 255.62H304.688C304.634 256.127 304.788 256.547 305.148 256.88C305.508 257.213 306.014 257.38 306.668 257.38C307.308 257.38 307.834 257.267 308.248 257.04C308.661 256.813 308.868 256.48 308.868 256.04C308.868 255.667 308.694 255.367 308.348 255.14C308.014 254.913 307.474 254.66 306.728 254.38C306.021 254.1 305.448 253.84 305.008 253.6C304.568 253.36 304.188 253.033 303.868 252.62C303.548 252.193 303.388 251.667 303.388 251.04C303.388 250.4 303.568 249.84 303.928 249.36C304.301 248.867 304.814 248.487 305.468 248.22C306.134 247.94 306.894 247.8 307.748 247.8C308.521 247.8 309.208 247.933 309.808 248.2C310.421 248.453 310.894 248.82 311.228 249.3C311.574 249.767 311.748 250.307 311.748 250.92C311.748 251.107 311.741 251.247 311.728 251.34H309.568C309.621 250.82 309.468 250.4 309.108 250.08C308.761 249.76 308.261 249.6 307.608 249.6C307.034 249.6 306.568 249.72 306.208 249.96C305.861 250.2 305.688 250.527 305.688 250.94C305.688 251.353 305.868 251.687 306.228 251.94C306.588 252.18 307.141 252.447 307.888 252.74C308.568 253.007 309.121 253.26 309.548 253.5C309.974 253.74 310.341 254.06 310.648 254.46C310.954 254.86 311.108 255.36 311.108 255.96C311.108 256.613 310.908 257.187 310.508 257.68C310.121 258.16 309.581 258.533 308.888 258.8C308.194 259.053 307.408 259.18 306.528 259.18ZM323.088 249.62C323.568 249.087 324.174 248.653 324.908 248.32C325.641 247.973 326.421 247.8 327.248 247.8C328.101 247.8 328.848 247.98 329.488 248.34C330.141 248.7 330.648 249.213 331.008 249.88C331.368 250.533 331.548 251.307 331.548 252.2C331.548 252.587 331.508 253 331.428 253.44C331.228 254.547 330.821 255.54 330.208 256.42C329.608 257.287 328.868 257.967 327.988 258.46C327.121 258.94 326.208 259.18 325.248 259.18C324.394 259.18 323.668 259.013 323.068 258.68C322.468 258.347 322.014 257.92 321.708 257.4L321.428 259H319.148L321.768 244.2H324.048L323.088 249.62ZM329.108 253.44C329.161 253.187 329.188 252.913 329.188 252.62C329.188 251.727 328.921 251.033 328.388 250.54C327.868 250.033 327.208 249.78 326.408 249.78C325.834 249.78 325.261 249.927 324.688 250.22C324.128 250.513 323.641 250.94 323.228 251.5C322.814 252.06 322.541 252.72 322.408 253.48C322.354 253.733 322.328 254.007 322.328 254.3C322.328 255.193 322.588 255.9 323.108 256.42C323.641 256.94 324.301 257.2 325.088 257.2C325.674 257.2 326.248 257.053 326.808 256.76C327.381 256.453 327.874 256.013 328.288 255.44C328.701 254.867 328.974 254.2 329.108 253.44ZM335.882 247.98L337.502 256.38L342.202 247.98H344.562L334.962 264.18H332.602L335.782 258.82L333.342 247.98H335.882ZM350.559 253.48C350.759 252.347 351.159 251.353 351.759 250.5C352.372 249.633 353.126 248.967 354.019 248.5C354.926 248.033 355.906 247.8 356.959 247.8C358.292 247.8 359.339 248.12 360.099 248.76C360.859 249.387 361.292 250.287 361.399 251.46H358.939C358.832 250.913 358.586 250.487 358.199 250.18C357.812 249.873 357.286 249.72 356.619 249.72C355.686 249.72 354.886 250.053 354.219 250.72C353.552 251.373 353.112 252.293 352.899 253.48C352.832 253.907 352.799 254.253 352.799 254.52C352.799 255.4 353.019 256.08 353.459 256.56C353.899 257.027 354.512 257.26 355.299 257.26C356.619 257.26 357.592 256.68 358.219 255.52H360.679C360.159 256.64 359.399 257.533 358.399 258.2C357.412 258.853 356.266 259.18 354.959 259.18C353.572 259.18 352.472 258.787 351.659 258C350.846 257.2 350.439 256.12 350.439 254.76C350.439 254.347 350.479 253.92 350.559 253.48ZM367.151 259.18C366.218 259.18 365.398 258.987 364.691 258.6C363.984 258.213 363.431 257.667 363.031 256.96C362.644 256.253 362.451 255.447 362.451 254.54C362.451 253.3 362.738 252.167 363.311 251.14C363.898 250.113 364.698 249.3 365.711 248.7C366.738 248.1 367.878 247.8 369.131 247.8C370.064 247.8 370.891 248 371.611 248.4C372.331 248.787 372.891 249.333 373.291 250.04C373.704 250.733 373.911 251.54 373.911 252.46C373.911 253.7 373.611 254.833 373.011 255.86C372.411 256.887 371.598 257.7 370.571 258.3C369.544 258.887 368.404 259.18 367.151 259.18ZM367.431 257.26C368.191 257.26 368.884 257.047 369.511 256.62C370.151 256.18 370.651 255.607 371.011 254.9C371.371 254.18 371.551 253.413 371.551 252.6C371.551 251.68 371.291 250.973 370.771 250.48C370.251 249.973 369.598 249.72 368.811 249.72C368.038 249.72 367.344 249.94 366.731 250.38C366.131 250.807 365.658 251.387 365.311 252.12C364.978 252.84 364.811 253.613 364.811 254.44C364.811 255.333 365.051 256.027 365.531 256.52C366.024 257.013 366.658 257.26 367.431 257.26ZM390.405 247.8C391.565 247.8 392.492 248.113 393.185 248.74C393.878 249.367 394.225 250.253 394.225 251.4C394.225 251.707 394.192 252.073 394.125 252.5L392.965 259H390.705L391.805 252.84C391.858 252.467 391.885 252.2 391.885 252.04C391.885 251.307 391.678 250.747 391.265 250.36C390.865 249.973 390.305 249.78 389.585 249.78C388.718 249.78 387.985 250.047 387.385 250.58C386.798 251.1 386.425 251.853 386.265 252.84L385.165 259H382.905L384.005 252.84C384.058 252.467 384.085 252.2 384.085 252.04C384.085 251.307 383.878 250.747 383.465 250.36C383.065 249.973 382.505 249.78 381.785 249.78C380.918 249.78 380.185 250.047 379.585 250.58C378.998 251.1 378.625 251.853 378.465 252.84V252.78L377.365 259H375.085L377.025 247.98H379.305L379.085 249.26C379.525 248.807 380.052 248.453 380.665 248.2C381.292 247.933 381.938 247.8 382.605 247.8C383.485 247.8 384.238 247.987 384.865 248.36C385.505 248.733 385.952 249.273 386.205 249.98C386.645 249.313 387.252 248.787 388.025 248.4C388.798 248 389.592 247.8 390.405 247.8ZM399.806 249.6C400.286 249.093 400.886 248.667 401.606 248.32C402.34 247.973 403.126 247.8 403.966 247.8C404.806 247.8 405.553 247.98 406.206 248.34C406.86 248.7 407.366 249.213 407.726 249.88C408.086 250.547 408.266 251.327 408.266 252.22C408.266 252.607 408.226 253.013 408.146 253.44C407.946 254.547 407.54 255.54 406.926 256.42C406.326 257.287 405.586 257.967 404.706 258.46C403.84 258.94 402.926 259.18 401.966 259.18C401.126 259.18 400.406 259.013 399.806 258.68C399.22 258.333 398.76 257.907 398.426 257.4L397.226 264.24H394.946L397.806 247.98H400.086L399.806 249.6ZM405.826 253.44C405.88 253.187 405.906 252.913 405.906 252.62C405.906 251.727 405.64 251.033 405.106 250.54C404.586 250.033 403.926 249.78 403.126 249.78C402.553 249.78 401.98 249.927 401.406 250.22C400.846 250.513 400.36 250.94 399.946 251.5C399.533 252.06 399.26 252.72 399.126 253.48C399.073 253.733 399.046 254.007 399.046 254.3C399.046 255.193 399.306 255.9 399.826 256.42C400.36 256.94 401.02 257.2 401.806 257.2C402.393 257.2 402.966 257.053 403.526 256.76C404.1 256.453 404.593 256.013 405.006 255.44C405.42 254.867 405.693 254.2 405.826 253.44ZM414.321 244.2L411.701 259H409.421L412.041 244.2H414.321ZM421.414 247.8C422.788 247.8 423.881 248.187 424.694 248.96C425.521 249.733 425.934 250.773 425.934 252.08C425.934 252.387 425.901 252.753 425.834 253.18C425.781 253.473 425.688 253.833 425.554 254.26H417.134C417.121 254.353 417.114 254.493 417.114 254.68C417.114 255.467 417.354 256.093 417.834 256.56C418.328 257.027 418.968 257.26 419.754 257.26C420.994 257.26 421.948 256.747 422.614 255.72H425.074C424.568 256.733 423.821 257.567 422.834 258.22C421.848 258.86 420.708 259.18 419.414 259.18C418.494 259.18 417.688 259 416.994 258.64C416.301 258.28 415.761 257.767 415.374 257.1C414.988 256.42 414.794 255.627 414.794 254.72C414.794 254.333 414.834 253.92 414.914 253.48C415.114 252.347 415.521 251.353 416.134 250.5C416.748 249.633 417.508 248.967 418.414 248.5C419.334 248.033 420.334 247.8 421.414 247.8ZM423.554 252.62C423.581 252.38 423.594 252.207 423.594 252.1C423.594 251.367 423.348 250.787 422.854 250.36C422.374 249.933 421.748 249.72 420.974 249.72C420.161 249.72 419.428 249.98 418.774 250.5C418.121 251.02 417.674 251.727 417.434 252.62H423.554ZM430.238 255.94C430.211 256.127 430.198 256.247 430.198 256.3C430.198 256.58 430.285 256.787 430.458 256.92C430.631 257.04 430.918 257.1 431.318 257.1H432.718L432.378 259H430.578C429.698 259 429.025 258.827 428.558 258.48C428.091 258.12 427.858 257.553 427.858 256.78C427.858 256.487 427.885 256.207 427.938 255.94L429.018 249.84H427.718L428.038 247.98H429.358L429.838 245.24H432.138L431.658 247.98H434.318L433.998 249.84H431.318L430.238 255.94ZM437.84 246.52C437.48 246.52 437.186 246.407 436.96 246.18C436.733 245.953 436.62 245.667 436.62 245.32C436.62 244.853 436.793 244.453 437.14 244.12C437.5 243.773 437.906 243.6 438.36 243.6C438.72 243.6 439.006 243.713 439.22 243.94C439.446 244.167 439.56 244.453 439.56 244.8C439.56 245.267 439.386 245.673 439.04 246.02C438.693 246.353 438.293 246.52 437.84 246.52ZM438.7 247.98L436.76 259H434.48L436.42 247.98H438.7ZM447.293 247.8C448.453 247.8 449.373 248.113 450.053 248.74C450.746 249.353 451.093 250.24 451.093 251.4C451.093 251.693 451.06 252.06 450.993 252.5L449.833 259H447.573L448.673 252.84C448.726 252.467 448.753 252.2 448.753 252.04C448.753 251.307 448.546 250.747 448.133 250.36C447.733 249.973 447.173 249.78 446.453 249.78C445.586 249.78 444.853 250.047 444.253 250.58C443.666 251.1 443.293 251.853 443.133 252.84V252.78L442.033 259H439.753L441.693 247.98H443.973L443.753 249.26C444.206 248.807 444.74 248.453 445.353 248.2C445.98 247.933 446.626 247.8 447.293 247.8ZM459.161 247.8C460.015 247.8 460.741 247.973 461.341 248.32C461.955 248.653 462.395 249.073 462.661 249.58L462.941 247.98H465.241L463.281 259.18C463.095 260.193 462.721 261.093 462.161 261.88C461.601 262.68 460.875 263.307 459.981 263.76C459.088 264.213 458.081 264.44 456.961 264.44C455.988 264.44 455.135 264.28 454.401 263.96C453.668 263.653 453.115 263.207 452.741 262.62C452.368 262.033 452.208 261.34 452.261 260.54H454.521C454.588 261.113 454.875 261.573 455.381 261.92C455.888 262.28 456.535 262.46 457.321 262.46C458.241 262.46 459.035 262.18 459.701 261.62C460.368 261.06 460.795 260.247 460.981 259.18L461.301 257.34C460.821 257.86 460.221 258.3 459.501 258.66C458.781 259.007 458.001 259.18 457.161 259.18C456.321 259.18 455.575 258.993 454.921 258.62C454.268 258.247 453.755 257.72 453.381 257.04C453.021 256.347 452.841 255.553 452.841 254.66C452.841 254.26 452.881 253.853 452.961 253.44C453.161 252.333 453.561 251.353 454.161 250.5C454.775 249.647 455.521 248.987 456.401 248.52C457.281 248.04 458.201 247.8 459.161 247.8ZM461.981 253.48C462.035 253.227 462.061 252.953 462.061 252.66C462.061 251.767 461.795 251.067 461.261 250.56C460.741 250.04 460.088 249.78 459.301 249.78C458.715 249.78 458.141 249.927 457.581 250.22C457.021 250.5 456.535 250.92 456.121 251.48C455.708 252.027 455.435 252.68 455.301 253.44C455.248 253.693 455.221 253.967 455.221 254.26C455.221 255.167 455.481 255.887 456.001 256.42C456.535 256.94 457.195 257.2 457.981 257.2C458.568 257.2 459.141 257.053 459.701 256.76C460.261 256.467 460.748 256.04 461.161 255.48C461.575 254.907 461.848 254.24 461.981 253.48ZM475.492 255.94C475.465 256.127 475.452 256.247 475.452 256.3C475.452 256.58 475.539 256.787 475.712 256.92C475.885 257.04 476.172 257.1 476.572 257.1H477.972L477.632 259H475.832C474.952 259 474.279 258.827 473.812 258.48C473.345 258.12 473.112 257.553 473.112 256.78C473.112 256.487 473.139 256.207 473.192 255.94L474.272 249.84H472.972L473.292 247.98H474.612L475.092 245.24H477.392L476.912 247.98H479.572L479.252 249.84H476.572L475.492 255.94ZM487.413 247.8C488.52 247.8 489.407 248.113 490.073 248.74C490.74 249.353 491.073 250.233 491.073 251.38C491.073 251.687 491.04 252.06 490.973 252.5L489.813 259H487.553L488.653 252.84C488.707 252.467 488.733 252.2 488.733 252.04C488.733 251.307 488.527 250.747 488.113 250.36C487.713 249.973 487.153 249.78 486.433 249.78C485.567 249.78 484.833 250.047 484.233 250.58C483.647 251.1 483.273 251.853 483.113 252.84V252.8L482.013 259H479.733L482.353 244.2H484.633L483.733 249.26C484.2 248.793 484.753 248.433 485.393 248.18C486.033 247.927 486.707 247.8 487.413 247.8ZM499.442 247.8C500.815 247.8 501.908 248.187 502.722 248.96C503.548 249.733 503.962 250.773 503.962 252.08C503.962 252.387 503.928 252.753 503.862 253.18C503.808 253.473 503.715 253.833 503.582 254.26H495.162C495.148 254.353 495.142 254.493 495.142 254.68C495.142 255.467 495.382 256.093 495.862 256.56C496.355 257.027 496.995 257.26 497.782 257.26C499.022 257.26 499.975 256.747 500.642 255.72H503.102C502.595 256.733 501.848 257.567 500.862 258.22C499.875 258.86 498.735 259.18 497.442 259.18C496.522 259.18 495.715 259 495.022 258.64C494.328 258.28 493.788 257.767 493.402 257.1C493.015 256.42 492.822 255.627 492.822 254.72C492.822 254.333 492.862 253.92 492.942 253.48C493.142 252.347 493.548 251.353 494.162 250.5C494.775 249.633 495.535 248.967 496.442 248.5C497.362 248.033 498.362 247.8 499.442 247.8ZM501.582 252.62C501.608 252.38 501.622 252.207 501.622 252.1C501.622 251.367 501.375 250.787 500.882 250.36C500.402 249.933 499.775 249.72 499.002 249.72C498.188 249.72 497.455 249.98 496.802 250.5C496.148 251.02 495.702 251.727 495.462 252.62H501.582ZM511.282 253.48C511.482 252.347 511.882 251.353 512.482 250.5C513.095 249.633 513.848 248.967 514.742 248.5C515.648 248.033 516.628 247.8 517.682 247.8C519.015 247.8 520.062 248.12 520.822 248.76C521.582 249.387 522.015 250.287 522.122 251.46H519.662C519.555 250.913 519.308 250.487 518.922 250.18C518.535 249.873 518.008 249.72 517.342 249.72C516.408 249.72 515.608 250.053 514.942 250.72C514.275 251.373 513.835 252.293 513.622 253.48C513.555 253.907 513.522 254.253 513.522 254.52C513.522 255.4 513.742 256.08 514.182 256.56C514.622 257.027 515.235 257.26 516.022 257.26C517.342 257.26 518.315 256.68 518.942 255.52H521.402C520.882 256.64 520.122 257.533 519.122 258.2C518.135 258.853 516.988 259.18 515.682 259.18C514.295 259.18 513.195 258.787 512.382 258C511.568 257.2 511.162 256.12 511.162 254.76C511.162 254.347 511.202 253.92 511.282 253.48ZM527.874 259.18C526.94 259.18 526.12 258.987 525.414 258.6C524.707 258.213 524.154 257.667 523.754 256.96C523.367 256.253 523.174 255.447 523.174 254.54C523.174 253.3 523.46 252.167 524.034 251.14C524.62 250.113 525.42 249.3 526.434 248.7C527.46 248.1 528.6 247.8 529.854 247.8C530.787 247.8 531.614 248 532.334 248.4C533.054 248.787 533.614 249.333 534.014 250.04C534.427 250.733 534.634 251.54 534.634 252.46C534.634 253.7 534.334 254.833 533.734 255.86C533.134 256.887 532.32 257.7 531.294 258.3C530.267 258.887 529.127 259.18 527.874 259.18ZM528.154 257.26C528.914 257.26 529.607 257.047 530.234 256.62C530.874 256.18 531.374 255.607 531.734 254.9C532.094 254.18 532.274 253.413 532.274 252.6C532.274 251.68 532.014 250.973 531.494 250.48C530.974 249.973 530.32 249.72 529.534 249.72C528.76 249.72 528.067 249.94 527.454 250.38C526.854 250.807 526.38 251.387 526.034 252.12C525.7 252.84 525.534 253.613 525.534 254.44C525.534 255.333 525.774 256.027 526.254 256.52C526.747 257.013 527.38 257.26 528.154 257.26ZM543.348 247.8C544.508 247.8 545.428 248.113 546.108 248.74C546.801 249.353 547.148 250.24 547.148 251.4C547.148 251.693 547.114 252.06 547.048 252.5L545.888 259H543.628L544.728 252.84C544.781 252.467 544.808 252.2 544.808 252.04C544.808 251.307 544.601 250.747 544.188 250.36C543.788 249.973 543.228 249.78 542.508 249.78C541.641 249.78 540.908 250.047 540.308 250.58C539.721 251.1 539.348 251.853 539.188 252.84V252.78L538.088 259H535.808L537.748 247.98H540.028L539.808 249.26C540.261 248.807 540.794 248.453 541.408 248.2C542.034 247.933 542.681 247.8 543.348 247.8ZM551.996 255.94C551.969 256.127 551.956 256.247 551.956 256.3C551.956 256.58 552.043 256.787 552.216 256.92C552.389 257.04 552.676 257.1 553.076 257.1H554.476L554.136 259H552.336C551.456 259 550.783 258.827 550.316 258.48C549.849 258.12 549.616 257.553 549.616 256.78C549.616 256.487 549.643 256.207 549.696 255.94L550.776 249.84H549.476L549.796 247.98H551.116L551.596 245.24H553.896L553.416 247.98H556.076L555.756 249.84H553.076L551.996 255.94ZM556.457 253.44C556.657 252.333 557.057 251.353 557.657 250.5C558.271 249.647 559.017 248.987 559.897 248.52C560.777 248.04 561.697 247.8 562.657 247.8C563.524 247.8 564.251 247.973 564.837 248.32C565.424 248.653 565.864 249.073 566.157 249.58L566.437 247.98H568.737L566.797 259H564.497L564.797 257.36C564.317 257.88 563.711 258.313 562.977 258.66C562.257 259.007 561.471 259.18 560.617 259.18C559.791 259.18 559.051 258.993 558.397 258.62C557.757 258.247 557.251 257.72 556.877 257.04C556.517 256.347 556.337 255.553 556.337 254.66C556.337 254.26 556.377 253.853 556.457 253.44ZM565.477 253.48C565.531 253.227 565.557 252.953 565.557 252.66C565.557 251.767 565.291 251.067 564.757 250.56C564.237 250.04 563.584 249.78 562.797 249.78C562.211 249.78 561.637 249.927 561.077 250.22C560.517 250.5 560.031 250.92 559.617 251.48C559.204 252.027 558.931 252.68 558.797 253.44C558.744 253.693 558.717 253.967 558.717 254.26C558.717 255.167 558.977 255.887 559.497 256.42C560.031 256.94 560.691 257.2 561.477 257.2C562.064 257.2 562.637 257.053 563.197 256.76C563.757 256.467 564.244 256.04 564.657 255.48C565.071 254.907 565.344 254.24 565.477 253.48ZM570.012 253.48C570.212 252.347 570.612 251.353 571.212 250.5C571.825 249.633 572.579 248.967 573.472 248.5C574.379 248.033 575.359 247.8 576.412 247.8C577.745 247.8 578.792 248.12 579.552 248.76C580.312 249.387 580.745 250.287 580.852 251.46H578.392C578.285 250.913 578.039 250.487 577.652 250.18C577.265 249.873 576.739 249.72 576.072 249.72C575.139 249.72 574.339 250.053 573.672 250.72C573.005 251.373 572.565 252.293 572.352 253.48C572.285 253.907 572.252 254.253 572.252 254.52C572.252 255.4 572.472 256.08 572.912 256.56C573.352 257.027 573.965 257.26 574.752 257.26C576.072 257.26 577.045 256.68 577.672 255.52H580.132C579.612 256.64 578.852 257.533 577.852 258.2C576.865 258.853 575.719 259.18 574.412 259.18C573.025 259.18 571.925 258.787 571.112 258C570.299 257.2 569.892 256.12 569.892 254.76C569.892 254.347 569.932 253.92 570.012 253.48ZM584.984 255.94C584.958 256.127 584.944 256.247 584.944 256.3C584.944 256.58 585.031 256.787 585.204 256.92C585.378 257.04 585.664 257.1 586.064 257.1H587.464L587.124 259H585.324C584.444 259 583.771 258.827 583.304 258.48C582.838 258.12 582.604 257.553 582.604 256.78C582.604 256.487 582.631 256.207 582.684 255.94L583.764 249.84H582.464L582.784 247.98H584.104L584.584 245.24H586.884L586.404 247.98H589.064L588.744 249.84H586.064L584.984 255.94ZM602.082 245.46C601.388 245.46 600.875 245.593 600.542 245.86C600.208 246.127 599.988 246.573 599.882 247.2L599.742 247.98H601.782L601.462 249.84H599.422L597.802 259H595.502L597.122 249.84H595.822L596.142 247.98H597.442L597.582 247.2C597.808 245.933 598.308 245.013 599.082 244.44C599.855 243.853 600.962 243.56 602.402 243.56L602.082 245.46ZM606.682 259.18C605.749 259.18 604.929 258.987 604.222 258.6C603.516 258.213 602.962 257.667 602.562 256.96C602.176 256.253 601.982 255.447 601.982 254.54C601.982 253.3 602.269 252.167 602.842 251.14C603.429 250.113 604.229 249.3 605.242 248.7C606.269 248.1 607.409 247.8 608.662 247.8C609.596 247.8 610.422 248 611.142 248.4C611.862 248.787 612.422 249.333 612.822 250.04C613.236 250.733 613.442 251.54 613.442 252.46C613.442 253.7 613.142 254.833 612.542 255.86C611.942 256.887 611.129 257.7 610.102 258.3C609.076 258.887 607.936 259.18 606.682 259.18ZM606.962 257.26C607.722 257.26 608.416 257.047 609.042 256.62C609.682 256.18 610.182 255.607 610.542 254.9C610.902 254.18 611.082 253.413 611.082 252.6C611.082 251.68 610.822 250.973 610.302 250.48C609.782 249.973 609.129 249.72 608.342 249.72C607.569 249.72 606.876 249.94 606.262 250.38C605.662 250.807 605.189 251.387 604.842 252.12C604.509 252.84 604.342 253.613 604.342 254.44C604.342 255.333 604.582 256.027 605.062 256.52C605.556 257.013 606.189 257.26 606.962 257.26ZM618.496 249.92C618.95 249.253 619.483 248.733 620.096 248.36C620.723 247.987 621.416 247.8 622.176 247.8L621.756 250.16H621.176C620.296 250.16 619.59 250.38 619.056 250.82C618.523 251.26 618.15 252.02 617.936 253.1L616.896 259H614.616L616.556 247.98H618.836L618.496 249.92ZM637.612 247.8C638.772 247.8 639.699 248.113 640.392 248.74C641.085 249.367 641.432 250.253 641.432 251.4C641.432 251.707 641.399 252.073 641.332 252.5L640.172 259H637.912L639.012 252.84C639.065 252.467 639.092 252.2 639.092 252.04C639.092 251.307 638.885 250.747 638.472 250.36C638.072 249.973 637.512 249.78 636.792 249.78C635.925 249.78 635.192 250.047 634.592 250.58C634.005 251.1 633.632 251.853 633.472 252.84L632.372 259H630.112L631.212 252.84C631.265 252.467 631.292 252.2 631.292 252.04C631.292 251.307 631.085 250.747 630.672 250.36C630.272 249.973 629.712 249.78 628.992 249.78C628.125 249.78 627.392 250.047 626.792 250.58C626.205 251.1 625.832 251.853 625.672 252.84V252.78L624.572 259H622.292L624.232 247.98H626.512L626.292 249.26C626.732 248.807 627.259 248.453 627.872 248.2C628.499 247.933 629.145 247.8 629.812 247.8C630.692 247.8 631.445 247.987 632.072 248.36C632.712 248.733 633.159 249.273 633.412 249.98C633.852 249.313 634.459 248.787 635.232 248.4C636.005 248 636.799 247.8 637.612 247.8ZM653.009 249.62C653.489 249.087 654.096 248.653 654.829 248.32C655.563 247.973 656.343 247.8 657.169 247.8C658.023 247.8 658.769 247.98 659.409 248.34C660.063 248.7 660.569 249.213 660.929 249.88C661.289 250.533 661.469 251.307 661.469 252.2C661.469 252.587 661.429 253 661.349 253.44C661.149 254.547 660.743 255.54 660.129 256.42C659.529 257.287 658.789 257.967 657.909 258.46C657.043 258.94 656.129 259.18 655.169 259.18C654.316 259.18 653.589 259.013 652.989 258.68C652.389 258.347 651.936 257.92 651.629 257.4L651.349 259H649.069L651.689 244.2H653.969L653.009 249.62ZM659.029 253.44C659.083 253.187 659.109 252.913 659.109 252.62C659.109 251.727 658.843 251.033 658.309 250.54C657.789 250.033 657.129 249.78 656.329 249.78C655.756 249.78 655.183 249.927 654.609 250.22C654.049 250.513 653.563 250.94 653.149 251.5C652.736 252.06 652.463 252.72 652.329 253.48C652.276 253.733 652.249 254.007 652.249 254.3C652.249 255.193 652.509 255.9 653.029 256.42C653.563 256.94 654.223 257.2 655.009 257.2C655.596 257.2 656.169 257.053 656.729 256.76C657.303 256.453 657.796 256.013 658.209 255.44C658.623 254.867 658.896 254.2 659.029 253.44ZM669.344 247.8C670.717 247.8 671.811 248.187 672.624 248.96C673.451 249.733 673.864 250.773 673.864 252.08C673.864 252.387 673.831 252.753 673.764 253.18C673.711 253.473 673.617 253.833 673.484 254.26H665.064C665.051 254.353 665.044 254.493 665.044 254.68C665.044 255.467 665.284 256.093 665.764 256.56C666.257 257.027 666.897 257.26 667.684 257.26C668.924 257.26 669.877 256.747 670.544 255.72H673.004C672.497 256.733 671.751 257.567 670.764 258.22C669.777 258.86 668.637 259.18 667.344 259.18C666.424 259.18 665.617 259 664.924 258.64C664.231 258.28 663.691 257.767 663.304 257.1C662.917 256.42 662.724 255.627 662.724 254.72C662.724 254.333 662.764 253.92 662.844 253.48C663.044 252.347 663.451 251.353 664.064 250.5C664.677 249.633 665.437 248.967 666.344 248.5C667.264 248.033 668.264 247.8 669.344 247.8ZM671.484 252.62C671.511 252.38 671.524 252.207 671.524 252.1C671.524 251.367 671.277 250.787 670.784 250.36C670.304 249.933 669.677 249.72 668.904 249.72C668.091 249.72 667.357 249.98 666.704 250.5C666.051 251.02 665.604 251.727 665.364 252.62H671.484ZM679.868 244.2L677.248 259H674.968L677.588 244.2H679.868ZM685.061 259.18C684.128 259.18 683.308 258.987 682.601 258.6C681.895 258.213 681.341 257.667 680.941 256.96C680.555 256.253 680.361 255.447 680.361 254.54C680.361 253.3 680.648 252.167 681.221 251.14C681.808 250.113 682.608 249.3 683.621 248.7C684.648 248.1 685.788 247.8 687.041 247.8C687.975 247.8 688.801 248 689.521 248.4C690.241 248.787 690.801 249.333 691.201 250.04C691.615 250.733 691.821 251.54 691.821 252.46C691.821 253.7 691.521 254.833 690.921 255.86C690.321 256.887 689.508 257.7 688.481 258.3C687.455 258.887 686.315 259.18 685.061 259.18ZM685.341 257.26C686.101 257.26 686.795 257.047 687.421 256.62C688.061 256.18 688.561 255.607 688.921 254.9C689.281 254.18 689.461 253.413 689.461 252.6C689.461 251.68 689.201 250.973 688.681 250.48C688.161 249.973 687.508 249.72 686.721 249.72C685.948 249.72 685.255 249.94 684.641 250.38C684.041 250.807 683.568 251.387 683.221 252.12C682.888 252.84 682.721 253.613 682.721 254.44C682.721 255.333 682.961 256.027 683.441 256.52C683.935 257.013 684.568 257.26 685.341 257.26ZM709.735 247.98L704.375 259H701.975L701.215 250.86L697.535 259H695.135L693.635 247.98H695.955L696.715 256.84L700.595 247.98H702.975L703.675 256.8L707.495 247.98H709.735ZM710.399 259.14C710.039 259.14 709.746 259.027 709.519 258.8C709.292 258.573 709.179 258.287 709.179 257.94C709.179 257.473 709.352 257.073 709.699 256.74C710.059 256.393 710.466 256.22 710.919 256.22C711.279 256.22 711.566 256.333 711.779 256.56C712.006 256.787 712.119 257.073 712.119 257.42C712.119 257.887 711.946 258.293 711.599 258.64C711.252 258.973 710.852 259.14 710.399 259.14ZM257.481 280.1L250.901 294H248.321L247.241 283.48L242.301 294L239.741 294.02L238.261 280.1H240.681L241.561 291.42L246.681 280.1H249.241L250.161 291.36L255.041 280.1H257.481ZM263.621 282.8C264.995 282.8 266.088 283.187 266.901 283.96C267.728 284.733 268.141 285.773 268.141 287.08C268.141 287.387 268.108 287.753 268.041 288.18C267.988 288.473 267.895 288.833 267.761 289.26H259.341C259.328 289.353 259.321 289.493 259.321 289.68C259.321 290.467 259.561 291.093 260.041 291.56C260.535 292.027 261.175 292.26 261.961 292.26C263.201 292.26 264.155 291.747 264.821 290.72H267.281C266.775 291.733 266.028 292.567 265.041 293.22C264.055 293.86 262.915 294.18 261.621 294.18C260.701 294.18 259.895 294 259.201 293.64C258.508 293.28 257.968 292.767 257.581 292.1C257.195 291.42 257.001 290.627 257.001 289.72C257.001 289.333 257.041 288.92 257.121 288.48C257.321 287.347 257.728 286.353 258.341 285.5C258.955 284.633 259.715 283.967 260.621 283.5C261.541 283.033 262.541 282.8 263.621 282.8ZM265.761 287.62C265.788 287.38 265.801 287.207 265.801 287.1C265.801 286.367 265.555 285.787 265.061 285.36C264.581 284.933 263.955 284.72 263.181 284.72C262.368 284.72 261.635 284.98 260.981 285.5C260.328 286.02 259.881 286.727 259.641 287.62H265.761ZM279.861 291.96L284.561 282.98H287.021L280.881 294H278.121L275.881 282.98H278.321L279.861 291.96ZM286.985 288.44C287.185 287.333 287.585 286.353 288.185 285.5C288.798 284.647 289.545 283.987 290.425 283.52C291.305 283.04 292.225 282.8 293.185 282.8C294.051 282.8 294.778 282.973 295.365 283.32C295.951 283.653 296.391 284.073 296.685 284.58L296.965 282.98H299.265L297.325 294H295.025L295.325 292.36C294.845 292.88 294.238 293.313 293.505 293.66C292.785 294.007 291.998 294.18 291.145 294.18C290.318 294.18 289.578 293.993 288.925 293.62C288.285 293.247 287.778 292.72 287.405 292.04C287.045 291.347 286.865 290.553 286.865 289.66C286.865 289.26 286.905 288.853 286.985 288.44ZM296.005 288.48C296.058 288.227 296.085 287.953 296.085 287.66C296.085 286.767 295.818 286.067 295.285 285.56C294.765 285.04 294.111 284.78 293.325 284.78C292.738 284.78 292.165 284.927 291.605 285.22C291.045 285.5 290.558 285.92 290.145 286.48C289.731 287.027 289.458 287.68 289.325 288.44C289.271 288.693 289.245 288.967 289.245 289.26C289.245 290.167 289.505 290.887 290.025 291.42C290.558 291.94 291.218 292.2 292.005 292.2C292.591 292.2 293.165 292.053 293.725 291.76C294.285 291.467 294.771 291.04 295.185 290.48C295.598 289.907 295.871 289.24 296.005 288.48ZM305.219 279.2L302.599 294H300.319L302.939 279.2H305.219ZM317.513 282.98L315.573 294H313.293L313.513 292.7C313.073 293.153 312.539 293.513 311.913 293.78C311.299 294.033 310.666 294.16 310.013 294.16C308.853 294.16 307.926 293.847 307.233 293.22C306.539 292.593 306.193 291.707 306.193 290.56C306.193 290.253 306.226 289.887 306.293 289.46L307.433 282.98H309.693L308.613 289.12C308.559 289.493 308.533 289.76 308.533 289.92C308.533 290.653 308.733 291.213 309.133 291.6C309.546 291.987 310.113 292.18 310.833 292.18C311.673 292.18 312.386 291.933 312.973 291.44C313.559 290.933 313.946 290.207 314.133 289.26L315.233 282.98H317.513ZM325.301 282.8C326.674 282.8 327.768 283.187 328.581 283.96C329.408 284.733 329.821 285.773 329.821 287.08C329.821 287.387 329.788 287.753 329.721 288.18C329.668 288.473 329.574 288.833 329.441 289.26H321.021C321.008 289.353 321.001 289.493 321.001 289.68C321.001 290.467 321.241 291.093 321.721 291.56C322.214 292.027 322.854 292.26 323.641 292.26C324.881 292.26 325.834 291.747 326.501 290.72H328.961C328.454 291.733 327.708 292.567 326.721 293.22C325.734 293.86 324.594 294.18 323.301 294.18C322.381 294.18 321.574 294 320.881 293.64C320.188 293.28 319.648 292.767 319.261 292.1C318.874 291.42 318.681 290.627 318.681 289.72C318.681 289.333 318.721 288.92 318.801 288.48C319.001 287.347 319.408 286.353 320.021 285.5C320.634 284.633 321.394 283.967 322.301 283.5C323.221 283.033 324.221 282.8 325.301 282.8ZM327.441 287.62C327.468 287.38 327.481 287.207 327.481 287.1C327.481 286.367 327.234 285.787 326.741 285.36C326.261 284.933 325.634 284.72 324.861 284.72C324.048 284.72 323.314 284.98 322.661 285.5C322.008 286.02 321.561 286.727 321.321 287.62H327.441ZM340.101 282.98L341.721 291.38L346.421 282.98H348.781L339.181 299.18H336.821L340.001 293.82L337.561 282.98H340.101ZM353.382 294.18C352.448 294.18 351.628 293.987 350.922 293.6C350.215 293.213 349.662 292.667 349.262 291.96C348.875 291.253 348.682 290.447 348.682 289.54C348.682 288.3 348.968 287.167 349.542 286.14C350.128 285.113 350.928 284.3 351.942 283.7C352.968 283.1 354.108 282.8 355.362 282.8C356.295 282.8 357.122 283 357.842 283.4C358.562 283.787 359.122 284.333 359.522 285.04C359.935 285.733 360.142 286.54 360.142 287.46C360.142 288.7 359.842 289.833 359.242 290.86C358.642 291.887 357.828 292.7 356.802 293.3C355.775 293.887 354.635 294.18 353.382 294.18ZM353.662 292.26C354.422 292.26 355.115 292.047 355.742 291.62C356.382 291.18 356.882 290.607 357.242 289.9C357.602 289.18 357.782 288.413 357.782 287.6C357.782 286.68 357.522 285.973 357.002 285.48C356.482 284.973 355.828 284.72 355.042 284.72C354.268 284.72 353.575 284.94 352.962 285.38C352.362 285.807 351.888 286.387 351.542 287.12C351.208 287.84 351.042 288.613 351.042 289.44C351.042 290.333 351.282 291.027 351.762 291.52C352.255 292.013 352.888 292.26 353.662 292.26ZM373.235 282.98L371.295 294H369.015L369.235 292.7C368.795 293.153 368.262 293.513 367.635 293.78C367.022 294.033 366.389 294.16 365.735 294.16C364.575 294.16 363.649 293.847 362.955 293.22C362.262 292.593 361.915 291.707 361.915 290.56C361.915 290.253 361.949 289.887 362.015 289.46L363.155 282.98H365.415L364.335 289.12C364.282 289.493 364.255 289.76 364.255 289.92C364.255 290.653 364.455 291.213 364.855 291.6C365.269 291.987 365.835 292.18 366.555 292.18C367.395 292.18 368.109 291.933 368.695 291.44C369.282 290.933 369.669 290.207 369.855 289.26L370.955 282.98H373.235ZM378.184 284.92C378.637 284.253 379.17 283.733 379.784 283.36C380.41 282.987 381.104 282.8 381.864 282.8L381.444 285.16H380.864C379.984 285.16 379.277 285.38 378.744 285.82C378.21 286.26 377.837 287.02 377.624 288.1L376.584 294H374.304L376.244 282.98H378.524L378.184 284.92ZM394.836 280.46C394.142 280.46 393.629 280.593 393.296 280.86C392.962 281.127 392.742 281.573 392.636 282.2L392.496 282.98H394.536L394.216 284.84H392.176L390.556 294H388.256L389.876 284.84H388.576L388.896 282.98H390.196L390.336 282.2C390.562 280.933 391.062 280.013 391.836 279.44C392.609 278.853 393.716 278.56 395.156 278.56L394.836 280.46ZM401.336 282.8C402.71 282.8 403.803 283.187 404.616 283.96C405.443 284.733 405.856 285.773 405.856 287.08C405.856 287.387 405.823 287.753 405.756 288.18C405.703 288.473 405.61 288.833 405.476 289.26H397.056C397.043 289.353 397.036 289.493 397.036 289.68C397.036 290.467 397.276 291.093 397.756 291.56C398.25 292.027 398.89 292.26 399.676 292.26C400.916 292.26 401.87 291.747 402.536 290.72H404.996C404.49 291.733 403.743 292.567 402.756 293.22C401.77 293.86 400.63 294.18 399.336 294.18C398.416 294.18 397.61 294 396.916 293.64C396.223 293.28 395.683 292.767 395.296 292.1C394.91 291.42 394.716 290.627 394.716 289.72C394.716 289.333 394.756 288.92 394.836 288.48C395.036 287.347 395.443 286.353 396.056 285.5C396.67 284.633 397.43 283.967 398.336 283.5C399.256 283.033 400.256 282.8 401.336 282.8ZM403.476 287.62C403.503 287.38 403.516 287.207 403.516 287.1C403.516 286.367 403.27 285.787 402.776 285.36C402.296 284.933 401.67 284.72 400.896 284.72C400.083 284.72 399.35 284.98 398.696 285.5C398.043 286.02 397.596 286.727 397.356 287.62H403.476ZM413.68 282.8C415.053 282.8 416.147 283.187 416.96 283.96C417.787 284.733 418.2 285.773 418.2 287.08C418.2 287.387 418.167 287.753 418.1 288.18C418.047 288.473 417.953 288.833 417.82 289.26H409.4C409.387 289.353 409.38 289.493 409.38 289.68C409.38 290.467 409.62 291.093 410.1 291.56C410.593 292.027 411.233 292.26 412.02 292.26C413.26 292.26 414.213 291.747 414.88 290.72H417.34C416.833 291.733 416.087 292.567 415.1 293.22C414.113 293.86 412.973 294.18 411.68 294.18C410.76 294.18 409.953 294 409.26 293.64C408.567 293.28 408.027 292.767 407.64 292.1C407.253 291.42 407.06 290.627 407.06 289.72C407.06 289.333 407.1 288.92 407.18 288.48C407.38 287.347 407.787 286.353 408.4 285.5C409.013 284.633 409.773 283.967 410.68 283.5C411.6 283.033 412.6 282.8 413.68 282.8ZM415.82 287.62C415.847 287.38 415.86 287.207 415.86 287.1C415.86 286.367 415.613 285.787 415.12 285.36C414.64 284.933 414.013 284.72 413.24 284.72C412.427 284.72 411.693 284.98 411.04 285.5C410.387 286.02 409.94 286.727 409.7 287.62H415.82ZM419.524 288.44C419.724 287.333 420.124 286.353 420.724 285.5C421.337 284.647 422.084 283.987 422.964 283.52C423.844 283.04 424.77 282.8 425.744 282.8C426.464 282.8 427.144 282.96 427.784 283.28C428.424 283.587 428.91 284 429.244 284.52L430.184 279.2H432.484L429.864 294H427.564L427.864 292.34C427.384 292.887 426.784 293.333 426.064 293.68C425.357 294.013 424.577 294.18 423.724 294.18C422.884 294.18 422.137 293.993 421.484 293.62C420.83 293.247 420.317 292.72 419.944 292.04C419.584 291.347 419.404 290.553 419.404 289.66C419.404 289.26 419.444 288.853 419.524 288.44ZM428.544 288.48C428.597 288.227 428.624 287.953 428.624 287.66C428.624 286.767 428.357 286.067 427.824 285.56C427.304 285.04 426.65 284.78 425.864 284.78C425.277 284.78 424.704 284.927 424.144 285.22C423.584 285.5 423.097 285.92 422.684 286.48C422.27 287.027 421.997 287.68 421.864 288.44C421.81 288.693 421.784 288.967 421.784 289.26C421.784 290.167 422.044 290.887 422.564 291.42C423.097 291.94 423.757 292.2 424.544 292.2C425.13 292.2 425.704 292.053 426.264 291.76C426.824 291.467 427.31 291.04 427.724 290.48C428.137 289.907 428.41 289.24 428.544 288.48ZM436.798 284.62C437.278 284.087 437.885 283.653 438.618 283.32C439.352 282.973 440.132 282.8 440.958 282.8C441.812 282.8 442.558 282.98 443.198 283.34C443.852 283.7 444.358 284.213 444.718 284.88C445.078 285.533 445.258 286.307 445.258 287.2C445.258 287.587 445.218 288 445.138 288.44C444.938 289.547 444.532 290.54 443.918 291.42C443.318 292.287 442.578 292.967 441.698 293.46C440.832 293.94 439.918 294.18 438.958 294.18C438.105 294.18 437.378 294.013 436.778 293.68C436.178 293.347 435.725 292.92 435.418 292.4L435.138 294H432.858L435.478 279.2H437.758L436.798 284.62ZM442.818 288.44C442.872 288.187 442.898 287.913 442.898 287.62C442.898 286.727 442.632 286.033 442.098 285.54C441.578 285.033 440.918 284.78 440.118 284.78C439.545 284.78 438.972 284.927 438.398 285.22C437.838 285.513 437.352 285.94 436.938 286.5C436.525 287.06 436.252 287.72 436.118 288.48C436.065 288.733 436.038 289.007 436.038 289.3C436.038 290.193 436.298 290.9 436.818 291.42C437.352 291.94 438.012 292.2 438.798 292.2C439.385 292.2 439.958 292.053 440.518 291.76C441.092 291.453 441.585 291.013 441.998 290.44C442.412 289.867 442.685 289.2 442.818 288.44ZM446.633 288.44C446.833 287.333 447.233 286.353 447.833 285.5C448.446 284.647 449.193 283.987 450.073 283.52C450.953 283.04 451.873 282.8 452.833 282.8C453.7 282.8 454.426 282.973 455.013 283.32C455.6 283.653 456.04 284.073 456.333 284.58L456.613 282.98H458.913L456.973 294H454.673L454.973 292.36C454.493 292.88 453.886 293.313 453.153 293.66C452.433 294.007 451.646 294.18 450.793 294.18C449.966 294.18 449.226 293.993 448.573 293.62C447.933 293.247 447.426 292.72 447.053 292.04C446.693 291.347 446.513 290.553 446.513 289.66C446.513 289.26 446.553 288.853 446.633 288.44ZM455.653 288.48C455.706 288.227 455.733 287.953 455.733 287.66C455.733 286.767 455.466 286.067 454.933 285.56C454.413 285.04 453.76 284.78 452.973 284.78C452.386 284.78 451.813 284.927 451.253 285.22C450.693 285.5 450.206 285.92 449.793 286.48C449.38 287.027 449.106 287.68 448.973 288.44C448.92 288.693 448.893 288.967 448.893 289.26C448.893 290.167 449.153 290.887 449.673 291.42C450.206 291.94 450.866 292.2 451.653 292.2C452.24 292.2 452.813 292.053 453.373 291.76C453.933 291.467 454.42 291.04 454.833 290.48C455.246 289.907 455.52 289.24 455.653 288.48ZM460.188 288.48C460.388 287.347 460.788 286.353 461.388 285.5C462.001 284.633 462.754 283.967 463.648 283.5C464.554 283.033 465.534 282.8 466.588 282.8C467.921 282.8 468.968 283.12 469.728 283.76C470.488 284.387 470.921 285.287 471.028 286.46H468.568C468.461 285.913 468.214 285.487 467.828 285.18C467.441 284.873 466.914 284.72 466.248 284.72C465.314 284.72 464.514 285.053 463.848 285.72C463.181 286.373 462.741 287.293 462.528 288.48C462.461 288.907 462.428 289.253 462.428 289.52C462.428 290.4 462.648 291.08 463.088 291.56C463.528 292.027 464.141 292.26 464.928 292.26C466.248 292.26 467.221 291.68 467.848 290.52H470.308C469.788 291.64 469.028 292.533 468.028 293.2C467.041 293.853 465.894 294.18 464.588 294.18C463.201 294.18 462.101 293.787 461.288 293C460.474 292.2 460.068 291.12 460.068 289.76C460.068 289.347 460.108 288.92 460.188 288.48ZM477.28 288.5L481.4 294H478.32L475.08 289.26L474.24 294H471.96L474.58 279.2H476.86L475.34 287.78L480.18 282.98H483.34L477.28 288.5ZM489.25 288.44C489.45 287.333 489.85 286.353 490.45 285.5C491.064 284.647 491.81 283.987 492.69 283.52C493.57 283.04 494.49 282.8 495.45 282.8C496.317 282.8 497.044 282.973 497.63 283.32C498.217 283.653 498.657 284.073 498.95 284.58L499.23 282.98H501.53L499.59 294H497.29L497.59 292.36C497.11 292.88 496.504 293.313 495.77 293.66C495.05 294.007 494.264 294.18 493.41 294.18C492.584 294.18 491.844 293.993 491.19 293.62C490.55 293.247 490.044 292.72 489.67 292.04C489.31 291.347 489.13 290.553 489.13 289.66C489.13 289.26 489.17 288.853 489.25 288.44ZM498.27 288.48C498.324 288.227 498.35 287.953 498.35 287.66C498.35 286.767 498.084 286.067 497.55 285.56C497.03 285.04 496.377 284.78 495.59 284.78C495.004 284.78 494.43 284.927 493.87 285.22C493.31 285.5 492.824 285.92 492.41 286.48C491.997 287.027 491.724 287.68 491.59 288.44C491.537 288.693 491.51 288.967 491.51 289.26C491.51 290.167 491.77 290.887 492.29 291.42C492.824 291.94 493.484 292.2 494.27 292.2C494.857 292.2 495.43 292.053 495.99 291.76C496.55 291.467 497.037 291.04 497.45 290.48C497.864 289.907 498.137 289.24 498.27 288.48ZM510.125 282.8C511.285 282.8 512.205 283.113 512.885 283.74C513.578 284.353 513.925 285.24 513.925 286.4C513.925 286.693 513.892 287.06 513.825 287.5L512.665 294H510.405L511.505 287.84C511.558 287.467 511.585 287.2 511.585 287.04C511.585 286.307 511.378 285.747 510.965 285.36C510.565 284.973 510.005 284.78 509.285 284.78C508.418 284.78 507.685 285.047 507.085 285.58C506.498 286.1 506.125 286.853 505.965 287.84V287.78L504.865 294H502.585L504.525 282.98H506.805L506.585 284.26C507.038 283.807 507.572 283.453 508.185 283.2C508.812 282.933 509.458 282.8 510.125 282.8ZM515.793 288.44C515.993 287.333 516.393 286.353 516.993 285.5C517.607 284.647 518.353 283.987 519.233 283.52C520.113 283.04 521.04 282.8 522.013 282.8C522.733 282.8 523.413 282.96 524.053 283.28C524.693 283.587 525.18 284 525.513 284.52L526.453 279.2H528.753L526.133 294H523.833L524.133 292.34C523.653 292.887 523.053 293.333 522.333 293.68C521.627 294.013 520.847 294.18 519.993 294.18C519.153 294.18 518.407 293.993 517.753 293.62C517.1 293.247 516.587 292.72 516.213 292.04C515.853 291.347 515.673 290.553 515.673 289.66C515.673 289.26 515.713 288.853 515.793 288.44ZM524.813 288.48C524.867 288.227 524.893 287.953 524.893 287.66C524.893 286.767 524.627 286.067 524.093 285.56C523.573 285.04 522.92 284.78 522.133 284.78C521.547 284.78 520.973 284.927 520.413 285.22C519.853 285.5 519.367 285.92 518.953 286.48C518.54 287.027 518.267 287.68 518.133 288.44C518.08 288.693 518.053 288.967 518.053 289.26C518.053 290.167 518.313 290.887 518.833 291.42C519.367 291.94 520.027 292.2 520.813 292.2C521.4 292.2 521.973 292.053 522.533 291.76C523.093 291.467 523.58 291.04 523.993 290.48C524.407 289.907 524.68 289.24 524.813 288.48ZM538.484 281.52C538.124 281.52 537.831 281.407 537.604 281.18C537.377 280.953 537.264 280.667 537.264 280.32C537.264 279.853 537.437 279.453 537.784 279.12C538.144 278.773 538.551 278.6 539.004 278.6C539.364 278.6 539.651 278.713 539.864 278.94C540.091 279.167 540.204 279.453 540.204 279.8C540.204 280.267 540.031 280.673 539.684 281.02C539.337 281.353 538.937 281.52 538.484 281.52ZM539.344 282.98L537.404 294H535.124L537.064 282.98H539.344ZM547.938 282.8C549.098 282.8 550.018 283.113 550.698 283.74C551.391 284.353 551.738 285.24 551.738 286.4C551.738 286.693 551.704 287.06 551.638 287.5L550.478 294H548.218L549.318 287.84C549.371 287.467 549.398 287.2 549.398 287.04C549.398 286.307 549.191 285.747 548.778 285.36C548.378 284.973 547.818 284.78 547.098 284.78C546.231 284.78 545.498 285.047 544.898 285.58C544.311 286.1 543.938 286.853 543.778 287.84V287.78L542.678 294H540.398L542.338 282.98H544.618L544.398 284.26C544.851 283.807 545.384 283.453 545.998 283.2C546.624 282.933 547.271 282.8 547.938 282.8ZM553.606 288.44C553.806 287.333 554.206 286.353 554.806 285.5C555.419 284.647 556.166 283.987 557.046 283.52C557.926 283.04 558.852 282.8 559.826 282.8C560.679 282.8 561.406 282.973 562.006 283.32C562.606 283.667 563.039 284.087 563.306 284.58L563.586 282.98H565.886L563.026 299.24H560.726L561.926 292.4C561.486 292.88 560.892 293.3 560.146 293.66C559.412 294.007 558.612 294.18 557.746 294.18C556.919 294.18 556.186 293.993 555.546 293.62C554.906 293.247 554.399 292.72 554.026 292.04C553.666 291.347 553.486 290.553 553.486 289.66C553.486 289.26 553.526 288.853 553.606 288.44ZM562.626 288.48C562.679 288.227 562.706 287.953 562.706 287.66C562.706 286.767 562.439 286.067 561.906 285.56C561.386 285.04 560.732 284.78 559.946 284.78C559.359 284.78 558.786 284.927 558.226 285.22C557.666 285.5 557.179 285.92 556.766 286.48C556.352 287.027 556.079 287.68 555.946 288.44C555.892 288.693 555.866 288.967 555.866 289.26C555.866 290.167 556.126 290.887 556.646 291.42C557.179 291.94 557.839 292.2 558.626 292.2C559.212 292.2 559.786 292.053 560.346 291.76C560.906 291.467 561.392 291.04 561.806 290.48C562.219 289.907 562.492 289.24 562.626 288.48ZM578.86 282.98L576.92 294H574.64L574.86 292.7C574.42 293.153 573.887 293.513 573.26 293.78C572.647 294.033 572.014 294.16 571.36 294.16C570.2 294.16 569.274 293.847 568.58 293.22C567.887 292.593 567.54 291.707 567.54 290.56C567.54 290.253 567.574 289.887 567.64 289.46L568.78 282.98H571.04L569.96 289.12C569.907 289.493 569.88 289.76 569.88 289.92C569.88 290.653 570.08 291.213 570.48 291.6C570.894 291.987 571.46 292.18 572.18 292.18C573.02 292.18 573.734 291.933 574.32 291.44C574.907 290.933 575.294 290.207 575.48 289.26L576.58 282.98H578.86ZM583.289 281.52C582.929 281.52 582.635 281.407 582.409 281.18C582.182 280.953 582.069 280.667 582.069 280.32C582.069 279.853 582.242 279.453 582.589 279.12C582.949 278.773 583.355 278.6 583.809 278.6C584.169 278.6 584.455 278.713 584.669 278.94C584.895 279.167 585.009 279.453 585.009 279.8C585.009 280.267 584.835 280.673 584.489 281.02C584.142 281.353 583.742 281.52 583.289 281.52ZM584.149 282.98L582.209 294H579.929L581.869 282.98H584.149ZM589.082 284.92C589.536 284.253 590.069 283.733 590.682 283.36C591.309 282.987 592.002 282.8 592.762 282.8L592.342 285.16H591.762C590.882 285.16 590.176 285.38 589.642 285.82C589.109 286.26 588.736 287.02 588.522 288.1L587.482 294H585.202L587.142 282.98H589.422L589.082 284.92ZM596.238 281.52C595.878 281.52 595.585 281.407 595.358 281.18C595.131 280.953 595.018 280.667 595.018 280.32C595.018 279.853 595.191 279.453 595.538 279.12C595.898 278.773 596.305 278.6 596.758 278.6C597.118 278.6 597.405 278.713 597.618 278.94C597.845 279.167 597.958 279.453 597.958 279.8C597.958 280.267 597.785 280.673 597.438 281.02C597.091 281.353 596.691 281.52 596.238 281.52ZM597.098 282.98L595.158 294H592.878L594.818 282.98H597.098ZM604.871 282.8C606.245 282.8 607.338 283.187 608.151 283.96C608.978 284.733 609.391 285.773 609.391 287.08C609.391 287.387 609.358 287.753 609.291 288.18C609.238 288.473 609.145 288.833 609.011 289.26H600.591C600.578 289.353 600.571 289.493 600.571 289.68C600.571 290.467 600.811 291.093 601.291 291.56C601.785 292.027 602.425 292.26 603.211 292.26C604.451 292.26 605.405 291.747 606.071 290.72H608.531C608.025 291.733 607.278 292.567 606.291 293.22C605.305 293.86 604.165 294.18 602.871 294.18C601.951 294.18 601.145 294 600.451 293.64C599.758 293.28 599.218 292.767 598.831 292.1C598.445 291.42 598.251 290.627 598.251 289.72C598.251 289.333 598.291 288.92 598.371 288.48C598.571 287.347 598.978 286.353 599.591 285.5C600.205 284.633 600.965 283.967 601.871 283.5C602.791 283.033 603.791 282.8 604.871 282.8ZM607.011 287.62C607.038 287.38 607.051 287.207 607.051 287.1C607.051 286.367 606.805 285.787 606.311 285.36C605.831 284.933 605.205 284.72 604.431 284.72C603.618 284.72 602.885 284.98 602.231 285.5C601.578 286.02 601.131 286.727 600.891 287.62H607.011ZM614.555 294.18C613.795 294.18 613.102 294.053 612.475 293.8C611.848 293.533 611.355 293.167 610.995 292.7C610.635 292.22 610.455 291.673 610.455 291.06C610.455 290.953 610.468 290.807 610.495 290.62H612.715C612.662 291.127 612.815 291.547 613.175 291.88C613.535 292.213 614.042 292.38 614.695 292.38C615.335 292.38 615.862 292.267 616.275 292.04C616.688 291.813 616.895 291.48 616.895 291.04C616.895 290.667 616.722 290.367 616.375 290.14C616.042 289.913 615.502 289.66 614.755 289.38C614.048 289.1 613.475 288.84 613.035 288.6C612.595 288.36 612.215 288.033 611.895 287.62C611.575 287.193 611.415 286.667 611.415 286.04C611.415 285.4 611.595 284.84 611.955 284.36C612.328 283.867 612.842 283.487 613.495 283.22C614.162 282.94 614.922 282.8 615.775 282.8C616.548 282.8 617.235 282.933 617.835 283.2C618.448 283.453 618.922 283.82 619.255 284.3C619.602 284.767 619.775 285.307 619.775 285.92C619.775 286.107 619.768 286.247 619.755 286.34H617.595C617.648 285.82 617.495 285.4 617.135 285.08C616.788 284.76 616.288 284.6 615.635 284.6C615.062 284.6 614.595 284.72 614.235 284.96C613.888 285.2 613.715 285.527 613.715 285.94C613.715 286.353 613.895 286.687 614.255 286.94C614.615 287.18 615.168 287.447 615.915 287.74C616.595 288.007 617.148 288.26 617.575 288.5C618.002 288.74 618.368 289.06 618.675 289.46C618.982 289.86 619.135 290.36 619.135 290.96C619.135 291.613 618.935 292.187 618.535 292.68C618.148 293.16 617.608 293.533 616.915 293.8C616.222 294.053 615.435 294.18 614.555 294.18ZM622.079 294.14C621.719 294.14 621.425 294.027 621.199 293.8C620.972 293.573 620.859 293.287 620.859 292.94C620.859 292.473 621.032 292.073 621.379 291.74C621.739 291.393 622.145 291.22 622.599 291.22C622.959 291.22 623.245 291.333 623.459 291.56C623.685 291.787 623.799 292.073 623.799 292.42C623.799 292.887 623.625 293.293 623.279 293.64C622.932 293.973 622.532 294.14 622.079 294.14ZM331.299 315.1L324.719 329H322.139L321.059 318.48L316.119 329L313.559 329.02L312.079 315.1H314.499L315.379 326.42L320.499 315.1H323.059L323.979 326.36L328.859 315.1H331.299ZM337.44 317.8C338.813 317.8 339.906 318.187 340.72 318.96C341.546 319.733 341.96 320.773 341.96 322.08C341.96 322.387 341.926 322.753 341.86 323.18C341.806 323.473 341.713 323.833 341.58 324.26H333.16C333.146 324.353 333.14 324.493 333.14 324.68C333.14 325.467 333.38 326.093 333.86 326.56C334.353 327.027 334.993 327.26 335.78 327.26C337.02 327.26 337.973 326.747 338.64 325.72H341.1C340.593 326.733 339.846 327.567 338.86 328.22C337.873 328.86 336.733 329.18 335.44 329.18C334.52 329.18 333.713 329 333.02 328.64C332.326 328.28 331.786 327.767 331.4 327.1C331.013 326.42 330.82 325.627 330.82 324.72C330.82 324.333 330.86 323.92 330.94 323.48C331.14 322.347 331.546 321.353 332.16 320.5C332.773 319.633 333.533 318.967 334.44 318.5C335.36 318.033 336.36 317.8 337.44 317.8ZM339.58 322.62C339.606 322.38 339.62 322.207 339.62 322.1C339.62 321.367 339.373 320.787 338.88 320.36C338.4 319.933 337.773 319.72 337 319.72C336.186 319.72 335.453 319.98 334.8 320.5C334.146 321.02 333.7 321.727 333.46 322.62H339.58ZM347.124 313.06L346.164 317.16H344.604L345.064 313.06H347.124ZM350.381 319.92C350.834 319.253 351.368 318.733 351.981 318.36C352.608 317.987 353.301 317.8 354.061 317.8L353.641 320.16H353.061C352.181 320.16 351.474 320.38 350.941 320.82C350.408 321.26 350.034 322.02 349.821 323.1L348.781 329H346.501L348.441 317.98H350.721L350.381 319.92ZM360.897 317.8C362.27 317.8 363.363 318.187 364.177 318.96C365.003 319.733 365.417 320.773 365.417 322.08C365.417 322.387 365.383 322.753 365.317 323.18C365.263 323.473 365.17 323.833 365.037 324.26H356.617C356.603 324.353 356.597 324.493 356.597 324.68C356.597 325.467 356.837 326.093 357.317 326.56C357.81 327.027 358.45 327.26 359.237 327.26C360.477 327.26 361.43 326.747 362.097 325.72H364.557C364.05 326.733 363.303 327.567 362.317 328.22C361.33 328.86 360.19 329.18 358.897 329.18C357.977 329.18 357.17 329 356.477 328.64C355.783 328.28 355.243 327.767 354.857 327.1C354.47 326.42 354.277 325.627 354.277 324.72C354.277 324.333 354.317 323.92 354.397 323.48C354.597 322.347 355.003 321.353 355.617 320.5C356.23 319.633 356.99 318.967 357.897 318.5C358.817 318.033 359.817 317.8 360.897 317.8ZM363.037 322.62C363.063 322.38 363.077 322.207 363.077 322.1C363.077 321.367 362.83 320.787 362.337 320.36C361.857 319.933 361.23 319.72 360.457 319.72C359.643 319.72 358.91 319.98 358.257 320.5C357.603 321.02 357.157 321.727 356.917 322.62H363.037ZM380.197 317.8C381.303 317.8 382.19 318.113 382.857 318.74C383.523 319.353 383.857 320.233 383.857 321.38C383.857 321.687 383.823 322.06 383.757 322.5L382.597 329H380.337L381.437 322.84C381.49 322.467 381.517 322.2 381.517 322.04C381.517 321.307 381.31 320.747 380.897 320.36C380.497 319.973 379.937 319.78 379.217 319.78C378.35 319.78 377.617 320.047 377.017 320.58C376.43 321.1 376.057 321.853 375.897 322.84V322.8L374.797 329H372.517L375.137 314.2H377.417L376.517 319.26C376.983 318.793 377.537 318.433 378.177 318.18C378.817 317.927 379.49 317.8 380.197 317.8ZM392.225 317.8C393.598 317.8 394.692 318.187 395.505 318.96C396.332 319.733 396.745 320.773 396.745 322.08C396.745 322.387 396.712 322.753 396.645 323.18C396.592 323.473 396.498 323.833 396.365 324.26H387.945C387.932 324.353 387.925 324.493 387.925 324.68C387.925 325.467 388.165 326.093 388.645 326.56C389.138 327.027 389.778 327.26 390.565 327.26C391.805 327.26 392.758 326.747 393.425 325.72H395.885C395.378 326.733 394.632 327.567 393.645 328.22C392.658 328.86 391.518 329.18 390.225 329.18C389.305 329.18 388.498 329 387.805 328.64C387.112 328.28 386.572 327.767 386.185 327.1C385.798 326.42 385.605 325.627 385.605 324.72C385.605 324.333 385.645 323.92 385.725 323.48C385.925 322.347 386.332 321.353 386.945 320.5C387.558 319.633 388.318 318.967 389.225 318.5C390.145 318.033 391.145 317.8 392.225 317.8ZM394.365 322.62C394.392 322.38 394.405 322.207 394.405 322.1C394.405 321.367 394.158 320.787 393.665 320.36C393.185 319.933 392.558 319.72 391.785 319.72C390.972 319.72 390.238 319.98 389.585 320.5C388.932 321.02 388.485 321.727 388.245 322.62H394.365ZM401.729 319.92C402.182 319.253 402.715 318.733 403.329 318.36C403.955 317.987 404.649 317.8 405.409 317.8L404.989 320.16H404.409C403.529 320.16 402.822 320.38 402.289 320.82C401.755 321.26 401.382 322.02 401.169 323.1L400.129 329H397.849L399.789 317.98H402.069L401.729 319.92ZM412.244 317.8C413.618 317.8 414.711 318.187 415.524 318.96C416.351 319.733 416.764 320.773 416.764 322.08C416.764 322.387 416.731 322.753 416.664 323.18C416.611 323.473 416.518 323.833 416.384 324.26H407.964C407.951 324.353 407.944 324.493 407.944 324.68C407.944 325.467 408.184 326.093 408.664 326.56C409.158 327.027 409.798 327.26 410.584 327.26C411.824 327.26 412.778 326.747 413.444 325.72H415.904C415.398 326.733 414.651 327.567 413.664 328.22C412.678 328.86 411.538 329.18 410.244 329.18C409.324 329.18 408.518 329 407.824 328.64C407.131 328.28 406.591 327.767 406.204 327.1C405.818 326.42 405.624 325.627 405.624 324.72C405.624 324.333 405.664 323.92 405.744 323.48C405.944 322.347 406.351 321.353 406.964 320.5C407.578 319.633 408.338 318.967 409.244 318.5C410.164 318.033 411.164 317.8 412.244 317.8ZM414.384 322.62C414.411 322.38 414.424 322.207 414.424 322.1C414.424 321.367 414.178 320.787 413.684 320.36C413.204 319.933 412.578 319.72 411.804 319.72C410.991 319.72 410.258 319.98 409.604 320.5C408.951 321.02 408.504 321.727 408.264 322.62H414.384ZM427.064 325.94C427.038 326.127 427.024 326.247 427.024 326.3C427.024 326.58 427.111 326.787 427.284 326.92C427.458 327.04 427.744 327.1 428.144 327.1H429.544L429.204 329H427.404C426.524 329 425.851 328.827 425.384 328.48C424.918 328.12 424.684 327.553 424.684 326.78C424.684 326.487 424.711 326.207 424.764 325.94L425.844 319.84H424.544L424.864 317.98H426.184L426.664 315.24H428.964L428.484 317.98H431.144L430.824 319.84H428.144L427.064 325.94ZM436.126 329.18C435.192 329.18 434.372 328.987 433.666 328.6C432.959 328.213 432.406 327.667 432.006 326.96C431.619 326.253 431.426 325.447 431.426 324.54C431.426 323.3 431.712 322.167 432.286 321.14C432.872 320.113 433.672 319.3 434.686 318.7C435.712 318.1 436.852 317.8 438.106 317.8C439.039 317.8 439.866 318 440.586 318.4C441.306 318.787 441.866 319.333 442.266 320.04C442.679 320.733 442.886 321.54 442.886 322.46C442.886 323.7 442.586 324.833 441.986 325.86C441.386 326.887 440.572 327.7 439.546 328.3C438.519 328.887 437.379 329.18 436.126 329.18ZM436.406 327.26C437.166 327.26 437.859 327.047 438.486 326.62C439.126 326.18 439.626 325.607 439.986 324.9C440.346 324.18 440.526 323.413 440.526 322.6C440.526 321.68 440.266 320.973 439.746 320.48C439.226 319.973 438.572 319.72 437.786 319.72C437.012 319.72 436.319 319.94 435.706 320.38C435.106 320.807 434.632 321.387 434.286 322.12C433.952 322.84 433.786 323.613 433.786 324.44C433.786 325.333 434.026 326.027 434.506 326.52C434.999 327.013 435.632 327.26 436.406 327.26ZM450.276 323.44C450.476 322.333 450.876 321.353 451.476 320.5C452.089 319.647 452.836 318.987 453.716 318.52C454.596 318.04 455.516 317.8 456.476 317.8C457.342 317.8 458.069 317.973 458.656 318.32C459.242 318.653 459.682 319.073 459.976 319.58L460.256 317.98H462.556L460.616 329H458.316L458.616 327.36C458.136 327.88 457.529 328.313 456.796 328.66C456.076 329.007 455.289 329.18 454.436 329.18C453.609 329.18 452.869 328.993 452.216 328.62C451.576 328.247 451.069 327.72 450.696 327.04C450.336 326.347 450.156 325.553 450.156 324.66C450.156 324.26 450.196 323.853 450.276 323.44ZM459.296 323.48C459.349 323.227 459.376 322.953 459.376 322.66C459.376 321.767 459.109 321.067 458.576 320.56C458.056 320.04 457.402 319.78 456.616 319.78C456.029 319.78 455.456 319.927 454.896 320.22C454.336 320.5 453.849 320.92 453.436 321.48C453.022 322.027 452.749 322.68 452.616 323.44C452.562 323.693 452.536 323.967 452.536 324.26C452.536 325.167 452.796 325.887 453.316 326.42C453.849 326.94 454.509 327.2 455.296 327.2C455.882 327.2 456.456 327.053 457.016 326.76C457.576 326.467 458.062 326.04 458.476 325.48C458.889 324.907 459.162 324.24 459.296 323.48ZM467.67 329.18C466.91 329.18 466.217 329.053 465.59 328.8C464.964 328.533 464.47 328.167 464.11 327.7C463.75 327.22 463.57 326.673 463.57 326.06C463.57 325.953 463.584 325.807 463.61 325.62H465.83C465.777 326.127 465.93 326.547 466.29 326.88C466.65 327.213 467.157 327.38 467.81 327.38C468.45 327.38 468.977 327.267 469.39 327.04C469.804 326.813 470.01 326.48 470.01 326.04C470.01 325.667 469.837 325.367 469.49 325.14C469.157 324.913 468.617 324.66 467.87 324.38C467.164 324.1 466.59 323.84 466.15 323.6C465.71 323.36 465.33 323.033 465.01 322.62C464.69 322.193 464.53 321.667 464.53 321.04C464.53 320.4 464.71 319.84 465.07 319.36C465.444 318.867 465.957 318.487 466.61 318.22C467.277 317.94 468.037 317.8 468.89 317.8C469.664 317.8 470.35 317.933 470.95 318.2C471.564 318.453 472.037 318.82 472.37 319.3C472.717 319.767 472.89 320.307 472.89 320.92C472.89 321.107 472.884 321.247 472.87 321.34H470.71C470.764 320.82 470.61 320.4 470.25 320.08C469.904 319.76 469.404 319.6 468.75 319.6C468.177 319.6 467.71 319.72 467.35 319.96C467.004 320.2 466.83 320.527 466.83 320.94C466.83 321.353 467.01 321.687 467.37 321.94C467.73 322.18 468.284 322.447 469.03 322.74C469.71 323.007 470.264 323.26 470.69 323.5C471.117 323.74 471.484 324.06 471.79 324.46C472.097 324.86 472.25 325.36 472.25 325.96C472.25 326.613 472.05 327.187 471.65 327.68C471.264 328.16 470.724 328.533 470.03 328.8C469.337 329.053 468.55 329.18 467.67 329.18ZM478.354 329.18C477.594 329.18 476.901 329.053 476.274 328.8C475.647 328.533 475.154 328.167 474.794 327.7C474.434 327.22 474.254 326.673 474.254 326.06C474.254 325.953 474.267 325.807 474.294 325.62H476.514C476.461 326.127 476.614 326.547 476.974 326.88C477.334 327.213 477.841 327.38 478.494 327.38C479.134 327.38 479.661 327.267 480.074 327.04C480.487 326.813 480.694 326.48 480.694 326.04C480.694 325.667 480.521 325.367 480.174 325.14C479.841 324.913 479.301 324.66 478.554 324.38C477.847 324.1 477.274 323.84 476.834 323.6C476.394 323.36 476.014 323.033 475.694 322.62C475.374 322.193 475.214 321.667 475.214 321.04C475.214 320.4 475.394 319.84 475.754 319.36C476.127 318.867 476.641 318.487 477.294 318.22C477.961 317.94 478.721 317.8 479.574 317.8C480.347 317.8 481.034 317.933 481.634 318.2C482.247 318.453 482.721 318.82 483.054 319.3C483.401 319.767 483.574 320.307 483.574 320.92C483.574 321.107 483.567 321.247 483.554 321.34H481.394C481.447 320.82 481.294 320.4 480.934 320.08C480.587 319.76 480.087 319.6 479.434 319.6C478.861 319.6 478.394 319.72 478.034 319.96C477.687 320.2 477.514 320.527 477.514 320.94C477.514 321.353 477.694 321.687 478.054 321.94C478.414 322.18 478.967 322.447 479.714 322.74C480.394 323.007 480.947 323.26 481.374 323.5C481.801 323.74 482.167 324.06 482.474 324.46C482.781 324.86 482.934 325.36 482.934 325.96C482.934 326.613 482.734 327.187 482.334 327.68C481.947 328.16 481.407 328.533 480.714 328.8C480.021 329.053 479.234 329.18 478.354 329.18ZM488.338 316.52C487.978 316.52 487.684 316.407 487.458 316.18C487.231 315.953 487.118 315.667 487.118 315.32C487.118 314.853 487.291 314.453 487.638 314.12C487.998 313.773 488.404 313.6 488.858 313.6C489.218 313.6 489.504 313.713 489.718 313.94C489.944 314.167 490.058 314.453 490.058 314.8C490.058 315.267 489.884 315.673 489.538 316.02C489.191 316.353 488.791 316.52 488.338 316.52ZM489.198 317.98L487.258 329H484.978L486.918 317.98H489.198ZM494.311 329.18C493.551 329.18 492.858 329.053 492.231 328.8C491.604 328.533 491.111 328.167 490.751 327.7C490.391 327.22 490.211 326.673 490.211 326.06C490.211 325.953 490.224 325.807 490.251 325.62H492.471C492.418 326.127 492.571 326.547 492.931 326.88C493.291 327.213 493.798 327.38 494.451 327.38C495.091 327.38 495.618 327.267 496.031 327.04C496.444 326.813 496.651 326.48 496.651 326.04C496.651 325.667 496.478 325.367 496.131 325.14C495.798 324.913 495.258 324.66 494.511 324.38C493.804 324.1 493.231 323.84 492.791 323.6C492.351 323.36 491.971 323.033 491.651 322.62C491.331 322.193 491.171 321.667 491.171 321.04C491.171 320.4 491.351 319.84 491.711 319.36C492.084 318.867 492.598 318.487 493.251 318.22C493.918 317.94 494.678 317.8 495.531 317.8C496.304 317.8 496.991 317.933 497.591 318.2C498.204 318.453 498.678 318.82 499.011 319.3C499.358 319.767 499.531 320.307 499.531 320.92C499.531 321.107 499.524 321.247 499.511 321.34H497.351C497.404 320.82 497.251 320.4 496.891 320.08C496.544 319.76 496.044 319.6 495.391 319.6C494.818 319.6 494.351 319.72 493.991 319.96C493.644 320.2 493.471 320.527 493.471 320.94C493.471 321.353 493.651 321.687 494.011 321.94C494.371 322.18 494.924 322.447 495.671 322.74C496.351 323.007 496.904 323.26 497.331 323.5C497.758 323.74 498.124 324.06 498.431 324.46C498.738 324.86 498.891 325.36 498.891 325.96C498.891 326.613 498.691 327.187 498.291 327.68C497.904 328.16 497.364 328.533 496.671 328.8C495.978 329.053 495.191 329.18 494.311 329.18ZM504.135 325.94C504.108 326.127 504.095 326.247 504.095 326.3C504.095 326.58 504.181 326.787 504.355 326.92C504.528 327.04 504.815 327.1 505.215 327.1H506.615L506.275 329H504.475C503.595 329 502.921 328.827 502.455 328.48C501.988 328.12 501.755 327.553 501.755 326.78C501.755 326.487 501.781 326.207 501.835 325.94L502.915 319.84H501.615L501.935 317.98H503.255L503.735 315.24H506.035L505.555 317.98H508.215L507.895 319.84H505.215L504.135 325.94ZM517.552 317.98L519.172 326.38L523.872 317.98H526.232L516.632 334.18H514.272L517.452 328.82L515.012 317.98H517.552ZM530.833 329.18C529.899 329.18 529.079 328.987 528.373 328.6C527.666 328.213 527.113 327.667 526.713 326.96C526.326 326.253 526.133 325.447 526.133 324.54C526.133 323.3 526.419 322.167 526.993 321.14C527.579 320.113 528.379 319.3 529.393 318.7C530.419 318.1 531.559 317.8 532.813 317.8C533.746 317.8 534.573 318 535.293 318.4C536.013 318.787 536.573 319.333 536.973 320.04C537.386 320.733 537.593 321.54 537.593 322.46C537.593 323.7 537.293 324.833 536.693 325.86C536.093 326.887 535.279 327.7 534.253 328.3C533.226 328.887 532.086 329.18 530.833 329.18ZM531.113 327.26C531.873 327.26 532.566 327.047 533.193 326.62C533.833 326.18 534.333 325.607 534.693 324.9C535.053 324.18 535.233 323.413 535.233 322.6C535.233 321.68 534.973 320.973 534.453 320.48C533.933 319.973 533.279 319.72 532.493 319.72C531.719 319.72 531.026 319.94 530.413 320.38C529.813 320.807 529.339 321.387 528.993 322.12C528.659 322.84 528.493 323.613 528.493 324.44C528.493 325.333 528.733 326.027 529.213 326.52C529.706 327.013 530.339 327.26 531.113 327.26ZM550.687 317.98L548.747 329H546.467L546.687 327.7C546.247 328.153 545.713 328.513 545.087 328.78C544.473 329.033 543.84 329.16 543.187 329.16C542.027 329.16 541.1 328.847 540.407 328.22C539.713 327.593 539.367 326.707 539.367 325.56C539.367 325.253 539.4 324.887 539.467 324.46L540.607 317.98H542.867L541.787 324.12C541.733 324.493 541.707 324.76 541.707 324.92C541.707 325.653 541.907 326.213 542.307 326.6C542.72 326.987 543.287 327.18 544.007 327.18C544.847 327.18 545.56 326.933 546.147 326.44C546.733 325.933 547.12 325.207 547.307 324.26L548.407 317.98H550.687ZM557.075 315.1L555.095 324.8H553.195L554.655 315.1H557.075ZM553.455 329.14C553.095 329.14 552.802 329.027 552.575 328.8C552.348 328.573 552.235 328.287 552.235 327.94C552.235 327.473 552.408 327.073 552.755 326.74C553.115 326.393 553.522 326.22 553.975 326.22C554.335 326.22 554.622 326.333 554.835 326.56C555.062 326.787 555.175 327.073 555.175 327.42C555.175 327.887 555.002 328.293 554.655 328.64C554.308 328.973 553.908 329.14 553.455 329.14Z" fill="#17395B"/>
<defs>
<filter id="filter0_d_2021_418" x="44.2351" y="0.899975" width="779.415" height="227.1" filterUnits="userSpaceOnUse" color-interpolation-filters="sRGB">
<feFlood flood-opacity="0" result="BackgroundImageFix"/>
<feColorMatrix in="SourceAlpha" type="matrix" values="0 0 0 0 0 0 0 0 0 0 0 0 0 0 0 0 0 0 127 0" result="hardAlpha"/>
<feOffset/>
<feGaussianBlur stdDeviation="27.6"/>
<feComposite in2="hardAlpha" operator="out"/>
<feColorMatrix type="matrix" values="0 0 0 0 0.217165 0 0 0 0 0.441667 0 0 0 0 0.0386458 0 0 0 1 0"/>
<feBlend mode="normal" in2="BackgroundImageFix" result="effect1_dropShadow_2021_418"/>
<feBlend mode="normal" in="SourceGraphic" in2="effect1_dropShadow_2021_418" result="shape"/>
</filter>
</defs>
</svg>
