<svg width="546" height="327" viewBox="0 0 546 327" fill="none" xmlns="http://www.w3.org/2000/svg">
<rect width="546" height="327" rx="50" fill="#6CBF2A"/>
<g clip-path="url(#clip0_407_2493)">
<path d="M96.4165 97L63.6469 84.5L62.3748 85.6833L67.7498 97L62.3748 108.317L63.6469 109.5L96.4165 97Z" fill="#0E3D68"/>
</g>
<g clip-path="url(#clip1_407_2493)">
<path d="M95.4165 193L62.6469 180.5L61.3748 181.683L66.7498 193L61.3748 204.317L62.6469 205.5L95.4165 193Z" fill="#0E3D68"/>
</g>
<path d="M135.81 89.784L139.902 97H137.394L133.632 89.982H132.774L131.652 97H129.584L132.202 80.412H134.71C136.184 80.412 137.768 80.434 138.978 81.182C140.232 81.996 140.782 83.558 140.518 85.142C140.144 87.518 138.252 89.498 135.81 89.784ZM133.984 82.26L133.038 88.266H133.698C135.81 88.266 138.164 87.87 138.582 85.23C138.978 82.634 136.58 82.26 134.534 82.26H133.984ZM150.864 92.182H143.01C142.746 93.942 143.67 95.592 145.562 95.592C147.08 95.592 148.026 94.822 148.972 93.59L150.49 94.536C149.236 96.318 147.256 97.352 145.254 97.352C142.108 97.352 140.59 94.976 141.052 91.94C141.558 88.772 143.626 86.396 146.948 86.396C150.226 86.396 151.392 88.816 150.908 91.874L150.864 92.182ZM143.34 90.686H149.104C149.126 89.146 148.268 88.112 146.684 88.112C145.144 88.112 143.824 89.212 143.34 90.686ZM160.924 87.078L160.528 89.63C159.89 88.728 158.988 88.244 157.8 88.244C155.864 88.244 154.104 89.96 153.796 91.852C153.466 93.964 154.698 95.504 156.788 95.504C157.932 95.504 158.944 94.976 159.824 94.14L159.406 96.67C158.438 97.154 157.492 97.352 156.458 97.352C153.422 97.352 151.31 95.02 151.794 91.94C152.3 88.75 155.138 86.396 158.306 86.396C159.23 86.396 160.22 86.616 160.924 87.078ZM171.059 92.182H163.205C162.941 93.942 163.865 95.592 165.757 95.592C167.275 95.592 168.221 94.822 169.167 93.59L170.685 94.536C169.431 96.318 167.451 97.352 165.449 97.352C162.303 97.352 160.785 94.976 161.247 91.94C161.753 88.772 163.821 86.396 167.143 86.396C170.421 86.396 171.587 88.816 171.103 91.874L171.059 92.182ZM163.535 90.686H169.299C169.321 89.146 168.463 88.112 166.879 88.112C165.339 88.112 164.019 89.212 163.535 90.686ZM176.037 86.704L174.409 97H172.429L174.057 86.704H176.037ZM176.015 80.61C176.763 80.61 177.291 81.226 177.159 81.996C177.049 82.744 176.323 83.338 175.575 83.338C174.827 83.338 174.321 82.744 174.431 81.996C174.563 81.226 175.267 80.61 176.015 80.61ZM179.775 86.704L181.711 93.128L185.693 86.704H187.915L181.029 97.352L177.553 86.704H179.775ZM197.184 92.182H189.33C189.066 93.942 189.99 95.592 191.882 95.592C193.4 95.592 194.346 94.822 195.292 93.59L196.81 94.536C195.556 96.318 193.576 97.352 191.574 97.352C188.428 97.352 186.91 94.976 187.372 91.94C187.878 88.772 189.946 86.396 193.268 86.396C196.546 86.396 197.712 88.816 197.228 91.874L197.184 92.182ZM189.66 90.686H195.424C195.446 89.146 194.588 88.112 193.004 88.112C191.464 88.112 190.144 89.212 189.66 90.686ZM209.665 95.592C211.821 95.592 213.273 93.876 213.603 91.852C213.911 89.85 212.987 88.156 210.853 88.156C208.807 88.156 207.311 89.938 207.003 91.852C206.695 93.788 207.575 95.592 209.665 95.592ZM207.927 86.704L207.663 88.42H207.707C208.719 87.188 210.061 86.396 211.601 86.396C214.571 86.396 216.045 88.97 215.605 91.786C215.121 94.734 212.943 97.352 209.775 97.352C208.323 97.352 207.201 96.56 206.607 95.394H206.563L205.375 102.896H203.395L205.947 86.704H207.927ZM226.51 92.182H218.656C218.392 93.942 219.316 95.592 221.208 95.592C222.726 95.592 223.672 94.822 224.618 93.59L226.136 94.536C224.882 96.318 222.902 97.352 220.9 97.352C217.754 97.352 216.236 94.976 216.698 91.94C217.204 88.772 219.272 86.396 222.594 86.396C225.872 86.396 227.038 88.816 226.554 91.874L226.51 92.182ZM218.986 90.686H224.75C224.772 89.146 223.914 88.112 222.33 88.112C220.79 88.112 219.47 89.212 218.986 90.686ZM231.18 86.704L230.916 88.376H230.982C231.664 87.166 232.786 86.396 234.106 86.396C234.678 86.396 235.228 86.594 235.668 86.902L234.48 88.706C234.172 88.398 233.798 88.288 233.336 88.288C231.202 88.288 230.608 90.268 230.344 91.94L229.552 97H227.572L229.2 86.704H231.18ZM242.281 88.2L240.543 89.058C240.389 88.552 239.949 88.156 239.377 88.156C238.827 88.156 238.233 88.596 238.123 89.168C237.991 90.07 239.113 90.466 240.235 91.016C241.357 91.566 242.413 92.314 242.149 93.942C241.841 95.9 239.971 97.352 238.057 97.352C236.561 97.352 235.197 96.494 234.867 95.042L236.693 94.272C236.979 95.042 237.397 95.592 238.343 95.592C239.179 95.592 239.993 95.02 240.147 94.14C240.235 93.59 239.993 93.326 239.597 93.018L237.815 91.984C236.781 91.368 236.033 90.796 236.253 89.388C236.517 87.716 238.079 86.396 239.751 86.396C241.005 86.396 241.907 87.078 242.281 88.2ZM249.844 86.396C252.924 86.396 254.97 88.772 254.486 91.874C254.002 94.976 251.186 97.352 248.106 97.352C245.026 97.352 243.002 94.976 243.486 91.874C243.97 88.772 246.764 86.396 249.844 86.396ZM249.558 88.288C247.6 88.288 245.774 89.916 245.466 91.874C245.158 93.81 246.456 95.46 248.414 95.46C250.372 95.46 252.198 93.81 252.506 91.874C252.814 89.916 251.516 88.288 249.558 88.288ZM259.085 86.704L258.865 88.09H258.909C259.701 86.99 261.021 86.396 262.275 86.396C265.179 86.396 265.619 88.354 265.223 90.862L264.255 97H262.275L263.199 91.104C263.485 89.344 263.441 88.156 261.417 88.156C258.865 88.156 258.513 90.4 258.205 92.27L257.457 97H255.477L257.105 86.704H259.085ZM271.657 95.592C273.813 95.592 275.265 93.876 275.595 91.852C275.903 89.85 274.979 88.156 272.845 88.156C270.799 88.156 269.303 89.938 268.995 91.852C268.687 93.788 269.567 95.592 271.657 95.592ZM278.279 86.704L276.651 97H274.671L274.935 95.394H274.891C273.901 96.56 272.537 97.352 271.063 97.352C267.917 97.352 266.553 94.734 267.037 91.786C267.477 88.97 269.743 86.396 272.735 86.396C274.253 86.396 275.375 87.188 275.991 88.42H276.035L276.299 86.704H278.279ZM284.3 77.904L281.286 97H279.306L282.32 77.904H284.3ZM288.164 86.704L286.536 97H284.556L286.184 86.704H288.164ZM288.142 80.61C288.89 80.61 289.418 81.226 289.286 81.996C289.176 82.744 288.45 83.338 287.702 83.338C286.954 83.338 286.448 82.744 286.558 81.996C286.69 81.226 287.394 80.61 288.142 80.61ZM292.518 95.152H299.206L298.92 97H288.382L296.698 88.552H290.912L291.198 86.704H300.834L292.518 95.152ZM310.406 92.182H302.552C302.288 93.942 303.212 95.592 305.104 95.592C306.622 95.592 307.568 94.822 308.514 93.59L310.032 94.536C308.778 96.318 306.798 97.352 304.796 97.352C301.65 97.352 300.132 94.976 300.594 91.94C301.1 88.772 303.168 86.396 306.49 86.396C309.768 86.396 310.934 88.816 310.45 91.874L310.406 92.182ZM302.882 90.686H308.646C308.668 89.146 307.81 88.112 306.226 88.112C304.686 88.112 303.366 89.212 302.882 90.686ZM316.001 95.592C318.157 95.592 319.609 93.876 319.939 91.852C320.247 89.85 319.323 88.156 317.189 88.156C315.143 88.156 313.647 89.938 313.339 91.852C313.031 93.788 313.911 95.592 316.001 95.592ZM319.015 97L319.279 95.394H319.235C318.245 96.56 316.859 97.352 315.407 97.352C312.239 97.352 310.897 94.734 311.381 91.786C311.821 88.97 314.087 86.396 317.057 86.396C318.597 86.396 319.719 87.188 320.335 88.42H320.379L322.029 77.904H324.009L320.995 97H319.015ZM333.969 86.704L331.417 102.896H329.437L331.989 86.704H333.969ZM333.947 80.61C334.695 80.61 335.223 81.226 335.091 81.996C334.981 82.744 334.255 83.338 333.507 83.338C332.759 83.338 332.253 82.744 332.363 81.996C332.495 81.226 333.199 80.61 333.947 80.61ZM341.755 86.396C344.835 86.396 346.881 88.772 346.397 91.874C345.913 94.976 343.097 97.352 340.017 97.352C336.937 97.352 334.913 94.976 335.397 91.874C335.881 88.772 338.675 86.396 341.755 86.396ZM341.469 88.288C339.511 88.288 337.685 89.916 337.377 91.874C337.069 93.81 338.367 95.46 340.325 95.46C342.283 95.46 344.109 93.81 344.417 91.874C344.725 89.916 343.427 88.288 341.469 88.288ZM352.579 95.592C354.735 95.592 356.187 93.876 356.517 91.852C356.825 89.85 355.901 88.156 353.767 88.156C351.721 88.156 350.225 89.938 349.917 91.852C349.609 93.788 350.489 95.592 352.579 95.592ZM347.233 97L350.247 77.904H352.227L350.577 88.42H350.621C351.633 87.188 352.975 86.396 354.515 86.396C357.485 86.396 358.959 88.97 358.519 91.786C358.035 94.734 355.857 97.352 352.689 97.352C351.237 97.352 350.115 96.56 349.521 95.394H349.477L349.213 97H347.233ZM369.513 86.704L369.315 88.002H369.359C370.063 87.1 371.207 86.396 372.329 86.396C373.671 86.396 374.529 87.078 375.013 88.222C375.827 87.122 377.169 86.396 378.467 86.396C381.173 86.396 381.547 88.508 381.173 90.84L380.205 97H378.225L379.149 91.17C379.347 89.85 379.457 88.156 377.719 88.156C375.607 88.156 375.101 90.356 374.837 91.94L374.045 97H372.065L372.923 91.544C373.143 90.202 373.407 88.156 371.581 88.156C369.469 88.156 368.941 90.334 368.677 91.94L367.885 97H365.905L367.533 86.704H369.513ZM387.501 95.592C389.657 95.592 391.109 93.876 391.439 91.852C391.747 89.85 390.823 88.156 388.689 88.156C386.643 88.156 385.147 89.938 384.839 91.852C384.531 93.788 385.411 95.592 387.501 95.592ZM394.123 86.704L392.495 97H390.515L390.779 95.394H390.735C389.745 96.56 388.381 97.352 386.907 97.352C383.761 97.352 382.397 94.734 382.881 91.786C383.321 88.97 385.587 86.396 388.579 86.396C390.097 86.396 391.219 87.188 391.835 88.42H391.879L392.143 86.704H394.123ZM398.669 88.552L397.327 97H395.347L396.689 88.552H395.611L395.897 86.704H396.975L397.591 82.766H399.571L398.955 86.704H400.891L400.605 88.552H398.669ZM409.476 87.078L409.08 89.63C408.442 88.728 407.54 88.244 406.352 88.244C404.416 88.244 402.656 89.96 402.348 91.852C402.018 93.964 403.25 95.504 405.34 95.504C406.484 95.504 407.496 94.976 408.376 94.14L407.958 96.67C406.99 97.154 406.044 97.352 405.01 97.352C401.974 97.352 399.862 95.02 400.346 91.94C400.852 88.75 403.69 86.396 406.858 86.396C407.782 86.396 408.772 86.616 409.476 87.078ZM413.071 77.904H415.051L413.445 88.09H413.489C414.281 86.99 415.601 86.396 416.855 86.396C419.759 86.396 420.199 88.354 419.803 90.862L418.835 97H416.855L417.779 91.104C418.065 89.344 418.021 88.156 415.997 88.156C413.445 88.156 413.093 90.4 412.785 92.27L412.037 97H410.057L413.071 77.904ZM431.385 92.182H423.531C423.267 93.942 424.191 95.592 426.083 95.592C427.601 95.592 428.547 94.822 429.493 93.59L431.011 94.536C429.757 96.318 427.777 97.352 425.775 97.352C422.629 97.352 421.111 94.976 421.573 91.94C422.079 88.772 424.147 86.396 427.469 86.396C430.747 86.396 431.913 88.816 431.429 91.874L431.385 92.182ZM423.861 90.686H429.625C429.647 89.146 428.789 88.112 427.205 88.112C425.665 88.112 424.345 89.212 423.861 90.686ZM439.443 88.2L437.705 89.058C437.551 88.552 437.111 88.156 436.539 88.156C435.989 88.156 435.395 88.596 435.285 89.168C435.153 90.07 436.275 90.466 437.397 91.016C438.519 91.566 439.575 92.314 439.311 93.942C439.003 95.9 437.133 97.352 435.219 97.352C433.723 97.352 432.359 96.494 432.029 95.042L433.855 94.272C434.141 95.042 434.559 95.592 435.505 95.592C436.341 95.592 437.155 95.02 437.309 94.14C437.397 93.59 437.155 93.326 436.759 93.018L434.977 91.984C433.943 91.368 433.195 90.796 433.415 89.388C433.679 87.716 435.241 86.396 436.913 86.396C438.167 86.396 439.069 87.078 439.443 88.2ZM134.556 121.592C136.712 121.592 138.164 119.876 138.494 117.852C138.802 115.85 137.878 114.156 135.744 114.156C133.698 114.156 132.202 115.938 131.894 117.852C131.586 119.788 132.466 121.592 134.556 121.592ZM129.21 123L132.224 103.904H134.204L132.554 114.42H132.598C133.61 113.188 134.952 112.396 136.492 112.396C139.462 112.396 140.936 114.97 140.496 117.786C140.012 120.734 137.834 123.352 134.666 123.352C133.214 123.352 132.092 122.56 131.498 121.394H131.454L131.19 123H129.21ZM146.253 121.592C148.409 121.592 149.861 119.876 150.191 117.852C150.499 115.85 149.575 114.156 147.441 114.156C145.395 114.156 143.899 115.938 143.591 117.852C143.283 119.788 144.163 121.592 146.253 121.592ZM152.875 112.704L151.247 123H149.267L149.531 121.394H149.487C148.497 122.56 147.133 123.352 145.659 123.352C142.513 123.352 141.149 120.734 141.633 117.786C142.073 114.97 144.339 112.396 147.331 112.396C148.849 112.396 149.971 113.188 150.587 114.42H150.631L150.895 112.704H152.875ZM160.941 114.2L159.203 115.058C159.049 114.552 158.609 114.156 158.037 114.156C157.487 114.156 156.893 114.596 156.783 115.168C156.651 116.07 157.773 116.466 158.895 117.016C160.017 117.566 161.073 118.314 160.809 119.942C160.501 121.9 158.631 123.352 156.717 123.352C155.221 123.352 153.857 122.494 153.527 121.042L155.353 120.272C155.639 121.042 156.057 121.592 157.003 121.592C157.839 121.592 158.653 121.02 158.807 120.14C158.895 119.59 158.653 119.326 158.257 119.018L156.475 117.984C155.441 117.368 154.693 116.796 154.913 115.388C155.177 113.716 156.739 112.396 158.411 112.396C159.665 112.396 160.567 113.078 160.941 114.2ZM172.069 118.182H164.215C163.951 119.942 164.875 121.592 166.767 121.592C168.285 121.592 169.231 120.822 170.177 119.59L171.695 120.536C170.441 122.318 168.461 123.352 166.459 123.352C163.313 123.352 161.795 120.976 162.257 117.94C162.763 114.772 164.831 112.396 168.153 112.396C171.431 112.396 172.597 114.816 172.113 117.874L172.069 118.182ZM164.545 116.686H170.309C170.331 115.146 169.473 114.112 167.889 114.112C166.349 114.112 165.029 115.212 164.545 116.686ZM177.663 121.592C179.819 121.592 181.271 119.876 181.601 117.852C181.909 115.85 180.985 114.156 178.851 114.156C176.805 114.156 175.309 115.938 175.001 117.852C174.693 119.788 175.573 121.592 177.663 121.592ZM180.677 123L180.941 121.394H180.897C179.907 122.56 178.521 123.352 177.069 123.352C173.901 123.352 172.559 120.734 173.043 117.786C173.483 114.97 175.749 112.396 178.719 112.396C180.259 112.396 181.381 113.188 181.997 114.42H182.041L183.691 103.904H185.671L182.657 123H180.677ZM197.702 112.396C200.782 112.396 202.828 114.772 202.344 117.874C201.86 120.976 199.044 123.352 195.964 123.352C192.884 123.352 190.86 120.976 191.344 117.874C191.828 114.772 194.622 112.396 197.702 112.396ZM197.416 114.288C195.458 114.288 193.632 115.916 193.324 117.874C193.016 119.81 194.314 121.46 196.272 121.46C198.23 121.46 200.056 119.81 200.364 117.874C200.672 115.916 199.374 114.288 197.416 114.288ZM206.943 112.704L206.723 114.09H206.767C207.559 112.99 208.879 112.396 210.133 112.396C213.037 112.396 213.477 114.354 213.081 116.862L212.113 123H210.133L211.057 117.104C211.343 115.344 211.299 114.156 209.275 114.156C206.723 114.156 206.371 116.4 206.063 118.27L205.315 123H203.335L204.963 112.704H206.943ZM224.124 121.24L220.758 112.704H223.068L225.51 119.238L229.778 112.704H232L221.11 128.896H218.866L224.124 121.24ZM237.684 112.396C240.764 112.396 242.81 114.772 242.326 117.874C241.842 120.976 239.026 123.352 235.946 123.352C232.866 123.352 230.842 120.976 231.326 117.874C231.81 114.772 234.604 112.396 237.684 112.396ZM237.398 114.288C235.44 114.288 233.614 115.916 233.306 117.874C232.998 119.81 234.296 121.46 236.254 121.46C238.212 121.46 240.038 119.81 240.346 117.874C240.654 115.916 239.356 114.288 237.398 114.288ZM244.857 112.704H246.837L245.935 118.402C245.671 120.052 245.869 121.504 247.827 121.504C249.785 121.504 250.423 120.052 250.687 118.402L251.589 112.704H253.569L252.645 118.622C252.183 121.438 250.555 123.352 247.519 123.352C244.483 123.352 243.471 121.438 243.933 118.622L244.857 112.704ZM258.315 112.704L258.051 114.376H258.117C258.799 113.166 259.921 112.396 261.241 112.396C261.813 112.396 262.363 112.594 262.803 112.902L261.615 114.706C261.307 114.398 260.933 114.288 260.471 114.288C258.337 114.288 257.743 116.268 257.479 117.94L256.687 123H254.707L256.335 112.704H258.315ZM273.311 121.592C275.467 121.592 276.919 119.876 277.249 117.852C277.557 115.85 276.633 114.156 274.499 114.156C272.453 114.156 270.957 115.938 270.649 117.852C270.341 119.788 271.221 121.592 273.311 121.592ZM279.933 112.704L277.381 128.896H275.401L276.589 121.394H276.545C275.555 122.56 274.169 123.352 272.717 123.352C269.549 123.352 268.207 120.734 268.691 117.786C269.131 114.97 271.397 112.396 274.367 112.396C275.907 112.396 277.029 113.188 277.645 114.42H277.689L277.953 112.704H279.933ZM282.412 112.704H284.392L283.49 118.402C283.226 120.052 283.424 121.504 285.382 121.504C287.34 121.504 287.978 120.052 288.242 118.402L289.144 112.704H291.124L290.2 118.622C289.738 121.438 288.11 123.352 285.074 123.352C282.038 123.352 281.026 121.438 281.488 118.622L282.412 112.704ZM296.794 121.592C298.95 121.592 300.402 119.876 300.732 117.852C301.04 115.85 300.116 114.156 297.982 114.156C295.936 114.156 294.44 115.938 294.132 117.852C293.824 119.788 294.704 121.592 296.794 121.592ZM303.416 112.704L301.788 123H299.808L300.072 121.394H300.028C299.038 122.56 297.674 123.352 296.2 123.352C293.054 123.352 291.69 120.734 292.174 117.786C292.614 114.97 294.88 112.396 297.872 112.396C299.39 112.396 300.512 113.188 301.128 114.42H301.172L301.436 112.704H303.416ZM309.436 103.904L306.422 123H304.442L307.456 103.904H309.436ZM313.301 112.704L311.673 123H309.693L311.321 112.704H313.301ZM313.279 106.61C314.027 106.61 314.555 107.226 314.423 107.996C314.313 108.744 313.587 109.338 312.839 109.338C312.091 109.338 311.585 108.744 311.695 107.996C311.827 107.226 312.531 106.61 313.279 106.61ZM324.563 112.704L322.935 123H320.955L322.583 112.704H324.563ZM324.541 106.61C325.289 106.61 325.817 107.226 325.685 107.996C325.575 108.744 324.849 109.338 324.101 109.338C323.353 109.338 322.847 108.744 322.957 107.996C323.089 107.226 323.793 106.61 324.541 106.61ZM322.957 103.904L322.649 105.906C322.275 105.73 321.813 105.488 321.395 105.488C319.987 105.488 319.701 107.27 319.547 108.282L318.843 112.704H321.571L321.285 114.552H318.557L317.215 123H315.235L316.577 114.552H315.675L315.961 112.704H316.863L317.655 107.688C318.007 105.444 319.063 103.64 321.615 103.64C322.099 103.64 322.561 103.728 322.957 103.904ZM335.226 113.078L334.83 115.63C334.192 114.728 333.29 114.244 332.102 114.244C330.166 114.244 328.406 115.96 328.098 117.852C327.768 119.964 329 121.504 331.09 121.504C332.234 121.504 333.246 120.976 334.126 120.14L333.708 122.67C332.74 123.154 331.794 123.352 330.76 123.352C327.724 123.352 325.612 121.02 326.096 117.94C326.602 114.75 329.44 112.396 332.608 112.396C333.532 112.396 334.522 112.616 335.226 113.078ZM340.471 121.592C342.627 121.592 344.079 119.876 344.409 117.852C344.717 115.85 343.793 114.156 341.659 114.156C339.613 114.156 338.117 115.938 337.809 117.852C337.501 119.788 338.381 121.592 340.471 121.592ZM347.093 112.704L345.465 123H343.485L343.749 121.394H343.705C342.715 122.56 341.351 123.352 339.877 123.352C336.731 123.352 335.367 120.734 335.851 117.786C336.291 114.97 338.557 112.396 341.549 112.396C343.067 112.396 344.189 113.188 344.805 114.42H344.849L345.113 112.704H347.093ZM351.64 114.552L350.298 123H348.318L349.66 114.552H348.582L348.868 112.704H349.946L350.562 108.766H352.542L351.926 112.704H353.862L353.576 114.552H351.64ZM357.387 112.704L355.759 123H353.779L355.407 112.704H357.387ZM357.365 106.61C358.113 106.61 358.641 107.226 358.509 107.996C358.399 108.744 357.673 109.338 356.925 109.338C356.177 109.338 355.671 108.744 355.781 107.996C355.913 107.226 356.617 106.61 357.365 106.61ZM365.173 112.396C368.253 112.396 370.299 114.772 369.815 117.874C369.331 120.976 366.515 123.352 363.435 123.352C360.355 123.352 358.331 120.976 358.815 117.874C359.299 114.772 362.093 112.396 365.173 112.396ZM364.887 114.288C362.929 114.288 361.103 115.916 360.795 117.874C360.487 119.81 361.785 121.46 363.743 121.46C365.701 121.46 367.527 119.81 367.835 117.874C368.143 115.916 366.845 114.288 364.887 114.288ZM374.413 112.704L374.193 114.09H374.237C375.029 112.99 376.349 112.396 377.603 112.396C380.507 112.396 380.947 114.354 380.551 116.862L379.583 123H377.603L378.527 117.104C378.813 115.344 378.769 114.156 376.745 114.156C374.193 114.156 373.841 116.4 373.533 118.27L372.785 123H370.805L372.433 112.704H374.413ZM389.449 114.2L387.711 115.058C387.557 114.552 387.117 114.156 386.545 114.156C385.995 114.156 385.401 114.596 385.291 115.168C385.159 116.07 386.281 116.466 387.403 117.016C388.525 117.566 389.581 118.314 389.317 119.942C389.009 121.9 387.139 123.352 385.225 123.352C383.729 123.352 382.365 122.494 382.035 121.042L383.861 120.272C384.147 121.042 384.565 121.592 385.511 121.592C386.347 121.592 387.161 121.02 387.315 120.14C387.403 119.59 387.161 119.326 386.765 119.018L384.983 117.984C383.949 117.368 383.201 116.796 383.421 115.388C383.685 113.716 385.247 112.396 386.919 112.396C388.173 112.396 389.075 113.078 389.449 114.2ZM393.426 120.382L395.032 121.064L391.182 126.938L390.038 126.432L393.426 120.382ZM410.611 114.2L408.873 115.058C408.719 114.552 408.279 114.156 407.707 114.156C407.157 114.156 406.563 114.596 406.453 115.168C406.321 116.07 407.443 116.466 408.565 117.016C409.687 117.566 410.743 118.314 410.479 119.942C410.171 121.9 408.301 123.352 406.387 123.352C404.891 123.352 403.527 122.494 403.197 121.042L405.023 120.272C405.309 121.042 405.727 121.592 406.673 121.592C407.509 121.592 408.323 121.02 408.477 120.14C408.565 119.59 408.323 119.326 407.927 119.018L406.145 117.984C405.111 117.368 404.363 116.796 404.583 115.388C404.847 113.716 406.409 112.396 408.081 112.396C409.335 112.396 410.237 113.078 410.611 114.2ZM417.053 103.904L415.051 116.576L419.539 112.704H422.157L417.075 116.972L420.969 123H418.395L415.469 118.314L414.677 118.996L414.039 123H412.059L415.073 103.904H417.053ZM426.137 112.704L424.509 123H422.529L424.157 112.704H426.137ZM426.115 106.61C426.863 106.61 427.391 107.226 427.259 107.996C427.149 108.744 426.423 109.338 425.675 109.338C424.927 109.338 424.421 108.744 424.531 107.996C424.663 107.226 425.367 106.61 426.115 106.61ZM432.757 103.904L429.743 123H427.763L430.777 103.904H432.757ZM437.655 103.904L434.641 123H432.661L435.675 103.904H437.655ZM444.578 114.2L442.84 115.058C442.686 114.552 442.246 114.156 441.674 114.156C441.124 114.156 440.53 114.596 440.42 115.168C440.288 116.07 441.41 116.466 442.532 117.016C443.654 117.566 444.71 118.314 444.446 119.942C444.138 121.9 442.268 123.352 440.354 123.352C438.858 123.352 437.494 122.494 437.164 121.042L438.99 120.272C439.276 121.042 439.694 121.592 440.64 121.592C441.476 121.592 442.29 121.02 442.444 120.14C442.532 119.59 442.29 119.326 441.894 119.018L440.112 117.984C439.078 117.368 438.33 116.796 438.55 115.388C438.814 113.716 440.376 112.396 442.048 112.396C443.302 112.396 444.204 113.078 444.578 114.2ZM448.555 120.382L450.161 121.064L446.311 126.938L445.167 126.432L448.555 120.382ZM134.028 147.592C136.184 147.592 137.636 145.876 137.966 143.852C138.274 141.85 137.35 140.156 135.216 140.156C133.17 140.156 131.674 141.938 131.366 143.852C131.058 145.788 131.938 147.592 134.028 147.592ZM140.65 138.704L139.022 149H137.042L137.306 147.394H137.262C136.272 148.56 134.908 149.352 133.434 149.352C130.288 149.352 128.924 146.734 129.408 143.786C129.848 140.97 132.114 138.396 135.106 138.396C136.624 138.396 137.746 139.188 138.362 140.42H138.406L138.67 138.704H140.65ZM145.197 138.704L144.977 140.09H145.021C145.813 138.99 147.133 138.396 148.387 138.396C151.291 138.396 151.731 140.354 151.335 142.862L150.367 149H148.387L149.311 143.104C149.597 141.344 149.553 140.156 147.529 140.156C144.977 140.156 144.625 142.4 144.317 144.27L143.569 149H141.589L143.217 138.704H145.197ZM157.768 147.592C159.924 147.592 161.376 145.876 161.706 143.852C162.014 141.85 161.09 140.156 158.956 140.156C156.91 140.156 155.414 141.938 155.106 143.852C154.798 145.788 155.678 147.592 157.768 147.592ZM160.782 149L161.046 147.394H161.002C160.012 148.56 158.626 149.352 157.174 149.352C154.006 149.352 152.664 146.734 153.148 143.786C153.588 140.97 155.854 138.396 158.824 138.396C160.364 138.396 161.486 139.188 162.102 140.42H162.146L163.796 129.904H165.776L162.762 149H160.782ZM180.818 139.078L180.422 141.63C179.784 140.728 178.882 140.244 177.694 140.244C175.758 140.244 173.998 141.96 173.69 143.852C173.36 145.964 174.592 147.504 176.682 147.504C177.826 147.504 178.838 146.976 179.718 146.14L179.3 148.67C178.332 149.154 177.386 149.352 176.352 149.352C173.316 149.352 171.204 147.02 171.688 143.94C172.194 140.75 175.032 138.396 178.2 138.396C179.124 138.396 180.114 138.616 180.818 139.078ZM186.063 147.592C188.219 147.592 189.671 145.876 190.001 143.852C190.309 141.85 189.385 140.156 187.251 140.156C185.205 140.156 183.709 141.938 183.401 143.852C183.093 145.788 183.973 147.592 186.063 147.592ZM192.685 138.704L191.057 149H189.077L189.341 147.394H189.297C188.307 148.56 186.943 149.352 185.469 149.352C182.323 149.352 180.959 146.734 181.443 143.786C181.883 140.97 184.149 138.396 187.141 138.396C188.659 138.396 189.781 139.188 190.397 140.42H190.441L190.705 138.704H192.685ZM197.364 138.704L197.1 140.376H197.166C197.848 139.166 198.97 138.396 200.29 138.396C200.862 138.396 201.412 138.594 201.852 138.902L200.664 140.706C200.356 140.398 199.982 140.288 199.52 140.288C197.386 140.288 196.792 142.268 196.528 143.94L195.736 149H193.756L195.384 138.704H197.364ZM210.762 144.182H202.908C202.644 145.942 203.568 147.592 205.46 147.592C206.978 147.592 207.924 146.822 208.87 145.59L210.388 146.536C209.134 148.318 207.154 149.352 205.152 149.352C202.006 149.352 200.488 146.976 200.95 143.94C201.456 140.772 203.524 138.396 206.846 138.396C210.124 138.396 211.29 140.816 210.806 143.874L210.762 144.182ZM203.238 142.686H209.002C209.024 141.146 208.166 140.112 206.582 140.112C205.042 140.112 203.722 141.212 203.238 142.686ZM221.504 144.182H213.65C213.386 145.942 214.31 147.592 216.202 147.592C217.72 147.592 218.666 146.822 219.612 145.59L221.13 146.536C219.876 148.318 217.896 149.352 215.894 149.352C212.748 149.352 211.23 146.976 211.692 143.94C212.198 140.772 214.266 138.396 217.588 138.396C220.866 138.396 222.032 140.816 221.548 143.874L221.504 144.182ZM213.98 142.686H219.744C219.766 141.146 218.908 140.112 217.324 140.112C215.784 140.112 214.464 141.212 213.98 142.686ZM226.174 138.704L225.91 140.376H225.976C226.658 139.166 227.78 138.396 229.1 138.396C229.672 138.396 230.222 138.594 230.662 138.902L229.474 140.706C229.166 140.398 228.792 140.288 228.33 140.288C226.196 140.288 225.602 142.268 225.338 143.94L224.546 149H222.566L224.194 138.704H226.174ZM241.171 147.592C243.327 147.592 244.779 145.876 245.109 143.852C245.417 141.85 244.493 140.156 242.359 140.156C240.313 140.156 238.817 141.938 238.509 143.852C238.201 145.788 239.081 147.592 241.171 147.592ZM247.793 138.704L246.165 149H244.185L244.449 147.394H244.405C243.415 148.56 242.051 149.352 240.577 149.352C237.431 149.352 236.067 146.734 236.551 143.786C236.991 140.97 239.257 138.396 242.249 138.396C243.767 138.396 244.889 139.188 245.505 140.42H245.549L245.813 138.704H247.793ZM255.859 140.2L254.121 141.058C253.967 140.552 253.527 140.156 252.955 140.156C252.405 140.156 251.811 140.596 251.701 141.168C251.569 142.07 252.691 142.466 253.813 143.016C254.935 143.566 255.991 144.314 255.727 145.942C255.419 147.9 253.549 149.352 251.635 149.352C250.139 149.352 248.775 148.494 248.445 147.042L250.271 146.272C250.557 147.042 250.975 147.592 251.921 147.592C252.757 147.592 253.571 147.02 253.725 146.14C253.813 145.59 253.571 145.326 253.175 145.018L251.393 143.984C250.359 143.368 249.611 142.796 249.831 141.388C250.095 139.716 251.657 138.396 253.329 138.396C254.583 138.396 255.485 139.078 255.859 140.2ZM262.367 147.592C264.523 147.592 265.975 145.876 266.305 143.852C266.613 141.85 265.689 140.156 263.555 140.156C261.509 140.156 260.013 141.938 259.705 143.852C259.397 145.788 260.277 147.592 262.367 147.592ZM260.629 138.704L260.365 140.42H260.409C261.421 139.188 262.763 138.396 264.303 138.396C267.273 138.396 268.747 140.97 268.307 143.786C267.823 146.734 265.645 149.352 262.477 149.352C261.025 149.352 259.903 148.56 259.309 147.394H259.265L258.077 154.896H256.097L258.649 138.704H260.629ZM273.447 138.704L271.819 149H269.839L271.467 138.704H273.447ZM273.425 132.61C274.173 132.61 274.701 133.226 274.569 133.996C274.459 134.744 273.733 135.338 272.985 135.338C272.237 135.338 271.731 134.744 271.841 133.996C271.973 133.226 272.677 132.61 273.425 132.61ZM278.725 138.704L278.461 140.376H278.527C279.209 139.166 280.331 138.396 281.651 138.396C282.223 138.396 282.773 138.594 283.213 138.902L282.025 140.706C281.717 140.398 281.343 140.288 280.881 140.288C278.747 140.288 278.153 142.268 277.889 143.94L277.097 149H275.117L276.745 138.704H278.725ZM287.104 147.592C289.26 147.592 290.712 145.876 291.042 143.852C291.35 141.85 290.426 140.156 288.292 140.156C286.246 140.156 284.75 141.938 284.442 143.852C284.134 145.788 285.014 147.592 287.104 147.592ZM293.726 138.704L292.098 149H290.118L290.382 147.394H290.338C289.348 148.56 287.984 149.352 286.51 149.352C283.364 149.352 282 146.734 282.484 143.786C282.924 140.97 285.19 138.396 288.182 138.396C289.7 138.396 290.822 139.188 291.438 140.42H291.482L291.746 138.704H293.726ZM298.273 140.552L296.931 149H294.951L296.293 140.552H295.215L295.501 138.704H296.579L297.195 134.766H299.175L298.559 138.704H300.495L300.209 140.552H298.273ZM304.019 138.704L302.391 149H300.411L302.039 138.704H304.019ZM303.997 132.61C304.745 132.61 305.273 133.226 305.141 133.996C305.031 134.744 304.305 135.338 303.557 135.338C302.809 135.338 302.303 134.744 302.413 133.996C302.545 133.226 303.249 132.61 303.997 132.61ZM311.805 138.396C314.885 138.396 316.931 140.772 316.447 143.874C315.963 146.976 313.147 149.352 310.067 149.352C306.987 149.352 304.963 146.976 305.447 143.874C305.931 140.772 308.725 138.396 311.805 138.396ZM311.519 140.288C309.561 140.288 307.735 141.916 307.427 143.874C307.119 145.81 308.417 147.46 310.375 147.46C312.333 147.46 314.159 145.81 314.467 143.874C314.775 141.916 313.477 140.288 311.519 140.288ZM321.046 138.704L320.826 140.09H320.87C321.662 138.99 322.982 138.396 324.236 138.396C327.14 138.396 327.58 140.354 327.184 142.862L326.216 149H324.236L325.16 143.104C325.446 141.344 325.402 140.156 323.378 140.156C320.826 140.156 320.474 142.4 320.166 144.27L319.418 149H317.438L319.066 138.704H321.046ZM336.082 140.2L334.344 141.058C334.19 140.552 333.75 140.156 333.178 140.156C332.628 140.156 332.034 140.596 331.924 141.168C331.792 142.07 332.914 142.466 334.036 143.016C335.158 143.566 336.214 144.314 335.95 145.942C335.642 147.9 333.772 149.352 331.858 149.352C330.362 149.352 328.998 148.494 328.668 147.042L330.494 146.272C330.78 147.042 331.198 147.592 332.144 147.592C332.98 147.592 333.794 147.02 333.948 146.14C334.036 145.59 333.794 145.326 333.398 145.018L331.616 143.984C330.582 143.368 329.834 142.796 330.054 141.388C330.318 139.716 331.88 138.396 333.552 138.396C334.806 138.396 335.708 139.078 336.082 140.2ZM339.575 146.8C340.279 146.8 340.763 147.394 340.653 148.076C340.543 148.78 339.861 149.352 339.157 149.352C338.453 149.352 337.991 148.78 338.101 148.076C338.211 147.394 338.871 146.8 339.575 146.8Z" fill="#093761"/>
<path d="M140.21 185.842H132.598L130.046 190H127.824L138.472 172.708L143.664 190H141.442L140.21 185.842ZM139.66 183.95L137.768 177.24L133.764 183.95H139.66ZM153.963 180.078L153.567 182.63C152.929 181.728 152.027 181.244 150.839 181.244C148.903 181.244 147.143 182.96 146.835 184.852C146.505 186.964 147.737 188.504 149.827 188.504C150.971 188.504 151.983 187.976 152.863 187.14L152.445 189.67C151.477 190.154 150.531 190.352 149.497 190.352C146.461 190.352 144.349 188.02 144.833 184.94C145.339 181.75 148.177 179.396 151.345 179.396C152.269 179.396 153.259 179.616 153.963 180.078ZM163.416 180.078L163.02 182.63C162.382 181.728 161.48 181.244 160.292 181.244C158.356 181.244 156.596 182.96 156.288 184.852C155.958 186.964 157.19 188.504 159.28 188.504C160.424 188.504 161.436 187.976 162.316 187.14L161.898 189.67C160.93 190.154 159.984 190.352 158.95 190.352C155.914 190.352 153.802 188.02 154.286 184.94C154.792 181.75 157.63 179.396 160.798 179.396C161.722 179.396 162.712 179.616 163.416 180.078ZM173.551 185.182H165.697C165.433 186.942 166.357 188.592 168.249 188.592C169.767 188.592 170.713 187.822 171.659 186.59L173.177 187.536C171.923 189.318 169.943 190.352 167.941 190.352C164.795 190.352 163.277 187.976 163.739 184.94C164.245 181.772 166.313 179.396 169.635 179.396C172.913 179.396 174.079 181.816 173.595 184.874L173.551 185.182ZM166.027 183.686H171.791C171.813 182.146 170.955 181.112 169.371 181.112C167.831 181.112 166.511 182.212 166.027 183.686ZM181.609 181.2L179.871 182.058C179.717 181.552 179.277 181.156 178.705 181.156C178.155 181.156 177.561 181.596 177.451 182.168C177.319 183.07 178.441 183.466 179.563 184.016C180.685 184.566 181.741 185.314 181.477 186.942C181.169 188.9 179.299 190.352 177.385 190.352C175.889 190.352 174.525 189.494 174.195 188.042L176.021 187.272C176.307 188.042 176.725 188.592 177.671 188.592C178.507 188.592 179.321 188.02 179.475 187.14C179.563 186.59 179.321 186.326 178.925 186.018L177.143 184.984C176.109 184.368 175.361 183.796 175.581 182.388C175.845 180.716 177.407 179.396 179.079 179.396C180.333 179.396 181.235 180.078 181.609 181.2ZM190.053 181.2L188.315 182.058C188.161 181.552 187.721 181.156 187.149 181.156C186.599 181.156 186.005 181.596 185.895 182.168C185.763 183.07 186.885 183.466 188.007 184.016C189.129 184.566 190.185 185.314 189.921 186.942C189.613 188.9 187.743 190.352 185.829 190.352C184.333 190.352 182.969 189.494 182.639 188.042L184.465 187.272C184.751 188.042 185.169 188.592 186.115 188.592C186.951 188.592 187.765 188.02 187.919 187.14C188.007 186.59 187.765 186.326 187.369 186.018L185.587 184.984C184.553 184.368 183.805 183.796 184.025 182.388C184.289 180.716 185.851 179.396 187.523 179.396C188.777 179.396 189.679 180.078 190.053 181.2ZM207.41 185.182H199.556C199.292 186.942 200.216 188.592 202.108 188.592C203.626 188.592 204.572 187.822 205.518 186.59L207.036 187.536C205.782 189.318 203.802 190.352 201.8 190.352C198.654 190.352 197.136 187.976 197.598 184.94C198.104 181.772 200.172 179.396 203.494 179.396C206.772 179.396 207.938 181.816 207.454 184.874L207.41 185.182ZM199.886 183.686H205.65C205.672 182.146 204.814 181.112 203.23 181.112C201.69 181.112 200.37 182.212 199.886 183.686ZM212.018 184.412L209.07 179.704H211.402L213.316 183.026L216.506 179.704H218.904L214.372 184.412L217.914 190H215.604L212.876 185.82L208.938 190H206.54L212.018 184.412ZM227.976 180.078L227.58 182.63C226.942 181.728 226.04 181.244 224.852 181.244C222.916 181.244 221.156 182.96 220.848 184.852C220.518 186.964 221.75 188.504 223.84 188.504C224.984 188.504 225.996 187.976 226.876 187.14L226.458 189.67C225.49 190.154 224.544 190.352 223.51 190.352C220.474 190.352 218.362 188.02 218.846 184.94C219.352 181.75 222.19 179.396 225.358 179.396C226.282 179.396 227.272 179.616 227.976 180.078ZM233.639 170.904L230.625 190H228.645L231.659 170.904H233.639ZM234.974 179.704H236.954L236.052 185.402C235.788 187.052 235.986 188.504 237.944 188.504C239.902 188.504 240.54 187.052 240.804 185.402L241.706 179.704H243.686L242.762 185.622C242.3 188.438 240.672 190.352 237.636 190.352C234.6 190.352 233.588 188.438 234.05 185.622L234.974 179.704ZM251.82 181.2L250.082 182.058C249.928 181.552 249.488 181.156 248.916 181.156C248.366 181.156 247.772 181.596 247.662 182.168C247.53 183.07 248.652 183.466 249.774 184.016C250.896 184.566 251.952 185.314 251.688 186.942C251.38 188.9 249.51 190.352 247.596 190.352C246.1 190.352 244.736 189.494 244.406 188.042L246.232 187.272C246.518 188.042 246.936 188.592 247.882 188.592C248.718 188.592 249.532 188.02 249.686 187.14C249.774 186.59 249.532 186.326 249.136 186.018L247.354 184.984C246.32 184.368 245.572 183.796 245.792 182.388C246.056 180.716 247.618 179.396 249.29 179.396C250.544 179.396 251.446 180.078 251.82 181.2ZM257.183 179.704L255.555 190H253.575L255.203 179.704H257.183ZM257.161 173.61C257.909 173.61 258.437 174.226 258.305 174.996C258.195 175.744 257.469 176.338 256.721 176.338C255.973 176.338 255.467 175.744 255.577 174.996C255.709 174.226 256.413 173.61 257.161 173.61ZM260.921 179.704L262.857 186.128L266.839 179.704H269.061L262.175 190.352L258.699 179.704H260.921ZM278.33 185.182H270.476C270.212 186.942 271.136 188.592 273.028 188.592C274.546 188.592 275.492 187.822 276.438 186.59L277.956 187.536C276.702 189.318 274.722 190.352 272.72 190.352C269.574 190.352 268.056 187.976 268.518 184.94C269.024 181.772 271.092 179.396 274.414 179.396C277.692 179.396 278.858 181.816 278.374 184.874L278.33 185.182ZM270.806 183.686H276.57C276.592 182.146 275.734 181.112 274.15 181.112C272.61 181.112 271.29 182.212 270.806 183.686ZM289.668 179.704L287.116 195.896H285.136L287.688 179.704H289.668ZM289.646 173.61C290.394 173.61 290.922 174.226 290.79 174.996C290.68 175.744 289.954 176.338 289.206 176.338C288.458 176.338 287.952 175.744 288.062 174.996C288.194 174.226 288.898 173.61 289.646 173.61ZM297.454 179.396C300.534 179.396 302.58 181.772 302.096 184.874C301.612 187.976 298.796 190.352 295.716 190.352C292.636 190.352 290.612 187.976 291.096 184.874C291.58 181.772 294.374 179.396 297.454 179.396ZM297.168 181.288C295.21 181.288 293.384 182.916 293.076 184.874C292.768 186.81 294.066 188.46 296.024 188.46C297.982 188.46 299.808 186.81 300.116 184.874C300.424 182.916 299.126 181.288 297.168 181.288ZM308.279 188.592C310.435 188.592 311.887 186.876 312.217 184.852C312.525 182.85 311.601 181.156 309.467 181.156C307.421 181.156 305.925 182.938 305.617 184.852C305.309 186.788 306.189 188.592 308.279 188.592ZM302.933 190L305.947 170.904H307.927L306.277 181.42H306.321C307.333 180.188 308.675 179.396 310.215 179.396C313.185 179.396 314.659 181.97 314.219 184.786C313.735 187.734 311.557 190.352 308.389 190.352C306.937 190.352 305.815 189.56 305.221 188.394H305.177L304.913 190H302.933ZM327.79 179.396C330.87 179.396 332.916 181.772 332.432 184.874C331.948 187.976 329.132 190.352 326.052 190.352C322.972 190.352 320.948 187.976 321.432 184.874C321.916 181.772 324.71 179.396 327.79 179.396ZM327.504 181.288C325.546 181.288 323.72 182.916 323.412 184.874C323.104 186.81 324.402 188.46 326.36 188.46C328.318 188.46 330.144 186.81 330.452 184.874C330.76 182.916 329.462 181.288 327.504 181.288ZM338.615 188.592C340.771 188.592 342.223 186.876 342.553 184.852C342.861 182.85 341.937 181.156 339.803 181.156C337.757 181.156 336.261 182.938 335.953 184.852C335.645 186.788 336.525 188.592 338.615 188.592ZM336.877 179.704L336.613 181.42H336.657C337.669 180.188 339.011 179.396 340.551 179.396C343.521 179.396 344.995 181.97 344.555 184.786C344.071 187.734 341.893 190.352 338.725 190.352C337.273 190.352 336.151 189.56 335.557 188.394H335.513L334.325 195.896H332.345L334.897 179.704H336.877ZM350.839 188.592C352.995 188.592 354.447 186.876 354.777 184.852C355.085 182.85 354.161 181.156 352.027 181.156C349.981 181.156 348.485 182.938 348.177 184.852C347.869 186.788 348.749 188.592 350.839 188.592ZM349.101 179.704L348.837 181.42H348.881C349.893 180.188 351.235 179.396 352.775 179.396C355.745 179.396 357.219 181.97 356.779 184.786C356.295 187.734 354.117 190.352 350.949 190.352C349.497 190.352 348.375 189.56 347.781 188.394H347.737L346.549 195.896H344.569L347.121 179.704H349.101ZM364.12 179.396C367.2 179.396 369.246 181.772 368.762 184.874C368.278 187.976 365.462 190.352 362.382 190.352C359.302 190.352 357.278 187.976 357.762 184.874C358.246 181.772 361.04 179.396 364.12 179.396ZM363.834 181.288C361.876 181.288 360.05 182.916 359.742 184.874C359.434 186.81 360.732 188.46 362.69 188.46C364.648 188.46 366.474 186.81 366.782 184.874C367.09 182.916 365.792 181.288 363.834 181.288ZM373.493 179.704L373.229 181.376H373.295C373.977 180.166 375.099 179.396 376.419 179.396C376.991 179.396 377.541 179.594 377.981 179.902L376.793 181.706C376.485 181.398 376.111 181.288 375.649 181.288C373.515 181.288 372.921 183.268 372.657 184.94L371.865 190H369.885L371.513 179.704H373.493ZM381.503 181.552L380.161 190H378.181L379.523 181.552H378.445L378.731 179.704H379.809L380.425 175.766H382.405L381.789 179.704H383.725L383.439 181.552H381.503ZM384.72 179.704H386.7L385.798 185.402C385.534 187.052 385.732 188.504 387.69 188.504C389.648 188.504 390.286 187.052 390.55 185.402L391.452 179.704H393.432L392.508 185.622C392.046 188.438 390.418 190.352 387.382 190.352C384.346 190.352 383.334 188.438 383.796 185.622L384.72 179.704ZM398.046 179.704L397.826 181.09H397.87C398.662 179.99 399.982 179.396 401.236 179.396C404.14 179.396 404.58 181.354 404.184 183.862L403.216 190H401.236L402.16 184.104C402.446 182.344 402.402 181.156 400.378 181.156C397.826 181.156 397.474 183.4 397.166 185.27L396.418 190H394.438L396.066 179.704H398.046ZM410.002 179.704L408.374 190H406.394L408.022 179.704H410.002ZM409.98 173.61C410.728 173.61 411.256 174.226 411.124 174.996C411.014 175.744 410.288 176.338 409.54 176.338C408.792 176.338 408.286 175.744 408.396 174.996C408.528 174.226 409.232 173.61 409.98 173.61ZM415.148 181.552L413.806 190H411.826L413.168 181.552H412.09L412.376 179.704H413.454L414.07 175.766H416.05L415.434 179.704H417.37L417.084 181.552H415.148ZM420.894 179.704L419.266 190H417.286L418.914 179.704H420.894ZM420.872 173.61C421.62 173.61 422.148 174.226 422.016 174.996C421.906 175.744 421.18 176.338 420.432 176.338C419.684 176.338 419.178 175.744 419.288 174.996C419.42 174.226 420.124 173.61 420.872 173.61ZM432.244 185.182H424.39C424.126 186.942 425.05 188.592 426.942 188.592C428.46 188.592 429.406 187.822 430.352 186.59L431.87 187.536C430.616 189.318 428.636 190.352 426.634 190.352C423.488 190.352 421.97 187.976 422.432 184.94C422.938 181.772 425.006 179.396 428.328 179.396C431.606 179.396 432.772 181.816 432.288 184.874L432.244 185.182ZM424.72 183.686H430.484C430.506 182.146 429.648 181.112 428.064 181.112C426.524 181.112 425.204 182.212 424.72 183.686ZM440.303 181.2L438.565 182.058C438.411 181.552 437.971 181.156 437.399 181.156C436.849 181.156 436.255 181.596 436.145 182.168C436.013 183.07 437.135 183.466 438.257 184.016C439.379 184.566 440.435 185.314 440.171 186.942C439.863 188.9 437.993 190.352 436.079 190.352C434.583 190.352 433.219 189.494 432.889 188.042L434.715 187.272C435.001 188.042 435.419 188.592 436.365 188.592C437.201 188.592 438.015 188.02 438.169 187.14C438.257 186.59 438.015 186.326 437.619 186.018L435.837 184.984C434.803 184.368 434.055 183.796 434.275 182.388C434.539 180.716 436.101 179.396 437.773 179.396C439.027 179.396 439.929 180.078 440.303 181.2ZM132.972 207.552L131.63 216H129.65L130.992 207.552H129.914L130.2 205.704H131.278L131.894 201.766H133.874L133.258 205.704H135.194L134.908 207.552H132.972ZM137.685 196.904H139.665L138.059 207.09H138.103C138.895 205.99 140.215 205.396 141.469 205.396C144.373 205.396 144.813 207.354 144.417 209.862L143.449 216H141.469L142.393 210.104C142.679 208.344 142.635 207.156 140.611 207.156C138.059 207.156 137.707 209.4 137.399 211.27L136.651 216H134.671L137.685 196.904ZM149.926 205.704L149.662 207.376H149.728C150.41 206.166 151.532 205.396 152.852 205.396C153.424 205.396 153.974 205.594 154.414 205.902L153.226 207.706C152.918 207.398 152.544 207.288 152.082 207.288C149.948 207.288 149.354 209.268 149.09 210.94L148.298 216H146.318L147.946 205.704H149.926ZM159.76 205.396C162.84 205.396 164.886 207.772 164.402 210.874C163.918 213.976 161.102 216.352 158.022 216.352C154.942 216.352 152.918 213.976 153.402 210.874C153.886 207.772 156.68 205.396 159.76 205.396ZM159.474 207.288C157.516 207.288 155.69 208.916 155.382 210.874C155.074 212.81 156.372 214.46 158.33 214.46C160.288 214.46 162.114 212.81 162.422 210.874C162.73 208.916 161.432 207.288 159.474 207.288ZM166.933 205.704H168.913L168.011 211.402C167.747 213.052 167.945 214.504 169.903 214.504C171.861 214.504 172.499 213.052 172.763 211.402L173.665 205.704H175.645L174.721 211.622C174.259 214.438 172.631 216.352 169.595 216.352C166.559 216.352 165.547 214.438 166.009 211.622L166.933 205.704ZM181.293 214.592C183.449 214.592 184.901 212.876 185.231 210.852C185.539 208.85 184.615 207.156 182.481 207.156C180.435 207.156 178.939 208.938 178.631 210.852C178.323 212.788 179.203 214.592 181.293 214.592ZM187.915 205.704L186.309 215.802C185.759 219.344 184.351 221.896 180.347 221.896C177.487 221.896 175.683 220.136 176.101 217.232H178.081C177.795 219.08 178.895 220.136 180.699 220.136C183.141 220.136 183.911 218.464 184.241 216.352L184.571 214.394H184.527C183.537 215.56 182.151 216.352 180.699 216.352C177.531 216.352 176.189 213.734 176.673 210.786C177.113 207.97 179.379 205.396 182.349 205.396C183.889 205.396 185.011 206.188 185.605 207.464H185.649L185.935 205.704H187.915ZM191.868 196.904H193.848L192.242 207.09H192.286C193.078 205.99 194.398 205.396 195.652 205.396C198.556 205.396 198.996 207.354 198.6 209.862L197.632 216H195.652L196.576 210.104C196.862 208.344 196.818 207.156 194.794 207.156C192.242 207.156 191.89 209.4 191.582 211.27L190.834 216H188.854L191.868 196.904ZM212.848 205.396C215.928 205.396 217.974 207.772 217.49 210.874C217.006 213.976 214.19 216.352 211.11 216.352C208.03 216.352 206.006 213.976 206.49 210.874C206.974 207.772 209.768 205.396 212.848 205.396ZM212.562 207.288C210.604 207.288 208.778 208.916 208.47 210.874C208.162 212.81 209.46 214.46 211.418 214.46C213.376 214.46 215.202 212.81 215.51 210.874C215.818 208.916 214.52 207.288 212.562 207.288ZM220.021 205.704H222.001L221.099 211.402C220.835 213.052 221.033 214.504 222.991 214.504C224.949 214.504 225.587 213.052 225.851 211.402L226.753 205.704H228.733L227.809 211.622C227.347 214.438 225.719 216.352 222.683 216.352C219.647 216.352 218.635 214.438 219.097 211.622L220.021 205.704ZM233.479 205.704L233.215 207.376H233.281C233.963 206.166 235.085 205.396 236.405 205.396C236.977 205.396 237.527 205.594 237.967 205.902L236.779 207.706C236.471 207.398 236.097 207.288 235.635 207.288C233.501 207.288 232.907 209.268 232.643 210.94L231.851 216H229.871L231.499 205.704H233.479ZM249.003 214.592C251.159 214.592 252.611 212.876 252.941 210.852C253.249 208.85 252.325 207.156 250.191 207.156C248.145 207.156 246.649 208.938 246.341 210.852C246.033 212.788 246.913 214.592 249.003 214.592ZM247.265 205.704L247.001 207.42H247.045C248.057 206.188 249.399 205.396 250.939 205.396C253.909 205.396 255.383 207.97 254.943 210.786C254.459 213.734 252.281 216.352 249.113 216.352C247.661 216.352 246.539 215.56 245.945 214.394H245.901L244.713 221.896H242.733L245.285 205.704H247.265ZM260.7 214.592C262.856 214.592 264.308 212.876 264.638 210.852C264.946 208.85 264.022 207.156 261.888 207.156C259.842 207.156 258.346 208.938 258.038 210.852C257.73 212.788 258.61 214.592 260.7 214.592ZM267.322 205.704L265.694 216H263.714L263.978 214.394H263.934C262.944 215.56 261.58 216.352 260.106 216.352C256.96 216.352 255.596 213.734 256.08 210.786C256.52 207.97 258.786 205.396 261.778 205.396C263.296 205.396 264.418 206.188 265.034 207.42H265.078L265.342 205.704H267.322ZM272 205.704L271.736 207.376H271.802C272.484 206.166 273.606 205.396 274.926 205.396C275.498 205.396 276.048 205.594 276.488 205.902L275.3 207.706C274.992 207.398 274.618 207.288 274.156 207.288C272.022 207.288 271.428 209.268 271.164 210.94L270.372 216H268.392L270.02 205.704H272ZM280.011 207.552L278.669 216H276.689L278.031 207.552H276.953L277.239 205.704H278.317L278.933 201.766H280.913L280.297 205.704H282.233L281.947 207.552H280.011ZM285.296 205.704L285.076 207.09H285.12C285.912 205.99 287.232 205.396 288.486 205.396C291.39 205.396 291.83 207.354 291.434 209.862L290.466 216H288.486L289.41 210.104C289.696 208.344 289.652 207.156 287.628 207.156C285.076 207.156 284.724 209.4 284.416 211.27L283.668 216H281.688L283.316 205.704H285.296ZM303.016 211.182H295.162C294.898 212.942 295.822 214.592 297.714 214.592C299.232 214.592 300.178 213.822 301.124 212.59L302.642 213.536C301.388 215.318 299.408 216.352 297.406 216.352C294.26 216.352 292.742 213.976 293.204 210.94C293.71 207.772 295.778 205.396 299.1 205.396C302.378 205.396 303.544 207.816 303.06 210.874L303.016 211.182ZM295.492 209.686H301.256C301.278 208.146 300.42 207.112 298.836 207.112C297.296 207.112 295.976 208.212 295.492 209.686ZM307.686 205.704L307.422 207.376H307.488C308.17 206.166 309.292 205.396 310.612 205.396C311.184 205.396 311.734 205.594 312.174 205.902L310.986 207.706C310.678 207.398 310.304 207.288 309.842 207.288C307.708 207.288 307.114 209.268 306.85 210.94L306.058 216H304.078L305.706 205.704H307.686ZM318.787 207.2L317.049 208.058C316.895 207.552 316.455 207.156 315.883 207.156C315.333 207.156 314.739 207.596 314.629 208.168C314.497 209.07 315.619 209.466 316.741 210.016C317.863 210.566 318.919 211.314 318.655 212.942C318.347 214.9 316.477 216.352 314.563 216.352C313.067 216.352 311.703 215.494 311.373 214.042L313.199 213.272C313.485 214.042 313.903 214.592 314.849 214.592C315.685 214.592 316.499 214.02 316.653 213.14C316.741 212.59 316.499 212.326 316.103 212.018L314.321 210.984C313.287 210.368 312.539 209.796 312.759 208.388C313.023 206.716 314.585 205.396 316.257 205.396C317.511 205.396 318.413 206.078 318.787 207.2ZM323.116 196.904H325.096L323.49 207.09H323.534C324.326 205.99 325.646 205.396 326.9 205.396C329.804 205.396 330.244 207.354 329.848 209.862L328.88 216H326.9L327.824 210.104C328.11 208.344 328.066 207.156 326.042 207.156C323.49 207.156 323.138 209.4 322.83 211.27L322.082 216H320.102L323.116 196.904ZM335.666 205.704L334.038 216H332.058L333.686 205.704H335.666ZM335.644 199.61C336.392 199.61 336.92 200.226 336.788 200.996C336.678 201.744 335.952 202.338 335.204 202.338C334.456 202.338 333.95 201.744 334.06 200.996C334.192 200.226 334.896 199.61 335.644 199.61ZM342.396 214.592C344.552 214.592 346.004 212.876 346.334 210.852C346.642 208.85 345.718 207.156 343.584 207.156C341.538 207.156 340.042 208.938 339.734 210.852C339.426 212.788 340.306 214.592 342.396 214.592ZM340.658 205.704L340.394 207.42H340.438C341.45 206.188 342.792 205.396 344.332 205.396C347.302 205.396 348.776 207.97 348.336 210.786C347.852 213.734 345.674 216.352 342.506 216.352C341.054 216.352 339.932 215.56 339.338 214.394H339.294L338.106 221.896H336.126L338.678 205.704H340.658ZM356.556 207.2L354.818 208.058C354.664 207.552 354.224 207.156 353.652 207.156C353.102 207.156 352.508 207.596 352.398 208.168C352.266 209.07 353.388 209.466 354.51 210.016C355.632 210.566 356.688 211.314 356.424 212.942C356.116 214.9 354.246 216.352 352.332 216.352C350.836 216.352 349.472 215.494 349.142 214.042L350.968 213.272C351.254 214.042 351.672 214.592 352.618 214.592C353.454 214.592 354.268 214.02 354.422 213.14C354.51 212.59 354.268 212.326 353.872 212.018L352.09 210.984C351.056 210.368 350.308 209.796 350.528 208.388C350.792 206.716 352.354 205.396 354.026 205.396C355.28 205.396 356.182 206.078 356.556 207.2ZM366.387 205.704L368.345 212.26L372.503 205.132L374.395 212.26L378.421 205.704H380.665L373.735 216.352L371.821 209.466L367.685 216.352L364.143 205.704H366.387ZM384.07 205.704L382.442 216H380.462L382.09 205.704H384.07ZM384.048 199.61C384.796 199.61 385.324 200.226 385.192 200.996C385.082 201.744 384.356 202.338 383.608 202.338C382.86 202.338 382.354 201.744 382.464 200.996C382.596 200.226 383.3 199.61 384.048 199.61ZM389.216 207.552L387.874 216H385.894L387.236 207.552H386.158L386.444 205.704H387.522L388.138 201.766H390.118L389.502 205.704H391.438L391.152 207.552H389.216ZM393.929 196.904H395.909L394.303 207.09H394.347C395.139 205.99 396.459 205.396 397.713 205.396C400.617 205.396 401.057 207.354 400.661 209.862L399.693 216H397.713L398.637 210.104C398.923 208.344 398.879 207.156 396.855 207.156C394.303 207.156 393.951 209.4 393.643 211.27L392.895 216H390.915L393.929 196.904ZM412.398 207.552L411.056 216H409.076L410.418 207.552H409.34L409.626 205.704H410.704L411.32 201.766H413.3L412.684 205.704H414.62L414.334 207.552H412.398ZM420.323 205.396C423.403 205.396 425.449 207.772 424.965 210.874C424.481 213.976 421.665 216.352 418.585 216.352C415.505 216.352 413.481 213.976 413.965 210.874C414.449 207.772 417.243 205.396 420.323 205.396ZM420.037 207.288C418.079 207.288 416.253 208.916 415.945 210.874C415.637 212.81 416.935 214.46 418.893 214.46C420.851 214.46 422.677 212.81 422.985 210.874C423.293 208.916 421.995 207.288 420.037 207.288ZM431.148 214.592C433.304 214.592 434.756 212.876 435.086 210.852C435.394 208.85 434.47 207.156 432.336 207.156C430.29 207.156 428.794 208.938 428.486 210.852C428.178 212.788 429.058 214.592 431.148 214.592ZM429.41 205.704L429.146 207.42H429.19C430.202 206.188 431.544 205.396 433.084 205.396C436.054 205.396 437.528 207.97 437.088 210.786C436.604 213.734 434.426 216.352 431.258 216.352C429.806 216.352 428.684 215.56 428.09 214.394H428.046L426.858 221.896H424.878L427.43 205.704H429.41ZM139.176 237.182H131.322C131.058 238.942 131.982 240.592 133.874 240.592C135.392 240.592 136.338 239.822 137.284 238.59L138.802 239.536C137.548 241.318 135.568 242.352 133.566 242.352C130.42 242.352 128.902 239.976 129.364 236.94C129.87 233.772 131.938 231.396 135.26 231.396C138.538 231.396 139.704 233.816 139.22 236.874L139.176 237.182ZM131.652 235.686H137.416C137.438 234.146 136.58 233.112 134.996 233.112C133.456 233.112 132.136 234.212 131.652 235.686ZM143.648 231.704L143.45 233.002H143.494C144.198 232.1 145.342 231.396 146.464 231.396C147.806 231.396 148.664 232.078 149.148 233.222C149.962 232.122 151.304 231.396 152.602 231.396C155.308 231.396 155.682 233.508 155.308 235.84L154.34 242H152.36L153.284 236.17C153.482 234.85 153.592 233.156 151.854 233.156C149.742 233.156 149.236 235.356 148.972 236.94L148.18 242H146.2L147.058 236.544C147.278 235.202 147.542 233.156 145.716 233.156C143.604 233.156 143.076 235.334 142.812 236.94L142.02 242H140.04L141.668 231.704H143.648ZM162.163 240.592C164.319 240.592 165.771 238.876 166.101 236.852C166.409 234.85 165.485 233.156 163.351 233.156C161.305 233.156 159.809 234.938 159.501 236.852C159.193 238.788 160.073 240.592 162.163 240.592ZM160.425 231.704L160.161 233.42H160.205C161.217 232.188 162.559 231.396 164.099 231.396C167.069 231.396 168.543 233.97 168.103 236.786C167.619 239.734 165.441 242.352 162.273 242.352C160.821 242.352 159.699 241.56 159.105 240.394H159.061L157.873 247.896H155.893L158.445 231.704H160.425ZM174.278 222.904L171.264 242H169.284L172.298 222.904H174.278ZM180.321 231.396C183.401 231.396 185.447 233.772 184.963 236.874C184.479 239.976 181.663 242.352 178.583 242.352C175.503 242.352 173.479 239.976 173.963 236.874C174.447 233.772 177.241 231.396 180.321 231.396ZM180.035 233.288C178.077 233.288 176.251 234.916 175.943 236.874C175.635 238.81 176.933 240.46 178.891 240.46C180.849 240.46 182.675 238.81 182.983 236.874C183.291 234.916 181.993 233.288 180.035 233.288ZM189.298 240.24L185.932 231.704H188.242L190.684 238.238L194.952 231.704H197.174L186.284 247.896H184.04L189.298 240.24ZM206.422 237.182H198.568C198.304 238.942 199.228 240.592 201.12 240.592C202.638 240.592 203.584 239.822 204.53 238.59L206.048 239.536C204.794 241.318 202.814 242.352 200.812 242.352C197.666 242.352 196.148 239.976 196.61 236.94C197.116 233.772 199.184 231.396 202.506 231.396C205.784 231.396 206.95 233.816 206.466 236.874L206.422 237.182ZM198.898 235.686H204.662C204.684 234.146 203.826 233.112 202.242 233.112C200.702 233.112 199.382 234.212 198.898 235.686ZM211.092 231.704L210.828 233.376H210.894C211.576 232.166 212.698 231.396 214.018 231.396C214.59 231.396 215.14 231.594 215.58 231.902L214.392 233.706C214.084 233.398 213.71 233.288 213.248 233.288C211.114 233.288 210.52 235.268 210.256 236.94L209.464 242H207.484L209.112 231.704H211.092ZM222.193 233.2L220.455 234.058C220.301 233.552 219.861 233.156 219.289 233.156C218.739 233.156 218.145 233.596 218.035 234.168C217.903 235.07 219.025 235.466 220.147 236.016C221.269 236.566 222.325 237.314 222.061 238.942C221.753 240.9 219.883 242.352 217.969 242.352C216.473 242.352 215.109 241.494 214.779 240.042L216.605 239.272C216.891 240.042 217.309 240.592 218.255 240.592C219.091 240.592 219.905 240.02 220.059 239.14C220.147 238.59 219.905 238.326 219.509 238.018L217.727 236.984C216.693 236.368 215.945 235.796 216.165 234.388C216.429 232.716 217.991 231.396 219.663 231.396C220.917 231.396 221.819 232.078 222.193 233.2ZM225.687 239.8C226.391 239.8 226.875 240.394 226.765 241.076C226.655 241.78 225.973 242.352 225.269 242.352C224.565 242.352 224.103 241.78 224.213 241.076C224.323 240.394 224.983 239.8 225.687 239.8Z" fill="#093761"/>
<defs>
<clipPath id="clip0_407_2493">
<rect width="40" height="43" fill="white" transform="translate(100 77) rotate(90)"/>
</clipPath>
<clipPath id="clip1_407_2493">
<rect width="40" height="43" fill="white" transform="translate(99 173) rotate(90)"/>
</clipPath>
</defs>
</svg>
