<svg width="546" height="327" viewBox="0 0 546 327" fill="none" xmlns="http://www.w3.org/2000/svg">
<rect width="546" height="327" rx="50" fill="#6CBF2A"/>
<g clip-path="url(#clip0_407_2484)">
<path d="M103.417 205L70.6469 192.5L69.3748 193.683L74.7498 205L69.3748 216.317L70.6469 217.5L103.417 205Z" fill="#0E3D68"/>
</g>
<path d="M137.21 199.842H129.598L127.046 204H124.824L135.472 186.708L140.664 204H138.442L137.21 199.842ZM136.66 197.95L134.768 191.24L130.764 197.95H136.66ZM145.441 195.552L144.099 204H142.119L143.461 195.552H142.383L142.669 193.704H143.747L144.363 189.766H146.343L145.727 193.704H147.663L147.377 195.552H145.441ZM150.747 195.552L149.405 204H147.425L148.767 195.552H147.689L147.975 193.704H149.053L149.669 189.766H151.649L151.033 193.704H152.969L152.683 195.552H150.747ZM162.237 199.182H154.383C154.119 200.942 155.043 202.592 156.935 202.592C158.453 202.592 159.399 201.822 160.345 200.59L161.863 201.536C160.609 203.318 158.629 204.352 156.627 204.352C153.481 204.352 151.963 201.976 152.425 198.94C152.931 195.772 154.999 193.396 158.321 193.396C161.599 193.396 162.765 195.816 162.281 198.874L162.237 199.182ZM154.713 197.686H160.477C160.499 196.146 159.641 195.112 158.057 195.112C156.517 195.112 155.197 196.212 154.713 197.686ZM166.775 193.704L166.555 195.09H166.599C167.391 193.99 168.711 193.396 169.965 193.396C172.869 193.396 173.309 195.354 172.913 197.862L171.945 204H169.965L170.889 198.104C171.175 196.344 171.131 195.156 169.107 195.156C166.555 195.156 166.203 197.4 165.895 199.27L165.147 204H163.167L164.795 193.704H166.775ZM179.346 202.592C181.502 202.592 182.954 200.876 183.284 198.852C183.592 196.85 182.668 195.156 180.534 195.156C178.488 195.156 176.992 196.938 176.684 198.852C176.376 200.788 177.256 202.592 179.346 202.592ZM182.36 204L182.624 202.394H182.58C181.59 203.56 180.204 204.352 178.752 204.352C175.584 204.352 174.242 201.734 174.726 198.786C175.166 195.97 177.432 193.396 180.402 193.396C181.942 193.396 183.064 194.188 183.68 195.42H183.724L185.374 184.904H187.354L184.34 204H182.36ZM197.314 193.704L195.686 204H193.706L195.334 193.704H197.314ZM197.292 187.61C198.04 187.61 198.568 188.226 198.436 188.996C198.326 189.744 197.6 190.338 196.852 190.338C196.104 190.338 195.598 189.744 195.708 188.996C195.84 188.226 196.544 187.61 197.292 187.61ZM202.46 193.704L202.24 195.09H202.284C203.076 193.99 204.396 193.396 205.65 193.396C208.554 193.396 208.994 195.354 208.598 197.862L207.63 204H205.65L206.574 198.104C206.86 196.344 206.816 195.156 204.792 195.156C202.24 195.156 201.888 197.4 201.58 199.27L200.832 204H198.852L200.48 193.704H202.46ZM218.486 184.904L218.178 186.906C217.804 186.73 217.342 186.488 216.924 186.488C215.516 186.488 215.23 188.27 215.076 189.282L214.372 193.704H217.1L216.814 195.552H214.086L212.744 204H210.764L212.106 195.552H211.204L211.49 193.704H212.392L213.184 188.688C213.536 186.444 214.592 184.64 217.144 184.64C217.628 184.64 218.09 184.728 218.486 184.904ZM222.675 193.396C225.755 193.396 227.801 195.772 227.317 198.874C226.833 201.976 224.017 204.352 220.937 204.352C217.857 204.352 215.833 201.976 216.317 198.874C216.801 195.772 219.595 193.396 222.675 193.396ZM222.389 195.288C220.431 195.288 218.605 196.916 218.296 198.874C217.989 200.81 219.287 202.46 221.245 202.46C223.203 202.46 225.029 200.81 225.337 198.874C225.645 196.916 224.347 195.288 222.389 195.288ZM232.047 193.704L231.783 195.376H231.849C232.531 194.166 233.653 193.396 234.973 193.396C235.545 193.396 236.095 193.594 236.535 193.902L235.347 195.706C235.039 195.398 234.665 195.288 234.203 195.288C232.069 195.288 231.475 197.268 231.211 198.94L230.419 204H228.439L230.067 193.704H232.047ZM239.734 193.704L239.536 195.002H239.58C240.284 194.1 241.428 193.396 242.55 193.396C243.892 193.396 244.75 194.078 245.234 195.222C246.048 194.122 247.39 193.396 248.688 193.396C251.394 193.396 251.768 195.508 251.394 197.84L250.426 204H248.446L249.37 198.17C249.568 196.85 249.678 195.156 247.94 195.156C245.828 195.156 245.322 197.356 245.058 198.94L244.266 204H242.286L243.144 198.544C243.364 197.202 243.628 195.156 241.802 195.156C239.69 195.156 239.162 197.334 238.898 198.94L238.106 204H236.126L237.754 193.704H239.734ZM257.721 202.592C259.877 202.592 261.329 200.876 261.659 198.852C261.967 196.85 261.043 195.156 258.909 195.156C256.863 195.156 255.367 196.938 255.059 198.852C254.751 200.788 255.631 202.592 257.721 202.592ZM264.343 193.704L262.715 204H260.735L260.999 202.394H260.955C259.965 203.56 258.601 204.352 257.127 204.352C253.981 204.352 252.617 201.734 253.101 198.786C253.541 195.97 255.807 193.396 258.799 193.396C260.317 193.396 261.439 194.188 262.055 195.42H262.099L262.363 193.704H264.343ZM268.89 195.552L267.548 204H265.568L266.91 195.552H265.832L266.118 193.704H267.196L267.812 189.766H269.792L269.176 193.704H271.112L270.826 195.552H268.89ZM274.637 193.704L273.009 204H271.029L272.657 193.704H274.637ZM274.615 187.61C275.363 187.61 275.891 188.226 275.759 188.996C275.649 189.744 274.923 190.338 274.175 190.338C273.427 190.338 272.921 189.744 273.031 188.996C273.163 188.226 273.867 187.61 274.615 187.61ZM282.423 193.396C285.503 193.396 287.549 195.772 287.065 198.874C286.581 201.976 283.765 204.352 280.685 204.352C277.605 204.352 275.581 201.976 276.065 198.874C276.549 195.772 279.343 193.396 282.423 193.396ZM282.137 195.288C280.179 195.288 278.353 196.916 278.045 198.874C277.737 200.81 279.035 202.46 280.993 202.46C282.951 202.46 284.777 200.81 285.085 198.874C285.393 196.916 284.095 195.288 282.137 195.288ZM291.663 193.704L291.443 195.09H291.487C292.279 193.99 293.599 193.396 294.853 193.396C297.757 193.396 298.197 195.354 297.801 197.862L296.833 204H294.853L295.777 198.104C296.063 196.344 296.019 195.156 293.995 195.156C291.443 195.156 291.091 197.4 290.783 199.27L290.035 204H288.055L289.683 193.704H291.663ZM313.058 195.2L311.32 196.058C311.166 195.552 310.726 195.156 310.154 195.156C309.604 195.156 309.01 195.596 308.9 196.168C308.768 197.07 309.89 197.466 311.012 198.016C312.134 198.566 313.19 199.314 312.926 200.942C312.618 202.9 310.748 204.352 308.834 204.352C307.338 204.352 305.974 203.494 305.644 202.042L307.47 201.272C307.756 202.042 308.174 202.592 309.12 202.592C309.956 202.592 310.77 202.02 310.924 201.14C311.012 200.59 310.77 200.326 310.374 200.018L308.592 198.984C307.558 198.368 306.81 197.796 307.03 196.388C307.294 194.716 308.856 193.396 310.528 193.396C311.782 193.396 312.684 194.078 313.058 195.2ZM324.186 199.182H316.332C316.068 200.942 316.992 202.592 318.884 202.592C320.402 202.592 321.348 201.822 322.294 200.59L323.812 201.536C322.558 203.318 320.578 204.352 318.576 204.352C315.43 204.352 313.912 201.976 314.374 198.94C314.88 195.772 316.948 193.396 320.27 193.396C323.548 193.396 324.714 195.816 324.23 198.874L324.186 199.182ZM316.662 197.686H322.426C322.448 196.146 321.59 195.112 320.006 195.112C318.466 195.112 317.146 196.212 316.662 197.686ZM332.244 195.2L330.506 196.058C330.352 195.552 329.912 195.156 329.34 195.156C328.79 195.156 328.196 195.596 328.086 196.168C327.954 197.07 329.076 197.466 330.198 198.016C331.32 198.566 332.376 199.314 332.112 200.942C331.804 202.9 329.934 204.352 328.02 204.352C326.524 204.352 325.16 203.494 324.83 202.042L326.656 201.272C326.942 202.042 327.36 202.592 328.306 202.592C329.142 202.592 329.956 202.02 330.11 201.14C330.198 200.59 329.956 200.326 329.56 200.018L327.778 198.984C326.744 198.368 325.996 197.796 326.216 196.388C326.48 194.716 328.042 193.396 329.714 193.396C330.968 193.396 331.87 194.078 332.244 195.2ZM340.687 195.2L338.949 196.058C338.795 195.552 338.355 195.156 337.783 195.156C337.233 195.156 336.639 195.596 336.529 196.168C336.397 197.07 337.519 197.466 338.641 198.016C339.763 198.566 340.819 199.314 340.555 200.942C340.247 202.9 338.377 204.352 336.463 204.352C334.967 204.352 333.603 203.494 333.273 202.042L335.099 201.272C335.385 202.042 335.803 202.592 336.749 202.592C337.585 202.592 338.399 202.02 338.553 201.14C338.641 200.59 338.399 200.326 338.003 200.018L336.221 198.984C335.187 198.368 334.439 197.796 334.659 196.388C334.923 194.716 336.485 193.396 338.157 193.396C339.411 193.396 340.313 194.078 340.687 195.2ZM346.051 193.704L344.423 204H342.443L344.071 193.704H346.051ZM346.029 187.61C346.777 187.61 347.305 188.226 347.173 188.996C347.063 189.744 346.337 190.338 345.589 190.338C344.841 190.338 344.335 189.744 344.445 188.996C344.577 188.226 345.281 187.61 346.029 187.61ZM353.837 193.396C356.917 193.396 358.963 195.772 358.479 198.874C357.995 201.976 355.179 204.352 352.099 204.352C349.019 204.352 346.995 201.976 347.479 198.874C347.963 195.772 350.757 193.396 353.837 193.396ZM353.551 195.288C351.593 195.288 349.767 196.916 349.459 198.874C349.151 200.81 350.449 202.46 352.407 202.46C354.365 202.46 356.191 200.81 356.499 198.874C356.807 196.916 355.509 195.288 353.551 195.288ZM363.077 193.704L362.857 195.09H362.901C363.693 193.99 365.013 193.396 366.267 193.396C369.171 193.396 369.611 195.354 369.215 197.862L368.247 204H366.267L367.191 198.104C367.477 196.344 367.433 195.156 365.409 195.156C362.857 195.156 362.505 197.4 362.197 199.27L361.449 204H359.469L361.097 193.704H363.077ZM378.113 195.2L376.375 196.058C376.221 195.552 375.781 195.156 375.209 195.156C374.659 195.156 374.065 195.596 373.955 196.168C373.823 197.07 374.945 197.466 376.067 198.016C377.189 198.566 378.245 199.314 377.981 200.942C377.673 202.9 375.803 204.352 373.889 204.352C372.393 204.352 371.029 203.494 370.699 202.042L372.525 201.272C372.811 202.042 373.229 202.592 374.175 202.592C375.011 202.592 375.825 202.02 375.979 201.14C376.067 200.59 375.825 200.326 375.429 200.018L373.647 198.984C372.613 198.368 371.865 197.796 372.085 196.388C372.349 194.716 373.911 193.396 375.583 193.396C376.837 193.396 377.739 194.078 378.113 195.2ZM388.802 184.904H390.782L389.176 195.09H389.22C390.012 193.99 391.332 193.396 392.586 193.396C395.49 193.396 395.93 195.354 395.534 197.862L394.566 204H392.586L393.51 198.104C393.796 196.344 393.752 195.156 391.728 195.156C389.176 195.156 388.824 197.4 388.516 199.27L387.768 204H385.788L388.802 184.904ZM403.551 193.396C406.631 193.396 408.677 195.772 408.193 198.874C407.709 201.976 404.893 204.352 401.813 204.352C398.733 204.352 396.709 201.976 397.193 198.874C397.677 195.772 400.471 193.396 403.551 193.396ZM403.265 195.288C401.307 195.288 399.481 196.916 399.173 198.874C398.865 200.81 400.163 202.46 402.121 202.46C404.079 202.46 405.905 200.81 406.213 198.874C406.521 196.916 405.223 195.288 403.265 195.288ZM416.312 195.2L414.574 196.058C414.42 195.552 413.98 195.156 413.408 195.156C412.858 195.156 412.264 195.596 412.154 196.168C412.022 197.07 413.144 197.466 414.266 198.016C415.388 198.566 416.444 199.314 416.18 200.942C415.872 202.9 414.002 204.352 412.088 204.352C410.592 204.352 409.228 203.494 408.898 202.042L410.724 201.272C411.01 202.042 411.428 202.592 412.374 202.592C413.21 202.592 414.024 202.02 414.178 201.14C414.266 200.59 414.024 200.326 413.628 200.018L411.846 198.984C410.812 198.368 410.064 197.796 410.284 196.388C410.548 194.716 412.11 193.396 413.782 193.396C415.036 193.396 415.938 194.078 416.312 195.2ZM421.236 195.552L419.894 204H417.914L419.256 195.552H418.178L418.464 193.704H419.542L420.158 189.766H422.138L421.522 193.704H423.458L423.172 195.552H421.236ZM432.725 199.182H424.871C424.607 200.942 425.531 202.592 427.423 202.592C428.941 202.592 429.887 201.822 430.833 200.59L432.351 201.536C431.097 203.318 429.117 204.352 427.115 204.352C423.969 204.352 422.451 201.976 422.913 198.94C423.419 195.772 425.487 193.396 428.809 193.396C432.087 193.396 433.253 195.816 432.769 198.874L432.725 199.182ZM425.201 197.686H430.965C430.987 196.146 430.129 195.112 428.545 195.112C427.005 195.112 425.685 196.212 425.201 197.686ZM438.319 202.592C440.475 202.592 441.927 200.876 442.257 198.852C442.565 196.85 441.641 195.156 439.507 195.156C437.461 195.156 435.965 196.938 435.657 198.852C435.349 200.788 436.229 202.592 438.319 202.592ZM441.333 204L441.597 202.394H441.553C440.563 203.56 439.177 204.352 437.725 204.352C434.557 204.352 433.215 201.734 433.699 198.786C434.139 195.97 436.405 193.396 439.375 193.396C440.915 193.396 442.037 194.188 442.653 195.42H442.697L444.347 184.904H446.327L443.313 204H441.333ZM457.431 202.592C459.587 202.592 461.039 200.876 461.369 198.852C461.677 196.85 460.753 195.156 458.619 195.156C456.573 195.156 455.077 196.938 454.769 198.852C454.461 200.788 455.341 202.592 457.431 202.592ZM452.085 204L455.099 184.904H457.079L455.429 195.42H455.473C456.485 194.188 457.827 193.396 459.367 193.396C462.337 193.396 463.811 195.97 463.371 198.786C462.887 201.734 460.709 204.352 457.541 204.352C456.089 204.352 454.967 203.56 454.373 202.394H454.329L454.065 204H452.085ZM467.808 202.24L464.442 193.704H466.752L469.194 200.238L473.462 193.704H475.684L464.794 209.896H462.55L467.808 202.24ZM136.176 225.182H128.322C128.058 226.942 128.982 228.592 130.874 228.592C132.392 228.592 133.338 227.822 134.284 226.59L135.802 227.536C134.548 229.318 132.568 230.352 130.566 230.352C127.42 230.352 125.902 227.976 126.364 224.94C126.87 221.772 128.938 219.396 132.26 219.396C135.538 219.396 136.704 221.816 136.22 224.874L136.176 225.182ZM128.652 223.686H134.416C134.438 222.146 133.58 221.112 131.996 221.112C130.456 221.112 129.136 222.212 128.652 223.686ZM140.648 219.704L140.45 221.002H140.494C141.198 220.1 142.342 219.396 143.464 219.396C144.806 219.396 145.664 220.078 146.148 221.222C146.962 220.122 148.304 219.396 149.602 219.396C152.308 219.396 152.682 221.508 152.308 223.84L151.34 230H149.36L150.284 224.17C150.482 222.85 150.592 221.156 148.854 221.156C146.742 221.156 146.236 223.356 145.972 224.94L145.18 230H143.2L144.058 224.544C144.278 223.202 144.542 221.156 142.716 221.156C140.604 221.156 140.076 223.334 139.812 224.94L139.02 230H137.04L138.668 219.704H140.648ZM159.163 228.592C161.319 228.592 162.771 226.876 163.101 224.852C163.409 222.85 162.485 221.156 160.351 221.156C158.305 221.156 156.809 222.938 156.501 224.852C156.193 226.788 157.073 228.592 159.163 228.592ZM157.425 219.704L157.161 221.42H157.205C158.217 220.188 159.559 219.396 161.099 219.396C164.069 219.396 165.543 221.97 165.103 224.786C164.619 227.734 162.441 230.352 159.273 230.352C157.821 230.352 156.699 229.56 156.105 228.394H156.061L154.873 235.896H152.893L155.445 219.704H157.425ZM171.278 210.904L168.264 230H166.284L169.298 210.904H171.278ZM177.321 219.396C180.401 219.396 182.447 221.772 181.963 224.874C181.479 227.976 178.663 230.352 175.583 230.352C172.503 230.352 170.479 227.976 170.963 224.874C171.447 221.772 174.241 219.396 177.321 219.396ZM177.035 221.288C175.077 221.288 173.251 222.916 172.943 224.874C172.635 226.81 173.933 228.46 175.891 228.46C177.849 228.46 179.675 226.81 179.983 224.874C180.291 222.916 178.993 221.288 177.035 221.288ZM186.298 228.24L182.932 219.704H185.242L187.684 226.238L191.952 219.704H194.174L183.284 235.896H181.04L186.298 228.24ZM203.422 225.182H195.568C195.304 226.942 196.228 228.592 198.12 228.592C199.638 228.592 200.584 227.822 201.53 226.59L203.048 227.536C201.794 229.318 199.814 230.352 197.812 230.352C194.666 230.352 193.148 227.976 193.61 224.94C194.116 221.772 196.184 219.396 199.506 219.396C202.784 219.396 203.95 221.816 203.466 224.874L203.422 225.182ZM195.898 223.686H201.662C201.684 222.146 200.826 221.112 199.242 221.112C197.702 221.112 196.382 222.212 195.898 223.686ZM208.092 219.704L207.828 221.376H207.894C208.576 220.166 209.698 219.396 211.018 219.396C211.59 219.396 212.14 219.594 212.58 219.902L211.392 221.706C211.084 221.398 210.71 221.288 210.248 221.288C208.114 221.288 207.52 223.268 207.256 224.94L206.464 230H204.484L206.112 219.704H208.092ZM219.193 221.2L217.455 222.058C217.301 221.552 216.861 221.156 216.289 221.156C215.739 221.156 215.145 221.596 215.035 222.168C214.903 223.07 216.025 223.466 217.147 224.016C218.269 224.566 219.325 225.314 219.061 226.942C218.753 228.9 216.883 230.352 214.969 230.352C213.473 230.352 212.109 229.494 211.779 228.042L213.605 227.272C213.891 228.042 214.309 228.592 215.255 228.592C216.091 228.592 216.905 228.02 217.059 227.14C217.147 226.59 216.905 226.326 216.509 226.018L214.727 224.984C213.693 224.368 212.945 223.796 213.165 222.388C213.429 220.716 214.991 219.396 216.663 219.396C217.917 219.396 218.819 220.078 219.193 221.2ZM230.476 221.552L229.134 230H227.154L228.496 221.552H227.418L227.704 219.704H228.782L229.398 215.766H231.378L230.762 219.704H232.698L232.412 221.552H230.476ZM238.401 219.396C241.481 219.396 243.527 221.772 243.043 224.874C242.559 227.976 239.743 230.352 236.663 230.352C233.583 230.352 231.559 227.976 232.043 224.874C232.527 221.772 235.321 219.396 238.401 219.396ZM238.115 221.288C236.157 221.288 234.331 222.916 234.023 224.874C233.715 226.81 235.013 228.46 236.971 228.46C238.929 228.46 240.755 226.81 241.063 224.874C241.371 222.916 240.073 221.288 238.115 221.288ZM255.475 210.904L252.461 230H250.481L253.495 210.904H255.475ZM265.082 225.182H257.228C256.964 226.942 257.888 228.592 259.78 228.592C261.298 228.592 262.244 227.822 263.19 226.59L264.708 227.536C263.454 229.318 261.474 230.352 259.472 230.352C256.326 230.352 254.808 227.976 255.27 224.94C255.776 221.772 257.844 219.396 261.166 219.396C264.444 219.396 265.61 221.816 265.126 224.874L265.082 225.182ZM257.558 223.686H263.322C263.344 222.146 262.486 221.112 260.902 221.112C259.362 221.112 258.042 222.212 257.558 223.686ZM270.676 228.592C272.832 228.592 274.284 226.876 274.614 224.852C274.922 222.85 273.998 221.156 271.864 221.156C269.818 221.156 268.322 222.938 268.014 224.852C267.706 226.788 268.586 228.592 270.676 228.592ZM277.298 219.704L275.67 230H273.69L273.954 228.394H273.91C272.92 229.56 271.556 230.352 270.082 230.352C266.936 230.352 265.572 227.734 266.056 224.786C266.496 221.97 268.762 219.396 271.754 219.396C273.272 219.396 274.394 220.188 275.01 221.42H275.054L275.318 219.704H277.298ZM281.977 219.704L281.713 221.376H281.779C282.461 220.166 283.583 219.396 284.903 219.396C285.475 219.396 286.025 219.594 286.465 219.902L285.277 221.706C284.969 221.398 284.595 221.288 284.133 221.288C281.999 221.288 281.405 223.268 281.141 224.94L280.349 230H278.369L279.997 219.704H281.977ZM289.73 219.704L289.51 221.09H289.554C290.346 219.99 291.666 219.396 292.92 219.396C295.824 219.396 296.264 221.354 295.868 223.862L294.9 230H292.92L293.844 224.104C294.13 222.344 294.086 221.156 292.062 221.156C289.51 221.156 289.158 223.4 288.85 225.27L288.102 230H286.122L287.75 219.704H289.73ZM307.539 219.704L307.341 221.002H307.385C308.089 220.1 309.233 219.396 310.355 219.396C311.697 219.396 312.555 220.078 313.039 221.222C313.853 220.122 315.195 219.396 316.493 219.396C319.199 219.396 319.573 221.508 319.199 223.84L318.231 230H316.251L317.175 224.17C317.373 222.85 317.483 221.156 315.745 221.156C313.633 221.156 313.127 223.356 312.863 224.94L312.071 230H310.091L310.949 224.544C311.169 223.202 311.433 221.156 309.607 221.156C307.495 221.156 306.967 223.334 306.703 224.94L305.911 230H303.931L305.559 219.704H307.539ZM327.11 219.396C330.19 219.396 332.236 221.772 331.752 224.874C331.268 227.976 328.452 230.352 325.372 230.352C322.292 230.352 320.268 227.976 320.752 224.874C321.236 221.772 324.03 219.396 327.11 219.396ZM326.824 221.288C324.866 221.288 323.04 222.916 322.732 224.874C322.424 226.81 323.722 228.46 325.68 228.46C327.638 228.46 329.464 226.81 329.772 224.874C330.08 222.916 328.782 221.288 326.824 221.288ZM336.483 219.704L336.219 221.376H336.285C336.967 220.166 338.089 219.396 339.409 219.396C339.981 219.396 340.531 219.594 340.971 219.902L339.783 221.706C339.475 221.398 339.101 221.288 338.639 221.288C336.505 221.288 335.911 223.268 335.647 224.94L334.855 230H332.875L334.503 219.704H336.483ZM349.881 225.182H342.027C341.763 226.942 342.687 228.592 344.579 228.592C346.097 228.592 347.043 227.822 347.989 226.59L349.507 227.536C348.253 229.318 346.273 230.352 344.271 230.352C341.125 230.352 339.607 227.976 340.069 224.94C340.575 221.772 342.643 219.396 345.965 219.396C349.243 219.396 350.409 221.816 349.925 224.874L349.881 225.182ZM342.357 223.686H348.121C348.143 222.146 347.285 221.112 345.701 221.112C344.161 221.112 342.841 222.212 342.357 223.686ZM361.835 228.592C363.991 228.592 365.443 226.876 365.773 224.852C366.081 222.85 365.157 221.156 363.023 221.156C360.977 221.156 359.481 222.938 359.173 224.852C358.865 226.788 359.745 228.592 361.835 228.592ZM368.457 219.704L366.829 230H364.849L365.113 228.394H365.069C364.079 229.56 362.715 230.352 361.241 230.352C358.095 230.352 356.731 227.734 357.215 224.786C357.655 221.97 359.921 219.396 362.913 219.396C364.431 219.396 365.553 220.188 366.169 221.42H366.213L366.477 219.704H368.457ZM374.587 228.592C376.743 228.592 378.195 226.876 378.525 224.852C378.833 222.85 377.909 221.156 375.775 221.156C373.729 221.156 372.233 222.938 371.925 224.852C371.617 226.788 372.497 228.592 374.587 228.592ZM369.241 230L372.255 210.904H374.235L372.585 221.42H372.629C373.641 220.188 374.983 219.396 376.523 219.396C379.493 219.396 380.967 221.97 380.527 224.786C380.043 227.734 377.865 230.352 374.697 230.352C373.245 230.352 372.123 229.56 371.529 228.394H371.485L371.221 230H369.241ZM387.868 219.396C390.948 219.396 392.994 221.772 392.51 224.874C392.026 227.976 389.21 230.352 386.13 230.352C383.05 230.352 381.026 227.976 381.51 224.874C381.994 221.772 384.788 219.396 387.868 219.396ZM387.582 221.288C385.624 221.288 383.798 222.916 383.49 224.874C383.182 226.81 384.48 228.46 386.438 228.46C388.396 228.46 390.222 226.81 390.53 224.874C390.838 222.916 389.54 221.288 387.582 221.288ZM395.041 219.704H397.021L396.119 225.402C395.855 227.052 396.053 228.504 398.011 228.504C399.969 228.504 400.607 227.052 400.871 225.402L401.773 219.704H403.753L402.829 225.622C402.367 228.438 400.739 230.352 397.703 230.352C394.667 230.352 393.655 228.438 394.117 225.622L395.041 219.704ZM408.367 221.552L407.025 230H405.045L406.387 221.552H405.309L405.595 219.704H406.673L407.289 215.766H409.269L408.653 219.704H410.589L410.303 221.552H408.367ZM420.011 221.552L418.669 230H416.689L418.031 221.552H416.953L417.239 219.704H418.317L418.933 215.766H420.913L420.297 219.704H422.233L421.947 221.552H420.011ZM424.724 210.904H426.704L425.098 221.09H425.142C425.934 219.99 427.254 219.396 428.508 219.396C431.412 219.396 431.852 221.354 431.456 223.862L430.488 230H428.508L429.432 224.104C429.718 222.344 429.674 221.156 427.65 221.156C425.098 221.156 424.746 223.4 424.438 225.27L423.69 230H421.71L424.724 210.904ZM443.037 225.182H435.183C434.919 226.942 435.843 228.592 437.735 228.592C439.253 228.592 440.199 227.822 441.145 226.59L442.663 227.536C441.409 229.318 439.429 230.352 437.427 230.352C434.281 230.352 432.763 227.976 433.225 224.94C433.731 221.772 435.799 219.396 439.121 219.396C442.399 219.396 443.565 221.816 443.081 224.874L443.037 225.182ZM435.513 223.686H441.277C441.299 222.146 440.441 221.112 438.857 221.112C437.317 221.112 435.997 222.212 435.513 223.686ZM448.016 219.704L446.388 230H444.408L446.036 219.704H448.016ZM447.994 213.61C448.742 213.61 449.27 214.226 449.138 214.996C449.028 215.744 448.302 216.338 447.554 216.338C446.806 216.338 446.3 215.744 446.41 214.996C446.542 214.226 447.246 213.61 447.994 213.61ZM453.293 219.704L453.029 221.376H453.095C453.777 220.166 454.899 219.396 456.219 219.396C456.791 219.396 457.341 219.594 457.781 219.902L456.593 221.706C456.285 221.398 455.911 221.288 455.449 221.288C453.315 221.288 452.721 223.268 452.457 224.94L451.665 230H449.685L451.313 219.704H453.293ZM132.612 245.396C135.692 245.396 137.738 247.772 137.254 250.874C136.77 253.976 133.954 256.352 130.874 256.352C127.794 256.352 125.77 253.976 126.254 250.874C126.738 247.772 129.532 245.396 132.612 245.396ZM132.326 247.288C130.368 247.288 128.542 248.916 128.234 250.874C127.926 252.81 129.224 254.46 131.182 254.46C133.14 254.46 134.966 252.81 135.274 250.874C135.582 248.916 134.284 247.288 132.326 247.288ZM141.985 245.704L141.721 247.376H141.787C142.469 246.166 143.591 245.396 144.911 245.396C145.483 245.396 146.033 245.594 146.473 245.902L145.285 247.706C144.977 247.398 144.603 247.288 144.141 247.288C142.007 247.288 141.413 249.268 141.149 250.94L140.357 256H138.377L140.005 245.704H141.985ZM150.213 254.592C152.369 254.592 153.821 252.876 154.151 250.852C154.459 248.85 153.535 247.156 151.401 247.156C149.355 247.156 147.859 248.938 147.551 250.852C147.243 252.788 148.123 254.592 150.213 254.592ZM156.835 245.704L155.229 255.802C154.679 259.344 153.271 261.896 149.267 261.896C146.407 261.896 144.603 260.136 145.021 257.232H147.001C146.715 259.08 147.815 260.136 149.619 260.136C152.061 260.136 152.831 258.464 153.161 256.352L153.491 254.394H153.447C152.457 255.56 151.071 256.352 149.619 256.352C146.451 256.352 145.109 253.734 145.593 250.786C146.033 247.97 148.299 245.396 151.269 245.396C152.809 245.396 153.931 246.188 154.525 247.464H154.569L154.855 245.704H156.835ZM162.438 254.592C164.594 254.592 166.046 252.876 166.376 250.852C166.684 248.85 165.76 247.156 163.626 247.156C161.58 247.156 160.084 248.938 159.776 250.852C159.468 252.788 160.348 254.592 162.438 254.592ZM169.06 245.704L167.432 256H165.452L165.716 254.394H165.672C164.682 255.56 163.318 256.352 161.844 256.352C158.698 256.352 157.334 253.734 157.818 250.786C158.258 247.97 160.524 245.396 163.516 245.396C165.034 245.396 166.156 246.188 166.772 247.42H166.816L167.08 245.704H169.06ZM173.607 245.704L173.387 247.09H173.431C174.223 245.99 175.543 245.396 176.797 245.396C179.701 245.396 180.141 247.354 179.745 249.862L178.777 256H176.797L177.721 250.104C178.007 248.344 177.963 247.156 175.939 247.156C173.387 247.156 173.035 249.4 172.727 251.27L171.979 256H169.999L171.627 245.704H173.607ZM185.562 245.704L183.934 256H181.954L183.582 245.704H185.562ZM185.54 239.61C186.288 239.61 186.816 240.226 186.684 240.996C186.574 241.744 185.848 242.338 185.1 242.338C184.352 242.338 183.846 241.744 183.956 240.996C184.088 240.226 184.792 239.61 185.54 239.61ZM189.916 254.152H196.604L196.318 256H185.78L194.096 247.552H188.31L188.596 245.704H198.232L189.916 254.152ZM202.657 254.592C204.813 254.592 206.265 252.876 206.595 250.852C206.903 248.85 205.979 247.156 203.845 247.156C201.799 247.156 200.303 248.938 199.995 250.852C199.687 252.788 200.567 254.592 202.657 254.592ZM209.279 245.704L207.651 256H205.671L205.935 254.394H205.891C204.901 255.56 203.537 256.352 202.063 256.352C198.917 256.352 197.553 253.734 198.037 250.786C198.477 247.97 200.743 245.396 203.735 245.396C205.253 245.396 206.375 246.188 206.991 247.42H207.035L207.299 245.704H209.279ZM213.826 247.552L212.484 256H210.504L211.846 247.552H210.768L211.054 245.704H212.132L212.748 241.766H214.728L214.112 245.704H216.048L215.762 247.552H213.826ZM219.572 245.704L217.944 256H215.964L217.592 245.704H219.572ZM219.55 239.61C220.298 239.61 220.826 240.226 220.694 240.996C220.584 241.744 219.858 242.338 219.11 242.338C218.362 242.338 217.856 241.744 217.966 240.996C218.098 240.226 218.802 239.61 219.55 239.61ZM227.358 245.396C230.438 245.396 232.484 247.772 232 250.874C231.516 253.976 228.7 256.352 225.62 256.352C222.54 256.352 220.516 253.976 221 250.874C221.484 247.772 224.278 245.396 227.358 245.396ZM227.072 247.288C225.114 247.288 223.288 248.916 222.98 250.874C222.672 252.81 223.97 254.46 225.928 254.46C227.886 254.46 229.712 252.81 230.02 250.874C230.328 248.916 229.03 247.288 227.072 247.288ZM236.599 245.704L236.379 247.09H236.423C237.215 245.99 238.535 245.396 239.789 245.396C242.693 245.396 243.133 247.354 242.737 249.862L241.769 256H239.789L240.713 250.104C240.999 248.344 240.955 247.156 238.931 247.156C236.379 247.156 236.027 249.4 235.719 251.27L234.971 256H232.991L234.619 245.704H236.599ZM251.635 247.2L249.897 248.058C249.743 247.552 249.303 247.156 248.731 247.156C248.181 247.156 247.587 247.596 247.477 248.168C247.345 249.07 248.467 249.466 249.589 250.016C250.711 250.566 251.767 251.314 251.503 252.942C251.195 254.9 249.325 256.352 247.411 256.352C245.915 256.352 244.551 255.494 244.221 254.042L246.047 253.272C246.333 254.042 246.751 254.592 247.697 254.592C248.533 254.592 249.347 254.02 249.501 253.14C249.589 252.59 249.347 252.326 248.951 252.018L247.169 250.984C246.135 250.368 245.387 249.796 245.607 248.388C245.871 246.716 247.433 245.396 249.105 245.396C250.359 245.396 251.261 246.078 251.635 247.2ZM263.973 254.592C266.129 254.592 267.581 252.876 267.911 250.852C268.219 248.85 267.295 247.156 265.161 247.156C263.115 247.156 261.619 248.938 261.311 250.852C261.003 252.788 261.883 254.592 263.973 254.592ZM270.595 245.704L268.967 256H266.987L267.251 254.394H267.207C266.217 255.56 264.853 256.352 263.379 256.352C260.233 256.352 258.869 253.734 259.353 250.786C259.793 247.97 262.059 245.396 265.051 245.396C266.569 245.396 267.691 246.188 268.307 247.42H268.351L268.615 245.704H270.595ZM275.142 245.704L274.922 247.09H274.966C275.758 245.99 277.078 245.396 278.332 245.396C281.236 245.396 281.676 247.354 281.28 249.862L280.312 256H278.332L279.256 250.104C279.542 248.344 279.498 247.156 277.474 247.156C274.922 247.156 274.57 249.4 274.262 251.27L273.514 256H271.534L273.162 245.704H275.142ZM287.714 254.592C289.87 254.592 291.322 252.876 291.652 250.852C291.96 248.85 291.036 247.156 288.902 247.156C286.856 247.156 285.36 248.938 285.052 250.852C284.744 252.788 285.624 254.592 287.714 254.592ZM290.728 256L290.992 254.394H290.948C289.958 255.56 288.572 256.352 287.12 256.352C283.952 256.352 282.61 253.734 283.094 250.786C283.534 247.97 285.8 245.396 288.77 245.396C290.31 245.396 291.432 246.188 292.048 247.42H292.092L293.742 236.904H295.722L292.708 256H290.728ZM306.298 254.592C308.454 254.592 309.906 252.876 310.236 250.852C310.544 248.85 309.62 247.156 307.486 247.156C305.44 247.156 303.944 248.938 303.636 250.852C303.328 252.788 304.208 254.592 306.298 254.592ZM312.92 245.704L311.292 256H309.312L309.576 254.394H309.532C308.542 255.56 307.178 256.352 305.704 256.352C302.558 256.352 301.194 253.734 301.678 250.786C302.118 247.97 304.384 245.396 307.376 245.396C308.894 245.396 310.016 246.188 310.632 247.42H310.676L310.94 245.704H312.92ZM316.058 245.704L317.994 252.128L321.976 245.704H324.198L317.312 256.352L313.836 245.704H316.058ZM328.319 254.592C330.475 254.592 331.927 252.876 332.257 250.852C332.565 248.85 331.641 247.156 329.507 247.156C327.461 247.156 325.965 248.938 325.657 250.852C325.349 252.788 326.229 254.592 328.319 254.592ZM334.941 245.704L333.313 256H331.333L331.597 254.394H331.553C330.563 255.56 329.199 256.352 327.725 256.352C324.579 256.352 323.215 253.734 323.699 250.786C324.139 247.97 326.405 245.396 329.397 245.396C330.915 245.396 332.037 246.188 332.653 247.42H332.697L332.961 245.704H334.941ZM339.928 245.704L338.3 256H336.32L337.948 245.704H339.928ZM339.906 239.61C340.654 239.61 341.182 240.226 341.05 240.996C340.94 241.744 340.214 242.338 339.466 242.338C338.718 242.338 338.212 241.744 338.322 240.996C338.454 240.226 339.158 239.61 339.906 239.61ZM346.548 236.904L343.534 256H341.554L344.568 236.904H346.548ZM351.007 254.592C353.163 254.592 354.615 252.876 354.945 250.852C355.253 248.85 354.329 247.156 352.195 247.156C350.149 247.156 348.653 248.938 348.345 250.852C348.037 252.788 348.917 254.592 351.007 254.592ZM357.629 245.704L356.001 256H354.021L354.285 254.394H354.241C353.251 255.56 351.887 256.352 350.413 256.352C347.267 256.352 345.903 253.734 346.387 250.786C346.827 247.97 349.093 245.396 352.085 245.396C353.603 245.396 354.725 246.188 355.341 247.42H355.385L355.649 245.704H357.629ZM363.759 254.592C365.915 254.592 367.367 252.876 367.697 250.852C368.005 248.85 367.081 247.156 364.947 247.156C362.901 247.156 361.405 248.938 361.097 250.852C360.789 252.788 361.669 254.592 363.759 254.592ZM358.413 256L361.427 236.904H363.407L361.757 247.42H361.801C362.813 246.188 364.155 245.396 365.695 245.396C368.665 245.396 370.139 247.97 369.699 250.786C369.215 253.734 367.037 256.352 363.869 256.352C362.417 256.352 361.295 255.56 360.701 254.394H360.657L360.393 256H358.413ZM375.874 236.904L372.86 256H370.88L373.894 236.904H375.874ZM385.481 251.182H377.627C377.363 252.942 378.287 254.592 380.179 254.592C381.697 254.592 382.643 253.822 383.589 252.59L385.107 253.536C383.853 255.318 381.873 256.352 379.871 256.352C376.725 256.352 375.207 253.976 375.669 250.94C376.175 247.772 378.243 245.396 381.565 245.396C384.843 245.396 386.009 247.816 385.525 250.874L385.481 251.182ZM377.957 249.686H383.721C383.743 248.146 382.885 247.112 381.301 247.112C379.761 247.112 378.441 248.212 377.957 249.686ZM396.51 245.704L396.246 247.376H396.312C396.994 246.166 398.116 245.396 399.436 245.396C400.008 245.396 400.558 245.594 400.998 245.902L399.81 247.706C399.502 247.398 399.128 247.288 398.666 247.288C396.532 247.288 395.938 249.268 395.674 250.94L394.882 256H392.902L394.53 245.704H396.51ZM406.344 245.396C409.424 245.396 411.47 247.772 410.986 250.874C410.502 253.976 407.686 256.352 404.606 256.352C401.526 256.352 399.502 253.976 399.986 250.874C400.47 247.772 403.264 245.396 406.344 245.396ZM406.058 247.288C404.1 247.288 402.274 248.916 401.966 250.874C401.658 252.81 402.956 254.46 404.914 254.46C406.872 254.46 408.698 252.81 409.006 250.874C409.314 248.916 408.016 247.288 406.058 247.288ZM417.059 236.904L414.045 256H412.065L415.079 236.904H417.059ZM426.666 251.182H418.812C418.548 252.942 419.472 254.592 421.364 254.592C422.882 254.592 423.828 253.822 424.774 252.59L426.292 253.536C425.038 255.318 423.058 256.352 421.056 256.352C417.91 256.352 416.392 253.976 416.854 250.94C417.36 247.772 419.428 245.396 422.75 245.396C426.028 245.396 427.194 247.816 426.71 250.874L426.666 251.182ZM419.142 249.686H424.906C424.928 248.146 424.07 247.112 422.486 247.112C420.946 247.112 419.626 248.212 419.142 249.686ZM434.724 247.2L432.986 248.058C432.832 247.552 432.392 247.156 431.82 247.156C431.27 247.156 430.676 247.596 430.566 248.168C430.434 249.07 431.556 249.466 432.678 250.016C433.8 250.566 434.856 251.314 434.592 252.942C434.284 254.9 432.414 256.352 430.5 256.352C429.004 256.352 427.64 255.494 427.31 254.042L429.136 253.272C429.422 254.042 429.84 254.592 430.786 254.592C431.622 254.592 432.436 254.02 432.59 253.14C432.678 252.59 432.436 252.326 432.04 252.018L430.258 250.984C429.224 250.368 428.476 249.796 428.696 248.388C428.96 246.716 430.522 245.396 432.194 245.396C433.448 245.396 434.35 246.078 434.724 247.2ZM438.218 253.8C438.922 253.8 439.406 254.394 439.296 255.076C439.186 255.78 438.504 256.352 437.8 256.352C437.096 256.352 436.634 255.78 436.744 255.076C436.854 254.394 437.514 253.8 438.218 253.8Z" fill="#093761"/>
<g clip-path="url(#clip1_407_2484)">
<path d="M103.417 99L70.6469 86.5L69.3748 87.6833L74.7498 99L69.3748 110.317L70.6469 111.5L103.417 99Z" fill="#0E3D68"/>
</g>
<path d="M130.808 84.26L129.95 89.76H130.478C132.436 89.76 134.086 89.364 134.46 86.988C134.834 84.656 133.316 84.26 131.38 84.26H130.808ZM129.686 91.41L128.762 97.152H130.346C132.26 97.152 134.35 96.58 134.724 94.226C135.098 91.894 132.81 91.41 130.962 91.41H129.686ZM126.408 99L129.026 82.412H131.05C134.174 82.412 137.012 83.226 136.418 86.966C136.22 88.176 135.34 89.584 134.13 90.112V90.156C136.022 90.508 137.078 92.422 136.77 94.358C136.264 97.68 133.206 99 130.28 99H126.408ZM147.949 94.182H140.095C139.831 95.942 140.755 97.592 142.647 97.592C144.165 97.592 145.111 96.822 146.057 95.59L147.575 96.536C146.321 98.318 144.341 99.352 142.339 99.352C139.193 99.352 137.675 96.976 138.137 93.94C138.643 90.772 140.711 88.396 144.033 88.396C147.311 88.396 148.477 90.816 147.993 93.874L147.949 94.182ZM140.425 92.686H146.189C146.211 91.146 145.353 90.112 143.769 90.112C142.229 90.112 140.909 91.212 140.425 92.686ZM152.488 88.704L152.268 90.09H152.312C153.104 88.99 154.424 88.396 155.678 88.396C158.582 88.396 159.022 90.354 158.626 92.862L157.658 99H155.678L156.602 93.104C156.888 91.344 156.844 90.156 154.82 90.156C152.268 90.156 151.916 92.4 151.608 94.27L150.86 99H148.88L150.508 88.704H152.488ZM170.207 94.182H162.353C162.089 95.942 163.013 97.592 164.905 97.592C166.423 97.592 167.369 96.822 168.315 95.59L169.833 96.536C168.579 98.318 166.599 99.352 164.597 99.352C161.451 99.352 159.933 96.976 160.395 93.94C160.901 90.772 162.969 88.396 166.291 88.396C169.569 88.396 170.735 90.816 170.251 93.874L170.207 94.182ZM162.683 92.686H168.447C168.469 91.146 167.611 90.112 166.027 90.112C164.487 90.112 163.167 91.212 162.683 92.686ZM180.861 88.704L179.233 99H177.253L178.881 88.704H180.861ZM180.839 82.61C181.587 82.61 182.115 83.226 181.983 83.996C181.873 84.744 181.147 85.338 180.399 85.338C179.651 85.338 179.145 84.744 179.255 83.996C179.387 83.226 180.091 82.61 180.839 82.61ZM179.255 79.904L178.947 81.906C178.573 81.73 178.111 81.488 177.693 81.488C176.285 81.488 175.999 83.27 175.845 84.282L175.141 88.704H177.869L177.583 90.552H174.855L173.513 99H171.533L172.875 90.552H171.973L172.259 88.704H173.161L173.953 83.688C174.305 81.444 175.361 79.64 177.913 79.64C178.397 79.64 178.859 79.728 179.255 79.904ZM186.003 90.552L184.661 99H182.681L184.023 90.552H182.945L183.231 88.704H184.309L184.925 84.766H186.905L186.289 88.704H188.225L187.939 90.552H186.003ZM202.158 79.904L201.85 81.906C201.476 81.73 201.014 81.488 200.596 81.488C199.188 81.488 198.902 83.27 198.748 84.282L198.044 88.704H200.772L200.486 90.552H197.758L196.416 99H194.436L195.778 90.552H194.876L195.162 88.704H196.064L196.856 83.688C197.208 81.444 198.264 79.64 200.816 79.64C201.3 79.64 201.762 79.728 202.158 79.904ZM203.838 88.704L203.574 90.376H203.64C204.322 89.166 205.444 88.396 206.764 88.396C207.336 88.396 207.886 88.594 208.326 88.902L207.138 90.706C206.83 90.398 206.456 90.288 205.994 90.288C203.86 90.288 203.266 92.268 203.002 93.94L202.21 99H200.23L201.858 88.704H203.838ZM213.673 88.396C216.753 88.396 218.799 90.772 218.315 93.874C217.831 96.976 215.015 99.352 211.935 99.352C208.855 99.352 206.831 96.976 207.315 93.874C207.799 90.772 210.593 88.396 213.673 88.396ZM213.387 90.288C211.429 90.288 209.603 91.916 209.295 93.874C208.987 95.81 210.285 97.46 212.243 97.46C214.201 97.46 216.027 95.81 216.335 93.874C216.643 91.916 215.345 90.288 213.387 90.288ZM222.847 88.704L222.649 90.002H222.693C223.397 89.1 224.541 88.396 225.663 88.396C227.005 88.396 227.863 89.078 228.347 90.222C229.161 89.122 230.503 88.396 231.801 88.396C234.507 88.396 234.881 90.508 234.507 92.84L233.539 99H231.559L232.483 93.17C232.681 91.85 232.791 90.156 231.053 90.156C228.941 90.156 228.435 92.356 228.171 93.94L227.379 99H225.399L226.257 93.544C226.477 92.202 226.741 90.156 224.915 90.156C222.803 90.156 222.275 92.334 222.011 93.94L221.219 99H219.239L220.867 88.704H222.847ZM248.649 88.396C251.729 88.396 253.775 90.772 253.291 93.874C252.807 96.976 249.991 99.352 246.911 99.352C243.831 99.352 241.807 96.976 242.291 93.874C242.775 90.772 245.569 88.396 248.649 88.396ZM248.363 90.288C246.405 90.288 244.579 91.916 244.271 93.874C243.963 95.81 245.261 97.46 247.219 97.46C249.177 97.46 251.003 95.81 251.311 93.874C251.619 91.916 250.321 90.288 248.363 90.288ZM255.822 88.704H257.802L256.9 94.402C256.636 96.052 256.834 97.504 258.792 97.504C260.75 97.504 261.388 96.052 261.652 94.402L262.554 88.704H264.534L263.61 94.622C263.148 97.438 261.52 99.352 258.484 99.352C255.448 99.352 254.436 97.438 254.898 94.622L255.822 88.704ZM269.28 88.704L269.016 90.376H269.082C269.764 89.166 270.886 88.396 272.206 88.396C272.778 88.396 273.328 88.594 273.768 88.902L272.58 90.706C272.272 90.398 271.898 90.288 271.436 90.288C269.302 90.288 268.708 92.268 268.444 93.94L267.652 99H265.672L267.3 88.704H269.28ZM284.276 97.592C286.432 97.592 287.884 95.876 288.214 93.852C288.522 91.85 287.598 90.156 285.464 90.156C283.418 90.156 281.922 91.938 281.614 93.852C281.306 95.788 282.186 97.592 284.276 97.592ZM287.29 99L287.554 97.394H287.51C286.52 98.56 285.134 99.352 283.682 99.352C280.514 99.352 279.172 96.734 279.656 93.786C280.096 90.97 282.362 88.396 285.332 88.396C286.872 88.396 287.994 89.188 288.61 90.42H288.654L290.304 79.904H292.284L289.27 99H287.29ZM295.906 88.704L294.278 99H292.298L293.926 88.704H295.906ZM295.884 82.61C296.632 82.61 297.16 83.226 297.028 83.996C296.918 84.744 296.192 85.338 295.444 85.338C294.696 85.338 294.19 84.744 294.3 83.996C294.432 83.226 295.136 82.61 295.884 82.61ZM301.184 88.704L300.92 90.376H300.986C301.668 89.166 302.79 88.396 304.11 88.396C304.682 88.396 305.232 88.594 305.672 88.902L304.484 90.706C304.176 90.398 303.802 90.288 303.34 90.288C301.206 90.288 300.612 92.268 300.348 93.94L299.556 99H297.576L299.204 88.704H301.184ZM314.582 94.182H306.728C306.464 95.942 307.388 97.592 309.28 97.592C310.798 97.592 311.744 96.822 312.69 95.59L314.208 96.536C312.954 98.318 310.974 99.352 308.972 99.352C305.826 99.352 304.308 96.976 304.77 93.94C305.276 90.772 307.344 88.396 310.666 88.396C313.944 88.396 315.11 90.816 314.626 93.874L314.582 94.182ZM307.058 92.686H312.822C312.844 91.146 311.986 90.112 310.402 90.112C308.862 90.112 307.542 91.212 307.058 92.686ZM324.642 89.078L324.246 91.63C323.608 90.728 322.706 90.244 321.518 90.244C319.582 90.244 317.822 91.96 317.514 93.852C317.184 95.964 318.416 97.504 320.506 97.504C321.65 97.504 322.662 96.976 323.542 96.14L323.124 98.67C322.156 99.154 321.21 99.352 320.176 99.352C317.14 99.352 315.028 97.02 315.512 93.94C316.018 90.75 318.856 88.396 322.024 88.396C322.948 88.396 323.938 88.616 324.642 89.078ZM328.831 90.552L327.489 99H325.509L326.851 90.552H325.773L326.059 88.704H327.137L327.753 84.766H329.733L329.117 88.704H331.053L330.767 90.552H328.831ZM345.998 89.078L345.602 91.63C344.964 90.728 344.062 90.244 342.874 90.244C340.938 90.244 339.178 91.96 338.87 93.852C338.54 95.964 339.772 97.504 341.862 97.504C343.006 97.504 344.018 96.976 344.898 96.14L344.48 98.67C343.512 99.154 342.566 99.352 341.532 99.352C338.496 99.352 336.384 97.02 336.868 93.94C337.374 90.75 340.212 88.396 343.38 88.396C344.304 88.396 345.294 88.616 345.998 89.078ZM352.569 88.396C355.649 88.396 357.695 90.772 357.211 93.874C356.727 96.976 353.911 99.352 350.831 99.352C347.751 99.352 345.727 96.976 346.211 93.874C346.695 90.772 349.489 88.396 352.569 88.396ZM352.283 90.288C350.325 90.288 348.499 91.916 348.191 93.874C347.883 95.81 349.181 97.46 351.139 97.46C353.097 97.46 354.923 95.81 355.231 93.874C355.539 91.916 354.241 90.288 352.283 90.288ZM361.81 88.704L361.59 90.09H361.634C362.426 88.99 363.746 88.396 365 88.396C367.904 88.396 368.344 90.354 367.948 92.862L366.98 99H365L365.924 93.104C366.21 91.344 366.166 90.156 364.142 90.156C361.59 90.156 361.238 92.4 360.93 94.27L360.182 99H358.202L359.83 88.704H361.81ZM373.326 88.704L373.106 90.09H373.15C373.942 88.99 375.262 88.396 376.516 88.396C379.42 88.396 379.86 90.354 379.464 92.862L378.496 99H376.516L377.44 93.104C377.726 91.344 377.682 90.156 375.658 90.156C373.106 90.156 372.754 92.4 372.446 94.27L371.698 99H369.718L371.346 88.704H373.326ZM391.045 94.182H383.191C382.927 95.942 383.851 97.592 385.743 97.592C387.261 97.592 388.207 96.822 389.153 95.59L390.671 96.536C389.417 98.318 387.437 99.352 385.435 99.352C382.289 99.352 380.771 96.976 381.233 93.94C381.739 90.772 383.807 88.396 387.129 88.396C390.407 88.396 391.573 90.816 391.089 93.874L391.045 94.182ZM383.521 92.686H389.285C389.307 91.146 388.449 90.112 386.865 90.112C385.325 90.112 384.005 91.212 383.521 92.686ZM401.105 89.078L400.709 91.63C400.071 90.728 399.169 90.244 397.981 90.244C396.045 90.244 394.285 91.96 393.977 93.852C393.647 95.964 394.879 97.504 396.969 97.504C398.113 97.504 399.125 96.976 400.005 96.14L399.587 98.67C398.619 99.154 397.673 99.352 396.639 99.352C393.603 99.352 391.491 97.02 391.975 93.94C392.481 90.75 395.319 88.396 398.487 88.396C399.411 88.396 400.401 88.616 401.105 89.078ZM405.294 90.552L403.952 99H401.972L403.314 90.552H402.236L402.522 88.704H403.6L404.216 84.766H406.196L405.58 88.704H407.516L407.23 90.552H405.294ZM411.041 88.704L409.413 99H407.433L409.061 88.704H411.041ZM411.019 82.61C411.767 82.61 412.295 83.226 412.163 83.996C412.053 84.744 411.327 85.338 410.579 85.338C409.831 85.338 409.325 84.744 409.435 83.996C409.567 83.226 410.271 82.61 411.019 82.61ZM418.827 88.396C421.907 88.396 423.953 90.772 423.469 93.874C422.985 96.976 420.169 99.352 417.089 99.352C414.009 99.352 411.985 96.976 412.469 93.874C412.953 90.772 415.747 88.396 418.827 88.396ZM418.541 90.288C416.583 90.288 414.757 91.916 414.449 93.874C414.141 95.81 415.439 97.46 417.397 97.46C419.355 97.46 421.181 95.81 421.489 93.874C421.797 91.916 420.499 90.288 418.541 90.288ZM428.068 88.704L427.848 90.09H427.892C428.684 88.99 430.004 88.396 431.258 88.396C434.162 88.396 434.602 90.354 434.206 92.862L433.238 99H431.258L432.182 93.104C432.468 91.344 432.424 90.156 430.4 90.156C427.848 90.156 427.496 92.4 427.188 94.27L426.44 99H424.46L426.088 88.704H428.068ZM443.103 90.2L441.365 91.058C441.211 90.552 440.771 90.156 440.199 90.156C439.649 90.156 439.055 90.596 438.945 91.168C438.813 92.07 439.935 92.466 441.057 93.016C442.179 93.566 443.235 94.314 442.971 95.942C442.663 97.9 440.793 99.352 438.879 99.352C437.383 99.352 436.019 98.494 435.689 97.042L437.515 96.272C437.801 97.042 438.219 97.592 439.165 97.592C440.001 97.592 440.815 97.02 440.969 96.14C441.057 95.59 440.815 95.326 440.419 95.018L438.637 93.984C437.603 93.368 436.855 92.796 437.075 91.388C437.339 89.716 438.901 88.396 440.573 88.396C441.827 88.396 442.729 89.078 443.103 90.2ZM128.52 114.704L130.478 121.26L134.636 114.132L136.528 121.26L140.554 114.704H142.798L135.868 125.352L133.954 118.466L129.818 125.352L126.276 114.704H128.52ZM146.203 114.704L144.575 125H142.595L144.223 114.704H146.203ZM146.181 108.61C146.929 108.61 147.457 109.226 147.325 109.996C147.215 110.744 146.489 111.338 145.741 111.338C144.993 111.338 144.487 110.744 144.597 109.996C144.729 109.226 145.433 108.61 146.181 108.61ZM151.349 116.552L150.007 125H148.027L149.369 116.552H148.291L148.577 114.704H149.655L150.271 110.766H152.251L151.635 114.704H153.571L153.285 116.552H151.349ZM156.062 105.904H158.042L156.436 116.09H156.48C157.272 114.99 158.592 114.396 159.846 114.396C162.75 114.396 163.19 116.354 162.794 118.862L161.826 125H159.846L160.77 119.104C161.056 117.344 161.012 116.156 158.988 116.156C156.436 116.156 156.084 118.4 155.776 120.27L155.028 125H153.048L156.062 105.904ZM180.606 120.182H172.752C172.488 121.942 173.412 123.592 175.304 123.592C176.822 123.592 177.768 122.822 178.714 121.59L180.232 122.536C178.978 124.318 176.998 125.352 174.996 125.352C171.85 125.352 170.332 122.976 170.794 119.94C171.3 116.772 173.368 114.396 176.69 114.396C179.968 114.396 181.134 116.816 180.65 119.874L180.606 120.182ZM173.082 118.686H178.846C178.868 117.146 178.01 116.112 176.426 116.112C174.886 116.112 173.566 117.212 173.082 118.686ZM185.078 114.704L184.88 116.002H184.924C185.628 115.1 186.772 114.396 187.894 114.396C189.236 114.396 190.094 115.078 190.578 116.222C191.392 115.122 192.734 114.396 194.032 114.396C196.738 114.396 197.112 116.508 196.738 118.84L195.77 125H193.79L194.714 119.17C194.912 117.85 195.022 116.156 193.284 116.156C191.172 116.156 190.666 118.356 190.402 119.94L189.61 125H187.63L188.488 119.544C188.708 118.202 188.972 116.156 187.146 116.156C185.034 116.156 184.506 118.334 184.242 119.94L183.45 125H181.47L183.098 114.704H185.078ZM203.593 123.592C205.749 123.592 207.201 121.876 207.531 119.852C207.839 117.85 206.915 116.156 204.781 116.156C202.735 116.156 201.239 117.938 200.931 119.852C200.623 121.788 201.503 123.592 203.593 123.592ZM201.855 114.704L201.591 116.42H201.635C202.647 115.188 203.989 114.396 205.529 114.396C208.499 114.396 209.973 116.97 209.533 119.786C209.049 122.734 206.871 125.352 203.703 125.352C202.251 125.352 201.129 124.56 200.535 123.394H200.491L199.303 130.896H197.323L199.875 114.704H201.855ZM215.708 105.904L212.694 125H210.714L213.728 105.904H215.708ZM221.751 114.396C224.831 114.396 226.877 116.772 226.393 119.874C225.909 122.976 223.093 125.352 220.013 125.352C216.933 125.352 214.909 122.976 215.393 119.874C215.877 116.772 218.671 114.396 221.751 114.396ZM221.465 116.288C219.507 116.288 217.681 117.916 217.373 119.874C217.065 121.81 218.363 123.46 220.321 123.46C222.279 123.46 224.105 121.81 224.413 119.874C224.721 117.916 223.423 116.288 221.465 116.288ZM230.728 123.24L227.362 114.704H229.672L232.114 121.238L236.382 114.704H238.604L227.714 130.896H225.47L230.728 123.24ZM247.852 120.182H239.998C239.734 121.942 240.658 123.592 242.55 123.592C244.068 123.592 245.014 122.822 245.96 121.59L247.478 122.536C246.224 124.318 244.244 125.352 242.242 125.352C239.096 125.352 237.578 122.976 238.04 119.94C238.546 116.772 240.614 114.396 243.936 114.396C247.214 114.396 248.38 116.816 247.896 119.874L247.852 120.182ZM240.328 118.686H246.092C246.114 117.146 245.256 116.112 243.672 116.112C242.132 116.112 240.812 117.212 240.328 118.686ZM252.522 114.704L252.258 116.376H252.324C253.006 115.166 254.128 114.396 255.448 114.396C256.02 114.396 256.57 114.594 257.01 114.902L255.822 116.706C255.514 116.398 255.14 116.288 254.678 116.288C252.544 116.288 251.95 118.268 251.686 119.94L250.894 125H248.914L250.542 114.704H252.522ZM263.623 116.2L261.885 117.058C261.731 116.552 261.291 116.156 260.719 116.156C260.169 116.156 259.575 116.596 259.465 117.168C259.333 118.07 260.455 118.466 261.577 119.016C262.699 119.566 263.755 120.314 263.491 121.942C263.183 123.9 261.313 125.352 259.399 125.352C257.903 125.352 256.539 124.494 256.209 123.042L258.035 122.272C258.321 123.042 258.739 123.592 259.685 123.592C260.521 123.592 261.335 123.02 261.489 122.14C261.577 121.59 261.335 121.326 260.939 121.018L259.157 119.984C258.123 119.368 257.375 118.796 257.595 117.388C257.859 115.716 259.421 114.396 261.093 114.396C262.347 114.396 263.249 115.078 263.623 116.2ZM273.454 114.704L275.412 121.26L279.57 114.132L281.462 121.26L285.488 114.704H287.732L280.802 125.352L278.888 118.466L274.752 125.352L271.21 114.704H273.454ZM290.103 105.904H292.083L290.477 116.09H290.521C291.313 114.99 292.633 114.396 293.887 114.396C296.791 114.396 297.231 116.354 296.835 118.862L295.867 125H293.887L294.811 119.104C295.097 117.344 295.053 116.156 293.029 116.156C290.477 116.156 290.125 118.4 289.817 120.27L289.069 125H287.089L290.103 105.904ZM304.852 114.396C307.932 114.396 309.978 116.772 309.494 119.874C309.01 122.976 306.194 125.352 303.114 125.352C300.034 125.352 298.01 122.976 298.494 119.874C298.978 116.772 301.772 114.396 304.852 114.396ZM304.566 116.288C302.608 116.288 300.782 117.916 300.474 119.874C300.166 121.81 301.464 123.46 303.422 123.46C305.38 123.46 307.206 121.81 307.514 119.874C307.822 117.916 306.524 116.288 304.566 116.288ZM321.508 123.592C323.664 123.592 325.116 121.876 325.446 119.852C325.754 117.85 324.83 116.156 322.696 116.156C320.65 116.156 319.154 117.938 318.846 119.852C318.538 121.788 319.418 123.592 321.508 123.592ZM328.13 114.704L326.502 125H324.522L324.786 123.394H324.742C323.752 124.56 322.388 125.352 320.914 125.352C317.768 125.352 316.404 122.734 316.888 119.786C317.328 116.97 319.594 114.396 322.586 114.396C324.104 114.396 325.226 115.188 325.842 116.42H325.886L326.15 114.704H328.13ZM332.809 114.704L332.545 116.376H332.611C333.293 115.166 334.415 114.396 335.735 114.396C336.307 114.396 336.857 114.594 337.297 114.902L336.109 116.706C335.801 116.398 335.427 116.288 334.965 116.288C332.831 116.288 332.237 118.268 331.973 119.94L331.181 125H329.201L330.829 114.704H332.809ZM346.207 120.182H338.353C338.089 121.942 339.013 123.592 340.905 123.592C342.423 123.592 343.369 122.822 344.315 121.59L345.833 122.536C344.579 124.318 342.599 125.352 340.597 125.352C337.451 125.352 335.933 122.976 336.395 119.94C336.901 116.772 338.969 114.396 342.291 114.396C345.569 114.396 346.735 116.816 346.251 119.874L346.207 120.182ZM338.683 118.686H344.447C344.469 117.146 343.611 116.112 342.027 116.112C340.487 116.112 339.167 117.212 338.683 118.686ZM358.161 123.592C360.317 123.592 361.769 121.876 362.099 119.852C362.407 117.85 361.483 116.156 359.349 116.156C357.303 116.156 355.807 117.938 355.499 119.852C355.191 121.788 356.071 123.592 358.161 123.592ZM364.783 114.704L363.155 125H361.175L361.439 123.394H361.395C360.405 124.56 359.041 125.352 357.567 125.352C354.421 125.352 353.057 122.734 353.541 119.786C353.981 116.97 356.247 114.396 359.239 114.396C360.757 114.396 361.879 115.188 362.495 116.42H362.539L362.803 114.704H364.783ZM374.851 115.078L374.455 117.63C373.817 116.728 372.915 116.244 371.727 116.244C369.791 116.244 368.031 117.96 367.723 119.852C367.393 121.964 368.625 123.504 370.715 123.504C371.859 123.504 372.871 122.976 373.751 122.14L373.333 124.67C372.365 125.154 371.419 125.352 370.385 125.352C367.349 125.352 365.237 123.02 365.721 119.94C366.227 116.75 369.065 114.396 372.233 114.396C373.157 114.396 374.147 114.616 374.851 115.078ZM379.04 116.552L377.698 125H375.718L377.06 116.552H375.982L376.268 114.704H377.346L377.962 110.766H379.942L379.326 114.704H381.262L380.976 116.552H379.04ZM384.787 114.704L383.159 125H381.179L382.807 114.704H384.787ZM384.765 108.61C385.513 108.61 386.041 109.226 385.909 109.996C385.799 110.744 385.073 111.338 384.325 111.338C383.577 111.338 383.071 110.744 383.181 109.996C383.313 109.226 384.017 108.61 384.765 108.61ZM388.525 114.704L390.461 121.128L394.443 114.704H396.665L389.779 125.352L386.303 114.704H388.525ZM405.934 120.182H398.08C397.816 121.942 398.74 123.592 400.632 123.592C402.15 123.592 403.096 122.822 404.042 121.59L405.56 122.536C404.306 124.318 402.326 125.352 400.324 125.352C397.178 125.352 395.66 122.976 396.122 119.94C396.628 116.772 398.696 114.396 402.018 114.396C405.296 114.396 406.462 116.816 405.978 119.874L405.934 120.182ZM398.41 118.686H404.174C404.196 117.146 403.338 116.112 401.754 116.112C400.214 116.112 398.894 117.212 398.41 118.686ZM411.946 105.904L408.932 125H406.952L409.966 105.904H411.946ZM415.085 123.24L411.719 114.704H414.029L416.471 121.238L420.739 114.704H422.961L412.071 130.896H409.827L415.085 123.24ZM133.492 142.2L131.754 143.058C131.6 142.552 131.16 142.156 130.588 142.156C130.038 142.156 129.444 142.596 129.334 143.168C129.202 144.07 130.324 144.466 131.446 145.016C132.568 145.566 133.624 146.314 133.36 147.942C133.052 149.9 131.182 151.352 129.268 151.352C127.772 151.352 126.408 150.494 126.078 149.042L127.904 148.272C128.19 149.042 128.608 149.592 129.554 149.592C130.39 149.592 131.204 149.02 131.358 148.14C131.446 147.59 131.204 147.326 130.808 147.018L129.026 145.984C127.992 145.368 127.244 144.796 127.464 143.388C127.728 141.716 129.29 140.396 130.962 140.396C132.216 140.396 133.118 141.078 133.492 142.2ZM144.619 146.182H136.765C136.501 147.942 137.425 149.592 139.317 149.592C140.835 149.592 141.781 148.822 142.727 147.59L144.245 148.536C142.991 150.318 141.011 151.352 139.009 151.352C135.863 151.352 134.345 148.976 134.807 145.94C135.313 142.772 137.381 140.396 140.703 140.396C143.981 140.396 145.147 142.816 144.663 145.874L144.619 146.182ZM137.095 144.686H142.859C142.881 143.146 142.023 142.112 140.439 142.112C138.899 142.112 137.579 143.212 137.095 144.686ZM155.362 146.182H147.508C147.244 147.942 148.168 149.592 150.06 149.592C151.578 149.592 152.524 148.822 153.47 147.59L154.988 148.536C153.734 150.318 151.754 151.352 149.752 151.352C146.606 151.352 145.088 148.976 145.55 145.94C146.056 142.772 148.124 140.396 151.446 140.396C154.724 140.396 155.89 142.816 155.406 145.874L155.362 146.182ZM147.838 144.686H153.602C153.624 143.146 152.766 142.112 151.182 142.112C149.642 142.112 148.322 143.212 147.838 144.686ZM161.418 131.904L159.416 144.576L163.904 140.704H166.522L161.44 144.972L165.334 151H162.76L159.834 146.314L159.042 146.996L158.404 151H156.424L159.438 131.904H161.418ZM170.502 140.704L168.874 151H166.894L168.522 140.704H170.502ZM170.48 134.61C171.228 134.61 171.756 135.226 171.624 135.996C171.514 136.744 170.788 137.338 170.04 137.338C169.292 137.338 168.786 136.744 168.896 135.996C169.028 135.226 169.732 134.61 170.48 134.61ZM175.648 140.704L175.428 142.09H175.472C176.264 140.99 177.584 140.396 178.838 140.396C181.742 140.396 182.182 142.354 181.786 144.862L180.818 151H178.838L179.762 145.104C180.048 143.344 180.004 142.156 177.98 142.156C175.428 142.156 175.076 144.4 174.768 146.27L174.02 151H172.04L173.668 140.704H175.648ZM188.197 149.592C190.353 149.592 191.805 147.876 192.135 145.852C192.443 143.85 191.519 142.156 189.385 142.156C187.339 142.156 185.843 143.938 185.535 145.852C185.227 147.788 186.107 149.592 188.197 149.592ZM194.819 140.704L193.213 150.802C192.663 154.344 191.255 156.896 187.251 156.896C184.391 156.896 182.587 155.136 183.005 152.232H184.985C184.699 154.08 185.799 155.136 187.603 155.136C190.045 155.136 190.815 153.464 191.145 151.352L191.475 149.394H191.431C190.441 150.56 189.055 151.352 187.603 151.352C184.435 151.352 183.093 148.734 183.577 145.786C184.017 142.97 186.283 140.396 189.253 140.396C190.793 140.396 191.915 141.188 192.509 142.464H192.553L192.839 140.704H194.819ZM211.248 141.078L210.852 143.63C210.214 142.728 209.312 142.244 208.124 142.244C206.188 142.244 204.428 143.96 204.12 145.852C203.79 147.964 205.022 149.504 207.112 149.504C208.256 149.504 209.268 148.976 210.148 148.14L209.73 150.67C208.762 151.154 207.816 151.352 206.782 151.352C203.746 151.352 201.634 149.02 202.118 145.94C202.624 142.75 205.462 140.396 208.63 140.396C209.554 140.396 210.544 140.616 211.248 141.078ZM216.493 149.592C218.649 149.592 220.101 147.876 220.431 145.852C220.739 143.85 219.815 142.156 217.681 142.156C215.635 142.156 214.139 143.938 213.831 145.852C213.523 147.788 214.403 149.592 216.493 149.592ZM223.115 140.704L221.487 151H219.507L219.771 149.394H219.727C218.737 150.56 217.373 151.352 215.899 151.352C212.753 151.352 211.389 148.734 211.873 145.786C212.313 142.97 214.579 140.396 217.571 140.396C219.089 140.396 220.211 141.188 220.827 142.42H220.871L221.135 140.704H223.115ZM227.661 140.704L227.441 142.09H227.485C228.277 140.99 229.597 140.396 230.851 140.396C233.755 140.396 234.195 142.354 233.799 144.862L232.831 151H230.851L231.775 145.104C232.061 143.344 232.017 142.156 229.993 142.156C227.441 142.156 227.089 144.4 226.781 146.27L226.033 151H224.053L225.681 140.704H227.661ZM240.233 149.592C242.389 149.592 243.841 147.876 244.171 145.852C244.479 143.85 243.555 142.156 241.421 142.156C239.375 142.156 237.879 143.938 237.571 145.852C237.263 147.788 238.143 149.592 240.233 149.592ZM243.247 151L243.511 149.394H243.467C242.477 150.56 241.091 151.352 239.639 151.352C236.471 151.352 235.129 148.734 235.613 145.786C236.053 142.97 238.319 140.396 241.289 140.396C242.829 140.396 243.951 141.188 244.567 142.42H244.611L246.261 131.904H248.241L245.227 151H243.247ZM251.863 140.704L250.235 151H248.255L249.883 140.704H251.863ZM251.841 134.61C252.589 134.61 253.117 135.226 252.985 135.996C252.875 136.744 252.149 137.338 251.401 137.338C250.653 137.338 250.147 136.744 250.257 135.996C250.389 135.226 251.093 134.61 251.841 134.61ZM258.065 149.592C260.221 149.592 261.673 147.876 262.003 145.852C262.311 143.85 261.387 142.156 259.253 142.156C257.207 142.156 255.711 143.938 255.403 145.852C255.095 147.788 255.975 149.592 258.065 149.592ZM261.079 151L261.343 149.394H261.299C260.309 150.56 258.923 151.352 257.471 151.352C254.303 151.352 252.961 148.734 253.445 145.786C253.885 142.97 256.151 140.396 259.121 140.396C260.661 140.396 261.783 141.188 262.399 142.42H262.443L264.093 131.904H266.073L263.059 151H261.079ZM270.29 149.592C272.446 149.592 273.898 147.876 274.228 145.852C274.536 143.85 273.612 142.156 271.478 142.156C269.432 142.156 267.936 143.938 267.628 145.852C267.32 147.788 268.2 149.592 270.29 149.592ZM276.912 140.704L275.284 151H273.304L273.568 149.394H273.524C272.534 150.56 271.17 151.352 269.696 151.352C266.55 151.352 265.186 148.734 265.67 145.786C266.11 142.97 268.376 140.396 271.368 140.396C272.886 140.396 274.008 141.188 274.624 142.42H274.668L274.932 140.704H276.912ZM281.458 142.552L280.116 151H278.136L279.478 142.552H278.4L278.686 140.704H279.764L280.38 136.766H282.36L281.744 140.704H283.68L283.394 142.552H281.458ZM292.947 146.182H285.093C284.829 147.942 285.753 149.592 287.645 149.592C289.163 149.592 290.109 148.822 291.055 147.59L292.573 148.536C291.319 150.318 289.339 151.352 287.337 151.352C284.191 151.352 282.673 148.976 283.135 145.94C283.641 142.772 285.709 140.396 289.031 140.396C292.309 140.396 293.475 142.816 292.991 145.874L292.947 146.182ZM285.423 144.686H291.187C291.209 143.146 290.351 142.112 288.767 142.112C287.227 142.112 285.907 143.212 285.423 144.686ZM301.006 142.2L299.268 143.058C299.114 142.552 298.674 142.156 298.102 142.156C297.552 142.156 296.958 142.596 296.848 143.168C296.716 144.07 297.838 144.466 298.96 145.016C300.082 145.566 301.138 146.314 300.874 147.942C300.566 149.9 298.696 151.352 296.782 151.352C295.286 151.352 293.922 150.494 293.592 149.042L295.418 148.272C295.704 149.042 296.122 149.592 297.068 149.592C297.904 149.592 298.718 149.02 298.872 148.14C298.96 147.59 298.718 147.326 298.322 147.018L296.54 145.984C295.506 145.368 294.758 144.796 294.978 143.388C295.242 141.716 296.804 140.396 298.476 140.396C299.73 140.396 300.632 141.078 301.006 142.2ZM313.762 131.904L310.748 151H308.768L311.782 131.904H313.762ZM317.627 140.704L315.999 151H314.019L315.647 140.704H317.627ZM317.605 134.61C318.353 134.61 318.881 135.226 318.749 135.996C318.639 136.744 317.913 137.338 317.165 137.338C316.417 137.338 315.911 136.744 316.021 135.996C316.153 135.226 316.857 134.61 317.605 134.61ZM324.291 131.904L322.289 144.576L326.777 140.704H329.395L324.313 144.972L328.207 151H325.633L322.707 146.314L321.915 146.996L321.277 151H319.297L322.311 131.904H324.291ZM338.752 146.182H330.898C330.634 147.942 331.558 149.592 333.45 149.592C334.968 149.592 335.914 148.822 336.86 147.59L338.378 148.536C337.124 150.318 335.144 151.352 333.142 151.352C329.996 151.352 328.478 148.976 328.94 145.94C329.446 142.772 331.514 140.396 334.836 140.396C338.114 140.396 339.28 142.816 338.796 145.874L338.752 146.182ZM331.228 144.686H336.992C337.014 143.146 336.156 142.112 334.572 142.112C333.032 142.112 331.712 143.212 331.228 144.686ZM348.956 149.24L345.59 140.704H347.9L350.342 147.238L354.61 140.704H356.832L345.942 156.896H343.698L348.956 149.24ZM362.516 140.396C365.596 140.396 367.642 142.772 367.158 145.874C366.674 148.976 363.858 151.352 360.778 151.352C357.698 151.352 355.674 148.976 356.158 145.874C356.642 142.772 359.436 140.396 362.516 140.396ZM362.23 142.288C360.272 142.288 358.446 143.916 358.138 145.874C357.83 147.81 359.128 149.46 361.086 149.46C363.044 149.46 364.87 147.81 365.178 145.874C365.486 143.916 364.188 142.288 362.23 142.288ZM369.689 140.704H371.669L370.767 146.402C370.503 148.052 370.701 149.504 372.659 149.504C374.617 149.504 375.255 148.052 375.519 146.402L376.421 140.704H378.401L377.477 146.622C377.015 149.438 375.387 151.352 372.351 151.352C369.315 151.352 368.303 149.438 368.765 146.622L369.689 140.704ZM381.585 148.8C382.289 148.8 382.773 149.394 382.663 150.076C382.553 150.78 381.871 151.352 381.167 151.352C380.463 151.352 380.001 150.78 380.111 150.076C380.221 149.394 380.881 148.8 381.585 148.8Z" fill="#093761"/>
<defs>
<clipPath id="clip0_407_2484">
<rect width="40" height="43" fill="white" transform="translate(107 185) rotate(90)"/>
</clipPath>
<clipPath id="clip1_407_2484">
<rect width="40" height="43" fill="white" transform="translate(107 79) rotate(90)"/>
</clipPath>
</defs>
</svg>
