<svg width="361" height="316" viewBox="0 0 361 316" fill="none" xmlns="http://www.w3.org/2000/svg">
<rect width="361" height="316" rx="50" fill="#0E3D68"/>
<path d="M32.7389 120.55V131.35C31.2889 129.95 30.0889 129.15 27.9889 129.15C22.6889 129.15 21.3889 135 21.3889 139.15C21.3889 143.55 22.6889 149.15 27.7889 149.15C30.0889 149.15 31.5389 148.25 33.1889 146.75L32.5889 157.3C30.5389 158.2 28.6889 158.65 26.4389 158.65C18.0889 158.65 10.9889 152.3 10.9889 139.4C10.9889 122.5 22.5889 119.65 27.5389 119.65C29.3389 119.65 31.0889 119.9 32.7389 120.55ZM35.8412 139.15C35.8412 129.95 39.8912 119.65 50.2412 119.65C60.5912 119.65 64.6412 129.95 64.6412 139.15C64.6412 148.35 60.5912 158.65 50.2412 158.65C39.8912 158.65 35.8412 148.35 35.8412 139.15ZM46.2412 139.15C46.2412 141.5 46.3912 149.15 50.2412 149.15C54.0912 149.15 54.2412 141.5 54.2412 139.15C54.2412 136.8 54.0912 129.15 50.2412 129.15C46.3912 129.15 46.2412 136.8 46.2412 139.15ZM107.06 158H96.4596L95.5096 134.3H95.4096C94.9596 137.05 94.6096 139.8 94.1096 142.55L91.2096 158H82.9096L79.3596 134.3H79.2596C79.2096 137.1 79.2596 139.85 79.1096 142.65L78.2596 158H67.3096L71.7096 120.3H84.4096L87.3096 140.35H87.4096C87.7096 138 87.9596 135.7 88.4096 133.35L90.8596 120.3H103.41L107.06 158ZM121.019 158H110.819V120.3H120.119C129.019 120.3 135.869 123.2 135.869 133.1C135.869 142.9 129.869 145.9 121.019 145.65V158ZM125.569 132.95C125.569 130.55 124.269 128.4 121.769 128.4L121.019 128.45V137.15C123.819 137.3 125.569 135.75 125.569 132.95ZM140.019 158V120.3H158.969V129.2H150.219V134.45H158.069V143.35H150.219V149.1H158.969V158H140.019ZM164.97 158V120.3H174.67L182.82 143L182.92 142.9C182.52 138.55 181.77 134.25 181.77 129.9V120.3H191.57V158H181.77L174.17 136.25L174.07 136.35C174.32 139.9 174.77 143.4 174.77 146.95V158H164.97ZM196.637 157.1V145.3C198.037 147.4 200.487 149.5 203.087 149.5C204.487 149.5 206.087 148.65 206.087 147C206.087 146.1 205.787 145.45 205.287 144.9C204.837 144.35 204.237 143.9 203.587 143.45C201.587 141.9 199.837 140.45 198.537 138.65C197.287 136.9 196.487 134.8 196.487 132.05C196.487 127.65 199.287 119.65 207.987 119.65C210.437 119.65 213.087 120.4 215.237 121.55V133C214.037 131.1 211.587 128.95 209.237 128.95C208.037 128.95 206.587 129.8 206.587 131.25C206.587 132.05 207.037 132.75 207.587 133.35C208.137 133.95 208.887 134.45 209.437 134.9C211.587 136.4 213.287 137.8 214.437 139.5C215.637 141.2 216.287 143.2 216.287 146.05C216.287 153.05 211.387 158.65 204.287 158.65C201.687 158.65 199.037 158.1 196.637 157.1ZM248.071 158H237.521L236.771 153.15H229.921L229.071 158H218.571L227.621 120.3H240.071L248.071 158ZM231.271 145.15H235.571L234.471 136.4C234.171 134.05 233.971 131.65 233.721 129.3H233.621C233.321 131.65 233.071 134.05 232.671 136.4L231.271 145.15ZM263.588 158H253.388V129.5H247.788V120.3H269.438V129.5H263.588V158ZM283.715 158H273.515V120.3H283.715V158ZM288.576 139.15C288.576 129.95 292.626 119.65 302.976 119.65C313.326 119.65 317.376 129.95 317.376 139.15C317.376 148.35 313.326 158.65 302.976 158.65C292.626 158.65 288.576 148.35 288.576 139.15ZM298.976 139.15C298.976 141.5 299.126 149.15 302.976 149.15C306.826 149.15 306.976 141.5 306.976 139.15C306.976 136.8 306.826 129.15 302.976 129.15C299.126 129.15 298.976 136.8 298.976 139.15ZM322.294 158V120.3H331.994L340.144 143L340.244 142.9C339.844 138.55 339.094 134.25 339.094 129.9V120.3H348.894V158H339.094L331.494 136.25L331.394 136.35C331.644 139.9 332.094 143.4 332.094 146.95V158H322.294Z" fill="white"/>
<path d="M78.5538 179.024V182.312C78.0978 182.192 77.6658 182.12 77.2098 182.12C74.0658 182.12 72.6978 184.976 72.6978 187.76C72.6978 190.448 74.0658 193.76 77.1858 193.76C77.6418 193.76 78.0978 193.64 78.5538 193.496V196.88C78.0258 197.096 77.4738 197.192 76.8978 197.192C71.7378 197.192 68.8818 192.536 68.8818 187.784C68.8818 183.296 71.8578 178.688 76.7298 178.688C77.3538 178.688 77.9538 178.808 78.5538 179.024ZM84.0601 184.64C87.6841 184.64 88.6681 187.856 88.6681 190.952C88.6681 194.048 87.6841 197.24 84.0601 197.24C80.4361 197.24 79.4521 194.048 79.4521 190.952C79.4521 187.856 80.4361 184.64 84.0601 184.64ZM84.0601 187.688C82.8841 187.688 82.8361 190.256 82.8361 190.952C82.8361 191.648 82.8841 194.216 84.0601 194.216C85.2361 194.216 85.2841 191.648 85.2841 190.952C85.2841 190.256 85.2361 187.688 84.0601 187.688ZM93.5053 184.88L93.5293 186.824H93.5773C94.1533 185.648 95.1133 184.64 96.5533 184.64C97.8013 184.64 98.4733 185.6 98.6413 186.704H98.6893C99.2413 185.624 100.297 184.64 101.593 184.64C103.777 184.64 103.777 187.064 103.777 188.624V197H100.393V190.424C100.393 189.8 100.561 188.024 99.5533 188.024C98.7613 188.024 98.6413 188.84 98.6413 189.392V197H95.2573V190.208C95.2573 189.608 95.4253 188.072 94.4653 188.072C93.6253 188.072 93.5053 188.84 93.5053 189.464V197H90.1213V184.88H93.5053ZM109.769 194.144C110.969 194.144 110.993 191.648 110.993 190.88C110.993 190.184 110.897 187.64 109.793 187.64C108.641 187.64 108.593 190.208 108.593 190.88C108.593 191.528 108.665 194.144 109.769 194.144ZM108.833 184.88V186.368H108.881C109.265 185.384 110.033 184.64 111.137 184.64C113.993 184.64 114.377 188.84 114.377 190.928C114.377 192.872 113.873 197.24 111.113 197.24C110.009 197.24 109.313 196.544 108.881 195.632H108.833V202.976H105.449V184.88H108.833ZM121.376 189.752V189.464C121.376 188.672 121.208 187.232 120.152 187.232C119.12 187.232 118.904 188.624 118.904 189.392V189.752H121.376ZM124.304 190.448L124.232 191.84H118.88C118.904 192.728 118.856 194.648 120.152 194.648C121.016 194.648 121.232 193.976 121.232 193.256H124.112C123.968 194.36 123.632 195.368 123.008 196.088C122.408 196.808 121.52 197.24 120.272 197.24C116.84 197.24 115.616 194.192 115.616 191.192C115.616 188.288 116.672 184.64 120.2 184.64C122.432 184.64 124.496 186.632 124.304 190.448ZM126.826 181.52H130.21V184.88H131.602V187.664H130.21V197H126.826V187.664H125.65V184.88H126.826V181.52ZM133.152 184.88H136.536V197H133.152V184.88ZM134.832 183.44C133.656 183.44 132.696 182.456 132.696 181.256C132.696 180.032 133.68 179.12 134.904 179.12C136.08 179.12 136.992 180.152 136.992 181.304C136.992 182.456 136.008 183.44 134.832 183.44ZM139.248 181.52H142.632V184.88H144.024V187.664H142.632V197H139.248V187.664H138.072V184.88H139.248V181.52ZM145.574 184.88H148.958V197H145.574V184.88ZM147.254 183.44C146.078 183.44 145.118 182.456 145.118 181.256C145.118 180.032 146.102 179.12 147.326 179.12C148.502 179.12 149.414 180.152 149.414 181.304C149.414 182.456 148.43 183.44 147.254 183.44ZM150.133 184.88H153.493L155.101 191.528L155.125 191.72H155.173L155.437 190.472L156.757 184.88H160.261L156.757 197H153.613L150.133 184.88ZM167.009 189.752V189.464C167.009 188.672 166.841 187.232 165.785 187.232C164.753 187.232 164.537 188.624 164.537 189.392V189.752H167.009ZM169.937 190.448L169.865 191.84H164.513C164.537 192.728 164.489 194.648 165.785 194.648C166.649 194.648 166.865 193.976 166.865 193.256H169.745C169.601 194.36 169.265 195.368 168.641 196.088C168.041 196.808 167.153 197.24 165.905 197.24C162.473 197.24 161.249 194.192 161.249 191.192C161.249 188.288 162.305 184.64 165.833 184.64C168.065 184.64 170.129 186.632 169.937 190.448ZM183.453 193.712V196.808C182.829 197.096 182.205 197.24 181.509 197.24C178.221 197.24 177.069 193.784 177.069 191.024C177.069 187.976 178.269 184.64 181.773 184.64C182.373 184.64 182.901 184.76 183.453 185V187.976C183.141 187.688 182.877 187.592 182.469 187.592C180.813 187.592 180.453 189.584 180.453 190.832C180.453 192.128 180.717 194.072 182.421 194.072C182.805 194.072 183.141 193.928 183.453 193.712ZM189.248 184.64C192.872 184.64 193.856 187.856 193.856 190.952C193.856 194.048 192.872 197.24 189.248 197.24C185.624 197.24 184.64 194.048 184.64 190.952C184.64 187.856 185.624 184.64 189.248 184.64ZM189.248 187.688C188.072 187.688 188.024 190.256 188.024 190.952C188.024 191.648 188.072 194.216 189.248 194.216C190.424 194.216 190.472 191.648 190.472 190.952C190.472 190.256 190.424 187.688 189.248 187.688ZM198.693 184.88L198.717 186.824H198.765C199.341 185.648 200.301 184.64 201.741 184.64C202.989 184.64 203.661 185.6 203.829 186.704H203.877C204.429 185.624 205.485 184.64 206.781 184.64C208.965 184.64 208.965 187.064 208.965 188.624V197H205.581V190.424C205.581 189.8 205.749 188.024 204.741 188.024C203.949 188.024 203.829 188.84 203.829 189.392V197H200.445V190.208C200.445 189.608 200.613 188.072 199.653 188.072C198.813 188.072 198.693 188.84 198.693 189.464V197H195.309V184.88H198.693ZM214.957 194.144C216.157 194.144 216.181 191.648 216.181 190.88C216.181 190.184 216.085 187.64 214.981 187.64C213.829 187.64 213.781 190.208 213.781 190.88C213.781 191.528 213.853 194.144 214.957 194.144ZM214.021 184.88V186.368H214.069C214.453 185.384 215.221 184.64 216.325 184.64C219.181 184.64 219.565 188.84 219.565 190.928C219.565 192.872 219.061 197.24 216.301 197.24C215.197 197.24 214.501 196.544 214.069 195.632H214.021V202.976H210.637V184.88H214.021ZM226.564 189.752V189.464C226.564 188.672 226.396 187.232 225.34 187.232C224.308 187.232 224.092 188.624 224.092 189.392V189.752H226.564ZM229.492 190.448L229.42 191.84H224.068C224.092 192.728 224.044 194.648 225.34 194.648C226.204 194.648 226.42 193.976 226.42 193.256H229.3C229.156 194.36 228.82 195.368 228.196 196.088C227.596 196.808 226.708 197.24 225.46 197.24C222.028 197.24 220.804 194.192 220.804 191.192C220.804 188.288 221.86 184.64 225.388 184.64C227.62 184.64 229.684 186.632 229.492 190.448ZM234.341 184.88V186.752H234.389C234.845 185.6 235.877 184.64 237.197 184.64C239.693 184.64 239.477 187.424 239.477 189.176V197H236.093V190.352C236.093 189.728 236.333 188.048 235.253 188.048C234.485 188.048 234.341 188.84 234.341 189.44V197H230.957V184.88H234.341ZM248.593 185.672L247.225 188.144C246.745 187.712 246.289 187.352 245.593 187.352C244.993 187.352 244.681 187.712 244.681 188.24C244.729 189.656 248.545 189.368 248.545 192.992C248.545 195.392 247.153 197.24 244.657 197.24C243.361 197.24 242.017 196.688 241.009 195.848L242.497 193.448C243.001 193.88 243.505 194.24 244.177 194.24C244.705 194.24 245.161 193.856 245.161 193.232C245.209 191.624 241.297 192.032 241.297 188.192C241.297 185.888 243.217 184.64 245.353 184.64C246.577 184.64 247.609 184.952 248.593 185.672ZM254.569 194.144C255.648 194.144 255.745 191.528 255.745 190.88C255.745 190.208 255.673 187.64 254.521 187.64C253.393 187.64 253.321 190.184 253.321 190.88C253.321 191.648 253.369 194.144 254.569 194.144ZM255.505 197V195.632H255.457C255.001 196.544 254.305 197.24 253.225 197.24C250.489 197.24 249.937 192.872 249.937 190.928C249.937 188.84 250.345 184.64 253.177 184.64C254.305 184.64 255.073 185.384 255.457 186.368H255.505V184.88H258.889V197H255.505ZM261.591 181.52H264.975V184.88H266.367V187.664H264.975V197H261.591V187.664H260.415V184.88H261.591V181.52ZM267.918 184.88H271.302V197H267.918V184.88ZM269.598 183.44C268.422 183.44 267.462 182.456 267.462 181.256C267.462 180.032 268.446 179.12 269.67 179.12C270.846 179.12 271.758 180.152 271.758 181.304C271.758 182.456 270.774 183.44 269.598 183.44ZM277.349 184.64C280.973 184.64 281.957 187.856 281.957 190.952C281.957 194.048 280.973 197.24 277.349 197.24C273.725 197.24 272.741 194.048 272.741 190.952C272.741 187.856 273.725 184.64 277.349 184.64ZM277.349 187.688C276.173 187.688 276.125 190.256 276.125 190.952C276.125 191.648 276.173 194.216 277.349 194.216C278.525 194.216 278.573 191.648 278.573 190.952C278.573 190.256 278.525 187.688 277.349 187.688ZM286.794 184.88V186.752H286.842C287.298 185.6 288.33 184.64 289.65 184.64C292.146 184.64 291.93 187.424 291.93 189.176V197H288.546V190.352C288.546 189.728 288.786 188.048 287.706 188.048C286.938 188.048 286.794 188.84 286.794 189.44V197H283.41V184.88H286.794ZM126.237 207.904H133.461V211.264H129.813V215.128H133.101V218.488H129.813V226H126.237V207.904ZM140.513 218.752V218.464C140.513 217.672 140.345 216.232 139.289 216.232C138.257 216.232 138.041 217.624 138.041 218.392V218.752H140.513ZM143.441 219.448L143.369 220.84H138.017C138.041 221.728 137.993 223.648 139.289 223.648C140.153 223.648 140.369 222.976 140.369 222.256H143.249C143.105 223.36 142.769 224.368 142.145 225.088C141.545 225.808 140.657 226.24 139.409 226.24C135.977 226.24 134.753 223.192 134.753 220.192C134.753 217.288 135.809 213.64 139.337 213.64C141.569 213.64 143.633 215.632 143.441 219.448ZM150.45 218.752V218.464C150.45 217.672 150.282 216.232 149.226 216.232C148.194 216.232 147.978 217.624 147.978 218.392V218.752H150.45ZM153.378 219.448L153.306 220.84H147.954C147.978 221.728 147.93 223.648 149.226 223.648C150.09 223.648 150.306 222.976 150.306 222.256H153.186C153.042 223.36 152.706 224.368 152.082 225.088C151.482 225.808 150.594 226.24 149.346 226.24C145.914 226.24 144.69 223.192 144.69 220.192C144.69 217.288 145.746 213.64 149.274 213.64C151.506 213.64 153.57 215.632 153.378 219.448ZM168.191 214.672L166.823 217.144C166.343 216.712 165.887 216.352 165.191 216.352C164.591 216.352 164.279 216.712 164.279 217.24C164.327 218.656 168.143 218.368 168.143 221.992C168.143 224.392 166.751 226.24 164.255 226.24C162.959 226.24 161.615 225.688 160.607 224.848L162.095 222.448C162.599 222.88 163.103 223.24 163.775 223.24C164.303 223.24 164.759 222.856 164.759 222.232C164.807 220.624 160.895 221.032 160.895 217.192C160.895 214.888 162.815 213.64 164.951 213.64C166.175 213.64 167.207 213.952 168.191 214.672ZM170.806 210.52H174.19V213.88H175.582V216.664H174.19V226H170.806V216.664H169.63V213.88H170.806V210.52ZM177.133 213.88H180.517V215.344H180.565C181.189 214.288 182.005 213.544 183.325 213.424V216.712C183.157 216.688 182.989 216.664 182.797 216.664C180.541 216.664 180.517 218.152 180.517 219.952V226H177.133V213.88ZM184.703 213.88H188.087V220.528C188.087 221.2 187.823 223.072 188.951 223.072C189.863 223.072 189.791 221.872 189.791 221.272L189.815 213.88H193.175V221.608C193.175 224.416 191.855 226.24 188.855 226.24C185.015 226.24 184.703 223.36 184.703 221.152V213.88ZM201.02 222.712V225.808C200.396 226.096 199.772 226.24 199.076 226.24C195.788 226.24 194.636 222.784 194.636 220.024C194.636 216.976 195.836 213.64 199.34 213.64C199.94 213.64 200.468 213.76 201.02 214V216.976C200.708 216.688 200.444 216.592 200.036 216.592C198.38 216.592 198.02 218.584 198.02 219.832C198.02 221.128 198.284 223.072 199.988 223.072C200.372 223.072 200.708 222.928 201.02 222.712ZM203.478 210.52H206.862V213.88H208.254V216.664H206.862V226H203.478V216.664H202.302V213.88H203.478V210.52ZM209.805 213.88H213.189V220.528C213.189 221.2 212.925 223.072 214.053 223.072C214.965 223.072 214.893 221.872 214.893 221.272L214.917 213.88H218.277V221.608C218.277 224.416 216.957 226.24 213.957 226.24C210.117 226.24 209.805 223.36 209.805 221.152V213.88ZM219.953 213.88H223.337V215.344H223.385C224.009 214.288 224.825 213.544 226.145 213.424V216.712C225.977 216.688 225.809 216.664 225.617 216.664C223.361 216.664 223.337 218.152 223.337 219.952V226H219.953V213.88ZM232.482 218.752V218.464C232.482 217.672 232.314 216.232 231.258 216.232C230.226 216.232 230.01 217.624 230.01 218.392V218.752H232.482ZM235.41 219.448L235.338 220.84H229.986C230.01 221.728 229.962 223.648 231.258 223.648C232.122 223.648 232.338 222.976 232.338 222.256H235.218C235.074 223.36 234.738 224.368 234.114 225.088C233.514 225.808 232.626 226.24 231.378 226.24C227.946 226.24 226.722 223.192 226.722 220.192C226.722 217.288 227.778 213.64 231.306 213.64C233.538 213.64 235.602 215.632 235.41 219.448Z" fill="#6CBF2A"/>
</svg>
