<svg width="361" height="317" viewBox="0 0 361 317" fill="none" xmlns="http://www.w3.org/2000/svg">
<rect width="361" height="317" rx="50" fill="#0E3D68"/>
<path d="M83.1094 159V121.3H95.1094C101.109 121.3 108.109 123.9 108.109 132.05C108.109 136.3 105.359 139.6 101.059 139.6V139.7C106.059 140.1 108.709 143.2 108.709 148.25C108.709 152.9 105.909 159 96.8094 159H83.1094ZM93.3094 150.85H94.1594C96.4094 150.85 98.4094 149.75 98.4094 147.2C98.4094 144.65 96.4594 143.6 94.1094 143.6H93.3094V150.85ZM93.3094 135.95H93.9094C96.0094 135.95 97.9594 135.1 97.9594 132.65C97.9594 130.4 96.4094 129.45 94.3094 129.45H93.3094V135.95ZM113.627 159V121.3H132.577V130.2H123.827V135.45H131.677V144.35H123.827V150.1H132.577V159H113.627ZM138.578 159V121.3H148.278L156.428 144L156.528 143.9C156.128 139.55 155.378 135.25 155.378 130.9V121.3H165.178V159H155.378L147.778 137.25L147.678 137.35C147.928 140.9 148.378 144.4 148.378 147.95V159H138.578ZM171.195 159V121.3H190.145V130.2H181.395V135.45H189.245V144.35H181.395V150.1H190.145V159H171.195ZM206.346 159H196.146V121.3H214.146V130.2H206.346V135.65H213.646V144.55H206.346V159ZM230.419 159H220.219V121.3H230.419V159ZM250.38 159H240.18V130.5H234.58V121.3H256.23V130.5H250.38V159ZM259.357 158.1V146.3C260.757 148.4 263.207 150.5 265.807 150.5C267.207 150.5 268.807 149.65 268.807 148C268.807 147.1 268.507 146.45 268.007 145.9C267.557 145.35 266.957 144.9 266.307 144.45C264.307 142.9 262.557 141.45 261.257 139.65C260.007 137.9 259.207 135.8 259.207 133.05C259.207 128.65 262.007 120.65 270.707 120.65C273.157 120.65 275.807 121.4 277.957 122.55V134C276.757 132.1 274.307 129.95 271.957 129.95C270.757 129.95 269.307 130.8 269.307 132.25C269.307 133.05 269.757 133.75 270.307 134.35C270.857 134.95 271.607 135.45 272.157 135.9C274.307 137.4 276.007 138.8 277.157 140.5C278.357 142.2 279.007 144.2 279.007 147.05C279.007 154.05 274.107 159.65 267.007 159.65C264.407 159.65 261.757 159.1 259.357 158.1Z" fill="white"/>
<path d="M110.483 193.504C110.483 192.088 109.619 191.056 108.203 191.104V196C109.643 196.072 110.483 195.016 110.483 193.504ZM108.107 199H104.627V180.904H108.131C109.523 180.904 110.723 180.952 111.875 181.888C113.075 182.848 113.723 184.456 113.723 185.968C113.723 187.576 113.123 188.8 111.779 189.712C113.267 190.432 114.011 192.352 114.011 193.912C114.011 197.488 111.371 199 108.107 199ZM110.339 186.04C110.339 184.72 109.571 183.832 108.203 183.904V188.32C109.547 188.32 110.339 187.408 110.339 186.04ZM121.224 191.752V191.464C121.224 190.672 121.056 189.232 120 189.232C118.968 189.232 118.752 190.624 118.752 191.392V191.752H121.224ZM124.152 192.448L124.08 193.84H118.728C118.752 194.728 118.704 196.648 120 196.648C120.864 196.648 121.08 195.976 121.08 195.256H123.96C123.816 196.36 123.48 197.368 122.856 198.088C122.256 198.808 121.368 199.24 120.12 199.24C116.688 199.24 115.464 196.192 115.464 193.192C115.464 190.288 116.52 186.64 120.048 186.64C122.28 186.64 124.344 188.632 124.152 192.448ZM133.081 187.672L131.713 190.144C131.233 189.712 130.777 189.352 130.081 189.352C129.481 189.352 129.169 189.712 129.169 190.24C129.217 191.656 133.033 191.368 133.033 194.992C133.033 197.392 131.641 199.24 129.145 199.24C127.849 199.24 126.505 198.688 125.497 197.848L126.985 195.448C127.489 195.88 127.993 196.24 128.665 196.24C129.193 196.24 129.649 195.856 129.649 195.232C129.697 193.624 125.785 194.032 125.785 190.192C125.785 187.888 127.705 186.64 129.841 186.64C131.065 186.64 132.097 186.952 133.081 187.672ZM135.697 183.52H139.081V186.88H140.473V189.664H139.081V199H135.697V189.664H134.521V186.88H135.697V183.52ZM154.194 193.504C154.194 192.088 153.33 191.056 151.914 191.104V196C153.354 196.072 154.194 195.016 154.194 193.504ZM151.818 199H148.338V180.904H151.842C153.234 180.904 154.434 180.952 155.586 181.888C156.786 182.848 157.434 184.456 157.434 185.968C157.434 187.576 156.834 188.8 155.49 189.712C156.978 190.432 157.722 192.352 157.722 193.912C157.722 197.488 155.082 199 151.818 199ZM154.05 186.04C154.05 184.72 153.282 183.832 151.914 183.904V188.32C153.258 188.32 154.05 187.408 154.05 186.04ZM164.935 191.752V191.464C164.935 190.672 164.767 189.232 163.711 189.232C162.679 189.232 162.463 190.624 162.463 191.392V191.752H164.935ZM167.863 192.448L167.791 193.84H162.439C162.463 194.728 162.415 196.648 163.711 196.648C164.575 196.648 164.791 195.976 164.791 195.256H167.671C167.527 196.36 167.191 197.368 166.567 198.088C165.967 198.808 165.079 199.24 163.831 199.24C160.399 199.24 159.175 196.192 159.175 193.192C159.175 190.288 160.231 186.64 163.759 186.64C165.991 186.64 168.055 188.632 167.863 192.448ZM172.712 186.88V188.752H172.76C173.216 187.6 174.248 186.64 175.568 186.64C178.064 186.64 177.848 189.424 177.848 191.176V199H174.464V192.352C174.464 191.728 174.704 190.048 173.624 190.048C172.856 190.048 172.712 190.84 172.712 191.44V199H169.328V186.88H172.712ZM185.044 191.752V191.464C185.044 190.672 184.876 189.232 183.82 189.232C182.788 189.232 182.572 190.624 182.572 191.392V191.752H185.044ZM187.972 192.448L187.9 193.84H182.548C182.572 194.728 182.524 196.648 183.82 196.648C184.684 196.648 184.9 195.976 184.9 195.256H187.78C187.636 196.36 187.3 197.368 186.676 198.088C186.076 198.808 185.188 199.24 183.94 199.24C180.508 199.24 179.284 196.192 179.284 193.192C179.284 190.288 180.34 186.64 183.868 186.64C186.1 186.64 188.164 188.632 187.972 192.448ZM189.054 186.88H190.302V183.472C190.302 181.192 190.758 179.392 193.782 179.392C194.286 179.392 194.766 179.512 195.246 179.68V182.944C195.03 182.824 194.886 182.752 194.646 182.752C193.566 182.752 193.686 183.976 193.686 184.72V186.88H195.246V189.664H193.686V199H190.302V189.664H189.054V186.88ZM196.782 186.88H200.166V199H196.782V186.88ZM198.462 185.44C197.286 185.44 196.326 184.456 196.326 183.256C196.326 182.032 197.31 181.12 198.534 181.12C199.71 181.12 200.622 182.152 200.622 183.304C200.622 184.456 199.638 185.44 198.462 185.44ZM203.337 183.52H206.721V186.88H208.113V189.664H206.721V199H203.337V189.664H202.161V186.88H203.337V183.52ZM217.128 187.672L215.76 190.144C215.28 189.712 214.824 189.352 214.128 189.352C213.528 189.352 213.216 189.712 213.216 190.24C213.264 191.656 217.08 191.368 217.08 194.992C217.08 197.392 215.688 199.24 213.192 199.24C211.896 199.24 210.552 198.688 209.544 197.848L211.032 195.448C211.536 195.88 212.04 196.24 212.712 196.24C213.24 196.24 213.696 195.856 213.696 195.232C213.744 193.624 209.832 194.032 209.832 190.192C209.832 187.888 211.752 186.64 213.888 186.64C215.112 186.64 216.144 186.952 217.128 187.672ZM228.822 186.64C232.446 186.64 233.43 189.856 233.43 192.952C233.43 196.048 232.446 199.24 228.822 199.24C225.198 199.24 224.214 196.048 224.214 192.952C224.214 189.856 225.198 186.64 228.822 186.64ZM228.822 189.688C227.646 189.688 227.598 192.256 227.598 192.952C227.598 193.648 227.646 196.216 228.822 196.216C229.998 196.216 230.046 193.648 230.046 192.952C230.046 192.256 229.998 189.688 228.822 189.688ZM234.883 186.88H238.267V193.528C238.267 194.2 238.003 196.072 239.131 196.072C240.043 196.072 239.971 194.872 239.971 194.272L239.995 186.88H243.355V194.608C243.355 197.416 242.035 199.24 239.035 199.24C235.195 199.24 234.883 196.36 234.883 194.152V186.88ZM245.031 186.88H248.415V188.344H248.463C249.087 187.288 249.903 186.544 251.223 186.424V189.712C251.055 189.688 250.887 189.664 250.695 189.664C248.439 189.664 248.415 191.152 248.415 192.952V199H245.031V186.88ZM98.1124 210.024V213.312C97.6564 213.192 97.2244 213.12 96.7684 213.12C93.6244 213.12 92.2564 215.976 92.2564 218.76C92.2564 221.448 93.6244 224.76 96.7444 224.76C97.2004 224.76 97.6564 224.64 98.1124 224.496V227.88C97.5844 228.096 97.0324 228.192 96.4564 228.192C91.2964 228.192 88.4404 223.536 88.4404 218.784C88.4404 214.296 91.4164 209.688 96.2884 209.688C96.9124 209.688 97.5124 209.808 98.1124 210.024ZM103.619 215.64C107.243 215.64 108.227 218.856 108.227 221.952C108.227 225.048 107.243 228.24 103.619 228.24C99.9947 228.24 99.0107 225.048 99.0107 221.952C99.0107 218.856 99.9947 215.64 103.619 215.64ZM103.619 218.688C102.443 218.688 102.395 221.256 102.395 221.952C102.395 222.648 102.443 225.216 103.619 225.216C104.795 225.216 104.843 222.648 104.843 221.952C104.843 221.256 104.795 218.688 103.619 218.688ZM113.064 215.88L113.088 217.824H113.136C113.712 216.648 114.672 215.64 116.112 215.64C117.36 215.64 118.032 216.6 118.2 217.704H118.248C118.8 216.624 119.856 215.64 121.152 215.64C123.336 215.64 123.336 218.064 123.336 219.624V228H119.952V221.424C119.952 220.8 120.12 219.024 119.112 219.024C118.32 219.024 118.2 219.84 118.2 220.392V228H114.816V221.208C114.816 220.608 114.984 219.072 114.024 219.072C113.184 219.072 113.064 219.84 113.064 220.464V228H109.68V215.88H113.064ZM129.328 225.144C130.528 225.144 130.552 222.648 130.552 221.88C130.552 221.184 130.456 218.64 129.352 218.64C128.2 218.64 128.152 221.208 128.152 221.88C128.152 222.528 128.224 225.144 129.328 225.144ZM128.392 215.88V217.368H128.44C128.824 216.384 129.592 215.64 130.696 215.64C133.552 215.64 133.936 219.84 133.936 221.928C133.936 223.872 133.432 228.24 130.672 228.24C129.568 228.24 128.872 227.544 128.44 226.632H128.392V233.976H125.008V215.88H128.392ZM139.807 225.144C140.887 225.144 140.983 222.528 140.983 221.88C140.983 221.208 140.911 218.64 139.759 218.64C138.631 218.64 138.559 221.184 138.559 221.88C138.559 222.648 138.607 225.144 139.807 225.144ZM140.743 228V226.632H140.695C140.239 227.544 139.543 228.24 138.463 228.24C135.727 228.24 135.175 223.872 135.175 221.928C135.175 219.84 135.583 215.64 138.415 215.64C139.543 215.64 140.311 216.384 140.695 217.368H140.743V215.88H144.127V228H140.743ZM149.158 215.88V217.752H149.206C149.662 216.6 150.694 215.64 152.014 215.64C154.51 215.64 154.294 218.424 154.294 220.176V228H150.91V221.352C150.91 220.728 151.15 219.048 150.07 219.048C149.302 219.048 149.158 219.84 149.158 220.44V228H145.774V215.88H149.158ZM155.465 215.88H158.873L160.145 220.776L160.553 222.792H160.601L162.185 215.88H165.593L160.385 233.976H157.049L158.993 227.76L155.465 215.88ZM172.68 208.632H176.064V217.752H176.112C176.568 216.6 177.6 215.64 178.92 215.64C181.416 215.64 181.2 218.424 181.2 220.176V228H177.816V221.352C177.816 220.728 178.056 219.048 176.976 219.048C176.208 219.048 176.064 219.84 176.064 220.44V228H172.68V208.632ZM187.268 225.144C188.348 225.144 188.444 222.528 188.444 221.88C188.444 221.208 188.372 218.64 187.22 218.64C186.092 218.64 186.02 221.184 186.02 221.88C186.02 222.648 186.068 225.144 187.268 225.144ZM188.204 228V226.632H188.156C187.7 227.544 187.004 228.24 185.924 228.24C183.188 228.24 182.636 223.872 182.636 221.928C182.636 219.84 183.044 215.64 185.876 215.64C187.004 215.64 187.772 216.384 188.156 217.368H188.204V215.88H191.588V228H188.204ZM200.699 216.672L199.331 219.144C198.851 218.712 198.395 218.352 197.699 218.352C197.099 218.352 196.787 218.712 196.787 219.24C196.835 220.656 200.651 220.368 200.651 223.992C200.651 226.392 199.259 228.24 196.763 228.24C195.467 228.24 194.123 227.688 193.115 226.848L194.603 224.448C195.107 224.88 195.611 225.24 196.283 225.24C196.811 225.24 197.267 224.856 197.267 224.232C197.315 222.624 193.403 223.032 193.403 219.192C193.403 216.888 195.323 215.64 197.459 215.64C198.683 215.64 199.715 215.952 200.699 216.672ZM209.197 212.52H212.581V215.88H213.973V218.664H212.581V228H209.197V218.664H208.021V215.88H209.197V212.52ZM219.916 215.64C223.54 215.64 224.524 218.856 224.524 221.952C224.524 225.048 223.54 228.24 219.916 228.24C216.292 228.24 215.308 225.048 215.308 221.952C215.308 218.856 216.292 215.64 219.916 215.64ZM219.916 218.688C218.74 218.688 218.692 221.256 218.692 221.952C218.692 222.648 218.74 225.216 219.916 225.216C221.092 225.216 221.14 222.648 221.14 221.952C221.14 221.256 221.092 218.688 219.916 218.688ZM236.111 215.64C239.735 215.64 240.719 218.856 240.719 221.952C240.719 225.048 239.735 228.24 236.111 228.24C232.487 228.24 231.503 225.048 231.503 221.952C231.503 218.856 232.487 215.64 236.111 215.64ZM236.111 218.688C234.935 218.688 234.887 221.256 234.887 221.952C234.887 222.648 234.935 225.216 236.111 225.216C237.287 225.216 237.335 222.648 237.335 221.952C237.335 221.256 237.287 218.688 236.111 218.688ZM241.788 215.88H243.036V212.472C243.036 210.192 243.492 208.392 246.516 208.392C247.02 208.392 247.5 208.512 247.98 208.68V211.944C247.764 211.824 247.62 211.752 247.38 211.752C246.3 211.752 246.42 212.976 246.42 213.72V215.88H247.98V218.664H246.42V228H243.036V218.664H241.788V215.88ZM248.96 215.88H250.208V212.472C250.208 210.192 250.664 208.392 253.688 208.392C254.192 208.392 254.672 208.512 255.152 208.68V211.944C254.936 211.824 254.792 211.752 254.552 211.752C253.472 211.752 253.592 212.976 253.592 213.72V215.88H255.152V218.664H253.592V228H250.208V218.664H248.96V215.88ZM262.06 220.752V220.464C262.06 219.672 261.892 218.232 260.836 218.232C259.804 218.232 259.588 219.624 259.588 220.392V220.752H262.06ZM264.988 221.448L264.916 222.84H259.564C259.588 223.728 259.54 225.648 260.836 225.648C261.7 225.648 261.916 224.976 261.916 224.256H264.796C264.652 225.36 264.316 226.368 263.692 227.088C263.092 227.808 262.204 228.24 260.956 228.24C257.524 228.24 256.3 225.192 256.3 222.192C256.3 219.288 257.356 215.64 260.884 215.64C263.116 215.64 265.18 217.632 264.988 221.448ZM266.453 215.88H269.837V217.344H269.885C270.509 216.288 271.325 215.544 272.645 215.424V218.712C272.477 218.688 272.309 218.664 272.117 218.664C269.861 218.664 269.837 220.152 269.837 221.952V228H266.453V215.88Z" fill="#6CBF2A"/>
</svg>
