<svg width="546" height="327" viewBox="0 0 546 327" fill="none" xmlns="http://www.w3.org/2000/svg">
<rect width="546" height="327" rx="50" fill="#6CBF2A"/>
<g clip-path="url(#clip0_407_2528)">
<path d="M84.4165 103L51.6469 90.5L50.3748 91.6833L55.7498 103L50.3748 114.317L51.6469 115.5L84.4165 103Z" fill="#0E3D68"/>
</g>
<path d="M121.892 88.568L120.088 89.558C119.626 88.524 118.922 87.996 117.668 87.996C116.348 87.996 114.764 88.898 114.522 90.35C114.324 91.648 115.49 92.33 116.458 92.726L117.58 93.188C119.78 94.112 121.342 95.41 120.902 98.182C120.418 101.196 117.734 103.352 114.764 103.352C112.08 103.352 110.32 101.372 110.386 98.71L112.542 98.27C112.234 100.096 113.466 101.416 115.248 101.416C117.03 101.416 118.548 99.92 118.834 98.182C119.12 96.4 117.8 95.63 116.458 95.036L115.402 94.552C113.642 93.738 112.08 92.66 112.454 90.35C112.872 87.666 115.512 86.06 118.02 86.06C119.868 86.06 121.232 86.962 121.892 88.568ZM125.788 94.552L124.446 103H122.466L123.808 94.552H122.73L123.016 92.704H124.094L124.71 88.766H126.69L126.074 92.704H128.01L127.724 94.552H125.788ZM132.13 101.592C134.286 101.592 135.738 99.876 136.068 97.852C136.376 95.85 135.452 94.156 133.318 94.156C131.272 94.156 129.776 95.938 129.468 97.852C129.16 99.788 130.04 101.592 132.13 101.592ZM138.752 92.704L137.124 103H135.144L135.408 101.394H135.364C134.374 102.56 133.01 103.352 131.536 103.352C128.39 103.352 127.026 100.734 127.51 97.786C127.95 94.97 130.216 92.396 133.208 92.396C134.726 92.396 135.848 93.188 136.464 94.42H136.508L136.772 92.704H138.752ZM143.43 92.704L143.166 94.376H143.232C143.914 93.166 145.036 92.396 146.356 92.396C146.928 92.396 147.478 92.594 147.918 92.902L146.73 94.706C146.422 94.398 146.048 94.288 145.586 94.288C143.452 94.288 142.858 96.268 142.594 97.94L141.802 103H139.822L141.45 92.704H143.43ZM151.441 94.552L150.099 103H148.119L149.461 94.552H148.383L148.669 92.704H149.747L150.363 88.766H152.343L151.727 92.704H153.663L153.377 94.552H151.441ZM161.633 92.704L163.591 99.26L167.749 92.132L169.641 99.26L173.667 92.704H175.911L168.981 103.352L167.067 96.466L162.931 103.352L159.389 92.704H161.633ZM179.316 92.704L177.688 103H175.708L177.336 92.704H179.316ZM179.294 86.61C180.042 86.61 180.57 87.226 180.438 87.996C180.328 88.744 179.602 89.338 178.854 89.338C178.106 89.338 177.6 88.744 177.71 87.996C177.842 87.226 178.546 86.61 179.294 86.61ZM184.462 94.552L183.12 103H181.14L182.482 94.552H181.404L181.69 92.704H182.768L183.384 88.766H185.364L184.748 92.704H186.684L186.398 94.552H184.462ZM189.175 83.904H191.155L189.549 94.09H189.593C190.385 92.99 191.705 92.396 192.959 92.396C195.863 92.396 196.303 94.354 195.907 96.862L194.939 103H192.959L193.883 97.104C194.169 95.344 194.125 94.156 192.101 94.156C189.549 94.156 189.197 96.4 188.889 98.27L188.141 103H186.161L189.175 83.904ZM208.7 101.592C210.856 101.592 212.308 99.876 212.638 97.852C212.946 95.85 212.022 94.156 209.888 94.156C207.842 94.156 206.346 95.938 206.038 97.852C205.73 99.788 206.61 101.592 208.7 101.592ZM215.322 92.704L213.694 103H211.714L211.978 101.394H211.934C210.944 102.56 209.58 103.352 208.106 103.352C204.96 103.352 203.596 100.734 204.08 97.786C204.52 94.97 206.786 92.396 209.778 92.396C211.296 92.396 212.418 93.188 213.034 94.42H213.078L213.342 92.704H215.322ZM219.868 92.704L219.648 94.09H219.692C220.484 92.99 221.804 92.396 223.058 92.396C225.962 92.396 226.402 94.354 226.006 96.862L225.038 103H223.058L223.982 97.104C224.268 95.344 224.224 94.156 222.2 94.156C219.648 94.156 219.296 96.4 218.988 98.27L218.24 103H216.26L217.888 92.704H219.868ZM238.183 92.704L236.555 103H234.575L236.203 92.704H238.183ZM238.161 86.61C238.909 86.61 239.437 87.226 239.305 87.996C239.195 88.744 238.469 89.338 237.721 89.338C236.973 89.338 236.467 88.744 236.577 87.996C236.709 87.226 237.413 86.61 238.161 86.61ZM243.329 92.704L243.109 94.09H243.153C243.945 92.99 245.265 92.396 246.519 92.396C249.423 92.396 249.863 94.354 249.467 96.862L248.499 103H246.519L247.443 97.104C247.729 95.344 247.685 94.156 245.661 94.156C243.109 94.156 242.757 96.4 242.449 98.27L241.701 103H239.721L241.349 92.704H243.329ZM252.381 95.124H257.199L256.935 96.774H252.117L252.381 95.124ZM263.206 101.592C265.362 101.592 266.814 99.876 267.144 97.852C267.452 95.85 266.528 94.156 264.394 94.156C262.348 94.156 260.852 95.938 260.544 97.852C260.236 99.788 261.116 101.592 263.206 101.592ZM266.22 103L266.484 101.394H266.44C265.45 102.56 264.064 103.352 262.612 103.352C259.444 103.352 258.102 100.734 258.586 97.786C259.026 94.97 261.292 92.396 264.262 92.396C265.802 92.396 266.924 93.188 267.54 94.42H267.584L269.234 83.904H271.214L268.2 103H266.22ZM280.578 98.182H272.724C272.46 99.942 273.384 101.592 275.276 101.592C276.794 101.592 277.74 100.822 278.686 99.59L280.204 100.536C278.95 102.318 276.97 103.352 274.968 103.352C271.822 103.352 270.304 100.976 270.766 97.94C271.272 94.772 273.34 92.396 276.662 92.396C279.94 92.396 281.106 94.816 280.622 97.874L280.578 98.182ZM273.054 96.686H278.818C278.84 95.146 277.982 94.112 276.398 94.112C274.858 94.112 273.538 95.212 273.054 96.686ZM286.701 101.592C288.857 101.592 290.309 99.876 290.639 97.852C290.947 95.85 290.023 94.156 287.889 94.156C285.843 94.156 284.347 95.938 284.039 97.852C283.731 99.788 284.611 101.592 286.701 101.592ZM284.963 92.704L284.699 94.42H284.743C285.755 93.188 287.097 92.396 288.637 92.396C291.607 92.396 293.081 94.97 292.641 97.786C292.157 100.734 289.979 103.352 286.811 103.352C285.359 103.352 284.237 102.56 283.643 101.394H283.599L282.411 108.896H280.431L282.983 92.704H284.963ZM297.341 94.552L295.999 103H294.019L295.361 94.552H294.283L294.569 92.704H295.647L296.263 88.766H298.243L297.627 92.704H299.563L299.277 94.552H297.341ZM302.054 83.904H304.034L302.428 94.09H302.472C303.264 92.99 304.584 92.396 305.838 92.396C308.742 92.396 309.182 94.354 308.786 96.862L307.818 103H305.838L306.762 97.104C307.048 95.344 307.004 94.156 304.98 94.156C302.428 94.156 302.076 96.4 301.768 98.27L301.02 103H299.04L302.054 83.904ZM321.579 101.592C323.735 101.592 325.187 99.876 325.517 97.852C325.825 95.85 324.901 94.156 322.767 94.156C320.721 94.156 319.225 95.938 318.917 97.852C318.609 99.788 319.489 101.592 321.579 101.592ZM328.201 92.704L326.573 103H324.593L324.857 101.394H324.813C323.823 102.56 322.459 103.352 320.985 103.352C317.839 103.352 316.475 100.734 316.959 97.786C317.399 94.97 319.665 92.396 322.657 92.396C324.175 92.396 325.297 93.188 325.913 94.42H325.957L326.221 92.704H328.201ZM336.267 94.2L334.529 95.058C334.375 94.552 333.935 94.156 333.363 94.156C332.813 94.156 332.219 94.596 332.109 95.168C331.977 96.07 333.099 96.466 334.221 97.016C335.343 97.566 336.399 98.314 336.135 99.942C335.827 101.9 333.957 103.352 332.043 103.352C330.547 103.352 329.183 102.494 328.853 101.042L330.679 100.272C330.965 101.042 331.383 101.592 332.329 101.592C333.165 101.592 333.979 101.02 334.133 100.14C334.221 99.59 333.979 99.326 333.583 99.018L331.801 97.984C330.767 97.368 330.019 96.796 330.239 95.388C330.503 93.716 332.065 92.396 333.737 92.396C334.991 92.396 335.893 93.078 336.267 94.2ZM344.711 94.2L342.973 95.058C342.819 94.552 342.379 94.156 341.807 94.156C341.257 94.156 340.663 94.596 340.553 95.168C340.421 96.07 341.543 96.466 342.665 97.016C343.787 97.566 344.843 98.314 344.579 99.942C344.271 101.9 342.401 103.352 340.487 103.352C338.991 103.352 337.627 102.494 337.297 101.042L339.123 100.272C339.409 101.042 339.827 101.592 340.773 101.592C341.609 101.592 342.423 101.02 342.577 100.14C342.665 99.59 342.423 99.326 342.027 99.018L340.245 97.984C339.211 97.368 338.463 96.796 338.683 95.388C338.947 93.716 340.509 92.396 342.181 92.396C343.435 92.396 344.337 93.078 344.711 94.2ZM355.838 98.182H347.984C347.72 99.942 348.644 101.592 350.536 101.592C352.054 101.592 353 100.822 353.946 99.59L355.464 100.536C354.21 102.318 352.23 103.352 350.228 103.352C347.082 103.352 345.564 100.976 346.026 97.94C346.532 94.772 348.6 92.396 351.922 92.396C355.2 92.396 356.366 94.816 355.882 97.874L355.838 98.182ZM348.314 96.686H354.078C354.1 95.146 353.242 94.112 351.658 94.112C350.118 94.112 348.798 95.212 348.314 96.686ZM363.896 94.2L362.158 95.058C362.004 94.552 361.564 94.156 360.992 94.156C360.442 94.156 359.848 94.596 359.738 95.168C359.606 96.07 360.728 96.466 361.85 97.016C362.972 97.566 364.028 98.314 363.764 99.942C363.456 101.9 361.586 103.352 359.672 103.352C358.176 103.352 356.812 102.494 356.482 101.042L358.308 100.272C358.594 101.042 359.012 101.592 359.958 101.592C360.794 101.592 361.608 101.02 361.762 100.14C361.85 99.59 361.608 99.326 361.212 99.018L359.43 97.984C358.396 97.368 357.648 96.796 357.868 95.388C358.132 93.716 359.694 92.396 361.366 92.396C362.62 92.396 363.522 93.078 363.896 94.2ZM372.34 94.2L370.602 95.058C370.448 94.552 370.008 94.156 369.436 94.156C368.886 94.156 368.292 94.596 368.182 95.168C368.05 96.07 369.172 96.466 370.294 97.016C371.416 97.566 372.472 98.314 372.208 99.942C371.9 101.9 370.03 103.352 368.116 103.352C366.62 103.352 365.256 102.494 364.926 101.042L366.752 100.272C367.038 101.042 367.456 101.592 368.402 101.592C369.238 101.592 370.052 101.02 370.206 100.14C370.294 99.59 370.052 99.326 369.656 99.018L367.874 97.984C366.84 97.368 366.092 96.796 366.312 95.388C366.576 93.716 368.138 92.396 369.81 92.396C371.064 92.396 371.966 93.078 372.34 94.2ZM377.197 92.704L376.999 94.002H377.043C377.747 93.1 378.891 92.396 380.013 92.396C381.355 92.396 382.213 93.078 382.697 94.222C383.511 93.122 384.853 92.396 386.151 92.396C388.857 92.396 389.231 94.508 388.857 96.84L387.889 103H385.909L386.833 97.17C387.031 95.85 387.141 94.156 385.403 94.156C383.291 94.156 382.785 96.356 382.521 97.94L381.729 103H379.749L380.607 97.544C380.827 96.202 381.091 94.156 379.265 94.156C377.153 94.156 376.625 96.334 376.361 97.94L375.569 103H373.589L375.217 92.704H377.197ZM400.332 98.182H392.478C392.214 99.942 393.138 101.592 395.03 101.592C396.548 101.592 397.494 100.822 398.44 99.59L399.958 100.536C398.704 102.318 396.724 103.352 394.722 103.352C391.576 103.352 390.058 100.976 390.52 97.94C391.026 94.772 393.094 92.396 396.416 92.396C399.694 92.396 400.86 94.816 400.376 97.874L400.332 98.182ZM392.808 96.686H398.572C398.594 95.146 397.736 94.112 396.152 94.112C394.612 94.112 393.292 95.212 392.808 96.686ZM404.87 92.704L404.65 94.09H404.694C405.486 92.99 406.806 92.396 408.06 92.396C410.964 92.396 411.404 94.354 411.008 96.862L410.04 103H408.06L408.984 97.104C409.27 95.344 409.226 94.156 407.202 94.156C404.65 94.156 404.298 96.4 403.99 98.27L403.242 103H401.262L402.89 92.704H404.87ZM416.386 94.552L415.044 103H413.064L414.406 94.552H413.328L413.614 92.704H414.692L415.308 88.766H417.288L416.672 92.704H418.608L418.322 94.552H416.386ZM430.542 92.396C433.622 92.396 435.668 94.772 435.184 97.874C434.7 100.976 431.884 103.352 428.804 103.352C425.724 103.352 423.7 100.976 424.184 97.874C424.668 94.772 427.462 92.396 430.542 92.396ZM430.256 94.288C428.298 94.288 426.472 95.916 426.164 97.874C425.856 99.81 427.154 101.46 429.112 101.46C431.07 101.46 432.896 99.81 433.204 97.874C433.512 95.916 432.214 94.288 430.256 94.288ZM444.293 83.904L443.985 85.906C443.611 85.73 443.149 85.488 442.731 85.488C441.323 85.488 441.037 87.27 440.883 88.282L440.179 92.704H442.907L442.621 94.552H439.893L438.551 103H436.571L437.913 94.552H437.011L437.297 92.704H438.199L438.991 87.688C439.343 85.444 440.399 83.64 442.951 83.64C443.435 83.64 443.897 83.728 444.293 83.904ZM451.507 101.24L448.141 92.704H450.451L452.893 99.238L457.161 92.704H459.383L448.493 108.896H446.249L451.507 101.24ZM465.067 92.396C468.147 92.396 470.193 94.772 469.709 97.874C469.225 100.976 466.409 103.352 463.329 103.352C460.249 103.352 458.225 100.976 458.709 97.874C459.193 94.772 461.987 92.396 465.067 92.396ZM464.781 94.288C462.823 94.288 460.997 95.916 460.689 97.874C460.381 99.81 461.679 101.46 463.637 101.46C465.595 101.46 467.421 99.81 467.729 97.874C468.037 95.916 466.739 94.288 464.781 94.288ZM472.24 92.704H474.22L473.318 98.402C473.054 100.052 473.252 101.504 475.21 101.504C477.168 101.504 477.806 100.052 478.07 98.402L478.972 92.704H480.952L480.028 98.622C479.566 101.438 477.938 103.352 474.902 103.352C471.866 103.352 470.854 101.438 471.316 98.622L472.24 92.704ZM485.698 92.704L485.434 94.376H485.5C486.182 93.166 487.304 92.396 488.624 92.396C489.196 92.396 489.746 92.594 490.186 92.902L488.998 94.706C488.69 94.398 488.316 94.288 487.854 94.288C485.72 94.288 485.126 96.268 484.862 97.94L484.07 103H482.09L483.718 92.704H485.698ZM115.028 127.592C117.184 127.592 118.636 125.876 118.966 123.852C119.274 121.85 118.35 120.156 116.216 120.156C114.17 120.156 112.674 121.938 112.366 123.852C112.058 125.788 112.938 127.592 115.028 127.592ZM121.65 118.704L119.098 134.896H117.118L118.306 127.394H118.262C117.272 128.56 115.886 129.352 114.434 129.352C111.266 129.352 109.924 126.734 110.408 123.786C110.848 120.97 113.114 118.396 116.084 118.396C117.624 118.396 118.746 119.188 119.362 120.42H119.406L119.67 118.704H121.65ZM124.129 118.704H126.109L125.207 124.402C124.943 126.052 125.141 127.504 127.099 127.504C129.057 127.504 129.695 126.052 129.959 124.402L130.861 118.704H132.841L131.917 124.622C131.455 127.438 129.827 129.352 126.791 129.352C123.755 129.352 122.743 127.438 123.205 124.622L124.129 118.704ZM138.51 127.592C140.666 127.592 142.118 125.876 142.448 123.852C142.756 121.85 141.832 120.156 139.698 120.156C137.652 120.156 136.156 121.938 135.848 123.852C135.54 125.788 136.42 127.592 138.51 127.592ZM145.132 118.704L143.504 129H141.524L141.788 127.394H141.744C140.754 128.56 139.39 129.352 137.916 129.352C134.77 129.352 133.406 126.734 133.89 123.786C134.33 120.97 136.596 118.396 139.588 118.396C141.106 118.396 142.228 119.188 142.844 120.42H142.888L143.152 118.704H145.132ZM151.153 109.904L148.139 129H146.159L149.173 109.904H151.153ZM155.017 118.704L153.389 129H151.409L153.037 118.704H155.017ZM154.995 112.61C155.743 112.61 156.271 113.226 156.139 113.996C156.029 114.744 155.303 115.338 154.555 115.338C153.807 115.338 153.301 114.744 153.411 113.996C153.543 113.226 154.247 112.61 154.995 112.61ZM166.279 118.704L164.651 129H162.671L164.299 118.704H166.279ZM166.257 112.61C167.005 112.61 167.533 113.226 167.401 113.996C167.291 114.744 166.565 115.338 165.817 115.338C165.069 115.338 164.563 114.744 164.673 113.996C164.805 113.226 165.509 112.61 166.257 112.61ZM164.673 109.904L164.365 111.906C163.991 111.73 163.529 111.488 163.111 111.488C161.703 111.488 161.417 113.27 161.263 114.282L160.559 118.704H163.287L163.001 120.552H160.273L158.931 129H156.951L158.293 120.552H157.391L157.677 118.704H158.579L159.371 113.688C159.723 111.444 160.779 109.64 163.331 109.64C163.815 109.64 164.277 109.728 164.673 109.904ZM176.943 119.078L176.547 121.63C175.909 120.728 175.007 120.244 173.819 120.244C171.883 120.244 170.123 121.96 169.815 123.852C169.485 125.964 170.717 127.504 172.807 127.504C173.951 127.504 174.963 126.976 175.843 126.14L175.425 128.67C174.457 129.154 173.511 129.352 172.477 129.352C169.441 129.352 167.329 127.02 167.813 123.94C168.319 120.75 171.157 118.396 174.325 118.396C175.249 118.396 176.239 118.616 176.943 119.078ZM182.188 127.592C184.344 127.592 185.796 125.876 186.126 123.852C186.434 121.85 185.51 120.156 183.376 120.156C181.33 120.156 179.834 121.938 179.526 123.852C179.218 125.788 180.098 127.592 182.188 127.592ZM188.81 118.704L187.182 129H185.202L185.466 127.394H185.422C184.432 128.56 183.068 129.352 181.594 129.352C178.448 129.352 177.084 126.734 177.568 123.786C178.008 120.97 180.274 118.396 183.266 118.396C184.784 118.396 185.906 119.188 186.522 120.42H186.566L186.83 118.704H188.81ZM193.357 120.552L192.015 129H190.035L191.377 120.552H190.299L190.585 118.704H191.663L192.279 114.766H194.259L193.643 118.704H195.579L195.293 120.552H193.357ZM199.103 118.704L197.475 129H195.495L197.123 118.704H199.103ZM199.081 112.61C199.829 112.61 200.357 113.226 200.225 113.996C200.115 114.744 199.389 115.338 198.641 115.338C197.893 115.338 197.387 114.744 197.497 113.996C197.629 113.226 198.333 112.61 199.081 112.61ZM206.889 118.396C209.969 118.396 212.015 120.772 211.531 123.874C211.047 126.976 208.231 129.352 205.151 129.352C202.071 129.352 200.047 126.976 200.531 123.874C201.015 120.772 203.809 118.396 206.889 118.396ZM206.603 120.288C204.645 120.288 202.819 121.916 202.511 123.874C202.203 125.81 203.501 127.46 205.459 127.46C207.417 127.46 209.243 125.81 209.551 123.874C209.859 121.916 208.561 120.288 206.603 120.288ZM216.13 118.704L215.91 120.09H215.954C216.746 118.99 218.066 118.396 219.32 118.396C222.224 118.396 222.664 120.354 222.268 122.862L221.3 129H219.32L220.244 123.104C220.53 121.344 220.486 120.156 218.462 120.156C215.91 120.156 215.558 122.4 215.25 124.27L214.502 129H212.522L214.15 118.704H216.13ZM231.166 120.2L229.428 121.058C229.274 120.552 228.834 120.156 228.262 120.156C227.712 120.156 227.118 120.596 227.008 121.168C226.876 122.07 227.998 122.466 229.12 123.016C230.242 123.566 231.298 124.314 231.034 125.942C230.726 127.9 228.856 129.352 226.942 129.352C225.446 129.352 224.082 128.494 223.752 127.042L225.578 126.272C225.864 127.042 226.282 127.592 227.228 127.592C228.064 127.592 228.878 127.02 229.032 126.14C229.12 125.59 228.878 125.326 228.482 125.018L226.7 123.984C225.666 123.368 224.918 122.796 225.138 121.388C225.402 119.716 226.964 118.396 228.636 118.396C229.89 118.396 230.792 119.078 231.166 120.2ZM235.143 126.382L236.749 127.064L232.899 132.938L231.755 132.432L235.143 126.382ZM252.328 120.2L250.59 121.058C250.436 120.552 249.996 120.156 249.424 120.156C248.874 120.156 248.28 120.596 248.17 121.168C248.038 122.07 249.16 122.466 250.282 123.016C251.404 123.566 252.46 124.314 252.196 125.942C251.888 127.9 250.018 129.352 248.104 129.352C246.608 129.352 245.244 128.494 244.914 127.042L246.74 126.272C247.026 127.042 247.444 127.592 248.39 127.592C249.226 127.592 250.04 127.02 250.194 126.14C250.282 125.59 250.04 125.326 249.644 125.018L247.862 123.984C246.828 123.368 246.08 122.796 246.3 121.388C246.564 119.716 248.126 118.396 249.798 118.396C251.052 118.396 251.954 119.078 252.328 120.2ZM258.769 109.904L256.767 122.576L261.255 118.704H263.873L258.791 122.972L262.685 129H260.111L257.185 124.314L256.393 124.996L255.755 129H253.775L256.789 109.904H258.769ZM267.853 118.704L266.225 129H264.245L265.873 118.704H267.853ZM267.831 112.61C268.579 112.61 269.107 113.226 268.975 113.996C268.865 114.744 268.139 115.338 267.391 115.338C266.643 115.338 266.137 114.744 266.247 113.996C266.379 113.226 267.083 112.61 267.831 112.61ZM274.473 109.904L271.459 129H269.479L272.493 109.904H274.473ZM279.372 109.904L276.358 129H274.378L277.392 109.904H279.372ZM286.295 120.2L284.557 121.058C284.403 120.552 283.963 120.156 283.391 120.156C282.841 120.156 282.247 120.596 282.137 121.168C282.005 122.07 283.127 122.466 284.249 123.016C285.371 123.566 286.427 124.314 286.163 125.942C285.855 127.9 283.985 129.352 282.071 129.352C280.575 129.352 279.211 128.494 278.881 127.042L280.707 126.272C280.993 127.042 281.411 127.592 282.357 127.592C283.193 127.592 284.007 127.02 284.161 126.14C284.249 125.59 284.007 125.326 283.611 125.018L281.829 123.984C280.795 123.368 280.047 122.796 280.267 121.388C280.531 119.716 282.093 118.396 283.765 118.396C285.019 118.396 285.921 119.078 286.295 120.2ZM298.633 127.592C300.789 127.592 302.241 125.876 302.571 123.852C302.879 121.85 301.955 120.156 299.821 120.156C297.775 120.156 296.279 121.938 295.971 123.852C295.663 125.788 296.543 127.592 298.633 127.592ZM305.255 118.704L303.627 129H301.647L301.911 127.394H301.867C300.877 128.56 299.513 129.352 298.039 129.352C294.893 129.352 293.529 126.734 294.013 123.786C294.453 120.97 296.719 118.396 299.711 118.396C301.229 118.396 302.351 119.188 302.967 120.42H303.011L303.275 118.704H305.255ZM309.802 118.704L309.582 120.09H309.626C310.418 118.99 311.738 118.396 312.992 118.396C315.896 118.396 316.336 120.354 315.94 122.862L314.972 129H312.992L313.916 123.104C314.202 121.344 314.158 120.156 312.134 120.156C309.582 120.156 309.23 122.4 308.922 124.27L308.174 129H306.194L307.822 118.704H309.802ZM322.374 127.592C324.53 127.592 325.982 125.876 326.312 123.852C326.62 121.85 325.696 120.156 323.562 120.156C321.516 120.156 320.02 121.938 319.712 123.852C319.404 125.788 320.284 127.592 322.374 127.592ZM325.388 129L325.652 127.394H325.608C324.618 128.56 323.232 129.352 321.78 129.352C318.612 129.352 317.27 126.734 317.754 123.786C318.194 120.97 320.46 118.396 323.43 118.396C324.97 118.396 326.092 119.188 326.708 120.42H326.752L328.402 109.904H330.382L327.368 129H325.388ZM345.424 119.078L345.028 121.63C344.39 120.728 343.488 120.244 342.3 120.244C340.364 120.244 338.604 121.96 338.296 123.852C337.966 125.964 339.198 127.504 341.288 127.504C342.432 127.504 343.444 126.976 344.324 126.14L343.906 128.67C342.938 129.154 341.992 129.352 340.958 129.352C337.922 129.352 335.81 127.02 336.294 123.94C336.8 120.75 339.638 118.396 342.806 118.396C343.73 118.396 344.72 118.616 345.424 119.078ZM350.669 127.592C352.825 127.592 354.277 125.876 354.607 123.852C354.915 121.85 353.991 120.156 351.857 120.156C349.811 120.156 348.315 121.938 348.007 123.852C347.699 125.788 348.579 127.592 350.669 127.592ZM357.291 118.704L355.663 129H353.683L353.947 127.394H353.903C352.913 128.56 351.549 129.352 350.075 129.352C346.929 129.352 345.565 126.734 346.049 123.786C346.489 120.97 348.755 118.396 351.747 118.396C353.265 118.396 354.387 119.188 355.003 120.42H355.047L355.311 118.704H357.291ZM361.969 118.704L361.705 120.376H361.771C362.453 119.166 363.575 118.396 364.895 118.396C365.467 118.396 366.017 118.594 366.457 118.902L365.269 120.706C364.961 120.398 364.587 120.288 364.125 120.288C361.991 120.288 361.397 122.268 361.133 123.94L360.341 129H358.361L359.989 118.704H361.969ZM375.367 124.182H367.513C367.249 125.942 368.173 127.592 370.065 127.592C371.583 127.592 372.529 126.822 373.475 125.59L374.993 126.536C373.739 128.318 371.759 129.352 369.757 129.352C366.611 129.352 365.093 126.976 365.555 123.94C366.061 120.772 368.129 118.396 371.451 118.396C374.729 118.396 375.895 120.816 375.411 123.874L375.367 124.182ZM367.843 122.686H373.607C373.629 121.146 372.771 120.112 371.187 120.112C369.647 120.112 368.327 121.212 367.843 122.686ZM386.11 124.182H378.256C377.992 125.942 378.916 127.592 380.808 127.592C382.326 127.592 383.272 126.822 384.218 125.59L385.736 126.536C384.482 128.318 382.502 129.352 380.5 129.352C377.354 129.352 375.836 126.976 376.298 123.94C376.804 120.772 378.872 118.396 382.194 118.396C385.472 118.396 386.638 120.816 386.154 123.874L386.11 124.182ZM378.586 122.686H384.35C384.372 121.146 383.514 120.112 381.93 120.112C380.39 120.112 379.07 121.212 378.586 122.686ZM390.78 118.704L390.516 120.376H390.582C391.264 119.166 392.386 118.396 393.706 118.396C394.278 118.396 394.828 118.594 395.268 118.902L394.08 120.706C393.772 120.398 393.398 120.288 392.936 120.288C390.802 120.288 390.208 122.268 389.944 123.94L389.152 129H387.172L388.8 118.704H390.78ZM405.754 127.592C407.91 127.592 409.362 125.876 409.692 123.852C410 121.85 409.076 120.156 406.942 120.156C404.896 120.156 403.4 121.938 403.092 123.852C402.784 125.788 403.664 127.592 405.754 127.592ZM412.376 118.704L410.77 128.802C410.22 132.344 408.812 134.896 404.808 134.896C401.948 134.896 400.144 133.136 400.562 130.232H402.542C402.256 132.08 403.356 133.136 405.16 133.136C407.602 133.136 408.372 131.464 408.702 129.352L409.032 127.394H408.988C407.998 128.56 406.612 129.352 405.16 129.352C401.992 129.352 400.65 126.734 401.134 123.786C401.574 120.97 403.84 118.396 406.81 118.396C408.35 118.396 409.472 119.188 410.066 120.464H410.11L410.396 118.704H412.376ZM419.563 118.396C422.643 118.396 424.689 120.772 424.205 123.874C423.721 126.976 420.905 129.352 417.825 129.352C414.745 129.352 412.721 126.976 413.205 123.874C413.689 120.772 416.483 118.396 419.563 118.396ZM419.277 120.288C417.319 120.288 415.493 121.916 415.185 123.874C414.877 125.81 416.175 127.46 418.133 127.46C420.091 127.46 421.917 125.81 422.225 123.874C422.533 121.916 421.235 120.288 419.277 120.288ZM429.86 127.592C432.016 127.592 433.468 125.876 433.798 123.852C434.106 121.85 433.182 120.156 431.048 120.156C429.002 120.156 427.506 121.938 427.198 123.852C426.89 125.788 427.77 127.592 429.86 127.592ZM436.482 118.704L434.854 129H432.874L433.138 127.394H433.094C432.104 128.56 430.74 129.352 429.266 129.352C426.12 129.352 424.756 126.734 425.24 123.786C425.68 120.97 427.946 118.396 430.938 118.396C432.456 118.396 433.578 119.188 434.194 120.42H434.238L434.502 118.704H436.482ZM442.503 109.904L439.489 129H437.509L440.523 109.904H442.503ZM449.426 120.2L447.688 121.058C447.534 120.552 447.094 120.156 446.522 120.156C445.972 120.156 445.378 120.596 445.268 121.168C445.136 122.07 446.258 122.466 447.38 123.016C448.502 123.566 449.558 124.314 449.294 125.942C448.986 127.9 447.116 129.352 445.202 129.352C443.706 129.352 442.342 128.494 442.012 127.042L443.838 126.272C444.124 127.042 444.542 127.592 445.488 127.592C446.324 127.592 447.138 127.02 447.292 126.14C447.38 125.59 447.138 125.326 446.742 125.018L444.96 123.984C443.926 123.368 443.178 122.796 443.398 121.388C443.662 119.716 445.224 118.396 446.896 118.396C448.15 118.396 449.052 119.078 449.426 120.2ZM452.919 126.8C453.623 126.8 454.107 127.394 453.997 128.076C453.887 128.78 453.205 129.352 452.501 129.352C451.797 129.352 451.335 128.78 451.445 128.076C451.555 127.394 452.215 126.8 452.919 126.8Z" fill="#093761"/>
<g clip-path="url(#clip1_407_2528)">
<path d="M84.4165 184L51.6469 171.5L50.3748 172.683L55.7498 184L50.3748 195.317L51.6469 196.5L84.4165 184Z" fill="#0E3D68"/>
</g>
<path d="M121.21 179.842H113.598L111.046 184H108.824L119.472 166.708L124.664 184H122.442L121.21 179.842ZM120.66 177.95L118.768 171.24L114.764 177.95H120.66ZM129.441 175.552L128.099 184H126.119L127.461 175.552H126.383L126.669 173.704H127.747L128.363 169.766H130.343L129.727 173.704H131.663L131.377 175.552H129.441ZM134.747 175.552L133.405 184H131.425L132.767 175.552H131.689L131.975 173.704H133.053L133.669 169.766H135.649L135.033 173.704H136.969L136.683 175.552H134.747ZM146.237 179.182H138.383C138.119 180.942 139.043 182.592 140.935 182.592C142.453 182.592 143.399 181.822 144.345 180.59L145.863 181.536C144.609 183.318 142.629 184.352 140.627 184.352C137.481 184.352 135.963 181.976 136.425 178.94C136.931 175.772 138.999 173.396 142.321 173.396C145.599 173.396 146.765 175.816 146.281 178.874L146.237 179.182ZM138.713 177.686H144.477C144.499 176.146 143.641 175.112 142.057 175.112C140.517 175.112 139.197 176.212 138.713 177.686ZM150.775 173.704L150.555 175.09H150.599C151.391 173.99 152.711 173.396 153.965 173.396C156.869 173.396 157.309 175.354 156.913 177.862L155.945 184H153.965L154.889 178.104C155.175 176.344 155.131 175.156 153.107 175.156C150.555 175.156 150.203 177.4 149.895 179.27L149.147 184H147.167L148.795 173.704H150.775ZM163.346 182.592C165.502 182.592 166.954 180.876 167.284 178.852C167.592 176.85 166.668 175.156 164.534 175.156C162.488 175.156 160.992 176.938 160.684 178.852C160.376 180.788 161.256 182.592 163.346 182.592ZM166.36 184L166.624 182.394H166.58C165.59 183.56 164.204 184.352 162.752 184.352C159.584 184.352 158.242 181.734 158.726 178.786C159.166 175.97 161.432 173.396 164.402 173.396C165.942 173.396 167.064 174.188 167.68 175.42H167.724L169.374 164.904H171.354L168.34 184H166.36ZM182.458 182.592C184.614 182.592 186.066 180.876 186.396 178.852C186.704 176.85 185.78 175.156 183.646 175.156C181.6 175.156 180.104 176.938 179.796 178.852C179.488 180.788 180.368 182.592 182.458 182.592ZM180.72 173.704L180.456 175.42H180.5C181.512 174.188 182.854 173.396 184.394 173.396C187.364 173.396 188.838 175.97 188.398 178.786C187.914 181.734 185.736 184.352 182.568 184.352C181.116 184.352 179.994 183.56 179.4 182.394H179.356L178.168 189.896H176.188L178.74 173.704H180.72ZM199.303 179.182H191.449C191.185 180.942 192.109 182.592 194.001 182.592C195.519 182.592 196.465 181.822 197.411 180.59L198.929 181.536C197.675 183.318 195.695 184.352 193.693 184.352C190.547 184.352 189.029 181.976 189.491 178.94C189.997 175.772 192.065 173.396 195.387 173.396C198.665 173.396 199.831 175.816 199.347 178.874L199.303 179.182ZM191.779 177.686H197.543C197.565 176.146 196.707 175.112 195.123 175.112C193.583 175.112 192.263 176.212 191.779 177.686ZM203.973 173.704L203.709 175.376H203.775C204.457 174.166 205.579 173.396 206.899 173.396C207.471 173.396 208.021 173.594 208.461 173.902L207.273 175.706C206.965 175.398 206.591 175.288 206.129 175.288C203.995 175.288 203.401 177.268 203.137 178.94L202.345 184H200.365L201.993 173.704H203.973ZM215.074 175.2L213.336 176.058C213.182 175.552 212.742 175.156 212.17 175.156C211.62 175.156 211.026 175.596 210.916 176.168C210.784 177.07 211.906 177.466 213.028 178.016C214.15 178.566 215.206 179.314 214.942 180.942C214.634 182.9 212.764 184.352 210.85 184.352C209.354 184.352 207.99 183.494 207.66 182.042L209.486 181.272C209.772 182.042 210.19 182.592 211.136 182.592C211.972 182.592 212.786 182.02 212.94 181.14C213.028 180.59 212.786 180.326 212.39 180.018L210.608 178.984C209.574 178.368 208.826 177.796 209.046 176.388C209.31 174.716 210.872 173.396 212.544 173.396C213.798 173.396 214.7 174.078 215.074 175.2ZM222.637 173.396C225.717 173.396 227.763 175.772 227.279 178.874C226.795 181.976 223.979 184.352 220.899 184.352C217.819 184.352 215.795 181.976 216.279 178.874C216.763 175.772 219.557 173.396 222.637 173.396ZM222.351 175.288C220.393 175.288 218.567 176.916 218.259 178.874C217.951 180.81 219.249 182.46 221.207 182.46C223.165 182.46 224.991 180.81 225.299 178.874C225.607 176.916 224.309 175.288 222.351 175.288ZM231.878 173.704L231.658 175.09H231.702C232.494 173.99 233.814 173.396 235.068 173.396C237.972 173.396 238.412 175.354 238.016 177.862L237.048 184H235.068L235.992 178.104C236.278 176.344 236.234 175.156 234.21 175.156C231.658 175.156 231.306 177.4 230.998 179.27L230.25 184H228.27L229.898 173.704H231.878ZM244.45 182.592C246.606 182.592 248.058 180.876 248.388 178.852C248.696 176.85 247.772 175.156 245.638 175.156C243.592 175.156 242.096 176.938 241.788 178.852C241.48 180.788 242.36 182.592 244.45 182.592ZM251.072 173.704L249.444 184H247.464L247.728 182.394H247.684C246.694 183.56 245.33 184.352 243.856 184.352C240.71 184.352 239.346 181.734 239.83 178.786C240.27 175.97 242.536 173.396 245.528 173.396C247.046 173.396 248.168 174.188 248.784 175.42H248.828L249.092 173.704H251.072ZM257.092 164.904L254.078 184H252.098L255.112 164.904H257.092ZM260.957 173.704L259.329 184H257.349L258.977 173.704H260.957ZM260.935 167.61C261.683 167.61 262.211 168.226 262.079 168.996C261.969 169.744 261.243 170.338 260.495 170.338C259.747 170.338 259.241 169.744 259.351 168.996C259.483 168.226 260.187 167.61 260.935 167.61ZM265.311 182.152H271.999L271.713 184H261.175L269.491 175.552H263.705L263.991 173.704H273.627L265.311 182.152ZM283.199 179.182H275.345C275.081 180.942 276.005 182.592 277.897 182.592C279.415 182.592 280.361 181.822 281.307 180.59L282.825 181.536C281.571 183.318 279.591 184.352 277.589 184.352C274.443 184.352 272.925 181.976 273.387 178.94C273.893 175.772 275.961 173.396 279.283 173.396C282.561 173.396 283.727 175.816 283.243 178.874L283.199 179.182ZM275.675 177.686H281.439C281.461 176.146 280.603 175.112 279.019 175.112C277.479 175.112 276.159 176.212 275.675 177.686ZM288.794 182.592C290.95 182.592 292.402 180.876 292.732 178.852C293.04 176.85 292.116 175.156 289.982 175.156C287.936 175.156 286.44 176.938 286.132 178.852C285.824 180.788 286.704 182.592 288.794 182.592ZM291.808 184L292.072 182.394H292.028C291.038 183.56 289.652 184.352 288.2 184.352C285.032 184.352 283.69 181.734 284.174 178.786C284.614 175.97 286.88 173.396 289.85 173.396C291.39 173.396 292.512 174.188 293.128 175.42H293.172L294.822 164.904H296.802L293.788 184H291.808ZM311.844 174.078L311.448 176.63C310.81 175.728 309.908 175.244 308.72 175.244C306.784 175.244 305.024 176.96 304.716 178.852C304.386 180.964 305.618 182.504 307.708 182.504C308.852 182.504 309.864 181.976 310.744 181.14L310.326 183.67C309.358 184.154 308.412 184.352 307.378 184.352C304.342 184.352 302.23 182.02 302.714 178.94C303.22 175.75 306.058 173.396 309.226 173.396C310.15 173.396 311.14 173.616 311.844 174.078ZM318.415 173.396C321.495 173.396 323.541 175.772 323.057 178.874C322.573 181.976 319.757 184.352 316.677 184.352C313.597 184.352 311.573 181.976 312.057 178.874C312.541 175.772 315.335 173.396 318.415 173.396ZM318.129 175.288C316.171 175.288 314.345 176.916 314.037 178.874C313.729 180.81 315.027 182.46 316.985 182.46C318.943 182.46 320.769 180.81 321.077 178.874C321.385 176.916 320.087 175.288 318.129 175.288ZM325.588 173.704H327.568L326.666 179.402C326.402 181.052 326.6 182.504 328.558 182.504C330.516 182.504 331.154 181.052 331.418 179.402L332.32 173.704H334.3L333.376 179.622C332.914 182.438 331.286 184.352 328.25 184.352C325.214 184.352 324.202 182.438 324.664 179.622L325.588 173.704ZM338.913 173.704L338.693 175.09H338.737C339.529 173.99 340.849 173.396 342.103 173.396C345.007 173.396 345.447 175.354 345.051 177.862L344.083 184H342.103L343.027 178.104C343.313 176.344 343.269 175.156 341.245 175.156C338.693 175.156 338.341 177.4 338.033 179.27L337.285 184H335.305L336.933 173.704H338.913ZM353.949 175.2L352.211 176.058C352.057 175.552 351.617 175.156 351.045 175.156C350.495 175.156 349.901 175.596 349.791 176.168C349.659 177.07 350.781 177.466 351.903 178.016C353.025 178.566 354.081 179.314 353.817 180.942C353.509 182.9 351.639 184.352 349.725 184.352C348.229 184.352 346.865 183.494 346.535 182.042L348.361 181.272C348.647 182.042 349.065 182.592 350.011 182.592C350.847 182.592 351.661 182.02 351.815 181.14C351.903 180.59 351.661 180.326 351.265 180.018L349.483 178.984C348.449 178.368 347.701 177.796 347.921 176.388C348.185 174.716 349.747 173.396 351.419 173.396C352.673 173.396 353.575 174.078 353.949 175.2ZM365.076 179.182H357.222C356.958 180.942 357.882 182.592 359.774 182.592C361.292 182.592 362.238 181.822 363.184 180.59L364.702 181.536C363.448 183.318 361.468 184.352 359.466 184.352C356.32 184.352 354.802 181.976 355.264 178.94C355.77 175.772 357.838 173.396 361.16 173.396C364.438 173.396 365.604 175.816 365.12 178.874L365.076 179.182ZM357.552 177.686H363.316C363.338 176.146 362.48 175.112 360.896 175.112C359.356 175.112 358.036 176.212 357.552 177.686ZM371.089 164.904L368.075 184H366.095L369.109 164.904H371.089ZM374.953 173.704L373.325 184H371.345L372.973 173.704H374.953ZM374.931 167.61C375.679 167.61 376.207 168.226 376.075 168.996C375.965 169.744 375.239 170.338 374.491 170.338C373.743 170.338 373.237 169.744 373.347 168.996C373.479 168.226 374.183 167.61 374.931 167.61ZM380.099 173.704L379.879 175.09H379.923C380.715 173.99 382.035 173.396 383.289 173.396C386.193 173.396 386.633 175.354 386.237 177.862L385.269 184H383.289L384.213 178.104C384.499 176.344 384.455 175.156 382.431 175.156C379.879 175.156 379.527 177.4 379.219 179.27L378.471 184H376.491L378.119 173.704H380.099ZM392.649 182.592C394.805 182.592 396.257 180.876 396.587 178.852C396.895 176.85 395.971 175.156 393.837 175.156C391.791 175.156 390.295 176.938 389.987 178.852C389.679 180.788 390.559 182.592 392.649 182.592ZM399.271 173.704L397.665 183.802C397.115 187.344 395.707 189.896 391.703 189.896C388.843 189.896 387.039 188.136 387.457 185.232H389.437C389.151 187.08 390.251 188.136 392.055 188.136C394.497 188.136 395.267 186.464 395.597 184.352L395.927 182.394H395.883C394.893 183.56 393.507 184.352 392.055 184.352C388.887 184.352 387.545 181.734 388.029 178.786C388.469 175.97 390.735 173.396 393.705 173.396C395.245 173.396 396.367 174.188 396.961 175.464H397.005L397.291 173.704H399.271ZM413.697 175.2L411.959 176.058C411.805 175.552 411.365 175.156 410.793 175.156C410.243 175.156 409.649 175.596 409.539 176.168C409.407 177.07 410.529 177.466 411.651 178.016C412.773 178.566 413.829 179.314 413.565 180.942C413.257 182.9 411.387 184.352 409.473 184.352C407.977 184.352 406.613 183.494 406.283 182.042L408.109 181.272C408.395 182.042 408.813 182.592 409.759 182.592C410.595 182.592 411.409 182.02 411.563 181.14C411.651 180.59 411.409 180.326 411.013 180.018L409.231 178.984C408.197 178.368 407.449 177.796 407.669 176.388C407.933 174.716 409.495 173.396 411.167 173.396C412.421 173.396 413.323 174.078 413.697 175.2ZM424.824 179.182H416.97C416.706 180.942 417.63 182.592 419.522 182.592C421.04 182.592 421.986 181.822 422.932 180.59L424.45 181.536C423.196 183.318 421.216 184.352 419.214 184.352C416.068 184.352 414.55 181.976 415.012 178.94C415.518 175.772 417.586 173.396 420.908 173.396C424.186 173.396 425.352 175.816 424.868 178.874L424.824 179.182ZM417.3 177.686H423.064C423.086 176.146 422.228 175.112 420.644 175.112C419.104 175.112 417.784 176.212 417.3 177.686ZM432.883 175.2L431.145 176.058C430.991 175.552 430.551 175.156 429.979 175.156C429.429 175.156 428.835 175.596 428.725 176.168C428.593 177.07 429.715 177.466 430.837 178.016C431.959 178.566 433.015 179.314 432.751 180.942C432.443 182.9 430.573 184.352 428.659 184.352C427.163 184.352 425.799 183.494 425.469 182.042L427.295 181.272C427.581 182.042 427.999 182.592 428.945 182.592C429.781 182.592 430.595 182.02 430.749 181.14C430.837 180.59 430.595 180.326 430.199 180.018L428.417 178.984C427.383 178.368 426.635 177.796 426.855 176.388C427.119 174.716 428.681 173.396 430.353 173.396C431.607 173.396 432.509 174.078 432.883 175.2ZM441.326 175.2L439.588 176.058C439.434 175.552 438.994 175.156 438.422 175.156C437.872 175.156 437.278 175.596 437.168 176.168C437.036 177.07 438.158 177.466 439.28 178.016C440.402 178.566 441.458 179.314 441.194 180.942C440.886 182.9 439.016 184.352 437.102 184.352C435.606 184.352 434.242 183.494 433.912 182.042L435.738 181.272C436.024 182.042 436.442 182.592 437.388 182.592C438.224 182.592 439.038 182.02 439.192 181.14C439.28 180.59 439.038 180.326 438.642 180.018L436.86 178.984C435.826 178.368 435.078 177.796 435.298 176.388C435.562 174.716 437.124 173.396 438.796 173.396C440.05 173.396 440.952 174.078 441.326 175.2ZM446.689 173.704L445.061 184H443.081L444.709 173.704H446.689ZM446.667 167.61C447.415 167.61 447.943 168.226 447.811 168.996C447.701 169.744 446.975 170.338 446.227 170.338C445.479 170.338 444.973 169.744 445.083 168.996C445.215 168.226 445.919 167.61 446.667 167.61ZM454.475 173.396C457.555 173.396 459.601 175.772 459.117 178.874C458.633 181.976 455.817 184.352 452.737 184.352C449.657 184.352 447.633 181.976 448.117 178.874C448.601 175.772 451.395 173.396 454.475 173.396ZM454.189 175.288C452.231 175.288 450.405 176.916 450.097 178.874C449.789 180.81 451.087 182.46 453.045 182.46C455.003 182.46 456.829 180.81 457.137 178.874C457.445 176.916 456.147 175.288 454.189 175.288ZM463.716 173.704L463.496 175.09H463.54C464.332 173.99 465.652 173.396 466.906 173.396C469.81 173.396 470.25 175.354 469.854 177.862L468.886 184H466.906L467.83 178.104C468.116 176.344 468.072 175.156 466.048 175.156C463.496 175.156 463.144 177.4 462.836 179.27L462.088 184H460.108L461.736 173.704H463.716ZM478.752 175.2L477.014 176.058C476.86 175.552 476.42 175.156 475.848 175.156C475.298 175.156 474.704 175.596 474.594 176.168C474.462 177.07 475.584 177.466 476.706 178.016C477.828 178.566 478.884 179.314 478.62 180.942C478.312 182.9 476.442 184.352 474.528 184.352C473.032 184.352 471.668 183.494 471.338 182.042L473.164 181.272C473.45 182.042 473.868 182.592 474.814 182.592C475.65 182.592 476.464 182.02 476.618 181.14C476.706 180.59 476.464 180.326 476.068 180.018L474.286 178.984C473.252 178.368 472.504 177.796 472.724 176.388C472.988 174.716 474.55 173.396 476.222 173.396C477.476 173.396 478.378 174.078 478.752 175.2ZM113.972 201.552L112.63 210H110.65L111.992 201.552H110.914L111.2 199.704H112.278L112.894 195.766H114.874L114.258 199.704H116.194L115.908 201.552H113.972ZM121.897 199.396C124.977 199.396 127.023 201.772 126.539 204.874C126.055 207.976 123.239 210.352 120.159 210.352C117.079 210.352 115.055 207.976 115.539 204.874C116.023 201.772 118.817 199.396 121.897 199.396ZM121.611 201.288C119.653 201.288 117.827 202.916 117.519 204.874C117.211 206.81 118.509 208.46 120.467 208.46C122.425 208.46 124.251 206.81 124.559 204.874C124.867 202.916 123.569 201.288 121.611 201.288ZM137.937 199.704L136.309 210H134.329L135.957 199.704H137.937ZM137.915 193.61C138.663 193.61 139.191 194.226 139.059 194.996C138.949 195.744 138.223 196.338 137.475 196.338C136.727 196.338 136.221 195.744 136.331 194.996C136.463 194.226 137.167 193.61 137.915 193.61ZM144.139 208.592C146.295 208.592 147.747 206.876 148.077 204.852C148.385 202.85 147.461 201.156 145.327 201.156C143.281 201.156 141.785 202.938 141.477 204.852C141.169 206.788 142.049 208.592 144.139 208.592ZM147.153 210L147.417 208.394H147.373C146.383 209.56 144.997 210.352 143.545 210.352C140.377 210.352 139.035 207.734 139.519 204.786C139.959 201.97 142.225 199.396 145.195 199.396C146.735 199.396 147.857 200.188 148.473 201.42H148.517L150.167 190.904H152.147L149.133 210H147.153ZM161.512 205.182H153.658C153.394 206.942 154.318 208.592 156.21 208.592C157.728 208.592 158.674 207.822 159.62 206.59L161.138 207.536C159.884 209.318 157.904 210.352 155.902 210.352C152.756 210.352 151.238 207.976 151.7 204.94C152.206 201.772 154.274 199.396 157.596 199.396C160.874 199.396 162.04 201.816 161.556 204.874L161.512 205.182ZM153.988 203.686H159.752C159.774 202.146 158.916 201.112 157.332 201.112C155.792 201.112 154.472 202.212 153.988 203.686ZM166.05 199.704L165.83 201.09H165.874C166.666 199.99 167.986 199.396 169.24 199.396C172.144 199.396 172.584 201.354 172.188 203.862L171.22 210H169.24L170.164 204.104C170.45 202.344 170.406 201.156 168.382 201.156C165.83 201.156 165.478 203.4 165.17 205.27L164.422 210H162.442L164.07 199.704H166.05ZM177.566 201.552L176.224 210H174.244L175.586 201.552H174.508L174.794 199.704H175.872L176.488 195.766H178.468L177.852 199.704H179.788L179.502 201.552H177.566ZM183.312 199.704L181.684 210H179.704L181.332 199.704H183.312ZM183.29 193.61C184.038 193.61 184.566 194.226 184.434 194.996C184.324 195.744 183.598 196.338 182.85 196.338C182.102 196.338 181.596 195.744 181.706 194.996C181.838 194.226 182.542 193.61 183.29 193.61ZM192.968 190.904L192.66 192.906C192.286 192.73 191.824 192.488 191.406 192.488C189.998 192.488 189.712 194.27 189.558 195.282L188.854 199.704H191.582L191.296 201.552H188.568L187.226 210H185.246L186.588 201.552H185.686L185.972 199.704H186.874L187.666 194.688C188.018 192.444 189.074 190.64 191.626 190.64C192.11 190.64 192.572 190.728 192.968 190.904ZM194.253 208.24L190.887 199.704H193.197L195.639 206.238L199.907 199.704H202.129L191.239 215.896H188.995L194.253 208.24ZM210.839 208.24L207.473 199.704H209.783L212.225 206.238L216.493 199.704H218.715L207.825 215.896H205.581L210.839 208.24ZM224.399 199.396C227.479 199.396 229.525 201.772 229.041 204.874C228.557 207.976 225.741 210.352 222.661 210.352C219.581 210.352 217.557 207.976 218.041 204.874C218.525 201.772 221.319 199.396 224.399 199.396ZM224.113 201.288C222.155 201.288 220.329 202.916 220.021 204.874C219.713 206.81 221.011 208.46 222.969 208.46C224.927 208.46 226.753 206.81 227.061 204.874C227.369 202.916 226.071 201.288 224.113 201.288ZM231.572 199.704H233.552L232.65 205.402C232.386 207.052 232.584 208.504 234.542 208.504C236.5 208.504 237.138 207.052 237.402 205.402L238.304 199.704H240.284L239.36 205.622C238.898 208.438 237.27 210.352 234.234 210.352C231.198 210.352 230.186 208.438 230.648 205.622L231.572 199.704ZM245.03 199.704L244.766 201.376H244.832C245.514 200.166 246.636 199.396 247.956 199.396C248.528 199.396 249.078 199.594 249.518 199.902L248.33 201.706C248.022 201.398 247.648 201.288 247.186 201.288C245.052 201.288 244.458 203.268 244.194 204.94L243.402 210H241.422L243.05 199.704H245.03ZM262.49 201.2L260.752 202.058C260.598 201.552 260.158 201.156 259.586 201.156C259.036 201.156 258.442 201.596 258.332 202.168C258.2 203.07 259.322 203.466 260.444 204.016C261.566 204.566 262.622 205.314 262.358 206.942C262.05 208.9 260.18 210.352 258.266 210.352C256.77 210.352 255.406 209.494 255.076 208.042L256.902 207.272C257.188 208.042 257.606 208.592 258.552 208.592C259.388 208.592 260.202 208.02 260.356 207.14C260.444 206.59 260.202 206.326 259.806 206.018L258.024 204.984C256.99 204.368 256.242 203.796 256.462 202.388C256.726 200.716 258.288 199.396 259.96 199.396C261.214 199.396 262.116 200.078 262.49 201.2ZM267.413 201.552L266.071 210H264.091L265.433 201.552H264.355L264.641 199.704H265.719L266.335 195.766H268.315L267.699 199.704H269.635L269.349 201.552H267.413ZM272.831 199.704L272.567 201.376H272.633C273.315 200.166 274.437 199.396 275.757 199.396C276.329 199.396 276.879 199.594 277.319 199.902L276.131 201.706C275.823 201.398 275.449 201.288 274.987 201.288C272.853 201.288 272.259 203.268 271.995 204.94L271.203 210H269.223L270.851 199.704H272.831ZM286.229 205.182H278.375C278.111 206.942 279.035 208.592 280.927 208.592C282.445 208.592 283.391 207.822 284.337 206.59L285.855 207.536C284.601 209.318 282.621 210.352 280.619 210.352C277.473 210.352 275.955 207.976 276.417 204.94C276.923 201.772 278.991 199.396 282.313 199.396C285.591 199.396 286.757 201.816 286.273 204.874L286.229 205.182ZM278.705 203.686H284.469C284.491 202.146 283.633 201.112 282.049 201.112C280.509 201.112 279.189 202.212 278.705 203.686ZM290.767 199.704L290.547 201.09H290.591C291.383 199.99 292.703 199.396 293.957 199.396C296.861 199.396 297.301 201.354 296.905 203.862L295.937 210H293.957L294.881 204.104C295.167 202.344 295.123 201.156 293.099 201.156C290.547 201.156 290.195 203.4 289.887 205.27L289.139 210H287.159L288.787 199.704H290.767ZM303.317 208.592C305.473 208.592 306.925 206.876 307.255 204.852C307.563 202.85 306.639 201.156 304.505 201.156C302.459 201.156 300.963 202.938 300.655 204.852C300.347 206.788 301.227 208.592 303.317 208.592ZM309.939 199.704L308.333 209.802C307.783 213.344 306.375 215.896 302.371 215.896C299.511 215.896 297.707 214.136 298.125 211.232H300.105C299.819 213.08 300.919 214.136 302.723 214.136C305.165 214.136 305.935 212.464 306.265 210.352L306.595 208.394H306.551C305.561 209.56 304.175 210.352 302.723 210.352C299.555 210.352 298.213 207.734 298.697 204.786C299.137 201.97 301.403 199.396 304.373 199.396C305.913 199.396 307.035 200.188 307.629 201.464H307.673L307.959 199.704H309.939ZM314.486 201.552L313.144 210H311.164L312.506 201.552H311.428L311.714 199.704H312.792L313.408 195.766H315.388L314.772 199.704H316.708L316.422 201.552H314.486ZM319.198 190.904H321.178L319.572 201.09H319.616C320.408 199.99 321.728 199.396 322.982 199.396C325.886 199.396 326.326 201.354 325.93 203.862L324.962 210H322.982L323.906 204.104C324.192 202.344 324.148 201.156 322.124 201.156C319.572 201.156 319.22 203.4 318.912 205.27L318.164 210H316.184L319.198 190.904ZM334.828 201.2L333.09 202.058C332.936 201.552 332.496 201.156 331.924 201.156C331.374 201.156 330.78 201.596 330.67 202.168C330.538 203.07 331.66 203.466 332.782 204.016C333.904 204.566 334.96 205.314 334.696 206.942C334.388 208.9 332.518 210.352 330.604 210.352C329.108 210.352 327.744 209.494 327.414 208.042L329.24 207.272C329.526 208.042 329.944 208.592 330.89 208.592C331.726 208.592 332.54 208.02 332.694 207.14C332.782 206.59 332.54 206.326 332.144 206.018L330.362 204.984C329.328 204.368 328.58 203.796 328.8 202.388C329.064 200.716 330.626 199.396 332.298 199.396C333.552 199.396 334.454 200.078 334.828 201.2ZM338.805 207.382L340.411 208.064L336.561 213.938L335.417 213.432L338.805 207.382ZM351.018 199.704L352.976 206.26L357.134 199.132L359.026 206.26L363.052 199.704H365.296L358.366 210.352L356.452 203.466L352.316 210.352L348.774 199.704H351.018ZM374.465 205.182H366.611C366.347 206.942 367.271 208.592 369.163 208.592C370.681 208.592 371.627 207.822 372.573 206.59L374.091 207.536C372.837 209.318 370.857 210.352 368.855 210.352C365.709 210.352 364.191 207.976 364.653 204.94C365.159 201.772 367.227 199.396 370.549 199.396C373.827 199.396 374.993 201.816 374.509 204.874L374.465 205.182ZM366.941 203.686H372.705C372.727 202.146 371.869 201.112 370.285 201.112C368.745 201.112 367.425 202.212 366.941 203.686ZM380.059 208.592C382.215 208.592 383.667 206.876 383.997 204.852C384.305 202.85 383.381 201.156 381.247 201.156C379.201 201.156 377.705 202.938 377.397 204.852C377.089 206.788 377.969 208.592 380.059 208.592ZM386.681 199.704L385.053 210H383.073L383.337 208.394H383.293C382.303 209.56 380.939 210.352 379.465 210.352C376.319 210.352 374.955 207.734 375.439 204.786C375.879 201.97 378.145 199.396 381.137 199.396C382.655 199.396 383.777 200.188 384.393 201.42H384.437L384.701 199.704H386.681ZM392.746 190.904L390.744 203.576L395.232 199.704H397.85L392.768 203.972L396.662 210H394.088L391.162 205.314L390.37 205.996L389.732 210H387.752L390.766 190.904H392.746ZM401.39 199.704L401.17 201.09H401.214C402.006 199.99 403.326 199.396 404.58 199.396C407.484 199.396 407.924 201.354 407.528 203.862L406.56 210H404.58L405.504 204.104C405.79 202.344 405.746 201.156 403.722 201.156C401.17 201.156 400.818 203.4 400.51 205.27L399.762 210H397.782L399.41 199.704H401.39ZM419.11 205.182H411.256C410.992 206.942 411.916 208.592 413.808 208.592C415.326 208.592 416.272 207.822 417.218 206.59L418.736 207.536C417.482 209.318 415.502 210.352 413.5 210.352C410.354 210.352 408.836 207.976 409.298 204.94C409.804 201.772 411.872 199.396 415.194 199.396C418.472 199.396 419.638 201.816 419.154 204.874L419.11 205.182ZM411.586 203.686H417.35C417.372 202.146 416.514 201.112 414.93 201.112C413.39 201.112 412.07 202.212 411.586 203.686ZM427.168 201.2L425.43 202.058C425.276 201.552 424.836 201.156 424.264 201.156C423.714 201.156 423.12 201.596 423.01 202.168C422.878 203.07 424 203.466 425.122 204.016C426.244 204.566 427.3 205.314 427.036 206.942C426.728 208.9 424.858 210.352 422.944 210.352C421.448 210.352 420.084 209.494 419.754 208.042L421.58 207.272C421.866 208.042 422.284 208.592 423.23 208.592C424.066 208.592 424.88 208.02 425.034 207.14C425.122 206.59 424.88 206.326 424.484 206.018L422.702 204.984C421.668 204.368 420.92 203.796 421.14 202.388C421.404 200.716 422.966 199.396 424.638 199.396C425.892 199.396 426.794 200.078 427.168 201.2ZM435.611 201.2L433.873 202.058C433.719 201.552 433.279 201.156 432.707 201.156C432.157 201.156 431.563 201.596 431.453 202.168C431.321 203.07 432.443 203.466 433.565 204.016C434.687 204.566 435.743 205.314 435.479 206.942C435.171 208.9 433.301 210.352 431.387 210.352C429.891 210.352 428.527 209.494 428.197 208.042L430.023 207.272C430.309 208.042 430.727 208.592 431.673 208.592C432.509 208.592 433.323 208.02 433.477 207.14C433.565 206.59 433.323 206.326 432.927 206.018L431.145 204.984C430.111 204.368 429.363 203.796 429.583 202.388C429.847 200.716 431.409 199.396 433.081 199.396C434.335 199.396 435.237 200.078 435.611 201.2ZM446.739 205.182H438.885C438.621 206.942 439.545 208.592 441.437 208.592C442.955 208.592 443.901 207.822 444.847 206.59L446.365 207.536C445.111 209.318 443.131 210.352 441.129 210.352C437.983 210.352 436.465 207.976 436.927 204.94C437.433 201.772 439.501 199.396 442.823 199.396C446.101 199.396 447.267 201.816 446.783 204.874L446.739 205.182ZM439.215 203.686H444.979C445.001 202.146 444.143 201.112 442.559 201.112C441.019 201.112 439.699 202.212 439.215 203.686ZM454.797 201.2L453.059 202.058C452.905 201.552 452.465 201.156 451.893 201.156C451.343 201.156 450.749 201.596 450.639 202.168C450.507 203.07 451.629 203.466 452.751 204.016C453.873 204.566 454.929 205.314 454.665 206.942C454.357 208.9 452.487 210.352 450.573 210.352C449.077 210.352 447.713 209.494 447.383 208.042L449.209 207.272C449.495 208.042 449.913 208.592 450.859 208.592C451.695 208.592 452.509 208.02 452.663 207.14C452.751 206.59 452.509 206.326 452.113 206.018L450.331 204.984C449.297 204.368 448.549 203.796 448.769 202.388C449.033 200.716 450.595 199.396 452.267 199.396C453.521 199.396 454.423 200.078 454.797 201.2ZM467.135 208.592C469.291 208.592 470.743 206.876 471.073 204.852C471.381 202.85 470.457 201.156 468.323 201.156C466.277 201.156 464.781 202.938 464.473 204.852C464.165 206.788 465.045 208.592 467.135 208.592ZM473.757 199.704L472.129 210H470.149L470.413 208.394H470.369C469.379 209.56 468.015 210.352 466.541 210.352C463.395 210.352 462.031 207.734 462.515 204.786C462.955 201.97 465.221 199.396 468.213 199.396C469.731 199.396 470.853 200.188 471.469 201.42H471.513L471.777 199.704H473.757ZM478.304 199.704L478.084 201.09H478.128C478.92 199.99 480.24 199.396 481.494 199.396C484.398 199.396 484.838 201.354 484.442 203.862L483.474 210H481.494L482.418 204.104C482.704 202.344 482.66 201.156 480.636 201.156C478.084 201.156 477.732 203.4 477.424 205.27L476.676 210H474.696L476.324 199.704H478.304ZM490.876 208.592C493.032 208.592 494.484 206.876 494.814 204.852C495.122 202.85 494.198 201.156 492.064 201.156C490.018 201.156 488.522 202.938 488.214 204.852C487.906 206.788 488.786 208.592 490.876 208.592ZM493.89 210L494.154 208.394H494.11C493.12 209.56 491.734 210.352 490.282 210.352C487.114 210.352 485.772 207.734 486.256 204.786C486.696 201.97 488.962 199.396 491.932 199.396C493.472 199.396 494.594 200.188 495.21 201.42H495.254L496.904 190.904H498.884L495.87 210H493.89ZM117.492 227.2L115.754 228.058C115.6 227.552 115.16 227.156 114.588 227.156C114.038 227.156 113.444 227.596 113.334 228.168C113.202 229.07 114.324 229.466 115.446 230.016C116.568 230.566 117.624 231.314 117.36 232.942C117.052 234.9 115.182 236.352 113.268 236.352C111.772 236.352 110.408 235.494 110.078 234.042L111.904 233.272C112.19 234.042 112.608 234.592 113.554 234.592C114.39 234.592 115.204 234.02 115.358 233.14C115.446 232.59 115.204 232.326 114.808 232.018L113.026 230.984C111.992 230.368 111.244 229.796 111.464 228.388C111.728 226.716 113.29 225.396 114.962 225.396C116.216 225.396 117.118 226.078 117.492 227.2ZM123.999 234.592C126.155 234.592 127.607 232.876 127.937 230.852C128.245 228.85 127.321 227.156 125.187 227.156C123.141 227.156 121.645 228.938 121.337 230.852C121.029 232.788 121.909 234.592 123.999 234.592ZM122.261 225.704L121.997 227.42H122.041C123.053 226.188 124.395 225.396 125.935 225.396C128.905 225.396 130.379 227.97 129.939 230.786C129.455 233.734 127.277 236.352 124.109 236.352C122.657 236.352 121.535 235.56 120.941 234.394H120.897L119.709 241.896H117.729L120.281 225.704H122.261ZM140.844 231.182H132.99C132.726 232.942 133.65 234.592 135.542 234.592C137.06 234.592 138.006 233.822 138.952 232.59L140.47 233.536C139.216 235.318 137.236 236.352 135.234 236.352C132.088 236.352 130.57 233.976 131.032 230.94C131.538 227.772 133.606 225.396 136.928 225.396C140.206 225.396 141.372 227.816 140.888 230.874L140.844 231.182ZM133.32 229.686H139.084C139.106 228.146 138.248 227.112 136.664 227.112C135.124 227.112 133.804 228.212 133.32 229.686ZM150.904 226.078L150.508 228.63C149.87 227.728 148.968 227.244 147.78 227.244C145.844 227.244 144.084 228.96 143.776 230.852C143.446 232.964 144.678 234.504 146.768 234.504C147.912 234.504 148.924 233.976 149.804 233.14L149.386 235.67C148.418 236.154 147.472 236.352 146.438 236.352C143.402 236.352 141.29 234.02 141.774 230.94C142.28 227.75 145.118 225.396 148.286 225.396C149.21 225.396 150.2 225.616 150.904 226.078ZM155.533 225.704L153.905 236H151.925L153.553 225.704H155.533ZM155.511 219.61C156.259 219.61 156.787 220.226 156.655 220.996C156.545 221.744 155.819 222.338 155.071 222.338C154.323 222.338 153.817 221.744 153.927 220.996C154.059 220.226 154.763 219.61 155.511 219.61ZM166.795 225.704L165.167 236H163.187L164.815 225.704H166.795ZM166.773 219.61C167.521 219.61 168.049 220.226 167.917 220.996C167.807 221.744 167.081 222.338 166.333 222.338C165.585 222.338 165.079 221.744 165.189 220.996C165.321 220.226 166.025 219.61 166.773 219.61ZM165.189 216.904L164.881 218.906C164.507 218.73 164.045 218.488 163.627 218.488C162.219 218.488 161.933 220.27 161.779 221.282L161.075 225.704H163.803L163.517 227.552H160.789L159.447 236H157.467L158.809 227.552H157.907L158.193 225.704H159.095L159.887 220.688C160.239 218.444 161.295 216.64 163.847 216.64C164.331 216.64 164.793 216.728 165.189 216.904ZM177.459 226.078L177.063 228.63C176.425 227.728 175.523 227.244 174.335 227.244C172.399 227.244 170.639 228.96 170.331 230.852C170.001 232.964 171.233 234.504 173.323 234.504C174.467 234.504 175.479 233.976 176.359 233.14L175.941 235.67C174.973 236.154 174.027 236.352 172.993 236.352C169.957 236.352 167.845 234.02 168.329 230.94C168.835 227.75 171.673 225.396 174.841 225.396C175.765 225.396 176.755 225.616 177.459 226.078ZM188.007 225.704L187.787 227.09H187.831C188.623 225.99 189.943 225.396 191.197 225.396C194.101 225.396 194.541 227.354 194.145 229.862L193.177 236H191.197L192.121 230.104C192.407 228.344 192.363 227.156 190.339 227.156C187.787 227.156 187.435 229.4 187.127 231.27L186.379 236H184.399L186.027 225.704H188.007ZM205.727 231.182H197.873C197.609 232.942 198.533 234.592 200.425 234.592C201.943 234.592 202.889 233.822 203.835 232.59L205.353 233.536C204.099 235.318 202.119 236.352 200.117 236.352C196.971 236.352 195.453 233.976 195.915 230.94C196.421 227.772 198.489 225.396 201.811 225.396C205.089 225.396 206.255 227.816 205.771 230.874L205.727 231.182ZM198.203 229.686H203.967C203.989 228.146 203.131 227.112 201.547 227.112C200.007 227.112 198.687 228.212 198.203 229.686ZM216.469 231.182H208.615C208.351 232.942 209.275 234.592 211.167 234.592C212.685 234.592 213.631 233.822 214.577 232.59L216.095 233.536C214.841 235.318 212.861 236.352 210.859 236.352C207.713 236.352 206.195 233.976 206.657 230.94C207.163 227.772 209.231 225.396 212.553 225.396C215.831 225.396 216.997 227.816 216.513 230.874L216.469 231.182ZM208.945 229.686H214.709C214.731 228.146 213.873 227.112 212.289 227.112C210.749 227.112 209.429 228.212 208.945 229.686ZM222.063 234.592C224.219 234.592 225.671 232.876 226.001 230.852C226.309 228.85 225.385 227.156 223.251 227.156C221.205 227.156 219.709 228.938 219.401 230.852C219.093 232.788 219.973 234.592 222.063 234.592ZM225.077 236L225.341 234.394H225.297C224.307 235.56 222.921 236.352 221.469 236.352C218.301 236.352 216.959 233.734 217.443 230.786C217.883 227.97 220.149 225.396 223.119 225.396C224.659 225.396 225.781 226.188 226.397 227.42H226.441L228.091 216.904H230.071L227.057 236H225.077ZM236.752 227.2L235.014 228.058C234.86 227.552 234.42 227.156 233.848 227.156C233.298 227.156 232.704 227.596 232.594 228.168C232.462 229.07 233.584 229.466 234.706 230.016C235.828 230.566 236.884 231.314 236.62 232.942C236.312 234.9 234.442 236.352 232.528 236.352C231.032 236.352 229.668 235.494 229.338 234.042L231.164 233.272C231.45 234.042 231.868 234.592 232.814 234.592C233.65 234.592 234.464 234.02 234.618 233.14C234.706 232.59 234.464 232.326 234.068 232.018L232.286 230.984C231.252 230.368 230.504 229.796 230.724 228.388C230.988 226.716 232.55 225.396 234.222 225.396C235.476 225.396 236.378 226.078 236.752 227.2ZM240.245 233.8C240.949 233.8 241.433 234.394 241.323 235.076C241.213 235.78 240.531 236.352 239.827 236.352C239.123 236.352 238.661 235.78 238.771 235.076C238.881 234.394 239.541 233.8 240.245 233.8Z" fill="#093761"/>
<defs>
<clipPath id="clip0_407_2528">
<rect width="40" height="43" fill="white" transform="translate(88 83) rotate(90)"/>
</clipPath>
<clipPath id="clip1_407_2528">
<rect width="40" height="43" fill="white" transform="translate(88 164) rotate(90)"/>
</clipPath>
</defs>
</svg>
