<svg width="382" height="302" viewBox="0 0 382 302" fill="none" xmlns="http://www.w3.org/2000/svg">
<path d="M310.672 0H71.328C35.5245 0 6.5 24.3478 6.5 54.3823V214.618C6.5 244.652 35.5245 269 71.328 269H310.672C346.476 269 375.5 244.652 375.5 214.618V54.3823C375.5 24.3478 346.476 0 310.672 0Z" fill="#0E3D68"/>
<path d="M88.9986 173L91.8546 154.904H96.5106L98.7186 165.8L98.7666 165.752C98.9106 163.664 98.8626 161.6 99.1986 159.512L99.9186 154.904H104.623L101.767 173H97.0626L95.0706 162.56L95.0226 162.608C94.8546 164.312 94.8066 165.992 94.5426 167.696L93.7026 173H88.9986ZM117.567 173H112.503V170.672H109.215L108.447 173H103.407L110.607 154.904H116.583L117.567 173ZM110.487 166.832H112.551L112.671 162.632C112.719 161.504 112.791 160.352 112.863 159.224H112.815C112.479 160.352 112.191 161.504 111.807 162.632L110.487 166.832ZM125.015 173H120.119L122.279 159.32H119.591L120.287 154.904H130.679L129.983 159.32H127.175L125.015 173ZM134.676 173H129.78L132.636 154.904H137.532L134.676 173ZM138.449 163.952C139.145 159.536 141.857 154.592 146.825 154.592C151.793 154.592 152.969 159.536 152.273 163.952C151.577 168.368 148.841 173.312 143.873 173.312C138.905 173.312 137.753 168.368 138.449 163.952ZM143.441 163.952C143.249 165.08 142.745 168.752 144.593 168.752C146.441 168.752 147.089 165.08 147.281 163.952C147.449 162.824 147.953 159.152 146.105 159.152C144.257 159.152 143.609 162.824 143.441 163.952ZM153.194 173L156.05 154.904H160.706L162.914 165.8L162.962 165.752C163.106 163.664 163.058 161.6 163.394 159.512L164.114 154.904H168.818L165.962 173H161.258L159.266 162.56L159.218 162.608C159.05 164.312 159.002 165.992 158.738 167.696L157.898 173H153.194ZM181.762 173H176.698V170.672H173.41L172.642 173H167.602L174.802 154.904H180.778L181.762 173ZM174.682 166.832H176.746L176.866 162.632C176.914 161.504 176.986 160.352 177.058 159.224H177.01C176.674 160.352 176.386 161.504 176.002 162.632L174.682 166.832ZM191.949 173H183.381L186.237 154.904H191.133L188.949 168.728H192.621L191.949 173ZM212.649 155.024L211.809 160.208C211.233 159.536 210.705 159.152 209.697 159.152C207.153 159.152 206.097 161.96 205.785 163.952C205.449 166.064 205.641 168.752 208.089 168.752C209.193 168.752 209.961 168.32 210.873 167.6L209.769 172.664C208.713 173.096 207.801 173.312 206.721 173.312C202.713 173.312 199.785 170.264 200.769 164.072C202.041 155.96 207.825 154.592 210.201 154.592C211.065 154.592 211.905 154.712 212.649 155.024ZM212.723 163.952C213.419 159.536 216.131 154.592 221.099 154.592C226.067 154.592 227.243 159.536 226.547 163.952C225.851 168.368 223.115 173.312 218.147 173.312C213.179 173.312 212.027 168.368 212.723 163.952ZM217.715 163.952C217.523 165.08 217.019 168.752 218.867 168.752C220.715 168.752 221.363 165.08 221.555 163.952C221.723 162.824 222.227 159.152 220.379 159.152C218.531 159.152 217.883 162.824 217.715 163.952ZM237.595 154.904H242.491L240.619 166.736C240.283 168.92 239.107 173.312 233.443 173.312C227.779 173.312 227.995 168.92 228.331 166.736L230.203 154.904H235.099L233.299 166.28C233.227 166.76 233.107 167.384 233.179 167.864C233.251 168.368 233.491 168.752 234.163 168.752C234.859 168.752 235.243 168.368 235.435 167.888C235.651 167.384 235.723 166.76 235.795 166.304L237.595 154.904ZM242.397 173L245.253 154.904H249.909L252.117 165.8L252.165 165.752C252.309 163.664 252.261 161.6 252.597 159.512L253.317 154.904H258.021L255.165 173H250.461L248.469 162.56L248.421 162.608C248.253 164.312 248.205 165.992 247.941 167.696L247.101 173H242.397ZM270.821 155.024L269.981 160.208C269.405 159.536 268.877 159.152 267.869 159.152C265.325 159.152 264.269 161.96 263.957 163.952C263.621 166.064 263.813 168.752 266.261 168.752C267.365 168.752 268.133 168.32 269.045 167.6L267.941 172.664C266.885 173.096 265.973 173.312 264.893 173.312C260.885 173.312 257.957 170.264 258.941 164.072C260.213 155.96 265.997 154.592 268.373 154.592C269.237 154.592 270.077 154.712 270.821 155.024ZM275.77 173H270.874L273.73 154.904H278.626L275.77 173ZM287.223 173H278.655L281.511 154.904H286.407L284.223 168.728H287.895L287.223 173ZM67.2736 203H58.7056L61.5616 184.904H66.4576L64.2736 198.728H67.9456L67.2736 203ZM74.1719 203H69.2759L72.1319 184.904H77.0279L74.1719 203ZM89.8252 185.024L88.9852 190.208C88.4092 189.536 87.8812 189.152 86.8732 189.152C84.3292 189.152 83.2732 191.96 82.9612 193.952C82.6252 196.064 82.8172 198.752 85.2652 198.752C86.3692 198.752 87.1372 198.32 88.0492 197.6L86.9452 202.664C85.8892 203.096 84.9772 203.312 83.8972 203.312C79.8892 203.312 76.9612 200.264 77.9452 194.072C79.2172 185.96 85.0012 184.592 87.3772 184.592C88.2412 184.592 89.0812 184.712 89.8252 185.024ZM89.8775 203L92.7335 184.904H101.83L101.158 189.176H96.9575L96.5735 191.696H100.342L99.6455 195.968H95.8775L95.4455 198.728H99.6455L98.9735 203H89.8775ZM101.854 203L104.71 184.904H109.366L111.574 195.8L111.622 195.752C111.766 193.664 111.718 191.6 112.054 189.512L112.774 184.904H117.478L114.622 203H109.918L107.926 192.56L107.878 192.608C107.71 194.312 107.662 195.992 107.398 197.696L106.558 203H101.854ZM117.126 202.568L118.014 196.904C118.542 197.912 119.55 198.92 120.798 198.92C121.47 198.92 122.31 198.512 122.43 197.72C122.502 197.288 122.406 196.976 122.19 196.712C122.022 196.448 121.782 196.232 121.494 196.016C120.654 195.272 119.934 194.576 119.43 193.712C118.974 192.872 118.734 191.864 118.95 190.544C119.286 188.432 121.23 184.592 125.406 184.592C126.582 184.592 127.806 184.952 128.742 185.504L127.878 191C127.446 190.088 126.438 189.056 125.31 189.056C124.734 189.056 123.966 189.464 123.87 190.16C123.798 190.544 123.966 190.88 124.182 191.168C124.398 191.456 124.734 191.696 124.95 191.912C125.862 192.632 126.582 193.304 127.014 194.12C127.446 194.936 127.614 195.896 127.398 197.264C126.87 200.624 124.086 203.312 120.678 203.312C119.43 203.312 118.206 203.048 117.126 202.568ZM138.959 184.904H143.855L141.983 196.736C141.647 198.92 140.471 203.312 134.807 203.312C129.143 203.312 129.359 198.92 129.695 196.736L131.567 184.904H136.463L134.663 196.28C134.591 196.76 134.471 197.384 134.543 197.864C134.615 198.368 134.855 198.752 135.527 198.752C136.223 198.752 136.607 198.368 136.799 197.888C137.015 197.384 137.087 196.76 137.159 196.304L138.959 184.904ZM156.648 203H151.344L149.832 195.464L149.76 195.512C149.664 196.4 149.568 197.288 149.424 198.176L148.656 203H143.76L146.616 184.904H151.344C155.592 184.904 158.472 186.152 157.728 190.928C157.416 192.92 156.264 194.696 154.2 195.464L156.648 203ZM150.192 193.256L150.504 193.28C151.8 193.28 152.688 192.152 152.856 190.976C153.12 189.392 152.256 188.72 150.912 188.792L150.192 193.256ZM158.245 203L161.101 184.904H170.197L169.525 189.176H165.325L164.941 191.696H168.709L168.013 195.968H164.245L163.813 198.728H168.013L167.341 203H158.245ZM177.463 203L180.319 184.904H189.415L188.743 189.176H184.543L184.159 191.696H187.927L187.231 195.968H183.463L183.031 198.728H187.231L186.559 203H177.463ZM202.4 203H196.976L196.424 200.192C196.328 199.52 196.256 198.824 196.16 198.152H196.112C195.824 198.824 195.512 199.52 195.224 200.192L193.688 203H188.36L194.24 193.616L191.456 184.904H196.904L197.36 187.088C197.504 187.76 197.504 188.48 197.576 189.176H197.624C197.912 188.48 198.128 187.784 198.464 187.088L199.448 184.904H204.944L199.448 193.616L202.4 203ZM217.118 203H212.054V200.672H208.766L207.998 203H202.958L210.158 184.904H216.134L217.118 203ZM210.038 196.832H212.102L212.222 192.632C212.27 191.504 212.342 190.352 212.414 189.224H212.366C212.03 190.352 211.742 191.504 211.358 192.632L210.038 196.832ZM236.737 203H231.649L232.993 191.624H232.945C232.513 192.944 232.153 194.264 231.697 195.584L229.129 203H225.145L225.241 191.624H225.193C224.953 192.968 224.761 194.288 224.497 195.632L222.913 203H217.657L222.625 184.904H228.721L228.601 194.528H228.649C228.961 193.4 229.273 192.296 229.657 191.168L231.817 184.904H237.841L236.737 203ZM243.438 203H238.542L241.398 184.904H246.294L243.438 203ZM246.323 203L249.179 184.904H253.835L256.043 195.8L256.091 195.752C256.235 193.664 256.187 191.6 256.523 189.512L257.243 184.904H261.947L259.091 203H254.387L252.395 192.56L252.347 192.608C252.179 194.312 252.131 195.992 251.867 197.696L251.027 203H246.323ZM274.891 203H269.827V200.672H266.539L265.771 203H260.731L267.931 184.904H273.907L274.891 203ZM267.811 196.832H269.875L269.995 192.632C270.043 191.504 270.115 190.352 270.187 189.224H270.139C269.803 190.352 269.515 191.504 269.131 192.632L267.811 196.832ZM282.339 203H277.443L279.603 189.32H276.915L277.611 184.904H288.003L287.307 189.32H284.499L282.339 203ZM292 203H287.104L289.96 184.904H294.856L292 203ZM295.773 193.952C296.469 189.536 299.181 184.592 304.149 184.592C309.117 184.592 310.293 189.536 309.597 193.952C308.901 198.368 306.165 203.312 301.197 203.312C296.229 203.312 295.077 198.368 295.773 193.952ZM300.765 193.952C300.573 195.08 300.069 198.752 301.917 198.752C303.765 198.752 304.413 195.08 304.605 193.952C304.773 192.824 305.277 189.152 303.429 189.152C301.581 189.152 300.933 192.824 300.765 193.952ZM310.518 203L313.374 184.904H318.03L320.238 195.8L320.286 195.752C320.43 193.664 320.382 191.6 320.718 189.512L321.438 184.904H326.142L323.286 203H318.582L316.59 192.56L316.542 192.608C316.374 194.312 316.326 195.992 316.062 197.696L315.222 203H310.518Z" fill="#78C440"/>
<path d="M121.493 119V78.284H131.969L140.771 102.8L140.879 102.692C140.447 97.994 139.637 93.35 139.637 88.652V78.284H150.221V119H139.637L131.429 95.51L131.321 95.618C131.591 99.452 132.077 103.232 132.077 107.066V119H121.493ZM179.021 78.554V90.218C177.455 88.706 176.159 87.842 173.891 87.842C168.167 87.842 166.763 94.16 166.763 98.642C166.763 103.394 168.167 109.442 173.675 109.442C176.159 109.442 177.725 108.47 179.507 106.85L178.859 118.244C176.645 119.216 174.647 119.702 172.217 119.702C163.199 119.702 155.531 112.844 155.531 98.912C155.531 80.66 168.059 77.582 173.405 77.582C175.349 77.582 177.239 77.852 179.021 78.554ZM204.843 119H185.565V78.284H196.581V109.388H204.843V119ZM209.348 119V78.284H229.814V87.896H220.364V93.566H228.842V103.178H220.364V109.388H229.814V119H209.348ZM265.456 119H253.252L250.984 112.682C250.552 111.17 250.12 109.604 249.688 108.092H249.58C249.148 109.604 248.716 111.17 248.284 112.682L245.854 119H233.866L243.748 97.886L234.406 78.284H246.664L248.446 83.198C248.986 84.71 249.256 86.33 249.688 87.896H249.796C250.174 86.33 250.444 84.764 250.93 83.198L252.388 78.284H264.754L255.466 97.886L265.456 119Z" fill="white"/>
</svg>
