<svg width="1087" height="454" viewBox="0 0 1087 454" fill="none" xmlns="http://www.w3.org/2000/svg">
<g filter="url(#filter0_d_2055_340)">
<path d="M16 13H985C1029.18 13 1065 48.8172 1065 93V308C1065 352.183 1029.18 388 985 388H96C51.8172 388 16 352.183 16 308V13Z" fill="white" fill-opacity="0.05" shape-rendering="crispEdges"/>
</g>
<path d="M265.016 156.904L268.04 169.864L275.264 156.52L278.264 169.864L285.368 156.904H287.816L277.328 175.72L274.328 162.448L267.104 175.72L262.568 156.904H265.016ZM295.419 169.744H286.851C286.563 171.664 287.571 173.464 289.635 173.464C291.291 173.464 292.323 172.624 293.355 171.28L295.011 172.312C293.643 174.256 291.483 175.384 289.299 175.384C285.867 175.384 284.211 172.792 284.715 169.48C285.267 166.024 287.523 163.432 291.147 163.432C294.723 163.432 295.995 166.072 295.467 169.408L295.419 169.744ZM287.211 168.112H293.499C293.523 166.432 292.587 165.304 290.859 165.304C289.179 165.304 287.739 166.504 287.211 168.112ZM306.659 154.168H308.819L307.067 165.28H307.115C307.979 164.08 309.419 163.432 310.787 163.432C313.955 163.432 314.435 165.568 314.003 168.304L312.947 175H310.787L311.795 168.568C312.107 166.648 312.059 165.352 309.851 165.352C307.067 165.352 306.683 167.8 306.347 169.84L305.531 175H303.371L306.659 154.168ZM326.637 169.744H318.069C317.781 171.664 318.789 173.464 320.853 173.464C322.509 173.464 323.541 172.624 324.573 171.28L326.229 172.312C324.861 174.256 322.701 175.384 320.517 175.384C317.085 175.384 315.429 172.792 315.933 169.48C316.485 166.024 318.741 163.432 322.365 163.432C325.941 163.432 327.213 166.072 326.685 169.408L326.637 169.744ZM318.429 168.112H324.717C324.741 166.432 323.805 165.304 322.077 165.304C320.397 165.304 318.957 166.504 318.429 168.112ZM333.196 154.168L329.908 175H327.748L331.036 154.168H333.196ZM338.636 173.464C340.988 173.464 342.572 171.592 342.932 169.384C343.268 167.2 342.26 165.352 339.932 165.352C337.7 165.352 336.068 167.296 335.732 169.384C335.396 171.496 336.356 173.464 338.636 173.464ZM336.74 163.768L336.452 165.64H336.5C337.604 164.296 339.068 163.432 340.748 163.432C343.988 163.432 345.596 166.24 345.116 169.312C344.588 172.528 342.212 175.384 338.756 175.384C337.172 175.384 335.948 174.52 335.3 173.248H335.252L333.956 181.432H331.796L334.58 163.768H336.74ZM356.425 173.08L352.753 163.768H355.273L357.937 170.896L362.593 163.768H365.017L353.137 181.432H350.689L356.425 173.08ZM371.218 163.432C374.578 163.432 376.81 166.024 376.282 169.408C375.754 172.792 372.682 175.384 369.322 175.384C365.962 175.384 363.754 172.792 364.282 169.408C364.81 166.024 367.858 163.432 371.218 163.432ZM370.906 165.496C368.77 165.496 366.778 167.272 366.442 169.408C366.106 171.52 367.522 173.32 369.658 173.32C371.794 173.32 373.786 171.52 374.122 169.408C374.458 167.272 373.042 165.496 370.906 165.496ZM379.043 163.768H381.203L380.219 169.984C379.931 171.784 380.147 173.368 382.283 173.368C384.419 173.368 385.115 171.784 385.403 169.984L386.387 163.768H388.547L387.539 170.224C387.035 173.296 385.259 175.384 381.947 175.384C378.635 175.384 377.531 173.296 378.035 170.224L379.043 163.768ZM402.246 173.464C404.598 173.464 406.182 171.592 406.542 169.384C406.878 167.2 405.87 165.352 403.542 165.352C401.31 165.352 399.678 167.296 399.342 169.384C399.006 171.496 399.966 173.464 402.246 173.464ZM396.414 175L399.702 154.168H401.862L400.062 165.64H400.11C401.214 164.296 402.678 163.432 404.358 163.432C407.598 163.432 409.206 166.24 408.726 169.312C408.198 172.528 405.822 175.384 402.366 175.384C400.782 175.384 399.558 174.52 398.91 173.248H398.862L398.574 175H396.414ZM411.598 163.768H413.758L412.774 169.984C412.486 171.784 412.702 173.368 414.838 173.368C416.974 173.368 417.67 171.784 417.958 169.984L418.942 163.768H421.102L420.094 170.224C419.59 173.296 417.814 175.384 414.502 175.384C411.19 175.384 410.086 173.296 410.59 170.224L411.598 163.768ZM426.615 163.768L424.839 175H422.679L424.455 163.768H426.615ZM426.591 157.12C427.407 157.12 427.983 157.792 427.839 158.632C427.719 159.448 426.927 160.096 426.111 160.096C425.295 160.096 424.743 159.448 424.863 158.632C425.007 157.792 425.775 157.12 426.591 157.12ZM433.837 154.168L430.549 175H428.389L431.677 154.168H433.837ZM438.701 173.464C441.053 173.464 442.637 171.592 442.997 169.384C443.333 167.2 442.325 165.352 439.997 165.352C437.765 165.352 436.133 167.296 435.797 169.384C435.461 171.496 436.421 173.464 438.701 173.464ZM441.989 175L442.277 173.248H442.229C441.149 174.52 439.637 175.384 438.053 175.384C434.597 175.384 433.133 172.528 433.661 169.312C434.141 166.24 436.613 163.432 439.853 163.432C441.533 163.432 442.757 164.296 443.429 165.64H443.477L445.277 154.168H447.437L444.149 175H441.989ZM457.066 173.08L453.394 163.768H455.914L458.578 170.896L463.234 163.768H465.658L453.778 181.432H451.33L457.066 173.08ZM471.859 163.432C475.219 163.432 477.451 166.024 476.923 169.408C476.395 172.792 473.323 175.384 469.963 175.384C466.603 175.384 464.395 172.792 464.923 169.408C465.451 166.024 468.499 163.432 471.859 163.432ZM471.547 165.496C469.411 165.496 467.419 167.272 467.083 169.408C466.747 171.52 468.163 173.32 470.299 173.32C472.435 173.32 474.427 171.52 474.763 169.408C475.099 167.272 473.683 165.496 471.547 165.496ZM479.684 163.768H481.844L480.86 169.984C480.572 171.784 480.788 173.368 482.924 173.368C485.06 173.368 485.756 171.784 486.044 169.984L487.028 163.768H489.188L488.18 170.224C487.676 173.296 485.9 175.384 482.588 175.384C479.276 175.384 478.172 173.296 478.676 170.224L479.684 163.768ZM494.365 163.768L494.077 165.592H494.149C494.893 164.272 496.117 163.432 497.557 163.432C498.181 163.432 498.781 163.648 499.261 163.984L497.965 165.952C497.629 165.616 497.221 165.496 496.717 165.496C494.389 165.496 493.741 167.656 493.453 169.48L492.589 175H490.429L492.205 163.768H494.365ZM509.572 163.768L509.332 165.28H509.38C510.244 164.08 511.684 163.432 513.052 163.432C516.22 163.432 516.7 165.568 516.268 168.304L515.212 175H513.052L514.06 168.568C514.372 166.648 514.324 165.352 512.116 165.352C509.332 165.352 508.948 167.8 508.612 169.84L507.796 175H505.636L507.412 163.768H509.572ZM528.903 169.744H520.335C520.047 171.664 521.055 173.464 523.119 173.464C524.775 173.464 525.807 172.624 526.839 171.28L528.495 172.312C527.127 174.256 524.967 175.384 522.783 175.384C519.351 175.384 517.695 172.792 518.199 169.48C518.751 166.024 521.007 163.432 524.631 163.432C528.207 163.432 529.479 166.072 528.951 169.408L528.903 169.744ZM520.695 168.112H526.983C527.007 166.432 526.071 165.304 524.343 165.304C522.663 165.304 521.223 166.504 520.695 168.112ZM533.854 165.784L532.39 175H530.23L531.694 165.784H530.518L530.83 163.768H532.006L532.678 159.472H534.838L534.166 163.768H536.278L535.966 165.784H533.854ZM538.035 163.768L540.171 170.92L544.707 163.144L546.771 170.92L551.163 163.768H553.611L546.051 175.384L543.963 167.872L539.451 175.384L535.587 163.768H538.035ZM559.726 163.432C563.086 163.432 565.318 166.024 564.79 169.408C564.262 172.792 561.19 175.384 557.83 175.384C554.47 175.384 552.262 172.792 552.79 169.408C553.318 166.024 556.366 163.432 559.726 163.432ZM559.414 165.496C557.278 165.496 555.286 167.272 554.95 169.408C554.614 171.52 556.03 173.32 558.166 173.32C560.302 173.32 562.294 171.52 562.63 169.408C562.966 167.272 561.55 165.496 559.414 165.496ZM569.951 163.768L569.663 165.592H569.735C570.479 164.272 571.703 163.432 573.143 163.432C573.767 163.432 574.367 163.648 574.847 163.984L573.551 165.952C573.215 165.616 572.807 165.496 572.303 165.496C569.975 165.496 569.327 167.656 569.039 169.48L568.175 175H566.015L567.791 163.768H569.951ZM579.877 154.168L577.693 167.992L582.589 163.768H585.445L579.901 168.424L584.149 175H581.341L578.149 169.888L577.285 170.632L576.589 175H574.429L577.717 154.168H579.877ZM597.396 173.464C599.748 173.464 601.332 171.592 601.692 169.384C602.028 167.2 601.02 165.352 598.692 165.352C596.46 165.352 594.828 167.296 594.492 169.384C594.156 171.496 595.116 173.464 597.396 173.464ZM604.62 163.768L602.844 175H600.684L600.972 173.248H600.924C599.844 174.52 598.356 175.384 596.748 175.384C593.316 175.384 591.828 172.528 592.356 169.312C592.836 166.24 595.308 163.432 598.572 163.432C600.228 163.432 601.452 164.296 602.124 165.64H602.172L602.46 163.768H604.62ZM613.42 165.4L611.524 166.336C611.356 165.784 610.876 165.352 610.252 165.352C609.652 165.352 609.004 165.832 608.884 166.456C608.74 167.44 609.964 167.872 611.188 168.472C612.412 169.072 613.564 169.888 613.276 171.664C612.94 173.8 610.9 175.384 608.812 175.384C607.18 175.384 605.692 174.448 605.332 172.864L607.324 172.024C607.636 172.864 608.092 173.464 609.124 173.464C610.036 173.464 610.924 172.84 611.092 171.88C611.188 171.28 610.924 170.992 610.492 170.656L608.548 169.528C607.42 168.856 606.604 168.232 606.844 166.696C607.132 164.872 608.836 163.432 610.66 163.432C612.028 163.432 613.012 164.176 613.42 165.4ZM626.881 173.464C629.233 173.464 630.817 171.592 631.177 169.384C631.513 167.2 630.505 165.352 628.177 165.352C625.945 165.352 624.313 167.296 623.977 169.384C623.641 171.496 624.601 173.464 626.881 173.464ZM634.105 163.768L632.329 175H630.169L630.457 173.248H630.409C629.329 174.52 627.841 175.384 626.233 175.384C622.801 175.384 621.313 172.528 621.841 169.312C622.321 166.24 624.793 163.432 628.057 163.432C629.713 163.432 630.937 164.296 631.609 165.64H631.657L631.945 163.768H634.105ZM650.922 154.168L650.586 156.352C650.178 156.16 649.674 155.896 649.218 155.896C647.682 155.896 647.37 157.84 647.202 158.944L646.434 163.768H649.41L649.098 165.784H646.122L644.658 175H642.498L643.962 165.784H642.978L643.29 163.768H644.274L645.138 158.296C645.522 155.848 646.674 153.88 649.458 153.88C649.986 153.88 650.49 153.976 650.922 154.168ZM655.492 163.432C658.852 163.432 661.084 166.024 660.556 169.408C660.028 172.792 656.956 175.384 653.596 175.384C650.236 175.384 648.028 172.792 648.556 169.408C649.084 166.024 652.132 163.432 655.492 163.432ZM655.18 165.496C653.044 165.496 651.052 167.272 650.715 169.408C650.38 171.52 651.796 173.32 653.932 173.32C656.068 173.32 658.06 171.52 658.396 169.408C658.732 167.272 657.316 165.496 655.18 165.496ZM663.316 163.768H665.476L664.492 169.984C664.204 171.784 664.42 173.368 666.556 173.368C668.692 173.368 669.388 171.784 669.676 169.984L670.66 163.768H672.82L671.812 170.224C671.308 173.296 669.532 175.384 666.22 175.384C662.908 175.384 661.804 173.296 662.308 170.224L663.316 163.768ZM677.854 163.768L677.614 165.28H677.662C678.526 164.08 679.966 163.432 681.334 163.432C684.502 163.432 684.982 165.568 684.55 168.304L683.494 175H681.334L682.342 168.568C682.654 166.648 682.606 165.352 680.398 165.352C677.614 165.352 677.23 167.8 676.894 169.84L676.078 175H673.918L675.694 163.768H677.854ZM691.568 173.464C693.92 173.464 695.504 171.592 695.864 169.384C696.2 167.2 695.192 165.352 692.864 165.352C690.632 165.352 689 167.296 688.664 169.384C688.328 171.496 689.288 173.464 691.568 173.464ZM694.856 175L695.144 173.248H695.096C694.016 174.52 692.504 175.384 690.92 175.384C687.464 175.384 686 172.528 686.528 169.312C687.008 166.24 689.48 163.432 692.72 163.432C694.4 163.432 695.624 164.296 696.296 165.64H696.344L698.144 154.168H700.304L697.016 175H694.856ZM704.904 173.464C707.256 173.464 708.84 171.592 709.2 169.384C709.536 167.2 708.528 165.352 706.2 165.352C703.968 165.352 702.336 167.296 702 169.384C701.664 171.496 702.624 173.464 704.904 173.464ZM712.128 163.768L710.352 175H708.192L708.48 173.248H708.432C707.352 174.52 705.864 175.384 704.256 175.384C700.824 175.384 699.336 172.528 699.864 169.312C700.344 166.24 702.816 163.432 706.08 163.432C707.736 163.432 708.96 164.296 709.632 165.64H709.68L709.968 163.768H712.128ZM717.088 165.784L715.624 175H713.464L714.928 165.784H713.752L714.064 163.768H715.24L715.912 159.472H718.072L717.4 163.768H719.512L719.2 165.784H717.088ZM723.357 163.768L721.581 175H719.421L721.197 163.768H723.357ZM723.333 157.12C724.149 157.12 724.725 157.792 724.581 158.632C724.461 159.448 723.669 160.096 722.853 160.096C722.037 160.096 721.485 159.448 721.605 158.632C721.749 157.792 722.517 157.12 723.333 157.12ZM731.851 163.432C735.211 163.432 737.443 166.024 736.915 169.408C736.387 172.792 733.315 175.384 729.955 175.384C726.595 175.384 724.387 172.792 724.915 169.408C725.443 166.024 728.491 163.432 731.851 163.432ZM731.539 165.496C729.403 165.496 727.411 167.272 727.075 169.408C726.739 171.52 728.155 173.32 730.291 173.32C732.427 173.32 734.419 171.52 734.755 169.408C735.091 167.272 733.675 165.496 731.539 165.496ZM741.932 163.768L741.692 165.28H741.74C742.604 164.08 744.044 163.432 745.412 163.432C748.58 163.432 749.06 165.568 748.628 168.304L747.572 175H745.412L746.42 168.568C746.732 166.648 746.684 165.352 744.476 165.352C741.692 165.352 741.308 167.8 740.972 169.84L740.156 175H737.996L739.772 163.768H741.932ZM766.352 154.168L766.016 156.352C765.608 156.16 765.104 155.896 764.648 155.896C763.112 155.896 762.8 157.84 762.632 158.944L761.864 163.768H764.84L764.528 165.784H761.552L760.088 175H757.928L759.392 165.784H758.408L758.72 163.768H759.704L760.568 158.296C760.952 155.848 762.104 153.88 764.888 153.88C765.416 153.88 765.92 153.976 766.352 154.168ZM770.921 163.432C774.281 163.432 776.513 166.024 775.985 169.408C775.457 172.792 772.385 175.384 769.025 175.384C765.665 175.384 763.457 172.792 763.985 169.408C764.513 166.024 767.561 163.432 770.921 163.432ZM770.609 165.496C768.473 165.496 766.481 167.272 766.145 169.408C765.809 171.52 767.225 173.32 769.361 173.32C771.497 173.32 773.489 171.52 773.825 169.408C774.161 167.272 772.745 165.496 770.609 165.496ZM781.146 163.768L780.858 165.592H780.93C781.674 164.272 782.898 163.432 784.338 163.432C784.962 163.432 785.562 163.648 786.042 163.984L784.746 165.952C784.41 165.616 784.002 165.496 783.498 165.496C781.17 165.496 780.522 167.656 780.234 169.48L779.37 175H777.21L778.986 163.768H781.146ZM795.597 173.08L791.925 163.768H794.445L797.109 170.896L801.765 163.768H804.189L792.309 181.432H789.861L795.597 173.08ZM810.39 163.432C813.75 163.432 815.982 166.024 815.454 169.408C814.926 172.792 811.854 175.384 808.494 175.384C805.134 175.384 802.926 172.792 803.454 169.408C803.982 166.024 807.03 163.432 810.39 163.432ZM810.078 165.496C807.942 165.496 805.95 167.272 805.614 169.408C805.278 171.52 806.694 173.32 808.83 173.32C810.966 173.32 812.958 171.52 813.294 169.408C813.63 167.272 812.214 165.496 810.078 165.496ZM818.215 163.768H820.375L819.391 169.984C819.103 171.784 819.319 173.368 821.455 173.368C823.591 173.368 824.287 171.784 824.575 169.984L825.559 163.768H827.719L826.711 170.224C826.207 173.296 824.431 175.384 821.119 175.384C817.807 175.384 816.703 173.296 817.207 170.224L818.215 163.768ZM832.896 163.768L832.608 165.592H832.68C833.424 164.272 834.648 163.432 836.088 163.432C836.712 163.432 837.312 163.648 837.792 163.984L836.496 165.952C836.16 165.616 835.752 165.496 835.248 165.496C832.92 165.496 832.272 167.656 831.984 169.48L831.12 175H828.96L830.736 163.768H832.896ZM848.104 163.768L847.864 165.28H847.912C848.776 164.08 850.216 163.432 851.584 163.432C854.752 163.432 855.232 165.568 854.8 168.304L853.744 175H851.584L852.592 168.568C852.904 166.648 852.856 165.352 850.648 165.352C847.864 165.352 847.48 167.8 847.144 169.84L846.328 175H844.168L845.944 163.768H848.104ZM858.41 163.768H860.57L859.586 169.984C859.298 171.784 859.514 173.368 861.65 173.368C863.786 173.368 864.482 171.784 864.77 169.984L865.754 163.768H867.914L866.906 170.224C866.402 173.296 864.626 175.384 861.314 175.384C858.002 175.384 856.898 173.296 857.402 170.224L858.41 163.768ZM873.091 163.768L872.803 165.592H872.875C873.619 164.272 874.843 163.432 876.283 163.432C876.907 163.432 877.507 163.648 877.987 163.984L876.691 165.952C876.355 165.616 875.947 165.496 875.443 165.496C873.115 165.496 872.467 167.656 872.179 169.48L871.315 175H869.155L870.931 163.768H873.091ZM885.202 165.4L883.306 166.336C883.138 165.784 882.658 165.352 882.034 165.352C881.434 165.352 880.786 165.832 880.666 166.456C880.522 167.44 881.746 167.872 882.97 168.472C884.194 169.072 885.346 169.888 885.058 171.664C884.722 173.8 882.682 175.384 880.594 175.384C878.962 175.384 877.474 174.448 877.114 172.864L879.105 172.024C879.418 172.864 879.874 173.464 880.906 173.464C881.818 173.464 882.706 172.84 882.874 171.88C882.97 171.28 882.706 170.992 882.273 170.656L880.33 169.528C879.202 168.856 878.386 168.232 878.626 166.696C878.914 164.872 880.618 163.432 882.442 163.432C883.81 163.432 884.794 164.176 885.202 165.4ZM891.052 163.768L889.276 175H887.116L888.892 163.768H891.052ZM891.028 157.12C891.844 157.12 892.42 157.792 892.276 158.632C892.156 159.448 891.364 160.096 890.548 160.096C889.732 160.096 889.18 159.448 889.3 158.632C889.444 157.792 890.212 157.12 891.028 157.12ZM896.666 163.768L896.426 165.28H896.474C897.338 164.08 898.778 163.432 900.146 163.432C903.314 163.432 903.794 165.568 903.362 168.304L902.306 175H900.146L901.154 168.568C901.466 166.648 901.418 165.352 899.21 165.352C896.426 165.352 896.042 167.8 895.706 169.84L894.89 175H892.73L894.506 163.768H896.666ZM910.357 173.464C912.709 173.464 914.293 171.592 914.653 169.384C914.989 167.2 913.981 165.352 911.653 165.352C909.421 165.352 907.789 167.296 907.453 169.384C907.117 171.496 908.077 173.464 910.357 173.464ZM917.581 163.768L915.829 174.784C915.229 178.648 913.693 181.432 909.325 181.432C906.205 181.432 904.237 179.512 904.693 176.344H906.853C906.541 178.36 907.741 179.512 909.709 179.512C912.373 179.512 913.213 177.688 913.573 175.384L913.933 173.248H913.885C912.805 174.52 911.293 175.384 909.709 175.384C906.253 175.384 904.789 172.528 905.317 169.312C905.797 166.24 908.269 163.432 911.509 163.432C913.189 163.432 914.413 164.296 915.061 165.688H915.109L915.421 163.768H917.581ZM935.503 164.176L935.071 166.96C934.375 165.976 933.391 165.448 932.095 165.448C929.983 165.448 928.063 167.32 927.727 169.384C927.367 171.688 928.711 173.368 930.991 173.368C932.239 173.368 933.343 172.792 934.303 171.88L933.847 174.64C932.791 175.168 931.759 175.384 930.631 175.384C927.319 175.384 925.015 172.84 925.543 169.48C926.095 166 929.191 163.432 932.647 163.432C933.655 163.432 934.735 163.672 935.503 164.176ZM941.224 173.464C943.576 173.464 945.16 171.592 945.52 169.384C945.856 167.2 944.848 165.352 942.52 165.352C940.288 165.352 938.656 167.296 938.32 169.384C937.984 171.496 938.944 173.464 941.224 173.464ZM948.448 163.768L946.672 175H944.512L944.8 173.248H944.752C943.672 174.52 942.184 175.384 940.576 175.384C937.144 175.384 935.656 172.528 936.184 169.312C936.664 166.24 939.136 163.432 942.4 163.432C944.056 163.432 945.28 164.296 945.952 165.64H946L946.288 163.768H948.448ZM953.552 163.768L953.264 165.592H953.336C954.08 164.272 955.304 163.432 956.744 163.432C957.368 163.432 957.968 163.648 958.448 163.984L957.152 165.952C956.816 165.616 956.408 165.496 955.904 165.496C953.576 165.496 952.928 167.656 952.64 169.48L951.776 175H949.616L951.392 163.768H953.552ZM968.169 169.744H959.601C959.313 171.664 960.321 173.464 962.385 173.464C964.041 173.464 965.073 172.624 966.105 171.28L967.761 172.312C966.393 174.256 964.233 175.384 962.049 175.384C958.617 175.384 956.961 172.792 957.465 169.48C958.017 166.024 960.273 163.432 963.897 163.432C967.473 163.432 968.745 166.072 968.217 169.408L968.169 169.744ZM959.961 168.112H966.249C966.273 166.432 965.337 165.304 963.609 165.304C961.929 165.304 960.489 166.504 959.961 168.112ZM979.887 169.744H971.319C971.031 171.664 972.039 173.464 974.103 173.464C975.759 173.464 976.791 172.624 977.823 171.28L979.479 172.312C978.111 174.256 975.951 175.384 973.767 175.384C970.335 175.384 968.679 172.792 969.183 169.48C969.735 166.024 971.991 163.432 975.615 163.432C979.191 163.432 980.463 166.072 979.935 169.408L979.887 169.744ZM971.679 168.112H977.967C977.991 166.432 977.055 165.304 975.327 165.304C973.647 165.304 972.207 166.504 971.679 168.112ZM984.982 163.768L984.694 165.592H984.766C985.51 164.272 986.734 163.432 988.174 163.432C988.798 163.432 989.398 163.648 989.878 163.984L988.582 165.952C988.246 165.616 987.838 165.496 987.334 165.496C985.006 165.496 984.358 167.656 984.07 169.48L983.206 175H981.046L982.822 163.768H984.982ZM989.302 172.6C990.07 172.6 990.598 173.248 990.478 173.992C990.358 174.76 989.614 175.384 988.846 175.384C988.078 175.384 987.574 174.76 987.694 173.992C987.814 173.248 988.534 172.6 989.302 172.6ZM272.864 214.52C278.048 214.52 281.672 218.768 280.856 223.952C279.992 229.328 275.096 233.384 269.864 233.384C264.632 233.384 261.032 229.328 261.896 223.952C262.712 218.768 267.68 214.52 272.864 214.52ZM270.2 231.272C274.112 231.272 277.928 228.08 278.6 223.952C279.224 219.968 276.776 216.632 272.528 216.632C268.28 216.632 264.776 219.968 264.152 223.952C263.48 228.08 266.288 231.272 270.2 231.272ZM283.043 221.768H285.203L284.219 227.984C283.931 229.784 284.147 231.368 286.283 231.368C288.419 231.368 289.115 229.784 289.403 227.984L290.387 221.768H292.547L291.539 228.224C291.035 231.296 289.259 233.384 285.947 233.384C282.635 233.384 281.531 231.296 282.035 228.224L283.043 221.768ZM297.724 221.768L297.436 223.592H297.508C298.252 222.272 299.476 221.432 300.916 221.432C301.54 221.432 302.14 221.648 302.62 221.984L301.324 223.952C300.988 223.616 300.58 223.496 300.076 223.496C297.748 223.496 297.1 225.656 296.812 227.48L295.948 233H293.788L295.564 221.768H297.724ZM316.772 223.4L314.876 224.336C314.708 223.784 314.228 223.352 313.604 223.352C313.004 223.352 312.356 223.832 312.236 224.456C312.092 225.44 313.316 225.872 314.54 226.472C315.764 227.072 316.916 227.888 316.628 229.664C316.292 231.8 314.252 233.384 312.164 233.384C310.532 233.384 309.044 232.448 308.684 230.864L310.676 230.024C310.988 230.864 311.444 231.464 312.476 231.464C313.388 231.464 314.276 230.84 314.444 229.88C314.54 229.28 314.276 228.992 313.844 228.656L311.9 227.528C310.772 226.856 309.956 226.232 310.196 224.696C310.484 222.872 312.188 221.432 314.012 221.432C315.38 221.432 316.364 222.176 316.772 223.4ZM328.911 227.744H320.343C320.055 229.664 321.063 231.464 323.127 231.464C324.783 231.464 325.815 230.624 326.847 229.28L328.503 230.312C327.135 232.256 324.975 233.384 322.791 233.384C319.359 233.384 317.703 230.792 318.207 227.48C318.759 224.024 321.015 221.432 324.639 221.432C328.215 221.432 329.487 224.072 328.959 227.408L328.911 227.744ZM320.703 226.112H326.991C327.015 224.432 326.079 223.304 324.351 223.304C322.671 223.304 321.231 224.504 320.703 226.112ZM334.006 221.768L333.718 223.592H333.79C334.534 222.272 335.758 221.432 337.198 221.432C337.822 221.432 338.422 221.648 338.902 221.984L337.606 223.952C337.27 223.616 336.862 223.496 336.358 223.496C334.03 223.496 333.382 225.656 333.094 227.48L332.23 233H330.07L331.846 221.768H334.006ZM341.701 221.768L343.812 228.776L348.157 221.768H350.581L343.069 233.384L339.277 221.768H341.701ZM354.404 221.768L352.628 233H350.468L352.244 221.768H354.404ZM354.38 215.12C355.196 215.12 355.772 215.792 355.628 216.632C355.508 217.448 354.716 218.096 353.9 218.096C353.084 218.096 352.532 217.448 352.652 216.632C352.796 215.792 353.564 215.12 354.38 215.12ZM366.042 222.176L365.61 224.96C364.914 223.976 363.93 223.448 362.634 223.448C360.522 223.448 358.602 225.32 358.266 227.384C357.906 229.688 359.25 231.368 361.53 231.368C362.778 231.368 363.882 230.792 364.842 229.88L364.386 232.64C363.33 233.168 362.298 233.384 361.17 233.384C357.858 233.384 355.554 230.84 356.082 227.48C356.634 224 359.73 221.432 363.186 221.432C364.194 221.432 365.274 221.672 366.042 222.176ZM377.098 227.744H368.53C368.242 229.664 369.25 231.464 371.314 231.464C372.97 231.464 374.002 230.624 375.034 229.28L376.69 230.312C375.322 232.256 373.162 233.384 370.978 233.384C367.546 233.384 365.89 230.792 366.394 227.48C366.946 224.024 369.202 221.432 372.826 221.432C376.402 221.432 377.674 224.072 377.146 227.408L377.098 227.744ZM368.89 226.112H375.178C375.202 224.432 374.266 223.304 372.538 223.304C370.858 223.304 369.418 224.504 368.89 226.112ZM385.889 223.4L383.993 224.336C383.825 223.784 383.345 223.352 382.721 223.352C382.121 223.352 381.473 223.832 381.353 224.456C381.209 225.44 382.433 225.872 383.657 226.472C384.881 227.072 386.033 227.888 385.745 229.664C385.409 231.8 383.369 233.384 381.281 233.384C379.649 233.384 378.161 232.448 377.801 230.864L379.793 230.024C380.105 230.864 380.561 231.464 381.593 231.464C382.505 231.464 383.393 230.84 383.561 229.88C383.657 229.28 383.393 228.992 382.961 228.656L381.017 227.528C379.889 226.856 379.073 226.232 379.313 224.696C379.601 222.872 381.305 221.432 383.129 221.432C384.497 221.432 385.481 222.176 385.889 223.4ZM398.677 221.768L396.901 233H394.741L396.517 221.768H398.677ZM398.653 215.12C399.469 215.12 400.045 215.792 399.901 216.632C399.781 217.448 398.989 218.096 398.173 218.096C397.357 218.096 396.805 217.448 396.925 216.632C397.069 215.792 397.837 215.12 398.653 215.12ZM404.291 221.768L404.051 223.28H404.099C404.963 222.08 406.403 221.432 407.771 221.432C410.939 221.432 411.419 223.568 410.987 226.304L409.931 233H407.771L408.779 226.568C409.091 224.648 409.043 223.352 406.835 223.352C404.051 223.352 403.667 225.8 403.331 227.84L402.515 233H400.355L402.131 221.768H404.291ZM422.878 222.176L422.446 224.96C421.75 223.976 420.766 223.448 419.47 223.448C417.358 223.448 415.438 225.32 415.102 227.384C414.742 229.688 416.086 231.368 418.366 231.368C419.614 231.368 420.718 230.792 421.678 229.88L421.222 232.64C420.166 233.168 419.134 233.384 418.006 233.384C414.694 233.384 412.39 230.84 412.918 227.48C413.47 224 416.566 221.432 420.022 221.432C421.03 221.432 422.11 221.672 422.878 222.176ZM429.055 212.168L425.767 233H423.607L426.895 212.168H429.055ZM430.512 221.768H432.672L431.688 227.984C431.4 229.784 431.616 231.368 433.752 231.368C435.888 231.368 436.584 229.784 436.872 227.984L437.856 221.768H440.016L439.008 228.224C438.504 231.296 436.728 233.384 433.416 233.384C430.104 233.384 429 231.296 429.504 228.224L430.512 221.768ZM446.201 231.464C448.553 231.464 450.137 229.592 450.497 227.384C450.833 225.2 449.825 223.352 447.497 223.352C445.265 223.352 443.633 225.296 443.297 227.384C442.961 229.496 443.921 231.464 446.201 231.464ZM449.489 233L449.777 231.248H449.729C448.649 232.52 447.137 233.384 445.553 233.384C442.097 233.384 440.633 230.528 441.161 227.312C441.641 224.24 444.113 221.432 447.353 221.432C449.033 221.432 450.257 222.296 450.929 223.64H450.977L452.777 212.168H454.937L451.649 233H449.489ZM465.153 227.744H456.585C456.297 229.664 457.305 231.464 459.369 231.464C461.025 231.464 462.057 230.624 463.089 229.28L464.745 230.312C463.377 232.256 461.217 233.384 459.033 233.384C455.601 233.384 453.945 230.792 454.449 227.48C455.001 224.024 457.257 221.432 460.881 221.432C464.457 221.432 465.729 224.072 465.201 227.408L465.153 227.744ZM456.945 226.112H463.233C463.257 224.432 462.321 223.304 460.593 223.304C458.913 223.304 457.473 224.504 456.945 226.112ZM476.969 221.768L476.753 223.184H476.801C477.569 222.2 478.817 221.432 480.041 221.432C481.505 221.432 482.441 222.176 482.969 223.424C483.857 222.224 485.321 221.432 486.737 221.432C489.689 221.432 490.097 223.736 489.689 226.28L488.633 233H486.473L487.481 226.64C487.697 225.2 487.817 223.352 485.921 223.352C483.617 223.352 483.065 225.752 482.777 227.48L481.913 233H479.753L480.689 227.048C480.929 225.584 481.217 223.352 479.225 223.352C476.921 223.352 476.345 225.728 476.057 227.48L475.193 233H473.033L474.809 221.768H476.969ZM502.208 227.744H493.64C493.352 229.664 494.36 231.464 496.424 231.464C498.08 231.464 499.112 230.624 500.144 229.28L501.8 230.312C500.432 232.256 498.272 233.384 496.088 233.384C492.656 233.384 491 230.792 491.504 227.48C492.056 224.024 494.312 221.432 497.936 221.432C501.512 221.432 502.784 224.072 502.256 227.408L502.208 227.744ZM494 226.112H500.288C500.312 224.432 499.376 223.304 497.648 223.304C495.968 223.304 494.528 224.504 494 226.112ZM507.158 221.768L506.918 223.28H506.966C507.83 222.08 509.27 221.432 510.638 221.432C513.806 221.432 514.286 223.568 513.854 226.304L512.798 233H510.638L511.646 226.568C511.958 224.648 511.91 223.352 509.702 223.352C506.918 223.352 506.534 225.8 506.198 227.84L505.382 233H503.222L504.998 221.768H507.158ZM519.721 223.784L518.257 233H516.097L517.561 223.784H516.385L516.697 221.768H517.873L518.545 217.472H520.705L520.033 221.768H522.145L521.833 223.784H519.721ZM528.367 221.432C531.727 221.432 533.959 224.024 533.431 227.408C532.903 230.792 529.831 233.384 526.471 233.384C523.111 233.384 520.903 230.792 521.431 227.408C521.959 224.024 525.007 221.432 528.367 221.432ZM528.055 223.496C525.919 223.496 523.927 225.272 523.59 227.408C523.255 229.52 524.671 231.32 526.807 231.32C528.943 231.32 530.935 229.52 531.271 227.408C531.607 225.272 530.191 223.496 528.055 223.496ZM538.591 221.768L538.303 223.592H538.375C539.119 222.272 540.343 221.432 541.783 221.432C542.407 221.432 543.007 221.648 543.487 221.984L542.191 223.952C541.855 223.616 541.447 223.496 540.943 223.496C538.615 223.496 537.967 225.656 537.679 227.48L536.815 233H534.655L536.431 221.768H538.591ZM550.702 223.4L548.806 224.336C548.638 223.784 548.158 223.352 547.534 223.352C546.934 223.352 546.286 223.832 546.166 224.456C546.022 225.44 547.246 225.872 548.47 226.472C549.694 227.072 550.846 227.888 550.558 229.664C550.222 231.8 548.182 233.384 546.094 233.384C544.462 233.384 542.974 232.448 542.614 230.864L544.605 230.024C544.918 230.864 545.374 231.464 546.406 231.464C547.318 231.464 548.206 230.84 548.374 229.88C548.47 229.28 548.206 228.992 547.773 228.656L545.83 227.528C544.702 226.856 543.886 226.232 544.126 224.696C544.414 222.872 546.118 221.432 547.942 221.432C549.31 221.432 550.294 222.176 550.702 223.4ZM555.424 212.168H557.584L555.832 223.28H555.88C556.744 222.08 558.184 221.432 559.552 221.432C562.72 221.432 563.2 223.568 562.768 226.304L561.712 233H559.552L560.56 226.568C560.872 224.648 560.824 223.352 558.616 223.352C555.832 223.352 555.448 225.8 555.112 227.84L554.296 233H552.136L555.424 212.168ZM569.115 221.768L567.339 233H565.179L566.955 221.768H569.115ZM569.091 215.12C569.907 215.12 570.483 215.792 570.339 216.632C570.219 217.448 569.427 218.096 568.611 218.096C567.795 218.096 567.243 217.448 567.363 216.632C567.507 215.792 568.275 215.12 569.091 215.12ZM576.457 231.464C578.809 231.464 580.393 229.592 580.753 227.384C581.089 225.2 580.081 223.352 577.753 223.352C575.521 223.352 573.889 225.296 573.553 227.384C573.217 229.496 574.177 231.464 576.457 231.464ZM574.561 221.768L574.273 223.64H574.321C575.425 222.296 576.889 221.432 578.569 221.432C581.809 221.432 583.417 224.24 582.937 227.312C582.409 230.528 580.033 233.384 576.577 233.384C574.993 233.384 573.769 232.52 573.121 231.248H573.073L571.777 239.432H569.617L572.401 221.768H574.561ZM586.751 230.144L588.503 230.888L584.303 237.296L583.055 236.744L586.751 230.144ZM601.658 221.768L601.418 223.28H601.466C602.33 222.08 603.77 221.432 605.138 221.432C608.306 221.432 608.786 223.568 608.354 226.304L607.298 233H605.138L606.146 226.568C606.458 224.648 606.41 223.352 604.202 223.352C601.418 223.352 601.034 225.8 600.698 227.84L599.882 233H597.722L599.498 221.768H601.658ZM620.989 227.744H612.421C612.133 229.664 613.141 231.464 615.205 231.464C616.861 231.464 617.893 230.624 618.925 229.28L620.581 230.312C619.213 232.256 617.053 233.384 614.869 233.384C611.437 233.384 609.781 230.792 610.285 227.48C610.837 224.024 613.093 221.432 616.717 221.432C620.293 221.432 621.565 224.072 621.037 227.408L620.989 227.744ZM612.781 226.112H619.069C619.093 224.432 618.157 223.304 616.429 223.304C614.749 223.304 613.309 224.504 612.781 226.112ZM625.94 223.784L624.476 233H622.316L623.78 223.784H622.604L622.916 221.768H624.092L624.764 217.472H626.924L626.252 221.768H628.364L628.052 223.784H625.94ZM630.121 221.768L632.257 228.92L636.793 221.144L638.857 228.92L643.249 221.768H645.697L638.137 233.384L636.049 225.872L631.537 233.384L627.673 221.768H630.121ZM651.812 221.432C655.172 221.432 657.404 224.024 656.876 227.408C656.348 230.792 653.276 233.384 649.916 233.384C646.556 233.384 644.348 230.792 644.876 227.408C645.404 224.024 648.452 221.432 651.812 221.432ZM651.5 223.496C649.364 223.496 647.372 225.272 647.036 227.408C646.7 229.52 648.116 231.32 650.252 231.32C652.388 231.32 654.38 229.52 654.716 227.408C655.052 225.272 653.636 223.496 651.5 223.496ZM662.037 221.768L661.749 223.592H661.821C662.565 222.272 663.789 221.432 665.229 221.432C665.853 221.432 666.453 221.648 666.933 221.984L665.637 223.952C665.301 223.616 664.893 223.496 664.389 223.496C662.061 223.496 661.413 225.656 661.125 227.48L660.261 233H658.101L659.877 221.768H662.037ZM671.963 212.168L669.779 225.992L674.675 221.768H677.531L671.987 226.424L676.235 233H673.427L670.235 227.888L669.371 228.632L668.675 233H666.515L669.803 212.168H671.963ZM681.873 221.768L680.097 233H677.937L679.713 221.768H681.873ZM681.849 215.12C682.665 215.12 683.241 215.792 683.097 216.632C682.977 217.448 682.185 218.096 681.369 218.096C680.553 218.096 680.001 217.448 680.121 216.632C680.265 215.792 681.033 215.12 681.849 215.12ZM687.487 221.768L687.247 223.28H687.295C688.159 222.08 689.599 221.432 690.967 221.432C694.135 221.432 694.615 223.568 694.182 226.304L693.127 233H690.967L691.975 226.568C692.287 224.648 692.239 223.352 690.031 223.352C687.247 223.352 686.863 225.8 686.527 227.84L685.711 233H683.551L685.327 221.768H687.487ZM701.177 231.464C703.529 231.464 705.113 229.592 705.473 227.384C705.809 225.2 704.801 223.352 702.473 223.352C700.241 223.352 698.609 225.296 698.273 227.384C697.937 229.496 698.897 231.464 701.177 231.464ZM708.401 221.768L706.649 232.784C706.049 236.648 704.513 239.432 700.145 239.432C697.025 239.432 695.057 237.512 695.513 234.344H697.673C697.361 236.36 698.561 237.512 700.529 237.512C703.193 237.512 704.033 235.688 704.393 233.384L704.753 231.248H704.705C703.625 232.52 702.113 233.384 700.529 233.384C697.073 233.384 695.609 230.528 696.137 227.312C696.617 224.24 699.089 221.432 702.329 221.432C704.009 221.432 705.233 222.296 705.881 223.688H705.929L706.241 221.768H708.401ZM723.038 221.432C726.398 221.432 728.63 224.024 728.102 227.408C727.574 230.792 724.502 233.384 721.142 233.384C717.782 233.384 715.574 230.792 716.102 227.408C716.63 224.024 719.678 221.432 723.038 221.432ZM722.726 223.496C720.59 223.496 718.598 225.272 718.262 227.408C717.926 229.52 719.342 231.32 721.478 231.32C723.614 231.32 725.606 229.52 725.942 227.408C726.278 225.272 724.862 223.496 722.726 223.496ZM734.847 231.464C737.199 231.464 738.783 229.592 739.143 227.384C739.479 225.2 738.471 223.352 736.143 223.352C733.911 223.352 732.279 225.296 731.943 227.384C731.607 229.496 732.567 231.464 734.847 231.464ZM732.951 221.768L732.663 223.64H732.711C733.815 222.296 735.279 221.432 736.959 221.432C740.199 221.432 741.807 224.24 741.327 227.312C740.799 230.528 738.423 233.384 734.967 233.384C733.383 233.384 732.159 232.52 731.511 231.248H731.463L730.167 239.432H728.007L730.791 221.768H732.951ZM748.183 231.464C750.535 231.464 752.119 229.592 752.479 227.384C752.815 225.2 751.807 223.352 749.479 223.352C747.247 223.352 745.615 225.296 745.279 227.384C744.943 229.496 745.903 231.464 748.183 231.464ZM746.287 221.768L745.999 223.64H746.047C747.151 222.296 748.615 221.432 750.295 221.432C753.535 221.432 755.143 224.24 754.663 227.312C754.135 230.528 751.759 233.384 748.303 233.384C746.719 233.384 745.495 232.52 744.847 231.248H744.799L743.503 239.432H741.343L744.127 221.768H746.287ZM762.671 221.432C766.031 221.432 768.263 224.024 767.735 227.408C767.207 230.792 764.135 233.384 760.775 233.384C757.415 233.384 755.207 230.792 755.735 227.408C756.263 224.024 759.311 221.432 762.671 221.432ZM762.359 223.496C760.223 223.496 758.231 225.272 757.895 227.408C757.559 229.52 758.975 231.32 761.111 231.32C763.247 231.32 765.239 229.52 765.575 227.408C765.911 225.272 764.495 223.496 762.359 223.496ZM772.896 221.768L772.608 223.592H772.68C773.424 222.272 774.648 221.432 776.088 221.432C776.712 221.432 777.312 221.648 777.792 221.984L776.496 223.952C776.16 223.616 775.752 223.496 775.248 223.496C772.92 223.496 772.272 225.656 771.984 227.48L771.12 233H768.96L770.736 221.768H772.896ZM781.635 223.784L780.171 233H778.011L779.475 223.784H778.299L778.611 221.768H779.787L780.459 217.472H782.619L781.947 221.768H784.059L783.747 223.784H781.635ZM785.145 221.768H787.305L786.321 227.984C786.033 229.784 786.249 231.368 788.385 231.368C790.521 231.368 791.217 229.784 791.505 227.984L792.489 221.768H794.649L793.641 228.224C793.137 231.296 791.361 233.384 788.049 233.384C784.737 233.384 783.633 231.296 784.137 228.224L785.145 221.768ZM799.682 221.768L799.442 223.28H799.49C800.354 222.08 801.794 221.432 803.162 221.432C806.33 221.432 806.81 223.568 806.378 226.304L805.322 233H803.162L804.17 226.568C804.482 224.648 804.434 223.352 802.226 223.352C799.442 223.352 799.058 225.8 798.722 227.84L797.906 233H795.746L797.522 221.768H799.682ZM812.724 221.768L810.948 233H808.788L810.564 221.768H812.724ZM812.7 215.12C813.516 215.12 814.092 215.792 813.948 216.632C813.828 217.448 813.036 218.096 812.22 218.096C811.404 218.096 810.852 217.448 810.972 216.632C811.116 215.792 811.884 215.12 812.7 215.12ZM818.338 223.784L816.874 233H814.714L816.178 223.784H815.002L815.314 221.768H816.49L817.162 217.472H819.322L818.65 221.768H820.762L820.45 223.784H818.338ZM824.607 221.768L822.831 233H820.671L822.447 221.768H824.607ZM824.583 215.12C825.399 215.12 825.975 215.792 825.831 216.632C825.711 217.448 824.919 218.096 824.103 218.096C823.287 218.096 822.735 217.448 822.855 216.632C822.999 215.792 823.767 215.12 824.583 215.12ZM836.989 227.744H828.421C828.133 229.664 829.141 231.464 831.205 231.464C832.861 231.464 833.893 230.624 834.925 229.28L836.581 230.312C835.213 232.256 833.053 233.384 830.869 233.384C827.437 233.384 825.781 230.792 826.285 227.48C826.837 224.024 829.093 221.432 832.717 221.432C836.293 221.432 837.565 224.072 837.037 227.408L836.989 227.744ZM828.781 226.112H835.069C835.093 224.432 834.157 223.304 832.429 223.304C830.749 223.304 829.309 224.504 828.781 226.112ZM845.78 223.4L843.884 224.336C843.716 223.784 843.236 223.352 842.612 223.352C842.012 223.352 841.364 223.832 841.244 224.456C841.1 225.44 842.324 225.872 843.548 226.472C844.772 227.072 845.924 227.888 845.636 229.664C845.3 231.8 843.26 233.384 841.172 233.384C839.54 233.384 838.052 232.448 837.692 230.864L839.684 230.024C839.996 230.864 840.452 231.464 841.484 231.464C842.396 231.464 843.284 230.84 843.452 229.88C843.548 229.28 843.284 228.992 842.852 228.656L840.908 227.528C839.78 226.856 838.964 226.232 839.204 224.696C839.492 222.872 841.196 221.432 843.02 221.432C844.388 221.432 845.372 222.176 845.78 223.4ZM850.119 230.144L851.871 230.888L847.671 237.296L846.423 236.744L850.119 230.144ZM866.178 231.464C868.53 231.464 870.114 229.592 870.474 227.384C870.81 225.2 869.802 223.352 867.474 223.352C865.242 223.352 863.61 225.296 863.274 227.384C862.938 229.496 863.898 231.464 866.178 231.464ZM873.402 221.768L871.626 233H869.466L869.754 231.248H869.706C868.626 232.52 867.138 233.384 865.53 233.384C862.098 233.384 860.61 230.528 861.138 227.312C861.618 224.24 864.09 221.432 867.354 221.432C869.01 221.432 870.234 222.296 870.906 223.64H870.954L871.242 221.768H873.402ZM878.362 221.768L878.122 223.28H878.17C879.034 222.08 880.474 221.432 881.842 221.432C885.01 221.432 885.49 223.568 885.057 226.304L884.002 233H881.842L882.85 226.568C883.162 224.648 883.114 223.352 880.906 223.352C878.122 223.352 877.738 225.8 877.402 227.84L876.586 233H874.426L876.202 221.768H878.362ZM892.076 231.464C894.428 231.464 896.012 229.592 896.372 227.384C896.708 225.2 895.7 223.352 893.372 223.352C891.14 223.352 889.508 225.296 889.172 227.384C888.836 229.496 889.796 231.464 892.076 231.464ZM895.364 233L895.652 231.248H895.604C894.524 232.52 893.012 233.384 891.428 233.384C887.972 233.384 886.508 230.528 887.036 227.312C887.516 224.24 889.988 221.432 893.228 221.432C894.908 221.432 896.132 222.296 896.804 223.64H896.852L898.652 212.168H900.812L897.524 233H895.364ZM911.125 221.768L910.909 223.184H910.957C911.725 222.2 912.973 221.432 914.197 221.432C915.661 221.432 916.597 222.176 917.125 223.424C918.013 222.224 919.477 221.432 920.893 221.432C923.845 221.432 924.253 223.736 923.845 226.28L922.789 233H920.629L921.637 226.64C921.853 225.2 921.973 223.352 920.077 223.352C917.773 223.352 917.221 225.752 916.933 227.48L916.069 233H913.909L914.845 227.048C915.085 225.584 915.373 223.352 913.381 223.352C911.077 223.352 910.501 225.728 910.213 227.48L909.349 233H907.189L908.965 221.768H911.125ZM932.476 221.432C935.836 221.432 938.068 224.024 937.54 227.408C937.012 230.792 933.94 233.384 930.58 233.384C927.22 233.384 925.012 230.792 925.54 227.408C926.068 224.024 929.116 221.432 932.476 221.432ZM932.164 223.496C930.028 223.496 928.036 225.272 927.7 227.408C927.364 229.52 928.78 231.32 930.916 231.32C933.052 231.32 935.044 229.52 935.38 227.408C935.716 225.272 934.3 223.496 932.164 223.496ZM942.701 221.768L942.413 223.592H942.485C943.229 222.272 944.453 221.432 945.893 221.432C946.517 221.432 947.117 221.648 947.597 221.984L946.301 223.952C945.965 223.616 945.557 223.496 945.053 223.496C942.725 223.496 942.077 225.656 941.789 227.48L940.925 233H938.765L940.541 221.768H942.701ZM957.317 227.744H948.749C948.461 229.664 949.469 231.464 951.533 231.464C953.189 231.464 954.221 230.624 955.253 229.28L956.909 230.312C955.541 232.256 953.381 233.384 951.197 233.384C947.765 233.384 946.109 230.792 946.613 227.48C947.165 224.024 949.421 221.432 953.045 221.432C956.621 221.432 957.893 224.072 957.365 227.408L957.317 227.744ZM949.109 226.112H955.397C955.421 224.432 954.485 223.304 952.757 223.304C951.077 223.304 949.637 224.504 949.109 226.112ZM960.708 230.6C961.476 230.6 962.004 231.248 961.884 231.992C961.764 232.76 961.02 233.384 960.252 233.384C959.484 233.384 958.98 232.76 959.1 231.992C959.22 231.248 959.94 230.6 960.708 230.6Z" fill="#0E3D68"/>
<defs>
<filter id="filter0_d_2055_340" x="0.200001" y="0.200001" width="1086.6" height="412.6" filterUnits="userSpaceOnUse" color-interpolation-filters="sRGB">
<feFlood flood-opacity="0" result="BackgroundImageFix"/>
<feColorMatrix in="SourceAlpha" type="matrix" values="0 0 0 0 0 0 0 0 0 0 0 0 0 0 0 0 0 0 127 0" result="hardAlpha"/>
<feOffset dx="3" dy="6"/>
<feGaussianBlur stdDeviation="9.4"/>
<feComposite in2="hardAlpha" operator="out"/>
<feColorMatrix type="matrix" values="0 0 0 0 0 0 0 0 0 0 0 0 0 0 0 0 0 0 0.2 0"/>
<feBlend mode="normal" in2="BackgroundImageFix" result="effect1_dropShadow_2055_340"/>
<feBlend mode="normal" in="SourceGraphic" in2="effect1_dropShadow_2055_340" result="shape"/>
</filter>
</defs>
</svg>
