<svg width="382" height="300" viewBox="0 0 382 300" fill="none" xmlns="http://www.w3.org/2000/svg">
<path d="M310.672 0H71.328C35.5245 0 6.5 24.3478 6.5 54.3823V214.618C6.5 244.652 35.5245 269 71.328 269H310.672C346.476 269 375.5 244.652 375.5 214.618V54.3823C375.5 24.3478 346.476 0 310.672 0Z" fill="#0E3D68"/>
<path d="M118.714 171H113.986L113.818 163.656C113.794 162.192 113.938 160.92 113.962 159.672H113.914C113.602 160.92 113.338 162.192 112.882 163.656L110.698 171H105.946L104.77 152.904H109.594L109.522 160.2C109.498 161.544 109.45 162.864 109.402 164.208H109.45C109.81 162.864 110.026 161.544 110.482 160.2L112.906 152.904H117.106L117.202 160.2C117.226 161.52 117.154 162.816 117.13 164.136H117.178C117.514 163.008 117.778 161.616 118.21 160.2L120.442 152.904H125.218L118.714 171ZM123.792 171L126.648 152.904H135.744L135.072 157.176H130.872L130.488 159.696H134.256L133.56 163.968H129.792L129.36 166.728H133.56L132.888 171H123.792ZM155.13 171H150.234L151.386 163.656H149.058L147.906 171H143.01L145.866 152.904H150.762L149.754 159.384H152.082L153.09 152.904H157.986L155.13 171ZM158.034 171L160.89 152.904H169.986L169.314 157.176H165.114L164.73 159.696H168.498L167.802 163.968H164.034L163.602 166.728H167.802L167.13 171H158.034ZM178.578 171H170.01L172.866 152.904H177.762L175.578 166.728H179.25L178.578 171ZM185.477 171H180.581L183.437 152.904H187.901C192.173 152.904 195.245 154.296 194.501 159.048C193.757 163.752 190.637 165.192 186.413 165.072L185.477 171ZM189.557 158.976C189.749 157.824 189.293 156.792 188.093 156.792L187.733 156.816L187.061 160.992C188.405 161.064 189.341 160.32 189.557 158.976ZM208.357 171H203.461L204.685 163.32L201.853 152.904H206.941L207.757 158.496H207.805L210.373 152.904H215.437L209.581 163.32L208.357 171ZM213.93 161.952C214.626 157.536 217.338 152.592 222.306 152.592C227.274 152.592 228.45 157.536 227.754 161.952C227.058 166.368 224.322 171.312 219.354 171.312C214.386 171.312 213.234 166.368 213.93 161.952ZM218.922 161.952C218.73 163.08 218.226 166.752 220.074 166.752C221.922 166.752 222.57 163.08 222.762 161.952C222.93 160.824 223.434 157.152 221.586 157.152C219.738 157.152 219.09 160.824 218.922 161.952ZM238.802 152.904H243.698L241.826 164.736C241.49 166.92 240.314 171.312 234.65 171.312C228.986 171.312 229.202 166.92 229.538 164.736L231.41 152.904H236.306L234.506 164.28C234.434 164.76 234.314 165.384 234.386 165.864C234.458 166.368 234.698 166.752 235.37 166.752C236.066 166.752 236.45 166.368 236.642 165.888C236.858 165.384 236.93 164.76 237.002 164.304L238.802 152.904ZM255.742 171H250.846L253.702 152.904H258.598L255.742 171ZM258.628 171L261.484 152.904H266.14L268.348 163.8L268.396 163.752C268.54 161.664 268.492 159.6 268.828 157.512L269.548 152.904H274.252L271.396 171H266.692L264.7 160.56L264.652 160.608C264.484 162.312 264.436 163.992 264.172 165.696L263.332 171H258.628ZM54.065 201L56.921 182.904H62.681C65.561 182.904 68.729 184.152 68.105 188.064C67.793 190.104 66.209 191.688 64.145 191.688V191.736C66.521 191.928 67.553 193.416 67.169 195.84C66.809 198.072 65.009 201 60.641 201H54.065ZM59.585 197.088H59.993C61.073 197.088 62.105 196.56 62.297 195.336C62.489 194.112 61.649 193.608 60.521 193.608H60.137L59.585 197.088ZM60.713 189.936H61.001C62.009 189.936 63.017 189.528 63.185 188.352C63.377 187.272 62.705 186.816 61.697 186.816H61.217L60.713 189.936ZM78.8414 182.904H83.7374L81.8654 194.736C81.5294 196.92 80.3534 201.312 74.6894 201.312C69.0254 201.312 69.2414 196.92 69.5774 194.736L71.4494 182.904H76.3454L74.5454 194.28C74.4734 194.76 74.3534 195.384 74.4254 195.864C74.4974 196.368 74.7374 196.752 75.4094 196.752C76.1054 196.752 76.4894 196.368 76.6814 195.888C76.8974 195.384 76.9694 194.76 77.0414 194.304L78.8414 182.904ZM88.5391 201H83.6431L86.4991 182.904H91.3951L88.5391 201ZM99.9924 201H91.4244L94.2804 182.904H99.1764L96.9924 196.728H100.664L99.9924 201ZM101.995 201L104.851 182.904H108.787C114.355 182.904 116.803 186.408 115.939 191.88C114.619 200.232 109.243 201 106.267 201H101.995ZM109.051 187.416L107.587 196.632C109.819 196.608 110.635 193.824 110.923 192.12C111.235 190.152 111.283 187.416 109.051 187.416ZM121.75 201H116.854L119.71 182.904H124.606L121.75 201ZM124.635 201L127.491 182.904H132.147L134.355 193.8L134.403 193.752C134.547 191.664 134.499 189.6 134.835 187.512L135.555 182.904H140.259L137.403 201H132.699L130.707 190.56L130.659 190.608C130.491 192.312 130.443 193.992 130.179 195.696L129.339 201H124.635ZM148.164 190.536H154.98L154.884 191.304C154.188 195.768 152.436 201.312 146.772 201.312C141.444 201.312 140.46 196.632 141.18 192.048C141.9 187.56 144.372 182.592 149.676 182.592C152.604 182.592 154.5 184.44 155.148 187.056L150.132 188.808C150.204 188.088 149.916 186.96 149.052 186.96C146.796 186.96 146.316 191.112 146.1 192.48C145.98 193.776 145.38 196.944 147.276 196.944C148.572 196.944 149.22 195.408 149.364 194.352H147.564L148.164 190.536ZM169.263 201H164.367L165.591 193.32L162.759 182.904H167.847L168.663 188.496H168.711L171.279 182.904H176.343L170.487 193.32L169.263 201ZM174.836 191.952C175.532 187.536 178.244 182.592 183.212 182.592C188.18 182.592 189.356 187.536 188.66 191.952C187.964 196.368 185.228 201.312 180.26 201.312C175.292 201.312 174.14 196.368 174.836 191.952ZM179.828 191.952C179.636 193.08 179.132 196.752 180.98 196.752C182.828 196.752 183.476 193.08 183.668 191.952C183.836 190.824 184.34 187.152 182.492 187.152C180.644 187.152 179.996 190.824 179.828 191.952ZM199.709 182.904H204.605L202.733 194.736C202.397 196.92 201.221 201.312 195.557 201.312C189.893 201.312 190.109 196.92 190.445 194.736L192.317 182.904H197.213L195.413 194.28C195.341 194.76 195.221 195.384 195.293 195.864C195.365 196.368 195.605 196.752 196.277 196.752C196.973 196.752 197.357 196.368 197.549 195.888C197.765 195.384 197.837 194.76 197.909 194.304L199.709 182.904ZM217.398 201H212.094L210.582 193.464L210.51 193.512C210.414 194.4 210.318 195.288 210.174 196.176L209.406 201H204.51L207.366 182.904H212.094C216.342 182.904 219.222 184.152 218.478 188.928C218.166 190.92 217.014 192.696 214.95 193.464L217.398 201ZM210.942 191.256L211.254 191.28C212.55 191.28 213.438 190.152 213.606 188.976C213.87 187.392 213.006 186.72 211.662 186.792L210.942 191.256ZM226.237 201L229.093 182.904H233.749L235.957 193.8L236.005 193.752C236.149 191.664 236.101 189.6 236.437 187.512L237.157 182.904H241.861L239.005 201H234.301L232.309 190.56L232.261 190.608C232.093 192.312 232.045 193.992 231.781 195.696L230.941 201H226.237ZM241.893 201L244.749 182.904H253.845L253.173 187.176H248.973L248.589 189.696H252.357L251.661 193.968H247.893L247.461 196.728H251.661L250.989 201H241.893ZM260.566 201H255.67L257.83 187.32H255.142L255.838 182.904H266.23L265.534 187.32H262.726L260.566 201ZM280.691 201H275.963L275.795 193.656C275.771 192.192 275.915 190.92 275.939 189.672H275.891C275.579 190.92 275.315 192.192 274.859 193.656L272.675 201H267.923L266.747 182.904H271.571L271.499 190.2C271.475 191.544 271.427 192.864 271.379 194.208H271.427C271.787 192.864 272.003 191.544 272.459 190.2L274.883 182.904H279.083L279.179 190.2C279.203 191.52 279.131 192.816 279.107 194.136H279.155C279.491 193.008 279.755 191.616 280.187 190.2L282.419 182.904H287.195L280.691 201ZM286.656 191.952C287.352 187.536 290.064 182.592 295.032 182.592C300 182.592 301.176 187.536 300.48 191.952C299.784 196.368 297.048 201.312 292.08 201.312C287.112 201.312 285.96 196.368 286.656 191.952ZM291.648 191.952C291.456 193.08 290.952 196.752 292.8 196.752C294.648 196.752 295.296 193.08 295.488 191.952C295.656 190.824 296.16 187.152 294.312 187.152C292.464 187.152 291.816 190.824 291.648 191.952ZM314.289 201H308.985L307.473 193.464L307.401 193.512C307.305 194.4 307.209 195.288 307.065 196.176L306.297 201H301.401L304.257 182.904H308.985C313.233 182.904 316.113 184.152 315.369 188.928C315.057 190.92 313.905 192.696 311.841 193.464L314.289 201ZM307.833 191.256L308.145 191.28C309.441 191.28 310.329 190.152 310.497 188.976C310.761 187.392 309.897 186.72 308.553 186.792L307.833 191.256ZM326.349 182.904H331.509L326.229 191.64L329.109 201H323.853L322.125 192.696H322.101L320.781 201H315.885L318.741 182.904H323.637L322.437 190.608H322.461L326.349 182.904Z" fill="#78C440"/>
<path d="M78.7732 127V86.284H89.2492L98.0512 110.8L98.1592 110.692C97.7272 105.994 96.9172 101.35 96.9172 96.652V86.284H107.501V127H96.9172L88.7092 103.51L88.6012 103.618C88.8712 107.452 89.3572 111.232 89.3572 115.066V127H78.7732ZM114 127V86.284H134.466V95.896H125.016V101.566H133.494V111.178H125.016V117.388H134.466V127H114ZM156.013 127H144.997V96.22H138.949V86.284H162.331V96.22H156.013V127ZM201.294 127H190.656L187.686 110.476C187.092 107.182 186.93 104.32 186.552 101.512H186.444C186.174 104.32 186.066 107.182 185.58 110.476L183.258 127H172.566L163.494 86.284H174.348L176.778 102.7C177.21 105.724 177.534 108.694 177.912 111.718H178.02C178.344 108.694 178.398 105.724 178.938 102.7L181.8 86.284H191.25L194.058 102.7C194.544 105.67 194.868 108.586 195.3 111.556H195.408C195.732 109.018 195.84 105.886 196.326 102.7L198.756 86.284H209.502L201.294 127ZM211.477 106.642C211.477 96.706 215.851 85.582 227.029 85.582C238.207 85.582 242.581 96.706 242.581 106.642C242.581 116.578 238.207 127.702 227.029 127.702C215.851 127.702 211.477 116.578 211.477 106.642ZM222.709 106.642C222.709 109.18 222.871 117.442 227.029 117.442C231.187 117.442 231.349 109.18 231.349 106.642C231.349 104.104 231.187 95.842 227.029 95.842C222.871 95.842 222.709 104.104 222.709 106.642ZM276.89 127H264.956L258.854 110.044L258.746 110.152C258.8 112.15 258.908 114.148 258.908 116.146V127H247.892V86.284H258.53C268.088 86.284 275 89.092 275 99.838C275 104.32 273.056 108.316 268.682 110.044L276.89 127ZM258.908 105.076L259.61 105.13C262.526 105.13 264.092 102.592 264.092 99.946C264.092 96.382 261.932 94.87 258.908 95.032V105.076ZM297.6 86.284H309.21L300.408 105.94L310.236 127H298.41L291.552 108.316H291.498V127H280.482V86.284H291.498V103.618H291.552L297.6 86.284Z" fill="white"/>
</svg>
