<svg width="382" height="302" viewBox="0 0 382 302" fill="none" xmlns="http://www.w3.org/2000/svg">
<path d="M310.672 3.05176e-05H71.328C35.5245 3.05176e-05 6.5 24.3478 6.5 54.3823V214.618C6.5 244.652 35.5245 269 71.328 269H310.672C346.476 269 375.5 244.652 375.5 214.618V54.3823C375.5 24.3478 346.476 3.05176e-05 310.672 3.05176e-05Z" fill="#0E3D68"/>
<path d="M64.9798 173H60.0838L62.2438 159.32H59.5558L60.2518 154.904H70.6438L69.9478 159.32H67.1398L64.9798 173ZM70.3514 163.952C71.0474 159.536 73.7594 154.592 78.7274 154.592C83.6954 154.592 84.8714 159.536 84.1754 163.952C83.4794 168.368 80.7434 173.312 75.7754 173.312C70.8074 173.312 69.6554 168.368 70.3514 163.952ZM75.3434 163.952C75.1514 165.08 74.6474 168.752 76.4954 168.752C78.3434 168.752 78.9914 165.08 79.1834 163.952C79.3514 162.824 79.8554 159.152 78.0074 159.152C76.1594 159.152 75.5114 162.824 75.3434 163.952ZM107.113 173H102.385L102.217 165.656C102.193 164.192 102.337 162.92 102.361 161.672H102.312C102.001 162.92 101.737 164.192 101.281 165.656L99.0965 173H94.3445L93.1685 154.904H97.9925L97.9205 162.2C97.8965 163.544 97.8485 164.864 97.8005 166.208H97.8485C98.2085 164.864 98.4245 163.544 98.8805 162.2L101.305 154.904H105.505L105.601 162.2C105.625 163.52 105.553 164.816 105.529 166.136H105.577C105.913 165.008 106.177 163.616 106.609 162.2L108.841 154.904H113.617L107.113 173ZM113.078 163.952C113.774 159.536 116.486 154.592 121.454 154.592C126.422 154.592 127.598 159.536 126.902 163.952C126.206 168.368 123.47 173.312 118.502 173.312C113.534 173.312 112.382 168.368 113.078 163.952ZM118.07 163.952C117.878 165.08 117.374 168.752 119.222 168.752C121.07 168.752 121.718 165.08 121.91 163.952C122.078 162.824 122.582 159.152 120.734 159.152C118.886 159.152 118.238 162.824 118.07 163.952ZM140.711 173H135.407L133.895 165.464L133.823 165.512C133.727 166.4 133.631 167.288 133.487 168.176L132.719 173H127.823L130.679 154.904H135.407C139.655 154.904 142.535 156.152 141.791 160.928C141.479 162.92 140.327 164.696 138.263 165.464L140.711 173ZM134.255 163.256L134.567 163.28C135.863 163.28 136.751 162.152 136.919 160.976C137.183 159.392 136.319 158.72 134.975 158.792L134.255 163.256ZM152.771 154.904H157.931L152.651 163.64L155.531 173H150.275L148.547 164.696H148.523L147.203 173H142.307L145.163 154.904H150.059L148.859 162.608H148.883L152.771 154.904ZM169.375 173H164.479L167.335 154.904H172.231L169.375 173ZM172.26 173L175.116 154.904H179.772L181.98 165.8L182.028 165.752C182.172 163.664 182.124 161.6 182.46 159.512L183.18 154.904H187.884L185.028 173H180.324L178.332 162.56L178.284 162.608C178.116 164.312 178.068 165.992 177.804 167.696L176.964 173H172.26ZM201.269 173H196.373L198.533 159.32H195.845L196.541 154.904H206.933L206.237 159.32H203.429L201.269 173ZM218.154 173H213.258L214.41 165.656H212.082L210.93 173H206.034L208.89 154.904H213.786L212.778 161.384H215.106L216.114 154.904H221.01L218.154 173ZM221.057 173L223.913 154.904H233.009L232.337 159.176H228.137L227.753 161.696H231.521L230.825 165.968H227.057L226.625 168.728H230.825L230.153 173H221.057ZM246.386 173H241.49L243.65 159.32H240.962L241.658 154.904H252.05L251.354 159.32H248.546L246.386 173ZM251.758 163.952C252.454 159.536 255.166 154.592 260.134 154.592C265.102 154.592 266.278 159.536 265.582 163.952C264.886 168.368 262.15 173.312 257.182 173.312C252.214 173.312 251.062 168.368 251.758 163.952ZM256.75 163.952C256.558 165.08 256.054 168.752 257.902 168.752C259.75 168.752 260.398 165.08 260.59 163.952C260.758 162.824 261.262 159.152 259.414 159.152C257.566 159.152 256.918 162.824 256.75 163.952ZM271.398 173H266.503L269.359 154.904H273.823C278.095 154.904 281.167 156.296 280.423 161.048C279.679 165.752 276.559 167.192 272.335 167.072L271.398 173ZM275.479 160.976C275.671 159.824 275.215 158.792 274.015 158.792L273.655 158.816L272.983 162.992C274.327 163.064 275.263 162.32 275.479 160.976ZM297.302 154.904H302.198L300.326 166.736C299.99 168.92 298.814 173.312 293.15 173.312C287.486 173.312 287.702 168.92 288.038 166.736L289.91 154.904H294.806L293.006 166.28C292.934 166.76 292.814 167.384 292.886 167.864C292.958 168.368 293.198 168.752 293.87 168.752C294.566 168.752 294.95 168.368 295.142 167.888C295.358 167.384 295.43 166.76 295.502 166.304L297.302 154.904ZM303.654 173.264C302.118 173.264 301.11 172.016 301.374 170.48C301.59 169.016 303.03 167.768 304.446 167.768C306.006 167.768 307.11 168.944 306.846 170.552C306.606 172.064 305.166 173.264 303.654 173.264ZM308.376 172.568L309.264 166.904C309.792 167.912 310.8 168.92 312.048 168.92C312.72 168.92 313.56 168.512 313.68 167.72C313.752 167.288 313.656 166.976 313.44 166.712C313.272 166.448 313.032 166.232 312.744 166.016C311.904 165.272 311.184 164.576 310.68 163.712C310.224 162.872 309.984 161.864 310.2 160.544C310.536 158.432 312.48 154.592 316.656 154.592C317.832 154.592 319.056 154.952 319.992 155.504L319.128 161C318.696 160.088 317.688 159.056 316.56 159.056C315.984 159.056 315.216 159.464 315.12 160.16C315.048 160.544 315.216 160.88 315.432 161.168C315.648 161.456 315.984 161.696 316.2 161.912C317.112 162.632 317.832 163.304 318.264 164.12C318.696 164.936 318.864 165.896 318.648 167.264C318.12 170.624 315.336 173.312 311.928 173.312C310.68 173.312 309.456 173.048 308.376 172.568ZM322.217 173.264C320.681 173.264 319.673 172.016 319.937 170.48C320.153 169.016 321.593 167.768 323.009 167.768C324.569 167.768 325.673 168.944 325.409 170.552C325.169 172.064 323.729 173.264 322.217 173.264ZM81.7475 203H76.8515L78.0035 195.656H75.6755L74.5235 203H69.6275L72.4835 184.904H77.3795L76.3715 191.384H78.6995L79.7075 184.904H84.6035L81.7475 203ZM84.6509 203L87.5069 184.904H96.6029L95.9309 189.176H91.7309L91.3469 191.696H95.1149L94.4189 195.968H90.6509L90.2189 198.728H94.4189L93.7469 203H84.6509ZM109.54 203H104.476V200.672H101.188L100.42 203H95.3795L102.58 184.904H108.556L109.54 203ZM102.46 196.832H104.524L104.644 192.632C104.692 191.504 104.764 190.352 104.836 189.224H104.788C104.452 190.352 104.164 191.504 103.78 192.632L102.46 196.832ZM119.727 203H111.159L114.015 184.904H118.911L116.727 198.728H120.399L119.727 203ZM127.839 203H122.943L125.103 189.32H122.415L123.111 184.904H133.503L132.807 189.32H129.999L127.839 203ZM144.724 203H139.828L140.98 195.656H138.652L137.5 203H132.604L135.46 184.904H140.356L139.348 191.384H141.676L142.684 184.904H147.58L144.724 203ZM160.396 185.024L159.556 190.208C158.98 189.536 158.452 189.152 157.444 189.152C154.9 189.152 153.844 191.96 153.532 193.952C153.196 196.064 153.388 198.752 155.836 198.752C156.94 198.752 157.708 198.32 158.62 197.6L157.516 202.664C156.46 203.096 155.548 203.312 154.468 203.312C150.46 203.312 147.532 200.264 148.516 194.072C149.788 185.96 155.572 184.592 157.948 184.592C158.812 184.592 159.652 184.712 160.396 185.024ZM173.36 203H168.296V200.672H165.008L164.24 203H159.2L166.4 184.904H172.376L173.36 203ZM166.28 196.832H168.344L168.464 192.632C168.512 191.504 168.584 190.352 168.656 189.224H168.608C168.272 190.352 167.984 191.504 167.6 192.632L166.28 196.832ZM187.867 203H182.563L181.051 195.464L180.979 195.512C180.883 196.4 180.787 197.288 180.643 198.176L179.875 203H174.979L177.835 184.904H182.563C186.811 184.904 189.691 186.152 188.947 190.928C188.635 192.92 187.483 194.696 185.419 195.464L187.867 203ZM181.411 193.256L181.723 193.28C183.019 193.28 183.907 192.152 184.075 190.976C184.339 189.392 183.475 188.72 182.131 188.792L181.411 193.256ZM189.463 203L192.319 184.904H201.415L200.743 189.176H196.543L196.159 191.696H199.927L199.231 195.968H195.463L195.031 198.728H199.231L198.559 203H189.463ZM213.578 203H208.682L211.538 184.904H220.178L219.506 189.176H215.762L215.354 191.792H218.858L218.186 196.064H214.682L213.578 203ZM232.282 203H227.218V200.672H223.93L223.162 203H218.122L225.322 184.904H231.298L232.282 203ZM225.202 196.832H227.266L227.386 192.632C227.434 191.504 227.506 190.352 227.578 189.224H227.53C227.194 190.352 226.906 191.504 226.522 192.632L225.202 196.832ZM246.528 185.024L245.688 190.208C245.112 189.536 244.584 189.152 243.576 189.152C241.032 189.152 239.976 191.96 239.664 193.952C239.328 196.064 239.52 198.752 241.968 198.752C243.072 198.752 243.84 198.32 244.752 197.6L243.648 202.664C242.592 203.096 241.68 203.312 240.6 203.312C236.592 203.312 233.664 200.264 234.648 194.072C235.92 185.96 241.704 184.592 244.08 184.592C244.944 184.592 245.784 184.712 246.528 185.024ZM251.477 203H246.581L249.437 184.904H254.333L251.477 203ZM262.93 203H254.362L257.218 184.904H262.114L259.93 198.728H263.602L262.93 203ZM269.828 203H264.932L267.788 184.904H272.684L269.828 203ZM279.409 203H274.513L276.673 189.32H273.985L274.681 184.904H285.073L284.377 189.32H281.569L279.409 203ZM289.07 203H284.174L287.03 184.904H291.926L289.07 203ZM291.956 203L294.812 184.904H303.908L303.236 189.176H299.036L298.652 191.696H302.42L301.724 195.968H297.956L297.524 198.728H301.724L301.052 203H291.956ZM303.548 202.568L304.436 196.904C304.964 197.912 305.972 198.92 307.22 198.92C307.892 198.92 308.732 198.512 308.852 197.72C308.924 197.288 308.828 196.976 308.612 196.712C308.444 196.448 308.204 196.232 307.916 196.016C307.076 195.272 306.356 194.576 305.852 193.712C305.396 192.872 305.156 191.864 305.372 190.544C305.708 188.432 307.652 184.592 311.828 184.592C313.004 184.592 314.228 184.952 315.164 185.504L314.3 191C313.868 190.088 312.86 189.056 311.732 189.056C311.156 189.056 310.388 189.464 310.292 190.16C310.22 190.544 310.388 190.88 310.604 191.168C310.82 191.456 311.156 191.696 311.372 191.912C312.284 192.632 313.004 193.304 313.436 194.12C313.868 194.936 314.036 195.896 313.82 197.264C313.292 200.624 310.508 203.312 307.1 203.312C305.852 203.312 304.628 203.048 303.548 202.568Z" fill="#78C440"/>
<path d="M55.0148 135H43.9988V94.284H54.0428C63.6548 94.284 71.0528 97.416 71.0528 108.108C71.0528 118.692 64.5728 121.932 55.0148 121.662V135ZM59.9288 107.946C59.9288 105.354 58.5248 103.032 55.8248 103.032L55.0148 103.086V112.482C58.0388 112.644 59.9288 110.97 59.9288 107.946ZM94.8119 135H75.5339V94.284H86.5499V125.388H94.8119V135ZM128.369 135H116.975L116.165 129.762H108.767L107.849 135H96.5091L106.283 94.284H119.729L128.369 135ZM110.225 121.122H114.869L113.681 111.672C113.357 109.134 113.141 106.542 112.871 104.004H112.763C112.439 106.542 112.169 109.134 111.737 111.672L110.225 121.122ZM153.998 94.554V106.218C152.432 104.706 151.136 103.842 148.868 103.842C143.144 103.842 141.74 110.16 141.74 114.642C141.74 119.394 143.144 125.442 148.652 125.442C151.136 125.442 152.702 124.47 154.484 122.85L153.836 134.244C151.622 135.216 149.624 135.702 147.194 135.702C138.176 135.702 130.508 128.844 130.508 114.912C130.508 96.66 143.036 93.582 148.382 93.582C150.326 93.582 152.216 93.852 153.998 94.554ZM160.542 135V94.284H181.008V103.896H171.558V109.566H180.036V119.178H171.558V125.388H181.008V135H160.542ZM227.989 135H216.541L215.515 109.404H215.407C214.921 112.374 214.543 115.344 214.003 118.314L210.871 135H201.907L198.073 109.404H197.965C197.911 112.428 197.965 115.398 197.803 118.422L196.885 135H185.059L189.811 94.284H203.527L206.659 115.938H206.767C207.091 113.4 207.361 110.916 207.847 108.378L210.493 94.284H224.047L227.989 135ZM232.05 135V94.284H252.516V103.896H243.066V109.566H251.544V119.178H243.066V125.388H252.516V135H232.05ZM258.997 135V94.284H269.473L278.275 118.8L278.383 118.692C277.951 113.994 277.141 109.35 277.141 104.652V94.284H287.725V135H277.141L268.933 111.51L268.825 111.618C269.095 115.452 269.581 119.232 269.581 123.066V135H258.997ZM309.289 135H298.273V104.22H292.225V94.284H315.607V104.22H309.289V135ZM318.985 134.028V121.284C320.497 123.552 323.143 125.82 325.951 125.82C327.463 125.82 329.191 124.902 329.191 123.12C329.191 122.148 328.867 121.446 328.327 120.852C327.841 120.258 327.193 119.772 326.491 119.286C324.331 117.612 322.441 116.046 321.037 114.102C319.687 112.212 318.823 109.944 318.823 106.974C318.823 102.222 321.847 93.582 331.243 93.582C333.889 93.582 336.751 94.392 339.073 95.634V108C337.777 105.948 335.131 103.626 332.593 103.626C331.297 103.626 329.731 104.544 329.731 106.11C329.731 106.974 330.217 107.73 330.811 108.378C331.405 109.026 332.215 109.566 332.809 110.052C335.131 111.672 336.967 113.184 338.209 115.02C339.505 116.856 340.207 119.016 340.207 122.094C340.207 129.654 334.915 135.702 327.247 135.702C324.439 135.702 321.577 135.108 318.985 134.028Z" fill="white"/>
</svg>
