<svg width="546" height="327" viewBox="0 0 546 327" fill="none" xmlns="http://www.w3.org/2000/svg">
<rect width="546" height="327" rx="50" fill="#6CBF2A"/>
<path d="M93.0415 212.5L60.2719 200L58.9998 201.183L64.3748 212.5L58.9998 223.817L60.2719 225L93.0415 212.5Z" fill="#0E3D68"/>
<path d="M93.0415 98.5L60.2719 86L58.9998 87.1833L64.3748 98.5L58.9998 109.817L60.2719 111L93.0415 98.5Z" fill="#0E3D68"/>
<path d="M123.44 97.64H130.018L129.908 98.3C129.204 102.854 125.42 106.352 120.778 106.352C116.136 106.352 113.034 102.348 113.76 97.75C114.53 92.976 118.974 89.06 123.748 89.06C126.322 89.06 128.698 90.226 129.996 92.272L128.324 93.658C127.4 92.03 125.552 90.952 123.528 90.952C119.81 90.952 116.444 93.966 115.85 97.684C115.3 101.16 117.632 104.46 121.218 104.46C123.792 104.46 126.916 102.238 127.444 99.532H123.154L123.44 97.64ZM140.342 101.182H132.488C132.224 102.942 133.148 104.592 135.04 104.592C136.558 104.592 137.504 103.822 138.45 102.59L139.968 103.536C138.714 105.318 136.734 106.352 134.732 106.352C131.586 106.352 130.068 103.976 130.53 100.94C131.036 97.772 133.104 95.396 136.426 95.396C139.704 95.396 140.87 97.816 140.386 100.874L140.342 101.182ZM132.818 99.686H138.582C138.604 98.146 137.746 97.112 136.162 97.112C134.622 97.112 133.302 98.212 132.818 99.686ZM144.88 97.552L143.538 106H141.558L142.9 97.552H141.822L142.108 95.704H143.186L143.802 91.766H145.782L145.166 95.704H147.102L146.816 97.552H144.88ZM155.931 86.904H157.911L156.305 97.09H156.349C157.141 95.99 158.461 95.396 159.715 95.396C162.619 95.396 163.059 97.354 162.663 99.862L161.695 106H159.715L160.639 100.104C160.925 98.344 160.881 97.156 158.857 97.156C156.305 97.156 155.953 99.4 155.645 101.27L154.897 106H152.917L155.931 86.904ZM174.244 101.182H166.39C166.126 102.942 167.05 104.592 168.942 104.592C170.46 104.592 171.406 103.822 172.352 102.59L173.87 103.536C172.616 105.318 170.636 106.352 168.634 106.352C165.488 106.352 163.97 103.976 164.432 100.94C164.938 97.772 167.006 95.396 170.328 95.396C173.606 95.396 174.772 97.816 174.288 100.874L174.244 101.182ZM166.72 99.686H172.484C172.506 98.146 171.648 97.112 170.064 97.112C168.524 97.112 167.204 98.212 166.72 99.686ZM180.257 86.904L177.243 106H175.263L178.277 86.904H180.257ZM185.244 104.592C187.4 104.592 188.852 102.876 189.182 100.852C189.49 98.85 188.566 97.156 186.432 97.156C184.386 97.156 182.89 98.938 182.582 100.852C182.274 102.788 183.154 104.592 185.244 104.592ZM183.506 95.704L183.242 97.42H183.286C184.298 96.188 185.64 95.396 187.18 95.396C190.15 95.396 191.623 97.97 191.184 100.786C190.7 103.734 188.522 106.352 185.354 106.352C183.902 106.352 182.78 105.56 182.186 104.394H182.142L180.954 111.896H178.974L181.526 95.704H183.506ZM200.791 95.704L202.749 102.26L206.907 95.132L208.799 102.26L212.825 95.704H215.069L208.139 106.352L206.225 99.466L202.089 106.352L198.547 95.704H200.791ZM218.475 95.704L216.847 106H214.867L216.495 95.704H218.475ZM218.453 89.61C219.201 89.61 219.729 90.226 219.597 90.996C219.487 91.744 218.761 92.338 218.013 92.338C217.265 92.338 216.759 91.744 216.869 90.996C217.001 90.226 217.705 89.61 218.453 89.61ZM223.62 97.552L222.278 106H220.298L221.64 97.552H220.562L220.848 95.704H221.926L222.542 91.766H224.522L223.906 95.704H225.842L225.556 97.552H223.62ZM228.333 86.904H230.313L228.707 97.09H228.751C229.543 95.99 230.863 95.396 232.117 95.396C235.021 95.396 235.461 97.354 235.065 99.862L234.097 106H232.117L233.041 100.104C233.327 98.344 233.283 97.156 231.259 97.156C228.707 97.156 228.355 99.4 228.047 101.27L227.299 106H225.319L228.333 86.904ZM246.802 97.552L245.46 106H243.48L244.822 97.552H243.744L244.03 95.704H245.108L245.724 91.766H247.704L247.088 95.704H249.024L248.738 97.552H246.802ZM251.515 86.904H253.495L251.889 97.09H251.933C252.725 95.99 254.045 95.396 255.299 95.396C258.203 95.396 258.643 97.354 258.247 99.862L257.279 106H255.299L256.223 100.104C256.509 98.344 256.465 97.156 254.441 97.156C251.889 97.156 251.537 99.4 251.229 101.27L250.481 106H248.501L251.515 86.904ZM269.828 101.182H261.974C261.71 102.942 262.634 104.592 264.526 104.592C266.044 104.592 266.99 103.822 267.936 102.59L269.454 103.536C268.2 105.318 266.22 106.352 264.218 106.352C261.072 106.352 259.554 103.976 260.016 100.94C260.522 97.772 262.59 95.396 265.912 95.396C269.19 95.396 270.356 97.816 269.872 100.874L269.828 101.182ZM262.304 99.686H268.068C268.09 98.146 267.232 97.112 265.648 97.112C264.108 97.112 262.788 98.212 262.304 99.686ZM283.237 95.396C286.317 95.396 288.363 97.772 287.879 100.874C287.395 103.976 284.579 106.352 281.499 106.352C278.419 106.352 276.395 103.976 276.879 100.874C277.363 97.772 280.157 95.396 283.237 95.396ZM282.951 97.288C280.993 97.288 279.167 98.916 278.859 100.874C278.551 102.81 279.849 104.46 281.807 104.46C283.765 104.46 285.591 102.81 285.899 100.874C286.207 98.916 284.909 97.288 282.951 97.288ZM292.478 95.704L292.258 97.09H292.302C293.094 95.99 294.414 95.396 295.668 95.396C298.572 95.396 299.012 97.354 298.616 99.862L297.648 106H295.668L296.592 100.104C296.878 98.344 296.834 97.156 294.81 97.156C292.258 97.156 291.906 99.4 291.598 101.27L290.85 106H288.87L290.498 95.704H292.478ZM305.577 104.592C307.733 104.592 309.185 102.876 309.515 100.852C309.823 98.85 308.899 97.156 306.765 97.156C304.719 97.156 303.223 98.938 302.915 100.852C302.607 102.788 303.487 104.592 305.577 104.592ZM300.231 106L303.245 86.904H305.225L303.575 97.42H303.619C304.631 96.188 305.973 95.396 307.513 95.396C310.483 95.396 311.957 97.97 311.517 100.786C311.033 103.734 308.855 106.352 305.687 106.352C304.235 106.352 303.113 105.56 302.519 104.394H302.475L302.211 106H300.231ZM318.858 95.396C321.938 95.396 323.984 97.772 323.5 100.874C323.016 103.976 320.2 106.352 317.12 106.352C314.04 106.352 312.016 103.976 312.5 100.874C312.984 97.772 315.778 95.396 318.858 95.396ZM318.572 97.288C316.614 97.288 314.788 98.916 314.48 100.874C314.172 102.81 315.47 104.46 317.428 104.46C319.386 104.46 321.212 102.81 321.52 100.874C321.828 98.916 320.53 97.288 318.572 97.288ZM329.155 104.592C331.311 104.592 332.763 102.876 333.093 100.852C333.401 98.85 332.477 97.156 330.343 97.156C328.297 97.156 326.801 98.938 326.493 100.852C326.185 102.788 327.065 104.592 329.155 104.592ZM335.777 95.704L334.149 106H332.169L332.433 104.394H332.389C331.399 105.56 330.035 106.352 328.561 106.352C325.415 106.352 324.051 103.734 324.535 100.786C324.975 97.97 327.241 95.396 330.233 95.396C331.751 95.396 332.873 96.188 333.489 97.42H333.533L333.797 95.704H335.777ZM340.456 95.704L340.192 97.376H340.258C340.94 96.166 342.062 95.396 343.382 95.396C343.954 95.396 344.504 95.594 344.944 95.902L343.756 97.706C343.448 97.398 343.074 97.288 342.612 97.288C340.478 97.288 339.884 99.268 339.62 100.94L338.828 106H336.848L338.476 95.704H340.456ZM348.706 104.592C350.862 104.592 352.314 102.876 352.644 100.852C352.952 98.85 352.028 97.156 349.894 97.156C347.848 97.156 346.352 98.938 346.044 100.852C345.736 102.788 346.616 104.592 348.706 104.592ZM351.72 106L351.984 104.394H351.94C350.95 105.56 349.564 106.352 348.112 106.352C344.944 106.352 343.602 103.734 344.086 100.786C344.526 97.97 346.792 95.396 349.762 95.396C351.302 95.396 352.424 96.188 353.04 97.42H353.084L354.734 86.904H356.714L353.7 106H351.72ZM360.336 95.704L358.708 106H356.728L358.356 95.704H360.336ZM360.314 89.61C361.062 89.61 361.59 90.226 361.458 90.996C361.348 91.744 360.622 92.338 359.874 92.338C359.126 92.338 358.62 91.744 358.73 90.996C358.862 90.226 359.566 89.61 360.314 89.61ZM365.482 95.704L365.262 97.09H365.306C366.098 95.99 367.418 95.396 368.672 95.396C371.576 95.396 372.016 97.354 371.62 99.862L370.652 106H368.672L369.596 100.104C369.882 98.344 369.838 97.156 367.814 97.156C365.262 97.156 364.91 99.4 364.602 101.27L363.854 106H361.874L363.502 95.704H365.482ZM378.031 104.592C380.187 104.592 381.639 102.876 381.969 100.852C382.277 98.85 381.353 97.156 379.219 97.156C377.173 97.156 375.677 98.938 375.369 100.852C375.061 102.788 375.941 104.592 378.031 104.592ZM384.653 95.704L383.047 105.802C382.497 109.344 381.089 111.896 377.085 111.896C374.225 111.896 372.421 110.136 372.839 107.232H374.819C374.533 109.08 375.633 110.136 377.437 110.136C379.879 110.136 380.649 108.464 380.979 106.352L381.309 104.394H381.265C380.275 105.56 378.889 106.352 377.437 106.352C374.269 106.352 372.927 103.734 373.411 100.786C373.851 97.97 376.117 95.396 379.087 95.396C380.627 95.396 381.749 96.188 382.343 97.464H382.387L382.673 95.704H384.653ZM397.144 104.592C399.3 104.592 400.752 102.876 401.082 100.852C401.39 98.85 400.466 97.156 398.332 97.156C396.286 97.156 394.79 98.938 394.482 100.852C394.174 102.788 395.054 104.592 397.144 104.592ZM395.406 95.704L395.142 97.42H395.186C396.198 96.188 397.54 95.396 399.08 95.396C402.05 95.396 403.524 97.97 403.084 100.786C402.6 103.734 400.422 106.352 397.254 106.352C395.802 106.352 394.68 105.56 394.086 104.394H394.042L392.854 111.896H390.874L393.426 95.704H395.406ZM407.917 95.704L407.653 97.376H407.719C408.401 96.166 409.523 95.396 410.843 95.396C411.415 95.396 411.965 95.594 412.405 95.902L411.217 97.706C410.909 97.398 410.535 97.288 410.073 97.288C407.939 97.288 407.345 99.268 407.081 100.94L406.289 106H404.309L405.937 95.704H407.917ZM417.751 95.396C420.831 95.396 422.877 97.772 422.393 100.874C421.909 103.976 419.093 106.352 416.013 106.352C412.933 106.352 410.909 103.976 411.393 100.874C411.877 97.772 414.671 95.396 417.751 95.396ZM417.465 97.288C415.507 97.288 413.681 98.916 413.373 100.874C413.065 102.81 414.363 104.46 416.321 104.46C418.279 104.46 420.105 102.81 420.413 100.874C420.721 98.916 419.423 97.288 417.465 97.288ZM432.514 96.078L432.118 98.63C431.48 97.728 430.578 97.244 429.39 97.244C427.454 97.244 425.694 98.96 425.386 100.852C425.056 102.964 426.288 104.504 428.378 104.504C429.522 104.504 430.534 103.976 431.414 103.14L430.996 105.67C430.028 106.154 429.082 106.352 428.048 106.352C425.012 106.352 422.9 104.02 423.384 100.94C423.89 97.75 426.728 95.396 429.896 95.396C430.82 95.396 431.81 95.616 432.514 96.078ZM442.649 101.182H434.795C434.531 102.942 435.455 104.592 437.347 104.592C438.865 104.592 439.811 103.822 440.757 102.59L442.275 103.536C441.021 105.318 439.041 106.352 437.039 106.352C433.893 106.352 432.375 103.976 432.837 100.94C433.343 97.772 435.411 95.396 438.733 95.396C442.011 95.396 443.177 97.816 442.693 100.874L442.649 101.182ZM435.125 99.686H440.889C440.911 98.146 440.053 97.112 438.469 97.112C436.929 97.112 435.609 98.212 435.125 99.686ZM450.707 97.2L448.969 98.058C448.815 97.552 448.375 97.156 447.803 97.156C447.253 97.156 446.659 97.596 446.549 98.168C446.417 99.07 447.539 99.466 448.661 100.016C449.783 100.566 450.839 101.314 450.575 102.942C450.267 104.9 448.397 106.352 446.483 106.352C444.987 106.352 443.623 105.494 443.293 104.042L445.119 103.272C445.405 104.042 445.823 104.592 446.769 104.592C447.605 104.592 448.419 104.02 448.573 103.14C448.661 102.59 448.419 102.326 448.023 102.018L446.241 100.984C445.207 100.368 444.459 99.796 444.679 98.388C444.943 96.716 446.505 95.396 448.177 95.396C449.431 95.396 450.333 96.078 450.707 97.2ZM459.15 97.2L457.412 98.058C457.258 97.552 456.818 97.156 456.246 97.156C455.696 97.156 455.102 97.596 454.992 98.168C454.86 99.07 455.982 99.466 457.104 100.016C458.226 100.566 459.282 101.314 459.018 102.942C458.71 104.9 456.84 106.352 454.926 106.352C453.43 106.352 452.066 105.494 451.736 104.042L453.562 103.272C453.848 104.042 454.266 104.592 455.212 104.592C456.048 104.592 456.862 104.02 457.016 103.14C457.104 102.59 456.862 102.326 456.466 102.018L454.684 100.984C453.65 100.368 452.902 99.796 453.122 98.388C453.386 96.716 454.948 95.396 456.62 95.396C457.874 95.396 458.776 96.078 459.15 97.2ZM471.489 104.592C473.645 104.592 475.097 102.876 475.427 100.852C475.735 98.85 474.811 97.156 472.677 97.156C470.631 97.156 469.135 98.938 468.827 100.852C468.519 102.788 469.399 104.592 471.489 104.592ZM478.111 95.704L476.483 106H474.503L474.767 104.394H474.723C473.733 105.56 472.369 106.352 470.895 106.352C467.749 106.352 466.385 103.734 466.869 100.786C467.309 97.97 469.575 95.396 472.567 95.396C474.085 95.396 475.207 96.188 475.823 97.42H475.867L476.131 95.704H478.111ZM482.658 97.552L481.316 106H479.336L480.678 97.552H479.6L479.886 95.704H480.964L481.58 91.766H483.56L482.944 95.704H484.88L484.594 97.552H482.658ZM116.708 130.24L113.342 121.704H115.652L118.094 128.238L122.362 121.704H124.584L113.694 137.896H111.45L116.708 130.24ZM130.268 121.396C133.348 121.396 135.394 123.772 134.91 126.874C134.426 129.976 131.61 132.352 128.53 132.352C125.45 132.352 123.426 129.976 123.91 126.874C124.394 123.772 127.188 121.396 130.268 121.396ZM129.982 123.288C128.024 123.288 126.198 124.916 125.89 126.874C125.582 128.81 126.88 130.46 128.838 130.46C130.796 130.46 132.622 128.81 132.93 126.874C133.238 124.916 131.94 123.288 129.982 123.288ZM137.441 121.704H139.421L138.519 127.402C138.255 129.052 138.453 130.504 140.411 130.504C142.369 130.504 143.007 129.052 143.271 127.402L144.173 121.704H146.153L145.229 127.622C144.767 130.438 143.139 132.352 140.103 132.352C137.067 132.352 136.055 130.438 136.517 127.622L137.441 121.704ZM150.899 121.704L150.635 123.376H150.701C151.383 122.166 152.505 121.396 153.825 121.396C154.397 121.396 154.947 121.594 155.387 121.902L154.199 123.706C153.891 123.398 153.517 123.288 153.055 123.288C150.921 123.288 150.327 125.268 150.063 126.94L149.271 132H147.291L148.919 121.704H150.899ZM164.839 121.704L164.619 123.09H164.663C165.455 121.99 166.775 121.396 168.029 121.396C170.933 121.396 171.373 123.354 170.977 125.862L170.009 132H168.029L168.953 126.104C169.239 124.344 169.195 123.156 167.171 123.156C164.619 123.156 164.267 125.4 163.959 127.27L163.211 132H161.231L162.859 121.704H164.839ZM182.559 127.182H174.705C174.441 128.942 175.365 130.592 177.257 130.592C178.775 130.592 179.721 129.822 180.667 128.59L182.185 129.536C180.931 131.318 178.951 132.352 176.949 132.352C173.803 132.352 172.285 129.976 172.747 126.94C173.253 123.772 175.321 121.396 178.643 121.396C181.921 121.396 183.087 123.816 182.603 126.874L182.559 127.182ZM175.035 125.686H180.799C180.821 124.146 179.963 123.112 178.379 123.112C176.839 123.112 175.519 124.212 175.035 125.686ZM185.645 121.704L187.603 128.26L191.761 121.132L193.653 128.26L197.679 121.704H199.923L192.993 132.352L191.079 125.466L186.943 132.352L183.401 121.704H185.645ZM209.687 121.704L207.135 137.896H205.155L207.707 121.704H209.687ZM209.665 115.61C210.413 115.61 210.941 116.226 210.809 116.996C210.699 117.744 209.973 118.338 209.225 118.338C208.477 118.338 207.971 117.744 208.081 116.996C208.213 116.226 208.917 115.61 209.665 115.61ZM217.473 121.396C220.553 121.396 222.599 123.772 222.115 126.874C221.631 129.976 218.815 132.352 215.735 132.352C212.655 132.352 210.631 129.976 211.115 126.874C211.599 123.772 214.393 121.396 217.473 121.396ZM217.187 123.288C215.229 123.288 213.403 124.916 213.095 126.874C212.787 128.81 214.085 130.46 216.043 130.46C218.001 130.46 219.827 128.81 220.135 126.874C220.443 124.916 219.145 123.288 217.187 123.288ZM228.298 130.592C230.454 130.592 231.906 128.876 232.236 126.852C232.544 124.85 231.62 123.156 229.486 123.156C227.44 123.156 225.944 124.938 225.636 126.852C225.328 128.788 226.208 130.592 228.298 130.592ZM222.952 132L225.966 112.904H227.946L226.296 123.42H226.34C227.352 122.188 228.694 121.396 230.234 121.396C233.204 121.396 234.678 123.97 234.238 126.786C233.754 129.734 231.576 132.352 228.408 132.352C226.956 132.352 225.834 131.56 225.24 130.394H225.196L224.932 132H222.952ZM237.735 129.382L239.341 130.064L235.491 135.938L234.347 135.432L237.735 129.382ZM251.84 121.704L250.212 132H248.232L249.86 121.704H251.84ZM251.818 115.61C252.566 115.61 253.094 116.226 252.962 116.996C252.852 117.744 252.126 118.338 251.378 118.338C250.63 118.338 250.124 117.744 250.234 116.996C250.366 116.226 251.07 115.61 251.818 115.61ZM256.986 121.704L256.766 123.09H256.81C257.602 121.99 258.922 121.396 260.176 121.396C263.08 121.396 263.52 123.354 263.124 125.862L262.156 132H260.176L261.1 126.104C261.386 124.344 261.342 123.156 259.318 123.156C256.766 123.156 256.414 125.4 256.106 127.27L255.358 132H253.378L255.006 121.704H256.986ZM274.023 122.078L273.627 124.63C272.989 123.728 272.087 123.244 270.899 123.244C268.963 123.244 267.203 124.96 266.895 126.852C266.565 128.964 267.797 130.504 269.887 130.504C271.031 130.504 272.043 129.976 272.923 129.14L272.505 131.67C271.537 132.154 270.591 132.352 269.557 132.352C266.521 132.352 264.409 130.02 264.893 126.94C265.399 123.75 268.237 121.396 271.405 121.396C272.329 121.396 273.319 121.616 274.023 122.078ZM279.686 112.904L276.672 132H274.692L277.706 112.904H279.686ZM281.021 121.704H283.001L282.099 127.402C281.835 129.052 282.033 130.504 283.991 130.504C285.949 130.504 286.587 129.052 286.851 127.402L287.753 121.704H289.733L288.809 127.622C288.347 130.438 286.719 132.352 283.683 132.352C280.647 132.352 279.635 130.438 280.097 127.622L281.021 121.704ZM295.403 130.592C297.559 130.592 299.011 128.876 299.341 126.852C299.649 124.85 298.725 123.156 296.591 123.156C294.545 123.156 293.049 124.938 292.741 126.852C292.433 128.788 293.313 130.592 295.403 130.592ZM298.417 132L298.681 130.394H298.637C297.647 131.56 296.261 132.352 294.809 132.352C291.641 132.352 290.299 129.734 290.783 126.786C291.223 123.97 293.489 121.396 296.459 121.396C297.999 121.396 299.121 122.188 299.737 123.42H299.781L301.431 112.904H303.411L300.397 132H298.417ZM307.033 121.704L305.405 132H303.425L305.053 121.704H307.033ZM307.011 115.61C307.759 115.61 308.287 116.226 308.155 116.996C308.045 117.744 307.319 118.338 306.571 118.338C305.823 118.338 305.317 117.744 305.427 116.996C305.559 116.226 306.263 115.61 307.011 115.61ZM312.179 121.704L311.959 123.09H312.003C312.795 121.99 314.115 121.396 315.369 121.396C318.273 121.396 318.713 123.354 318.317 125.862L317.349 132H315.369L316.293 126.104C316.579 124.344 316.535 123.156 314.511 123.156C311.959 123.156 311.607 125.4 311.299 127.27L310.551 132H308.571L310.199 121.704H312.179ZM324.729 130.592C326.885 130.592 328.337 128.876 328.667 126.852C328.975 124.85 328.051 123.156 325.917 123.156C323.871 123.156 322.375 124.938 322.067 126.852C321.759 128.788 322.639 130.592 324.729 130.592ZM331.351 121.704L329.745 131.802C329.195 135.344 327.787 137.896 323.783 137.896C320.923 137.896 319.119 136.136 319.537 133.232H321.517C321.231 135.08 322.331 136.136 324.135 136.136C326.577 136.136 327.347 134.464 327.677 132.352L328.007 130.394H327.963C326.973 131.56 325.587 132.352 324.135 132.352C320.967 132.352 319.625 129.734 320.109 126.786C320.549 123.97 322.815 121.396 325.785 121.396C327.325 121.396 328.447 122.188 329.041 123.464H329.085L329.371 121.704H331.351ZM344.768 121.396C347.848 121.396 349.894 123.772 349.41 126.874C348.926 129.976 346.11 132.352 343.03 132.352C339.95 132.352 337.926 129.976 338.41 126.874C338.894 123.772 341.688 121.396 344.768 121.396ZM344.482 123.288C342.524 123.288 340.698 124.916 340.39 126.874C340.082 128.81 341.38 130.46 343.338 130.46C345.296 130.46 347.122 128.81 347.43 126.874C347.738 124.916 346.44 123.288 344.482 123.288ZM354.141 121.704L353.877 123.376H353.943C354.625 122.166 355.747 121.396 357.067 121.396C357.639 121.396 358.189 121.594 358.629 121.902L357.441 123.706C357.133 123.398 356.759 123.288 356.297 123.288C354.163 123.288 353.569 125.268 353.305 126.94L352.513 132H350.533L352.161 121.704H354.141ZM362.162 121.704L360.534 132H358.554L360.182 121.704H362.162ZM362.14 115.61C362.888 115.61 363.416 116.226 363.284 116.996C363.174 117.744 362.448 118.338 361.7 118.338C360.952 118.338 360.446 117.744 360.556 116.996C360.688 116.226 361.392 115.61 362.14 115.61ZM373.512 127.182H365.658C365.394 128.942 366.318 130.592 368.21 130.592C369.728 130.592 370.674 129.822 371.62 128.59L373.138 129.536C371.884 131.318 369.904 132.352 367.902 132.352C364.756 132.352 363.238 129.976 363.7 126.94C364.206 123.772 366.274 121.396 369.596 121.396C372.874 121.396 374.04 123.816 373.556 126.874L373.512 127.182ZM365.988 125.686H371.752C371.774 124.146 370.916 123.112 369.332 123.112C367.792 123.112 366.472 124.212 365.988 125.686ZM378.05 121.704L377.83 123.09H377.874C378.666 121.99 379.986 121.396 381.24 121.396C384.144 121.396 384.584 123.354 384.188 125.862L383.22 132H381.24L382.164 126.104C382.45 124.344 382.406 123.156 380.382 123.156C377.83 123.156 377.478 125.4 377.17 127.27L376.422 132H374.442L376.07 121.704H378.05ZM389.566 123.552L388.224 132H386.244L387.586 123.552H386.508L386.794 121.704H387.872L388.488 117.766H390.468L389.852 121.704H391.788L391.502 123.552H389.566ZM395.907 130.592C398.063 130.592 399.515 128.876 399.845 126.852C400.153 124.85 399.229 123.156 397.095 123.156C395.049 123.156 393.553 124.938 393.245 126.852C392.937 128.788 393.817 130.592 395.907 130.592ZM402.529 121.704L400.901 132H398.921L399.185 130.394H399.141C398.151 131.56 396.787 132.352 395.313 132.352C392.167 132.352 390.803 129.734 391.287 126.786C391.727 123.97 393.993 121.396 396.985 121.396C398.503 121.396 399.625 122.188 400.241 123.42H400.285L400.549 121.704H402.529ZM407.076 123.552L405.734 132H403.754L405.096 123.552H404.018L404.304 121.704H405.382L405.998 117.766H407.978L407.362 121.704H409.298L409.012 123.552H407.076ZM412.822 121.704L411.194 132H409.214L410.842 121.704H412.822ZM412.8 115.61C413.548 115.61 414.076 116.226 413.944 116.996C413.834 117.744 413.108 118.338 412.36 118.338C411.612 118.338 411.106 117.744 411.216 116.996C411.348 116.226 412.052 115.61 412.8 115.61ZM420.608 121.396C423.688 121.396 425.734 123.772 425.25 126.874C424.766 129.976 421.95 132.352 418.87 132.352C415.79 132.352 413.766 129.976 414.25 126.874C414.734 123.772 417.528 121.396 420.608 121.396ZM420.322 123.288C418.364 123.288 416.538 124.916 416.23 126.874C415.922 128.81 417.22 130.46 419.178 130.46C421.136 130.46 422.962 128.81 423.27 126.874C423.578 124.916 422.28 123.288 420.322 123.288ZM429.849 121.704L429.629 123.09H429.673C430.465 121.99 431.785 121.396 433.039 121.396C435.943 121.396 436.383 123.354 435.987 125.862L435.019 132H433.039L433.963 126.104C434.249 124.344 434.205 123.156 432.181 123.156C429.629 123.156 429.277 125.4 428.969 127.27L428.221 132H426.241L427.869 121.704H429.849ZM448.78 130.592C450.936 130.592 452.388 128.876 452.718 126.852C453.026 124.85 452.102 123.156 449.968 123.156C447.922 123.156 446.426 124.938 446.118 126.852C445.81 128.788 446.69 130.592 448.78 130.592ZM455.402 121.704L453.774 132H451.794L452.058 130.394H452.014C451.024 131.56 449.66 132.352 448.186 132.352C445.04 132.352 443.676 129.734 444.16 126.786C444.6 123.97 446.866 121.396 449.858 121.396C451.376 121.396 452.498 122.188 453.114 123.42H453.158L453.422 121.704H455.402ZM459.949 121.704L459.729 123.09H459.773C460.565 121.99 461.885 121.396 463.139 121.396C466.043 121.396 466.483 123.354 466.087 125.862L465.119 132H463.139L464.063 126.104C464.349 124.344 464.305 123.156 462.281 123.156C459.729 123.156 459.377 125.4 459.069 127.27L458.321 132H456.341L457.969 121.704H459.949ZM472.52 130.592C474.676 130.592 476.128 128.876 476.458 126.852C476.766 124.85 475.842 123.156 473.708 123.156C471.662 123.156 470.166 124.938 469.858 126.852C469.55 128.788 470.43 130.592 472.52 130.592ZM475.534 132L475.798 130.394H475.754C474.764 131.56 473.378 132.352 471.926 132.352C468.758 132.352 467.416 129.734 467.9 126.786C468.34 123.97 470.606 121.396 473.576 121.396C475.116 121.396 476.238 122.188 476.854 123.42H476.898L478.548 112.904H480.528L477.514 132H475.534ZM120.492 149.2L118.754 150.058C118.6 149.552 118.16 149.156 117.588 149.156C117.038 149.156 116.444 149.596 116.334 150.168C116.202 151.07 117.324 151.466 118.446 152.016C119.568 152.566 120.624 153.314 120.36 154.942C120.052 156.9 118.182 158.352 116.268 158.352C114.772 158.352 113.408 157.494 113.078 156.042L114.904 155.272C115.19 156.042 115.608 156.592 116.554 156.592C117.39 156.592 118.204 156.02 118.358 155.14C118.446 154.59 118.204 154.326 117.808 154.018L116.026 152.984C114.992 152.368 114.244 151.796 114.464 150.388C114.728 148.716 116.29 147.396 117.962 147.396C119.216 147.396 120.118 148.078 120.492 149.2ZM131.619 153.182H123.765C123.501 154.942 124.425 156.592 126.317 156.592C127.835 156.592 128.781 155.822 129.727 154.59L131.245 155.536C129.991 157.318 128.011 158.352 126.009 158.352C122.863 158.352 121.345 155.976 121.807 152.94C122.313 149.772 124.381 147.396 127.703 147.396C130.981 147.396 132.147 149.816 131.663 152.874L131.619 153.182ZM124.095 151.686H129.859C129.881 150.146 129.023 149.112 127.439 149.112C125.899 149.112 124.579 150.212 124.095 151.686ZM136.158 149.552L134.816 158H132.836L134.178 149.552H133.1L133.386 147.704H134.464L135.08 143.766H137.06L136.444 147.704H138.38L138.094 149.552H136.158ZM141.464 149.552L140.122 158H138.142L139.484 149.552H138.406L138.692 147.704H139.77L140.386 143.766H142.366L141.75 147.704H143.686L143.4 149.552H141.464ZM148.245 138.904L145.231 158H143.251L146.265 138.904H148.245ZM152.109 147.704L150.481 158H148.501L150.129 147.704H152.109ZM152.087 141.61C152.835 141.61 153.363 142.226 153.231 142.996C153.121 143.744 152.395 144.338 151.647 144.338C150.899 144.338 150.393 143.744 150.503 142.996C150.635 142.226 151.339 141.61 152.087 141.61ZM157.255 147.704L157.035 149.09H157.079C157.871 147.99 159.191 147.396 160.445 147.396C163.349 147.396 163.789 149.354 163.393 151.862L162.425 158H160.445L161.369 152.104C161.655 150.344 161.611 149.156 159.587 149.156C157.035 149.156 156.683 151.4 156.375 153.27L155.627 158H153.647L155.275 147.704H157.255ZM169.805 156.592C171.961 156.592 173.413 154.876 173.743 152.852C174.051 150.85 173.127 149.156 170.993 149.156C168.947 149.156 167.451 150.938 167.143 152.852C166.835 154.788 167.715 156.592 169.805 156.592ZM176.427 147.704L174.821 157.802C174.271 161.344 172.863 163.896 168.859 163.896C165.999 163.896 164.195 162.136 164.613 159.232H166.593C166.307 161.08 167.407 162.136 169.211 162.136C171.653 162.136 172.423 160.464 172.753 158.352L173.083 156.394H173.039C172.049 157.56 170.663 158.352 169.211 158.352C166.043 158.352 164.701 155.734 165.185 152.786C165.625 149.97 167.891 147.396 170.861 147.396C172.401 147.396 173.523 148.188 174.117 149.464H174.161L174.447 147.704H176.427ZM187.773 147.704L186.145 158H184.165L185.793 147.704H187.773ZM187.751 141.61C188.499 141.61 189.027 142.226 188.895 142.996C188.785 143.744 188.059 144.338 187.311 144.338C186.563 144.338 186.057 143.744 186.167 142.996C186.299 142.226 187.003 141.61 187.751 141.61ZM192.919 147.704L192.699 149.09H192.743C193.535 147.99 194.855 147.396 196.109 147.396C199.013 147.396 199.453 149.354 199.057 151.862L198.089 158H196.109L197.033 152.104C197.319 150.344 197.275 149.156 195.251 149.156C192.699 149.156 192.347 151.4 192.039 153.27L191.291 158H189.311L190.939 147.704H192.919ZM203.005 155.8C203.709 155.8 204.193 156.394 204.083 157.076C203.973 157.78 203.291 158.352 202.587 158.352C201.883 158.352 201.421 157.78 201.531 157.076C201.641 156.394 202.301 155.8 203.005 155.8Z" fill="#093761"/>
<path d="M124.21 201.842H116.598L114.046 206H111.824L122.472 188.708L127.664 206H125.442L124.21 201.842ZM123.66 199.95L121.768 193.24L117.764 199.95H123.66ZM137.963 196.078L137.567 198.63C136.929 197.728 136.027 197.244 134.839 197.244C132.903 197.244 131.143 198.96 130.835 200.852C130.505 202.964 131.737 204.504 133.827 204.504C134.971 204.504 135.983 203.976 136.863 203.14L136.445 205.67C135.477 206.154 134.531 206.352 133.497 206.352C130.461 206.352 128.349 204.02 128.833 200.94C129.339 197.75 132.177 195.396 135.345 195.396C136.269 195.396 137.259 195.616 137.963 196.078ZM147.416 196.078L147.02 198.63C146.382 197.728 145.48 197.244 144.292 197.244C142.356 197.244 140.596 198.96 140.288 200.852C139.958 202.964 141.19 204.504 143.28 204.504C144.424 204.504 145.436 203.976 146.316 203.14L145.898 205.67C144.93 206.154 143.984 206.352 142.95 206.352C139.914 206.352 137.802 204.02 138.286 200.94C138.792 197.75 141.63 195.396 144.798 195.396C145.722 195.396 146.712 195.616 147.416 196.078ZM157.551 201.182H149.697C149.433 202.942 150.357 204.592 152.249 204.592C153.767 204.592 154.713 203.822 155.659 202.59L157.177 203.536C155.923 205.318 153.943 206.352 151.941 206.352C148.795 206.352 147.277 203.976 147.739 200.94C148.245 197.772 150.313 195.396 153.635 195.396C156.913 195.396 158.079 197.816 157.595 200.874L157.551 201.182ZM150.027 199.686H155.791C155.813 198.146 154.955 197.112 153.371 197.112C151.831 197.112 150.511 198.212 150.027 199.686ZM165.609 197.2L163.871 198.058C163.717 197.552 163.277 197.156 162.705 197.156C162.155 197.156 161.561 197.596 161.451 198.168C161.319 199.07 162.441 199.466 163.563 200.016C164.685 200.566 165.741 201.314 165.477 202.942C165.169 204.9 163.299 206.352 161.385 206.352C159.889 206.352 158.525 205.494 158.195 204.042L160.021 203.272C160.307 204.042 160.725 204.592 161.671 204.592C162.507 204.592 163.321 204.02 163.475 203.14C163.563 202.59 163.321 202.326 162.925 202.018L161.143 200.984C160.109 200.368 159.361 199.796 159.581 198.388C159.845 196.716 161.407 195.396 163.079 195.396C164.333 195.396 165.235 196.078 165.609 197.2ZM174.053 197.2L172.315 198.058C172.161 197.552 171.721 197.156 171.149 197.156C170.599 197.156 170.005 197.596 169.895 198.168C169.763 199.07 170.885 199.466 172.007 200.016C173.129 200.566 174.185 201.314 173.921 202.942C173.613 204.9 171.743 206.352 169.829 206.352C168.333 206.352 166.969 205.494 166.639 204.042L168.465 203.272C168.751 204.042 169.169 204.592 170.115 204.592C170.951 204.592 171.765 204.02 171.919 203.14C172.007 202.59 171.765 202.326 171.369 202.018L169.587 200.984C168.553 200.368 167.805 199.796 168.025 198.388C168.289 196.716 169.851 195.396 171.523 195.396C172.777 195.396 173.679 196.078 174.053 197.2ZM185.467 195.704L185.203 197.376H185.269C185.951 196.166 187.073 195.396 188.393 195.396C188.965 195.396 189.515 195.594 189.955 195.902L188.767 197.706C188.459 197.398 188.085 197.288 187.623 197.288C185.489 197.288 184.895 199.268 184.631 200.94L183.839 206H181.859L183.487 195.704H185.467ZM198.865 201.182H191.011C190.747 202.942 191.671 204.592 193.563 204.592C195.081 204.592 196.027 203.822 196.973 202.59L198.491 203.536C197.237 205.318 195.257 206.352 193.255 206.352C190.109 206.352 188.591 203.976 189.053 200.94C189.559 197.772 191.627 195.396 194.949 195.396C198.227 195.396 199.393 197.816 198.909 200.874L198.865 201.182ZM191.341 199.686H197.105C197.127 198.146 196.269 197.112 194.685 197.112C193.145 197.112 191.825 198.212 191.341 199.686ZM206.924 197.2L205.186 198.058C205.032 197.552 204.592 197.156 204.02 197.156C203.47 197.156 202.876 197.596 202.766 198.168C202.634 199.07 203.756 199.466 204.878 200.016C206 200.566 207.056 201.314 206.792 202.942C206.484 204.9 204.614 206.352 202.7 206.352C201.204 206.352 199.84 205.494 199.51 204.042L201.336 203.272C201.622 204.042 202.04 204.592 202.986 204.592C203.822 204.592 204.636 204.02 204.79 203.14C204.878 202.59 204.636 202.326 204.24 202.018L202.458 200.984C201.424 200.368 200.676 199.796 200.896 198.388C201.16 196.716 202.722 195.396 204.394 195.396C205.648 195.396 206.55 196.078 206.924 197.2ZM214.487 195.396C217.567 195.396 219.613 197.772 219.129 200.874C218.645 203.976 215.829 206.352 212.749 206.352C209.669 206.352 207.645 203.976 208.129 200.874C208.613 197.772 211.407 195.396 214.487 195.396ZM214.201 197.288C212.243 197.288 210.417 198.916 210.109 200.874C209.801 202.81 211.099 204.46 213.057 204.46C215.015 204.46 216.841 202.81 217.149 200.874C217.457 198.916 216.159 197.288 214.201 197.288ZM221.66 195.704H223.64L222.738 201.402C222.474 203.052 222.672 204.504 224.63 204.504C226.588 204.504 227.226 203.052 227.49 201.402L228.392 195.704H230.372L229.448 201.622C228.986 204.438 227.358 206.352 224.322 206.352C221.286 206.352 220.274 204.438 220.736 201.622L221.66 195.704ZM235.118 195.704L234.854 197.376H234.92C235.602 196.166 236.724 195.396 238.044 195.396C238.616 195.396 239.166 195.594 239.606 195.902L238.418 197.706C238.11 197.398 237.736 197.288 237.274 197.288C235.14 197.288 234.546 199.268 234.282 200.94L233.49 206H231.51L233.138 195.704H235.118ZM247.834 196.078L247.438 198.63C246.8 197.728 245.898 197.244 244.71 197.244C242.774 197.244 241.014 198.96 240.706 200.852C240.376 202.964 241.608 204.504 243.698 204.504C244.842 204.504 245.854 203.976 246.734 203.14L246.316 205.67C245.348 206.154 244.402 206.352 243.368 206.352C240.332 206.352 238.22 204.02 238.704 200.94C239.21 197.75 242.048 195.396 245.216 195.396C246.14 195.396 247.13 195.616 247.834 196.078ZM257.969 201.182H250.115C249.851 202.942 250.775 204.592 252.667 204.592C254.185 204.592 255.131 203.822 256.077 202.59L257.595 203.536C256.341 205.318 254.361 206.352 252.359 206.352C249.213 206.352 247.695 203.976 248.157 200.94C248.663 197.772 250.731 195.396 254.053 195.396C257.331 195.396 258.497 197.816 258.013 200.874L257.969 201.182ZM250.445 199.686H256.209C256.231 198.146 255.373 197.112 253.789 197.112C252.249 197.112 250.929 198.212 250.445 199.686ZM266.027 197.2L264.289 198.058C264.135 197.552 263.695 197.156 263.123 197.156C262.573 197.156 261.979 197.596 261.869 198.168C261.737 199.07 262.859 199.466 263.981 200.016C265.103 200.566 266.159 201.314 265.895 202.942C265.587 204.9 263.717 206.352 261.803 206.352C260.307 206.352 258.943 205.494 258.613 204.042L260.439 203.272C260.725 204.042 261.143 204.592 262.089 204.592C262.925 204.592 263.739 204.02 263.893 203.14C263.981 202.59 263.739 202.326 263.343 202.018L261.561 200.984C260.527 200.368 259.779 199.796 259.999 198.388C260.263 196.716 261.825 195.396 263.497 195.396C264.751 195.396 265.653 196.078 266.027 197.2ZM281.82 186.904L281.512 188.906C281.138 188.73 280.676 188.488 280.258 188.488C278.85 188.488 278.564 190.27 278.41 191.282L277.706 195.704H280.434L280.148 197.552H277.42L276.078 206H274.098L275.44 197.552H274.538L274.824 195.704H275.726L276.518 190.688C276.87 188.444 277.926 186.64 280.478 186.64C280.962 186.64 281.424 186.728 281.82 186.904ZM286.008 195.396C289.088 195.396 291.134 197.772 290.65 200.874C290.166 203.976 287.35 206.352 284.27 206.352C281.19 206.352 279.166 203.976 279.65 200.874C280.134 197.772 282.928 195.396 286.008 195.396ZM285.722 197.288C283.764 197.288 281.938 198.916 281.63 200.874C281.322 202.81 282.62 204.46 284.578 204.46C286.536 204.46 288.362 202.81 288.67 200.874C288.978 198.916 287.68 197.288 285.722 197.288ZM295.381 195.704L295.117 197.376H295.183C295.865 196.166 296.987 195.396 298.307 195.396C298.879 195.396 299.429 195.594 299.869 195.902L298.681 197.706C298.373 197.398 297.999 197.288 297.537 197.288C295.403 197.288 294.809 199.268 294.545 200.94L293.753 206H291.773L293.401 195.704H295.381ZM311.833 195.396C314.913 195.396 316.959 197.772 316.475 200.874C315.991 203.976 313.175 206.352 310.095 206.352C307.015 206.352 304.991 203.976 305.475 200.874C305.959 197.772 308.753 195.396 311.833 195.396ZM311.547 197.288C309.589 197.288 307.763 198.916 307.455 200.874C307.147 202.81 308.445 204.46 310.403 204.46C312.361 204.46 314.187 202.81 314.495 200.874C314.803 198.916 313.505 197.288 311.547 197.288ZM321.074 195.704L320.854 197.09H320.898C321.69 195.99 323.01 195.396 324.264 195.396C327.168 195.396 327.608 197.354 327.212 199.862L326.244 206H324.264L325.188 200.104C325.474 198.344 325.43 197.156 323.406 197.156C320.854 197.156 320.502 199.4 320.194 201.27L319.446 206H317.466L319.094 195.704H321.074ZM333.623 204.592C335.779 204.592 337.231 202.876 337.561 200.852C337.869 198.85 336.945 197.156 334.811 197.156C332.765 197.156 331.269 198.938 330.961 200.852C330.653 202.788 331.533 204.592 333.623 204.592ZM340.245 195.704L338.639 205.802C338.089 209.344 336.681 211.896 332.677 211.896C329.817 211.896 328.013 210.136 328.431 207.232H330.411C330.125 209.08 331.225 210.136 333.029 210.136C335.471 210.136 336.241 208.464 336.571 206.352L336.901 204.394H336.857C335.867 205.56 334.481 206.352 333.029 206.352C329.861 206.352 328.519 203.734 329.003 200.786C329.443 197.97 331.709 195.396 334.679 195.396C336.219 195.396 337.341 196.188 337.935 197.464H337.979L338.265 195.704H340.245ZM347.432 195.396C350.512 195.396 352.558 197.772 352.074 200.874C351.59 203.976 348.774 206.352 345.694 206.352C342.614 206.352 340.59 203.976 341.074 200.874C341.558 197.772 344.352 195.396 347.432 195.396ZM347.146 197.288C345.188 197.288 343.362 198.916 343.054 200.874C342.746 202.81 344.044 204.46 346.002 204.46C347.96 204.46 349.786 202.81 350.094 200.874C350.402 198.916 349.104 197.288 347.146 197.288ZM357.113 195.704L355.485 206H353.505L355.133 195.704H357.113ZM357.091 189.61C357.839 189.61 358.367 190.226 358.235 190.996C358.125 191.744 357.399 192.338 356.651 192.338C355.903 192.338 355.397 191.744 355.507 190.996C355.639 190.226 356.343 189.61 357.091 189.61ZM362.259 195.704L362.039 197.09H362.083C362.875 195.99 364.195 195.396 365.449 195.396C368.353 195.396 368.793 197.354 368.397 199.862L367.429 206H365.449L366.373 200.104C366.659 198.344 366.615 197.156 364.591 197.156C362.039 197.156 361.687 199.4 361.379 201.27L360.631 206H358.651L360.279 195.704H362.259ZM374.809 204.592C376.965 204.592 378.417 202.876 378.747 200.852C379.055 198.85 378.131 197.156 375.997 197.156C373.951 197.156 372.455 198.938 372.147 200.852C371.839 202.788 372.719 204.592 374.809 204.592ZM381.431 195.704L379.825 205.802C379.275 209.344 377.867 211.896 373.863 211.896C371.003 211.896 369.199 210.136 369.617 207.232H371.597C371.311 209.08 372.411 210.136 374.215 210.136C376.657 210.136 377.427 208.464 377.757 206.352L378.087 204.394H378.043C377.053 205.56 375.667 206.352 374.215 206.352C371.047 206.352 369.705 203.734 370.189 200.786C370.629 197.97 372.895 195.396 375.865 195.396C377.405 195.396 378.527 196.188 379.121 197.464H379.165L379.451 195.704H381.431ZM397.859 196.078L397.463 198.63C396.825 197.728 395.923 197.244 394.735 197.244C392.799 197.244 391.039 198.96 390.731 200.852C390.401 202.964 391.633 204.504 393.723 204.504C394.867 204.504 395.879 203.976 396.759 203.14L396.341 205.67C395.373 206.154 394.427 206.352 393.393 206.352C390.357 206.352 388.245 204.02 388.729 200.94C389.235 197.75 392.073 195.396 395.241 195.396C396.165 195.396 397.155 195.616 397.859 196.078ZM403.104 204.592C405.26 204.592 406.712 202.876 407.042 200.852C407.35 198.85 406.426 197.156 404.292 197.156C402.246 197.156 400.75 198.938 400.442 200.852C400.134 202.788 401.014 204.592 403.104 204.592ZM409.726 195.704L408.098 206H406.118L406.382 204.394H406.338C405.348 205.56 403.984 206.352 402.51 206.352C399.364 206.352 398 203.734 398.484 200.786C398.924 197.97 401.19 195.396 404.182 195.396C405.7 195.396 406.822 196.188 407.438 197.42H407.482L407.746 195.704H409.726ZM414.405 195.704L414.141 197.376H414.207C414.889 196.166 416.011 195.396 417.331 195.396C417.903 195.396 418.453 195.594 418.893 195.902L417.705 197.706C417.397 197.398 417.023 197.288 416.561 197.288C414.427 197.288 413.833 199.268 413.569 200.94L412.777 206H410.797L412.425 195.704H414.405ZM427.803 201.182H419.949C419.685 202.942 420.609 204.592 422.501 204.592C424.019 204.592 424.965 203.822 425.911 202.59L427.429 203.536C426.175 205.318 424.195 206.352 422.193 206.352C419.047 206.352 417.529 203.976 417.991 200.94C418.497 197.772 420.565 195.396 423.887 195.396C427.165 195.396 428.331 197.816 427.847 200.874L427.803 201.182ZM420.279 199.686H426.043C426.065 198.146 425.207 197.112 423.623 197.112C422.083 197.112 420.763 198.212 420.279 199.686ZM438.545 201.182H430.691C430.427 202.942 431.351 204.592 433.243 204.592C434.761 204.592 435.707 203.822 436.653 202.59L438.171 203.536C436.917 205.318 434.937 206.352 432.935 206.352C429.789 206.352 428.271 203.976 428.733 200.94C429.239 197.772 431.307 195.396 434.629 195.396C437.907 195.396 439.073 197.816 438.589 200.874L438.545 201.182ZM431.021 199.686H436.785C436.807 198.146 435.949 197.112 434.365 197.112C432.825 197.112 431.505 198.212 431.021 199.686ZM443.215 195.704L442.951 197.376H443.017C443.699 196.166 444.821 195.396 446.141 195.396C446.713 195.396 447.263 195.594 447.703 195.902L446.515 197.706C446.207 197.398 445.833 197.288 445.371 197.288C443.237 197.288 442.643 199.268 442.379 200.94L441.587 206H439.607L441.235 195.704H443.215ZM118.028 230.592C120.184 230.592 121.636 228.876 121.966 226.852C122.274 224.85 121.35 223.156 119.216 223.156C117.17 223.156 115.674 224.938 115.366 226.852C115.058 228.788 115.938 230.592 118.028 230.592ZM121.042 232L121.306 230.394H121.262C120.272 231.56 118.886 232.352 117.434 232.352C114.266 232.352 112.924 229.734 113.408 226.786C113.848 223.97 116.114 221.396 119.084 221.396C120.624 221.396 121.746 222.188 122.362 223.42H122.406L124.056 212.904H126.036L123.022 232H121.042ZM135.401 227.182H127.547C127.283 228.942 128.207 230.592 130.099 230.592C131.617 230.592 132.563 229.822 133.509 228.59L135.027 229.536C133.773 231.318 131.793 232.352 129.791 232.352C126.645 232.352 125.127 229.976 125.589 226.94C126.095 223.772 128.163 221.396 131.485 221.396C134.763 221.396 135.929 223.816 135.445 226.874L135.401 227.182ZM127.877 225.686H133.641C133.663 224.146 132.805 223.112 131.221 223.112C129.681 223.112 128.361 224.212 127.877 225.686ZM138.531 221.704L140.467 228.128L144.449 221.704H146.671L139.785 232.352L136.309 221.704H138.531ZM155.94 227.182H148.086C147.822 228.942 148.746 230.592 150.638 230.592C152.156 230.592 153.102 229.822 154.048 228.59L155.566 229.536C154.312 231.318 152.332 232.352 150.33 232.352C147.184 232.352 145.666 229.976 146.128 226.94C146.634 223.772 148.702 221.396 152.024 221.396C155.302 221.396 156.468 223.816 155.984 226.874L155.94 227.182ZM148.416 225.686H154.18C154.202 224.146 153.344 223.112 151.76 223.112C150.22 223.112 148.9 224.212 148.416 225.686ZM161.952 212.904L158.938 232H156.958L159.972 212.904H161.952ZM167.995 221.396C171.075 221.396 173.121 223.772 172.637 226.874C172.153 229.976 169.337 232.352 166.257 232.352C163.177 232.352 161.153 229.976 161.637 226.874C162.121 223.772 164.915 221.396 167.995 221.396ZM167.709 223.288C165.751 223.288 163.925 224.916 163.617 226.874C163.309 228.81 164.607 230.46 166.565 230.46C168.523 230.46 170.349 228.81 170.657 226.874C170.965 224.916 169.667 223.288 167.709 223.288ZM178.82 230.592C180.976 230.592 182.428 228.876 182.758 226.852C183.066 224.85 182.142 223.156 180.008 223.156C177.962 223.156 176.466 224.938 176.158 226.852C175.85 228.788 176.73 230.592 178.82 230.592ZM177.082 221.704L176.818 223.42H176.862C177.874 222.188 179.216 221.396 180.756 221.396C183.726 221.396 185.2 223.97 184.76 226.786C184.276 229.734 182.098 232.352 178.93 232.352C177.478 232.352 176.356 231.56 175.762 230.394H175.718L174.53 237.896H172.55L175.102 221.704H177.082ZM189.394 221.704L189.196 223.002H189.24C189.944 222.1 191.088 221.396 192.21 221.396C193.552 221.396 194.41 222.078 194.894 223.222C195.708 222.122 197.05 221.396 198.348 221.396C201.054 221.396 201.428 223.508 201.054 225.84L200.086 232H198.106L199.03 226.17C199.228 224.85 199.338 223.156 197.6 223.156C195.488 223.156 194.982 225.356 194.718 226.94L193.926 232H191.946L192.804 226.544C193.024 225.202 193.288 223.156 191.462 223.156C189.35 223.156 188.822 225.334 188.558 226.94L187.766 232H185.786L187.414 221.704H189.394ZM212.53 227.182H204.676C204.412 228.942 205.336 230.592 207.228 230.592C208.746 230.592 209.692 229.822 210.638 228.59L212.156 229.536C210.902 231.318 208.922 232.352 206.92 232.352C203.774 232.352 202.256 229.976 202.718 226.94C203.224 223.772 205.292 221.396 208.614 221.396C211.892 221.396 213.058 223.816 212.574 226.874L212.53 227.182ZM205.006 225.686H210.77C210.792 224.146 209.934 223.112 208.35 223.112C206.81 223.112 205.49 224.212 205.006 225.686ZM217.068 221.704L216.848 223.09H216.892C217.684 221.99 219.004 221.396 220.258 221.396C223.162 221.396 223.602 223.354 223.206 225.862L222.238 232H220.258L221.182 226.104C221.468 224.344 221.424 223.156 219.4 223.156C216.848 223.156 216.496 225.4 216.188 227.27L215.44 232H213.46L215.088 221.704H217.068ZM228.583 223.552L227.241 232H225.261L226.603 223.552H225.525L225.811 221.704H226.889L227.505 217.766H229.485L228.869 221.704H230.805L230.519 223.552H228.583ZM241.284 230.592C243.44 230.592 244.892 228.876 245.222 226.852C245.53 224.85 244.606 223.156 242.472 223.156C240.426 223.156 238.93 224.938 238.622 226.852C238.314 228.788 239.194 230.592 241.284 230.592ZM247.906 221.704L246.278 232H244.298L244.562 230.394H244.518C243.528 231.56 242.164 232.352 240.69 232.352C237.544 232.352 236.18 229.734 236.664 226.786C237.104 223.97 239.37 221.396 242.362 221.396C243.88 221.396 245.002 222.188 245.618 223.42H245.662L245.926 221.704H247.906ZM252.452 221.704L252.232 223.09H252.276C253.068 221.99 254.388 221.396 255.642 221.396C258.546 221.396 258.986 223.354 258.59 225.862L257.622 232H255.642L256.566 226.104C256.852 224.344 256.808 223.156 254.784 223.156C252.232 223.156 251.88 225.4 251.572 227.27L250.824 232H248.844L250.472 221.704H252.452ZM265.024 230.592C267.18 230.592 268.632 228.876 268.962 226.852C269.27 224.85 268.346 223.156 266.212 223.156C264.166 223.156 262.67 224.938 262.362 226.852C262.054 228.788 262.934 230.592 265.024 230.592ZM268.038 232L268.302 230.394H268.258C267.268 231.56 265.882 232.352 264.43 232.352C261.262 232.352 259.92 229.734 260.404 226.786C260.844 223.97 263.11 221.396 266.08 221.396C267.62 221.396 268.742 222.188 269.358 223.42H269.402L271.052 212.904H273.032L270.018 232H268.038ZM284.136 230.592C286.292 230.592 287.744 228.876 288.074 226.852C288.382 224.85 287.458 223.156 285.324 223.156C283.278 223.156 281.782 224.938 281.474 226.852C281.166 228.788 282.046 230.592 284.136 230.592ZM282.398 221.704L282.134 223.42H282.178C283.19 222.188 284.532 221.396 286.072 221.396C289.042 221.396 290.516 223.97 290.076 226.786C289.592 229.734 287.414 232.352 284.246 232.352C282.794 232.352 281.672 231.56 281.078 230.394H281.034L279.846 237.896H277.866L280.418 221.704H282.398ZM294.909 221.704L294.645 223.376H294.711C295.393 222.166 296.515 221.396 297.835 221.396C298.407 221.396 298.957 221.594 299.397 221.902L298.209 223.706C297.901 223.398 297.527 223.288 297.065 223.288C294.931 223.288 294.337 225.268 294.073 226.94L293.281 232H291.301L292.929 221.704H294.909ZM304.743 221.396C307.823 221.396 309.869 223.772 309.385 226.874C308.901 229.976 306.085 232.352 303.005 232.352C299.925 232.352 297.901 229.976 298.385 226.874C298.869 223.772 301.663 221.396 304.743 221.396ZM304.457 223.288C302.499 223.288 300.673 224.916 300.365 226.874C300.057 228.81 301.355 230.46 303.313 230.46C305.271 230.46 307.097 228.81 307.405 226.874C307.713 224.916 306.415 223.288 304.457 223.288ZM318.494 212.904L318.186 214.906C317.812 214.73 317.35 214.488 316.932 214.488C315.524 214.488 315.238 216.27 315.084 217.282L314.38 221.704H317.108L316.822 223.552H314.094L312.752 232H310.772L312.114 223.552H311.212L311.498 221.704H312.4L313.192 216.688C313.544 214.444 314.6 212.64 317.152 212.64C317.636 212.64 318.098 212.728 318.494 212.904ZM326.246 227.182H318.392C318.128 228.942 319.052 230.592 320.944 230.592C322.462 230.592 323.408 229.822 324.354 228.59L325.872 229.536C324.618 231.318 322.638 232.352 320.636 232.352C317.49 232.352 315.972 229.976 316.434 226.94C316.94 223.772 319.008 221.396 322.33 221.396C325.608 221.396 326.774 223.816 326.29 226.874L326.246 227.182ZM318.722 225.686H324.486C324.508 224.146 323.65 223.112 322.066 223.112C320.526 223.112 319.206 224.212 318.722 225.686ZM334.305 223.2L332.567 224.058C332.413 223.552 331.973 223.156 331.401 223.156C330.851 223.156 330.257 223.596 330.147 224.168C330.015 225.07 331.137 225.466 332.259 226.016C333.381 226.566 334.437 227.314 334.173 228.942C333.865 230.9 331.995 232.352 330.081 232.352C328.585 232.352 327.221 231.494 326.891 230.042L328.716 229.272C329.003 230.042 329.421 230.592 330.367 230.592C331.203 230.592 332.017 230.02 332.171 229.14C332.259 228.59 332.017 228.326 331.62 228.018L329.839 226.984C328.805 226.368 328.057 225.796 328.277 224.388C328.541 222.716 330.103 221.396 331.775 221.396C333.029 221.396 333.931 222.078 334.305 223.2ZM342.748 223.2L341.01 224.058C340.856 223.552 340.416 223.156 339.844 223.156C339.294 223.156 338.7 223.596 338.59 224.168C338.458 225.07 339.58 225.466 340.702 226.016C341.824 226.566 342.88 227.314 342.616 228.942C342.308 230.9 340.438 232.352 338.524 232.352C337.028 232.352 335.664 231.494 335.334 230.042L337.16 229.272C337.446 230.042 337.864 230.592 338.81 230.592C339.646 230.592 340.46 230.02 340.614 229.14C340.702 228.59 340.46 228.326 340.064 228.018L338.282 226.984C337.248 226.368 336.5 225.796 336.72 224.388C336.984 222.716 338.546 221.396 340.218 221.396C341.472 221.396 342.374 222.078 342.748 223.2ZM348.111 221.704L346.483 232H344.503L346.131 221.704H348.111ZM348.089 215.61C348.837 215.61 349.365 216.226 349.233 216.996C349.123 217.744 348.397 218.338 347.649 218.338C346.901 218.338 346.395 217.744 346.505 216.996C346.637 216.226 347.341 215.61 348.089 215.61ZM355.897 221.396C358.977 221.396 361.023 223.772 360.539 226.874C360.055 229.976 357.239 232.352 354.159 232.352C351.079 232.352 349.055 229.976 349.539 226.874C350.023 223.772 352.817 221.396 355.897 221.396ZM355.611 223.288C353.653 223.288 351.827 224.916 351.519 226.874C351.211 228.81 352.509 230.46 354.467 230.46C356.425 230.46 358.251 228.81 358.559 226.874C358.867 224.916 357.569 223.288 355.611 223.288ZM365.138 221.704L364.918 223.09H364.962C365.754 221.99 367.074 221.396 368.328 221.396C371.232 221.396 371.672 223.354 371.276 225.862L370.308 232H368.328L369.252 226.104C369.538 224.344 369.494 223.156 367.47 223.156C364.918 223.156 364.566 225.4 364.258 227.27L363.51 232H361.53L363.158 221.704H365.138ZM377.71 230.592C379.866 230.592 381.318 228.876 381.648 226.852C381.956 224.85 381.032 223.156 378.898 223.156C376.852 223.156 375.356 224.938 375.048 226.852C374.74 228.788 375.62 230.592 377.71 230.592ZM384.332 221.704L382.704 232H380.724L380.988 230.394H380.944C379.954 231.56 378.59 232.352 377.116 232.352C373.97 232.352 372.606 229.734 373.09 226.786C373.53 223.97 375.796 221.396 378.788 221.396C380.306 221.396 381.428 222.188 382.044 223.42H382.088L382.352 221.704H384.332ZM390.352 212.904L387.338 232H385.358L388.372 212.904H390.352ZM401.149 230.592C403.305 230.592 404.757 228.876 405.087 226.852C405.395 224.85 404.471 223.156 402.337 223.156C400.291 223.156 398.795 224.938 398.487 226.852C398.179 228.788 399.059 230.592 401.149 230.592ZM407.771 221.704L406.165 231.802C405.615 235.344 404.207 237.896 400.203 237.896C397.343 237.896 395.539 236.136 395.957 233.232H397.937C397.651 235.08 398.751 236.136 400.555 236.136C402.997 236.136 403.767 234.464 404.097 232.352L404.427 230.394H404.383C403.393 231.56 402.007 232.352 400.555 232.352C397.387 232.352 396.045 229.734 396.529 226.786C396.969 223.97 399.235 221.396 402.205 221.396C403.745 221.396 404.867 222.188 405.461 223.464H405.505L405.791 221.704H407.771ZM412.45 221.704L412.186 223.376H412.252C412.934 222.166 414.056 221.396 415.376 221.396C415.948 221.396 416.498 221.594 416.938 221.902L415.75 223.706C415.442 223.398 415.068 223.288 414.606 223.288C412.472 223.288 411.878 225.268 411.614 226.94L410.822 232H408.842L410.47 221.704H412.45ZM422.284 221.396C425.364 221.396 427.41 223.772 426.926 226.874C426.442 229.976 423.626 232.352 420.546 232.352C417.466 232.352 415.442 229.976 415.926 226.874C416.41 223.772 419.204 221.396 422.284 221.396ZM421.998 223.288C420.04 223.288 418.214 224.916 417.906 226.874C417.598 228.81 418.896 230.46 420.854 230.46C422.812 230.46 424.638 228.81 424.946 226.874C425.254 224.916 423.956 223.288 421.998 223.288ZM430.073 221.704L432.031 228.26L436.189 221.132L438.081 228.26L442.107 221.704H444.351L437.421 232.352L435.507 225.466L431.371 232.352L427.829 221.704H430.073ZM447.316 223.552L445.974 232H443.994L445.336 223.552H444.258L444.544 221.704H445.622L446.238 217.766H448.218L447.602 221.704H449.538L449.252 223.552H447.316ZM452.028 212.904H454.008L452.402 223.09H452.446C453.238 221.99 454.558 221.396 455.812 221.396C458.716 221.396 459.156 223.354 458.76 225.862L457.792 232H455.812L456.736 226.104C457.022 224.344 456.978 223.156 454.954 223.156C452.402 223.156 452.05 225.4 451.742 227.27L450.994 232H449.014L452.028 212.904ZM462.708 229.8C463.412 229.8 463.896 230.394 463.786 231.076C463.676 231.78 462.994 232.352 462.29 232.352C461.586 232.352 461.124 231.78 461.234 231.076C461.344 230.394 462.004 229.8 462.708 229.8Z" fill="#093761"/>
</svg>
