<svg width="546" height="328" viewBox="0 0 546 328" fill="none" xmlns="http://www.w3.org/2000/svg">
<rect width="546" height="327" rx="50" fill="#0E3D68"/>
<path d="M161.309 126H150.259L144.609 110.3L144.509 110.4C144.559 112.25 144.659 114.1 144.659 115.95V126H134.459V88.3H144.309C153.159 88.3 159.559 90.9 159.559 100.85C159.559 105 157.759 108.7 153.709 110.3L161.309 126ZM144.659 105.7L145.309 105.75C148.009 105.75 149.459 103.4 149.459 100.95C149.459 97.65 147.459 96.25 144.659 96.4V105.7ZM164.635 126V88.3H183.585V97.2H174.835V102.45H182.685V111.35H174.835V117.1H183.585V126H164.635ZM188.636 125.1V113.3C190.036 115.4 192.486 117.5 195.086 117.5C196.486 117.5 198.086 116.65 198.086 115C198.086 114.1 197.786 113.45 197.286 112.9C196.836 112.35 196.236 111.9 195.586 111.45C193.586 109.9 191.836 108.45 190.536 106.65C189.286 104.9 188.486 102.8 188.486 100.05C188.486 95.65 191.286 87.65 199.986 87.65C202.436 87.65 205.086 88.4 207.236 89.55V101C206.036 99.1 203.586 96.95 201.236 96.95C200.036 96.95 198.586 97.8 198.586 99.25C198.586 100.05 199.036 100.75 199.586 101.35C200.136 101.95 200.886 102.45 201.436 102.9C203.586 104.4 205.286 105.8 206.436 107.5C207.636 109.2 208.286 111.2 208.286 114.05C208.286 121.05 203.386 126.65 196.286 126.65C193.686 126.65 191.036 126.1 188.636 125.1ZM228.32 88.3H238.52V112.95C238.52 117.5 237.52 126.65 225.72 126.65C213.92 126.65 212.92 117.5 212.92 112.95V88.3H223.12V112C223.12 113 223.07 114.3 223.37 115.3C223.67 116.35 224.32 117.15 225.72 117.15C227.17 117.15 227.82 116.35 228.07 115.35C228.37 114.3 228.32 113 228.32 112.05V88.3ZM281.773 126H271.173L270.223 102.3H270.123C269.673 105.05 269.323 107.8 268.823 110.55L265.923 126H257.623L254.073 102.3H253.973C253.923 105.1 253.973 107.85 253.823 110.65L252.973 126H242.023L246.423 88.3H259.123L262.023 108.35H262.123C262.423 106 262.673 103.7 263.123 101.35L265.573 88.3H278.123L281.773 126ZM285.533 126V88.3H304.483V97.2H295.733V102.45H303.583V111.35H295.733V117.1H304.483V126H285.533ZM351.593 126H341.043L340.293 121.15H333.443L332.593 126H322.093L331.143 88.3H343.593L351.593 126ZM334.793 113.15H339.093L337.993 104.4C337.693 102.05 337.493 99.65 337.243 97.3H337.143C336.843 99.65 336.593 102.05 336.193 104.4L334.793 113.15ZM354.967 126V88.3H364.667L372.817 111L372.917 110.9C372.517 106.55 371.767 102.25 371.767 97.9V88.3H381.567V126H371.767L364.167 104.25L364.067 104.35C364.317 107.9 364.767 111.4 364.767 114.95V126H354.967ZM387.584 126V88.3H395.784C407.384 88.3 413.634 95.6 413.634 107C413.634 124.4 402.684 126 396.484 126H387.584ZM397.784 97.7V116.9C402.434 116.85 403.234 111.05 403.234 107.5C403.234 103.4 402.434 97.7 397.784 97.7ZM143.879 148.55V159.35C142.429 157.95 141.229 157.15 139.129 157.15C133.829 157.15 132.529 163 132.529 167.15C132.529 171.55 133.829 177.15 138.929 177.15C141.229 177.15 142.679 176.25 144.329 174.75L143.729 185.3C141.679 186.2 139.829 186.65 137.579 186.65C129.229 186.65 122.129 180.3 122.129 167.4C122.129 150.5 133.729 147.65 138.679 147.65C140.479 147.65 142.229 147.9 143.879 148.55ZM146.981 167.15C146.981 157.95 151.031 147.65 161.381 147.65C171.731 147.65 175.781 157.95 175.781 167.15C175.781 176.35 171.731 186.65 161.381 186.65C151.031 186.65 146.981 176.35 146.981 167.15ZM157.381 167.15C157.381 169.5 157.531 177.15 161.381 177.15C165.231 177.15 165.381 169.5 165.381 167.15C165.381 164.8 165.231 157.15 161.381 157.15C157.531 157.15 157.381 164.8 157.381 167.15ZM196.456 186H186.056L177.406 148.3H188.106L190.506 163.8C190.956 166.85 191.206 169.85 191.606 172.9H191.706C192.156 169.85 192.306 166.85 192.856 163.8L195.656 148.3H206.706L196.456 186ZM209.703 186V148.3H228.653V157.2H219.903V162.45H227.753V171.35H219.903V177.1H228.653V186H209.703ZM261.504 186H250.454L244.804 170.3L244.704 170.4C244.754 172.25 244.854 174.1 244.854 175.95V186H234.654V148.3H244.504C253.354 148.3 259.754 150.9 259.754 160.85C259.754 165 257.954 168.7 253.904 170.3L261.504 186ZM244.854 165.7L245.504 165.75C248.204 165.75 249.654 163.4 249.654 160.95C249.654 157.65 247.654 156.25 244.854 156.4V165.7ZM297.768 186H279.918V148.3H290.118V177.1H297.768V186ZM301.939 186V148.3H320.889V157.2H312.139V162.45H319.989V171.35H312.139V177.1H320.889V186H301.939ZM340.841 186H330.641V157.5H325.041V148.3H346.691V157.5H340.841V186ZM364.718 186H354.518V157.5H348.918V148.3H370.568V157.5H364.718V186ZM374.645 186V148.3H393.595V157.2H384.845V162.45H392.695V171.35H384.845V177.1H393.595V186H374.645ZM426.446 186H415.396L409.746 170.3L409.646 170.4C409.696 172.25 409.796 174.1 409.796 175.95V186H399.596V148.3H409.446C418.296 148.3 424.696 150.9 424.696 160.85C424.696 165 422.896 168.7 418.846 170.3L426.446 186ZM409.796 165.7L410.446 165.75C413.146 165.75 414.596 163.4 414.596 160.95C414.596 157.65 412.596 156.25 409.796 156.4V165.7ZM176.618 246H166.068L165.318 241.15H158.468L157.618 246H147.118L156.168 208.3H168.618L176.618 246ZM159.818 233.15H164.118L163.018 224.4C162.718 222.05 162.518 219.65 162.268 217.3H162.168C161.868 219.65 161.618 222.05 161.218 224.4L159.818 233.15ZM179.041 245.1V233.3C180.441 235.4 182.891 237.5 185.491 237.5C186.891 237.5 188.491 236.65 188.491 235C188.491 234.1 188.191 233.45 187.691 232.9C187.241 232.35 186.641 231.9 185.991 231.45C183.991 229.9 182.241 228.45 180.941 226.65C179.691 224.9 178.891 222.8 178.891 220.05C178.891 215.65 181.691 207.65 190.391 207.65C192.841 207.65 195.491 208.4 197.641 209.55V221C196.441 219.1 193.991 216.95 191.641 216.95C190.441 216.95 188.991 217.8 188.991 219.25C188.991 220.05 189.441 220.75 189.991 221.35C190.541 221.95 191.291 222.45 191.841 222.9C193.991 224.4 195.691 225.8 196.841 227.5C198.041 229.2 198.691 231.2 198.691 234.05C198.691 241.05 193.791 246.65 186.691 246.65C184.091 246.65 181.441 246.1 179.041 245.1ZM202.625 245.1V233.3C204.025 235.4 206.475 237.5 209.075 237.5C210.475 237.5 212.075 236.65 212.075 235C212.075 234.1 211.775 233.45 211.275 232.9C210.825 232.35 210.225 231.9 209.575 231.45C207.575 229.9 205.825 228.45 204.525 226.65C203.275 224.9 202.475 222.8 202.475 220.05C202.475 215.65 205.275 207.65 213.975 207.65C216.425 207.65 219.075 208.4 221.225 209.55V221C220.025 219.1 217.575 216.95 215.225 216.95C214.025 216.95 212.575 217.8 212.575 219.25C212.575 220.05 213.025 220.75 213.575 221.35C214.125 221.95 214.875 222.45 215.425 222.9C217.575 224.4 219.275 225.8 220.425 227.5C221.625 229.2 222.275 231.2 222.275 234.05C222.275 241.05 217.375 246.65 210.275 246.65C207.675 246.65 205.025 246.1 202.625 245.1ZM237.359 246H227.159V208.3H237.359V246ZM242.42 245.1V233.3C243.82 235.4 246.27 237.5 248.87 237.5C250.27 237.5 251.87 236.65 251.87 235C251.87 234.1 251.57 233.45 251.07 232.9C250.62 232.35 250.02 231.9 249.37 231.45C247.37 229.9 245.62 228.45 244.32 226.65C243.07 224.9 242.27 222.8 242.27 220.05C242.27 215.65 245.07 207.65 253.77 207.65C256.22 207.65 258.87 208.4 261.02 209.55V221C259.82 219.1 257.37 216.95 255.02 216.95C253.82 216.95 252.37 217.8 252.37 219.25C252.37 220.05 252.82 220.75 253.37 221.35C253.92 221.95 254.67 222.45 255.22 222.9C257.37 224.4 259.07 225.8 260.22 227.5C261.42 229.2 262.07 231.2 262.07 234.05C262.07 241.05 257.17 246.65 250.07 246.65C247.47 246.65 244.82 246.1 242.42 245.1ZM280.611 246H270.411V217.5H264.811V208.3H286.461V217.5H280.611V246ZM315.631 246H305.081L304.331 241.15H297.481L296.631 246H286.131L295.181 208.3H307.631L315.631 246ZM298.831 233.15H303.131L302.031 224.4C301.731 222.05 301.531 219.65 301.281 217.3H301.181C300.881 219.65 300.631 222.05 300.231 224.4L298.831 233.15ZM319.005 246V208.3H328.705L336.855 231L336.955 230.9C336.555 226.55 335.805 222.25 335.805 217.9V208.3H345.605V246H335.805L328.205 224.25L328.105 224.35C328.355 227.9 328.805 231.4 328.805 234.95V246H319.005ZM372.272 208.55V219.35C370.822 217.95 369.622 217.15 367.522 217.15C362.222 217.15 360.922 223 360.922 227.15C360.922 231.55 362.222 237.15 367.322 237.15C369.622 237.15 371.072 236.25 372.722 234.75L372.122 245.3C370.072 246.2 368.222 246.65 365.972 246.65C357.622 246.65 350.522 240.3 350.522 227.4C350.522 210.5 362.122 207.65 367.072 207.65C368.872 207.65 370.622 207.9 372.272 208.55ZM378.331 246V208.3H397.281V217.2H388.531V222.45H396.381V231.35H388.531V237.1H397.281V246H378.331Z" fill="#E0F3FF" fill-opacity="0.9"/>
</svg>
