<svg width="546" height="327" viewBox="0 0 546 327" fill="none" xmlns="http://www.w3.org/2000/svg">
<rect width="546" height="327" rx="50" fill="#0E3D68"/>
<path d="M166.265 160H156.065V122.3H166.265V160ZM172.276 160V122.3H181.976L190.126 145L190.226 144.9C189.826 140.55 189.076 136.25 189.076 131.9V122.3H198.876V160H189.076L181.476 138.25L181.376 138.35C181.626 141.9 182.076 145.4 182.076 148.95V160H172.276ZM218.844 160H208.644V131.5H203.044V122.3H224.694V131.5H218.844V160ZM228.771 160V122.3H247.721V131.2H238.971V136.45H246.821V145.35H238.971V151.1H247.721V160H228.771ZM280.572 160H269.522L263.872 144.3L263.772 144.4C263.822 146.25 263.922 148.1 263.922 149.95V160H253.722V122.3H263.572C272.422 122.3 278.822 124.9 278.822 134.85C278.822 139 277.022 142.7 272.972 144.3L280.572 160ZM263.922 139.7L264.572 139.75C267.272 139.75 268.722 137.4 268.722 134.95C268.722 131.65 266.722 130.25 263.922 130.4V139.7ZM299.947 160H289.547L280.897 122.3H291.597L293.997 137.8C294.447 140.85 294.697 143.85 295.097 146.9H295.197C295.647 143.85 295.797 140.85 296.347 137.8L299.147 122.3H310.197L299.947 160ZM323.394 160H313.194V122.3H323.394V160ZM329.405 160V122.3H348.355V131.2H339.605V136.45H347.455V145.35H339.605V151.1H348.355V160H329.405ZM386.356 160H376.506L373.756 144.7C373.206 141.65 373.056 139 372.706 136.4H372.606C372.356 139 372.256 141.65 371.806 144.7L369.656 160H359.756L351.356 122.3H361.406L363.656 137.5C364.056 140.3 364.356 143.05 364.706 145.85H364.806C365.106 143.05 365.156 140.3 365.656 137.5L368.306 122.3H377.056L379.656 137.5C380.106 140.25 380.406 142.95 380.806 145.7H380.906C381.206 143.35 381.306 140.45 381.756 137.5L384.006 122.3H393.956L386.356 160ZM133.892 220H123.692V182.3H132.992C141.892 182.3 148.742 185.2 148.742 195.1C148.742 204.9 142.742 207.9 133.892 207.65V220ZM138.442 194.95C138.442 192.55 137.142 190.4 134.642 190.4L133.892 190.45V199.15C136.692 199.3 138.442 197.75 138.442 194.95ZM179.742 220H168.692L163.042 204.3L162.942 204.4C162.992 206.25 163.092 208.1 163.092 209.95V220H152.892V182.3H162.742C171.592 182.3 177.992 184.9 177.992 194.85C177.992 199 176.192 202.7 172.142 204.3L179.742 220ZM163.092 199.7L163.742 199.75C166.442 199.75 167.892 197.4 167.892 194.95C167.892 191.65 165.892 190.25 163.092 190.4V199.7ZM183.067 220V182.3H202.017V191.2H193.267V196.45H201.117V205.35H193.267V211.1H202.017V220H183.067ZM218.219 220H208.019V182.3H217.319C226.219 182.3 233.069 185.2 233.069 195.1C233.069 204.9 227.069 207.9 218.219 207.65V220ZM222.769 194.95C222.769 192.55 221.469 190.4 218.969 190.4L218.219 190.45V199.15C221.019 199.3 222.769 197.75 222.769 194.95ZM262.018 220H251.468L250.718 215.15H243.868L243.018 220H232.518L241.568 182.3H254.018L262.018 220ZM245.218 207.15H249.518L248.418 198.4C248.118 196.05 247.918 193.65 247.668 191.3H247.568C247.268 193.65 247.018 196.05 246.618 198.4L245.218 207.15ZM292.242 220H281.192L275.542 204.3L275.442 204.4C275.492 206.25 275.592 208.1 275.592 209.95V220H265.392V182.3H275.242C284.092 182.3 290.492 184.9 290.492 194.85C290.492 199 288.692 202.7 284.642 204.3L292.242 220ZM275.592 199.7L276.242 199.75C278.942 199.75 280.392 197.4 280.392 194.95C280.392 191.65 278.392 190.25 275.592 190.4V199.7ZM322.467 220H311.917L311.167 215.15H304.317L303.467 220H292.967L302.017 182.3H314.467L322.467 220ZM305.667 207.15H309.967L308.867 198.4C308.567 196.05 308.367 193.65 308.117 191.3H308.017C307.717 193.65 307.467 196.05 307.067 198.4L305.667 207.15ZM337.984 220H327.784V191.5H322.184V182.3H343.834V191.5H337.984V220ZM358.111 220H347.911V182.3H358.111V220ZM362.972 201.15C362.972 191.95 367.022 181.65 377.372 181.65C387.722 181.65 391.772 191.95 391.772 201.15C391.772 210.35 387.722 220.65 377.372 220.65C367.022 220.65 362.972 210.35 362.972 201.15ZM373.372 201.15C373.372 203.5 373.522 211.15 377.372 211.15C381.222 211.15 381.372 203.5 381.372 201.15C381.372 198.8 381.222 191.15 377.372 191.15C373.522 191.15 373.372 198.8 373.372 201.15ZM396.69 220V182.3H406.39L414.54 205L414.64 204.9C414.24 200.55 413.49 196.25 413.49 191.9V182.3H423.29V220H413.49L405.89 198.25L405.79 198.35C406.04 201.9 406.49 205.4 406.49 208.95V220H396.69Z" fill="#E0F3FF" fill-opacity="0.9"/>
</svg>
