<svg width="546" height="327" viewBox="0 0 546 327" fill="none" xmlns="http://www.w3.org/2000/svg">
<rect width="546" height="327" rx="50" fill="#6CBF2A"/>
<g clip-path="url(#clip0_407_2477)">
<path d="M81.4165 104L48.6469 91.5L47.3748 92.6833L52.7498 104L47.3748 115.317L48.6469 116.5L81.4165 104Z" fill="#0E3D68"/>
</g>
<g clip-path="url(#clip1_407_2477)">
<path d="M81.4165 191L48.6469 178.5L47.3748 179.683L52.7498 191L47.3748 202.317L48.6469 203.5L81.4165 191Z" fill="#0E3D68"/>
</g>
<path d="M117.21 99.842H109.598L107.046 104H104.824L115.472 86.708L120.664 104H118.442L117.21 99.842ZM116.66 97.95L114.768 91.24L110.764 97.95H116.66ZM130.963 94.078L130.567 96.63C129.929 95.728 129.027 95.244 127.839 95.244C125.903 95.244 124.143 96.96 123.835 98.852C123.505 100.964 124.737 102.504 126.827 102.504C127.971 102.504 128.983 101.976 129.863 101.14L129.445 103.67C128.477 104.154 127.531 104.352 126.497 104.352C123.461 104.352 121.349 102.02 121.833 98.94C122.339 95.75 125.177 93.396 128.345 93.396C129.269 93.396 130.259 93.616 130.963 94.078ZM140.416 94.078L140.02 96.63C139.382 95.728 138.48 95.244 137.292 95.244C135.356 95.244 133.596 96.96 133.288 98.852C132.958 100.964 134.19 102.504 136.28 102.504C137.424 102.504 138.436 101.976 139.316 101.14L138.898 103.67C137.93 104.154 136.984 104.352 135.95 104.352C132.914 104.352 130.802 102.02 131.286 98.94C131.792 95.75 134.63 93.396 137.798 93.396C138.722 93.396 139.712 93.616 140.416 94.078ZM150.551 99.182H142.697C142.433 100.942 143.357 102.592 145.249 102.592C146.767 102.592 147.713 101.822 148.659 100.59L150.177 101.536C148.923 103.318 146.943 104.352 144.941 104.352C141.795 104.352 140.277 101.976 140.739 98.94C141.245 95.772 143.313 93.396 146.635 93.396C149.913 93.396 151.079 95.816 150.595 98.874L150.551 99.182ZM143.027 97.686H148.791C148.813 96.146 147.955 95.112 146.371 95.112C144.831 95.112 143.511 96.212 143.027 97.686ZM158.609 95.2L156.871 96.058C156.717 95.552 156.277 95.156 155.705 95.156C155.155 95.156 154.561 95.596 154.451 96.168C154.319 97.07 155.441 97.466 156.563 98.016C157.685 98.566 158.741 99.314 158.477 100.942C158.169 102.9 156.299 104.352 154.385 104.352C152.889 104.352 151.525 103.494 151.195 102.042L153.021 101.272C153.307 102.042 153.725 102.592 154.671 102.592C155.507 102.592 156.321 102.02 156.475 101.14C156.563 100.59 156.321 100.326 155.925 100.018L154.143 98.984C153.109 98.368 152.361 97.796 152.581 96.388C152.845 94.716 154.407 93.396 156.079 93.396C157.333 93.396 158.235 94.078 158.609 95.2ZM167.053 95.2L165.315 96.058C165.161 95.552 164.721 95.156 164.149 95.156C163.599 95.156 163.005 95.596 162.895 96.168C162.763 97.07 163.885 97.466 165.007 98.016C166.129 98.566 167.185 99.314 166.921 100.942C166.613 102.9 164.743 104.352 162.829 104.352C161.333 104.352 159.969 103.494 159.639 102.042L161.465 101.272C161.751 102.042 162.169 102.592 163.115 102.592C163.951 102.592 164.765 102.02 164.919 101.14C165.007 100.59 164.765 100.326 164.369 100.018L162.587 98.984C161.553 98.368 160.805 97.796 161.025 96.388C161.289 94.716 162.851 93.396 164.523 93.396C165.777 93.396 166.679 94.078 167.053 95.2ZM178.335 95.552L176.993 104H175.013L176.355 95.552H175.277L175.563 93.704H176.641L177.257 89.766H179.237L178.621 93.704H180.557L180.271 95.552H178.335ZM189.824 99.182H181.97C181.706 100.942 182.63 102.592 184.522 102.592C186.04 102.592 186.986 101.822 187.932 100.59L189.45 101.536C188.196 103.318 186.216 104.352 184.214 104.352C181.068 104.352 179.55 101.976 180.012 98.94C180.518 95.772 182.586 93.396 185.908 93.396C189.186 93.396 190.352 95.816 189.868 98.874L189.824 99.182ZM182.3 97.686H188.064C188.086 96.146 187.228 95.112 185.644 95.112C184.104 95.112 182.784 96.212 182.3 97.686ZM199.885 94.078L199.489 96.63C198.851 95.728 197.949 95.244 196.761 95.244C194.825 95.244 193.065 96.96 192.757 98.852C192.427 100.964 193.659 102.504 195.749 102.504C196.893 102.504 197.905 101.976 198.785 101.14L198.367 103.67C197.399 104.154 196.453 104.352 195.419 104.352C192.383 104.352 190.271 102.02 190.755 98.94C191.261 95.75 194.099 93.396 197.267 93.396C198.191 93.396 199.181 93.616 199.885 94.078ZM203.48 84.904H205.46L203.854 95.09H203.898C204.69 93.99 206.01 93.396 207.264 93.396C210.168 93.396 210.608 95.354 210.212 97.862L209.244 104H207.264L208.188 98.104C208.474 96.344 208.43 95.156 206.406 95.156C203.854 95.156 203.502 97.4 203.194 99.27L202.446 104H200.466L203.48 84.904ZM215.589 93.704L215.369 95.09H215.413C216.205 93.99 217.525 93.396 218.779 93.396C221.683 93.396 222.123 95.354 221.727 97.862L220.759 104H218.779L219.703 98.104C219.989 96.344 219.945 95.156 217.921 95.156C215.369 95.156 215.017 97.4 214.709 99.27L213.961 104H211.981L213.609 93.704H215.589ZM227.545 93.704L225.917 104H223.937L225.565 93.704H227.545ZM227.523 87.61C228.271 87.61 228.799 88.226 228.667 88.996C228.557 89.744 227.831 90.338 227.083 90.338C226.335 90.338 225.829 89.744 225.939 88.996C226.071 88.226 226.775 87.61 227.523 87.61ZM238.213 94.078L237.817 96.63C237.179 95.728 236.277 95.244 235.089 95.244C233.153 95.244 231.393 96.96 231.085 98.852C230.755 100.964 231.987 102.504 234.077 102.504C235.221 102.504 236.233 101.976 237.113 101.14L236.695 103.67C235.727 104.154 234.781 104.352 233.747 104.352C230.711 104.352 228.599 102.02 229.083 98.94C229.589 95.75 232.427 93.396 235.595 93.396C236.519 93.396 237.509 93.616 238.213 94.078ZM243.458 102.592C245.614 102.592 247.066 100.876 247.396 98.852C247.704 96.85 246.78 95.156 244.646 95.156C242.6 95.156 241.104 96.938 240.796 98.852C240.488 100.788 241.368 102.592 243.458 102.592ZM250.08 93.704L248.452 104H246.472L246.736 102.394H246.692C245.702 103.56 244.338 104.352 242.864 104.352C239.718 104.352 238.354 101.734 238.838 98.786C239.278 95.97 241.544 93.396 244.536 93.396C246.054 93.396 247.176 94.188 247.792 95.42H247.836L248.1 93.704H250.08ZM256.1 84.904L253.086 104H251.106L254.12 84.904H256.1ZM269.383 95.2L267.645 96.058C267.491 95.552 267.051 95.156 266.479 95.156C265.929 95.156 265.335 95.596 265.225 96.168C265.093 97.07 266.215 97.466 267.337 98.016C268.459 98.566 269.515 99.314 269.251 100.942C268.943 102.9 267.073 104.352 265.159 104.352C263.663 104.352 262.299 103.494 261.969 102.042L263.795 101.272C264.081 102.042 264.499 102.592 265.445 102.592C266.281 102.592 267.095 102.02 267.249 101.14C267.337 100.59 267.095 100.326 266.699 100.018L264.917 98.984C263.883 98.368 263.135 97.796 263.355 96.388C263.619 94.716 265.181 93.396 266.853 93.396C268.107 93.396 269.009 94.078 269.383 95.2ZM272.238 93.704H274.218L273.316 99.402C273.052 101.052 273.25 102.504 275.208 102.504C277.166 102.504 277.804 101.052 278.068 99.402L278.97 93.704H280.95L280.026 99.622C279.564 102.438 277.936 104.352 274.9 104.352C271.864 104.352 270.852 102.438 271.314 99.622L272.238 93.704ZM287.148 102.592C289.304 102.592 290.756 100.876 291.086 98.852C291.394 96.85 290.47 95.156 288.336 95.156C286.29 95.156 284.794 96.938 284.486 98.852C284.178 100.788 285.058 102.592 287.148 102.592ZM285.41 93.704L285.146 95.42H285.19C286.202 94.188 287.544 93.396 289.084 93.396C292.054 93.396 293.528 95.97 293.088 98.786C292.604 101.734 290.426 104.352 287.258 104.352C285.806 104.352 284.684 103.56 284.09 102.394H284.046L282.858 109.896H280.878L283.43 93.704H285.41ZM299.372 102.592C301.528 102.592 302.98 100.876 303.31 98.852C303.618 96.85 302.694 95.156 300.56 95.156C298.514 95.156 297.018 96.938 296.71 98.852C296.402 100.788 297.282 102.592 299.372 102.592ZM297.634 93.704L297.37 95.42H297.414C298.426 94.188 299.768 93.396 301.308 93.396C304.278 93.396 305.752 95.97 305.312 98.786C304.828 101.734 302.65 104.352 299.482 104.352C298.03 104.352 296.908 103.56 296.314 102.394H296.27L295.082 109.896H293.102L295.654 93.704H297.634ZM312.653 93.396C315.733 93.396 317.779 95.772 317.295 98.874C316.811 101.976 313.995 104.352 310.915 104.352C307.835 104.352 305.811 101.976 306.295 98.874C306.779 95.772 309.573 93.396 312.653 93.396ZM312.367 95.288C310.409 95.288 308.583 96.916 308.275 98.874C307.967 100.81 309.265 102.46 311.223 102.46C313.181 102.46 315.007 100.81 315.315 98.874C315.623 96.916 314.325 95.288 312.367 95.288ZM322.026 93.704L321.762 95.376H321.828C322.51 94.166 323.632 93.396 324.952 93.396C325.524 93.396 326.074 93.594 326.514 93.902L325.326 95.706C325.018 95.398 324.644 95.288 324.182 95.288C322.048 95.288 321.454 97.268 321.19 98.94L320.398 104H318.418L320.046 93.704H322.026ZM330.036 95.552L328.694 104H326.714L328.056 95.552H326.978L327.264 93.704H328.342L328.958 89.766H330.938L330.322 93.704H332.258L331.972 95.552H330.036ZM346.191 84.904L345.883 86.906C345.509 86.73 345.047 86.488 344.629 86.488C343.221 86.488 342.935 88.27 342.781 89.282L342.077 93.704H344.805L344.519 95.552H341.791L340.449 104H338.469L339.811 95.552H338.909L339.195 93.704H340.097L340.889 88.688C341.241 86.444 342.297 84.64 344.849 84.64C345.333 84.64 345.795 84.728 346.191 84.904ZM350.38 93.396C353.46 93.396 355.506 95.772 355.022 98.874C354.538 101.976 351.722 104.352 348.642 104.352C345.562 104.352 343.538 101.976 344.022 98.874C344.506 95.772 347.3 93.396 350.38 93.396ZM350.094 95.288C348.136 95.288 346.31 96.916 346.002 98.874C345.694 100.81 346.992 102.46 348.95 102.46C350.908 102.46 352.734 100.81 353.042 98.874C353.35 96.916 352.052 95.288 350.094 95.288ZM359.752 93.704L359.488 95.376H359.554C360.236 94.166 361.358 93.396 362.678 93.396C363.25 93.396 363.8 93.594 364.24 93.902L363.052 95.706C362.744 95.398 362.37 95.288 361.908 95.288C359.774 95.288 359.18 97.268 358.916 98.94L358.124 104H356.144L357.772 93.704H359.752ZM374.749 102.592C376.905 102.592 378.357 100.876 378.687 98.852C378.995 96.85 378.071 95.156 375.937 95.156C373.891 95.156 372.395 96.938 372.087 98.852C371.779 100.788 372.659 102.592 374.749 102.592ZM381.371 93.704L379.743 104H377.763L378.027 102.394H377.983C376.993 103.56 375.629 104.352 374.155 104.352C371.009 104.352 369.645 101.734 370.129 98.786C370.569 95.97 372.835 93.396 375.827 93.396C377.345 93.396 378.467 94.188 379.083 95.42H379.127L379.391 93.704H381.371ZM385.917 93.704L385.697 95.09H385.741C386.533 93.99 387.853 93.396 389.107 93.396C392.011 93.396 392.451 95.354 392.055 97.862L391.087 104H389.107L390.031 98.104C390.317 96.344 390.273 95.156 388.249 95.156C385.697 95.156 385.345 97.4 385.037 99.27L384.289 104H382.309L383.937 93.704H385.917ZM397.169 102.24L393.803 93.704H396.113L398.555 100.238L402.823 93.704H405.045L394.155 109.896H391.911L397.169 102.24ZM414.889 93.704L413.261 104H411.281L412.909 93.704H414.889ZM414.867 87.61C415.615 87.61 416.143 88.226 416.011 88.996C415.901 89.744 415.175 90.338 414.427 90.338C413.679 90.338 413.173 89.744 413.283 88.996C413.415 88.226 414.119 87.61 414.867 87.61ZM423.555 95.2L421.817 96.058C421.663 95.552 421.223 95.156 420.651 95.156C420.101 95.156 419.507 95.596 419.397 96.168C419.265 97.07 420.387 97.466 421.509 98.016C422.631 98.566 423.687 99.314 423.423 100.942C423.115 102.9 421.245 104.352 419.331 104.352C417.835 104.352 416.471 103.494 416.141 102.042L417.966 101.272C418.253 102.042 418.671 102.592 419.617 102.592C420.453 102.592 421.267 102.02 421.421 101.14C421.509 100.59 421.267 100.326 420.87 100.018L419.089 98.984C418.055 98.368 417.307 97.796 417.527 96.388C417.791 94.716 419.353 93.396 421.025 93.396C422.279 93.396 423.181 94.078 423.555 95.2ZM431.998 95.2L430.26 96.058C430.106 95.552 429.666 95.156 429.094 95.156C428.544 95.156 427.95 95.596 427.84 96.168C427.708 97.07 428.83 97.466 429.952 98.016C431.074 98.566 432.13 99.314 431.866 100.942C431.558 102.9 429.688 104.352 427.774 104.352C426.278 104.352 424.914 103.494 424.584 102.042L426.41 101.272C426.696 102.042 427.114 102.592 428.06 102.592C428.896 102.592 429.71 102.02 429.864 101.14C429.952 100.59 429.71 100.326 429.314 100.018L427.532 98.984C426.498 98.368 425.75 97.796 425.97 96.388C426.234 94.716 427.796 93.396 429.468 93.396C430.722 93.396 431.624 94.078 431.998 95.2ZM434.853 93.704H436.833L435.931 99.402C435.667 101.052 435.865 102.504 437.823 102.504C439.781 102.504 440.419 101.052 440.683 99.402L441.585 93.704H443.565L442.641 99.622C442.179 102.438 440.551 104.352 437.515 104.352C434.479 104.352 433.467 102.438 433.929 99.622L434.853 93.704ZM454.383 99.182H446.529C446.265 100.942 447.189 102.592 449.081 102.592C450.599 102.592 451.545 101.822 452.491 100.59L454.009 101.536C452.755 103.318 450.775 104.352 448.773 104.352C445.627 104.352 444.109 101.976 444.571 98.94C445.077 95.772 447.145 93.396 450.467 93.396C453.745 93.396 454.911 95.816 454.427 98.874L454.383 99.182ZM446.859 97.686H452.623C452.645 96.146 451.787 95.112 450.203 95.112C448.663 95.112 447.343 96.212 446.859 97.686ZM462.441 95.2L460.703 96.058C460.549 95.552 460.109 95.156 459.537 95.156C458.987 95.156 458.393 95.596 458.283 96.168C458.151 97.07 459.273 97.466 460.395 98.016C461.517 98.566 462.573 99.314 462.309 100.942C462.001 102.9 460.131 104.352 458.217 104.352C456.721 104.352 455.357 103.494 455.027 102.042L456.853 101.272C457.139 102.042 457.557 102.592 458.503 102.592C459.339 102.592 460.153 102.02 460.307 101.14C460.395 100.59 460.153 100.326 459.757 100.018L457.975 98.984C456.941 98.368 456.193 97.796 456.413 96.388C456.677 94.716 458.239 93.396 459.911 93.396C461.165 93.396 462.067 94.078 462.441 95.2ZM472.272 93.704L474.23 100.26L478.388 93.132L480.28 100.26L484.306 93.704H486.55L479.62 104.352L477.706 97.466L473.57 104.352L470.028 93.704H472.272ZM489.955 93.704L488.327 104H486.347L487.975 93.704H489.955ZM489.933 87.61C490.681 87.61 491.209 88.226 491.077 88.996C490.967 89.744 490.241 90.338 489.493 90.338C488.745 90.338 488.239 89.744 488.349 88.996C488.481 88.226 489.185 87.61 489.933 87.61ZM495.101 95.552L493.759 104H491.779L493.121 95.552H492.043L492.329 93.704H493.407L494.023 89.766H496.003L495.387 93.704H497.323L497.037 95.552H495.101ZM499.814 84.904H501.794L500.188 95.09H500.232C501.024 93.99 502.344 93.396 503.598 93.396C506.502 93.396 506.942 95.354 506.546 97.862L505.578 104H503.598L504.522 98.104C504.808 96.344 504.764 95.156 502.74 95.156C500.188 95.156 499.836 97.4 499.528 99.27L498.78 104H496.8L499.814 84.904ZM112.612 119.396C115.692 119.396 117.738 121.772 117.254 124.874C116.77 127.976 113.954 130.352 110.874 130.352C107.794 130.352 105.77 127.976 106.254 124.874C106.738 121.772 109.532 119.396 112.612 119.396ZM112.326 121.288C110.368 121.288 108.542 122.916 108.234 124.874C107.926 126.81 109.224 128.46 111.182 128.46C113.14 128.46 114.966 126.81 115.274 124.874C115.582 122.916 114.284 121.288 112.326 121.288ZM121.853 119.704L121.633 121.09H121.677C122.469 119.99 123.789 119.396 125.043 119.396C127.947 119.396 128.387 121.354 127.991 123.862L127.023 130H125.043L125.967 124.104C126.253 122.344 126.209 121.156 124.185 121.156C121.633 121.156 121.281 123.4 120.973 125.27L120.225 130H118.245L119.873 119.704H121.853ZM134.842 110.904L131.828 130H129.848L132.862 110.904H134.842ZM138.707 119.704L137.079 130H135.099L136.727 119.704H138.707ZM138.685 113.61C139.433 113.61 139.961 114.226 139.829 114.996C139.719 115.744 138.993 116.338 138.245 116.338C137.497 116.338 136.991 115.744 137.101 114.996C137.233 114.226 137.937 113.61 138.685 113.61ZM143.853 119.704L143.633 121.09H143.677C144.469 119.99 145.789 119.396 147.043 119.396C149.947 119.396 150.387 121.354 149.991 123.862L149.023 130H147.043L147.967 124.104C148.253 122.344 148.209 121.156 146.185 121.156C143.633 121.156 143.281 123.4 142.973 125.27L142.225 130H140.245L141.873 119.704H143.853ZM161.572 125.182H153.718C153.454 126.942 154.378 128.592 156.27 128.592C157.788 128.592 158.734 127.822 159.68 126.59L161.198 127.536C159.944 129.318 157.964 130.352 155.962 130.352C152.816 130.352 151.298 127.976 151.76 124.94C152.266 121.772 154.334 119.396 157.656 119.396C160.934 119.396 162.1 121.816 161.616 124.874L161.572 125.182ZM154.048 123.686H159.812C159.834 122.146 158.976 121.112 157.392 121.112C155.852 121.112 154.532 122.212 154.048 123.686ZM173.526 128.592C175.682 128.592 177.134 126.876 177.464 124.852C177.772 122.85 176.848 121.156 174.714 121.156C172.668 121.156 171.172 122.938 170.864 124.852C170.556 126.788 171.436 128.592 173.526 128.592ZM180.148 119.704L178.52 130H176.54L176.804 128.394H176.76C175.77 129.56 174.406 130.352 172.932 130.352C169.786 130.352 168.422 127.734 168.906 124.786C169.346 121.97 171.612 119.396 174.604 119.396C176.122 119.396 177.244 120.188 177.86 121.42H177.904L178.168 119.704H180.148ZM186.279 128.592C188.435 128.592 189.887 126.876 190.217 124.852C190.525 122.85 189.601 121.156 187.467 121.156C185.421 121.156 183.925 122.938 183.617 124.852C183.309 126.788 184.189 128.592 186.279 128.592ZM184.541 119.704L184.277 121.42H184.321C185.333 120.188 186.675 119.396 188.215 119.396C191.185 119.396 192.659 121.97 192.219 124.786C191.735 127.734 189.557 130.352 186.389 130.352C184.937 130.352 183.815 129.56 183.221 128.394H183.177L181.989 135.896H180.009L182.561 119.704H184.541ZM198.503 128.592C200.659 128.592 202.111 126.876 202.441 124.852C202.749 122.85 201.825 121.156 199.691 121.156C197.645 121.156 196.149 122.938 195.841 124.852C195.533 126.788 196.413 128.592 198.503 128.592ZM196.765 119.704L196.501 121.42H196.545C197.557 120.188 198.899 119.396 200.439 119.396C203.409 119.396 204.883 121.97 204.443 124.786C203.959 127.734 201.781 130.352 198.613 130.352C197.161 130.352 196.039 129.56 195.445 128.394H195.401L194.213 135.896H192.233L194.785 119.704H196.765ZM210.618 110.904L207.604 130H205.624L208.638 110.904H210.618ZM214.482 119.704L212.854 130H210.874L212.502 119.704H214.482ZM214.46 113.61C215.208 113.61 215.736 114.226 215.604 114.996C215.494 115.744 214.768 116.338 214.02 116.338C213.272 116.338 212.766 115.744 212.876 114.996C213.008 114.226 213.712 113.61 214.46 113.61ZM225.15 120.078L224.754 122.63C224.116 121.728 223.214 121.244 222.026 121.244C220.09 121.244 218.33 122.96 218.022 124.852C217.692 126.964 218.924 128.504 221.014 128.504C222.158 128.504 223.17 127.976 224.05 127.14L223.632 129.67C222.664 130.154 221.718 130.352 220.684 130.352C217.648 130.352 215.536 128.02 216.02 124.94C216.526 121.75 219.364 119.396 222.532 119.396C223.456 119.396 224.446 119.616 225.15 120.078ZM230.395 128.592C232.551 128.592 234.003 126.876 234.333 124.852C234.641 122.85 233.717 121.156 231.583 121.156C229.537 121.156 228.041 122.938 227.733 124.852C227.425 126.788 228.305 128.592 230.395 128.592ZM237.017 119.704L235.389 130H233.409L233.673 128.394H233.629C232.639 129.56 231.275 130.352 229.801 130.352C226.655 130.352 225.291 127.734 225.775 124.786C226.215 121.97 228.481 119.396 231.473 119.396C232.991 119.396 234.113 120.188 234.729 121.42H234.773L235.037 119.704H237.017ZM241.564 121.552L240.222 130H238.242L239.584 121.552H238.506L238.792 119.704H239.87L240.486 115.766H242.466L241.85 119.704H243.786L243.5 121.552H241.564ZM247.31 119.704L245.682 130H243.702L245.33 119.704H247.31ZM247.288 113.61C248.036 113.61 248.564 114.226 248.432 114.996C248.322 115.744 247.596 116.338 246.848 116.338C246.1 116.338 245.594 115.744 245.704 114.996C245.836 114.226 246.54 113.61 247.288 113.61ZM255.096 119.396C258.176 119.396 260.222 121.772 259.738 124.874C259.254 127.976 256.438 130.352 253.358 130.352C250.278 130.352 248.254 127.976 248.738 124.874C249.222 121.772 252.016 119.396 255.096 119.396ZM254.81 121.288C252.852 121.288 251.026 122.916 250.718 124.874C250.41 126.81 251.708 128.46 253.666 128.46C255.624 128.46 257.45 126.81 257.758 124.874C258.066 122.916 256.768 121.288 254.81 121.288ZM264.337 119.704L264.117 121.09H264.161C264.953 119.99 266.273 119.396 267.527 119.396C270.431 119.396 270.871 121.354 270.475 123.862L269.507 130H267.527L268.451 124.104C268.737 122.344 268.693 121.156 266.669 121.156C264.117 121.156 263.765 123.4 263.457 125.27L262.709 130H260.729L262.357 119.704H264.337ZM283.796 128.592C285.952 128.592 287.404 126.876 287.734 124.852C288.042 122.85 287.118 121.156 284.984 121.156C282.938 121.156 281.442 122.938 281.134 124.852C280.826 126.788 281.706 128.592 283.796 128.592ZM282.058 119.704L281.794 121.42H281.838C282.85 120.188 284.192 119.396 285.732 119.396C288.702 119.396 290.176 121.97 289.736 124.786C289.252 127.734 287.074 130.352 283.906 130.352C282.454 130.352 281.332 129.56 280.738 128.394H280.694L279.506 135.896H277.526L280.078 119.704H282.058ZM295.911 110.904L292.897 130H290.917L293.931 110.904H295.911ZM300.37 128.592C302.526 128.592 303.978 126.876 304.308 124.852C304.616 122.85 303.692 121.156 301.558 121.156C299.512 121.156 298.016 122.938 297.708 124.852C297.4 126.788 298.28 128.592 300.37 128.592ZM306.992 119.704L305.364 130H303.384L303.648 128.394H303.604C302.614 129.56 301.25 130.352 299.776 130.352C296.63 130.352 295.266 127.734 295.75 124.786C296.19 121.97 298.456 119.396 301.448 119.396C302.966 119.396 304.088 120.188 304.704 121.42H304.748L305.012 119.704H306.992ZM311.538 121.552L310.196 130H308.216L309.558 121.552H308.48L308.766 119.704H309.844L310.46 115.766H312.44L311.824 119.704H313.76L313.474 121.552H311.538ZM321.355 110.904L321.047 112.906C320.673 112.73 320.211 112.488 319.793 112.488C318.385 112.488 318.099 114.27 317.945 115.282L317.241 119.704H319.969L319.683 121.552H316.955L315.613 130H313.633L314.975 121.552H314.073L314.359 119.704H315.261L316.053 114.688C316.405 112.444 317.461 110.64 320.013 110.64C320.497 110.64 320.959 110.728 321.355 110.904ZM325.544 119.396C328.624 119.396 330.67 121.772 330.186 124.874C329.702 127.976 326.886 130.352 323.806 130.352C320.726 130.352 318.702 127.976 319.186 124.874C319.67 121.772 322.464 119.396 325.544 119.396ZM325.258 121.288C323.3 121.288 321.474 122.916 321.166 124.874C320.858 126.81 322.156 128.46 324.114 128.46C326.072 128.46 327.898 126.81 328.206 124.874C328.514 122.916 327.216 121.288 325.258 121.288ZM334.917 119.704L334.653 121.376H334.719C335.401 120.166 336.523 119.396 337.843 119.396C338.415 119.396 338.965 119.594 339.405 119.902L338.217 121.706C337.909 121.398 337.535 121.288 337.073 121.288C334.939 121.288 334.345 123.268 334.081 124.94L333.289 130H331.309L332.937 119.704H334.917ZM342.603 119.704L342.405 121.002H342.449C343.153 120.1 344.297 119.396 345.419 119.396C346.761 119.396 347.619 120.078 348.103 121.222C348.917 120.122 350.259 119.396 351.557 119.396C354.263 119.396 354.637 121.508 354.263 123.84L353.295 130H351.315L352.239 124.17C352.437 122.85 352.547 121.156 350.809 121.156C348.697 121.156 348.191 123.356 347.927 124.94L347.135 130H345.155L346.013 124.544C346.233 123.202 346.497 121.156 344.671 121.156C342.559 121.156 342.031 123.334 341.767 124.94L340.975 130H338.995L340.623 119.704H342.603ZM363.055 121.2L361.317 122.058C361.163 121.552 360.723 121.156 360.151 121.156C359.601 121.156 359.007 121.596 358.897 122.168C358.765 123.07 359.887 123.466 361.009 124.016C362.131 124.566 363.187 125.314 362.923 126.942C362.615 128.9 360.745 130.352 358.831 130.352C357.335 130.352 355.971 129.494 355.641 128.042L357.466 127.272C357.753 128.042 358.171 128.592 359.117 128.592C359.953 128.592 360.767 128.02 360.921 127.14C361.009 126.59 360.767 126.326 360.37 126.018L358.589 124.984C357.555 124.368 356.807 123.796 357.027 122.388C357.291 120.716 358.853 119.396 360.525 119.396C361.779 119.396 362.681 120.078 363.055 121.2ZM375.393 128.592C377.549 128.592 379.001 126.876 379.331 124.852C379.639 122.85 378.715 121.156 376.581 121.156C374.535 121.156 373.039 122.938 372.731 124.852C372.423 126.788 373.303 128.592 375.393 128.592ZM382.015 119.704L380.387 130H378.407L378.671 128.394H378.627C377.637 129.56 376.273 130.352 374.799 130.352C371.653 130.352 370.289 127.734 370.773 124.786C371.213 121.97 373.479 119.396 376.471 119.396C377.989 119.396 379.111 120.188 379.727 121.42H379.771L380.035 119.704H382.015ZM386.562 119.704L386.342 121.09H386.386C387.178 119.99 388.498 119.396 389.752 119.396C392.656 119.396 393.096 121.354 392.7 123.862L391.732 130H389.752L390.676 124.104C390.962 122.344 390.918 121.156 388.894 121.156C386.342 121.156 385.99 123.4 385.682 125.27L384.934 130H382.954L384.582 119.704H386.562ZM399.133 128.592C401.289 128.592 402.741 126.876 403.071 124.852C403.379 122.85 402.455 121.156 400.321 121.156C398.275 121.156 396.779 122.938 396.471 124.852C396.163 126.788 397.043 128.592 399.133 128.592ZM402.147 130L402.411 128.394H402.367C401.377 129.56 399.991 130.352 398.539 130.352C395.371 130.352 394.029 127.734 394.513 124.786C394.953 121.97 397.219 119.396 400.189 119.396C401.729 119.396 402.851 120.188 403.467 121.42H403.511L405.161 110.904H407.141L404.127 130H402.147ZM416.793 119.704L416.529 121.376H416.595C417.277 120.166 418.399 119.396 419.719 119.396C420.291 119.396 420.841 119.594 421.281 119.902L420.093 121.706C419.785 121.398 419.411 121.288 418.949 121.288C416.815 121.288 416.221 123.268 415.957 124.94L415.165 130H413.185L414.813 119.704H416.793ZM430.192 125.182H422.338C422.074 126.942 422.998 128.592 424.89 128.592C426.408 128.592 427.354 127.822 428.3 126.59L429.818 127.536C428.564 129.318 426.584 130.352 424.582 130.352C421.436 130.352 419.918 127.976 420.38 124.94C420.886 121.772 422.954 119.396 426.276 119.396C429.554 119.396 430.72 121.816 430.236 124.874L430.192 125.182ZM422.668 123.686H428.432C428.454 122.146 427.596 121.112 426.012 121.112C424.472 121.112 423.152 122.212 422.668 123.686ZM438.25 121.2L436.512 122.058C436.358 121.552 435.918 121.156 435.346 121.156C434.796 121.156 434.202 121.596 434.092 122.168C433.96 123.07 435.082 123.466 436.204 124.016C437.326 124.566 438.382 125.314 438.118 126.942C437.81 128.9 435.94 130.352 434.026 130.352C432.53 130.352 431.166 129.494 430.836 128.042L432.662 127.272C432.948 128.042 433.366 128.592 434.312 128.592C435.148 128.592 435.962 128.02 436.116 127.14C436.204 126.59 435.962 126.326 435.566 126.018L433.784 124.984C432.75 124.368 432.002 123.796 432.222 122.388C432.486 120.716 434.048 119.396 435.72 119.396C436.974 119.396 437.876 120.078 438.25 121.2ZM445.813 119.396C448.893 119.396 450.939 121.772 450.455 124.874C449.971 127.976 447.155 130.352 444.075 130.352C440.995 130.352 438.971 127.976 439.455 124.874C439.939 121.772 442.733 119.396 445.813 119.396ZM445.527 121.288C443.569 121.288 441.743 122.916 441.435 124.874C441.127 126.81 442.425 128.46 444.383 128.46C446.341 128.46 448.167 126.81 448.475 124.874C448.783 122.916 447.485 121.288 445.527 121.288ZM452.986 119.704H454.966L454.064 125.402C453.8 127.052 453.998 128.504 455.956 128.504C457.914 128.504 458.552 127.052 458.816 125.402L459.718 119.704H461.698L460.774 125.622C460.312 128.438 458.684 130.352 455.648 130.352C452.612 130.352 451.6 128.438 452.062 125.622L452.986 119.704ZM466.444 119.704L466.18 121.376H466.246C466.928 120.166 468.05 119.396 469.37 119.396C469.942 119.396 470.492 119.594 470.932 119.902L469.744 121.706C469.436 121.398 469.062 121.288 468.6 121.288C466.466 121.288 465.872 123.268 465.608 124.94L464.816 130H462.836L464.464 119.704H466.444ZM479.16 120.078L478.764 122.63C478.126 121.728 477.224 121.244 476.036 121.244C474.1 121.244 472.34 122.96 472.032 124.852C471.702 126.964 472.934 128.504 475.024 128.504C476.168 128.504 477.18 127.976 478.06 127.14L477.642 129.67C476.674 130.154 475.728 130.352 474.694 130.352C471.658 130.352 469.546 128.02 470.03 124.94C470.536 121.75 473.374 119.396 476.542 119.396C477.466 119.396 478.456 119.616 479.16 120.078ZM489.295 125.182H481.441C481.177 126.942 482.101 128.592 483.993 128.592C485.511 128.592 486.457 127.822 487.403 126.59L488.921 127.536C487.667 129.318 485.687 130.352 483.685 130.352C480.539 130.352 479.021 127.976 479.483 124.94C479.989 121.772 482.057 119.396 485.379 119.396C488.657 119.396 489.823 121.816 489.339 124.874L489.295 125.182ZM481.771 123.686H487.535C487.557 122.146 486.699 121.112 485.115 121.112C483.575 121.112 482.255 122.212 481.771 123.686ZM497.353 121.2L495.615 122.058C495.461 121.552 495.021 121.156 494.449 121.156C493.899 121.156 493.305 121.596 493.195 122.168C493.063 123.07 494.185 123.466 495.307 124.016C496.429 124.566 497.485 125.314 497.221 126.942C496.913 128.9 495.043 130.352 493.129 130.352C491.633 130.352 490.269 129.494 489.939 128.042L491.765 127.272C492.051 128.042 492.469 128.592 493.415 128.592C494.251 128.592 495.065 128.02 495.219 127.14C495.307 126.59 495.065 126.326 494.669 126.018L492.887 124.984C491.853 124.368 491.105 123.796 491.325 122.388C491.589 120.716 493.151 119.396 494.823 119.396C496.077 119.396 496.979 120.078 497.353 121.2ZM500.847 127.8C501.551 127.8 502.035 128.394 501.925 129.076C501.815 129.78 501.133 130.352 500.429 130.352C499.725 130.352 499.263 129.78 499.373 129.076C499.483 128.394 500.143 127.8 500.847 127.8Z" fill="#093761"/>
<path d="M108.916 170.412H110.984L109.444 180.202C109.004 182.908 109.422 185.416 112.612 185.416C115.802 185.416 117.012 182.908 117.452 180.202L118.992 170.412H121.06L119.41 180.906C118.838 184.558 116.11 187.352 112.304 187.352C108.498 187.352 106.694 184.558 107.266 180.906L108.916 170.412ZM124.689 178.552L123.347 187H121.367L122.709 178.552H121.631L121.917 176.704H122.995L123.611 172.766H125.591L124.975 176.704H126.911L126.625 178.552H124.689ZM130.435 176.704L128.807 187H126.827L128.455 176.704H130.435ZM130.413 170.61C131.161 170.61 131.689 171.226 131.557 171.996C131.447 172.744 130.721 173.338 129.973 173.338C129.225 173.338 128.719 172.744 128.829 171.996C128.961 171.226 129.665 170.61 130.413 170.61ZM137.055 167.904L134.041 187H132.061L135.075 167.904H137.055ZM140.92 176.704L139.292 187H137.312L138.94 176.704H140.92ZM140.898 170.61C141.646 170.61 142.174 171.226 142.042 171.996C141.932 172.744 141.206 173.338 140.458 173.338C139.71 173.338 139.204 172.744 139.314 171.996C139.446 171.226 140.15 170.61 140.898 170.61ZM145.274 185.152H151.962L151.676 187H141.138L149.454 178.552H143.668L143.954 176.704H153.59L145.274 185.152ZM163.162 182.182H155.308C155.044 183.942 155.968 185.592 157.86 185.592C159.378 185.592 160.324 184.822 161.27 183.59L162.788 184.536C161.534 186.318 159.554 187.352 157.552 187.352C154.406 187.352 152.888 184.976 153.35 181.94C153.856 178.772 155.924 176.396 159.246 176.396C162.524 176.396 163.69 178.816 163.206 181.874L163.162 182.182ZM155.638 180.686H161.402C161.424 179.146 160.566 178.112 158.982 178.112C157.442 178.112 156.122 179.212 155.638 180.686ZM179.582 177.078L179.186 179.63C178.548 178.728 177.646 178.244 176.458 178.244C174.522 178.244 172.762 179.96 172.454 181.852C172.124 183.964 173.356 185.504 175.446 185.504C176.59 185.504 177.602 184.976 178.482 184.14L178.064 186.67C177.096 187.154 176.15 187.352 175.116 187.352C172.08 187.352 169.968 185.02 170.452 181.94C170.958 178.75 173.796 176.396 176.964 176.396C177.888 176.396 178.878 176.616 179.582 177.078ZM186.153 176.396C189.233 176.396 191.279 178.772 190.795 181.874C190.311 184.976 187.495 187.352 184.415 187.352C181.335 187.352 179.311 184.976 179.795 181.874C180.279 178.772 183.073 176.396 186.153 176.396ZM185.867 178.288C183.909 178.288 182.083 179.916 181.775 181.874C181.467 183.81 182.765 185.46 184.723 185.46C186.681 185.46 188.507 183.81 188.815 181.874C189.123 179.916 187.825 178.288 185.867 178.288ZM193.326 176.704H195.306L194.404 182.402C194.14 184.052 194.338 185.504 196.296 185.504C198.254 185.504 198.892 184.052 199.156 182.402L200.058 176.704H202.038L201.114 182.622C200.652 185.438 199.024 187.352 195.988 187.352C192.952 187.352 191.94 185.438 192.402 182.622L193.326 176.704ZM206.652 176.704L206.432 178.09H206.476C207.268 176.99 208.588 176.396 209.842 176.396C212.746 176.396 213.186 178.354 212.79 180.862L211.822 187H209.842L210.766 181.104C211.052 179.344 211.008 178.156 208.984 178.156C206.432 178.156 206.08 180.4 205.772 182.27L205.024 187H203.044L204.672 176.704H206.652ZM221.687 178.2L219.949 179.058C219.795 178.552 219.355 178.156 218.783 178.156C218.233 178.156 217.639 178.596 217.529 179.168C217.397 180.07 218.519 180.466 219.641 181.016C220.763 181.566 221.819 182.314 221.555 183.942C221.247 185.9 219.377 187.352 217.463 187.352C215.967 187.352 214.603 186.494 214.273 185.042L216.099 184.272C216.385 185.042 216.803 185.592 217.749 185.592C218.585 185.592 219.399 185.02 219.553 184.14C219.641 183.59 219.399 183.326 219.003 183.018L217.221 181.984C216.187 181.368 215.439 180.796 215.659 179.388C215.923 177.716 217.485 176.396 219.157 176.396C220.411 176.396 221.313 177.078 221.687 178.2ZM232.815 182.182H224.961C224.697 183.942 225.621 185.592 227.513 185.592C229.031 185.592 229.977 184.822 230.923 183.59L232.441 184.536C231.187 186.318 229.207 187.352 227.205 187.352C224.059 187.352 222.541 184.976 223.003 181.94C223.509 178.772 225.577 176.396 228.899 176.396C232.177 176.396 233.343 178.816 232.859 181.874L232.815 182.182ZM225.291 180.686H231.055C231.077 179.146 230.219 178.112 228.635 178.112C227.095 178.112 225.775 179.212 225.291 180.686ZM238.827 167.904L235.813 187H233.833L236.847 167.904H238.827ZM242.691 176.704L241.063 187H239.083L240.711 176.704H242.691ZM242.669 170.61C243.417 170.61 243.945 171.226 243.813 171.996C243.703 172.744 242.977 173.338 242.229 173.338C241.481 173.338 240.975 172.744 241.085 171.996C241.217 171.226 241.921 170.61 242.669 170.61ZM247.837 176.704L247.617 178.09H247.661C248.453 176.99 249.773 176.396 251.027 176.396C253.931 176.396 254.371 178.354 253.975 180.862L253.007 187H251.027L251.951 181.104C252.237 179.344 252.193 178.156 250.169 178.156C247.617 178.156 247.265 180.4 246.957 182.27L246.209 187H244.229L245.857 176.704H247.837ZM260.387 185.592C262.543 185.592 263.995 183.876 264.325 181.852C264.633 179.85 263.709 178.156 261.575 178.156C259.529 178.156 258.033 179.938 257.725 181.852C257.417 183.788 258.297 185.592 260.387 185.592ZM267.009 176.704L265.403 186.802C264.853 190.344 263.445 192.896 259.441 192.896C256.581 192.896 254.777 191.136 255.195 188.232H257.175C256.889 190.08 257.989 191.136 259.793 191.136C262.235 191.136 263.005 189.464 263.335 187.352L263.665 185.394H263.621C262.631 186.56 261.245 187.352 259.793 187.352C256.625 187.352 255.283 184.734 255.767 181.786C256.207 178.97 258.473 176.396 261.443 176.396C262.983 176.396 264.105 177.188 264.699 178.464H264.743L265.029 176.704H267.009ZM281.435 178.2L279.697 179.058C279.543 178.552 279.103 178.156 278.531 178.156C277.981 178.156 277.387 178.596 277.277 179.168C277.145 180.07 278.267 180.466 279.389 181.016C280.511 181.566 281.567 182.314 281.303 183.942C280.995 185.9 279.125 187.352 277.211 187.352C275.715 187.352 274.351 186.494 274.021 185.042L275.847 184.272C276.133 185.042 276.551 185.592 277.497 185.592C278.333 185.592 279.147 185.02 279.301 184.14C279.389 183.59 279.147 183.326 278.751 183.018L276.969 181.984C275.935 181.368 275.187 180.796 275.407 179.388C275.671 177.716 277.233 176.396 278.905 176.396C280.159 176.396 281.061 177.078 281.435 178.2ZM292.563 182.182H284.709C284.445 183.942 285.369 185.592 287.261 185.592C288.779 185.592 289.725 184.822 290.671 183.59L292.189 184.536C290.935 186.318 288.955 187.352 286.953 187.352C283.807 187.352 282.289 184.976 282.751 181.94C283.257 178.772 285.325 176.396 288.647 176.396C291.925 176.396 293.091 178.816 292.607 181.874L292.563 182.182ZM285.039 180.686H290.803C290.825 179.146 289.967 178.112 288.383 178.112C286.843 178.112 285.523 179.212 285.039 180.686ZM297.233 176.704L296.969 178.376H297.035C297.717 177.166 298.839 176.396 300.159 176.396C300.731 176.396 301.281 176.594 301.721 176.902L300.533 178.706C300.225 178.398 299.851 178.288 299.389 178.288C297.255 178.288 296.661 180.268 296.397 181.94L295.605 187H293.625L295.253 176.704H297.233ZM304.287 176.704L306.223 183.128L310.205 176.704H312.427L305.541 187.352L302.065 176.704H304.287ZM315.932 176.704L314.304 187H312.324L313.952 176.704H315.932ZM315.91 170.61C316.658 170.61 317.186 171.226 317.054 171.996C316.944 172.744 316.218 173.338 315.47 173.338C314.722 173.338 314.216 172.744 314.326 171.996C314.458 171.226 315.162 170.61 315.91 170.61ZM326.599 177.078L326.203 179.63C325.565 178.728 324.663 178.244 323.475 178.244C321.539 178.244 319.779 179.96 319.471 181.852C319.141 183.964 320.373 185.504 322.463 185.504C323.607 185.504 324.619 184.976 325.499 184.14L325.081 186.67C324.113 187.154 323.167 187.352 322.133 187.352C319.097 187.352 316.985 185.02 317.469 181.94C317.975 178.75 320.813 176.396 323.981 176.396C324.905 176.396 325.895 176.616 326.599 177.078ZM336.735 182.182H328.881C328.617 183.942 329.541 185.592 331.433 185.592C332.951 185.592 333.897 184.822 334.843 183.59L336.361 184.536C335.107 186.318 333.127 187.352 331.125 187.352C327.979 187.352 326.461 184.976 326.923 181.94C327.429 178.772 329.497 176.396 332.819 176.396C336.097 176.396 337.263 178.816 336.779 181.874L336.735 182.182ZM329.211 180.686H334.975C334.997 179.146 334.139 178.112 332.555 178.112C331.015 178.112 329.695 179.212 329.211 180.686ZM344.793 178.2L343.055 179.058C342.901 178.552 342.461 178.156 341.889 178.156C341.339 178.156 340.745 178.596 340.635 179.168C340.503 180.07 341.625 180.466 342.747 181.016C343.869 181.566 344.925 182.314 344.661 183.942C344.353 185.9 342.483 187.352 340.569 187.352C339.073 187.352 337.709 186.494 337.379 185.042L339.205 184.272C339.491 185.042 339.909 185.592 340.855 185.592C341.691 185.592 342.505 185.02 342.659 184.14C342.747 183.59 342.505 183.326 342.109 183.018L340.327 181.984C339.293 181.368 338.545 180.796 338.765 179.388C339.029 177.716 340.591 176.396 342.263 176.396C343.517 176.396 344.419 177.078 344.793 178.2ZM356.076 178.552L354.734 187H352.754L354.096 178.552H353.018L353.304 176.704H354.382L354.998 172.766H356.978L356.362 176.704H358.298L358.012 178.552H356.076ZM364.001 176.396C367.081 176.396 369.127 178.772 368.643 181.874C368.159 184.976 365.343 187.352 362.263 187.352C359.183 187.352 357.159 184.976 357.643 181.874C358.127 178.772 360.921 176.396 364.001 176.396ZM363.715 178.288C361.757 178.288 359.931 179.916 359.623 181.874C359.315 183.81 360.613 185.46 362.571 185.46C364.529 185.46 366.355 183.81 366.663 181.874C366.971 179.916 365.673 178.288 363.715 178.288ZM379.007 167.904H380.987L379.381 178.09H379.425C380.217 176.99 381.537 176.396 382.791 176.396C385.695 176.396 386.135 178.354 385.739 180.862L384.771 187H382.791L383.715 181.104C384.001 179.344 383.957 178.156 381.933 178.156C379.381 178.156 379.029 180.4 378.721 182.27L377.973 187H375.993L379.007 167.904ZM397.321 182.182H389.467C389.203 183.942 390.127 185.592 392.019 185.592C393.537 185.592 394.483 184.822 395.429 183.59L396.947 184.536C395.693 186.318 393.713 187.352 391.711 187.352C388.565 187.352 387.047 184.976 387.509 181.94C388.015 178.772 390.083 176.396 393.405 176.396C396.683 176.396 397.849 178.816 397.365 181.874L397.321 182.182ZM389.797 180.686H395.561C395.583 179.146 394.725 178.112 393.141 178.112C391.601 178.112 390.281 179.212 389.797 180.686ZM403.333 167.904L400.319 187H398.339L401.353 167.904H403.333ZM408.32 185.592C410.476 185.592 411.928 183.876 412.258 181.852C412.566 179.85 411.642 178.156 409.508 178.156C407.462 178.156 405.966 179.938 405.658 181.852C405.35 183.788 406.23 185.592 408.32 185.592ZM406.582 176.704L406.318 178.42H406.362C407.374 177.188 408.716 176.396 410.256 176.396C413.226 176.396 414.7 178.97 414.26 181.786C413.776 184.734 411.598 187.352 408.43 187.352C406.978 187.352 405.856 186.56 405.262 185.394H405.218L404.03 192.896H402.05L404.602 176.704H406.582ZM109.906 202.704L109.708 204.002H109.752C110.456 203.1 111.6 202.396 112.722 202.396C114.064 202.396 114.922 203.078 115.406 204.222C116.22 203.122 117.562 202.396 118.86 202.396C121.566 202.396 121.94 204.508 121.566 206.84L120.598 213H118.618L119.542 207.17C119.74 205.85 119.85 204.156 118.112 204.156C116 204.156 115.494 206.356 115.23 207.94L114.438 213H112.458L113.316 207.544C113.536 206.202 113.8 204.156 111.974 204.156C109.862 204.156 109.334 206.334 109.07 207.94L108.278 213H106.298L107.926 202.704H109.906ZM127.893 211.592C130.049 211.592 131.501 209.876 131.831 207.852C132.139 205.85 131.215 204.156 129.081 204.156C127.035 204.156 125.539 205.938 125.231 207.852C124.923 209.788 125.803 211.592 127.893 211.592ZM134.515 202.704L132.887 213H130.907L131.171 211.394H131.127C130.137 212.56 128.773 213.352 127.299 213.352C124.153 213.352 122.789 210.734 123.273 207.786C123.713 204.97 125.979 202.396 128.971 202.396C130.489 202.396 131.611 203.188 132.227 204.42H132.271L132.535 202.704H134.515ZM139.062 202.704L138.842 204.09H138.886C139.678 202.99 140.998 202.396 142.252 202.396C145.156 202.396 145.596 204.354 145.2 206.862L144.232 213H142.252L143.176 207.104C143.462 205.344 143.418 204.156 141.394 204.156C138.842 204.156 138.49 206.4 138.182 208.27L137.434 213H135.454L137.082 202.704H139.062ZM151.633 211.592C153.789 211.592 155.241 209.876 155.571 207.852C155.879 205.85 154.955 204.156 152.821 204.156C150.775 204.156 149.279 205.938 148.971 207.852C148.663 209.788 149.543 211.592 151.633 211.592ZM158.255 202.704L156.627 213H154.647L154.911 211.394H154.867C153.877 212.56 152.513 213.352 151.039 213.352C147.893 213.352 146.529 210.734 147.013 207.786C147.453 204.97 149.719 202.396 152.711 202.396C154.229 202.396 155.351 203.188 155.967 204.42H156.011L156.275 202.704H158.255ZM163.836 211.592C165.992 211.592 167.444 209.876 167.774 207.852C168.082 205.85 167.158 204.156 165.024 204.156C162.978 204.156 161.482 205.938 161.174 207.852C160.866 209.788 161.746 211.592 163.836 211.592ZM170.458 202.704L168.852 212.802C168.302 216.344 166.894 218.896 162.89 218.896C160.03 218.896 158.226 217.136 158.644 214.232H160.624C160.338 216.08 161.438 217.136 163.242 217.136C165.684 217.136 166.454 215.464 166.784 213.352L167.114 211.394H167.07C166.08 212.56 164.694 213.352 163.242 213.352C160.074 213.352 158.732 210.734 159.216 207.786C159.656 204.97 161.922 202.396 164.892 202.396C166.432 202.396 167.554 203.188 168.148 204.464H168.192L168.478 202.704H170.458ZM181.209 208.182H173.355C173.091 209.942 174.015 211.592 175.907 211.592C177.425 211.592 178.371 210.822 179.317 209.59L180.835 210.536C179.581 212.318 177.601 213.352 175.599 213.352C172.453 213.352 170.935 210.976 171.397 207.94C171.903 204.772 173.971 202.396 177.293 202.396C180.571 202.396 181.737 204.816 181.253 207.874L181.209 208.182ZM173.685 206.686H179.449C179.471 205.146 178.613 204.112 177.029 204.112C175.489 204.112 174.169 205.212 173.685 206.686ZM195.627 204.2L193.889 205.058C193.735 204.552 193.295 204.156 192.723 204.156C192.173 204.156 191.579 204.596 191.469 205.168C191.337 206.07 192.459 206.466 193.581 207.016C194.703 207.566 195.759 208.314 195.495 209.942C195.187 211.9 193.317 213.352 191.403 213.352C189.907 213.352 188.543 212.494 188.213 211.042L190.039 210.272C190.325 211.042 190.743 211.592 191.689 211.592C192.525 211.592 193.339 211.02 193.493 210.14C193.581 209.59 193.339 209.326 192.943 209.018L191.161 207.984C190.127 207.368 189.379 206.796 189.599 205.388C189.863 203.716 191.425 202.396 193.097 202.396C194.351 202.396 195.253 203.078 195.627 204.2ZM200.55 204.552L199.208 213H197.228L198.57 204.552H197.492L197.778 202.704H198.856L199.472 198.766H201.452L200.836 202.704H202.772L202.486 204.552H200.55ZM205.967 202.704L205.703 204.376H205.769C206.451 203.166 207.573 202.396 208.893 202.396C209.465 202.396 210.015 202.594 210.455 202.902L209.267 204.706C208.959 204.398 208.585 204.288 208.123 204.288C205.989 204.288 205.395 206.268 205.131 207.94L204.339 213H202.359L203.987 202.704H205.967ZM219.365 208.182H211.511C211.247 209.942 212.171 211.592 214.063 211.592C215.581 211.592 216.527 210.822 217.473 209.59L218.991 210.536C217.737 212.318 215.757 213.352 213.755 213.352C210.609 213.352 209.091 210.976 209.553 207.94C210.059 204.772 212.127 202.396 215.449 202.396C218.727 202.396 219.893 204.816 219.409 207.874L219.365 208.182ZM211.841 206.686H217.605C217.627 205.146 216.769 204.112 215.185 204.112C213.645 204.112 212.325 205.212 211.841 206.686ZM227.424 204.2L225.686 205.058C225.532 204.552 225.092 204.156 224.52 204.156C223.97 204.156 223.376 204.596 223.266 205.168C223.134 206.07 224.256 206.466 225.378 207.016C226.5 207.566 227.556 208.314 227.292 209.942C226.984 211.9 225.114 213.352 223.2 213.352C221.704 213.352 220.34 212.494 220.01 211.042L221.836 210.272C222.122 211.042 222.54 211.592 223.486 211.592C224.322 211.592 225.136 211.02 225.29 210.14C225.378 209.59 225.136 209.326 224.74 209.018L222.958 207.984C221.924 207.368 221.176 206.796 221.396 205.388C221.66 203.716 223.222 202.396 224.894 202.396C226.148 202.396 227.05 203.078 227.424 204.2ZM235.867 204.2L234.129 205.058C233.975 204.552 233.535 204.156 232.963 204.156C232.413 204.156 231.819 204.596 231.709 205.168C231.577 206.07 232.699 206.466 233.821 207.016C234.943 207.566 235.999 208.314 235.735 209.942C235.427 211.9 233.557 213.352 231.643 213.352C230.147 213.352 228.783 212.494 228.453 211.042L230.279 210.272C230.565 211.042 230.983 211.592 231.929 211.592C232.765 211.592 233.579 211.02 233.733 210.14C233.821 209.59 233.579 209.326 233.183 209.018L231.401 207.984C230.367 207.368 229.619 206.796 229.839 205.388C230.103 203.716 231.665 202.396 233.337 202.396C234.591 202.396 235.493 203.078 235.867 204.2ZM248.206 211.592C250.362 211.592 251.814 209.876 252.144 207.852C252.452 205.85 251.528 204.156 249.394 204.156C247.348 204.156 245.852 205.938 245.544 207.852C245.236 209.788 246.116 211.592 248.206 211.592ZM254.828 202.704L253.2 213H251.22L251.484 211.394H251.44C250.45 212.56 249.086 213.352 247.612 213.352C244.466 213.352 243.102 210.734 243.586 207.786C244.026 204.97 246.292 202.396 249.284 202.396C250.802 202.396 251.924 203.188 252.54 204.42H252.584L252.848 202.704H254.828ZM259.374 202.704L259.154 204.09H259.198C259.99 202.99 261.31 202.396 262.564 202.396C265.468 202.396 265.908 204.354 265.512 206.862L264.544 213H262.564L263.488 207.104C263.774 205.344 263.73 204.156 261.706 204.156C259.154 204.156 258.802 206.4 258.494 208.27L257.746 213H255.766L257.394 202.704H259.374ZM271.946 211.592C274.102 211.592 275.554 209.876 275.884 207.852C276.192 205.85 275.268 204.156 273.134 204.156C271.088 204.156 269.592 205.938 269.284 207.852C268.976 209.788 269.856 211.592 271.946 211.592ZM274.96 213L275.224 211.394H275.18C274.19 212.56 272.804 213.352 271.352 213.352C268.184 213.352 266.842 210.734 267.326 207.786C267.766 204.97 270.032 202.396 273.002 202.396C274.542 202.396 275.664 203.188 276.28 204.42H276.324L277.974 193.904H279.954L276.94 213H274.96ZM290.53 211.592C292.686 211.592 294.138 209.876 294.468 207.852C294.776 205.85 293.852 204.156 291.718 204.156C289.672 204.156 288.176 205.938 287.868 207.852C287.56 209.788 288.44 211.592 290.53 211.592ZM297.152 202.704L295.524 213H293.544L293.808 211.394H293.764C292.774 212.56 291.41 213.352 289.936 213.352C286.79 213.352 285.426 210.734 285.91 207.786C286.35 204.97 288.616 202.396 291.608 202.396C293.126 202.396 294.248 203.188 294.864 204.42H294.908L295.172 202.704H297.152ZM301.699 202.704L301.479 204.09H301.523C302.315 202.99 303.635 202.396 304.889 202.396C307.793 202.396 308.233 204.354 307.837 206.862L306.869 213H304.889L305.813 207.104C306.099 205.344 306.055 204.156 304.031 204.156C301.479 204.156 301.127 206.4 300.819 208.27L300.071 213H298.091L299.719 202.704H301.699ZM313.412 207.412L310.464 202.704H312.796L314.71 206.026L317.9 202.704H320.298L315.766 207.412L319.308 213H316.998L314.27 208.82L310.332 213H307.934L313.412 207.412ZM324.418 202.704L322.79 213H320.81L322.438 202.704H324.418ZM324.396 196.61C325.144 196.61 325.672 197.226 325.54 197.996C325.43 198.744 324.704 199.338 323.956 199.338C323.208 199.338 322.702 198.744 322.812 197.996C322.944 197.226 323.648 196.61 324.396 196.61ZM335.768 208.182H327.914C327.65 209.942 328.574 211.592 330.466 211.592C331.984 211.592 332.93 210.822 333.876 209.59L335.394 210.536C334.14 212.318 332.16 213.352 330.158 213.352C327.012 213.352 325.494 210.976 325.956 207.94C326.462 204.772 328.53 202.396 331.852 202.396C335.13 202.396 336.296 204.816 335.812 207.874L335.768 208.182ZM328.244 206.686H334.008C334.03 205.146 333.172 204.112 331.588 204.112C330.048 204.112 328.728 205.212 328.244 206.686ZM340.306 204.552L338.964 213H336.984L338.326 204.552H337.248L337.534 202.704H338.612L339.228 198.766H341.208L340.592 202.704H342.528L342.242 204.552H340.306ZM345.327 211.24L341.961 202.704H344.271L346.713 209.238L350.981 202.704H353.203L342.313 218.896H340.069L345.327 211.24ZM362.739 202.704L362.475 204.376H362.541C363.223 203.166 364.345 202.396 365.665 202.396C366.237 202.396 366.787 202.594 367.227 202.902L366.039 204.706C365.731 204.398 365.357 204.288 364.895 204.288C362.761 204.288 362.167 206.268 361.903 207.94L361.111 213H359.131L360.759 202.704H362.739ZM376.137 208.182H368.283C368.019 209.942 368.943 211.592 370.835 211.592C372.353 211.592 373.299 210.822 374.245 209.59L375.763 210.536C374.509 212.318 372.529 213.352 370.527 213.352C367.381 213.352 365.863 210.976 366.325 207.94C366.831 204.772 368.899 202.396 372.221 202.396C375.499 202.396 376.665 204.816 376.181 207.874L376.137 208.182ZM368.613 206.686H374.377C374.399 205.146 373.541 204.112 371.957 204.112C370.417 204.112 369.097 205.212 368.613 206.686ZM382.149 193.904L379.135 213H377.155L380.169 193.904H382.149ZM386.608 211.592C388.764 211.592 390.216 209.876 390.546 207.852C390.854 205.85 389.93 204.156 387.796 204.156C385.75 204.156 384.254 205.938 383.946 207.852C383.638 209.788 384.518 211.592 386.608 211.592ZM393.23 202.704L391.602 213H389.622L389.886 211.394H389.842C388.852 212.56 387.488 213.352 386.014 213.352C382.868 213.352 381.504 210.734 381.988 207.786C382.428 204.97 384.694 202.396 387.686 202.396C389.204 202.396 390.326 203.188 390.942 204.42H390.986L391.25 202.704H393.23ZM397.777 204.552L396.435 213H394.455L395.797 204.552H394.719L395.005 202.704H396.083L396.699 198.766H398.679L398.063 202.704H399.999L399.713 204.552H397.777ZM409.266 208.182H401.412C401.148 209.942 402.072 211.592 403.964 211.592C405.482 211.592 406.428 210.822 407.374 209.59L408.892 210.536C407.638 212.318 405.658 213.352 403.656 213.352C400.51 213.352 398.992 210.976 399.454 207.94C399.96 204.772 402.028 202.396 405.35 202.396C408.628 202.396 409.794 204.816 409.31 207.874L409.266 208.182ZM401.742 206.686H407.506C407.528 205.146 406.67 204.112 405.086 204.112C403.546 204.112 402.226 205.212 401.742 206.686ZM414.86 211.592C417.016 211.592 418.468 209.876 418.798 207.852C419.106 205.85 418.182 204.156 416.048 204.156C414.002 204.156 412.506 205.938 412.198 207.852C411.89 209.788 412.77 211.592 414.86 211.592ZM417.874 213L418.138 211.394H418.094C417.104 212.56 415.718 213.352 414.266 213.352C411.098 213.352 409.756 210.734 410.24 207.786C410.68 204.97 412.946 202.396 415.916 202.396C417.456 202.396 418.578 203.188 419.194 204.42H419.238L420.888 193.904H422.868L419.854 213H417.874ZM432.388 204.552L431.046 213H429.066L430.408 204.552H429.33L429.616 202.704H430.694L431.31 198.766H433.29L432.674 202.704H434.61L434.324 204.552H432.388ZM440.313 202.396C443.393 202.396 445.439 204.772 444.955 207.874C444.471 210.976 441.655 213.352 438.575 213.352C435.495 213.352 433.471 210.976 433.955 207.874C434.439 204.772 437.233 202.396 440.313 202.396ZM440.027 204.288C438.069 204.288 436.243 205.916 435.935 207.874C435.627 209.81 436.925 211.46 438.883 211.46C440.841 211.46 442.667 209.81 442.975 207.874C443.283 205.916 441.985 204.288 440.027 204.288ZM456.353 202.704L453.801 218.896H451.821L454.373 202.704H456.353ZM456.331 196.61C457.079 196.61 457.607 197.226 457.475 197.996C457.365 198.744 456.639 199.338 455.891 199.338C455.143 199.338 454.637 198.744 454.747 197.996C454.879 197.226 455.583 196.61 456.331 196.61ZM464.139 202.396C467.219 202.396 469.265 204.772 468.781 207.874C468.297 210.976 465.481 213.352 462.401 213.352C459.321 213.352 457.297 210.976 457.781 207.874C458.265 204.772 461.059 202.396 464.139 202.396ZM463.853 204.288C461.895 204.288 460.069 205.916 459.761 207.874C459.453 209.81 460.751 211.46 462.709 211.46C464.667 211.46 466.493 209.81 466.801 207.874C467.109 205.916 465.811 204.288 463.853 204.288ZM474.964 211.592C477.12 211.592 478.572 209.876 478.902 207.852C479.21 205.85 478.286 204.156 476.152 204.156C474.106 204.156 472.61 205.938 472.302 207.852C471.994 209.788 472.874 211.592 474.964 211.592ZM469.618 213L472.632 193.904H474.612L472.962 204.42H473.006C474.018 203.188 475.36 202.396 476.9 202.396C479.87 202.396 481.344 204.97 480.904 207.786C480.42 210.734 478.242 213.352 475.074 213.352C473.622 213.352 472.5 212.56 471.906 211.394H471.862L471.598 213H469.618ZM113.492 230.2L111.754 231.058C111.6 230.552 111.16 230.156 110.588 230.156C110.038 230.156 109.444 230.596 109.334 231.168C109.202 232.07 110.324 232.466 111.446 233.016C112.568 233.566 113.624 234.314 113.36 235.942C113.052 237.9 111.182 239.352 109.268 239.352C107.772 239.352 106.408 238.494 106.078 237.042L107.904 236.272C108.19 237.042 108.608 237.592 109.554 237.592C110.39 237.592 111.204 237.02 111.358 236.14C111.446 235.59 111.204 235.326 110.808 235.018L109.026 233.984C107.992 233.368 107.244 232.796 107.464 231.388C107.728 229.716 109.29 228.396 110.962 228.396C112.216 228.396 113.118 229.078 113.492 230.2ZM124.619 234.182H116.765C116.501 235.942 117.425 237.592 119.317 237.592C120.835 237.592 121.781 236.822 122.727 235.59L124.245 236.536C122.991 238.318 121.011 239.352 119.009 239.352C115.863 239.352 114.345 236.976 114.807 233.94C115.313 230.772 117.381 228.396 120.703 228.396C123.981 228.396 125.147 230.816 124.663 233.874L124.619 234.182ZM117.095 232.686H122.859C122.881 231.146 122.023 230.112 120.439 230.112C118.899 230.112 117.579 231.212 117.095 232.686ZM130.214 237.592C132.37 237.592 133.822 235.876 134.152 233.852C134.46 231.85 133.536 230.156 131.402 230.156C129.356 230.156 127.86 231.938 127.552 233.852C127.244 235.788 128.124 237.592 130.214 237.592ZM136.836 228.704L135.208 239H133.228L133.492 237.394H133.448C132.458 238.56 131.094 239.352 129.62 239.352C126.474 239.352 125.11 236.734 125.594 233.786C126.034 230.97 128.3 228.396 131.292 228.396C132.81 228.396 133.932 229.188 134.548 230.42H134.592L134.856 228.704H136.836ZM141.514 228.704L141.25 230.376H141.316C141.998 229.166 143.12 228.396 144.44 228.396C145.012 228.396 145.562 228.594 146.002 228.902L144.814 230.706C144.506 230.398 144.132 230.288 143.67 230.288C141.536 230.288 140.942 232.268 140.678 233.94L139.886 239H137.906L139.534 228.704H141.514ZM154.23 229.078L153.834 231.63C153.196 230.728 152.294 230.244 151.106 230.244C149.17 230.244 147.41 231.96 147.102 233.852C146.772 235.964 148.004 237.504 150.094 237.504C151.238 237.504 152.25 236.976 153.13 236.14L152.712 238.67C151.744 239.154 150.798 239.352 149.764 239.352C146.728 239.352 144.616 237.02 145.1 233.94C145.606 230.75 148.444 228.396 151.612 228.396C152.536 228.396 153.526 228.616 154.23 229.078ZM157.825 219.904H159.805L158.199 230.09H158.243C159.035 228.99 160.355 228.396 161.609 228.396C164.513 228.396 164.953 230.354 164.557 232.862L163.589 239H161.609L162.533 233.104C162.819 231.344 162.775 230.156 160.751 230.156C158.199 230.156 157.847 232.4 157.539 234.27L156.791 239H154.811L157.825 219.904ZM177.35 237.592C179.506 237.592 180.958 235.876 181.288 233.852C181.596 231.85 180.672 230.156 178.538 230.156C176.492 230.156 174.996 231.938 174.688 233.852C174.38 235.788 175.26 237.592 177.35 237.592ZM183.972 228.704L182.344 239H180.364L180.628 237.394H180.584C179.594 238.56 178.23 239.352 176.756 239.352C173.61 239.352 172.246 236.734 172.73 233.786C173.17 230.97 175.436 228.396 178.428 228.396C179.946 228.396 181.068 229.188 181.684 230.42H181.728L181.992 228.704H183.972ZM188.519 228.704L188.299 230.09H188.343C189.135 228.99 190.455 228.396 191.709 228.396C194.613 228.396 195.053 230.354 194.657 232.862L193.689 239H191.709L192.633 233.104C192.919 231.344 192.875 230.156 190.851 230.156C188.299 230.156 187.947 232.4 187.639 234.27L186.891 239H184.911L186.539 228.704H188.519ZM201.091 237.592C203.247 237.592 204.699 235.876 205.029 233.852C205.337 231.85 204.413 230.156 202.279 230.156C200.233 230.156 198.737 231.938 198.429 233.852C198.121 235.788 199.001 237.592 201.091 237.592ZM204.105 239L204.369 237.394H204.325C203.335 238.56 201.949 239.352 200.497 239.352C197.329 239.352 195.987 236.734 196.471 233.786C196.911 230.97 199.177 228.396 202.147 228.396C203.687 228.396 204.809 229.188 205.425 230.42H205.469L207.119 219.904H209.099L206.085 239H204.105ZM220.202 237.592C222.358 237.592 223.81 235.876 224.14 233.852C224.448 231.85 223.524 230.156 221.39 230.156C219.344 230.156 217.848 231.938 217.54 233.852C217.232 235.788 218.112 237.592 220.202 237.592ZM218.464 228.704L218.2 230.42H218.244C219.256 229.188 220.598 228.396 222.138 228.396C225.108 228.396 226.582 230.97 226.142 233.786C225.658 236.734 223.48 239.352 220.312 239.352C218.86 239.352 217.738 238.56 217.144 237.394H217.1L215.912 244.896H213.932L216.484 228.704H218.464ZM232.317 219.904L229.303 239H227.323L230.337 219.904H232.317ZM236.776 237.592C238.932 237.592 240.384 235.876 240.714 233.852C241.022 231.85 240.098 230.156 237.964 230.156C235.918 230.156 234.422 231.938 234.114 233.852C233.806 235.788 234.686 237.592 236.776 237.592ZM243.398 228.704L241.77 239H239.79L240.054 237.394H240.01C239.02 238.56 237.656 239.352 236.182 239.352C233.036 239.352 231.672 236.734 232.156 233.786C232.596 230.97 234.862 228.396 237.854 228.396C239.372 228.396 240.494 229.188 241.11 230.42H241.154L241.418 228.704H243.398ZM253.467 229.078L253.071 231.63C252.433 230.728 251.531 230.244 250.343 230.244C248.407 230.244 246.647 231.96 246.339 233.852C246.009 235.964 247.241 237.504 249.331 237.504C250.475 237.504 251.487 236.976 252.367 236.14L251.949 238.67C250.981 239.154 250.035 239.352 249.001 239.352C245.965 239.352 243.853 237.02 244.337 233.94C244.843 230.75 247.681 228.396 250.849 228.396C251.773 228.396 252.763 228.616 253.467 229.078ZM263.602 234.182H255.748C255.484 235.942 256.408 237.592 258.3 237.592C259.818 237.592 260.764 236.822 261.71 235.59L263.228 236.536C261.974 238.318 259.994 239.352 257.992 239.352C254.846 239.352 253.328 236.976 253.79 233.94C254.296 230.772 256.364 228.396 259.686 228.396C262.964 228.396 264.13 230.816 263.646 233.874L263.602 234.182ZM256.078 232.686H261.842C261.864 231.146 261.006 230.112 259.422 230.112C257.882 230.112 256.562 231.212 256.078 232.686ZM268.074 228.704L267.876 230.002H267.92C268.624 229.1 269.768 228.396 270.89 228.396C272.232 228.396 273.09 229.078 273.574 230.222C274.388 229.122 275.73 228.396 277.028 228.396C279.734 228.396 280.108 230.508 279.734 232.84L278.766 239H276.786L277.71 233.17C277.908 231.85 278.018 230.156 276.28 230.156C274.168 230.156 273.662 232.356 273.398 233.94L272.606 239H270.626L271.484 233.544C271.704 232.202 271.968 230.156 270.142 230.156C268.03 230.156 267.502 232.334 267.238 233.94L266.446 239H264.466L266.094 228.704H268.074ZM291.209 234.182H283.355C283.091 235.942 284.015 237.592 285.907 237.592C287.425 237.592 288.371 236.822 289.317 235.59L290.835 236.536C289.581 238.318 287.601 239.352 285.599 239.352C282.453 239.352 280.935 236.976 281.397 233.94C281.903 230.772 283.971 228.396 287.293 228.396C290.571 228.396 291.737 230.816 291.253 233.874L291.209 234.182ZM283.685 232.686H289.449C289.471 231.146 288.613 230.112 287.029 230.112C285.489 230.112 284.169 231.212 283.685 232.686ZM295.747 228.704L295.527 230.09H295.571C296.363 228.99 297.683 228.396 298.937 228.396C301.841 228.396 302.281 230.354 301.885 232.862L300.917 239H298.937L299.861 233.104C300.147 231.344 300.103 230.156 298.079 230.156C295.527 230.156 295.175 232.4 294.867 234.27L294.119 239H292.139L293.767 228.704H295.747ZM307.263 230.552L305.921 239H303.941L305.283 230.552H304.205L304.491 228.704H305.569L306.185 224.766H308.165L307.549 228.704H309.485L309.199 230.552H307.263ZM311.118 236.8C311.822 236.8 312.306 237.394 312.196 238.076C312.086 238.78 311.404 239.352 310.7 239.352C309.996 239.352 309.534 238.78 309.644 238.076C309.754 237.394 310.414 236.8 311.118 236.8Z" fill="#093761"/>
<defs>
<clipPath id="clip0_407_2477">
<rect width="40" height="43" fill="white" transform="translate(85 84) rotate(90)"/>
</clipPath>
<clipPath id="clip1_407_2477">
<rect width="40" height="43" fill="white" transform="translate(85 171) rotate(90)"/>
</clipPath>
</defs>
</svg>
