<svg width="546" height="327" viewBox="0 0 546 327" fill="none" xmlns="http://www.w3.org/2000/svg">
<rect width="546" height="327" rx="50" fill="#6CBF2A"/>
<g clip-path="url(#clip0_407_2502)">
<path d="M99.4165 99L66.6469 86.5L65.3748 87.6833L70.7498 99L65.3748 110.317L66.6469 111.5L99.4165 99Z" fill="#0E3D68"/>
</g>
<path d="M135.21 94.842H127.598L125.046 99H122.824L133.472 81.708L138.664 99H136.442L135.21 94.842ZM134.66 92.95L132.768 86.24L128.764 92.95H134.66ZM143.441 90.552L142.099 99H140.119L141.461 90.552H140.383L140.669 88.704H141.747L142.363 84.766H144.343L143.727 88.704H145.663L145.377 90.552H143.441ZM148.747 90.552L147.405 99H145.425L146.767 90.552H145.689L145.975 88.704H147.053L147.669 84.766H149.649L149.033 88.704H150.969L150.683 90.552H148.747ZM160.237 94.182H152.383C152.119 95.942 153.043 97.592 154.935 97.592C156.453 97.592 157.399 96.822 158.345 95.59L159.863 96.536C158.609 98.318 156.629 99.352 154.627 99.352C151.481 99.352 149.963 96.976 150.425 93.94C150.931 90.772 152.999 88.396 156.321 88.396C159.599 88.396 160.765 90.816 160.281 93.874L160.237 94.182ZM152.713 92.686H158.477C158.499 91.146 157.641 90.112 156.057 90.112C154.517 90.112 153.197 91.212 152.713 92.686ZM164.775 88.704L164.555 90.09H164.599C165.391 88.99 166.711 88.396 167.965 88.396C170.869 88.396 171.309 90.354 170.913 92.862L169.945 99H167.965L168.889 93.104C169.175 91.344 169.131 90.156 167.107 90.156C164.555 90.156 164.203 92.4 163.895 94.27L163.147 99H161.167L162.795 88.704H164.775ZM177.346 97.592C179.502 97.592 180.954 95.876 181.284 93.852C181.592 91.85 180.668 90.156 178.534 90.156C176.488 90.156 174.992 91.938 174.684 93.852C174.376 95.788 175.256 97.592 177.346 97.592ZM180.36 99L180.624 97.394H180.58C179.59 98.56 178.204 99.352 176.752 99.352C173.584 99.352 172.242 96.734 172.726 93.786C173.166 90.97 175.432 88.396 178.402 88.396C179.942 88.396 181.064 89.188 181.68 90.42H181.724L183.374 79.904H185.354L182.34 99H180.36ZM193.422 88.704L195.38 95.26L199.538 88.132L201.43 95.26L205.456 88.704H207.7L200.77 99.352L198.856 92.466L194.72 99.352L191.178 88.704H193.422ZM213.305 88.396C216.385 88.396 218.431 90.772 217.947 93.874C217.463 96.976 214.647 99.352 211.567 99.352C208.487 99.352 206.463 96.976 206.947 93.874C207.431 90.772 210.225 88.396 213.305 88.396ZM213.019 90.288C211.061 90.288 209.235 91.916 208.927 93.874C208.619 95.81 209.917 97.46 211.875 97.46C213.833 97.46 215.659 95.81 215.967 93.874C216.275 91.916 214.977 90.288 213.019 90.288ZM222.678 88.704L222.414 90.376H222.48C223.162 89.166 224.284 88.396 225.604 88.396C226.176 88.396 226.726 88.594 227.166 88.902L225.978 90.706C225.67 90.398 225.296 90.288 224.834 90.288C222.7 90.288 222.106 92.268 221.842 93.94L221.05 99H219.07L220.698 88.704H222.678ZM231.777 79.904L229.775 92.576L234.263 88.704H236.881L231.799 92.972L235.693 99H233.119L230.193 94.314L229.401 94.996L228.763 99H226.783L229.797 79.904H231.777ZM243.812 90.2L242.074 91.058C241.92 90.552 241.48 90.156 240.908 90.156C240.358 90.156 239.764 90.596 239.654 91.168C239.522 92.07 240.644 92.466 241.766 93.016C242.888 93.566 243.944 94.314 243.68 95.942C243.372 97.9 241.502 99.352 239.588 99.352C238.092 99.352 236.728 98.494 236.398 97.042L238.224 96.272C238.51 97.042 238.928 97.592 239.874 97.592C240.71 97.592 241.524 97.02 241.678 96.14C241.766 95.59 241.524 95.326 241.128 95.018L239.346 93.984C238.312 93.368 237.564 92.796 237.784 91.388C238.048 89.716 239.61 88.396 241.282 88.396C242.536 88.396 243.438 89.078 243.812 90.2ZM248.142 79.904H250.122L248.516 90.09H248.56C249.352 88.99 250.672 88.396 251.926 88.396C254.83 88.396 255.27 90.354 254.874 92.862L253.906 99H251.926L252.85 93.104C253.136 91.344 253.092 90.156 251.068 90.156C248.516 90.156 248.164 92.4 247.856 94.27L247.108 99H245.128L248.142 79.904ZM262.891 88.396C265.971 88.396 268.017 90.772 267.533 93.874C267.049 96.976 264.233 99.352 261.153 99.352C258.073 99.352 256.049 96.976 256.533 93.874C257.017 90.772 259.811 88.396 262.891 88.396ZM262.605 90.288C260.647 90.288 258.821 91.916 258.513 93.874C258.205 95.81 259.503 97.46 261.461 97.46C263.419 97.46 265.245 95.81 265.553 93.874C265.861 91.916 264.563 90.288 262.605 90.288ZM273.716 97.592C275.872 97.592 277.324 95.876 277.654 93.852C277.962 91.85 277.038 90.156 274.904 90.156C272.858 90.156 271.362 91.938 271.054 93.852C270.746 95.788 271.626 97.592 273.716 97.592ZM271.978 88.704L271.714 90.42H271.758C272.77 89.188 274.112 88.396 275.652 88.396C278.622 88.396 280.096 90.97 279.656 93.786C279.172 96.734 276.994 99.352 273.826 99.352C272.374 99.352 271.252 98.56 270.658 97.394H270.614L269.426 104.896H267.446L269.998 88.704H271.978ZM287.877 90.2L286.139 91.058C285.985 90.552 285.545 90.156 284.973 90.156C284.423 90.156 283.829 90.596 283.719 91.168C283.587 92.07 284.709 92.466 285.831 93.016C286.953 93.566 288.009 94.314 287.745 95.942C287.437 97.9 285.567 99.352 283.653 99.352C282.157 99.352 280.793 98.494 280.463 97.042L282.289 96.272C282.575 97.042 282.993 97.592 283.939 97.592C284.775 97.592 285.589 97.02 285.743 96.14C285.831 95.59 285.589 95.326 285.193 95.018L283.411 93.984C282.377 93.368 281.629 92.796 281.849 91.388C282.113 89.716 283.675 88.396 285.347 88.396C286.601 88.396 287.503 89.078 287.877 90.2ZM300.216 97.592C302.372 97.592 303.824 95.876 304.154 93.852C304.462 91.85 303.538 90.156 301.404 90.156C299.358 90.156 297.862 91.938 297.554 93.852C297.246 95.788 298.126 97.592 300.216 97.592ZM306.838 88.704L305.21 99H303.23L303.494 97.394H303.45C302.46 98.56 301.096 99.352 299.622 99.352C296.476 99.352 295.112 96.734 295.596 93.786C296.036 90.97 298.302 88.396 301.294 88.396C302.812 88.396 303.934 89.188 304.55 90.42H304.594L304.858 88.704H306.838ZM311.384 88.704L311.164 90.09H311.208C312 88.99 313.32 88.396 314.574 88.396C317.478 88.396 317.918 90.354 317.522 92.862L316.554 99H314.574L315.498 93.104C315.784 91.344 315.74 90.156 313.716 90.156C311.164 90.156 310.812 92.4 310.504 94.27L309.756 99H307.776L309.404 88.704H311.384ZM323.956 97.592C326.112 97.592 327.564 95.876 327.894 93.852C328.202 91.85 327.278 90.156 325.144 90.156C323.098 90.156 321.602 91.938 321.294 93.852C320.986 95.788 321.866 97.592 323.956 97.592ZM326.97 99L327.234 97.394H327.19C326.2 98.56 324.814 99.352 323.362 99.352C320.194 99.352 318.852 96.734 319.336 93.786C319.776 90.97 322.042 88.396 325.012 88.396C326.552 88.396 327.674 89.188 328.29 90.42H328.334L329.984 79.904H331.964L328.95 99H326.97ZM345.004 90.2L343.266 91.058C343.112 90.552 342.672 90.156 342.1 90.156C341.55 90.156 340.956 90.596 340.846 91.168C340.714 92.07 341.836 92.466 342.958 93.016C344.08 93.566 345.136 94.314 344.872 95.942C344.564 97.9 342.694 99.352 340.78 99.352C339.284 99.352 337.92 98.494 337.59 97.042L339.416 96.272C339.702 97.042 340.12 97.592 341.066 97.592C341.902 97.592 342.716 97.02 342.87 96.14C342.958 95.59 342.716 95.326 342.32 95.018L340.538 93.984C339.504 93.368 338.756 92.796 338.976 91.388C339.24 89.716 340.802 88.396 342.474 88.396C343.728 88.396 344.63 89.078 345.004 90.2ZM356.131 94.182H348.277C348.013 95.942 348.937 97.592 350.829 97.592C352.347 97.592 353.293 96.822 354.239 95.59L355.757 96.536C354.503 98.318 352.523 99.352 350.521 99.352C347.375 99.352 345.857 96.976 346.319 93.94C346.825 90.772 348.893 88.396 352.215 88.396C355.493 88.396 356.659 90.816 356.175 93.874L356.131 94.182ZM348.607 92.686H354.371C354.393 91.146 353.535 90.112 351.951 90.112C350.411 90.112 349.091 91.212 348.607 92.686ZM360.603 88.704L360.405 90.002H360.449C361.153 89.1 362.297 88.396 363.419 88.396C364.761 88.396 365.619 89.078 366.103 90.222C366.917 89.122 368.259 88.396 369.557 88.396C372.263 88.396 372.637 90.508 372.263 92.84L371.295 99H369.315L370.239 93.17C370.437 91.85 370.547 90.156 368.809 90.156C366.697 90.156 366.191 92.356 365.927 93.94L365.135 99H363.155L364.013 93.544C364.233 92.202 364.497 90.156 362.671 90.156C360.559 90.156 360.031 92.334 359.767 93.94L358.975 99H356.995L358.623 88.704H360.603ZM377.975 88.704L376.347 99H374.367L375.995 88.704H377.975ZM377.953 82.61C378.701 82.61 379.229 83.226 379.097 83.996C378.987 84.744 378.261 85.338 377.513 85.338C376.765 85.338 376.259 84.744 376.369 83.996C376.501 83.226 377.205 82.61 377.953 82.61ZM383.12 88.704L382.9 90.09H382.944C383.736 88.99 385.056 88.396 386.31 88.396C389.214 88.396 389.654 90.354 389.258 92.862L388.29 99H386.31L387.234 93.104C387.52 91.344 387.476 90.156 385.452 90.156C382.9 90.156 382.548 92.4 382.24 94.27L381.492 99H379.512L381.14 88.704H383.12ZM395.692 97.592C397.848 97.592 399.3 95.876 399.63 93.852C399.938 91.85 399.014 90.156 396.88 90.156C394.834 90.156 393.338 91.938 393.03 93.852C392.722 95.788 393.602 97.592 395.692 97.592ZM402.314 88.704L400.686 99H398.706L398.97 97.394H398.926C397.936 98.56 396.572 99.352 395.098 99.352C391.952 99.352 390.588 96.734 391.072 93.786C391.512 90.97 393.778 88.396 396.77 88.396C398.288 88.396 399.41 89.188 400.026 90.42H400.07L400.334 88.704H402.314ZM406.993 88.704L406.729 90.376H406.795C407.477 89.166 408.599 88.396 409.919 88.396C410.491 88.396 411.041 88.594 411.481 88.902L410.293 90.706C409.985 90.398 409.611 90.288 409.149 90.288C407.015 90.288 406.421 92.268 406.157 93.94L405.365 99H403.385L405.013 88.704H406.993ZM418.094 90.2L416.356 91.058C416.202 90.552 415.762 90.156 415.19 90.156C414.64 90.156 414.046 90.596 413.936 91.168C413.804 92.07 414.926 92.466 416.048 93.016C417.17 93.566 418.226 94.314 417.962 95.942C417.654 97.9 415.784 99.352 413.87 99.352C412.374 99.352 411.01 98.494 410.68 97.042L412.506 96.272C412.792 97.042 413.21 97.592 414.156 97.592C414.992 97.592 415.806 97.02 415.96 96.14C416.048 95.59 415.806 95.326 415.41 95.018L413.628 93.984C412.594 93.368 411.846 92.796 412.066 91.388C412.33 89.716 413.892 88.396 415.564 88.396C416.818 88.396 417.72 89.078 418.094 90.2ZM429.376 90.552L428.034 99H426.054L427.396 90.552H426.318L426.604 88.704H427.682L428.298 84.766H430.278L429.662 88.704H431.598L431.312 90.552H429.376ZM437.301 88.396C440.381 88.396 442.427 90.772 441.943 93.874C441.459 96.976 438.643 99.352 435.563 99.352C432.483 99.352 430.459 96.976 430.943 93.874C431.427 90.772 434.221 88.396 437.301 88.396ZM437.015 90.288C435.057 90.288 433.231 91.916 432.923 93.874C432.615 95.81 433.913 97.46 435.871 97.46C437.829 97.46 439.655 95.81 439.963 93.874C440.271 91.916 438.973 90.288 437.015 90.288ZM134.176 120.182H126.322C126.058 121.942 126.982 123.592 128.874 123.592C130.392 123.592 131.338 122.822 132.284 121.59L133.802 122.536C132.548 124.318 130.568 125.352 128.566 125.352C125.42 125.352 123.902 122.976 124.364 119.94C124.87 116.772 126.938 114.396 130.26 114.396C133.538 114.396 134.704 116.816 134.22 119.874L134.176 120.182ZM126.652 118.686H132.416C132.438 117.146 131.58 116.112 129.996 116.112C128.456 116.112 127.136 117.212 126.652 118.686ZM138.714 114.704L138.494 116.09H138.538C139.33 114.99 140.65 114.396 141.904 114.396C144.808 114.396 145.248 116.354 144.852 118.862L143.884 125H141.904L142.828 119.104C143.114 117.344 143.07 116.156 141.046 116.156C138.494 116.156 138.142 118.4 137.834 120.27L137.086 125H135.106L136.734 114.704H138.714ZM149.636 105.904H151.616L150.01 116.09H150.054C150.846 114.99 152.166 114.396 153.42 114.396C156.324 114.396 156.764 116.354 156.368 118.862L155.4 125H153.42L154.344 119.104C154.63 117.344 154.586 116.156 152.562 116.156C150.01 116.156 149.658 118.4 149.35 120.27L148.602 125H146.622L149.636 105.904ZM162.801 123.592C164.957 123.592 166.409 121.876 166.739 119.852C167.047 117.85 166.123 116.156 163.989 116.156C161.943 116.156 160.447 117.938 160.139 119.852C159.831 121.788 160.711 123.592 162.801 123.592ZM169.423 114.704L167.795 125H165.815L166.079 123.394H166.035C165.045 124.56 163.681 125.352 162.207 125.352C159.061 125.352 157.697 122.734 158.181 119.786C158.621 116.97 160.887 114.396 163.879 114.396C165.397 114.396 166.519 115.188 167.135 116.42H167.179L167.443 114.704H169.423ZM173.97 114.704L173.75 116.09H173.794C174.586 114.99 175.906 114.396 177.16 114.396C180.064 114.396 180.504 116.354 180.108 118.862L179.14 125H177.16L178.084 119.104C178.37 117.344 178.326 116.156 176.302 116.156C173.75 116.156 173.398 118.4 173.09 120.27L172.342 125H170.362L171.99 114.704H173.97ZM191.008 115.078L190.612 117.63C189.974 116.728 189.072 116.244 187.884 116.244C185.948 116.244 184.188 117.96 183.88 119.852C183.55 121.964 184.782 123.504 186.872 123.504C188.016 123.504 189.028 122.976 189.908 122.14L189.49 124.67C188.522 125.154 187.576 125.352 186.542 125.352C183.506 125.352 181.394 123.02 181.878 119.94C182.384 116.75 185.222 114.396 188.39 114.396C189.314 114.396 190.304 114.616 191.008 115.078ZM201.143 120.182H193.289C193.025 121.942 193.949 123.592 195.841 123.592C197.359 123.592 198.305 122.822 199.251 121.59L200.769 122.536C199.515 124.318 197.535 125.352 195.533 125.352C192.387 125.352 190.869 122.976 191.331 119.94C191.837 116.772 193.905 114.396 197.227 114.396C200.505 114.396 201.671 116.816 201.187 119.874L201.143 120.182ZM193.619 118.686H199.383C199.405 117.146 198.547 116.112 196.963 116.112C195.423 116.112 194.103 117.212 193.619 118.686ZM211.347 123.24L207.981 114.704H210.291L212.733 121.238L217.001 114.704H219.223L208.333 130.896H206.089L211.347 123.24ZM224.907 114.396C227.987 114.396 230.033 116.772 229.549 119.874C229.065 122.976 226.249 125.352 223.169 125.352C220.089 125.352 218.065 122.976 218.549 119.874C219.033 116.772 221.827 114.396 224.907 114.396ZM224.621 116.288C222.663 116.288 220.837 117.916 220.529 119.874C220.221 121.81 221.519 123.46 223.477 123.46C225.435 123.46 227.261 121.81 227.569 119.874C227.877 117.916 226.579 116.288 224.621 116.288ZM232.08 114.704H234.06L233.158 120.402C232.894 122.052 233.092 123.504 235.05 123.504C237.008 123.504 237.646 122.052 237.91 120.402L238.812 114.704H240.792L239.868 120.622C239.406 123.438 237.778 125.352 234.742 125.352C231.706 125.352 230.694 123.438 231.156 120.622L232.08 114.704ZM245.538 114.704L245.274 116.376H245.34C246.022 115.166 247.144 114.396 248.464 114.396C249.036 114.396 249.586 114.594 250.026 114.902L248.838 116.706C248.53 116.398 248.156 116.288 247.694 116.288C245.56 116.288 244.966 118.268 244.702 119.94L243.91 125H241.93L243.558 114.704H245.538ZM262.998 116.2L261.26 117.058C261.106 116.552 260.666 116.156 260.094 116.156C259.544 116.156 258.95 116.596 258.84 117.168C258.708 118.07 259.83 118.466 260.952 119.016C262.074 119.566 263.13 120.314 262.866 121.942C262.558 123.9 260.688 125.352 258.774 125.352C257.278 125.352 255.914 124.494 255.584 123.042L257.41 122.272C257.696 123.042 258.114 123.592 259.06 123.592C259.896 123.592 260.71 123.02 260.864 122.14C260.952 121.59 260.71 121.326 260.314 121.018L258.532 119.984C257.498 119.368 256.75 118.796 256.97 117.388C257.234 115.716 258.796 114.396 260.468 114.396C261.722 114.396 262.624 115.078 262.998 116.2ZM269.439 105.904L267.437 118.576L271.925 114.704H274.543L269.461 118.972L273.355 125H270.781L267.855 120.314L267.063 120.996L266.425 125H264.445L267.459 105.904H269.439ZM278.523 114.704L276.895 125H274.915L276.543 114.704H278.523ZM278.501 108.61C279.249 108.61 279.777 109.226 279.645 109.996C279.535 110.744 278.809 111.338 278.061 111.338C277.313 111.338 276.807 110.744 276.917 109.996C277.049 109.226 277.753 108.61 278.501 108.61ZM285.143 105.904L282.129 125H280.149L283.163 105.904H285.143ZM290.042 105.904L287.028 125H285.048L288.062 105.904H290.042ZM296.965 116.2L295.227 117.058C295.073 116.552 294.633 116.156 294.061 116.156C293.511 116.156 292.917 116.596 292.807 117.168C292.675 118.07 293.797 118.466 294.919 119.016C296.041 119.566 297.097 120.314 296.833 121.942C296.525 123.9 294.655 125.352 292.741 125.352C291.245 125.352 289.881 124.494 289.551 123.042L291.377 122.272C291.663 123.042 292.081 123.592 293.027 123.592C293.863 123.592 294.677 123.02 294.831 122.14C294.919 121.59 294.677 121.326 294.281 121.018L292.499 119.984C291.465 119.368 290.717 118.796 290.937 117.388C291.201 115.716 292.763 114.396 294.435 114.396C295.689 114.396 296.591 115.078 296.965 116.2ZM309.303 123.592C311.459 123.592 312.911 121.876 313.241 119.852C313.549 117.85 312.625 116.156 310.491 116.156C308.445 116.156 306.949 117.938 306.641 119.852C306.333 121.788 307.213 123.592 309.303 123.592ZM315.925 114.704L314.297 125H312.317L312.581 123.394H312.537C311.547 124.56 310.183 125.352 308.709 125.352C305.563 125.352 304.199 122.734 304.683 119.786C305.123 116.97 307.389 114.396 310.381 114.396C311.899 114.396 313.021 115.188 313.637 116.42H313.681L313.945 114.704H315.925ZM320.472 114.704L320.252 116.09H320.296C321.088 114.99 322.408 114.396 323.662 114.396C326.566 114.396 327.006 116.354 326.61 118.862L325.642 125H323.662L324.586 119.104C324.872 117.344 324.828 116.156 322.804 116.156C320.252 116.156 319.9 118.4 319.592 120.27L318.844 125H316.864L318.492 114.704H320.472ZM333.044 123.592C335.2 123.592 336.652 121.876 336.982 119.852C337.29 117.85 336.366 116.156 334.232 116.156C332.186 116.156 330.69 117.938 330.382 119.852C330.074 121.788 330.954 123.592 333.044 123.592ZM336.058 125L336.322 123.394H336.278C335.288 124.56 333.902 125.352 332.45 125.352C329.282 125.352 327.94 122.734 328.424 119.786C328.864 116.97 331.13 114.396 334.1 114.396C335.64 114.396 336.762 115.188 337.378 116.42H337.422L339.072 105.904H341.052L338.038 125H336.058ZM352.09 105.904L350.088 118.576L354.576 114.704H357.194L352.112 118.972L356.006 125H353.432L350.506 120.314L349.714 120.996L349.076 125H347.096L350.11 105.904H352.09ZM360.734 114.704L360.514 116.09H360.558C361.35 114.99 362.67 114.396 363.924 114.396C366.828 114.396 367.268 116.354 366.872 118.862L365.904 125H363.924L364.848 119.104C365.134 117.344 365.09 116.156 363.066 116.156C360.514 116.156 360.162 118.4 359.854 120.27L359.106 125H357.126L358.754 114.704H360.734ZM374.889 114.396C377.969 114.396 380.015 116.772 379.531 119.874C379.047 122.976 376.231 125.352 373.151 125.352C370.071 125.352 368.047 122.976 368.531 119.874C369.015 116.772 371.809 114.396 374.889 114.396ZM374.603 116.288C372.645 116.288 370.819 117.916 370.511 119.874C370.203 121.81 371.501 123.46 373.459 123.46C375.417 123.46 377.243 121.81 377.551 119.874C377.859 117.916 376.561 116.288 374.603 116.288ZM382.678 114.704L384.636 121.26L388.794 114.132L390.686 121.26L394.712 114.704H396.956L390.026 125.352L388.112 118.466L383.976 125.352L380.434 114.704H382.678ZM401.395 105.904L398.381 125H396.401L399.415 105.904H401.395ZM411.002 120.182H403.148C402.884 121.942 403.808 123.592 405.7 123.592C407.218 123.592 408.164 122.822 409.11 121.59L410.628 122.536C409.374 124.318 407.394 125.352 405.392 125.352C402.246 125.352 400.728 122.976 401.19 119.94C401.696 116.772 403.764 114.396 407.086 114.396C410.364 114.396 411.53 116.816 411.046 119.874L411.002 120.182ZM403.478 118.686H409.242C409.264 117.146 408.406 116.112 406.822 116.112C405.282 116.112 403.962 117.212 403.478 118.686ZM416.596 123.592C418.752 123.592 420.204 121.876 420.534 119.852C420.842 117.85 419.918 116.156 417.784 116.156C415.738 116.156 414.242 117.938 413.934 119.852C413.626 121.788 414.506 123.592 416.596 123.592ZM419.61 125L419.874 123.394H419.83C418.84 124.56 417.454 125.352 416.002 125.352C412.834 125.352 411.492 122.734 411.976 119.786C412.416 116.97 414.682 114.396 417.652 114.396C419.192 114.396 420.314 115.188 420.93 116.42H420.974L422.624 105.904H424.604L421.59 125H419.61ZM428.799 123.592C430.955 123.592 432.407 121.876 432.737 119.852C433.045 117.85 432.121 116.156 429.987 116.156C427.941 116.156 426.445 117.938 426.137 119.852C425.829 121.788 426.709 123.592 428.799 123.592ZM435.421 114.704L433.815 124.802C433.265 128.344 431.857 130.896 427.853 130.896C424.993 130.896 423.189 129.136 423.607 126.232H425.587C425.301 128.08 426.401 129.136 428.205 129.136C430.647 129.136 431.417 127.464 431.747 125.352L432.077 123.394H432.033C431.043 124.56 429.657 125.352 428.205 125.352C425.037 125.352 423.695 122.734 424.179 119.786C424.619 116.97 426.885 114.396 429.855 114.396C431.395 114.396 432.517 115.188 433.111 116.464H433.155L433.441 114.704H435.421ZM446.172 120.182H438.318C438.054 121.942 438.978 123.592 440.87 123.592C442.388 123.592 443.334 122.822 444.28 121.59L445.798 122.536C444.544 124.318 442.564 125.352 440.562 125.352C437.416 125.352 435.898 122.976 436.36 119.94C436.866 116.772 438.934 114.396 442.256 114.396C445.534 114.396 446.7 116.816 446.216 119.874L446.172 120.182ZM438.648 118.686H444.412C444.434 117.146 443.576 116.112 441.992 116.112C440.452 116.112 439.132 117.212 438.648 118.686ZM128.104 140.704L127.84 142.376H127.906C128.588 141.166 129.71 140.396 131.03 140.396C131.602 140.396 132.152 140.594 132.592 140.902L131.404 142.706C131.096 142.398 130.722 142.288 130.26 142.288C128.126 142.288 127.532 144.268 127.268 145.94L126.476 151H124.496L126.124 140.704H128.104ZM141.502 146.182H133.648C133.384 147.942 134.308 149.592 136.2 149.592C137.718 149.592 138.664 148.822 139.61 147.59L141.128 148.536C139.874 150.318 137.894 151.352 135.892 151.352C132.746 151.352 131.228 148.976 131.69 145.94C132.196 142.772 134.264 140.396 137.586 140.396C140.864 140.396 142.03 142.816 141.546 145.874L141.502 146.182ZM133.978 144.686H139.742C139.764 143.146 138.906 142.112 137.322 142.112C135.782 142.112 134.462 143.212 133.978 144.686ZM147.514 131.904L144.5 151H142.52L145.534 131.904H147.514ZM157.121 146.182H149.267C149.003 147.942 149.927 149.592 151.819 149.592C153.337 149.592 154.283 148.822 155.229 147.59L156.747 148.536C155.493 150.318 153.513 151.352 151.511 151.352C148.365 151.352 146.847 148.976 147.309 145.94C147.815 142.772 149.883 140.396 153.205 140.396C156.483 140.396 157.649 142.816 157.165 145.874L157.121 146.182ZM149.597 144.686H155.361C155.383 143.146 154.525 142.112 152.941 142.112C151.401 142.112 150.081 143.212 149.597 144.686ZM160.252 140.704L162.188 147.128L166.17 140.704H168.392L161.506 151.352L158.03 140.704H160.252ZM172.512 149.592C174.668 149.592 176.12 147.876 176.45 145.852C176.758 143.85 175.834 142.156 173.7 142.156C171.654 142.156 170.158 143.938 169.85 145.852C169.542 147.788 170.422 149.592 172.512 149.592ZM179.134 140.704L177.506 151H175.526L175.79 149.394H175.746C174.756 150.56 173.392 151.352 171.918 151.352C168.772 151.352 167.408 148.734 167.892 145.786C168.332 142.97 170.598 140.396 173.59 140.396C175.108 140.396 176.23 141.188 176.846 142.42H176.89L177.154 140.704H179.134ZM183.681 140.704L183.461 142.09H183.505C184.297 140.99 185.617 140.396 186.871 140.396C189.775 140.396 190.215 142.354 189.819 144.862L188.851 151H186.871L187.795 145.104C188.081 143.344 188.037 142.156 186.013 142.156C183.461 142.156 183.109 144.4 182.801 146.27L182.053 151H180.073L181.701 140.704H183.681ZM195.197 142.552L193.855 151H191.875L193.217 142.552H192.139L192.425 140.704H193.503L194.119 136.766H196.099L195.483 140.704H197.419L197.133 142.552H195.197ZM206.841 142.552L205.499 151H203.519L204.861 142.552H203.783L204.069 140.704H205.147L205.763 136.766H207.743L207.127 140.704H209.063L208.777 142.552H206.841ZM214.766 140.396C217.846 140.396 219.892 142.772 219.408 145.874C218.924 148.976 216.108 151.352 213.028 151.352C209.948 151.352 207.924 148.976 208.408 145.874C208.892 142.772 211.686 140.396 214.766 140.396ZM214.48 142.288C212.522 142.288 210.696 143.916 210.388 145.874C210.08 147.81 211.378 149.46 213.336 149.46C215.294 149.46 217.12 147.81 217.428 145.874C217.736 143.916 216.438 142.288 214.48 142.288ZM229.673 149.24L226.307 140.704H228.617L231.059 147.238L235.327 140.704H237.549L226.659 156.896H224.415L229.673 149.24ZM243.233 140.396C246.313 140.396 248.359 142.772 247.875 145.874C247.391 148.976 244.575 151.352 241.495 151.352C238.415 151.352 236.391 148.976 236.875 145.874C237.359 142.772 240.153 140.396 243.233 140.396ZM242.947 142.288C240.989 142.288 239.163 143.916 238.855 145.874C238.547 147.81 239.845 149.46 241.803 149.46C243.761 149.46 245.587 147.81 245.895 145.874C246.203 143.916 244.905 142.288 242.947 142.288ZM250.406 140.704H252.386L251.484 146.402C251.22 148.052 251.418 149.504 253.376 149.504C255.334 149.504 255.972 148.052 256.236 146.402L257.138 140.704H259.118L258.194 146.622C257.732 149.438 256.104 151.352 253.068 151.352C250.032 151.352 249.02 149.438 249.482 146.622L250.406 140.704ZM263.864 140.704L263.6 142.376H263.666C264.348 141.166 265.47 140.396 266.79 140.396C267.362 140.396 267.912 140.594 268.352 140.902L267.164 142.706C266.856 142.398 266.482 142.288 266.02 142.288C263.886 142.288 263.292 144.268 263.028 145.94L262.236 151H260.256L261.884 140.704H263.864ZM278.86 149.592C281.016 149.592 282.468 147.876 282.798 145.852C283.106 143.85 282.182 142.156 280.048 142.156C278.002 142.156 276.506 143.938 276.198 145.852C275.89 147.788 276.77 149.592 278.86 149.592ZM281.874 151L282.138 149.394H282.094C281.104 150.56 279.718 151.352 278.266 151.352C275.098 151.352 273.756 148.734 274.24 145.786C274.68 142.97 276.946 140.396 279.916 140.396C281.456 140.396 282.578 141.188 283.194 142.42H283.238L284.888 131.904H286.868L283.854 151H281.874ZM296.233 146.182H288.379C288.115 147.942 289.039 149.592 290.931 149.592C292.449 149.592 293.395 148.822 294.341 147.59L295.859 148.536C294.605 150.318 292.625 151.352 290.623 151.352C287.477 151.352 285.959 148.976 286.421 145.94C286.927 142.772 288.995 140.396 292.317 140.396C295.595 140.396 296.761 142.816 296.277 145.874L296.233 146.182ZM288.709 144.686H294.473C294.495 143.146 293.637 142.112 292.053 142.112C290.513 142.112 289.193 143.212 288.709 144.686ZM304.291 142.2L302.553 143.058C302.399 142.552 301.959 142.156 301.387 142.156C300.837 142.156 300.243 142.596 300.133 143.168C300.001 144.07 301.123 144.466 302.245 145.016C303.367 145.566 304.423 146.314 304.159 147.942C303.851 149.9 301.981 151.352 300.067 151.352C298.571 151.352 297.207 150.494 296.877 149.042L298.703 148.272C298.989 149.042 299.407 149.592 300.353 149.592C301.189 149.592 302.003 149.02 302.157 148.14C302.245 147.59 302.003 147.326 301.607 147.018L299.825 145.984C298.791 145.368 298.043 144.796 298.263 143.388C298.527 141.716 300.089 140.396 301.761 140.396C303.015 140.396 303.917 141.078 304.291 142.2ZM309.654 140.704L308.026 151H306.046L307.674 140.704H309.654ZM309.632 134.61C310.38 134.61 310.908 135.226 310.776 135.996C310.666 136.744 309.94 137.338 309.192 137.338C308.444 137.338 307.938 136.744 308.048 135.996C308.18 135.226 308.884 134.61 309.632 134.61ZM314.932 140.704L314.668 142.376H314.734C315.416 141.166 316.538 140.396 317.858 140.396C318.43 140.396 318.98 140.594 319.42 140.902L318.232 142.706C317.924 142.398 317.55 142.288 317.088 142.288C314.954 142.288 314.36 144.268 314.096 145.94L313.304 151H311.324L312.952 140.704H314.932ZM328.33 146.182H320.476C320.212 147.942 321.136 149.592 323.028 149.592C324.546 149.592 325.492 148.822 326.438 147.59L327.956 148.536C326.702 150.318 324.722 151.352 322.72 151.352C319.574 151.352 318.056 148.976 318.518 145.94C319.024 142.772 321.092 140.396 324.414 140.396C327.692 140.396 328.858 142.816 328.374 145.874L328.33 146.182ZM320.806 144.686H326.57C326.592 143.146 325.734 142.112 324.15 142.112C322.61 142.112 321.29 143.212 320.806 144.686ZM333.924 149.592C336.08 149.592 337.532 147.876 337.862 145.852C338.17 143.85 337.246 142.156 335.112 142.156C333.066 142.156 331.57 143.938 331.262 145.852C330.954 147.788 331.834 149.592 333.924 149.592ZM336.938 151L337.202 149.394H337.158C336.168 150.56 334.782 151.352 333.33 151.352C330.162 151.352 328.82 148.734 329.304 145.786C329.744 142.97 332.01 140.396 334.98 140.396C336.52 140.396 337.642 141.188 338.258 142.42H338.302L339.952 131.904H341.932L338.918 151H336.938ZM353.036 149.592C355.192 149.592 356.644 147.876 356.974 145.852C357.282 143.85 356.358 142.156 354.224 142.156C352.178 142.156 350.682 143.938 350.374 145.852C350.066 147.788 350.946 149.592 353.036 149.592ZM351.298 140.704L351.034 142.42H351.078C352.09 141.188 353.432 140.396 354.972 140.396C357.942 140.396 359.416 142.97 358.976 145.786C358.492 148.734 356.314 151.352 353.146 151.352C351.694 151.352 350.572 150.56 349.978 149.394H349.934L348.746 156.896H346.766L349.318 140.704H351.298ZM365.151 131.904L362.137 151H360.157L363.171 131.904H365.151ZM369.61 149.592C371.766 149.592 373.218 147.876 373.548 145.852C373.856 143.85 372.932 142.156 370.798 142.156C368.752 142.156 367.256 143.938 366.948 145.852C366.64 147.788 367.52 149.592 369.61 149.592ZM376.232 140.704L374.604 151H372.624L372.888 149.394H372.844C371.854 150.56 370.49 151.352 369.016 151.352C365.87 151.352 364.506 148.734 364.99 145.786C365.43 142.97 367.696 140.396 370.688 140.396C372.206 140.396 373.328 141.188 373.944 142.42H373.988L374.252 140.704H376.232ZM386.301 141.078L385.905 143.63C385.267 142.728 384.365 142.244 383.177 142.244C381.241 142.244 379.481 143.96 379.173 145.852C378.843 147.964 380.075 149.504 382.165 149.504C383.309 149.504 384.321 148.976 385.201 148.14L384.783 150.67C383.815 151.154 382.869 151.352 381.835 151.352C378.799 151.352 376.687 149.02 377.171 145.94C377.677 142.75 380.515 140.396 383.683 140.396C384.607 140.396 385.597 140.616 386.301 141.078ZM396.436 146.182H388.582C388.318 147.942 389.242 149.592 391.134 149.592C392.652 149.592 393.598 148.822 394.544 147.59L396.062 148.536C394.808 150.318 392.828 151.352 390.826 151.352C387.68 151.352 386.162 148.976 386.624 145.94C387.13 142.772 389.198 140.396 392.52 140.396C395.798 140.396 396.964 142.816 396.48 145.874L396.436 146.182ZM388.912 144.686H394.676C394.698 143.146 393.84 142.112 392.256 142.112C390.716 142.112 389.396 143.212 388.912 144.686ZM400.908 140.704L400.71 142.002H400.754C401.458 141.1 402.602 140.396 403.724 140.396C405.066 140.396 405.924 141.078 406.408 142.222C407.222 141.122 408.564 140.396 409.862 140.396C412.568 140.396 412.942 142.508 412.568 144.84L411.6 151H409.62L410.544 145.17C410.742 143.85 410.852 142.156 409.114 142.156C407.002 142.156 406.496 144.356 406.232 145.94L405.44 151H403.46L404.318 145.544C404.538 144.202 404.802 142.156 402.976 142.156C400.864 142.156 400.336 144.334 400.072 145.94L399.28 151H397.3L398.928 140.704H400.908ZM424.043 146.182H416.189C415.925 147.942 416.849 149.592 418.741 149.592C420.259 149.592 421.205 148.822 422.151 147.59L423.669 148.536C422.415 150.318 420.435 151.352 418.433 151.352C415.287 151.352 413.769 148.976 414.231 145.94C414.737 142.772 416.805 140.396 420.127 140.396C423.405 140.396 424.571 142.816 424.087 145.874L424.043 146.182ZM416.519 144.686H422.283C422.305 143.146 421.447 142.112 419.863 142.112C418.323 142.112 417.003 143.212 416.519 144.686ZM428.581 140.704L428.361 142.09H428.405C429.197 140.99 430.517 140.396 431.771 140.396C434.675 140.396 435.115 142.354 434.719 144.862L433.751 151H431.771L432.695 145.104C432.981 143.344 432.937 142.156 430.913 142.156C428.361 142.156 428.009 144.4 427.701 146.27L426.953 151H424.973L426.601 140.704H428.581ZM440.097 142.552L438.755 151H436.775L438.117 142.552H437.039L437.325 140.704H438.403L439.019 136.766H440.999L440.383 140.704H442.319L442.033 142.552H440.097ZM443.952 148.8C444.656 148.8 445.14 149.394 445.03 150.076C444.92 150.78 444.238 151.352 443.534 151.352C442.83 151.352 442.368 150.78 442.478 150.076C442.588 149.394 443.248 148.8 443.952 148.8Z" fill="#093761"/>
<g clip-path="url(#clip1_407_2502)">
<path d="M99.4165 210L66.6469 197.5L65.3748 198.683L70.7498 210L65.3748 221.317L66.6469 222.5L99.4165 210Z" fill="#0E3D68"/>
</g>
<path d="M135.21 206.842H127.598L125.046 211H122.824L133.472 193.708L138.664 211H136.442L135.21 206.842ZM134.66 204.95L132.768 198.24L128.764 204.95H134.66ZM148.963 201.078L148.567 203.63C147.929 202.728 147.027 202.244 145.839 202.244C143.903 202.244 142.143 203.96 141.835 205.852C141.505 207.964 142.737 209.504 144.827 209.504C145.971 209.504 146.983 208.976 147.863 208.14L147.445 210.67C146.477 211.154 145.531 211.352 144.497 211.352C141.461 211.352 139.349 209.02 139.833 205.94C140.339 202.75 143.177 200.396 146.345 200.396C147.269 200.396 148.259 200.616 148.963 201.078ZM158.416 201.078L158.02 203.63C157.382 202.728 156.48 202.244 155.292 202.244C153.356 202.244 151.596 203.96 151.288 205.852C150.958 207.964 152.19 209.504 154.28 209.504C155.424 209.504 156.436 208.976 157.316 208.14L156.898 210.67C155.93 211.154 154.984 211.352 153.95 211.352C150.914 211.352 148.802 209.02 149.286 205.94C149.792 202.75 152.63 200.396 155.798 200.396C156.722 200.396 157.712 200.616 158.416 201.078ZM168.551 206.182H160.697C160.433 207.942 161.357 209.592 163.249 209.592C164.767 209.592 165.713 208.822 166.659 207.59L168.177 208.536C166.923 210.318 164.943 211.352 162.941 211.352C159.795 211.352 158.277 208.976 158.739 205.94C159.245 202.772 161.313 200.396 164.635 200.396C167.913 200.396 169.079 202.816 168.595 205.874L168.551 206.182ZM161.027 204.686H166.791C166.813 203.146 165.955 202.112 164.371 202.112C162.831 202.112 161.511 203.212 161.027 204.686ZM176.609 202.2L174.871 203.058C174.717 202.552 174.277 202.156 173.705 202.156C173.155 202.156 172.561 202.596 172.451 203.168C172.319 204.07 173.441 204.466 174.563 205.016C175.685 205.566 176.741 206.314 176.477 207.942C176.169 209.9 174.299 211.352 172.385 211.352C170.889 211.352 169.525 210.494 169.195 209.042L171.021 208.272C171.307 209.042 171.725 209.592 172.671 209.592C173.507 209.592 174.321 209.02 174.475 208.14C174.563 207.59 174.321 207.326 173.925 207.018L172.143 205.984C171.109 205.368 170.361 204.796 170.581 203.388C170.845 201.716 172.407 200.396 174.079 200.396C175.333 200.396 176.235 201.078 176.609 202.2ZM185.053 202.2L183.315 203.058C183.161 202.552 182.721 202.156 182.149 202.156C181.599 202.156 181.005 202.596 180.895 203.168C180.763 204.07 181.885 204.466 183.007 205.016C184.129 205.566 185.185 206.314 184.921 207.942C184.613 209.9 182.743 211.352 180.829 211.352C179.333 211.352 177.969 210.494 177.639 209.042L179.465 208.272C179.751 209.042 180.169 209.592 181.115 209.592C181.951 209.592 182.765 209.02 182.919 208.14C183.007 207.59 182.765 207.326 182.369 207.018L180.587 205.984C179.553 205.368 178.805 204.796 179.025 203.388C179.289 201.716 180.851 200.396 182.523 200.396C183.777 200.396 184.679 201.078 185.053 202.2ZM198.846 200.396C201.926 200.396 203.972 202.772 203.488 205.874C203.004 208.976 200.188 211.352 197.108 211.352C194.028 211.352 192.004 208.976 192.488 205.874C192.972 202.772 195.766 200.396 198.846 200.396ZM198.56 202.288C196.602 202.288 194.776 203.916 194.468 205.874C194.16 207.81 195.458 209.46 197.416 209.46C199.374 209.46 201.2 207.81 201.508 205.874C201.816 203.916 200.518 202.288 198.56 202.288ZM208.087 200.704L207.867 202.09H207.911C208.703 200.99 210.023 200.396 211.277 200.396C214.181 200.396 214.621 202.354 214.225 204.862L213.257 211H211.277L212.201 205.104C212.487 203.344 212.443 202.156 210.419 202.156C207.867 202.156 207.515 204.4 207.207 206.27L206.459 211H204.479L206.107 200.704H208.087ZM221.077 191.904L218.063 211H216.083L219.097 191.904H221.077ZM224.941 200.704L223.313 211H221.333L222.961 200.704H224.941ZM224.919 194.61C225.667 194.61 226.195 195.226 226.063 195.996C225.953 196.744 225.227 197.338 224.479 197.338C223.731 197.338 223.225 196.744 223.335 195.996C223.467 195.226 224.171 194.61 224.919 194.61ZM230.087 200.704L229.867 202.09H229.911C230.703 200.99 232.023 200.396 233.277 200.396C236.181 200.396 236.621 202.354 236.225 204.862L235.257 211H233.277L234.201 205.104C234.487 203.344 234.443 202.156 232.419 202.156C229.867 202.156 229.515 204.4 229.207 206.27L228.459 211H226.479L228.107 200.704H230.087ZM247.807 206.182H239.953C239.689 207.942 240.613 209.592 242.505 209.592C244.023 209.592 244.969 208.822 245.915 207.59L247.433 208.536C246.179 210.318 244.199 211.352 242.197 211.352C239.051 211.352 237.533 208.976 237.995 205.94C238.501 202.772 240.569 200.396 243.891 200.396C247.169 200.396 248.335 202.816 247.851 205.874L247.807 206.182ZM240.283 204.686H246.047C246.069 203.146 245.211 202.112 243.627 202.112C242.087 202.112 240.767 203.212 240.283 204.686ZM264.226 201.078L263.83 203.63C263.192 202.728 262.29 202.244 261.102 202.244C259.166 202.244 257.406 203.96 257.098 205.852C256.768 207.964 258 209.504 260.09 209.504C261.234 209.504 262.246 208.976 263.126 208.14L262.708 210.67C261.74 211.154 260.794 211.352 259.76 211.352C256.724 211.352 254.612 209.02 255.096 205.94C255.602 202.75 258.44 200.396 261.608 200.396C262.532 200.396 263.522 200.616 264.226 201.078ZM270.798 200.396C273.878 200.396 275.924 202.772 275.44 205.874C274.956 208.976 272.14 211.352 269.06 211.352C265.98 211.352 263.956 208.976 264.44 205.874C264.924 202.772 267.718 200.396 270.798 200.396ZM270.512 202.288C268.554 202.288 266.728 203.916 266.42 205.874C266.112 207.81 267.41 209.46 269.368 209.46C271.326 209.46 273.152 207.81 273.46 205.874C273.768 203.916 272.47 202.288 270.512 202.288ZM277.97 200.704H279.95L279.048 206.402C278.784 208.052 278.982 209.504 280.94 209.504C282.898 209.504 283.536 208.052 283.8 206.402L284.702 200.704H286.682L285.758 206.622C285.296 209.438 283.668 211.352 280.632 211.352C277.596 211.352 276.584 209.438 277.046 206.622L277.97 200.704ZM291.428 200.704L291.164 202.376H291.23C291.912 201.166 293.034 200.396 294.354 200.396C294.926 200.396 295.476 200.594 295.916 200.902L294.728 202.706C294.42 202.398 294.046 202.288 293.584 202.288C291.45 202.288 290.856 204.268 290.592 205.94L289.8 211H287.82L289.448 200.704H291.428ZM302.529 202.2L300.791 203.058C300.637 202.552 300.197 202.156 299.625 202.156C299.075 202.156 298.481 202.596 298.371 203.168C298.239 204.07 299.361 204.466 300.483 205.016C301.605 205.566 302.661 206.314 302.397 207.942C302.089 209.9 300.219 211.352 298.305 211.352C296.809 211.352 295.445 210.494 295.115 209.042L296.941 208.272C297.227 209.042 297.645 209.592 298.591 209.592C299.427 209.592 300.241 209.02 300.395 208.14C300.483 207.59 300.241 207.326 299.845 207.018L298.063 205.984C297.029 205.368 296.281 204.796 296.501 203.388C296.765 201.716 298.327 200.396 299.999 200.396C301.253 200.396 302.155 201.078 302.529 202.2ZM313.656 206.182H305.802C305.538 207.942 306.462 209.592 308.354 209.592C309.872 209.592 310.818 208.822 311.764 207.59L313.282 208.536C312.028 210.318 310.048 211.352 308.046 211.352C304.9 211.352 303.382 208.976 303.844 205.94C304.35 202.772 306.418 200.396 309.74 200.396C313.018 200.396 314.184 202.816 313.7 205.874L313.656 206.182ZM306.132 204.686H311.896C311.918 203.146 311.06 202.112 309.476 202.112C307.936 202.112 306.616 203.212 306.132 204.686ZM321.715 202.2L319.977 203.058C319.823 202.552 319.383 202.156 318.811 202.156C318.261 202.156 317.667 202.596 317.557 203.168C317.425 204.07 318.547 204.466 319.669 205.016C320.791 205.566 321.847 206.314 321.583 207.942C321.275 209.9 319.405 211.352 317.491 211.352C315.995 211.352 314.631 210.494 314.301 209.042L316.127 208.272C316.413 209.042 316.831 209.592 317.777 209.592C318.613 209.592 319.427 209.02 319.581 208.14C319.669 207.59 319.427 207.326 319.031 207.018L317.249 205.984C316.215 205.368 315.467 204.796 315.687 203.388C315.951 201.716 317.513 200.396 319.185 200.396C320.439 200.396 321.341 201.078 321.715 202.2ZM332.997 202.552L331.655 211H329.675L331.017 202.552H329.939L330.225 200.704H331.303L331.919 196.766H333.899L333.283 200.704H335.219L334.933 202.552H332.997ZM340.923 200.396C344.003 200.396 346.049 202.772 345.565 205.874C345.081 208.976 342.265 211.352 339.185 211.352C336.105 211.352 334.081 208.976 334.565 205.874C335.049 202.772 337.843 200.396 340.923 200.396ZM340.637 202.288C338.679 202.288 336.853 203.916 336.545 205.874C336.237 207.81 337.535 209.46 339.493 209.46C341.451 209.46 343.277 207.81 343.585 205.874C343.893 203.916 342.595 202.288 340.637 202.288ZM361.033 191.904L360.725 193.906C360.351 193.73 359.889 193.488 359.471 193.488C358.063 193.488 357.777 195.27 357.623 196.282L356.919 200.704H359.647L359.361 202.552H356.633L355.291 211H353.311L354.653 202.552H353.751L354.037 200.704H354.939L355.731 195.688C356.083 193.444 357.139 191.64 359.691 191.64C360.175 191.64 360.637 191.728 361.033 191.904ZM360.513 200.704H362.493L361.591 206.402C361.327 208.052 361.525 209.504 363.483 209.504C365.441 209.504 366.079 208.052 366.343 206.402L367.245 200.704H369.225L368.301 206.622C367.839 209.438 366.211 211.352 363.175 211.352C360.139 211.352 359.127 209.438 359.589 206.622L360.513 200.704ZM373.971 200.704L373.707 202.376H373.773C374.455 201.166 375.577 200.396 376.897 200.396C377.469 200.396 378.019 200.594 378.459 200.902L377.271 202.706C376.963 202.398 376.589 202.288 376.127 202.288C373.993 202.288 373.399 204.268 373.135 205.94L372.343 211H370.363L371.991 200.704H373.971ZM381.982 202.552L380.64 211H378.66L380.002 202.552H378.924L379.21 200.704H380.288L380.904 196.766H382.884L382.268 200.704H384.204L383.918 202.552H381.982ZM386.694 191.904H388.674L387.068 202.09H387.112C387.904 200.99 389.224 200.396 390.478 200.396C393.382 200.396 393.822 202.354 393.426 204.862L392.458 211H390.478L391.402 205.104C391.688 203.344 391.644 202.156 389.62 202.156C387.068 202.156 386.716 204.4 386.408 206.27L385.66 211H383.68L386.694 191.904ZM405.008 206.182H397.154C396.89 207.942 397.814 209.592 399.706 209.592C401.224 209.592 402.17 208.822 403.116 207.59L404.634 208.536C403.38 210.318 401.4 211.352 399.398 211.352C396.252 211.352 394.734 208.976 395.196 205.94C395.702 202.772 397.77 200.396 401.092 200.396C404.37 200.396 405.536 202.816 405.052 205.874L405.008 206.182ZM397.484 204.686H403.248C403.27 203.146 402.412 202.112 400.828 202.112C399.288 202.112 397.968 203.212 397.484 204.686ZM409.678 200.704L409.414 202.376H409.48C410.162 201.166 411.284 200.396 412.604 200.396C413.176 200.396 413.726 200.594 414.166 200.902L412.978 202.706C412.67 202.398 412.296 202.288 411.834 202.288C409.7 202.288 409.106 204.268 408.842 205.94L408.05 211H406.07L407.698 200.704H409.678ZM129.028 235.592C131.184 235.592 132.636 233.876 132.966 231.852C133.274 229.85 132.35 228.156 130.216 228.156C128.17 228.156 126.674 229.938 126.366 231.852C126.058 233.788 126.938 235.592 129.028 235.592ZM132.042 237L132.306 235.394H132.262C131.272 236.56 129.886 237.352 128.434 237.352C125.266 237.352 123.924 234.734 124.408 231.786C124.848 228.97 127.114 226.396 130.084 226.396C131.624 226.396 132.746 227.188 133.362 228.42H133.406L135.056 217.904H137.036L134.022 237H132.042ZM146.401 232.182H138.547C138.283 233.942 139.207 235.592 141.099 235.592C142.617 235.592 143.563 234.822 144.509 233.59L146.027 234.536C144.773 236.318 142.793 237.352 140.791 237.352C137.645 237.352 136.127 234.976 136.589 231.94C137.095 228.772 139.163 226.396 142.485 226.396C145.763 226.396 146.929 228.816 146.445 231.874L146.401 232.182ZM138.877 230.686H144.641C144.663 229.146 143.805 228.112 142.221 228.112C140.681 228.112 139.361 229.212 138.877 230.686ZM149.531 226.704L151.467 233.128L155.449 226.704H157.671L150.785 237.352L147.309 226.704H149.531ZM166.94 232.182H159.086C158.822 233.942 159.746 235.592 161.638 235.592C163.156 235.592 164.102 234.822 165.048 233.59L166.566 234.536C165.312 236.318 163.332 237.352 161.33 237.352C158.184 237.352 156.666 234.976 157.128 231.94C157.634 228.772 159.702 226.396 163.024 226.396C166.302 226.396 167.468 228.816 166.984 231.874L166.94 232.182ZM159.416 230.686H165.18C165.202 229.146 164.344 228.112 162.76 228.112C161.22 228.112 159.9 229.212 159.416 230.686ZM172.952 217.904L169.938 237H167.958L170.972 217.904H172.952ZM178.995 226.396C182.075 226.396 184.121 228.772 183.637 231.874C183.153 234.976 180.337 237.352 177.257 237.352C174.177 237.352 172.153 234.976 172.637 231.874C173.121 228.772 175.915 226.396 178.995 226.396ZM178.709 228.288C176.751 228.288 174.925 229.916 174.617 231.874C174.309 233.81 175.607 235.46 177.565 235.46C179.523 235.46 181.349 233.81 181.657 231.874C181.965 229.916 180.667 228.288 178.709 228.288ZM189.82 235.592C191.976 235.592 193.428 233.876 193.758 231.852C194.066 229.85 193.142 228.156 191.008 228.156C188.962 228.156 187.466 229.938 187.158 231.852C186.85 233.788 187.73 235.592 189.82 235.592ZM188.082 226.704L187.818 228.42H187.862C188.874 227.188 190.216 226.396 191.756 226.396C194.726 226.396 196.2 228.97 195.76 231.786C195.276 234.734 193.098 237.352 189.93 237.352C188.478 237.352 187.356 236.56 186.762 235.394H186.718L185.53 242.896H183.55L186.102 226.704H188.082ZM206.126 235.24L202.76 226.704H205.07L207.512 233.238L211.78 226.704H214.002L203.112 242.896H200.868L206.126 235.24ZM219.686 226.396C222.766 226.396 224.812 228.772 224.328 231.874C223.844 234.976 221.028 237.352 217.948 237.352C214.868 237.352 212.844 234.976 213.328 231.874C213.812 228.772 216.606 226.396 219.686 226.396ZM219.4 228.288C217.442 228.288 215.616 229.916 215.308 231.874C215 233.81 216.298 235.46 218.256 235.46C220.214 235.46 222.04 233.81 222.348 231.874C222.656 229.916 221.358 228.288 219.4 228.288ZM226.859 226.704H228.839L227.937 232.402C227.673 234.052 227.871 235.504 229.829 235.504C231.787 235.504 232.425 234.052 232.689 232.402L233.591 226.704H235.571L234.647 232.622C234.185 235.438 232.557 237.352 229.521 237.352C226.485 237.352 225.473 235.438 225.935 232.622L226.859 226.704ZM240.317 226.704L240.053 228.376H240.119C240.801 227.166 241.923 226.396 243.243 226.396C243.815 226.396 244.365 226.594 244.805 226.902L243.617 228.706C243.309 228.398 242.935 228.288 242.473 228.288C240.339 228.288 239.745 230.268 239.481 231.94L238.689 237H236.709L238.337 226.704H240.317ZM254.257 228.552L252.915 237H250.935L252.277 228.552H251.199L251.485 226.704H252.563L253.179 222.766H255.159L254.543 226.704H256.479L256.193 228.552H254.257ZM265.746 232.182H257.892C257.628 233.942 258.552 235.592 260.444 235.592C261.962 235.592 262.908 234.822 263.854 233.59L265.372 234.536C264.118 236.318 262.138 237.352 260.136 237.352C256.99 237.352 255.472 234.976 255.934 231.94C256.44 228.772 258.508 226.396 261.83 226.396C265.108 226.396 266.274 228.816 265.79 231.874L265.746 232.182ZM258.222 230.686H263.986C264.008 229.146 263.15 228.112 261.566 228.112C260.026 228.112 258.706 229.212 258.222 230.686ZM275.807 227.078L275.411 229.63C274.773 228.728 273.871 228.244 272.683 228.244C270.747 228.244 268.987 229.96 268.679 231.852C268.349 233.964 269.581 235.504 271.671 235.504C272.815 235.504 273.827 234.976 274.707 234.14L274.289 236.67C273.321 237.154 272.375 237.352 271.341 237.352C268.305 237.352 266.193 235.02 266.677 231.94C267.183 228.75 270.021 226.396 273.189 226.396C274.113 226.396 275.103 226.616 275.807 227.078ZM279.401 217.904H281.381L279.775 228.09H279.819C280.611 226.99 281.931 226.396 283.185 226.396C286.089 226.396 286.529 228.354 286.133 230.862L285.165 237H283.185L284.109 231.104C284.395 229.344 284.351 228.156 282.327 228.156C279.775 228.156 279.423 230.4 279.115 232.27L278.367 237H276.387L279.401 217.904ZM291.511 226.704L291.291 228.09H291.335C292.127 226.99 293.447 226.396 294.701 226.396C297.605 226.396 298.045 228.354 297.649 230.862L296.681 237H294.701L295.625 231.104C295.911 229.344 295.867 228.156 293.843 228.156C291.291 228.156 290.939 230.4 290.631 232.27L289.883 237H287.903L289.531 226.704H291.511ZM303.467 226.704L301.839 237H299.859L301.487 226.704H303.467ZM303.445 220.61C304.193 220.61 304.721 221.226 304.589 221.996C304.479 222.744 303.753 223.338 303.005 223.338C302.257 223.338 301.751 222.744 301.861 221.996C301.993 221.226 302.697 220.61 303.445 220.61ZM314.135 227.078L313.739 229.63C313.101 228.728 312.199 228.244 311.011 228.244C309.075 228.244 307.315 229.96 307.007 231.852C306.677 233.964 307.909 235.504 309.999 235.504C311.143 235.504 312.155 234.976 313.035 234.14L312.617 236.67C311.649 237.154 310.703 237.352 309.669 237.352C306.633 237.352 304.521 235.02 305.005 231.94C305.511 228.75 308.349 226.396 311.517 226.396C312.441 226.396 313.431 226.616 314.135 227.078ZM319.38 235.592C321.536 235.592 322.988 233.876 323.318 231.852C323.626 229.85 322.702 228.156 320.568 228.156C318.522 228.156 317.026 229.938 316.718 231.852C316.41 233.788 317.29 235.592 319.38 235.592ZM326.002 226.704L324.374 237H322.394L322.658 235.394H322.614C321.624 236.56 320.26 237.352 318.786 237.352C315.64 237.352 314.276 234.734 314.76 231.786C315.2 228.97 317.466 226.396 320.458 226.396C321.976 226.396 323.098 227.188 323.714 228.42H323.758L324.022 226.704H326.002ZM332.022 217.904L329.008 237H327.028L330.042 217.904H332.022ZM342.841 235.592C344.997 235.592 346.449 233.876 346.779 231.852C347.087 229.85 346.163 228.156 344.029 228.156C341.983 228.156 340.487 229.938 340.179 231.852C339.871 233.788 340.751 235.592 342.841 235.592ZM349.463 226.704L347.835 237H345.855L346.119 235.394H346.075C345.085 236.56 343.721 237.352 342.247 237.352C339.101 237.352 337.737 234.734 338.221 231.786C338.661 228.97 340.927 226.396 343.919 226.396C345.437 226.396 346.559 227.188 347.175 228.42H347.219L347.483 226.704H349.463ZM354.009 226.704L353.789 228.09H353.833C354.625 226.99 355.945 226.396 357.199 226.396C360.103 226.396 360.543 228.354 360.147 230.862L359.179 237H357.199L358.123 231.104C358.409 229.344 358.365 228.156 356.341 228.156C353.789 228.156 353.437 230.4 353.129 232.27L352.381 237H350.401L352.029 226.704H354.009ZM366.581 235.592C368.737 235.592 370.189 233.876 370.519 231.852C370.827 229.85 369.903 228.156 367.769 228.156C365.723 228.156 364.227 229.938 363.919 231.852C363.611 233.788 364.491 235.592 366.581 235.592ZM369.595 237L369.859 235.394H369.815C368.825 236.56 367.439 237.352 365.987 237.352C362.819 237.352 361.477 234.734 361.961 231.786C362.401 228.97 364.667 226.396 367.637 226.396C369.177 226.396 370.299 227.188 370.915 228.42H370.959L372.609 217.904H374.589L371.575 237H369.595ZM387.629 228.2L385.891 229.058C385.737 228.552 385.297 228.156 384.725 228.156C384.175 228.156 383.581 228.596 383.471 229.168C383.339 230.07 384.461 230.466 385.583 231.016C386.705 231.566 387.761 232.314 387.497 233.942C387.189 235.9 385.319 237.352 383.405 237.352C381.909 237.352 380.545 236.494 380.215 235.042L382.041 234.272C382.327 235.042 382.745 235.592 383.691 235.592C384.527 235.592 385.341 235.02 385.495 234.14C385.583 233.59 385.341 233.326 384.945 233.018L383.163 231.984C382.129 231.368 381.381 230.796 381.601 229.388C381.865 227.716 383.427 226.396 385.099 226.396C386.353 226.396 387.255 227.078 387.629 228.2ZM395.192 226.396C398.272 226.396 400.318 228.772 399.834 231.874C399.35 234.976 396.534 237.352 393.454 237.352C390.374 237.352 388.35 234.976 388.834 231.874C389.318 228.772 392.112 226.396 395.192 226.396ZM394.906 228.288C392.948 228.288 391.122 229.916 390.814 231.874C390.506 233.81 391.804 235.46 393.762 235.46C395.72 235.46 397.546 233.81 397.854 231.874C398.162 229.916 396.864 228.288 394.906 228.288ZM408.943 217.904L408.635 219.906C408.261 219.73 407.799 219.488 407.381 219.488C405.973 219.488 405.687 221.27 405.533 222.282L404.829 226.704H407.557L407.271 228.552H404.543L403.201 237H401.221L402.563 228.552H401.661L401.947 226.704H402.849L403.641 221.688C403.993 219.444 405.049 217.64 407.601 217.64C408.085 217.64 408.547 217.728 408.943 217.904ZM410.492 228.552L409.15 237H407.17L408.512 228.552H407.434L407.72 226.704H408.798L409.414 222.766H411.394L410.778 226.704H412.714L412.428 228.552H410.492ZM425.656 228.2L423.918 229.058C423.764 228.552 423.324 228.156 422.752 228.156C422.202 228.156 421.608 228.596 421.498 229.168C421.366 230.07 422.488 230.466 423.61 231.016C424.732 231.566 425.788 232.314 425.524 233.942C425.216 235.9 423.346 237.352 421.432 237.352C419.936 237.352 418.572 236.494 418.242 235.042L420.068 234.272C420.354 235.042 420.772 235.592 421.718 235.592C422.554 235.592 423.368 235.02 423.522 234.14C423.61 233.59 423.368 233.326 422.972 233.018L421.19 231.984C420.156 231.368 419.408 230.796 419.628 229.388C419.892 227.716 421.454 226.396 423.126 226.396C424.38 226.396 425.282 227.078 425.656 228.2ZM432.097 217.904L430.095 230.576L434.583 226.704H437.201L432.119 230.972L436.013 237H433.439L430.513 232.314L429.721 232.996L429.083 237H427.103L430.117 217.904H432.097ZM441.182 226.704L439.554 237H437.574L439.202 226.704H441.182ZM441.16 220.61C441.908 220.61 442.436 221.226 442.304 221.996C442.194 222.744 441.468 223.338 440.72 223.338C439.972 223.338 439.466 222.744 439.576 221.996C439.708 221.226 440.412 220.61 441.16 220.61ZM447.801 217.904L444.787 237H442.807L445.821 217.904H447.801ZM452.7 217.904L449.686 237H447.706L450.72 217.904H452.7ZM459.623 228.2L457.885 229.058C457.731 228.552 457.291 228.156 456.719 228.156C456.169 228.156 455.575 228.596 455.465 229.168C455.333 230.07 456.455 230.466 457.577 231.016C458.699 231.566 459.755 232.314 459.491 233.942C459.183 235.9 457.313 237.352 455.399 237.352C453.903 237.352 452.539 236.494 452.209 235.042L454.035 234.272C454.321 235.042 454.739 235.592 455.685 235.592C456.521 235.592 457.335 235.02 457.489 234.14C457.577 233.59 457.335 233.326 456.939 233.018L455.157 231.984C454.123 231.368 453.375 230.796 453.595 229.388C453.859 227.716 455.421 226.396 457.093 226.396C458.347 226.396 459.249 227.078 459.623 228.2ZM463.116 234.8C463.82 234.8 464.304 235.394 464.194 236.076C464.084 236.78 463.402 237.352 462.698 237.352C461.994 237.352 461.532 236.78 461.642 236.076C461.752 235.394 462.412 234.8 463.116 234.8Z" fill="#093761"/>
<defs>
<clipPath id="clip0_407_2502">
<rect width="40" height="43" fill="white" transform="translate(103 79) rotate(90)"/>
</clipPath>
<clipPath id="clip1_407_2502">
<rect width="40" height="43" fill="white" transform="translate(103 190) rotate(90)"/>
</clipPath>
</defs>
</svg>
