<svg width="546" height="327" viewBox="0 0 546 327" fill="none" xmlns="http://www.w3.org/2000/svg">
<rect width="546" height="327" rx="50" fill="#0E3D68"/>
<path d="M53.3947 153.1V141.3C54.7947 143.4 57.2447 145.5 59.8447 145.5C61.2447 145.5 62.8447 144.65 62.8447 143C62.8447 142.1 62.5447 141.45 62.0447 140.9C61.5947 140.35 60.9947 139.9 60.3447 139.45C58.3447 137.9 56.5947 136.45 55.2947 134.65C54.0447 132.9 53.2447 130.8 53.2447 128.05C53.2447 123.65 56.0447 115.65 64.7447 115.65C67.1947 115.65 69.8447 116.4 71.9947 117.55V129C70.7947 127.1 68.3447 124.95 65.9947 124.95C64.7947 124.95 63.3447 125.8 63.3447 127.25C63.3447 128.05 63.7947 128.75 64.3447 129.35C64.8947 129.95 65.6447 130.45 66.1947 130.9C68.3447 132.4 70.0447 133.8 71.1947 135.5C72.3947 137.2 73.0447 139.2 73.0447 142.05C73.0447 149.05 68.1447 154.65 61.0447 154.65C58.4447 154.65 55.7947 154.1 53.3947 153.1ZM93.7787 116.3H104.529L96.3787 134.5L105.479 154H94.5287L88.1787 136.7H88.1287V154H77.9287V116.3H88.1287V132.35H88.1787L93.7787 116.3ZM119.818 154H109.618V116.3H119.818V154ZM143.679 154H125.829V116.3H136.029V145.1H143.679V154ZM165.701 154H147.851V116.3H158.051V145.1H165.701V154ZM183.739 154V116.3H191.939C203.539 116.3 209.789 123.6 209.789 135C209.789 152.4 198.839 154 192.639 154H183.739ZM193.939 125.7V144.9C198.589 144.85 199.389 139.05 199.389 135.5C199.389 131.4 198.589 125.7 193.939 125.7ZM214.696 154V116.3H233.646V125.2H224.896V130.45H232.746V139.35H224.896V145.1H233.646V154H214.696ZM255.697 154H245.297L236.647 116.3H247.347L249.747 131.8C250.197 134.85 250.447 137.85 250.847 140.9H250.947C251.397 137.85 251.547 134.85 252.097 131.8L254.897 116.3H265.947L255.697 154ZM268.944 154V116.3H287.894V125.2H279.144V130.45H286.994V139.35H279.144V145.1H287.894V154H268.944ZM311.746 154H293.896V116.3H304.096V145.1H311.746V154ZM313.253 135.15C313.253 125.95 317.303 115.65 327.653 115.65C338.003 115.65 342.053 125.95 342.053 135.15C342.053 144.35 338.003 154.65 327.653 154.65C317.303 154.65 313.253 144.35 313.253 135.15ZM323.653 135.15C323.653 137.5 323.803 145.15 327.653 145.15C331.503 145.15 331.653 137.5 331.653 135.15C331.653 132.8 331.503 125.15 327.653 125.15C323.803 125.15 323.653 132.8 323.653 135.15ZM357.172 154H346.972V116.3H356.272C365.172 116.3 372.022 119.2 372.022 129.1C372.022 138.9 366.022 141.9 357.172 141.65V154ZM361.722 128.95C361.722 126.55 360.422 124.4 357.922 124.4L357.172 124.45V133.15C359.972 133.3 361.722 131.75 361.722 128.95ZM413.671 154H403.071L402.121 130.3H402.021C401.571 133.05 401.221 135.8 400.721 138.55L397.821 154H389.521L385.971 130.3H385.871C385.821 133.1 385.871 135.85 385.721 138.65L384.871 154H373.921L378.321 116.3H391.021L393.921 136.35H394.021C394.321 134 394.571 131.7 395.021 129.35L397.471 116.3H410.021L413.671 154ZM417.431 154V116.3H436.381V125.2H427.631V130.45H435.481V139.35H427.631V145.1H436.381V154H417.431ZM442.382 154V116.3H452.082L460.232 139L460.332 138.9C459.932 134.55 459.182 130.25 459.182 125.9V116.3H468.982V154H459.182L451.582 132.25L451.482 132.35C451.732 135.9 452.182 139.4 452.182 142.95V154H442.382ZM488.949 154H478.749V125.5H473.149V116.3H494.799V125.5H488.949V154ZM142.207 214H131.657L130.907 209.15H124.057L123.207 214H112.707L121.757 176.3H134.207L142.207 214ZM125.407 201.15H129.707L128.607 192.4C128.307 190.05 128.107 187.65 127.857 185.3H127.757C127.457 187.65 127.207 190.05 126.807 192.4L125.407 201.15ZM145.58 214V176.3H155.28L163.43 199L163.53 198.9C163.13 194.55 162.38 190.25 162.38 185.9V176.3H172.18V214H162.38L154.78 192.25L154.68 192.35C154.93 195.9 155.38 199.4 155.38 202.95V214H145.58ZM178.197 214V176.3H186.397C197.997 176.3 204.247 183.6 204.247 195C204.247 212.4 193.297 214 187.097 214H178.197ZM188.397 185.7V204.9C193.047 204.85 193.847 199.05 193.847 195.5C193.847 191.4 193.047 185.7 188.397 185.7ZM236.971 214H226.771V185.5H221.171V176.3H242.821V185.5H236.971V214ZM273.748 214H262.698L257.048 198.3L256.948 198.4C256.998 200.25 257.098 202.1 257.098 203.95V214H246.898V176.3H256.748C265.598 176.3 271.998 178.9 271.998 188.85C271.998 193 270.198 196.7 266.148 198.3L273.748 214ZM257.098 193.7L257.748 193.75C260.448 193.75 261.898 191.4 261.898 188.95C261.898 185.65 259.898 184.25 257.098 184.4V193.7ZM303.974 214H293.424L292.674 209.15H285.824L284.974 214H274.474L283.524 176.3H295.974L303.974 214ZM287.174 201.15H291.474L290.374 192.4C290.074 190.05 289.874 187.65 289.624 185.3H289.524C289.224 187.65 288.974 190.05 288.574 192.4L287.174 201.15ZM317.548 214H307.348V176.3H317.548V214ZM323.559 214V176.3H333.259L341.409 199L341.509 198.9C341.109 194.55 340.359 190.25 340.359 185.9V176.3H350.159V214H340.359L332.759 192.25L332.659 192.35C332.909 195.9 333.359 199.4 333.359 202.95V214H323.559ZM366.376 214H356.176V176.3H366.376V214ZM372.387 214V176.3H382.087L390.237 199L390.337 198.9C389.937 194.55 389.187 190.25 389.187 185.9V176.3H398.987V214H389.187L381.587 192.25L381.487 192.35C381.737 195.9 382.187 199.4 382.187 202.95V214H372.387ZM417.954 192.2H432.154L432.204 193.8C432.204 203.1 430.404 214.65 418.604 214.65C407.504 214.65 403.904 204.9 403.904 195.35C403.904 186 407.454 175.65 418.504 175.65C424.604 175.65 429.154 179.5 431.354 184.95L421.504 188.6C421.404 187.1 420.404 184.75 418.604 184.75C413.904 184.75 414.304 193.4 414.304 196.25C414.454 198.95 414.254 205.55 418.204 205.55C420.904 205.55 421.754 202.35 421.704 200.15H417.954V192.2Z" fill="#E0F3FF" fill-opacity="0.9"/>
</svg>
