<svg width="546" height="327" viewBox="0 0 546 327" fill="none" xmlns="http://www.w3.org/2000/svg">
<rect width="546" height="327" rx="50" fill="#0E3D68"/>
<path d="M157.233 112.55V123.35C155.783 121.95 154.583 121.15 152.483 121.15C147.183 121.15 145.883 127 145.883 131.15C145.883 135.55 147.183 141.15 152.283 141.15C154.583 141.15 156.033 140.25 157.683 138.75L157.083 149.3C155.033 150.2 153.183 150.65 150.933 150.65C142.583 150.65 135.483 144.3 135.483 131.4C135.483 114.5 147.083 111.65 152.033 111.65C153.833 111.65 155.583 111.9 157.233 112.55ZM178.442 112.3H188.642V136.95C188.642 141.5 187.642 150.65 175.842 150.65C164.042 150.65 163.042 141.5 163.042 136.95V112.3H173.242V136C173.242 137 173.192 138.3 173.492 139.3C173.792 140.35 174.442 141.15 175.842 141.15C177.292 141.15 177.942 140.35 178.192 139.35C178.492 138.3 178.442 137 178.442 136.05V112.3ZM193.446 149.1V137.3C194.846 139.4 197.296 141.5 199.896 141.5C201.296 141.5 202.896 140.65 202.896 139C202.896 138.1 202.596 137.45 202.096 136.9C201.646 136.35 201.046 135.9 200.396 135.45C198.396 133.9 196.646 132.45 195.346 130.65C194.096 128.9 193.296 126.8 193.296 124.05C193.296 119.65 196.096 111.65 204.796 111.65C207.246 111.65 209.896 112.4 212.046 113.55V125C210.846 123.1 208.396 120.95 206.046 120.95C204.846 120.95 203.396 121.8 203.396 123.25C203.396 124.05 203.846 124.75 204.396 125.35C204.946 125.95 205.696 126.45 206.246 126.9C208.396 128.4 210.096 129.8 211.246 131.5C212.446 133.2 213.096 135.2 213.096 138.05C213.096 145.05 208.196 150.65 201.096 150.65C198.496 150.65 195.846 150.1 193.446 149.1ZM231.637 150H221.437V121.5H215.837V112.3H237.487V121.5H231.637V150ZM239.828 131.15C239.828 121.95 243.878 111.65 254.228 111.65C264.578 111.65 268.628 121.95 268.628 131.15C268.628 140.35 264.578 150.65 254.228 150.65C243.878 150.65 239.828 140.35 239.828 131.15ZM250.228 131.15C250.228 133.5 250.378 141.15 254.228 141.15C258.078 141.15 258.228 133.5 258.228 131.15C258.228 128.8 258.078 121.15 254.228 121.15C250.378 121.15 250.228 128.8 250.228 131.15ZM311.046 150H300.446L299.496 126.3H299.396C298.946 129.05 298.596 131.8 298.096 134.55L295.196 150H286.896L283.346 126.3H283.246C283.196 129.1 283.246 131.85 283.096 134.65L282.246 150H271.296L275.696 112.3H288.396L291.296 132.35H291.396C291.696 130 291.946 127.7 292.396 125.35L294.846 112.3H307.396L311.046 150ZM325.006 150H314.806V112.3H325.006V150ZM355.117 150H329.167L339.467 126.05C340.167 124.4 341.317 122.6 342.367 120.9C340.367 121 338.117 121.2 335.917 121.2H331.417V112.3H356.367L345.217 138.1C344.717 139.3 344.117 140.4 343.617 141.55C345.467 141.4 347.367 141.1 349.317 141.1H355.117V150ZM360.509 150V112.3H379.459V121.2H370.709V126.45H378.559V135.35H370.709V141.1H379.459V150H360.509ZM385.46 150V112.3H393.66C405.26 112.3 411.51 119.6 411.51 131C411.51 148.4 400.56 150 394.36 150H385.46ZM395.66 121.7V140.9C400.31 140.85 401.11 135.05 401.11 131.5C401.11 127.4 400.31 121.7 395.66 121.7ZM109.099 209.45V198.9C110.049 200.2 111.549 201.1 113.249 201.1C116.099 201.1 116.199 198.05 116.199 195.85V172.3H126.399V197.85C126.399 202.9 125.749 210.65 115.849 210.65C113.499 210.65 111.299 210.2 109.099 209.45ZM131.234 191.15C131.234 181.95 135.284 171.65 145.634 171.65C155.984 171.65 160.034 181.95 160.034 191.15C160.034 200.35 155.984 210.65 145.634 210.65C135.284 210.65 131.234 200.35 131.234 191.15ZM141.634 191.15C141.634 193.5 141.784 201.15 145.634 201.15C149.484 201.15 149.634 193.5 149.634 191.15C149.634 188.8 149.484 181.15 145.634 181.15C141.784 181.15 141.634 188.8 141.634 191.15ZM164.952 210V172.3H176.952C182.952 172.3 189.952 174.9 189.952 183.05C189.952 187.3 187.202 190.6 182.902 190.6V190.7C187.902 191.1 190.552 194.2 190.552 199.25C190.552 203.9 187.752 210 178.652 210H164.952ZM175.152 201.85H176.002C178.252 201.85 180.252 200.75 180.252 198.2C180.252 195.65 178.302 194.6 175.952 194.6H175.152V201.85ZM175.152 186.95H175.752C177.852 186.95 179.802 186.1 179.802 183.65C179.802 181.4 178.252 180.45 176.152 180.45H175.152V186.95ZM248.058 210H237.458L236.508 186.3H236.408C235.958 189.05 235.608 191.8 235.108 194.55L232.208 210H223.908L220.358 186.3H220.258C220.208 189.1 220.258 191.85 220.108 194.65L219.258 210H208.308L212.708 172.3H225.408L228.308 192.35H228.408C228.708 190 228.958 187.7 229.408 185.35L231.858 172.3H244.408L248.058 210ZM278.717 210H268.167L267.417 205.15H260.567L259.717 210H249.217L258.267 172.3H270.717L278.717 210ZM261.917 197.15H266.217L265.117 188.4C264.817 186.05 264.617 183.65 264.367 181.3H264.267C263.967 183.65 263.717 186.05 263.317 188.4L261.917 197.15ZM294.234 210H284.034V181.5H278.434V172.3H300.084V181.5H294.234V210ZM324.225 172.55V183.35C322.775 181.95 321.575 181.15 319.475 181.15C314.175 181.15 312.875 187 312.875 191.15C312.875 195.55 314.175 201.15 319.275 201.15C321.575 201.15 323.025 200.25 324.675 198.75L324.075 209.3C322.025 210.2 320.175 210.65 317.925 210.65C309.575 210.65 302.475 204.3 302.475 191.4C302.475 174.5 314.075 171.65 319.025 171.65C320.825 171.65 322.575 171.9 324.225 172.55ZM355.534 210H345.334V194.7H340.484V210H330.284V172.3H340.484V185.8H345.334V172.3H355.534V210ZM371.783 210H361.583V172.3H371.783V210ZM377.794 210V172.3H387.494L395.644 195L395.744 194.9C395.344 190.55 394.594 186.25 394.594 181.9V172.3H404.394V210H394.594L386.994 188.25L386.894 188.35C387.144 191.9 387.594 195.4 387.594 198.95V210H377.794ZM423.361 188.2H437.561L437.611 189.8C437.611 199.1 435.811 210.65 424.011 210.65C412.911 210.65 409.311 200.9 409.311 191.35C409.311 182 412.861 171.65 423.911 171.65C430.011 171.65 434.561 175.5 436.761 180.95L426.911 184.6C426.811 183.1 425.811 180.75 424.011 180.75C419.311 180.75 419.711 189.4 419.711 192.25C419.861 194.95 419.661 201.55 423.611 201.55C426.311 201.55 427.161 198.35 427.111 196.15H423.361V188.2Z" fill="#CBE1F0"/>
</svg>
