<svg width="18" height="13" viewBox="0 0 18 13" fill="none" xmlns="http://www.w3.org/2000/svg">
<path d="M0.9 0.356934C0.4032 0.356934 0 0.810647 0 1.36969C0 1.92872 0.4032 2.38244 0.9 2.38244H17.1C17.5968 2.38244 18 1.92872 18 1.36969C18 0.810647 17.5968 0.356934 17.1 0.356934H0.9ZM0.9 5.42069C0.4032 5.42069 0 5.87441 0 6.43345C0 6.99248 0.4032 7.4462 0.9 7.4462H17.1C17.5968 7.4462 18 6.99248 18 6.43345C18 5.87441 17.5968 5.42069 17.1 5.42069H0.9ZM0.9 10.4845C0.4032 10.4845 0 10.9382 0 11.4972C0 12.0562 0.4032 12.51 0.9 12.51H17.1C17.5968 12.51 18 12.0562 18 11.4972C18 10.9382 17.5968 10.4845 17.1 10.4845H0.9Z" fill="#0E3D68"/>
</svg>
